<svg xmlns="http://www.w3.org/2000/svg" width="156" height="156" viewBox="0 0 156 156"><defs><style>.a{fill:#3c1053;}</style></defs><path class="a" d="M141.372,5.769c-3.11,2.486-5.793,4.631-11.383,4.631s-8.276-2.145-11.383-4.631C115.224,3.065,111.392,0,103.977,0S92.737,3.065,89.354,5.769C86.25,8.255,83.569,10.4,77.982,10.4S69.711,8.255,66.6,5.769C63.224,3.065,59.392,0,51.979,0S40.737,3.065,37.357,5.772c-3.1,2.483-5.785,4.628-11.37,4.628s-8.265-2.145-11.37-4.631C11.237,3.065,7.41,0,0,0V5.2c5.582,0,8.263,2.145,11.367,4.628,3.38,2.707,7.21,5.772,14.62,5.772s11.24-3.065,14.622-5.769c3.1-2.486,5.782-4.631,11.37-4.631S60.25,7.345,63.357,9.831c3.38,2.7,7.212,5.769,14.625,5.769S89.224,12.535,92.6,9.828c3.1-2.483,5.785-4.628,11.372-4.628s8.276,2.145,11.383,4.631c3.38,2.7,7.215,5.769,14.63,5.769s11.248-3.065,14.63-5.769C147.727,7.345,150.41,5.2,156,5.2V0C148.585,0,144.752,3.065,141.372,5.769Z"/><g transform="translate(0 54.6)"><path class="a" d="M141.372,173.769c-3.11,2.486-5.793,4.631-11.383,4.631s-8.276-2.145-11.383-4.631c-3.383-2.7-7.215-5.769-14.63-5.769s-11.24,3.065-14.622,5.769c-3.1,2.486-5.785,4.631-11.372,4.631s-8.271-2.145-11.378-4.631c-3.38-2.7-7.212-5.769-14.625-5.769s-11.242,3.065-14.622,5.772c-3.1,2.483-5.785,4.628-11.37,4.628s-8.265-2.145-11.37-4.631C11.237,171.065,7.41,168,0,168v5.2c5.582,0,8.263,2.145,11.367,4.628,3.38,2.707,7.21,5.772,14.62,5.772s11.24-3.065,14.622-5.769c3.1-2.486,5.782-4.631,11.37-4.631s8.271,2.145,11.378,4.631c3.38,2.7,7.212,5.769,14.625,5.769s11.242-3.065,14.622-5.772c3.1-2.483,5.785-4.628,11.372-4.628s8.276,2.145,11.383,4.631c3.38,2.7,7.215,5.769,14.63,5.769s11.248-3.065,14.63-5.769c3.107-2.486,5.79-4.631,11.38-4.631V168C148.585,168,144.752,171.065,141.372,173.769Z" transform="translate(0 -168)"/></g><g transform="translate(0 26)"><path class="a" d="M141.372,85.769c-3.11,2.486-5.793,4.631-11.383,4.631s-8.276-2.145-11.383-4.631c-3.383-2.7-7.215-5.769-14.63-5.769s-11.24,3.065-14.622,5.769c-3.1,2.486-5.785,4.631-11.372,4.631S69.711,88.255,66.6,85.769C63.224,83.065,59.392,80,51.979,80s-11.242,3.065-14.622,5.772c-3.1,2.483-5.785,4.628-11.37,4.628s-8.265-2.145-11.37-4.631C11.237,83.065,7.41,80,0,80v5.2c5.582,0,8.263,2.145,11.367,4.628,3.38,2.707,7.21,5.772,14.62,5.772s11.24-3.065,14.622-5.769c3.1-2.486,5.782-4.631,11.37-4.631s8.271,2.145,11.378,4.631c3.38,2.7,7.212,5.769,14.625,5.769S89.224,92.535,92.6,89.828c3.1-2.483,5.785-4.628,11.372-4.628s8.276,2.145,11.383,4.631c3.38,2.7,7.215,5.769,14.63,5.769s11.248-3.065,14.63-5.769c3.107-2.486,5.79-4.631,11.38-4.631V80C148.585,80,144.752,83.065,141.372,85.769Z" transform="translate(0 -80)"/></g><g transform="translate(0 83.2)"><path class="a" d="M141.372,261.769c-3.11,2.486-5.793,4.631-11.383,4.631s-8.276-2.145-11.383-4.631c-3.383-2.7-7.215-5.769-14.63-5.769s-11.24,3.065-14.622,5.769c-3.1,2.486-5.785,4.631-11.372,4.631s-8.271-2.145-11.378-4.631c-3.38-2.7-7.212-5.769-14.625-5.769s-11.242,3.065-14.622,5.772c-3.1,2.483-5.785,4.628-11.37,4.628s-8.265-2.145-11.37-4.631C11.237,259.065,7.41,256,0,256v5.2c5.582,0,8.263,2.145,11.367,4.628,3.38,2.707,7.21,5.772,14.62,5.772s11.24-3.065,14.622-5.769c3.1-2.486,5.782-4.631,11.37-4.631s8.271,2.145,11.378,4.631c3.38,2.7,7.212,5.769,14.625,5.769s11.242-3.065,14.622-5.772c3.1-2.483,5.785-4.628,11.372-4.628s8.276,2.145,11.383,4.631c3.38,2.7,7.215,5.769,14.63,5.769s11.248-3.065,14.63-5.769c3.107-2.486,5.79-4.631,11.38-4.631V256C148.585,256,144.752,259.065,141.372,261.769Z" transform="translate(0 -256)"/></g><g transform="translate(0 140.4)"><path class="a" d="M141.372,437.769c-3.11,2.486-5.793,4.631-11.383,4.631s-8.276-2.145-11.383-4.631c-3.383-2.7-7.215-5.769-14.63-5.769s-11.24,3.065-14.622,5.769c-3.1,2.486-5.785,4.631-11.372,4.631s-8.271-2.145-11.378-4.631c-3.38-2.7-7.212-5.769-14.625-5.769s-11.242,3.065-14.622,5.772c-3.1,2.483-5.785,4.628-11.37,4.628s-8.265-2.145-11.37-4.631C11.237,435.065,7.41,432,0,432v5.2c5.582,0,8.263,2.145,11.367,4.628,3.38,2.707,7.21,5.772,14.62,5.772s11.24-3.065,14.622-5.769c3.1-2.486,5.782-4.631,11.37-4.631s8.271,2.145,11.378,4.631c3.38,2.7,7.212,5.769,14.625,5.769s11.242-3.065,14.622-5.772c3.1-2.483,5.785-4.628,11.372-4.628s8.276,2.145,11.383,4.631c3.38,2.7,7.215,5.769,14.63,5.769s11.248-3.065,14.63-5.769c3.107-2.486,5.79-4.631,11.38-4.631V432C148.585,432,144.752,435.065,141.372,437.769Z" transform="translate(0 -432)"/></g><g transform="translate(0 111.8)"><path class="a" d="M141.372,349.769c-3.11,2.486-5.793,4.631-11.383,4.631s-8.276-2.145-11.383-4.631c-3.383-2.7-7.215-5.769-14.63-5.769s-11.24,3.065-14.622,5.769c-3.1,2.486-5.785,4.631-11.372,4.631s-8.271-2.145-11.378-4.631c-3.38-2.7-7.212-5.769-14.625-5.769s-11.242,3.065-14.622,5.772c-3.1,2.483-5.785,4.628-11.37,4.628s-8.265-2.145-11.37-4.631C11.237,347.065,7.41,344,0,344v5.2c5.582,0,8.263,2.145,11.367,4.628,3.38,2.707,7.21,5.772,14.62,5.772s11.24-3.065,14.622-5.769c3.1-2.486,5.782-4.631,11.37-4.631s8.271,2.145,11.378,4.631c3.38,2.7,7.212,5.769,14.625,5.769s11.242-3.065,14.622-5.772c3.1-2.483,5.785-4.628,11.372-4.628s8.276,2.145,11.383,4.631c3.38,2.7,7.215,5.769,14.63,5.769s11.248-3.065,14.63-5.769c3.107-2.486,5.79-4.631,11.38-4.631V344C148.585,344,144.752,347.065,141.372,349.769Z" transform="translate(0 -344)"/></g></svg>