<svg xmlns="http://www.w3.org/2000/svg" width="286.515" height="186" viewBox="0 0 286.515 186"><defs><style>.a{fill:#08293c;}.b{fill:#aa076b;}</style></defs><g transform="translate(110 -2502)"><g transform="translate(-64 2532)"><path class="a" d="M141.372,5.769c-3.11,2.486-5.793,4.631-11.383,4.631s-8.276-2.145-11.383-4.631C115.224,3.065,111.392,0,103.977,0S92.737,3.065,89.354,5.769C86.25,8.255,83.569,10.4,77.982,10.4S69.711,8.255,66.6,5.769C63.224,3.065,59.392,0,51.979,0S40.737,3.065,37.357,5.772c-3.1,2.483-5.785,4.628-11.37,4.628s-8.265-2.145-11.37-4.631C11.237,3.065,7.41,0,0,0V5.2c5.582,0,8.263,2.145,11.367,4.628,3.38,2.707,7.21,5.772,14.62,5.772s11.24-3.065,14.622-5.769c3.1-2.486,5.782-4.631,11.37-4.631S60.25,7.345,63.357,9.831c3.38,2.7,7.212,5.769,14.625,5.769S89.224,12.535,92.6,9.828c3.1-2.483,5.785-4.628,11.372-4.628s8.276,2.145,11.383,4.631c3.38,2.7,7.215,5.769,14.63,5.769s11.248-3.065,14.63-5.769C147.727,7.345,150.41,5.2,156,5.2V0C148.585,0,144.752,3.065,141.372,5.769Z"/><g transform="translate(-46 54.6)"><path class="a" d="M141.372,173.769c-3.11,2.486-5.793,4.631-11.383,4.631s-8.276-2.145-11.383-4.631c-3.383-2.7-7.215-5.769-14.63-5.769s-11.24,3.065-14.622,5.769c-3.1,2.486-5.785,4.631-11.372,4.631s-8.271-2.145-11.378-4.631c-3.38-2.7-7.212-5.769-14.625-5.769s-11.242,3.065-14.622,5.772c-3.1,2.483-5.785,4.628-11.37,4.628s-8.265-2.145-11.37-4.631C11.237,171.065,7.41,168,0,168v5.2c5.582,0,8.263,2.145,11.367,4.628,3.38,2.707,7.21,5.772,14.62,5.772s11.24-3.065,14.622-5.769c3.1-2.486,5.782-4.631,11.37-4.631s8.271,2.145,11.378,4.631c3.38,2.7,7.212,5.769,14.625,5.769s11.242-3.065,14.622-5.772c3.1-2.483,5.785-4.628,11.372-4.628s8.276,2.145,11.383,4.631c3.38,2.7,7.215,5.769,14.63,5.769s11.248-3.065,14.63-5.769c3.107-2.486,5.79-4.631,11.38-4.631V168C148.585,168,144.752,171.065,141.372,173.769Z" transform="translate(0 -168)"/></g><g transform="translate(-43 26)"><path class="a" d="M141.372,85.769c-3.11,2.486-5.793,4.631-11.383,4.631s-8.276-2.145-11.383-4.631c-3.383-2.7-7.215-5.769-14.63-5.769s-11.24,3.065-14.622,5.769c-3.1,2.486-5.785,4.631-11.372,4.631S69.711,88.255,66.6,85.769C63.224,83.065,59.392,80,51.979,80s-11.242,3.065-14.622,5.772c-3.1,2.483-5.785,4.628-11.37,4.628s-8.265-2.145-11.37-4.631C11.237,83.065,7.41,80,0,80v5.2c5.582,0,8.263,2.145,11.367,4.628,3.38,2.707,7.21,5.772,14.62,5.772s11.24-3.065,14.622-5.769c3.1-2.486,5.782-4.631,11.37-4.631s8.271,2.145,11.378,4.631c3.38,2.7,7.212,5.769,14.625,5.769S89.224,92.535,92.6,89.828c3.1-2.483,5.785-4.628,11.372-4.628s8.276,2.145,11.383,4.631c3.38,2.7,7.215,5.769,14.63,5.769s11.248-3.065,14.63-5.769c3.107-2.486,5.79-4.631,11.38-4.631V80C148.585,80,144.752,83.065,141.372,85.769Z" transform="translate(0 -80)"/></g><g transform="translate(-27 83.2)"><path class="a" d="M141.372,261.769c-3.11,2.486-5.793,4.631-11.383,4.631s-8.276-2.145-11.383-4.631c-3.383-2.7-7.215-5.769-14.63-5.769s-11.24,3.065-14.622,5.769c-3.1,2.486-5.785,4.631-11.372,4.631s-8.271-2.145-11.378-4.631c-3.38-2.7-7.212-5.769-14.625-5.769s-11.242,3.065-14.622,5.772c-3.1,2.483-5.785,4.628-11.37,4.628s-8.265-2.145-11.37-4.631C11.237,259.065,7.41,256,0,256v5.2c5.582,0,8.263,2.145,11.367,4.628,3.38,2.707,7.21,5.772,14.62,5.772s11.24-3.065,14.622-5.769c3.1-2.486,5.782-4.631,11.37-4.631s8.271,2.145,11.378,4.631c3.38,2.7,7.212,5.769,14.625,5.769s11.242-3.065,14.622-5.772c3.1-2.483,5.785-4.628,11.372-4.628s8.276,2.145,11.383,4.631c3.38,2.7,7.215,5.769,14.63,5.769s11.248-3.065,14.63-5.769c3.107-2.486,5.79-4.631,11.38-4.631V256C148.585,256,144.752,259.065,141.372,261.769Z" transform="translate(0 -256)"/></g><g transform="translate(9 140.4)"><path class="a" d="M141.372,437.769c-3.11,2.486-5.793,4.631-11.383,4.631s-8.276-2.145-11.383-4.631c-3.383-2.7-7.215-5.769-14.63-5.769s-11.24,3.065-14.622,5.769c-3.1,2.486-5.785,4.631-11.372,4.631s-8.271-2.145-11.378-4.631c-3.38-2.7-7.212-5.769-14.625-5.769s-11.242,3.065-14.622,5.772c-3.1,2.483-5.785,4.628-11.37,4.628s-8.265-2.145-11.37-4.631C11.237,435.065,7.41,432,0,432v5.2c5.582,0,8.263,2.145,11.367,4.628,3.38,2.707,7.21,5.772,14.62,5.772s11.24-3.065,14.622-5.769c3.1-2.486,5.782-4.631,11.37-4.631s8.271,2.145,11.378,4.631c3.38,2.7,7.212,5.769,14.625,5.769s11.242-3.065,14.622-5.772c3.1-2.483,5.785-4.628,11.372-4.628s8.276,2.145,11.383,4.631c3.38,2.7,7.215,5.769,14.63,5.769s11.248-3.065,14.63-5.769c3.107-2.486,5.79-4.631,11.38-4.631V432C148.585,432,144.752,435.065,141.372,437.769Z" transform="translate(0 -432)"/></g><g transform="translate(-7 111.8)"><path class="a" d="M141.372,349.769c-3.11,2.486-5.793,4.631-11.383,4.631s-8.276-2.145-11.383-4.631c-3.383-2.7-7.215-5.769-14.63-5.769s-11.24,3.065-14.622,5.769c-3.1,2.486-5.785,4.631-11.372,4.631s-8.271-2.145-11.378-4.631c-3.38-2.7-7.212-5.769-14.625-5.769s-11.242,3.065-14.622,5.772c-3.1,2.483-5.785,4.628-11.37,4.628s-8.265-2.145-11.37-4.631C11.237,347.065,7.41,344,0,344v5.2c5.582,0,8.263,2.145,11.367,4.628,3.38,2.707,7.21,5.772,14.62,5.772s11.24-3.065,14.622-5.769c3.1-2.486,5.782-4.631,11.37-4.631s8.271,2.145,11.378,4.631c3.38,2.7,7.212,5.769,14.625,5.769s11.242-3.065,14.622-5.772c3.1-2.483,5.785-4.628,11.372-4.628s8.276,2.145,11.383,4.631c3.38,2.7,7.215,5.769,14.63,5.769s11.248-3.065,14.63-5.769c3.107-2.486,5.79-4.631,11.38-4.631V344C148.585,344,144.752,347.065,141.372,349.769Z" transform="translate(0 -344)"/></g></g><g transform="translate(-19.2 2502)"><g transform="translate(58.356 0)"><path class="b" d="M195.715,76.7a28.189,28.189,0,0,0-28.363-28.363,28.846,28.846,0,0,0-20.26,8.509,26,26,0,0,0-15.8-8.1,28.4,28.4,0,0,1,27.958-24.717,3.828,3.828,0,0,0,4.052-4.052,3.828,3.828,0,0,0-4.052-4.052,36.631,36.631,0,0,0-25.122,10.13,29.186,29.186,0,0,0-8.914-16.613C118.324,2.553,108.194-.689,98.065.122c-2.026,0-3.242,1.621-3.647,3.647a32.681,32.681,0,0,0,9.319,27.148,63.843,63.843,0,0,0,6.078,4.862,4.362,4.362,0,0,0,5.673-1.216,4.362,4.362,0,0,0-1.216-5.673,12.663,12.663,0,0,1-4.457-3.647,22.937,22.937,0,0,1-7.293-17.423,24.152,24.152,0,0,1,17.423,6.888c5.267,5.267,7.7,12.561,6.888,21.07a1.488,1.488,0,0,1-.405,1.216,6.844,6.844,0,0,1-1.216,2.431,35.092,35.092,0,0,0-2.431,12.966,3.828,3.828,0,0,0,4.052,4.052A20.259,20.259,0,1,1,106.573,76.7a19.451,19.451,0,0,1,6.888-14.992,4.021,4.021,0,0,0-5.267-6.078l-1.216,1.216a28.846,28.846,0,0,0-20.259-8.509,28.363,28.363,0,0,0,0,56.727,23.773,23.773,0,0,0,9.319-1.621,4.1,4.1,0,0,0-2.836-7.7,20.583,20.583,0,0,1-6.888,1.216,20.26,20.26,0,1,1,15.4-33.226A29.238,29.238,0,0,0,98.47,76.7a28.415,28.415,0,0,0,26.742,28.363,18.14,18.14,0,0,1,1.621,8.1,20.182,20.182,0,0,1-40.114,3.241,4.132,4.132,0,0,0-8.1,1.621,28.179,28.179,0,0,0,21.475,22.691,21.805,21.805,0,0,0-1.621,8.914A28.189,28.189,0,0,0,126.833,178a28.645,28.645,0,0,0,27.958-23.5,4.132,4.132,0,1,0-8.1-1.621,20.182,20.182,0,0,1-40.114-3.241,26.191,26.191,0,0,1,1.621-8.1,28.415,28.415,0,0,0,26.742-28.363,21.8,21.8,0,0,0-1.621-8.914A28.25,28.25,0,0,0,155.2,76.7a26.728,26.728,0,0,0-3.241-12.966,20.206,20.206,0,1,1,15.4,33.226,20.583,20.583,0,0,1-6.888-1.216,4.1,4.1,0,0,0-2.836,7.7,43.06,43.06,0,0,0,7.7,1.621,18.14,18.14,0,0,1,1.621,8.1,20.063,20.063,0,0,1-20.259,20.259,20.583,20.583,0,0,1-6.888-1.216,4.1,4.1,0,1,0-2.836,7.7,25.123,25.123,0,0,0,9.319,1.621,28.189,28.189,0,0,0,28.363-28.363,21.8,21.8,0,0,0-1.621-8.914A28.144,28.144,0,0,0,195.715,76.7Z" transform="translate(-58.356 0)"/></g></g></g></svg>