<svg xmlns="http://www.w3.org/2000/svg" width="255.457" height="71.671" viewBox="0 0 255.457 71.671"><defs><style>.a{fill:#fff;}.b{fill:#fcfdfd;}</style></defs><g transform="translate(227.429 -210.223)"><path class="a" d="M563.138,318.921c-.506.517-.5,1.262-.841,1.862a9.8,9.8,0,0,1-7.654,4.869,29.919,29.919,0,0,1-3.138.11.916.916,0,0,1-1.057-.958c-.1-1.12-.193-2.242-.33-3.358-.112-.913.322-1.19,1.146-1.123a11.014,11.014,0,0,0,3.813-.2,2.9,2.9,0,0,0,2.445-2.336,2.753,2.753,0,0,0-1.591-2.862,29.045,29.045,0,0,0-3.224-1.856c-5.39-2.541-4.637-9.966-.463-12.614a11.985,11.985,0,0,1,6.39-1.843.943.943,0,0,1,1.084.794c.3,1.163.609,2.323.939,3.477.173.607-.043.855-.648.922-1.041.116-2.081.249-3.112.429a2.393,2.393,0,0,0-2.16,1.684,2.136,2.136,0,0,0,1.154,2.446c1.194.793,2.425,1.533,3.666,2.252a7.8,7.8,0,0,1,3.58,5.04Z" transform="translate(-535.11 -60.927)"/><path class="a" d="M366.111,211.322l.055-.327c.755.6,1.687-.315,2.273.094,1.232.861,1.161.962,1.88-.3a6.367,6.367,0,0,0,1.913,1.545c.908.453,1.06.039,1.065-.716,0-.465,0-.931,0-1.4h.466c.36,1.153,1.886,2.342,2.631,2.011.048.667-.588,1.834.989,1.421.158-.041.189.214.166.357-.277,1.687.539.934,1.324.334-.149.939.285,1.647-.01,2.394-.192-.115-.2-.314-.226-.5.051-.28-.142-.454-.28-.652l-.071-.161-.11.152c-.272.128-.551.155-.667-.176-.338-.965-1.416-1.345-1.766-2.309-.308-.845-1.3-.887-1.855-1.448-.66,1.755-1.03,1.827-2.553.62-.353-.28-.8-.868-1.32-.039-.186.3-.766.1-.954-.105-.95-1.033-1.756-.413-2.591.133Q366.292,211.787,366.111,211.322Z" transform="translate(-409.123)"/><path class="a" d="M454.8,300.413a12.848,12.848,0,0,1,9.611-2.187,10.233,10.233,0,0,1,6.2,3.614c.2.227.481.579.69.556.443-.048.3-.553.379-.864.682-2.868.37-2.52,3.187-2.06,2.76.451,2.819.5,2.342,3.246a64.659,64.659,0,0,0-.377,16.128c.128,1.663.2,3.331.322,4.994.062.817-.194,1.218-1.087,1.236a26.276,26.276,0,0,0-3.36.286c-.908.136-1.293-.234-1.424-1.068-.108-.689-.249-1.372-.387-2.056-.1-.517-.357-.653-.8-.294-.422.342-.866.656-1.286,1-6.443,5.278-13.943,2.544-17.481-3.816-.225-.4-.444-.811-.666-1.216-.051-.185-.089-.374-.154-.554C448.42,311.568,449.765,304.384,454.8,300.413Zm8.307,3.14a9.321,9.321,0,0,0-1.712.218c-5.572,1.591-7.5,9.351-3.423,13.844a6.882,6.882,0,0,0,10.819-.371A9.048,9.048,0,0,0,469.1,306.7,6.706,6.706,0,0,0,463.1,303.553Z" transform="translate(-466.643 -60.535)"/><path class="a" d="M129.469,287.288a23.888,23.888,0,0,1,.556-17.059c4.256-9.841,13.388-12.536,22.21-9.777a13.719,13.719,0,0,1,6.257,4.281,1.661,1.661,0,0,1,.251,2.283c-.7,1.026-1.363,2.073-1.988,3.143-.561.961-1.117.846-1.8.14-.591-.614-1.206-1.212-1.854-1.765-5.711-4.873-13.8-3.079-16.68,3.837a17.124,17.124,0,0,0,.375,14.545c2.752,5.65,9.116,7.5,14.606,4.407a19.9,19.9,0,0,0,3.994-3.18c.525-.508.861-.477,1.279.109.765,1.073,1.563,2.125,2.381,3.158a1.111,1.111,0,0,1-.039,1.642,17.394,17.394,0,0,1-6.143,4.684,41.245,41.245,0,0,1-9.381-3.924c-2.974-1.563-5.717-3.564-8.9-4.738C132.9,288.448,131.18,287.882,129.469,287.288Z" transform="translate(-245.109 -33.919)"/><path class="a" d="M414.744,278.1c-5.031,3.971-6.377,11.155-4.3,16.946.065.18.1.369.154.554a4.93,4.93,0,0,1-.733,1.037c-.755.635-1.476,1.152-1.262,2.392.122.707-.627,1.15-1.363,1.1s-.889.2-.88.906c.023,1.84-.493,2.573-2.227,3.213a1.081,1.081,0,0,0-.7.794c-.679,1.913-1.752,2.578-3.372,2.114a2.992,2.992,0,0,1-1.733-3.631,2.1,2.1,0,0,0-.573-2.4,4.392,4.392,0,0,1-.963-3.267,2.287,2.287,0,0,1-1.848.689l.023.016c-.067-.227-.251-.222-.435-.219l-.74-1c-.154-1.307.8-2.687-.272-3.948a.767.767,0,0,1,.022-.673c.375-.7-.073-1.021-.517-1.432-1.5-1.392-2.009-3.021-1.14-4.448.591-.971.356-1.476-.432-2.007.928-1.124,1.8-2.3,2.8-3.358,1.137-1.2.911-2.614.837-4.023-.021-.4-.313-.593-.677-.686a13.4,13.4,0,0,1,4.243-2.334c-.037-.43-.44-.535-.646-.8s-.53-.621-.389-.794c.741-.909.058-1.855.166-2.769a4.764,4.764,0,0,1,3.211-4.19c.219.054.425.064.555-.172a6.062,6.062,0,0,1,3.328.676l.236-.063.559-.17.074.09.109-.039.02-.012c-.073.227.067.32.245.39l.059.073.188.212.075.341c0,.431.342.293.571.346a7.783,7.783,0,0,1,1.007,4.1c-.038.457.022.826.611.332.851-.713.791.048.848.577,2.193-1.242,4.076-.255,5.02,2.9A8.036,8.036,0,0,1,414.744,278.1ZM399,293.875c0,2.407-.007,4.814,0,7.221.006,1.489.13,1.606,1.565,1.608,1.2,0,2.41-.043,3.611.015.9.044,1.288-.266,1.225-1.2-.077-1.161-.07-2.328-.117-3.491-.264-6.605.123-13.2.417-19.79.043-.948-.263-1.287-1.184-1.133a14.051,14.051,0,0,1-4.4.04c-1.465-.216-1.491-.126-1.464,1.367C398.745,283.638,399.452,288.74,399,293.875Zm3.193-27.036a3.518,3.518,0,0,0-3.746,3.313c-.039,2.167,1.115,3.3,3.5,3.4a6.321,6.321,0,0,0,1.493-.151,2.768,2.768,0,0,0,2.47-2.894A3.436,3.436,0,0,0,402.194,266.839Z" transform="translate(-426.591 -38.217)"/><path class="a" d="M-41.024,288.87c0,2.754-.023,5.508.01,8.261.009.722-.16.827-.842.606-3.431-1.115-3.432-1.1-3.438-4.648q-.008-5.177-.03-10.355a13.612,13.612,0,0,0,.071-2.762c-.013-5.316-.018-10.631-.05-15.947a1.625,1.625,0,0,1,.684-1.272,14.773,14.773,0,0,1,7.96-3.466,16.161,16.161,0,0,1,4.515-.105,8.043,8.043,0,0,1,6.325,4.2,17.588,17.588,0,0,1,.953,16.079c-2.306,5.453-7.8,7.364-13.519,5.051-.852-.345-1.67-.771-2.593-1.2v3.119Q-41,287.652-41.024,288.87Zm0-16.869v5.005c0,3.682.072,3.779,3.662,4.922.074.024.143.062.217.084,4,1.175,7.128-.548,8.2-4.562a23.364,23.364,0,0,0,.391-8.2,11.8,11.8,0,0,0-1.115-4.238,4.963,4.963,0,0,0-4.455-3.034,12.112,12.112,0,0,0-6.139,1.412,1.334,1.334,0,0,0-.776,1.4C-41.006,267.189-41.028,269.6-41.028,272Z" transform="translate(-125.524 -33.67)"/><path class="a" d="M46.071,296.653c-.6-1.5.607-1.243,1.374-1.415a1.858,1.858,0,0,0,1.218-.233c4.457-.5,6.372-2.179,7.416-6.5l0-1.2c.042-.853.05-1.709.136-2.556.093-.915-.256-.907-.964-.616a20.777,20.777,0,0,1-8.148,1.549,8.334,8.334,0,0,1-6.32-2.953,6.611,6.611,0,0,1-1.65-4.585c-.01-5.473.008-10.947-.021-16.42a1.011,1.011,0,0,1,.818-1.168,23.25,23.25,0,0,0,2.524-.851c.814-.342,1.046-.182,1.04.726-.036,5.4-.021,10.791-.013,16.187a8.626,8.626,0,0,0,.118,1.85,5.416,5.416,0,0,0,4.967,4.193A10.9,10.9,0,0,0,55.4,280.9c.6-.359.574-.842.574-1.389,0-6.056.03-12.112-.031-18.166-.011-1.111.335-1.424,1.361-1.294.95.12,2.2-.414,2.79.213s.165,1.849.167,2.81q.023,9.607,0,19.215c0,1.435-.061,2.87-.094,4.305a2.707,2.707,0,0,0-.126,1.195c-.789,6-3.641,8.934-9.841,10-1.2.207-2.417.674-3.671.23Z" transform="translate(-183.727 -33.996)"/><path class="a" d="M242.021,325.31c-10.488-4.146-10.895-17.629-4.729-23.78,4-3.992,12.467-5.222,16.942.284.209.258.431.714.772.619.4-.11.333-.623.4-.987.464-2.374.464-2.374,2.825-1.986,3.211.528,3.175.522,2.649,3.683a40.036,40.036,0,0,0-.655,6.825,4.211,4.211,0,0,1-1.441,3.218c-.837.61-1.659,1.244-2.513,1.83-1.118.767-1.187.685-1.591-.578-.432-1.347.058-2.783-.493-4.1-.506-3.057-2.021-5.4-5.022-6.432-4.017-1.385-8.049,1.076-9.336,5.556a6.477,6.477,0,0,0-3.2.913c-2.511,1.358-3.58,6.106-1.042,8.1a11.631,11.631,0,0,0,7.359,2.372,24.373,24.373,0,0,0,10.383-1.976c.738-.338,1.06-.221,1.231.545a5.691,5.691,0,0,0,.345.735c.76,1.952,2.243,3.4,3.5,5a1.464,1.464,0,0,1-.331.1c-3.206.194-2.77.682-3.374-2.48-.231-1.213-.333-1.264-1.318-.471a13.983,13.983,0,0,1-6.52,3.361,9.241,9.241,0,0,1-1.966.086A11.856,11.856,0,0,0,242.021,325.31Z" transform="translate(-317.551 -60.574)"/><path class="a" d="M352.785,321.967l.74,1c.094.175.144.435.435.219l-.023-.016a22.317,22.317,0,0,1,.177,3.16c0,.71-.24,1.116-1,1.09-1.045-.036-2.091-.051-3.135-.114a2,2,0,0,1-1.6-.99c-1.426-2.12-2.9-4.208-4.366-6.3-1.011-1.444-1.02-1.44-2.055.046q-1.394,2-2.78,4.008c-1.858-1.639-2.619-1.423-4.41.245a3.262,3.262,0,0,0-.476.645c-.51.8-1.012,1.6-1.517,2.395-.28.013-.679,0-.677-.293.011-1.355-.536-2.787.478-4.025,1.893-2.312,3.827-4.592,5.662-6.95,1.417-1.821,1.444-1.375.035-3.189-1.784-2.3-3.609-4.569-5.508-6.773-1.128-1.31-.659-2.788-.713-4.216-.018-.472.443-.471.792-.46,1.2.037,2.4.1,3.608.134a1.641,1.641,0,0,1,1.353.954c1.523,2.294,3.076,4.569,4.583,6.874.475.726.782.762,1.281.009,1.5-2.263,3.1-4.462,4.56-6.748a2.233,2.233,0,0,1,2.273-1.2,28.319,28.319,0,0,0,2.905-.08c.364.093.656.29.677.686.074,1.409.3,2.822-.837,4.023-1,1.057-1.871,2.234-2.8,3.358-1.243,1.224-2.292,2.616-3.421,3.939a1.062,1.062,0,0,0,.022,1.606C348.977,317.312,350.875,319.645,352.785,321.967Z" transform="translate(-385.583 -62.843)"/><path class="a" d="M266.679,350.288c.5-.8,1.006-1.6,1.517-2.395a3.263,3.263,0,0,1,.476-.645c1.791-1.667,2.552-1.884,4.41-.245.483,3.349-1.9,4.954-4.752,5.347-.894.123-1.146.458-1.288,1.26a13.679,13.679,0,0,0,.1,4.843c-.231.4-.609.19-.928.222-.912-1.794-.346-3.646-.219-5.481.021-.3.354-.744-.276-.784-2.008-.129-3.644-1.216-5.377-2.054-1.255-1.6-2.738-3.048-3.5-5a5.683,5.683,0,0,1-.345-.735c-.172-.766-.494-.883-1.231-.545a24.372,24.372,0,0,1-10.383,1.976,11.631,11.631,0,0,1-7.359-2.372c-2.538-2-1.469-6.745,1.042-8.1a6.477,6.477,0,0,1,3.2-.913c4.332.327,6.961,2.875,8.563,6.672.933,2.212.873,2.238,3.154,1.406a4.508,4.508,0,0,0,.54-.214,1.862,1.862,0,0,0,1.132-2.263,14.364,14.364,0,0,1-.47-3.791c.043-.952.474-1.372,1.44-.935.552,1.317.062,2.753.493,4.1.4,1.263.474,1.344,1.591.578.854-.586,1.675-1.22,2.513-1.83a4.211,4.211,0,0,0,1.441-3.218c1.294.431,1.5.909.949,2.123-.282.625-.9,1.071-.942,1.818-1.3.657-2.017,2.033-3.275,2.707-1.188.636-1.108,1.438-.661,2.479.973,2.267,2.079,4.4,4.455,5.532a6.047,6.047,0,0,0,3.239,1.218C266.531,351.123,266.795,350.9,266.679,350.288Zm1.61,0c-.408.565-.3.838.426.721a2.929,2.929,0,0,0,1.414-.669,13.8,13.8,0,0,0,1.24-1.191c.312-.378.639-.853.126-1.33a1.045,1.045,0,0,0-1.552.01A5.951,5.951,0,0,0,268.289,350.285Zm-26.843-13.728c-3.042.494-4.521,3.524-2.77,5.674.96,1.18,4.316,2.075,5.84,1.558,1.484.541,2.976.207,4.465.038.563-.064.419-.431.326-.772a11.134,11.134,0,0,0-3.338-5.609A4.3,4.3,0,0,0,241.446,336.556Z" transform="translate(-319.487 -85.778)"/><path class="a" d="M-161.362,238.724a4.376,4.376,0,0,1,.882,2.927c.029,3.064,0,6.127.019,9.191a13.609,13.609,0,0,1-.674,3.032l.012-.016c-.177-.018-.216.107-.245.24-1,.655-2,1.314-3,1.962a1.654,1.654,0,0,1-1.3.356,19.746,19.746,0,0,0-8.489.039l-2.108-.06a1.678,1.678,0,0,1,.606-1.329c2.378-2.824,4.8-5.61,7.2-8.42,2.019-2.369,4.018-4.756,6.028-7.134C-162.149,239.162-161.9,238.748-161.362,238.724Z" transform="translate(-35.252 -19.646)"/><path class="a" d="M-191.65,232.878c-.535.024-.787.438-1.083.789-2.01,2.378-4.009,4.765-6.028,7.134-2.394,2.81-4.817,5.6-7.2,8.42a1.678,1.678,0,0,0-.606,1.329c-2.943.625-5.144,2.1-5.93,5.189-.1.372-.12.762-.177,1.144-.343.007-.748-.085-.975.231-1.092,1.513-2.624,2.688-3.405,4.438a3.868,3.868,0,0,1-3.178-1.873c.649-.08.782-.695,1.122-1.09,4.243-4.939,8.507-9.861,12.7-14.843a9.494,9.494,0,0,0,2.179-2.943l1.722-.115c.666.034,1.551.284,1.276-.9-.176-.755-.936-.178-1.371-.413a1.12,1.12,0,0,1,.287-.846c1.463-1.68,2.976-3.324,4.343-5.08.814-1.046,2.021-1.817,2.377-3.2A5.543,5.543,0,0,1-191.65,232.878Z" transform="translate(-4.964 -13.8)"/><path class="a" d="M-184.127,289.5a19.746,19.746,0,0,1,8.489-.039,1.654,1.654,0,0,0,1.3-.356c1-.649,2-1.308,3-1.962.137-.023.288-.033.245-.24l-.012.016c.5.162.887-.273,1.36-.252a4.218,4.218,0,0,1-1.4,2.07c-1.367,1.217-1.362,1.226.254,1.915.459.2.927.373,1.391.559l3.052,2.01c.261.28.51.572.784.838,1.842,1.789,2.642,3.828,1.542,6.332-1.523,2.258-3.542,3.446-6.346,2.943a10.8,10.8,0,0,1-3.7-1.527l-1.3-1.234a8.038,8.038,0,0,1-1.5-5.5c.116-.648.273-1.291.336-1.944s.943-1.371.374-1.863c-.469-.405-1.394-.3-2.122-.383-.382-.043-.779.033-1.161-.012-.619-.074-.9.193-1.05.776a17.633,17.633,0,0,1-1.595,4.105,5.974,5.974,0,0,1-3.561,3.144,3.856,3.856,0,0,1-4.386-1.266c-.929-1.346-.823-2.818.363-4.4.437-.582.945-1.111,1.421-1.664l-.011.009a.882.882,0,0,0,.724-.458Zm9.542,8.83a3.68,3.68,0,0,0,2.32,2.318c1.775.895,3.55,1.2,5.324,0a3.142,3.142,0,0,0,.611-4.654,6.582,6.582,0,0,0-2.19-1.857,14.1,14.1,0,0,0-4.773-2.265.785.785,0,0,0-1.119.462A6.563,6.563,0,0,0-174.584,298.333Zm-7.6-7.248c-2.185.662-4.136,1.2-5.631,2.648-1.064,1.028-1.263,2.33-.6,2.995a2.7,2.7,0,0,0,3.318-.189,2.172,2.172,0,0,0,.259-.234A12.192,12.192,0,0,0-182.186,291.085Z" transform="translate(-25.291 -52.694)"/><path class="a" d="M-170.887,335.4a10.8,10.8,0,0,0,3.7,1.527c-.007.543-.041,1.087-.014,1.627a5.139,5.139,0,0,1-3.416,5.391,16.772,16.772,0,0,1-13.742,0A4.231,4.231,0,0,1-186,342.876c.006-.35.224-.528.494-.721,1.91-1.362,3.837-2.706,5.693-4.139,1.013-.782,2.361-1.2,2.9-2.529Zm1.023,4.651a1.911,1.911,0,0,0-1.98-1.981,2.071,2.071,0,0,0-1.969,1.883,2.225,2.225,0,0,0,2.052,2.008A1.844,1.844,0,0,0-169.863,340.05Z" transform="translate(-28.56 -86.283)"/><path class="a" d="M-207.937,264.037a9.5,9.5,0,0,1-2.18,2.943c-4.191,4.982-8.455,9.9-12.7,14.843-.34.4-.474,1.011-1.122,1.09a8.509,8.509,0,0,1-1.672-4.192c.709-.154,1.063-.751,1.481-1.239,2.561-2.987,5.142-5.958,7.628-9.007.9-1.108,2.2-1.967,2.491-3.52l1.86-.972,3.981-.031Z" transform="translate(-1.255 -37.036)"/><path class="a" d="M-215.263,265.02c-.289,1.552-1.588,2.412-2.491,3.52-2.486,3.049-5.066,6.021-7.628,9.007-.418.487-.773,1.085-1.481,1.239a17.9,17.9,0,0,1,.493-10.5,6.223,6.223,0,0,1,6.071-4.223c.465-.009.929-.013,1.394-.019C-218.02,265.393-217.343,265.574-215.263,265.02Z" transform="translate(0 -37.1)"/><path class="a" d="M154.632,358.623a11.856,11.856,0,0,1,2.874.442,14.276,14.276,0,0,1-7.251,2.121,33.474,33.474,0,0,1-13.887-2.2c-.4-.145-.812-.236-1.218-.351a2.358,2.358,0,0,0-.464-.327,50.9,50.9,0,0,1-8.266-4.157,39.552,39.552,0,0,0-11.111-5.055,26.01,26.01,0,0,0-8.824-1.418,2.708,2.708,0,0,1,.126-1.195,23.8,23.8,0,0,1,6.658.6c.412.083.834.118,1.252.175,1.711.594,3.433,1.16,5.132,1.788,3.179,1.174,5.922,3.174,8.9,4.738a41.244,41.244,0,0,0,9.381,3.924,8.346,8.346,0,0,0,3.59,1.057,57.773,57.773,0,0,0,7.911,1.094A8.457,8.457,0,0,0,154.632,358.623Z" transform="translate(-230.161 -93.888)"/><path class="a" d="M-180.962,320.545c-.543,1.327-1.892,1.747-2.9,2.529-1.856,1.433-3.783,2.776-5.693,4.139-.27.193-.488.371-.494.721-1.728-1.214-1.965-2.97-1.774-4.881a1.727,1.727,0,0,0,1.273-.456c3.481-2.506,6.95-5.03,10.463-7.491.737-.516,1.357-1.287,2.351-1.385a8.04,8.04,0,0,0,1.5,5.5q-2.3.011-4.6.023c-.342,0-.7-.041-.765.466S-181.515,320.528-180.962,320.545Z" transform="translate(-24.502 -71.34)"/><path class="a" d="M-128.207,275.552c-.464-.186-.932-.363-1.391-.559-1.615-.689-1.62-.7-.254-1.915a4.218,4.218,0,0,0,1.4-2.07c.73-1.9.527-3.884.486-5.839-.021-.984.283-1.3,1.238-1.2a11.18,11.18,0,0,0,2.2,0c3.28-.312,5.091,2.479,5.436,4.957-.575-.1-.95.311-1.344.588-2.02,1.421-4.029,2.86-6.011,4.334C-127.1,274.334-128.08,274.514-128.207,275.552Z" transform="translate(-66.575 -37.031)"/><path class="a" d="M134.893,355.005A39.552,39.552,0,0,1,146,360.06a50.9,50.9,0,0,0,8.266,4.157,2.36,2.36,0,0,1,.464.327c-5.973,1.517-13.374.148-17.942-6.227A13.8,13.8,0,0,1,134.893,355.005Z" transform="translate(-249.746 -99.797)"/><path class="a" d="M-177.773,304.372c-.995.1-1.614.869-2.351,1.385-3.513,2.461-6.982,4.985-10.463,7.491a1.727,1.727,0,0,1-1.273.456c-.015-2.931-.147-5.867,0-8.79a4.166,4.166,0,0,1,2.708-4.046c-.476.553-.985,1.082-1.421,1.664-1.186,1.58-1.292,3.051-.363,4.4a3.856,3.856,0,0,0,4.386,1.266,5.974,5.974,0,0,0,3.561-3.144,17.633,17.633,0,0,0,1.595-4.105c.149-.583.431-.85,1.05-.776.382.046.779-.031,1.161.012.728.083,1.653-.023,2.122.382.569.492-.309,1.2-.374,1.863S-177.657,303.724-177.773,304.372Z" transform="translate(-24.47 -61.991)"/><path class="a" d="M-162.806,229.006c-.356,1.387-1.563,2.158-2.377,3.2-1.367,1.756-2.88,3.4-4.343,5.08a1.12,1.12,0,0,0-.287.846l-.922.07c-.5-.366-.972-.772-1.5-1.086-.473-.28-.567-.493-.206-.97A13.382,13.382,0,0,0-171,233.644a1.245,1.245,0,0,0-.447-1.784c.005-.441.382-.64.6-.944a9.739,9.739,0,0,0,1.743-2.4A21.043,21.043,0,0,1-162.806,229.006Z" transform="translate(-37.752 -12.563)"/><path class="a" d="M-2.594,357.03l.467,1.365c-.548-.279-.871.191-1.232.414a17.059,17.059,0,0,1-14.095,1.9A22.746,22.746,0,0,1-27.9,353.8c-1.249-1.358-2.393-2.813-3.585-4.224q.023-1.219.046-2.437a63.793,63.793,0,0,0,5.933,7.268c6.126,6.213,13.29,6.81,20.15,4.3A8.383,8.383,0,0,0-2.594,357.03Z" transform="translate(-135.062 -94.373)"/><path class="a" d="M-110.207,303.99c1.1-2.5.3-4.543-1.542-6.332-.274-.266-.523-.558-.784-.838l6.78-4.934c.353.579.113,1.24.257,1.848a16.107,16.107,0,0,1-1.664,7.341A4.594,4.594,0,0,1-110.207,303.99Z" transform="translate(-79.198 -56.29)"/><path class="a" d="M-112.523,283.643l-6.78,4.934-3.052-2.01c.127-1.037,1.105-1.217,1.757-1.7,1.982-1.474,3.991-2.913,6.011-4.334.394-.277.769-.688,1.344-.588a15.925,15.925,0,0,1,.826,3.449C-112.453,283.476-112.488,283.56-112.523,283.643Z" transform="translate(-72.427 -48.047)"/><path class="a" d="M-190.308,239.43a1.245,1.245,0,0,1,.447,1.784,13.384,13.384,0,0,1-1.438,2.508c-.361.477-.266.69.206.97.529.313,1,.72,1.5,1.086l1.016,1.241-1.722.115-.23-.084c-1.359-1.646-1.9-1.716-3.48-.437-.177.144-.334.311-.5.468l-1.86.972c-2.08.554-2.757.373-3.643-.973-.082-2.007.575-3.022,2.523-3.9a10.543,10.543,0,0,1,4.109.393c.524.223.891-.021,1.081-.542a4.744,4.744,0,0,0,1.3-2.1l.414-.8Zm-7.209,5.485a1.3,1.3,0,0,0-.776.658c-.186.338-.423.725-.253,1.086.2.428.689.257,1.048.242a3.8,3.8,0,0,0,2.476-1.115,1.921,1.921,0,0,0,.978-.97C-195.256,244.541-196.381,244.267-197.517,244.915Z" transform="translate(-18.894 -20.132)"/><path class="a" d="M-184.708,232.01l-.272.707-.709.023c-1.023-1.015-1.87-1.226-2.727-.6a1.839,1.839,0,0,0-.733,2.327c.38.983,1.148,1.34,2.451,1.15-.19.521-.557.765-1.081.542a10.544,10.544,0,0,0-4.109-.393c0-.232-.006-.464-.006-.7,0-3.95.953-5.135,4.818-5.945a23.364,23.364,0,0,1,4.714-.457,9.739,9.739,0,0,1-1.743,2.4C-184.326,231.371-184.7,231.569-184.708,232.01Z" transform="translate(-24.494 -12.713)"/><path class="a" d="M-90.711,291.33c.035-.084.07-.167.106-.251a37.831,37.831,0,0,1,12.966,10.113c.3.339.428.968,1.1.844a13.615,13.615,0,0,1-.071,2.762,42.45,42.45,0,0,0-12.7-11.075c-.37-.205-.765-.365-1.148-.545C-90.6,292.57-90.358,291.909-90.711,291.33Z" transform="translate(-94.239 -55.733)"/><path class="a" d="M311.193,359.7c-2.376-1.128-3.482-3.266-4.455-5.532-.446-1.041-.527-1.842.661-2.479,1.258-.674,1.976-2.05,3.275-2.707C310.847,352.551,311.24,356.112,311.193,359.7Z" transform="translate(-367.989 -95.643)"/><path class="a" d="M-210,320.631c.781-1.749,2.313-2.925,3.405-4.438.228-.315.632-.224.975-.231.013,1.348.03,2.7.038,4.045,0,.375.083.843-.52.808C-207.4,320.74-208.718,321.032-210,320.631Z" transform="translate(-12.013 -72.881)"/><path class="a" d="M74.56,348.912q0,.6,0,1.2a1.228,1.228,0,0,0-.432.1,35.519,35.519,0,0,0-6.985,6.393,1.858,1.858,0,0,1-1.218.233c1.787-1.993,3.548-4.009,5.372-5.967A8.656,8.656,0,0,1,74.56,348.912Z" transform="translate(-202.206 -95.597)"/><path class="a" d="M435.624,229.868a6.568,6.568,0,0,1-.778-3.966c.292,1.132.471,1.99.74,2.818a11.514,11.514,0,0,0,1.476,2.5,26.04,26.04,0,0,1,3.161-6.924c-.814,2.206-2.1,4.223-2.582,6.556-.125.119-.291.263-.112.419.153.133.325.02.45-.121.851-.034,1.535-.892,2.471-.5l-.017-.017-2.8,1.208c.6.631,1.479.824,1.833,1.688-.575-.341-1.145-.689-1.726-1.02-.262-.149-.61-.407-.529.239l-.51.447c-.32.35-.139.958-.629,1.22l-.205-.173a2.264,2.264,0,0,0,.35-1.718c.192-.307.851-.573.084-.964l-.087.027a1.4,1.4,0,0,0-.417-1.43l-.181-.273Z" transform="translate(-456.464 -9.702)"/><path class="a" d="M458.374,249.708c-.23.478-.639.988.332,1.14,1.238.193,1.522,1.526,2.441,2.116.1.066-.048.292-.2.351a8.679,8.679,0,0,0-2.2,1.632.71.71,0,0,1-.711.113c-.266-.047-.663-.212-.763,0-.451.979-1.351.517-2.037.717q0-.212,0-.424l.01-.009c.234-.011.484.041.667-.169,1.039-.684,2.4-.432,3.426-1.247,1.011-.8,1.1-1.145.255-2.087a2.574,2.574,0,0,0-1.616-.781c-.81-.136-.454-.8-.551-1.235-.091-.41.285-.5.592-.514.11-.007.231.16.347.248A.308.308,0,0,1,458.374,249.708Z" transform="translate(-470.56 -26.944)"/><path class="a" d="M414.3,245.288c.7,1.483,1.622,2.887,1.654,4.615.005.28.228.246.424.167-.1.381-.429.567-.616.232-.369-.662-.628-.159-.938-.02l-1.791-1.4a.481.481,0,0,0,.3-.486l1.259.615c.106.063.169.29.323.135.044-.045-.069-.245-.11-.375a26.406,26.406,0,0,0-1.71-3.195c.487.181.487.181,1.354,1.444l.256.446c.033.178.033.372.238.461l.155.392c.028-.026.085-.06.08-.076-.039-.137-.09-.271-.137-.406l-.184-.5-.208-.466-.561-1.3Z" transform="translate(-441.464 -24.17)"/><path class="a" d="M418.8,251.933c.309-.14.569-.643.938.02.187.335.516.149.616-.232a5.194,5.194,0,0,1,2.619-2.467c.794-.477,1.825-.631,2.307-1.572.767.39.108.657-.084.964a6.943,6.943,0,0,0-4.792,4.666c-.129.236-.335.226-.555.172C419.709,252.822,419.078,252.5,418.8,251.933Z" transform="translate(-445.438 -25.82)"/><path class="a" d="M456.765,226.861c.455.565.869.248,1.4.052.6-.223,1.251-1.413,1.957-.108.85-.275,1.488.791,2.363.373.121-.058.21-.164.4-.031.943.668.951.657,1.962.136l-1.254,2.33-.205-.222c.771-1.323-.535-1.385-1.135-1.627-.945-.382-2.039-.254-2.949-.962-.294-.228-.935.387-1.393.665-.56.34-1.081.515-1.335-.343Z" transform="translate(-471.476 -11.015)"/><path class="a" d="M357.731,271.409c-.18.049-.45.2-.526.132a2.406,2.406,0,0,0-3.309-.175c-.255-.185-.123-.289-.069-.337.707-.631,1.561-1.046,1.754-2.2.242-1.444,1.487-2.117,2.711-2.7l.075,0,.075.007a1.736,1.736,0,0,1-.915.844c-1.074.348-1.354,1.342-1.73,2.194-.448,1.014.581,1.249,1.11,1.752.327.311.783-.066,1.056.294Z" transform="translate(-400.599 -38.531)"/><path class="a" d="M380.242,280.614c.288-.4.558-.7,1.127-.326a1.4,1.4,0,0,0,1.045.163c.958-.285,1.215.312,1.428,1.026,1.185-.963,2.12-2.3,3.86-2.255l.4.022c-.011.11-.026.318-.033.318-2.035-.083-3.055,1.508-4.407,2.712-.365-.448-.069-1.511-.663-1.4-.927.177-1.848-.627-2.712.08Z" transform="translate(-418.863 -47.559)"/><path class="a" d="M386.13,247.194c.425-.135.022-.794.614-.884l.069,1.1a.749.749,0,0,0,.42.5l.011.234c-.789.134-.09.617-.213.907-.53.4.063.791,0,1.187l0,0c-.763-.124-.459-.786-.55-1.2-.15-.676-.425-.442-.758-.207l-.153-.289c.064-.117.209-.274.176-.345-.088-.183-.286-.148-.459-.089l-.329-.09-1.626-.145c.345-.342.806-.094,1.19-.236a10.1,10.1,0,0,0,1.138.017c.547-.05.083-.261.044-.4Z" transform="translate(-420.991 -24.874)"/><path class="a" d="M399.228,229.578c.028.189.033.388.226.5.152,1.355-.108,2.41-1.659,2.829-.615.166-.684.991-1.046,1.485-.256.35-.258.889-.77,1.048l.008.007c.391-1.349.79-2.7,2.3-3.244.489-.177.43-.56.542-.967C398.982,230.69,398.831,230.061,399.228,229.578Z" transform="translate(-429.711 -13.341)"/><path class="a" d="M310.1,428.932c.817-.026,1.612.195,2.378-.506.479-.438.9-.012.725.686a.22.22,0,0,0-.206.016c-.049-.314-.25-.608-.515-.318-.933,1.021-2.124.378-3.176.585-.162.032-.284.076-.377-.1a6.93,6.93,0,0,1,.912-3.158c.027.028.054.056.08.085-.16.58-.341,1.155-.471,1.741-.072.323-.382.73.181.947Z" transform="translate(-369.686 -148.831)"/><path class="a" d="M452.963,237.651c.1-.116.167-.294.289-.34,2.339-.88,4.606-1.93,6.926-2.86a23.461,23.461,0,0,1-7.231,3.184Z" transform="translate(-468.978 -16.699)"/><path class="a" d="M347.739,407.443c-.378.763-.24,1.72-.993,2.374-.175.152.177.815.1,1.2-.071.339.806.019.258.44-.307.235-.479-.034-.564-.329-.2-.691-.488-1.31.259-1.974a2.241,2.241,0,0,0,.492-1.944c.427-.109.729-.326.7-.823a4.609,4.609,0,0,1,.911-2.014l.1.092c-.246.966-.959,1.83-.64,2.919l-.324.057Z" transform="translate(-395.475 -133.827)"/><path class="a" d="M324.753,416.935c.159.178.279.431.594.311l.192.141a1.425,1.425,0,0,0,1.648,1.48c.765-.039.878.538,1.222,1.078-.658-.121-.771-.943-1.443-.759-.225.007-.5-.2-.649.141q-.08.058-.157.121l-.815-.537v1.376l-.261.013c-.217-.426.549-1.184-.453-1.345l.008-.3c.713-.548-.05-1.058-.041-1.588Z" transform="translate(-380.508 -142.485)"/><path class="a" d="M333.024,411.451c.32-.032.7.181.928-.222,1.158.77,2.466.409,3.715.492a.624.624,0,0,0,0,.177,9.031,9.031,0,0,1-2.921.248c-.174.36.318.7-.089.985-.793-.054-.633-1.453-1.658-1.207l0,0Z" transform="translate(-386.3 -138.552)"/><path class="a" d="M473.461,236.463l.205.222c.016.219.307.476.107.628-.515.392-1.5.489-.782,1.508-.163.076-.326.154-.49.229-.479.217-.674.495-.2.92l-.012-.012a1.5,1.5,0,0,1-1.1.4A11.78,11.78,0,0,1,473.461,236.463Z" transform="translate(-481.555 -18.087)"/><path class="a" d="M444.535,268.761l0,.424c-.531.341-1.55.269-1.03,1.5-1.208-.29-2.07-1.161-3.228-1-.228-.053-.572.085-.571-.346a3.154,3.154,0,0,1,1.014-.1c.808-.034,1.622.983,2.083.577A5.966,5.966,0,0,1,444.535,268.761Z" transform="translate(-459.849 -40.35)"/><path class="a" d="M427.245,229.225c-.087.413.188.961-.465,1.161-.314.1-.245.325-.127.552.245.473.477.954.726,1.425.1.2.805.1.338.552-.261.253-.62-.037-.756-.3a8.2,8.2,0,0,1-.925-2.659c-.036-.27.065-.355.309-.291.652.173.665-.068.4-.566a.277.277,0,0,1,.242-.418c.245-.028.477-.015.436.338C427.3,229.034,427.212,229.076,427.245,229.225Z" transform="translate(-450.423 -12.715)"/><path class="a" d="M334.686,242.379a2.7,2.7,0,0,1-1.449-1.307c.829.254,1.521.834,2.168.058.062-.074.309-.08.308-.106-.1-1.535,1.138-.484,1.636-.848l-.016-.017c.166.809-1.155.193-.974,1.016-.666.133-.941.827-1.532,1.067Z" transform="translate(-386.463 -20.634)"/><path class="a" d="M434.288,218.972c-.651,1.375-1.174,1.453-2,.281l-1.15,1.483-.277-.41c.444-.736,1.186-1.278,1.34-2.209.6.372.207,1.312.862,1.431.415.076.765-.416,1.027-.8Z" transform="translate(-453.756 -5.442)"/><path class="a" d="M349.826,232.9c-.9.583-1.691,1.3-2.659,1.8-.274.142-.523.1-.756.221l.016.017c-.085-.635.1-.9.826-1,.586-.083,1.7-.119,1.087-1.375a2.823,2.823,0,0,1,1.484.3Z" transform="translate(-395.541 -15.395)"/><path class="a" d="M441.256,217.181a1.386,1.386,0,0,0,.342-1.15c.717.782,1.271,1.145,1.547-.03a3.352,3.352,0,0,1,1.772-.076l.2.441c-1.412-.327-2.336,1.082-3.669,1.035Z" transform="translate(-460.92 -3.872)"/><path class="a" d="M404.394,253.527a.481.481,0,0,1-.3.486c-1.321-.486-2.669-.886-4.028-1.285A12.278,12.278,0,0,1,404.394,253.527Z" transform="translate(-432.528 -29.298)"/><path class="a" d="M412.154,241.533l.561,1.3-.2.153c-.867-1.263-.867-1.263-1.354-1.444l0,.008c.214-.652-.411-.809-.691-1.169-.041,0-.082.006-.124.007l-.114-.487-.008.013a2.672,2.672,0,0,1,1.183-.47l-.01-.012C411.213,240.293,411.933,240.824,412.154,241.533Z" transform="translate(-439.533 -20.137)"/><path class="a" d="M357.3,428.164c-.826-.047-1.563.4-2.474.21-.782-.163.016.681-.316,1.077-.455-.706-1.651-.057-1.93-1.144l-.005.017c.338-.107.575.106.839.253.2.111.5.242.63.058.863-1.246,2.06-.618,3.147-.608C357.232,428.072,357.269,428.118,357.3,428.164Z" transform="translate(-399.795 -150.015)"/><path class="a" d="M326.115,433.258A18.5,18.5,0,0,0,329,430.683c.387.692.085,1.12-.756,1.288-.513.1-.7.838-1.165,1.2a1.488,1.488,0,0,1-.925.328Z" transform="translate(-381.554 -151.961)"/><path class="a" d="M360.158,220.761c-.614-.309-1.179-.478-1.117-1.492.044-.715-.637-1.473-.994-2.213a1.531,1.531,0,0,0,.168-.156,5.21,5.21,0,0,1,1.5,2.954c.072.423.487.443.607.754Z" transform="translate(-403.564 -4.603)"/><path class="a" d="M346.98,257.326c.918-.1,1.174.434,1.172,1.218.095.329.354.151.547.178-.334.657-.878.177-1.288.313-.236-.469.6-.578.254-.933-.26-.269-.592-.6-1.1-.357-.2.094-.584.253-.7-.065-.129-.352.319-.456.5-.681l.2.186C346.647,257.4,346.813,257.363,346.98,257.326Z" transform="translate(-395.152 -32.242)"/><path class="a" d="M346.5,247.007l4.492.64c-.258.073-.561-.005-.769.231a18.675,18.675,0,0,1-3.755-.648A1.019,1.019,0,0,1,346.5,247.007Z" transform="translate(-395.581 -25.355)"/><path class="a" d="M375.919,250.077c-.384.141-.845-.106-1.19.236l-3.877.005.357-.179A11.281,11.281,0,0,1,375.919,250.077Z" transform="translate(-412.391 -27.309)"/><path class="a" d="M341.321,249.589c-1.512.074-1.921-1.056-2.357-2.157V247.1a10.865,10.865,0,0,0,2.338,2.329A.331.331,0,0,1,341.321,249.589Z" transform="translate(-390.411 -25.422)"/><path class="a" d="M434.906,242.438a1.4,1.4,0,0,1,.417,1.43c-.836-.259-1.221-1.015-1.823-1.57.418-.406.854-.009,1.234-.153l-.009.02c0,.111,0,.221-.006.331Z" transform="translate(-455.574 -21.978)"/><path class="a" d="M369.224,413.475c.1.845-.431.876-1.057.878-.32,0-.722,0-.861.428-.153.477.335.415.518.609a.987.987,0,0,1-.093.114c-.515-.011-.92-.146-.875-.781a.659.659,0,0,1,.909-.607c.774.215.859-.6,1.351-.77Q369.171,413.408,369.224,413.475Z" transform="translate(-409.634 -140.01)"/><path class="a" d="M395.105,231.946v-3.419a4.435,4.435,0,0,1,.3,3.578Z" transform="translate(-429.108 -12.617)"/><path class="a" d="M361.806,398.478c.1.808.11.811,1.438,1.048-.611.089-1.12.968-1.763.361A.939.939,0,0,1,361.806,398.478Z" transform="translate(-405.791 -129.763)"/><path class="a" d="M374.55,282.613l.042.342c-.268.337-.4,1.3-.813-.019-.247-.8-1.163-.3-1.792-.109,0-.074,0-.148,0-.222C372.842,281.779,373.7,282.166,374.55,282.613Z" transform="translate(-413.171 -49.558)"/><path class="a" d="M363.1,230.463c.076,1.7-.211,1.943-1.66,1.392a.18.18,0,0,0,.05-.182c1.06.269,1.068-.663,1.4-1.225A1.445,1.445,0,0,1,363.1,230.463Z" transform="translate(-405.903 -13.94)"/><path class="a" d="M453.245,214.02l-.2-.441c.891.048,1.5-.511,2.281-1.143C455.12,213.85,454.09,213.81,453.245,214.02Z" transform="translate(-469.043 -1.525)"/><path class="a" d="M434.635,260.337l-.236.063c0-1.219-.6-2.6.905-3.415l.166.189a1.963,1.963,0,0,0-.754,1.951A2.016,2.016,0,0,1,434.635,260.337Z" transform="translate(-456.11 -32.233)"/><path class="a" d="M359.02,391.7c-.357.4-.286.934-.379,1.533-.382-1.207-.95-1.4-2.591-1,.382-.569.452-.657,1.384-.514a1.817,1.817,0,0,0,1.42-.181C358.907,391.6,358.963,391.65,359.02,391.7Z" transform="translate(-402.187 -124.981)"/><path class="a" d="M342.162,395.594c.355-.612.63-1.129.948-1.618.116-.18.343-.368.571-.186.164.13.338.529.145.563C343.084,394.483,343.043,395.47,342.162,395.594Z" transform="translate(-392.615 -126.481)"/><path class="a" d="M358.55,249.3c.208-.236.511-.158.769-.231l2.337.093.09.34A9.974,9.974,0,0,1,358.55,249.3Z" transform="translate(-403.911 -26.776)"/><path class="a" d="M453.722,254.939a3.657,3.657,0,0,1-2.905-1.336Z" transform="translate(-467.51 -29.901)"/><path class="a" d="M376.9,407.282c.487-.167.918-.674,1.622-.263-.35.382-1.217.1-1.009.953.055.226-.344.292-.548.2-.515-.232.029-.592-.071-.884Z" transform="translate(-416.453 -135.542)"/><path class="a" d="M312.846,411.745c.4-.975,1.614-.956,1.7-1.953,0,0,.326-.038.422.039.193.154-.063.221-.117.335C314.466,410.974,313.705,411.267,312.846,411.745Z" transform="translate(-372.408 -137.554)"/><path class="a" d="M378.685,262.931a6.78,6.78,0,0,1-1.815,1.688l-.251-.2,1.82-1.732Z" transform="translate(-416.367 -36.16)"/><path class="a" d="M397.525,257.082c.5.914,1.447,1.193,2.286,1.628l-.106.139a2.874,2.874,0,0,1-2.371-1.6Z" transform="translate(-430.645 -32.3)"/><path class="a" d="M356.882,214.1a2.472,2.472,0,0,1-.521-1.49c.718.256,1.288.5.689,1.334A1.531,1.531,0,0,1,356.882,214.1Z" transform="translate(-402.399 -1.644)"/><path class="a" d="M314.3,419.63a3.843,3.843,0,0,1,3.149.428A16.778,16.778,0,0,0,314.3,419.63Z" transform="translate(-373.412 -144.246)"/><path class="a" d="M456.931,223.322a1.823,1.823,0,0,0-.04-.227c-.127-.411-.314-.85.264-1.067.27-.1.269.171.346.332.3.636-.08.831-.6.945Z" transform="translate(-471.605 -8.122)"/><path class="a" d="M394.445,263.6c.058-.585-.262-1.1.259-1.474a.246.246,0,0,1,.359.172A1.112,1.112,0,0,1,394.445,263.6Z" transform="translate(-428.622 -35.751)"/><path class="a" d="M368.255,282.871c0,.074,0,.148,0,.222-.786.841-1.122-.262-1.683-.39l.232-.2Z" transform="translate(-409.442 -49.825)"/><path class="a" d="M372.217,268.462a4.605,4.605,0,0,1-2.348,1.133l2.1-1.337Z" transform="translate(-411.713 -40.003)"/><path class="a" d="M311.7,431.523l-.47-.016c-.079-.765.584-1,1.02-1.605C312.549,430.751,311.621,430.95,311.7,431.523Z" transform="translate(-371.289 -151.423)"/><path class="a" d="M321.453,435.676a.22.22,0,0,1,.206-.016c.225.155.76-.071.684.359a.96.96,0,0,1-.8.516A.449.449,0,0,1,321.453,435.676Z" transform="translate(-378.146 -155.379)"/><path class="a" d="M394.868,253.126c.122-.29-.576-.773.213-.907l.628,1.511-.191.169Z" transform="translate(-428.828 -28.948)"/><path class="a" d="M404.648,276.1l-.4-.022c.134-.524-.272-1.316.706-1.419l.024.006Z" transform="translate(-435.412 -44.413)"/><path class="a" d="M407.167,270.176c.5.821.19,1.249-.684,1.4l-.023-.007c-.206-.669.758-.756.677-1.363Z" transform="translate(-436.915 -41.325)"/><path class="a" d="M387.2,255.142A2.381,2.381,0,0,1,386,256.551,2.073,2.073,0,0,1,387.2,255.142Z" transform="translate(-422.835 -30.962)"/><path class="a" d="M348.008,411.284a.622.622,0,0,1,0-.177c.32-.081.261-.28.153-.494l.306-.276c.22.092.382.429.686.162.028.5-.274.713-.7.822Z" transform="translate(-396.64 -137.938)"/><path class="a" d="M371.114,424.977c.492-.316,1.031-1.018,1.357.181-.426.152-.819-.273-1.225-.04Z" transform="translate(-412.571 -147.688)"/><path class="a" d="M367.434,426.777a1.119,1.119,0,0,1,1.143-.723l.132.141a2.12,2.12,0,0,1-1.166.718C367.508,426.868,367.471,426.822,367.434,426.777Z" transform="translate(-410.035 -148.766)"/><path class="a" d="M308.237,417.992c.307.908-.138.962-.8.894Z" transform="translate(-368.683 -143.214)"/><path class="a" d="M411.412,238.574a2.672,2.672,0,0,0-1.183.47C410.479,238.019,410.684,237.937,411.412,238.574Z" transform="translate(-439.533 -19.263)"/><path class="a" d="M346.508,254.713a.331.331,0,0,0-.019-.155c.474-.077.806.067.9.579l-.382.352-.2-.186C347.056,254.929,346.645,254.891,346.508,254.713Z" transform="translate(-395.598 -30.546)"/><path class="a" d="M382.722,260.985l-.246-.248.83-.877.171.25Z" transform="translate(-420.403 -34.214)"/><path class="a" d="M330.2,424.91c.119.393.471.7.442,1.312l-1.017-1.467q.076-.062.157-.12Z" transform="translate(-383.973 -147.793)"/><path class="a" d="M357.282,262.264c-.675.441-.94.234-.906-.548.537-.15.4.678.878.52Z" transform="translate(-402.41 -35.481)"/><path class="a" d="M368.636,249.6l-.09-.34c.414.01.952-.274,1.074.445l-.357.179A.555.555,0,0,1,368.636,249.6Z" transform="translate(-410.801 -26.877)"/><path class="a" d="M351.2,393.55a.851.851,0,0,1-.654.691c-.023.008-.169-.179-.149-.243C350.506,393.623,350.781,393.5,351.2,393.55Z" transform="translate(-398.287 -126.359)"/><path class="a" d="M358.7,233.728a.18.18,0,0,1-.05.182c-.45-.037-.978.162-1.252-.413l0-.034C357.845,233.493,358.347,233.255,358.7,233.728Z" transform="translate(-403.118 -15.996)"/><path class="a" d="M410.927,242.489c.28.36.905.516.691,1.169C411.205,243.376,410.74,243.125,410.927,242.489Z" transform="translate(-439.985 -22.241)"/><path class="a" d="M350.907,414.25h.295v1.675l-.215.008Z" transform="translate(-398.643 -140.634)"/><path class="a" d="M455.833,227.114c-.608-.478-.293-.72.232-.908l-.026-.016c-.036.221-.2.439-.011.662Z" transform="translate(-470.738 -11.006)"/><path class="b" d="M324.3,438.97l.037.245a.517.517,0,1,1-.037-.245Z" transform="translate(-379.738 -157.674)"/><path class="a" d="M343.4,408.286c.19-.006.363.006.4.177.052.219-.146.23-.29.25s-.327,0-.369-.173C343.092,408.315,343.309,408.335,343.4,408.286Z" transform="translate(-393.288 -136.522)"/><path class="a" d="M390.088,247.209l-.428.061a1.18,1.18,0,0,1-.588-.687l.2-.251Z" transform="translate(-424.949 -24.889)"/><path class="a" d="M365.273,422.069a.76.76,0,0,1,.912.456A.77.77,0,0,1,365.273,422.069Z" transform="translate(-408.545 -146.009)"/><path class="a" d="M365.271,213.761q.181.465.363.93a.514.514,0,0,1-.64-.189c-.033-.127-.067-.255-.1-.382Z" transform="translate(-408.283 -2.439)"/><path class="a" d="M405.071,262.321c.2.1.6.2.437.419-.193.252-.388-.111-.543-.281Z" transform="translate(-435.905 -35.911)"/><path class="a" d="M351.155,428.419c-.2,0-.421.284-.6.039-.134-.184.025-.364.211-.417.334-.1.328.19.383.394Z" transform="translate(-398.366 -150.127)"/><path class="a" d="M372.036,402.865a.7.7,0,0,1,.848.216C372.489,403.421,372.32,403.076,372.036,402.865Z" transform="translate(-413.207 -132.746)"/><path class="a" d="M372.827,227.266a2.914,2.914,0,0,1-.946-.922l.145-.222.995,1.006Z" transform="translate(-413.1 -10.959)"/><path class="a" d="M339.81,403.54c-.066.057-.16.2-.283.231a.178.178,0,0,1-.218-.258.565.565,0,0,1,.326-.253C339.747,403.226,339.837,403.326,339.81,403.54Z" transform="translate(-390.633 -133.055)"/><path class="a" d="M368.207,222.512a2.909,2.909,0,0,1,1.005.953,1.5,1.5,0,0,1-1.1-.81A.143.143,0,0,0,368.207,222.512Z" transform="translate(-410.506 -8.471)"/><path class="a" d="M326.569,410.488c.416.254.508.662.4.745-.311.24-.281-.185-.392-.325C326.528,410.847,326.569,410.713,326.569,410.488Z" transform="translate(-381.855 -138.041)"/><path class="a" d="M440.937,251.953l.51-.447a.447.447,0,0,1,.125.666C441.515,252.236,441.157,252.034,440.937,251.953Z" transform="translate(-460.7 -28.456)"/><path class="a" d="M378.489,232.7l.841.706c-.558.084-.761-.237-.969-.552A.966.966,0,0,0,378.489,232.7Z" transform="translate(-417.567 -15.491)"/><path class="a" d="M443.932,261.41a1.286,1.286,0,0,1,.254.288.274.274,0,0,1-.109.244c-.191.045-.238-.134-.3-.265C443.732,261.574,443.728,261.472,443.932,261.41Z" transform="translate(-462.641 -35.283)"/><path class="a" d="M366.905,261.971a.313.313,0,0,1-.25.339c-.156.03-.344.007-.33-.183.006-.078.232-.133.348-.212S366.872,261.777,366.905,261.971Z" transform="translate(-409.27 -35.58)"/><path class="a" d="M325.764,427.737l.261-.013c-.032.209.082.474-.2.587a.208.208,0,0,1-.185-.077A.364.364,0,0,1,325.764,427.737Z" transform="translate(-381.189 -149.922)"/><path class="a" d="M344.78,246.508a1.021,1.021,0,0,0-.032.223c-.291-.019-.624.062-.774-.32C344.287,246.1,344.517,246.444,344.78,246.508Z" transform="translate(-393.864 -24.856)"/><path class="a" d="M442.388,258.03c-.116-.073-.258-.112-.277-.184-.05-.189.1-.261.255-.24a.292.292,0,0,1,.2.188C442.579,257.858,442.464,257.939,442.388,258.03Z" transform="translate(-461.503 -32.658)"/><path class="a" d="M375.963,407.287c-.208-.031-.472.071-.574-.208-.017-.046.105-.2.178-.211.31-.052.366.179.4.413Z" transform="translate(-415.517 -135.541)"/><path class="a" d="M364.091,214.916c.034.127.067.255.1.382-.142-.118-.471.089-.462-.254C363.731,215,363.965,214.959,364.091,214.916Z" transform="translate(-407.481 -3.235)"/><path class="a" d="M348.23,409.6l-.306.276c-.413-.073-.26-.33-.111-.483C348.09,409.107,348.178,409.348,348.23,409.6Z" transform="translate(-396.403 -137.196)"/><path class="a" d="M365.79,408.225c.126.062.273.087.3.158.066.174-.063.277-.224.268a.31.31,0,0,1-.229-.17C365.618,408.424,365.726,408.325,365.79,408.225Z" transform="translate(-408.794 -136.481)"/><path class="a" d="M323.888,422.469l-.008.3c-.015.147-.039.3-.228.3a.193.193,0,0,1-.142-.124C323.489,422.677,323.7,422.576,323.888,422.469Z" transform="translate(-379.757 -146.3)"/><path class="a" d="M369.772,419.924c.222.048.466.082.373.408-.023.082-.112.215-.158.209-.3-.035-.3-.274-.309-.5A.987.987,0,0,0,369.772,419.924Z" transform="translate(-411.582 -144.545)"/><path class="a" d="M387.757,244.068q.234.353.467.7l-.2.25-.473-.692Z" transform="translate(-423.899 -23.329)"/><path class="a" d="M394.962,249.39a.749.749,0,0,1-.42-.5l.455-.426-.008-.007Q394.975,248.922,394.962,249.39Z" transform="translate(-428.72 -26.352)"/><path class="a" d="M394.6,242.379a1.745,1.745,0,0,1-.38.182c-.142.03-.195-.1-.111-.187a1.2,1.2,0,0,1,.385-.2S394.552,242.282,394.6,242.379Z" transform="translate(-428.396 -22.026)"/><path class="a" d="M386.878,243.5c-.162-.182-.507-.376-.137-.608.2-.129.242.21.345.347Z" transform="translate(-423.229 -22.498)"/><path class="a" d="M407.651,267.923c.26.172.216.447.238.7l-.03.029c-.56-.066-.375-.388-.239-.693Z" transform="translate(-437.637 -39.772)"/><path class="a" d="M370.158,407.918l.251.172c-.07.044-.155.138-.206.121-.084-.026-.147-.123-.218-.191Z" transform="translate(-411.793 -136.27)"/><path class="a" d="M367.467,221.964a.143.143,0,0,1-.09.143c-.175-.035-.433-.1-.295-.3S367.373,221.81,367.467,221.964Z" transform="translate(-409.765 -7.922)"/><path class="a" d="M330.548,424.47l-.419-.275c.152-.344.424-.134.649-.141Z" transform="translate(-384.321 -147.353)"/><path class="a" d="M430.32,225.226l.277.41c-.179.014-.4.1-.5-.112C430.017,225.351,430.171,225.271,430.32,225.226Z" transform="translate(-453.213 -10.341)"/><path class="a" d="M318.52,427.583c-.066-.029-.167-.043-.186-.09s.046-.127.073-.192c.065.028.167.042.186.089S318.548,427.517,318.52,427.583Z" transform="translate(-376.189 -149.63)"/><path class="a" d="M394.819,239.532l.3.158c-.068.138-.166.279-.328.189S394.689,239.64,394.819,239.532Z" transform="translate(-428.822 -20.202)"/><path class="a" d="M365.445,229.35a1.445,1.445,0,0,0-.211-.016l-.392-.349.168-.153.413.311a1.279,1.279,0,0,0,.019.209Z" transform="translate(-408.248 -12.828)"/><path class="a" d="M384.454,239.717l.114.144-.2.159c-.027-.059-.082-.122-.072-.174S384.383,239.77,384.454,239.717Z" transform="translate(-421.654 -20.33)"/><path class="a" d="M325.4,433.448l-.155.1-.113-.219c.061-.02.134-.071.179-.053S325.375,433.387,325.4,433.448Z" transform="translate(-380.88 -153.749)"/><path class="a" d="M359.208,262.667c.042-.165.045-.366.3-.342a.107.107,0,0,1,.073.073c.023.254-.179.255-.343.3Z" transform="translate(-404.365 -35.912)"/><path class="a" d="M365.107,264.61c-.028.066-.043.167-.09.186s-.127-.046-.193-.074c.028-.066.042-.168.089-.186S365.042,264.581,365.107,264.61Z" transform="translate(-408.236 -37.435)"/><path class="a" d="M-182.306,301a.881.881,0,0,1-.724.458C-182.921,301.093-182.623,301.03-182.306,301Z" transform="translate(-30.604 -62.569)"/><path class="a" d="M463.334,258.574l-.085.2c-.066-.029-.168-.042-.186-.089s.046-.127.074-.193Z" transform="translate(-475.949 -33.269)"/><path class="a" d="M340.854,406.285l.2.084c-.028.065-.042.167-.088.185s-.127-.045-.192-.073Z" transform="translate(-391.655 -135.144)"/><path class="a" d="M357.76,399.183c.02-.15.019-.321.219-.344.04,0,.135.089.13.13-.023.2-.193.2-.343.219Z" transform="translate(-403.367 -130.012)"/><path class="a" d="M347.878,407.1c-.057-.079-.129-.135-.12-.171.031-.121.043-.284.227-.267.025,0,.068.13.051.184A1.2,1.2,0,0,1,347.878,407.1Z" transform="translate(-396.472 -135.401)"/><path class="a" d="M314.975,423.495l-.176-.11c.061-.031.123-.088.183-.086s.116.064.173.1Z" transform="translate(-373.754 -146.872)"/><path class="a" d="M348.167,256.815l.382-.352.034.493C348.415,256.994,348.25,257.027,348.167,256.815Z" transform="translate(-396.754 -31.873)"/><path class="a" d="M324.93,410.246c.033.069.088.131.085.19s-.064.114-.1.171c-.03-.06-.086-.121-.084-.181S324.892,410.311,324.93,410.246Z" transform="translate(-380.669 -137.874)"/><path class="a" d="M377.973,405.055c-.033.057-.053.14-.1.161s-.112-.034-.171-.055c.034-.056.057-.133.107-.161C377.842,404.982,377.914,405.033,377.973,405.055Z" transform="translate(-417.112 -134.256)"/><path class="a" d="M377.313,231.817l-.472-.489a.732.732,0,0,0,.134-.131l.466.466A.962.962,0,0,1,377.313,231.817Z" transform="translate(-416.519 -14.457)"/><path class="a" d="M443.875,245.7c-.125.141-.3.254-.45.121-.179-.156-.012-.3.112-.419Z" transform="translate(-462.361 -24.246)"/><path class="a" d="M353.825,262.11c-.193-.027-.452.151-.547-.178C353.454,262.01,353.74,261.752,353.825,262.11Z" transform="translate(-400.277 -35.63)"/><path class="a" d="M321.467,425.417c-.063.019-.138.068-.177.048s-.063-.107-.092-.165c.056-.018.129-.066.164-.046S321.433,425.359,321.467,425.417Z" transform="translate(-378.165 -148.216)"/><path class="a" d="M340.3,399.8a.816.816,0,0,1-.134.117c-.015.008-.085-.035-.085-.055a1.026,1.026,0,0,1,.035-.193Z" transform="translate(-391.181 -130.581)"/><path class="a" d="M370.472,402.659c-.061.018-.136.065-.169.044-.049-.03-.068-.109-.1-.167.06-.017.135-.065.176-.044S370.442,402.6,370.472,402.659Z" transform="translate(-411.944 -132.526)"/><path class="a" d="M455.955,268.023c-.184.209-.433.158-.667.169C455.448,267.89,455.691,267.914,455.955,268.023Z" transform="translate(-470.592 -39.79)"/><path class="a" d="M458.122,218.781l-.082-.031.094-.092.062.067Z" transform="translate(-472.489 -5.814)"/><path class="a" d="M453.217,222.14l-.03-.1c.03-.008.08-.031.086-.022C453.339,222.106,453.317,222.149,453.217,222.14Z" transform="translate(-469.144 -8.127)"/><path class="a" d="M359.907,397.162c.008.03.031.077.022.085a.294.294,0,0,1-.1.034c-.008-.03-.031-.078-.022-.086A.284.284,0,0,1,359.907,397.162Z" transform="translate(-404.777 -128.856)"/><path class="a" d="M438.079,267.735c-.177-.07-.318-.163-.245-.39C438.054,267.388,438.1,267.541,438.079,267.735Z" transform="translate(-458.547 -39.374)"/><path class="a" d="M311.541,417.2c-.024.005-.059.022-.07.012s-.023-.05-.034-.076l.121-.023Z" transform="translate(-371.436 -142.608)"/><path class="a" d="M409.637,240.915l.114.487c-.223.038-.371-.051-.391-.277C409.344,240.938,409.457,240.869,409.637,240.915Z" transform="translate(-438.933 -21.147)"/><path class="a" d="M330.321,417.78h-.06l.03-.094Z" transform="translate(-384.412 -143.003)"/><path class="a" d="M324.111,416.207a.382.382,0,0,1-.176-.519l-.013.015.344.373Z" transform="translate(-380.021 -141.625)"/><path class="a" d="M395.239,258.956l.18.252-.089.061-.092-.309Z" transform="translate(-429.199 -33.591)"/><path class="a" d="M368.531,265.264l-.075-.007-.075,0q.038-.2.076-.395Z" transform="translate(-410.688 -37.666)"/><path class="a" d="M465.322,250.258a.308.308,0,0,0,0-.148l.4.075Z" transform="translate(-477.508 -27.494)"/><path class="a" d="M354.947,402.99a.466.466,0,0,1-.208.487l-.1-.092c.014-.19.043-.371.257-.446Z" transform="translate(-401.217 -132.838)"/><path class="a" d="M406.374,266.032l-.081-.031.093-.09.06.066Z" transform="translate(-436.82 -38.385)"/><path class="a" d="M407.285,267.6l-.294-.117a.552.552,0,0,1,.064-.08c.089.049.174.106.259.161Z" transform="translate(-437.301 -39.416)"/><path class="a" d="M356.232,401.19c-.05-.218-.009-.392.228-.472l-.006-.006a.337.337,0,0,1-.233.465Z" transform="translate(-402.301 -131.303)"/><path class="a" d="M374.137,412.951c.111-.185.25-.241.433-.094l-.325.223C374.21,413.036,374.174,412.993,374.137,412.951Z" transform="translate(-414.655 -139.616)"/><path class="a" d="M443.213,259.972l-.071.048-.057-.109c.029,0,.063-.019.087-.009S443.2,259.948,443.213,259.972Z" transform="translate(-462.18 -34.241)"/><path class="a" d="M371.484,226.151c-.122-.071-.262-.15-.117-.3.028-.029.172.052.262.081Z" transform="translate(-412.703 -10.766)"/><path class="a" d="M404.953,227.116l.11-.152.071.161Q405.043,227.124,404.953,227.116Z" transform="translate(-435.896 -11.539)"/><path class="a" d="M366.732,230.043a1.279,1.279,0,0,1-.019-.209l.1.157Z" transform="translate(-409.538 -13.518)"/><path class="a" d="M375.121,229.361c.018.094.077.254.048.272-.124.076-.194-.025-.241-.134Z" transform="translate(-415.2 -13.192)"/><path class="a" d="M474.731,247.577l.045-.078-.057.066Z" transform="translate(-483.985 -25.694)"/><path class="a" d="M365.075,391.3l.243-.107c-.026.089-.052.178-.077.267C365.184,391.413,365.128,391.359,365.075,391.3Z" transform="translate(-408.409 -124.744)"/><path class="a" d="M388.562,251.825l.329.09Z" transform="translate(-424.598 -28.676)"/><path class="a" d="M385.147,259.648c.1-.033.246-.121.278-.089.155.154.021.253-.107.339Z" transform="translate(-422.244 -34.002)"/><path class="a" d="M332.948,413.468l-.023.03.028-.027Z" transform="translate(-386.247 -140.095)"/><path class="a" d="M312.735,425.4l.035-.046-.054.028Z" transform="translate(-372.317 -148.288)"/><path class="a" d="M437.408,267.021l-.109.039-.074-.089.133-.114Z" transform="translate(-458.14 -39.037)"/><path class="a" d="M312.168,425.445c.068.169-.021.251-.167.3l-.08-.085a.211.211,0,0,1,.266-.2Z" transform="translate(-371.77 -148.351)"/><path class="a" d="M437.994,256.486l-.248.225-.166-.189.208-.209Z" transform="translate(-458.386 -31.769)"/><path class="a" d="M439.044,269.047l-.188-.212Z" transform="translate(-459.265 -40.401)"/><path class="a" d="M355.707,402.21c0,.138-.033.251-.192.277l-.047-.05c.021-.144.065-.262.25-.214Z" transform="translate(-401.787 -132.335)"/><path class="a" d="M390.274,253.8c-.1.02-.251.089-.282.053-.137-.161,0-.259.129-.342Z" transform="translate(-425.544 -29.837)"/><path class="a" d="M338.231,246.937v.327L337.9,247l.14-.137A.22.22,0,0,1,338.231,246.937Z" transform="translate(-389.678 -25.255)"/><path class="a" d="M356.995,400.19a.235.235,0,0,1,.234-.244l.007,0c-.007.156-.063.262-.246.233Z" transform="translate(-402.835 -130.775)"/><path class="a" d="M323.626,415.385l-.183-.043c.137-.216.126,0,.17.058Z" transform="translate(-379.712 -141.323)"/><path class="a" d="M376.631,230.974c-.033-.091-.109-.25-.092-.261.131-.083.185.022.226.13A.734.734,0,0,1,376.631,230.974Z" transform="translate(-416.309 -14.103)"/><path class="a" d="M429.929,229.995c-.034-.149.057-.19.177-.208Z" transform="translate(-453.107 -13.485)"/><path class="a" d="M327.2,417.906l-.192-.141C327.25,417.571,327.188,417.791,327.2,417.906Z" transform="translate(-382.17 -143.004)"/><path class="a" d="M401.8,371.043c-.29.216-.341-.044-.435-.219C401.549,370.82,401.732,370.816,401.8,371.043Z" transform="translate(-433.423 -110.7)"/><path class="a" d="M245.564,340.748a8.781,8.781,0,0,0,3.069,7.232c-1.523.517-4.879-.378-5.839-1.558C241.042,344.272,242.522,341.242,245.564,340.748Z" transform="translate(-323.605 -89.97)"/><path class="a" d="M339.764,378.7a5.951,5.951,0,0,1,1.655-2.46,1.045,1.045,0,0,1,1.552-.01c.513.478.185.952-.126,1.33a13.8,13.8,0,0,1-1.24,1.191Z" transform="translate(-390.962 -114.193)"/><path class="a" d="M339.239,384.932l1.84.052a2.929,2.929,0,0,1-1.414.669C338.936,385.77,338.831,385.5,339.239,384.932Z" transform="translate(-390.437 -120.426)"/><path class="a" d="M-128.026,287.428c.043.207-.108.217-.245.24C-128.241,287.535-128.2,287.411-128.026,287.428Z" transform="translate(-68.349 -53.216)"/><path class="a" d="M-136.427,317.219a3.681,3.681,0,0,1-2.32-2.319c2.124-1.251,4.018-2.834,6.065-4.2a6.582,6.582,0,0,1,2.19,1.857,3.142,3.142,0,0,1-.611,4.654Z" transform="translate(-61.128 -69.261)"/><path class="a" d="M-134.128,305.513c-2.047,1.362-3.941,2.945-6.065,4.2a6.563,6.563,0,0,1,.173-6,.785.785,0,0,1,1.119-.462A14.1,14.1,0,0,1-134.128,305.513Z" transform="translate(-59.682 -64.069)"/><path class="a" d="M-177.885,300.881a12.192,12.192,0,0,1-2.658,5.22,2.172,2.172,0,0,1-.259.234,2.7,2.7,0,0,1-3.318.189c-.659-.664-.46-1.967.6-2.995C-182.021,302.085-180.07,301.543-177.885,300.881Z" transform="translate(-29.591 -62.49)"/><path class="a" d="M-189.478,257.07c-.581-.011-1.165-.066-1.742-.021-.678.052-.775-.324-.753-.849,1.135-.648,2.261-.374,3.472-.1A1.921,1.921,0,0,1-189.478,257.07Z" transform="translate(-24.438 -31.416)"/><path class="a" d="M-171.628,242.5l-.3-.776.709-.023Z" transform="translate(-38.26 -21.7)"/><path class="a" d="M417.788,250.38l.208.466a1.277,1.277,0,0,0-.152.132l-.256-.446Z" transform="translate(-444.606 -27.68)"/><path class="a" d="M418.565,251.881l.184.5-.1.09c-.205-.089-.205-.283-.238-.461A1.278,1.278,0,0,1,418.565,251.881Z" transform="translate(-445.174 -28.715)"/><path class="a" d="M419.277,253.5c.047.135.1.269.137.406,0,.016-.052.05-.08.076l-.155-.392Z" transform="translate(-445.702 -29.83)"/><path class="a" d="M418.26,256.507c.041.129.154.33.11.375-.154.156-.217-.071-.323-.135Z" transform="translate(-444.922 -31.903)"/></g></svg>