<svg xmlns="http://www.w3.org/2000/svg" width="320.306" height="223.101" viewBox="0 0 320.306 223.101"><defs><style>.a{fill:#f6f6f6;}</style></defs><path class="a" d="M706.553,694.493a7.338,7.338,0,1,1-10.367-.446A7.337,7.337,0,0,1,706.553,694.493Z" transform="translate(-693.809 -527.12)"/><path class="a" d="M896.913,589.1a7.338,7.338,0,1,1,10.234-1.716A7.339,7.339,0,0,1,896.913,589.1Z" transform="translate(-678.484 -536.032)"/><path class="a" d="M976.935,571.144a7.338,7.338,0,1,1,10.227,1.763A7.339,7.339,0,0,1,976.935,571.144Z" transform="translate(-672.22 -537.274)"/><circle class="a" cx="7.338" cy="7.338" r="7.338" transform="matrix(0.697, -0.717, 0.717, 0.697, 116.716, 141.406)"/><path class="a" d="M747.733,634.964a7.338,7.338,0,1,1,4.961,9.115A7.337,7.337,0,0,1,747.733,634.964Z" transform="translate(-689.701 -531.902)"/><path class="a" d="M840.842,628.273a7.337,7.337,0,1,1-7.24,7.434A7.336,7.336,0,0,1,840.842,628.273Z" transform="translate(-683.099 -532.011)"/><path class="a" d="M733.328,673.741a7.338,7.338,0,1,1-2.961-9.946A7.339,7.339,0,0,1,733.328,673.741Z" transform="translate(-691.838 -529.357)"/><path class="a" d="M720.337,616.919a7.337,7.337,0,1,1,9.115-4.96A7.336,7.336,0,0,1,720.337,616.919Z" transform="translate(-692.18 -533.983)"/><path class="a" d="M817.612,598.2a7.338,7.338,0,1,1-10.357.637A7.337,7.337,0,0,1,817.612,598.2Z" transform="translate(-685.258 -534.456)"/><path class="a" d="M878.543,677.157a7.337,7.337,0,1,1-7.773-6.874A7.337,7.337,0,0,1,878.543,677.157Z" transform="translate(-680.779 -528.794)"/><path class="a" d="M784.807,746.422a7.338,7.338,0,1,1,9.772-3.49A7.338,7.338,0,0,1,784.807,746.422Z" transform="translate(-687.159 -524.029)"/><path class="a" d="M754.416,603.378a7.338,7.338,0,1,1,7.434,7.239A7.337,7.337,0,0,1,754.416,603.378Z" transform="translate(-689.166 -534.488)"/><path class="a" d="M858.08,598.212a7.338,7.338,0,1,1-.744,10.351A7.337,7.337,0,0,1,858.08,598.212Z" transform="translate(-681.417 -534.451)"/><path class="a" d="M929.651,673.489a7.338,7.338,0,1,1-3.34-9.825A7.338,7.338,0,0,1,929.651,673.489Z" transform="translate(-676.806 -529.358)"/><path class="a" d="M850.651,669.489a7.338,7.338,0,1,1-3.34-9.825A7.338,7.338,0,0,1,850.651,669.489Z" transform="translate(-682.859 -529.664)"/><path class="a" d="M883.375,652.073a7.338,7.338,0,1,1,.213-10.375A7.337,7.337,0,0,1,883.375,652.073Z" transform="translate(-680.237 -531.155)"/><path class="a" d="M840.3,706.241a7.337,7.337,0,1,1,5.372-8.879A7.337,7.337,0,0,1,840.3,706.241Z" transform="translate(-683.282 -527.146)"/><path class="a" d="M950.37,590.112a7.338,7.338,0,1,1-3.183-9.877A7.339,7.339,0,0,1,950.37,590.112Z" transform="translate(-675.215 -535.753)"/><path class="a" d="M914.071,609.7a7.338,7.338,0,1,1-4.484,9.358A7.336,7.336,0,0,1,914.071,609.7Z" transform="translate(-677.309 -533.466)"/><path class="a" d="M916.908,538.873a7.338,7.338,0,1,1-7.732,6.92A7.337,7.337,0,0,1,916.908,538.873Z" transform="translate(-677.309 -538.861)"/><path class="a" d="M805.837,693.052a7.338,7.338,0,1,1-10.167,2.078A7.338,7.338,0,0,1,805.837,693.052Z" transform="translate(-686.098 -527.141)"/><path class="a" d="M753.5,712.608a7.337,7.337,0,1,1,8.494-5.961A7.337,7.337,0,0,1,753.5,712.608Z" transform="translate(-689.701 -526.666)"/><path class="a" d="M944.14,632.821a7.337,7.337,0,1,1-5.961-8.494A7.338,7.338,0,0,1,944.14,632.821Z" transform="translate(-675.746 -532.322)"/><path class="a" d="M853.3,734.952a7.338,7.338,0,1,1-1.616-10.25A7.337,7.337,0,0,1,853.3,734.952Z" transform="translate(-682.606 -524.731)"/><path class="a" d="M804.241,573.595a7.338,7.338,0,1,1,9.15-4.893A7.339,7.339,0,0,1,804.241,573.595Z" transform="translate(-685.747 -537.301)"/><path class="a" d="M800.081,630.64a7.338,7.338,0,1,1-9.8,3.405A7.337,7.337,0,0,1,800.081,630.64Z" transform="translate(-686.474 -531.886)"/><circle class="a" cx="7.338" cy="7.338" r="7.338" transform="translate(300.061 147.775) rotate(-57.72)"/><path class="a" d="M763.644,677.478a7.338,7.338,0,1,1,7.8-6.845A7.338,7.338,0,0,1,763.644,677.478Z" transform="translate(-688.984 -529.365)"/><path class="a" d="M977.056,617.835a7.338,7.338,0,1,1-6.6-8.01A7.338,7.338,0,0,1,977.056,617.835Z" transform="translate(-673.23 -533.427)"/></svg>