<svg version="1.1" id="Layer_1" xmlns="http://www.w3.org/2000/svg" x="0" y="0" viewBox="0 0 300 1324" xml:space="preserve"><style>.st0{fill:#f6f6f6}</style><g id="Group_87" transform="rotate(135 964.04 675.913)"><path id="Path_1200" class="st0" d="M1086.75 1752.09z"/><path id="Path_1201" class="st0" d="M1086.74 1751.34z"/><path id="Path_1202" class="st0" d="M1087.53 1749.78l.01-.01-.01.01z"/><path id="Path_1203" class="st0" d="M1308.1 1388.04z"/><path id="Path_1204" class="st0" d="M1085.16 1697.37l.78-.76c.29-.64.29-.64-.84-.84l-4.62 1.63c.29.76.99.74 1.62.88l3.06-.91z"/><path id="Path_1205" class="st0" d="M1326.13 1306.25c.18-.02.35-.05.53-.08.51-1.08 2.09-1.12 2.36-2.43l-1.57-.09-3.86 2.49c.8 1.15 1.7-.02 2.54.11z"/><path id="Path_1206" class="st0" d="M1077.45 1707.71c.43.45 1.04.69 1.67.63 1.24-.01 2.47-.02 3.71-.02l-1.53-1.47c-1.4-.24-2.58.49-3.85.86z"/><path id="Path_1207" class="st0" d="M2037.77 1337.97c-.7.7-1.63 1.25-1.53 2.44l-.79.01c.28.5.55.71.82.02.72-.19 1.34-.64 1.73-1.27.29-.27.31-.73.04-1.02a.643.643 0 00-.27-.18z"/><path id="Path_1208" class="st0" d="M2019.85 829.97h-.01v.01l.01-.01z"/><path id="Path_1209" class="st0" d="M2037.21 833.27l.71-.83a1.117 1.117 0 00.18-1.65c-.34-.53-.73-1.02-1.1-1.52-.62.36-.67 1-.76 1.62l-.03 1.41-.01.01c-.51.36-1.02.83-.43 1.4.54.51 1.06.1 1.44-.44z"/><path id="Path_1210" class="st0" d="M1356.69 1290.6l-.34-.57c-.24-.03-.48.02-.68.15v.68l1.02-.26z"/><path id="Path_1211" class="st0" d="M1802.42 1559.49c.7-.1 1.26-.36 1.33-1.17-.6.16-1.09.59-1.33 1.17z"/><path id="Path_1212" class="st0" d="M1351.96 1293.16c-.02-.3-.03-.61-.05-.91l-.8.1a.79.79 0 00.85.81z"/><path id="Path_1213" class="st0" d="M1807.75 1695.05c.55-.32.85-.93.78-1.55-.55.31-.86.92-.78 1.55z"/><path id="Path_1214" class="st0" d="M1332.84 1316.67c-.08.1-.15.21-.23.31l-.72.84c.31.15.62.28.94.39.25.05.51.07.77.07.64-.43 1.4-.76 1.55-1.65l2.3-.83-.03-1.43a3.845 3.845 0 00-2.39 2.07l-2.19.23z"/><path id="Path_1215" class="st0" d="M1321.4 1325.63c-.16-.18-.28-.44-.47-.51-.17-.05-.41.12-.62.2l.48.52c.2-.08.4-.15.61-.21z"/><path id="Path_1216" class="st0" d="M2019.65 1743.47c.12.08.27.12.41.12.39-.01.71-.3.76-.69-.09-.09-.19-.19-.28-.29l-.89.86z"/><path id="Path_1217" class="st0" d="M2038.54 1340.73l.18.18.78-.78.8-.76-.19-.18-.8.77-.77.77z"/><path id="Path_1218" class="st0" d="M1059.37 1713.45c1.1 2.02 2.75 3.7 4.76 4.83.76.03 1.52.07 2.27.1l-.28-.93c2.04.33 4.08.65 6.11.98l.26-.36-.26.36.77 1.56c3.39.15 6.78.3 10.17.44 5.21 3.09 10.98 2.28 16.47 2.08 8.52-.31 16.64 2.08 24.95 3.1.59.07 1.11.85 1.66 1.31 9.13 2.78 18.49 2.58 27.84 2.48 3.08 3.8 3.1 7.62.08 11.45-.07 1.88-.5 3.56-2.17 4.58.02.74.02 1.48.02 2.22 1.72.99 2.02 2.74 2.16 4.58 1.92 1.01 3.77 2.27 6.04 2.15-.36-1.06-.82-2.1-1.35-3.08-3.65-5.56-.74-10.94.46-16.28.42-1.89 2.32-2.83 4.18-3.05 1.76-.21 3.55-.23 5.32-.27 2.13-.13 4.27-.11 6.4.04 1.46.17 3.38-1.09 4.49 1.12-5.29 3.22-10.09 6.65-11.57 13.59 3.84 1.02 5.13-3.24 8.09-3.07 1.47.08 2.91.34 3.78 1.64 1.3 1.94-.57 2.52-1.54 3.42a3.071 3.071 0 00-1.32 3.08l5.07 1.05c1.75-.01 3.63-.47 5.22.05 11.13 3.65 22.1.06 33.13-.62 5.66.01 11.32.03 16.98.05 1.76-2.56 4.23-2.28 6.72-1.91.65-.07 1.31-.1 1.97-.09 1.71-2.61 4.18-2.43 6.7-2.08l-.27-.31c1.79-5.47 1.79-5.47-2.63-6.86-.67-.21-1.4-.23-2.07-.47-3.41-1.22-2.92-3.66-1.67-6.31-7.87-.02-15.73-.04-23.6-.05-.2.81-.69 1.73-.8 2.55.1-.81.6-1.73.79-2.55 7.87.02 15.73.04 23.6.05l10.68-.02c2.47-.05 4.95-.25 7.41-.13 5.71.28 11.21-.06 16.39-3.26 1.71-1.06 4.09-.9 6.16-1.29 6.06-.86 8.58 3.68 11.26 8.64-2.8 1.63-5.59 3.21-8.34 4.85-.96.58-1.57 1.42-.28 2.28.64.31 1.33.51 2.04.61 8.73-1.23 17.26-3.6 25.38-7.04 3.33-5.45 3.33-5.45 4.3-13.93 6.33-1.89 12.62-3.65 19.1-.39 1.69.85 3.33-.17 4.48-1.78l6.39 2.24.05-.06-.05.06c.8 1.6 1.54 3.24 2.45 4.77.31.53 1.16 1.15 1.6 1.04 1.31-.34.86-1.51.7-2.5-.17-1.07-.28-2.15-.42-3.22l-.03-.16.03.16c.66-.07 1.33-.07 1.99 0 4.01.86 4.7 1.82 3.75 5.49a26.86 26.86 0 01-1.68 3.85c1.71 1.43 3.41.4 5.02-.19 5.68-2.07 11.63-3.38 16.88-6.69a6.433 6.433 0 00-4.14-2.82c-1.98-.61-2.28-2.4-2.45-4.24.64.03 1.28.06 1.92.06 1.52 1.97 4.01 3.01 5.27 1.01 2.59-4.12 5.92-5.67 10.28-6.32a8.53 8.53 0 006.02-3.98c1.43-.76 2.85-1.53 4.28-2.29 5.54-2.27 11.78-1.5 17.12-4.6l12.87-4.59c1.02-1.59 2.55-1.91 4.22-2.3 2.21-.63 4.38-1.39 6.5-2.28.41-3.57-3.01-4.42-4.24-6.82l2.1-2.34c3.59-2.19 7.89-2.62 11.24-5.58 2.24-1.98 5.3-1.25 8.05-1.33 4.85-4.74 10.92-6.02 17.12-6.94 2.26-2.81 5.9-2.61 8.58-4.51l4.38-4.47c1.76-.05 3.32-.5 4.26-2.3 3.68.18 6.85-.72 8.68-4.56 10.87-3.57 21.22-8.6 30.74-14.94 8.37-5.54 16.84-11.21 26.16-15.24 6.84-2.96 13.04-7.62 19.51-11.55 4.3-2.61 8.33-5.88 13.48-6.45 2.72-1.55 4.96-3.81 6.48-6.54.76-2.16 2.14-4.06 3.97-5.44a11.693 11.693 0 00-3.97 5.45c6.79-3.93 13.63-7.79 20.36-11.83 3.07-1.84 5.84-4.27 9.47-4.82 2.3-3.96 6.41-5.47 9.72-8.05 2.79-2.17 5.83-3.93 7.62-7.25 2.41-4.77 4.93-9.38 8.73-12.89-3.8 3.5-6.32 8.12-8.73 12.89 1.38-.22 2.76-.45 4.15-.67 1.62-3.14 4.6-4.41 7.33-5.98 3.09-1.78 6.01-3.72 7.84-7.07l10.5-5.15a4.763 4.763 0 014.31-2.48l-.09.12 2.31-2.22-.03.02c1.3-2.85 3.35-4.55 6.37-4.78l-.1-.03c.86-2 2.51-3.55 4.55-4.29 4.88-5.25 10.96-8.43 17.13-11.46 4.54-3.24 9.14-6.41 13.6-9.78 1.3-1.19 2.47-2.5 3.52-3.91.99-.08 1.97-.26 2.92-.55 2.84-1.19 3.29.68 3.6 2.81-1.04.43-1.49 1-.39 1.99.48-.44.68-1.1.52-1.73a4.516 4.516 0 004.02-2.63c3.99-1.77 7.11-4.9 10.34-7.8 3.53-3.17 6.89-6.5 11.11-8.65 1.26-.64 3.01-1.39 3.4-2.54 2.37-6.96 8.5-8.9 13.76-11.48 4.26-2.09 8.23-3.88 10.55-8.51.46-.92 1.59-1.45 2.42-2.16-.67-2.82.88-4.72 2.41-6.62-.7-.09-1.41-.2-2.11-.27.71.07 1.41.18 2.11.27 1.33 1.54 2.67 3.09 4.02 4.63 5.07-1.43 7.33-5.72 8.5-10.51.69-2.8 1.74-3.72 4.2-3.53 2.55.19 5.28 0 6.24-2.95 2.62-8.05 8.26-12.53 15.22-15.65 2.42-4.38 4.09-9.12 9.4-11.16 3.3-1.27 3.87-6.08 6.04-9.03 5.36-1.25 9.97-3.37 12.01-9.6.48-1.48 2.41-2.87 3.95-3.44 5.83-2.14 8.85-7.05 11.51-12.43.69-1.19 1.72-2.29 2.02-3.57.81-3.61 2.8-5.55 6.18-6.2.9-.17 1.66-1.11 2.48-1.69 2.93-.68 4.74-3.03 6.49-5.3 3.75-4.86 7.35-9.85 11.01-14.79 6.8-4.9 9.66-12.15 10.69-20.48 3.16-2.31 7.12-3.99 9.25-7.11 2.16-3.16 2.44-7.75 3.66-11.67 1.27-4.31 3.23-8.39 5.79-12.08 3.21-4.61 5.56-9.77 6.94-15.22a4.958 4.958 0 002.24-4.8l.03.02c2.73-1.49 3.47-4.51 4.81-7.08 2.7-5.2 5.48-10.35 8.23-15.53-.27-.28-.54-.56-.8-.84.27.28.54.56.8.84a7.717 7.717 0 003.06-4.49c.94-4.02 1.8-8.07 2.7-12.1.77-.75 1.55-1.5 2.32-2.25.34-4.47 3.38-6.2 6.66-7.99 6.82-3.73 7.4-4.78 5.03-12.26a9.945 9.945 0 01.76-8.54c1.73-3.26 4.24-6.04 7.32-8.08 2.07-1.39 4.64-2.08 5.83-4.71.6.08 1.2.02 1.77-.19.34-2.61.82-5.26-.43-7.74-1.6-3.17-1.21-6.52-.97-9.88a2.987 2.987 0 002.07-2.23c2.04-.22 3.86.12 5.23 2.01 1.76 2.4 3.5.63 5.23-.12-.21-1.07-.08-2.61-.7-3.12-3.2-2.65-.39-4.04.86-5.79-.1-.83-.21-1.65-.32-2.47.31-2.54.55-5.06-1.91-6.69-.6-.2-1.22-.3-1.85-.3-1.44-6.07 2.61-8.51 6.41-11.11l5.79-.48c.33-.53.49-1.15.47-1.77.57-.14 1.13-.33 1.68-.57 1.08-8.32 2.4-16.58 5.03-24.53a8.1 8.1 0 002.06-5.15 19.73 19.73 0 015.16-12.31c4.6-5.05 7.08-11.08 9.54-17.3.53-3.41 1.84-6.65 3.82-9.47.21-2.07.42-4.13.64-6.19.57-.15 1.13-.35 1.66-.6.16-2.65.37-5.3.48-7.94.08-1.94-.17-3.85-1.84-5.03-3.38-2.38-3.65-6.45-4.36-9.99-1.09-5.41.35-11.34-3.09-16.33-.47-.68-.06-2.21.19-3.28 2.04-9.17-.43-17.12-5.64-24.36-.86-1.2-1.75-2.39-2.62-3.58-5.83-.24-5.93-4.94-6.37-9.37-.7-.01-1.41 0-2.11.03.71-.02 1.41-.03 2.11-.03.2-.73.24-1.5.12-2.24l.08.13c-.07-.84-.14-1.67-.2-2.51.73-.75 1.45-1.49 2.17-2.24 2.98-5.26 2.74-5.96-2.33-6.81-.63-.1-1.27-.11-1.91-.16-.18-1.29 2.2-3.53-1.15-3.61-.64-.02-1.28.64-1.94.73-5.43.72-7.58-1.26-7.7-7.19.05-1.85.19-3.69.42-5.53 2.61-2.47 5.21-4.93 7.82-7.41-.6-.7-1.2-1.39-1.8-2.08l-6.47 2.09c-.64 1.65-1.28 3.3-1.92 4.94-1.34 2.72-2.95 5.36-2.56 8.67l-.05.06c-1.27-.07-2.53-.13-3.8-.19-.34-4.4.51-8.99-1.9-13.04.52-1.77 1.49-3.53 1.49-5.3.02-4.73 1.69-8.5 4.03-12.5 3.31-5.66 4.17-12.41 4.35-19.12.04-1.52-1.32-1.96-.85-.52.02.07-.57.36-.88.55-1.8 6.76-1.95 6.83-6.9 3.01-.59-.38-1.21-.69-1.85-.95-.2 1.09-.27 2.2-.22 3.31.88 5.49-.2 10.03-4.65 13.51-.88.68-.87 2.67-1.27 4.06-.39.46-.59 1.06-.56 1.66-1.23.65-2.47 1.3-3.7 1.95-1.93 1.02-3.53.48-3.9-1.74-.47-2.87-.44-5.84-.62-8.76.16-.74.31-1.48.47-2.22 3.61-5.28 7.23-10.56 10.85-15.85-.02-1.11.63-2.12 1.64-2.57.07-.62.16-1.23.28-1.84 1.25-1.03 2.51-2.05 3.76-3.08.06-.62.19-1.24.39-1.83l-2.6-2.71c-.52.26-1.09.43-1.67.49-.88 1.4-1.77 2.8-2.65 4.2l-3.59 2.79c-1.48 3.72-2.81 7.51-4.48 11.12-1.99 4.28-2.69 4.2-6.34-.08l-.03-29.8c.19-3-.11-5.83-2.42-7.95-1.69-1.55-2.02-3.69-2.35-5.85-2.89 4.55-7.29 8.03-8.49 13.76 5.66-2.01 5.73-2.02 6.59 3.44.34 2.15.26 4.39 2.11 5.88.09 1.46.11 2.92.04 4.38-.37 3.88-.82 4.37-4.28 4.63-1.37.02-2.73-.06-4.09-.23-.1.88-.19 1.76-.29 2.64.09-.88.19-1.76.29-2.64-.3-1.97.97-4.83-1.94-5.43-3.11-.64-2.92-2.81-2.18-4.87 1.1-2.67 2.35-5.27 3.74-7.8 1.2-5.73 5.6-9.22 8.49-13.77.29-.54.49-1.14.57-1.75.6-.35 1.13-.78 1.59-1.3 1.8-2.86 1.49-3.51-1.81-3.89-.68-.01-1.36.05-2.03.17l2.31-6.66c2.17-1.74 1.5-4.44 1.97-6.74l3.87-3.01 2.43-3.9c2.43.48 4.92-.52 6.35-2.55.68-.01 1.37-.04 2.05-.11l.6-3.97c-.18-1.03-.37-2.05-.56-3.08-1.32.17-2.63.33-3.95.5-.12.61-.28 1.21-.47 1.81a7.381 7.381 0 00-4.4 4.23c-2.71 1.64-5.42 3.27-8.13 4.9-1.59-2.25-3.4-4.13-6.2-4.47l-2.34-2.21c.06-1.21-.74-2.28-1.92-2.57a2.17 2.17 0 00-2.46-1.84c-.03 0-.05.01-.08.01-2.69-1.04-5.44-.46-8.16-.29-.84-.69-1.68-1.37-2.53-2.06-.73.07-1.47.13-2.2.2-1.47.19-2.47.97-2.04 2.64.56 2.17 2.41 1.78 3.95 1.92.17.54.34 1.08.52 1.61 4.35 1.59 4.35 1.59 4.07 7.37-.55.37-1.2.59-1.87.61a2.376 2.376 0 01-2.18 1.81c-.04.63-.16 1.26-.35 1.87-1.34.17-2.69.35-4.03.52a6.406 6.406 0 01-4.26 2.3l-2.02 2.45c-3.84-.87-5.99 2.64-9 3.94-2.91 1.91-4.38 1.82-5.38-.41-1.2-2.66-1.21-5.52-1.15-8.38l.05.03c-1.79-2.03-2.94-5.02-6.23-4.79-.21-.92-.42-1.83-.63-2.74l-3.88.35 3.88-.35c2.13-1.28 4.31-2.48 6.39-3.85 3.09-2.03 3.06-3.08.01-6.65-2.54 1.57-5.09 3.14-7.63 4.71-1.14-.08-2.15.75-2.29 1.89l-.05.02c-.7-.2-1.44-.18-2.12.07-.06.71-.09 1.41-.08 2.12l.03-.01-2.32 1.75-2.54 2.37-10.19.32c.18-4.68 2.9-7.22 6.61-8.92l-.02-.03c.04-1.15.79-2.15 1.88-2.5.27-.67.45-1.37.55-2.08.52.02 1.03-.04 1.52-.2-1.38-2.95-3.01-2.12-4.7-.35-3.69 1.96-8.44 2.27-10.07 7.42l-6.26 1.72c-2.82-2.45-4.66-6.23-8.58-7.19.05-2.57.18-5.14.12-7.71-.07-3.71-1.91-5.58-5.19-4.99-2.01.51-3.99 1.16-5.9 1.97-2.08-1.15-5.22.39-6.51-2.52-1.8-4.06-5.83-6.38-7.07-10.8-.55-.02-1.09-.11-1.62-.26-5.18-1.26-8.94 1.67-12.6 4.88-1.5-1.26-2.41-2.7-.64-4.42 2.72-2.64 7.18-2.82 8.76-7.08-4.76 1.64-9.98-.49-14.64 1.99-1.36-.35-3.19-.23-4.01-1.15-3.78-4.22-8.53-1.09-12.74-2.05-2.06-.47-3.95 2.71-4.64 5.44l-.01.01-2.19 2.24.3 7.05c2.35-2.29 1.89-5.23 1.86-8.07.02 2.84.49 5.78-1.86 8.07-.26 1.82-.87 3.4-2.54 4.27l-10.54 16.35a13 13 0 01-8.88 1.82c-.76 1.22-1.57 2.41-2.26 3.67-2.16 3.98-5.03 5.75-9.44 4.16-2.59-.93-5.4-1.6-7.54 1.28l-.06.09c-1.2.15-2.15 1.11-2.28 2.32l-1.91 2.36a2.496 2.496 0 00-2.1 2.42l-.09-.13c-2.98 2.79-2.4 7.02-3.51 10.52-2.41 7.58-6.65 14.16-9.35 21.53-8.05 15.39-18.02 29.61-24.33 46.06a12.07 12.07 0 01-4.84 5.76c-2.04 1.38-4.31 2.64-5.06 5.45-.54.45-1.41.79-1.56 1.35-2.09 7.66-6.68 13.73-11.12 19.84a21.995 21.995 0 00-4.71 13.13c-2.13 2.17-4.27 4.34-6.41 6.51-.31.18-.74.27-.93.55-6.26 9.64-12.54 19.25-18.67 28.98-.94 1.5-1.16 3.54-1.7 5.32-.67.76-1.33 1.52-2 2.28.02.57.01 1.14.02 1.71-.01-.57 0-1.14-.02-1.71-3.85 5.23-8.92 9.57-10.87 16.2-.8 2.72-2.89 4.24-4.22 6.44-.97 1.03-2.34 1.89-2.82 3.13-1.47 3.86-3.04 7.42-6.31 10.09-1.59 1.54-2.72 3.5-3.24 5.66-.96 3.39-2.14 6.14-5.45 7.72a6.918 6.918 0 00-3.11 4.28c-1.37 6.22-4.73 10.62-9.45 14.35a11.737 11.737 0 00-4.18 7.62c-2.14 4.77-7.42 5.35-10.44 8.94a3.097 3.097 0 00-2.36 2.3c-2.45.57-3.78 2.23-4.17 4.83-1.06.3-1.87 1.16-2.11 2.23-5.21.95-7.31 6.18-11.02 9.2-2.09.72-3.64 2.5-4.05 4.67-8.25 6.32-16.52 12.62-24.75 18.98-1.14.89-2.17 1.91-3.07 3.04-2.25 2.79-7.15 6.29-11.13 8.36-1.5.78-2.57 2.48-3.84 3.76-5.57 1.75-8.46 7.69-13.91 9.95-2.38.99-4.54 3.15-7.14 4.44-5.38 2.67-8.56 7.79-10.64 13.66.18-.03.36-.06.55-.07-.18.01-.37.03-.55.07l-2.44 1.99c-3.8-1.13-7.38-1.53-10.69 1.73-1.87 1.6-3.92 2.98-6.1 4.13a9.113 9.113 0 00-4.5 8.19c-.77.68-1.53 1.37-2.3 2.05 1.04 3.09 4.87 1.54 6.16 4.22-2.02.92-4.03 1.85-6.05 2.77l-2.37 1.85c-.65.2-1.32.36-1.99.47-.04-1.89-.29-3.68-2.01-4.76l-.05-.06c-1.49-2.35-2.96-2.26-4.43.03l-.02.01-4.03.21c-3.04 4.53-8.51 6.27-11.25 11.16-5.85-.43-10.83 1.46-15.49 5.43-5.17 4.4-10.68 8.19-17.55 9.67-3.96.85-7.48 4-11.2 6.12-.17 1.86-.59 3.78.84 5.35 1.45 1.59 3.3 1.44 4.96.83 3.68-1.33 7.27-2.94 10.89-4.44.69.79 1.39 1.57 2.08 2.36-.99.94-2.03 1.82-3.11 2.65-2.44 1.67-2.43 3.86-1.42 6.33-.61-.04-1.23.06-1.8.3-2.5-1.72-5.51-2.52-8.53-2.26-.69.77-1.38 1.54-2.06 2.32l-.05.03c-3.57 1.43-4.56 4.53-4.33 8.18.4 2.67-1.25 5.22-3.84 5.96-4.06 1.47-7.8 3.73-11 6.64.63 1.46 1.27 2.92 1.9 4.37.07.74.05 1.48-.07 2.21l-6.13 4.82c.73 2.27 1.46 4.53 2.19 6.8-.82.66-1.65 1.31-2.47 1.97-1.33.87-2.66 1.73-3.99 2.6-.17.71-.4 1.4-.66 2.08 1.92.03 3.84.07 5.76.1l-5.75-.1c-.58-.11-1.16-.2-1.74-.27-.59.23-1.21.39-1.84.5-.2.68-.28 1.38-.24 2.09l-6.36.14c-3.45-.61-4.18 3.21-6.44 4.52-.88 1.76-2.47 2.21-4.11 2.55-.62.71-1.24 1.42-1.85 2.13.55 2.25 2.29 1.84 3.8 1.97.92-1.91 2.54-2.16 4.3-2.08l2.08-2.35.04-.98-.03-.98c2.83-1.02 5.67-2.04 8.5-3.06 2.21-.17 4.61-3.23 6.56.5a6.936 6.936 0 003.52-3.04 6.914 6.914 0 01-3.51 3.04l-12.93 7.21-.05-.7-4.16.39c.03.78.05 1.57.08 2.35 1.19.05 2.36-.33 3.29-1.07-.93.74-2.1 1.12-3.29 1.08l-.04.01c.05 1.03.34 2.04.84 2.94-.51-.9-.8-1.91-.84-2.94-1.51.66-3.01 1.32-4.52 1.98l.12.17a2.959 2.959 0 01-2.23 2.21l-.01-.03c-.88 1.5-1.75 3.01-2.65 4.49-.48.79-.41 1.4.35 1.79.28.16.61.2.93.12 1.24-.49 2.46-1.06 3.69-1.6 2.53-1.91 5.69-2.76 8.83-2.4-.29.69-.52 1.4-.68 2.14-.65.09-1.28.32-1.83.67-.68.61-1.35 1.23-2.02 1.84l-.04.05c-.67-.04-1.34 0-2 .11-3.63 4.23-8.98 4.24-13.5 6.29-2.02 1.61-4.04 3.21-6.06 4.82-2.78.93-5.57 1.87-8.36 2.8l-8.74 6.48 2.18 2.35c.7-.07 1.4-.09 2.11-.05l-.01.02a4.784 4.784 0 014.34-2.17l-.16-.41a2.566 2.566 0 012.66-1.49c.59-.15 1.18-.31 1.77-.48a5.04 5.04 0 014.35-2.27c1.74.07 3.4-.72 4.44-2.12 2.07-.84 4.13-1.69 6.2-2.53.71-.76 1.42-1.51 2.12-2.27l.01-.01-.01.01-2.12 2.27c.7.1 1.41.15 2.12.14-.06.68-.16 1.35-.31 2.02h-.01c-5.44 3.07-8.54 9.54-14.68 11.6-.31 1.1-1.3 1.88-2.44 1.91-.59.25-1.23.34-1.86.27l-.11.06-6.41 4.41c.26.72.56 1.42.8 2.13-.23-.71-.54-1.41-.8-2.13-.68-.12-1.38-.05-2.03.2 0 .55-.02 1.1-.02 1.64.01-.55.02-1.1.02-1.64l-6.36.2c-.1.62-.22 1.23-.36 1.84-2.17.13-3.72 1.6-5.46 2.74-2.88 1.89-5.64 4.12-9.17 4.52-2.58 4.14-6.54 5.73-10.84 6.67l.07.12c-1.61 2.5-4.17 3.16-6.67 3.93a13.92 13.92 0 01-8.21 3.35l-8.7 6.45c1.34 2.44 3.36 2.4 5.41 1.47 6.06-2.74 12.08-5.6 18.11-8.42 3.05-2.8 6.83-3.61 10.61-4.4-1.87 4.01-.5 4.71 4.48 4.2a68.074 68.074 0 0121.4-11.21c.02-.73.04-1.47.07-2.2 7.39-.74 13.54-4.45 19.25-9.2 1.68-.52 3.36-1.03 5.03-1.55 1.39-.54 2.95.13 3.52 1.51-2.24 1.36-4.89 2.05-6.46 4.51-.79 4.54-3.38 7.22-6.41 9.44 3.03-2.22 5.62-4.9 6.41-9.44-1.33.45-2.93.55-3.96 1.41-5.16 4.36-11.18 6.35-17.44 7.8-4.25 2.6-8.5 5.19-12.75 7.79-2.73 1.67-5.39 3.55-8.69 3.68l-2.27 2.01c-.7.03-1.39.18-2.04.44a4.95 4.95 0 00-4.47 2.04c-.71-.03-1.41-.16-2.08-.38l-6.28 2.77c2.15 3.67 5.41 6.57 6.59 10.92.6 2.22 2.38 2.48 4.14 2.77l2.15-2.18c.83 1.86.82 1.88-2.17 2.27-1.58 2.4-4.1 3.19-6.47 4.21-2.05 1.29-4.18 2.47-6.14 3.91-1.3.96-1.49 2.32-.1 3.56.62-.17 1.24-.34 1.87-.5a4.785 4.785 0 014.24-2.24l10.42-4.62c2.42-2.46 5.62-3.99 9.06-4.33a4.911 4.911 0 013.99-2.66c.87-.53 1.74-1.07 2.62-1.61.66-.2 1.36-.2 2.02-.02l-.08-.33v-2.27l-2.13-2.29c.7-.02 1.4-.04 2.1-.05 0-.72.04-1.44.12-2.15.84.26 2.42.53 2.41.78-.02 1.77-1.46 1.22-2.44 1.46v2.23l4.29.12c.67-.21 1.38-.26 2.07-.14l-.13-.29c4.11-1.59 4.49-7.38 8.71-8.85.59-.08 1.19-.15 1.78-.23a5.883 5.883 0 014.62-2.15l-.05.05 2.23-2.23c.82-2 2.32-3.65 4.24-4.65l-.01.04 2.12-2.53c0-.66.06-1.32.17-1.97-.99.27-2.13.33-3.06.68.93-.35 2.07-.41 3.06-.68.65-.08 1.3-.13 1.95-.15 2.27-2.43 5.27-4.06 8.55-4.65 1.62-1.39 3.24-2.77 4.86-4.15.6 0 1.2-.16 1.72-.46.65.13 1.32.14 1.97.02.16-.66.3-1.33.42-1.99v-.01c.65-.01 1.29-.09 1.91-.26 6.02.47 11.54-.11 17.05-3.82 4.6-3.1 10.38-4.17 15.08-7.49 2.93-.59 6.35 1.02 8.69-2.23-.71-.02-1.43-.02-2.14-.04.71.01 1.43.02 2.14.04 1.22.32 3.41.1 2.49 2.3a84.535 84.535 0 01-4.88 8.78c-3.24.72-6.28 1.86-8.55 4.64-3.46 1.64-6.63-2.52-10.01-.69-2.86 1.54-3.06 5.82-6.12 7.28-.32.15-.62.33-.93.5l-4.33-.05-4.11.22c-1.5 2.47-4.25 3-6.31 4.6.18.31.34.64.54.93 1.88 2.76 5.52-3.25 6.57 1.21.8 3.38 4.52 1.59 5.19 4.38-1.31.84-2.61 1.68-3.92 2.53l-2.11 2.39c-3.87.73-6.78 4.21-10.86 4.36l-.02.02a4.442 4.442 0 01-4.23 2.25l-.07.04a4.034 4.034 0 01-4.16 2.06c-.53.35-1.16.53-1.8.51a5.94 5.94 0 01-4.6 2.33c-4.26 3.67-4.26 3.67-6.55 10.99-1.68-.19-4.64.66-4.78-.79-.41-4.34-3.09-3.07-5.29-3.3a5.712 5.712 0 01-4.79 2.17 4.51 4.51 0 01-4.33 1.93c-.5.35-1.1.51-1.7.46a5.671 5.671 0 01-4.78 1.99l-8.5 4.82c-.03.7-.05 1.39-.04 2.09 1.73-.14 3.39.66 4.37 2.09.65 0 1.3.03 1.95.07 4.24-2.11 8.45-4.32 12.75-6.28 1.73-.79 3.28.06 4.36 1.71.73.03 1.45.05 2.17.08-.72-.03-1.45-.06-2.17-.08l.19.52c-.77.62-1.53 1.25-2.29 1.86-.72.2-1.44.41-2.16.61-.81.52-1.61 1.04-2.42 1.55-.63 0-1.26.14-1.83.41a5.21 5.21 0 00-4.54 1.88l-2.12-.36.3.59a4.36 4.36 0 00-4.32 2.19c-4.25 1.59-8.5 3.19-12.75 4.78l-2.25 2.26c-2.82.31-5.35 1.15-6.56 4.27-.6-.07-1.19.13-1.62.55.6.54 1.2 1.09 1.8 1.63.02-.71-.04-1.42-.17-2.12.13.7.18 1.41.17 2.12l4.01.46c2.34-.77 4.68-1.54 7.02-2.32 4.29-3.84 10.15-4.09 14.69-7.35.91-.56 1.81-1.13 2.72-1.69.57.03 1.12-.15 1.56-.52.93-.58 1.87-1.17 2.81-1.75.57 0 1.11-.23 1.49-.65.88-.57 1.75-1.14 2.62-1.71.56.1 1.15-.02 1.63-.32 1.83.26 3.67-.47 4.83-1.91.55.11 1.12-.01 1.58-.34.68.15 1.39.11 2.05-.13 1.1-.02 2.07-.72 2.43-1.76l-.11-.23c1.32-.14 2.64-.29 3.97-.43 5.8-2.97 11.6-5.94 17.39-8.91a4.09 4.09 0 004.23-2.26c-1.25-.13-2.51.28-3.44 1.12.93-.85 2.18-1.26 3.44-1.12l.02-.02c1.03-.18 2.07-.3 3.1-.54 7.71-1.78 13.68-7.4 20.68-10.75a4.31 4.31 0 014.11-2.43c6.9-6.21 15.5-8.99 23.43-13.12 1.68-.87 3.36-.11 4.44 1.64 2.23.2 4.72-.46 6.2 2.18 3.87-.28 7.14-2.02 10.25-4.13-3.11 2.11-6.38 3.85-10.25 4.13l.17-.02c-1.76-.05-3.39.92-4.18 2.5-2.76.1-5.27 1.65-6.59 4.08-1.7.4-3.32.93-4.23 2.72l.01-.03-6.42 2.32c-.7.74-1.4 1.47-2.11 2.21-1.66.58-3.37 1.03-4.97 1.77-15.5 7.11-30.98 14.24-46.45 21.4-.72-.04-1.43-.07-2.15-.11-.05.69-.15 1.38-.3 2.05l-3.93.57c-.85.56-1.7 1.12-2.56 1.68-.6.01-1.2.1-1.78.29l-2.14 2.32-1.92.15c-1.53 2.14-3.63 2.14-5.75 2.06 2.12.08 4.22.07 5.75-2.07.65-.05 1.29-.09 1.93-.15.01-.69.01-1.38.01-2.08a5.3 5.3 0 00-4.6 1.9l-3.97.46c-.85.54-1.69 1.07-2.54 1.61h-.01c-.6.1-1.18.3-1.72.59l-2.53 1.81c-.62.1-1.22.28-1.79.53-1.71-.19-3.39.55-4.41 1.93-4.03 1.38-8.06 2.79-12.1 4.12-1.82.6-3.48.33-4.57-1.61-2.34.77-4.68 1.54-7.03 2.32.16 1.88.01 3.57-2.1 4.13-.46.35-.99.61-1.56.75-.81.7-1.61 1.4-2.42 2.1-4.34 1.47-8.07 4.92-12.97 4.62.03-.78.07-1.57.1-2.35 2.58-1.17 5.22-2.22 7.72-3.56 1.37-.73 2.13-2.02.72-3.59l-8.05.66-2.62 1.69c-.73.74-1.46 1.49-2.19 2.23-.7-.09-1.39-.18-2.08-.28l-4.05 2.83c.71 1.85 2.22 2.17 3.83 2.31 1.88-.2 3.54.12 4.52 2.11l-4.28.04-.01-.01c-1 1.79-2.58 2.19-4.37 2.05-.61.17-1.24.29-1.88.35-2.19 2.27-4.37 4.53-6.57 6.79-2.15-.93-4.11-2.5-6.63-2.2-1.43-.09-2.85-.19-4.28-.28-1.39.84-2.78 1.67-4.17 2.51-3.95.2-6.27 2.32-6.76 6.58-7.75 3.14-15.49 6.29-23.24 9.44-6.45 2.28-12.9 4.57-19.34 6.84-4.53-.96-8.32 2.7-12.75 2.36-.71.9-1.43 1.8-2.14 2.69a4.35 4.35 0 00-1.9 0c.59.6 1.18 1.21 1.77 1.81a30.34 30.34 0 01-10.59 11.53c-.21.61-.4 1.22-.59 1.83-4.65 1.26-9.29 2.62-13.97 3.74-4.29 1.02-7.79 2.71-8.23 8.13-.2.7-.53 1.35-.97 1.94-2.29.36-4.72.36-6.36 2.56h-.01c-1.92-.3-3.18.81-4.29 2.26.31 1.92.69 4.04 2.85 4.23 3.05.26 6.12.07 9.16.07.27 4.79-3.62 6.53-5.33 9.7-.18.69-.29 1.39-.35 2.1-1.73-.19-3.41.64-4.32 2.12l6.63 2.45 4.29-4.47.08-.04c6-.22 11.94 1.35 17.04 4.53l-17.17.04-4.23-.05c-2.21-.82-4.42-1.64-6.63-2.45-.64.06-1.28.14-1.91.26l-2.19 4.56-2.4-.25c-1.5 1-3.52 1.89-3.68 3.82-.23 2.71 3.68 3.59 3.21 6.73.63.18 1.29.27 1.94.27 3.86-.48 7.72-1.03 11.57-1.55.06-.59.16-1.17.3-1.75 1.97-.09 3.95-.19 5.92-.29.05 1.06-.04 2.13-.29 3.16-1.24 3.15.29 4.66 2.69 5.8 2.69-1.52 5.44-2.71 8.59-2.13 1.74-.18 3.4-.54 4.45-2.27-1.18-.18-2.44-.08-3.61-.3 1.17.21 2.43.12 3.61.3 2.74-.87 5.48-1.75 8.22-2.62l4.36.08.02.02a2.435 2.435 0 012.33-1.86c1.49-.78 2.98-1.57 4.46-2.35 1.32-.13 2.65-.27 3.97-.4 3.17.4 6.28.49 8.91-1.92a2.7 2.7 0 001.83-.23c.4.4 1.01.53 1.54.33l5.13-.55-5.14.55c.7 2.25.84 4.33-1.29 5.9-2.27 1.66-4.5 3.38-6.76 5.07.14.42.29.83.43 1.24-.14-.41-.3-.82-.43-1.24l-8.42 2.49c-.09.68-.17 1.37-.25 2.06-.59.13-1.18.23-1.78.31-.99 1.91-2.56 3.47-4.48 4.44-1.56.76-1.62 1.52 0 2.28.69 1.51 1.39 3.02 2.08 4.52l.01.01c-2.37.02-4.85-.29-6.37 2.36-3.5 2.14-7.56 3.41-11.16 1.98-7.57-3.02-12.7 1.6-18.21 5.38a50.68 50.68 0 00-4.84 4.31l-2.46-.39c-1.69.14-3.25.97-4.31 2.29-.61-.05-1.23.09-1.76.4 1.4 1.43 2.8 2.87 4.19 4.3l.02.02c-.05 1.51-.09 3.03-.14 4.54-.6.13-1.19.31-1.77.53l-2.33-.39c-3.84 3.3-3.96 3.44-1.13 6.16 1.31 1.26 2.91 2.12 2.5 4.32-.48 2.58.89 3.29 2.81 3.35 3.11.1 6.27.29 8.82-2.22.63.03 1.26-.05 1.87-.24 1.47-2.46 3.91-2.22 6.16-2.53 1.75.43 3.59-.24 4.65-1.7l-.07-.38 4.29.18c2.4 3.41 6.27 1.98 9.37 3.1 1.73.63 2.76-1.58 3.46-3.27 2.18 0 4.36 0 6.54.01.69-.02 1.38 0 2.07.06v2.28c-1.76-.15-3.44.71-4.35 2.22a12.53 12.53 0 00-8.58 4.59c-4 .3-6.46 3.04-9.09 6 4.42 2.27 7.63-1.35 11.3-1.36 5.63-2.71 11.26-4.11 16.93-.13l.29.21-.29-.21c-2.78.87-5.57 1.73-8.35 2.6-.72.7-1.45 1.4-2.17 2.1-.7.03-1.41.06-2.11.1l-2.13 2.22-.01.01c-.72.76-1.43 1.52-2.15 2.28-4.19-.12-7.95.91-10.74 4.56-.7-.01-1.41-.01-2.11 0l.01-.02-2.13-2.29c-.01-.75 0-1.51.02-2.26.92-.14 2.05.03 2.25-1.32.03-.21-.86-.79-1.36-.84-2.04-.2-3.97.08-5.23 2.15-2.07.21-4.14.43-6.21.64l-.27-.74c-.68.02-1.36.07-2.04.16l-.18 4.43c-2.58 2.03-5.38 3.03-8.6 2.13-.65.14-1.28.33-1.9.58-.78.62-1.57 1.24-2.35 1.86l-.02-.03c.29 2.42 1.69 3.87 3.36 5.48 3.86 3.73 3.5 5.18-1.33 8.22-.73.46-2.42.09-1.79 1.65.31.76 1.81.9 2.68 1.48a8.94 8.94 0 011.45 1.62c-.77.66-1.53 1.32-2.3 1.97-.55.28-1.16.43-1.78.44l-6.66 4.43a43.157 43.157 0 01-19.25 2.31c-1.65.22-3.26.53-4.3 2.14-3.55.98-7.48-.4-10.81 1.99l.01.11-.01-.11-6.16.67c-1.69 2.6-.67 4.74.74 7.07 1.18 1.94.15 3.47-1.61 4.48-2.16 1.2-4.6 1.8-7.07 1.73-3.84.01-7.68.13-11.52.2-.01.67-.04 1.33-.11 2-1.38.07-2.75.14-4.13.22-2.14-1.78-2.95-2.45-3.98-1.93 1.03-.52 1.84.15 3.98 1.93l4.13-.22c.06-.67.1-1.33.11-2-4.04-3.4-8.38-5.47-13.74-4.42-2.46.31-4.94.44-7.42.38 2.46 3.92 5.11 7.79 10.02 8.7zm265.59-329.47c.08-1-.35-1.98-1.13-2.61.78.63 1.2 1.61 1.13 2.61zm-16.62 13.16c.95-1.82 2.53-2.27 4.32-2.3-.93 1.85-2.57 2.19-4.32 2.3zm4.39-2.34c.9-1.86 2.49-2.24 4.25-2.27l.01.01c-.9 1.86-2.51 2.2-4.26 2.26zm27.85 6.93a18.224 18.224 0 01-7.36 3.79c-1.31.41-2.64.79-3.93 1.26 1.29-.47 2.62-.85 3.93-1.26 2.71-.68 5.23-1.98 7.36-3.79a50.61 50.61 0 008.58-2.8 49.733 49.733 0 01-8.58 2.8zm46.07 8.88c-.82-.01-1.62-.31-2.24-.85.62.53 1.41.83 2.24.85zm-35.38 22.93c-.8.76-1.6 1.53-2.41 2.29.81-.76 1.61-1.53 2.41-2.29zm-1.54 5.61c.38-.95.69-1.9-.14-2.76.83.85.52 1.8.14 2.76zm37.83-24.78c-.69.3-1.36.65-2 1.06-2.13 1.54-4.25 3.08-6.38 4.62l-.01.01c-.7-.1-1.41-.08-2.1.07-.79.61-1.57 1.22-2.36 1.82l.08.22c-.72 0-1.43.01-2.14.01.01.7-.03 1.4-.13 2.1.1-.7.15-1.4.13-2.1.13-1.52-1.46.42-.7-.87 2.54-4.3 8.53-7.46 12.99-6.79.24.04.42.58.63.89.62-.39 1.29-.75 1.99-1.04.69-.32 1.4-.61 2.07-.97-.67.36-1.38.65-2.07.97zm-106.17 55.12c.28.26.6.47.96.62-.36-.14-.68-.35-.96-.62zm-130.88 90.37zm-40.48 145zm-9.54 3.89l.01 1.14-.01-1.14c-2.1-.2-3.45-1.15-3.99-2.9.53 1.75 1.88 2.7 3.99 2.9zm8.53-.05zm23.63-18.3l-2.14 4.57 2.14-4.57zm74.9-98.65zm-20.82-53.4c3.2-1.86 6.72-3.1 10.38-3.63.56.09 1.13.14 1.69.13 1.09 1.82 3.86 1.73 4.3 4.31.24 3.04 2.48 6.03.25 9.15l-.11-.09c-.7.76-1.4 1.52-2.1 2.27l-.04-.01.09 2.37c.74-.73 1.48-1.45 2.22-2.19l-2.22 2.18-.09-2.37c-1.74-.05-3.94.6-5.14-.29-3.22-2.61-7.5-3.51-11.51-2.44-.33.08-1.16-.81-1.28-1.37-.12-.69.08-1.4.55-1.92 2.89-1.93 5.04-5.36 8.98-5.22l4.43-4.52c-3.67.54-7.2 1.77-10.4 3.64zm80.76-43.65c-7.83 4.07-15.62 8.23-23.42 12.36 7.81-4.14 15.6-8.3 23.42-12.36zm120.2-54.02l.07-.02c.12.1.4.09.85-.05-1.84 1.45-2.46 2.87-3.48 3.46 1.11-.65 1.73-2.23 2.56-3.39zm37.42-13.77c.07-.19.12-.38.14-.58-.03.2-.07.39-.14.58zm183.42-286.38c-.72.77-1.43 1.54-2.15 2.31-.7.76-1.4 1.53-2.1 2.29-.72.78-1.43 1.56-2.14 2.34-.01.39-.05.78-.07 1.17.03-.39.06-.78.07-1.17l2.14-2.34c.7-.76 1.4-1.53 2.1-2.29.72-.78 1.44-1.55 2.15-2.31zm72.84-103.16c-.06.71-.08 1.42-.08 2.13-.67.1-1.33.18-2 .23.67-.06 1.34-.13 2-.23-.01-.72.02-1.43.08-2.13zm120.07-160.35c1.17-.32 2.05-.57 2.73-.69-.68.12-1.56.37-2.73.69zm101.48-14.87c.06.73-.17 1.45-.64 2.01.48-.57.71-1.29.64-2.01zm42.01 12.53c.07 0 .14-.01.21-.01-.07.01-.14.01-.21.01zm-4.04 4.68c.58-.89 1.16-1.77 1.74-2.66-.58.89-1.16 1.78-1.74 2.66l-2.36 3.73c.8-1.24 1.59-2.49 2.36-3.73zm29.76 43.6c-.23.26-.46.51-.69.77l.69-.77zm38.7 100.68c-.4-1.87.32-4.19-.23-6.03.55 1.83-.17 4.15.23 6.03zm-226.91 443.08c-.17-.01-.36-.05-.54-.08.18.02.36.07.54.08.18.28.45.58.67.88-.22-.31-.49-.61-.67-.88zm-482.62 258.02c-2.25.17-4.67-.44-6.73.59 2.06-1.03 4.48-.42 6.73-.59zm-107.18-32.04c-.12.53-.29 1.07-.42 1.59.13-.52.3-1.06.42-1.59l-21.42 4.6 21.42-4.6zm40.74-181.04c-.43.6-.88 1.18-1.29 1.8.41-.62.85-1.2 1.29-1.8zm159.33-159.84zm-5.03 4.48c.71-.17 1.47-.27 2.14-.48-.67.21-1.43.32-2.14.48zm224.4-214.27c.62.3 1.27.49 1.95.59-.67-.1-1.33-.3-1.95-.59zm56.48-81.71l-.16-.15.16.15zm8.49-20.68zm44.58-42.25c.16.34.3.7.47 1.03-.17-.33-.31-.69-.47-1.03zm152.64-134.15a6.166 6.166 0 01-1.12-3.45c.03 1.24.42 2.43 1.12 3.45zm59.64 27.2c.29.23.53.47.79.7-.27-.24-.5-.48-.79-.7zm-654.88 831.53zm-30.63-203.42c.7-.01 1.4-.02 2.1-.02-.7 0-1.4.01-2.1.02zm417.98-453.68c.77-.44 1.37-1.12 1.69-1.95-.33.83-.93 1.51-1.69 1.95zm88.95-78.09c-.37.82-.78 1.63-1.12 2.47l-2.11 2.27 2.11-2.27c.34-.84.75-1.65 1.12-2.47zm9.7-86.85c.67-.8 1.33-1.6 2-2.4.03-.74.06-1.48.11-2.22a4.214 4.214 0 002.01-3.22 4.188 4.188 0 01-2.01 3.22c-.04.74-.08 1.48-.11 2.22l-2 2.4zm64.18 2.21c.66-.47 1.52-.81 2.12-1.32-.6.51-1.45.86-2.12 1.32zm137.45 92.71a12.03 12.03 0 010 0zm4.09 35.65zm-767.32 653.02c-.52-.06-1.05-.08-1.58-.05.53-.03 1.06-.02 1.58.05zm571.66-748.97c.93-2.2.35-4.8.67-7.16-.32 2.37.26 4.97-.67 7.16zm-1.52 2.04c0 .74-.05 1.49-.15 2.23-1.67 1.08-2.02 2.78-1.92 4.69h.02c-.77.72-1.6 1.37-2.48 1.96-.53.17-1.1.17-1.63.02-.27-3.65-.98-7.34.83-10.83.79-1.52 2.39-1.6 4.24.07.45.56.82 1.19 1.09 1.86zm25.67-18.41c.03-.94-.01-1.9.06-2.83-.03-1.6.75-3.11 2.08-4.01.7-2.54 1.4-5.07 2.27-8.2-.87 3.13-1.57 5.67-2.27 8.2-1.33.89-2.12 2.4-2.08 4.01-.07.93-.02 1.89-.06 2.83zm188.6 126.04l.03-1.33-.03 1.33c-.7.77-1.41 1.53-2.11 2.3.7-.77 1.4-1.54 2.11-2.3zm-3.51.02a3.459 3.459 0 010 0zm-41.48 148.93c.1.16.19.37.29.55-.1-.18-.19-.4-.29-.55zm-60.49 97.85c-.63-1.03-.57-1.68-.17-2.16a2.851 2.851 0 000 0c-.4.48-.46 1.14.17 2.16zm-633.95 342.12a4.976 4.976 0 01-3.62 2.34c1.5-.2 2.83-1.06 3.62-2.34zm544.47-694.19c.18 2.34.92 4.3 4.11 4.57-.02 1.43-.05 2.85-.07 4.28l-6.91 9.67c2.3-3.23 4.61-6.45 6.91-9.68.02-1.43.05-2.85.07-4.28-3.2-.27-3.93-2.23-4.11-4.56zm8.51-16.16a172.704 172.704 0 000 0zm.79-3.07c-.25.25-.51.49-.72.73.21-.24.46-.48.72-.73zm-2.39 5.07a5.209 5.209 0 000 0c-.31.73-.49 1.5-.53 2.29.04-.79.21-1.57.53-2.29zm12.31-1.99l.02-.03-.02.03zm65.41 39.84a6.557 6.557 0 000 0zm54.62 56.38c-.21-.08-.41-.17-.6-.28.19.11.39.21.6.28l.01-.02c.71.01 1.42.01 2.13-.01-.69.78-1.39 1.56-2.08 2.34-.03.75-.05 1.5-.06 2.25-.69.78-1.38 1.56-2.07 2.33l-.04-.01h.04l2.07-2.33c.01-.75.04-1.5.06-2.25l-.06-2.3zm30.02 36.66c.71.01 1.41.01 2.12.02-.71 0-1.41-.01-2.12-.02zm12.87 32.08v.01-.01zm-40.71 99.93c.01-.47.01-.93-.03-1.39.04.46.03.93.03 1.39zm-42.84 74.25l-.06-2.34.06 2.34zm-2.2 4.55zm-386.35 115.12a3.442 3.442 0 00-1.61-2.86c.98.62 1.59 1.7 1.61 2.86zm-25.18-30.33l-.5.03a5.535 5.535 0 014.78-2.32c-1.77.04-3.36.44-4.28 2.29.72 0 1.44 0 2.16.01-.61 0-1.25 0-2.17.01l.01-.02zm190.76-178.76c-1.77 3.05-3.56 6.08-5.28 9.16 1.72-3.08 3.51-6.11 5.28-9.16zm64.71-85.14c-.47 1.61-.67 3.29-.59 4.97-.07-1.67.13-3.35.59-4.97zm57.53-118.68c.7-.41 1.06-.82 1.05-1.22 0 .41-.35.81-1.05 1.22.01.73.01 1.47-.02 2.2.02-.73.03-1.47.02-2.2zm17.15-22.92l-.09-.09.09.09zm43.29 27c.66-.58 1.16-1.32 1.44-2.16-.29.84-.78 1.58-1.44 2.16zm18.72 19.27a25.167 25.167 0 01-4.19 6.35c0 5.35 0 10.7-.01 16.04 0-5.35 0-10.7.01-16.04 1.71-1.89 3.12-4.03 4.19-6.35zm42.92 75.06c1.53-6.24 4.33-11.85 7.15-17.46 1.12-2.24 2.25-4.49 3.29-6.77-1.04 2.28-2.17 4.53-3.29 6.77-2.81 5.61-5.62 11.22-7.15 17.46l-4.24-2.42-2.16 2.43-.01.01c-.7 0-1.4 0-2.11-.01.7.01 1.4.01 2.11.01l.01-.01 2.16-2.43c1.41.81 2.83 1.62 4.24 2.42zm-49.26 192.51l-.43.28a90.52 90.52 0 003.77-20.05c-.42 7.39-1.97 13.57-3.34 19.77.66-.34 1.29-.74 1.89-1.19-.61.45-1.24.84-1.89 1.19zm-417.97 236.03c-.15-.06-.29-.12-.44-.19.15.06.3.12.44.19zm47.16-66.47c.84.01 1.68-.15 2.46-.46-.79.32-1.62.47-2.46.46zm25.68-116.88c-1.16-.01-2.3.25-3.33.78 1.03-.53 2.18-.8 3.33-.78zm139.34-148.94zm27.99-12.31c.1 1.31.82 2.49 1.94 3.18-.01 1.53-.01 3.07-.02 4.6-.66.75-1.32 1.51-1.99 2.27-.03.78-.07 1.55-.1 2.32l-1.13 1.29 1.13-1.29c.03-.77.07-1.55.1-2.32.66-.75 1.33-1.51 1.99-2.27 0-1.53.01-3.07.02-4.6a4.099 4.099 0 01-1.94-3.18zm224.94-65.57c2.15-3.05 4.29-6.11 6.44-9.16-2.14 3.06-4.29 6.11-6.44 9.16zm34.3-36.67l.03.03 2.18-2.3c-.01-.76-.03-1.53-.04-2.29.01.76.03 1.53.04 2.29l-2.18 2.3c0 1.05-.19 2.09-.57 3.08.37-.98.57-2.03.57-3.08l-.03-.03zm-596.89 607.28c-1.07.04-2.18 0-3.28-.04l.01-.02h-1.4c.94-.35 1.53-1.3 1.41-2.3 0 .77-.01 1.53-.01 2.3 1.11.08 2.19.07 3.27.06zm-60.76 2.29c4.13-.14 8.32.08 12.46-.03l.07-.05-.07.05a5.16 5.16 0 01-1.44 1.43 5.03 5.03 0 001.44-1.43c-4.14.12-8.33-.1-12.46.03zm10.95 1.44zm30.31-126.63c.18.15.34.31.5.48-.16-.17-.33-.33-.5-.48zm1.2 1.36l2.74-1.44c-.92.48-1.83.96-2.74 1.44zm36.8-14.18c-.78.32-1.62.48-2.46.46-1.3.78-2.68 1.41-4.12 1.86 1.44-.46 2.82-1.09 4.12-1.86.84.02 1.68-.14 2.46-.46zm100.4-33.93l-1.07.03 1.07-.03a25.65 25.65 0 017.07-5.05c1.28-.65 2.58-1.24 3.9-1.82-1.31.58-2.62 1.17-3.9 1.82a25.503 25.503 0 00-7.07 5.05zm109.33-137.49c.71-.75 1.42-1.51 2.13-2.26l.85-.45-.85.45c-.72.75-1.43 1.51-2.13 2.26l-.03.03-2.12 2.27-.02.01c-1.26-.06-2.5.36-3.45 1.19.95-.83 2.19-1.26 3.45-1.19l.02-.01 2.12-2.27.03-.03zm98.57-178.71l-.04-.08 6.15-5.11c-2.28 1.89-4.22 3.5-6.15 5.11l.04.08zm53.63-34.31c.68-.02 1.36-.04 2.04-.07-.68.02-1.36.05-2.04.07zm40.61-94.15c-.7.8-1.4 1.6-2.1 2.39l-.04-.02c.03.77.06 1.55.08 2.32l-.08-2.32.04.02c.7-.8 1.39-1.59 2.1-2.39zm29.96-39.02l.06 7.25c-.03-2.42-.05-4.83-.06-7.25zm21.59-34.17l.02 2.32-.02-2.32zm90.03 73.35l-2.19-.03 2.19.03zm-8.61 43.52c.02 3.83.03 7.67.05 11.51-.01.75-.02 1.51-.04 2.26.02-.76.03-1.51.04-2.26-.01-3.84-.03-7.67-.05-11.51zm-124.3 265.81l-2.15-2.3-8.55 6.9 8.55-6.9c0-.76 0-1.52-.01-2.28-.68-.06-1.34-.22-1.98-.45.64.24 1.3.39 1.98.45l.02-.01-.02.01c.01.76.01 1.52.01 2.28l2.15 2.3zm-467.76 218.44zm27.7-35.87c1.01.55 2.21.63 3.28.21a3.85 3.85 0 01-3.28-.21zm88.56-1.52c1.42-.11 2.83-.26 4.24-.32-1.42.06-2.83.2-4.24.32-1.23 1.67-2.9 2.95-4.83 3.7 1.92-.76 3.6-2.04 4.83-3.7zm208.48-309.85c-.15-.34-.25-.71-.3-1.08.05.37.16.74.3 1.08a18.208 18.208 0 010 0zm106.28-84.88l-.02-.02.02.02zm.26.57zm-2.03-39.7c.38-.02.74-.16 1.03-.41-.29.25-.65.4-1.03.41zm160.71 7.65c0 .38-.01.76-.02 1.14 0-.38.01-.76.02-1.14zm-323.2 371.85c.14-.36.22-.73.22-1.12-.01.38-.08.76-.22 1.12zm-150.51 72.69c1.61-.1 3.19-.54 4.61-1.3-1.42.75-2.99 1.19-4.61 1.3l-8.57 6.86 8.57-6.86zm233.62-339.15c.04-.74.07-1.48.1-2.22-.03.74-.07 1.48-.1 2.22a6.38 6.38 0 00-2.37.39 8.603 8.603 0 010 0c.75-.28 1.56-.41 2.37-.39zm109.33-160.38zm90.01 66.52l-6.44 11.35c-1.8.03-3.52.74-4.82 1.98a7.112 7.112 0 014.82-1.98l6.44-11.35zm-265.79 339.02c.15 1.05.12 2.34.94 2.77-.82-.43-.79-1.73-.94-2.77.48-1.24 1.17-2.38 2.04-3.38-.86 1-1.55 2.14-2.04 3.38zm-267.56 155.26l-.92-.29.92.29zm33.93-24.63c-1.43.01-2.85.01-4.28.01l4.28-.01zm-27.79 38.82l2.08.13-2.08-.13zm74.93-70.91zm77.18-18.33l-2.14.01 2.14-.01zm24.85-12.78a2.35 2.35 0 010 0zm66.59-54.18c.71-.85 1.35-1.74 1.94-2.68.31-.47.62-.93.96-1.36.7-.01 1.41-.03 2.11-.04.72-.76 1.43-1.51 2.14-2.27 2.15-1.53 4.29-3.06 6.44-4.59-2.15 1.53-4.29 3.06-6.44 4.59-.72.76-1.43 1.51-2.14 2.27-.7.02-1.41.03-2.11.04-.33.43-.65.89-.96 1.36-.59.94-1.24 1.83-1.94 2.68zm47.86-203.43zm2.21-4.55l2.1-2.31-2.1 2.31-.02.04.02-.04zm8.53-11.47l2.14-2.3-2.14 2.3zm-3.52-3.52zm3.54 5.83c.71-.76 1.42-1.53 2.13-2.29-.71.76-1.42 1.52-2.13 2.29zm123.78-135.78a2.906 2.906 0 000 0zm13.36-40.68l-2.11 2.33c-.02.75-.03 1.5-.06 2.25.03-.75.04-1.5.06-2.25l2.11-2.33zm-.43-2.64zm23.97-45.59c1.4-1.31 3.39-.58 5.02-1.08-1.63.5-3.62-.23-5.02 1.08zm17.33-21.85zm15.35 69.25c-.45.33-.92.65-1.4.95.48-.3.95-.61 1.4-.95zm12.77 33.5c.38.48.71.99.98 1.53-.27-.54-.59-1.05-.98-1.53zm-133.28 102.53c-.02-.79.08-1.59.3-2.35-.21.76-.32 1.55-.3 2.35zm-42.85 128.32c.72-.76 1.43-1.52 2.14-2.29-.71.77-1.43 1.53-2.14 2.29zm107.17-192.47l-.02-.03.02.03zm10.75 146.69c.71-.77 1.43-1.54 2.14-2.31-.71.77-1.43 1.54-2.14 2.31zm8.55-169.59zm-.06-.05c.73-3.03 1.47-6.07 2.21-9.1l-2.21 9.1zm-2.06 2.35l-.05-.05.05.05zm-4.29 2.3l-.05-.04.05.04zm-30.04 77.88c.84-.49 1.65-1.04 2.42-1.64-.77.59-1.58 1.14-2.42 1.64-.01.76-.02 1.53-.05 2.29.03-.77.04-1.53.05-2.29zm5.82-6.08a9.96 9.96 0 010 0zm2.75 40.43c1.16-1.55 2.37-3.08 3.59-4.6s2.45-3.03 3.65-4.56c-1.2 1.53-2.43 3.04-3.65 4.56-1.22 1.52-2.43 3.04-3.59 4.6-.51 2.33-1.07 4.62-1.74 6.86.66-2.24 1.23-4.54 1.74-6.86zm34.61-10.98c.81.37 1.45 1.02 1.82 1.82-.37-.8-1.02-1.45-1.82-1.82zm6.14-71.47c1.4-1.81 2.84-3.59 4.14-5.45-1.3 1.86-2.74 3.65-4.14 5.45zm8.59-16.04zm-27.55 26.75c2.04-4.05 4.81-7.69 8.16-10.74.02-.76.05-1.52.07-2.29-.03.76-.05 1.52-.07 2.29a37.107 37.107 0 00-8.16 10.74zm-2.61-5.39c-.7.48-1.37.99-2.02 1.53-.11.55-.13 1.18-.2 1.77.07-.59.1-1.22.2-1.77.58-3.03 1.24-6.03 2.03-8.99-.8 2.95-1.45 5.96-2.03 8.99.64-.54 1.32-1.05 2.02-1.53zm-21.32-7.63l-.02-.02.02.02zm-66.45 128.3l2.14-2.29c-.71.77-1.42 1.53-2.14 2.29 0 .76 0 1.52-.01 2.29.01-.76.01-1.52.01-2.29zm90.06 6.91c.71-.77 1.42-1.54 2.13-2.32.27-1.44.44-2.9.83-4.3-.39 1.4-.56 2.86-.83 4.3l-2.13 2.32zm27.87-148.94c.68-.79 1.36-1.58 2.04-2.36.66-1.19 1.15-2.5 1.77-3.71-.62 1.21-1.11 2.52-1.77 3.71-.68.79-1.36 1.58-2.04 2.36zm-8.03-12.86c-2.42 6.52-4.69 13.12-7.06 19.66-.7.78-1.4 1.56-2.09 2.34.7-.78 1.4-1.56 2.09-2.34 2.37-6.55 4.64-13.14 7.06-19.66 1.21-3.26 2.46-6.51 3.78-9.72-1.33 3.21-2.57 6.46-3.78 9.72zm8.1-81.65c0-.12-.02-.24-.02-.35.01.11.02.23.02.35zm-2.28 25.74c.48-.07.97-.09 1.45-.14-.48.05-.97.07-1.45.14zm-12.83 20.61c.07-.35.24-.68.49-.95-.25.26-.42.59-.49.95zm-.01.02c-1.14.85-2.35 1.62-3.42 2.56 1.07-.95 2.27-1.72 3.42-2.56zm-12.81 41.28l4.24 2.25-4.24-2.25c-.53 4.26-2.84 6.97-5.67 9.24 2.82-2.27 5.14-4.98 5.67-9.24zm-27.92 25.15c-.32-.2-.6-.44-.86-.71.25.26.54.5.86.71l.02.02-.02-.02zm-26.65 40.19a4.262 4.262 0 010 0zm-14.18 113.6c-.6 1.61-1.57 2.97-4.19 6.6-.71.76-1.43 1.53-2.14 2.3.71-.76 1.43-1.53 2.14-2.3 2.62-3.62 3.6-4.98 4.19-6.6zm-19.2 31.8l.02.02-.02-.02zm8.59-9.14l-2.14 2.28c.71-.76 1.42-1.52 2.14-2.28zm87.9-77.89l2.14-2.3-2.14 2.3zm2.14-2.3l2.13-2.31-2.13 2.31zm47.15-84.8l2.14-2.29c.71-1.31 1.39-2.64 2.09-3.96-.7 1.32-1.38 2.65-2.09 3.96l-2.14 2.29zm9.69-22.51zm-1.11-4.97zm-36.44-34.38l-2.15-.01 2.15.01zm-2.14-64.12zm-.98-2.32zm-103.39 163.86zm-18.18 5.51c2.46-1.41 3.87-3.78 5.19-6.18-1.33 2.4-2.74 4.78-5.19 6.18zm-1.36-.62c.12-.11.26-.19.42-.23-.16.05-.3.12-.42.23zm.45-.22zm-3 5.67zm-36.46 137.4l.01.01-.01-.01zm-.45 21.11zm1.26-.4c-.14.03-.28.09-.42.13.15-.04.28-.1.42-.13zm42.07-16.11c-.72.76-1.43 1.52-2.14 2.29.71-.76 1.42-1.53 2.14-2.29zm89.99-61.9c-1.42.78-2.84 1.56-4.26 2.33l-2.1 2.3c-.02 1.51-.05 3.03-.07 4.54.02-1.51.05-3.03.07-4.54.7-.77 1.4-1.53 2.1-2.3 1.42-.77 2.84-1.55 4.26-2.33l.06.06-.06-.06zm70.49-148.09zm2.5-8.65a4.126 4.126 0 010 0zm-10.8.97l2.13-2.31c-.7.77-1.41 1.54-2.13 2.31zm-2.38 5.08zm-21.18-53.21c1.15-.68 1.9-1.88 2-3.22a4.12 4.12 0 01-2 3.22zm-5.38-78.96a5.36 5.36 0 000 0zm-3.13-3.14c.02 1.4.02 2.81-.06 4.21.07-1.4.07-2.8.06-4.21zm-2.26 22.5a31.68 31.68 0 01-5.75 7.24c2.25-2.12 4.19-4.56 5.75-7.24.4-.83.76-1.67 1.14-2.51-.38.84-.75 1.69-1.14 2.51zm-25.68 59.6c-.15.34-.3.7-.48 1.05.18-.35.34-.71.48-1.05zm-17.16-11.46l-2.11 2.34c-.01.75-.03 1.49-.06 2.24-.71.38-1.42.77-2.14 1.15.71-.39 1.42-.77 2.14-1.15.03-.75.05-1.49.06-2.24.71-.78 1.41-1.56 2.11-2.34zm2.33 15.55c-.59 3.6-1.35 7.13-4.43 9.69-.08 1.87-.48 3.57-2.19 4.55 1.71-.98 2.11-2.68 2.18-4.55 3.09-2.56 3.85-6.09 4.44-9.69zm-6.71 15.62a4.183 4.183 0 000 0zm-75.12 92.4c-.68.79-1.35 1.58-2.03 2.37.67-.79 1.35-1.58 2.03-2.37zm-8.37 137.67c.7-.02 1.41-.03 2.11-.03-.71-.01-1.41 0-2.11.03zm51.42-13.77c-.71.76-1.42 1.52-2.14 2.28.72-.76 1.43-1.52 2.14-2.28zm30.03-2.28c.84.01 1.68-.16 2.45-.48-.77.32-1.61.48-2.45.48zm42.87-55c-.01 1.52-.01 3.05-.02 4.57.01-1.52.02-3.04.02-4.57zm57.85-135.21c-.71.77-1.42 1.53-2.13 2.29.71-.76 1.42-1.52 2.13-2.29l1.08-1.15c-.36.39-.72.77-1.08 1.15zm-21.4-29.74c-2.16 4.56-4.33 9.12-6.49 13.68-.75.19-1.8.83-2.57.95.77-.12 1.82-.76 2.57-.95 2.16-4.55 4.33-9.11 6.49-13.68.82-1.4 1.6-2.84 2.41-4.25-.8 1.42-1.59 2.86-2.41 4.25zm-17.19 13.69l-2.12 2.32 2.12-2.32c.13-1.85.6-3.66 1.36-5.35-.76 1.69-1.22 3.5-1.36 5.35zm6.42-48.09zm1.54-6.24zm-3.66-9.8c.55-1.18 1.1-2.35 1.65-3.53-.54 1.18-1.1 2.35-1.65 3.53zm-4.28-11.45c-.41 1.18-.91 2.32-1.51 3.41-.58 1.11-1.2 2.2-1.73 3.32.54-1.12 1.15-2.22 1.73-3.32.6-1.09 1.11-2.23 1.51-3.41zm-30.38-13.5l-1.69 2.15c0 .72-.01 1.44-.03 2.16.92.64 1.44 1.7 1.38 2.82.06-1.12-.47-2.18-1.38-2.82.02-.72.03-1.44.03-2.16.56-.72 1.13-1.44 1.69-2.15zm-4 20.28l.11.12-.11-.12zm-17.08 22.97c1.46-1.63 2.8-3.36 4.01-5.19-1.2 1.83-2.54 3.57-4.01 5.19zm-66.5 105.34a7.765 7.765 0 010 0zm.19 2.65l-.12-1.75.12 1.75zm-32.09 25.88c-1.26 1.7-2.52 3.4-2.41 5.87-.95.96-2.06 1.82-2.96 2.82.9-1 2-1.86 2.96-2.82-.11-2.47 1.15-4.18 2.41-5.87zm-25.88 12.83zm-23.63 43.49l-.72.77.72-.77zm-23.56 87.09c-.52.02-1.03.09-1.54.2.51-.12 1.02-.18 1.54-.2zm-167.91 195.22c.71-.39 1.41-.8 2.11-1.2-.7.4-1.4.81-2.11 1.2zm-16.41 8.74v-.02.02zm-46.45 13.73l1.41-.03-1.41.03zm-2.87 2.28l.01-.01-.01.01c-4.28 1.53-8.56 3.07-12.83 4.6 4.28-1.54 8.56-3.07 12.83-4.6zm-16.08 3.28zm225.75-97.27zm165.47-141.99c.67-.21 1.43-.33 2.14-.5-.7.17-1.47.29-2.14.5-.61.92-1.09 2.1-1.75 2.92.67-.82 1.14-2 1.75-2.92zm130.75-153.55l2.11-2.27c-.7.76-1.4 1.51-2.11 2.27l-.03 2.29.03-2.29zm2.14-2.29l2.13-2.28-.01-.01.01.01-2.13 2.28zm4.25-6.88c-.72.76-1.44 1.52-2.15 2.28l-2.11 2.32 2.11-2.31c.72-.77 1.44-1.53 2.15-2.29zm23.57-41.29c-.36 1.63-.76 3.25-1.13 4.88.38-1.63.78-3.25 1.13-4.88zm.09-24.45zm-25.67 45.97c.02-1.05-.02-2.09-.12-3.14l2.15-2.29-2.15 2.29c.1 1.04.15 2.09.12 3.14zm-47.3-48.98c-1.99-.66-2.99-1-3.53-1.85.54.85 1.54 1.18 3.53 1.85zm.06-68.68c.2 1.52-.67 3.09-.72 4.63.05-1.53.92-3.11.72-4.63 1.76 1.02 3.28 1.28 4.5.47-1.2.8-2.72.55-4.49-.48l-.01.01zm-2.17-.04c-.7.76-1.38 1.52-2.07 2.28-.75 1.52-1.5 3.05-2.25 4.57l.03 2.33a4.263 4.263 0 000 0l-.03-2.33c-1.14.08-2.28.08-3.41.01 1.14.08 2.28.07 3.41-.01.75-1.52 1.5-3.05 2.25-4.57.68-.76 1.37-1.52 2.07-2.28.7-.78 1.4-1.56 2.09-2.34-.7.78-1.4 1.56-2.09 2.34.71 0 1.42 0 2.13-.01-.7.01-1.41.01-2.12.01h-.01zm-8.64-57.33c-.14-2.39.28-4.77 1.21-6.96-.93 2.2-1.35 4.58-1.2 6.96h-.01zm-12.99 24.62c-.36 2.31-1.37 4.47-2.93 6.22a11.99 11.99 0 002.93-6.22zm-4.22 7.59c.13.51.39 1.11.57 1.66-.19-.55-.44-1.15-.57-1.66.44-.43.85-.87 1.24-1.31-.38.44-.79.88-1.24 1.31zm-8.48-18.4c.17-.32.31-.67.47-1-.17.33-.31.69-.47 1zm-2.99 22.14a4.583 4.583 0 010 0zm-1.26 7.64c1.37-.36 2.75-.7 4.11-1.09-1.36.39-2.74.73-4.11 1.09l-.05-.05-2.12 2.29 2.12-2.29.05.05zm-4.3 4.56l-.01-.01.01.01zm2.13 32.08c-2.75 4.42-5.72 8.69-7.55 13.54 1.83-4.86 4.8-9.12 7.55-13.54 0-2.29.01-4.58.01-6.86 0 2.28 0 4.57-.01 6.86zm-19.28-13.77l-.01.02.01-.02zm-12.86 34.39c.04.94-.01 1.91.05 2.85-.06-.94-.02-1.91-.05-2.85zm.87 5.62c-.21-.31-.38-.64-.5-.98.13.35.3.68.5.98zm-29.2 77.87c-.68.14-1.24-.26-1.7-1.02.46.77 1.03 1.17 1.7 1.02zm-10.91 9.26c1.29-2.15 2.29-4.57 4.67-5.75l-1.24-6.48c.41 2.16.83 4.32 1.24 6.48-2.38 1.18-3.37 3.61-4.67 5.75zm-21.45 17.14c.19-1.5.43-2.99.66-4.49-.22 1.5-.46 2.99-.66 4.49zm-20.74 7l-.02-.02.02.02zm-2.19-2.37l-2.13 2.31c-.71.77-1.41 1.54-2.1 2.32l2.1-2.32c.71-.76 1.42-1.54 2.13-2.31zm-15.13 1.72zm-9.47 25.21c-.63-.31-1.3-.5-1.99-.57.7.07 1.37.27 2 .57h-.01zm-3.22-.6c-.05 0-.09.02-.14.02.06-.01.11-.02.14-.02zm-8.63 10.35l-2.08 2.32c.7-.77 1.39-1.54 2.08-2.32 0-1.51.01-3.02.02-4.53 0 1.5 0 3.02-.02 4.53zm-10.71 18.35c.08-1.37.14-2.4.24-3.2-.09.8-.15 1.82-.24 3.2zm.02 0l-1.29 1.38 1.29-1.38zm-34.29 112.3c.72-.76 1.43-1.53 2.15-2.29 1.43-2.74 3.1-5.13 5.67-6.23-2.57 1.1-4.24 3.49-5.67 6.23-.71.76-1.43 1.52-2.15 2.29zm-15 11.45c-.33-.01-.65.01-.97.06.32-.04.65-.06.97-.06zm-1.87.26c-.58.18-1.13.42-1.65.74.51-.32 1.07-.57 1.65-.74zm-83.85 130.37l-.02-.02.02.02zm-146.93 70.53zm-38.59 10.45c.02-.35-.03-.7-.16-1.03.12.32.18.67.16 1.03zm.05 3.66c.39-.01.79.04 1.16.16-.38-.13-.77-.18-1.16-.16zm200.48-20.49c1.26.08 2.5-.34 3.46-1.15a4.94 4.94 0 01-3.46 1.15l-.02.01.02-.01zM1833.46 1026c.05.73.09 1.47.11 2.21 1.41.75 2.82 1.5 4.23 2.26-1.41-.75-2.82-1.5-4.23-2.26-.74 1.48-1.48 2.95-2.23 4.43-.71.8-1.42 1.6-2.12 2.4.71-.8 1.42-1.6 2.12-2.4.74-1.48 1.48-2.95 2.23-4.43-.03-.73-.06-1.47-.11-2.21l.06-.06c-.68.01-1.37.02-2.05.06.68-.03 1.37-.05 2.05-.06l-.06.06zm-67.48 17.54l.03.02-.03-.02zm-.81-.66zm-15.23 31.14l-2.13 2.28 2.13-2.28c.02-.75.03-1.5.04-2.25-.01.76-.02 1.51-.04 2.25zm-10.81 19.82zm17.26-3.78c0-.77-.01-1.54-.01-2.3 0 .77 0 1.53.01 2.3-.71.77-1.42 1.53-2.14 2.3.72-.76 1.43-1.53 2.14-2.3zm-40.77 54.99l-2.11 2.29 2.11-2.29c.76-1.89 1.8-3.66 2.67-5.5-.87 1.84-1.91 3.61-2.67 5.5zm-.64-31.3c.23.51.45 1.02.69 1.52-.24-.5-.46-1.01-.69-1.52zm-3.66 10.66c.73-1.52 1.46-3.05 2.19-4.57-.73 1.52-1.46 3.05-2.19 4.57-.45.3-1.01.51-1.42.84.41-.33.97-.54 1.42-.84zm-8.53 29.8v-1.14 1.14c-2.85 4.59-5.7 9.18-8.54 13.78 2.84-4.59 5.69-9.18 8.54-13.78zm-27.85 30.19c-.13 1.56-.55 3.09-1.24 4.5.68-1.41 1.1-2.94 1.24-4.5a18.288 18.288 0 010 0zm-21.39 11.1c-2.55 3.08-5.1 6.15-7.63 9.26 2.52-3.11 5.08-6.18 7.63-9.26zm-45.09 66.4c-2.91.58-5.56 2.1-7.52 4.33 1.96-2.24 4.6-3.76 7.52-4.33l.02-.02-.02.02zm-8.54 22.9c1.43.61 2.77 1.32 4.2.78-1.43.54-2.76-.17-4.2-.78zm-38.59 93.98c-.31.18-.65.34-.98.51.33-.18.68-.33.98-.51zm-62.17 105.37c.92-1.83 2.51-2.23 4.25-2.31 2.88-2.26 5.76-4.53 8.64-6.79l-8.64 6.8c-1.75.07-3.34.47-4.25 2.3l-.01.02.01-.02zm-5.91 2.41c.5.02.99.1 1.47.23-.48-.14-.97-.21-1.47-.23-.16-.02-.33-.04-.49-.07-1.44.76-2.88 1.51-4.31 2.27 1.44-.75 2.88-1.51 4.31-2.27.17.03.33.06.49.07zm-77.67 48.03c0 .76 0 1.53.01 2.29-.01-.76-.01-1.52-.01-2.29l-4.3-.01 4.3.01zm-70.74 34.35c-2.09-.02-4.16.39-6.08 1.21a14.94 14.94 0 016.08-1.21c10.86-6.73 22.8-10.84 34.29-16.03-.17-.31-.38-.6-.62-.87.24.27.44.56.62.87-11.5 5.18-23.43 9.3-34.29 16.03zm32.21-17.91c.5.2.96.51 1.33.9-.38-.39-.83-.69-1.33-.9zm-4.31-.38c-4.54 4.44-10.12 6.35-15.78 7.63 5.66-1.28 11.24-3.19 15.78-7.63.58.02 1.18 0 1.77.01-.59-.01-1.18.01-1.77-.01zm-25.74-11.47c-.51-.01-1.03 0-1.54-.01.52.01 1.03 0 1.54.01zm-8.58-9.18c-.43 0-.85.01-1.28.01.42 0 .85-.01 1.28-.01.43-.58.89-1.14 1.28-1.75-.39.62-.85 1.18-1.28 1.75zm-36.42 52.73c-2.05 1.37-4.42 1.94-6.67 2.85 2.25-.91 4.62-1.47 6.67-2.85zm-17.15 38.93a4.793 4.793 0 01-4.31 2.29c1.74.08 3.39-.8 4.29-2.29a15.951 15.951 0 00.02 0c1.09-1.94 2.95-2.35 4.75-2.77-1.8.43-3.66.84-4.75 2.77zm-8.38-.01zm222.72-50.4c.84.01 1.67-.14 2.45-.46-.78.31-1.62.47-2.45.46l-.02.02.02-.02zm12.85-4.57l.01-.01-.01.01c-.27.9-.75 1.72-1.39 2.4.64-.68 1.11-1.5 1.39-2.4zm4.29-2.3c.71-.76 1.43-1.52 2.14-2.28-.72.76-1.43 1.52-2.14 2.28l-2.15.02 2.15-.02zm426.55-483.48c.82-1.23 1.44-2.16 1.9-2.93-.47.77-1.08 1.7-1.9 2.93l-.03 2.28.03-2.28zm-2.17-20.65c.83 1.13 1.51 2.37 2.01 3.68.09.3.13.6.14.91 0-.31-.05-.62-.14-.91-.5-1.31-1.18-2.54-2.01-3.68zm-12.83 9.2c-.03 1.51.02 3.02-.08 4.52.09-1.51.04-3.02.08-4.52l2.13-4.59c-.72 1.52-1.43 3.05-2.13 4.59zm-7.72 2.87a5.632 5.632 0 010 0zm-38.32-1.76c-.06.22-.16.42-.3.6.12-.18.23-.39.3-.6zm-.57.88c-.69 2.56-.6 4.44-1.3 5.8.78-1.52.52-3.65.74-5.5-2.79-.08-4.22-1.61-4.29-4.58-.69.01-1.38.01-2.07.03.73.01 1.45-.22 2.05-.64-.13.73.16.83.74.17-.39 3.3.82 4.63 3.63 4-.31 1.02-.08 1.28.5.72zm-3.71-5.46c-.06.22-.16.42-.31.6.13-.18.23-.39.31-.6zm-24.63 5.78a13.56 13.56 0 00-1.67-3.23c.69 1 1.25 2.08 1.67 3.23zm-2.72-3.85c.38.05.72.25.96.55-.24-.31-.58-.5-.96-.55zm-5.98-30.57c.33-2.17.96-4.27 1.86-6.27-.9 2-1.52 4.1-1.86 6.27zm-12.8-27.46a7.946 7.946 0 010 0c-.01.76-.02 1.52-.02 2.28.01-.76.02-1.52.02-2.28 4.99-8.41 9.97-16.83 14.95-25.24-4.98 8.42-9.97 16.83-14.95 25.24zm13.38-28.24c.06-.29.15-.58.27-.85-.11.27-.2.55-.27.85zm.37 1.84a2.37 2.37 0 01-.19-.35c.05.12.11.24.19.35zm-.32-.67c-.07-.24-.1-.48-.09-.73-.02.25.01.5.09.73zm-19.25-26.28c.01.88-.92 1.63-2.77 3.13-.67 2.79-1.33 5.59-2 8.38l2-8.39c1.84-1.5 2.76-2.25 2.77-3.12zm-22.03.67l-.1-.11.1.11zm.03 27.41c-.72-1.52-1.44-3.05-2.15-4.57-.3-.19-.58-.4-.84-.64a7.5 7.5 0 01-1.29-1.57c.35.58.79 1.11 1.29 1.57.26.24.55.45.84.64.71 1.52 1.43 3.04 2.15 4.57zm-12.93-6.84c.6.42 1.08 1.01 1.36 1.7-.29-.69-.76-1.28-1.36-1.7zm.85-2.87zm-5.09 18.64zm-1.42-.29zm-11.52 37.22c.76-3.02 1.52-6.03 2.27-9.05-.76 3.01-1.52 6.03-2.27 9.05zm-8.51-6.84c-.18-.24-.4-.45-.64-.62.25.16.46.37.64.62zm-15.02 38.96l-.01-.03.01.03zm-5.12-.9a10.593 10.593 0 000 0zm-5.61 44.41zm-6.39 11.69v-.03.03zm-2.23 6.61c-2.56 2.33-3.9 3.83-4.19 5.43.3-1.6 1.64-3.1 4.19-5.43zm-56.78 43.25c-.25-.38-.49-.55-.79-.51.29-.04.53.14.79.51zm-63.24 82.79c-.71.01-1.41.02-2.12.02.71-.01 1.42-.01 2.12-.02 4.06-6.76 8.54-13.26 12.54-20.07-4 6.81-8.47 13.3-12.54 20.07zm-14.97 22.94l-2.15 2.28c-.27.24-.55.46-.83.69.28-.23.56-.46.83-.69l2.15-2.28zm-61.57 72.29zm-11.36 12.6c3.86-2.7 6.84-6.7 10.75-9.34-.04-.23-.06-.47-.04-.7-.02.23-.01.47.04.7-3.91 2.65-6.89 6.65-10.75 9.34zm24.73 4.45c-.69 0-1.37.06-2.05.16.68-.11 1.36-.16 2.05-.16zm5.32-22.91c1.44-.78 2.76-1.78 3.9-2.96a16.598 16.598 0 01-3.9 2.96zm-41.87-2.93zm-11.7 9.82c-1.26-.02-2.49.31-3.57.95 1.08-.65 2.32-.98 3.57-.95zm19.3 13.75c-2.15 1.52-4.3 3.04-6.45 4.57 2.15-1.52 4.3-3.04 6.45-4.57zm2.91 2.12c-.76-.17-1.45-.54-2.02-1.07.57.54 1.26.91 2.02 1.07zm5.64.14l.02.03-.02-.03zm40.73-6.86c-.92 1.27-1.82 2.57-2.71 3.88.89-1.3 1.78-2.6 2.71-3.88zm-23.55 64.18a7.926 7.926 0 01-2.89 3.79 8.05 8.05 0 002.89-3.79zm-27.87 20.62h-.01.01zm-36.38 53.91c-4.89 2.9-10 5.37-15.04 7.98 5.03-2.61 10.14-5.08 15.04-7.98zm-100.01 9.88c.07-.27.11-.54.12-.81-.02.28-.06.55-.12.81zm-67.27 32.41c.73-2.03 1.47-4.05 2.21-6.11-.74 2.06-1.47 4.09-2.21 6.11-.71.02-1.43.02-2.14.03.71 0 1.43-.01 2.14-.03zm121.26 83.14a33.89 33.89 0 0113.78-2.92h.01-.01c-4.74 0-9.44.99-13.78 2.92zm22.4-7.47zm197.02-171.4a8.089 8.089 0 010 0zm100.88-53.17l2.14-2.29c-.71.76-1.43 1.52-2.14 2.29zm184.3-348.3c-.7.77-1.4 1.53-2.1 2.3.7-.77 1.4-1.53 2.1-2.3l2.19-9.15c-.73 3.04-1.46 6.1-2.19 9.15zm-33.62-33.41a1.258 1.258 0 010 0zm-.69 1.35c-.06.06-.12.09-.19.15.07-.06.13-.1.19-.15zm-44.98 18.31a15.776 15.776 0 00-3.67 5.42c-.92 2.01-1.68 4.12-2.77 6.02 1.09-1.9 1.85-4.01 2.77-6.02.83-2.05 2.08-3.89 3.67-5.42zm-8.52-4.57c-.27.67-.55 1.33-.85 1.98-.6 1.31-1.26 2.59-1.91 3.87.65-1.28 1.31-2.56 1.91-3.87.29-.65.58-1.31.85-1.98.38-.34.73-.71 1.07-1.09-.34.38-.7.74-1.07 1.09zm-4.28-75.54l-.03-.08.03.08zm-23.67 6.83l2.19-2.28-2.19 2.28zm-25.66 20.56zm-19.88 42.55c-.45 1.82-1.19 3.67-1.64 5.49-1.11-.21-2.41-1.11-3.32-.4.91-.71 2.2.19 3.32.4.45-1.83 1.19-3.67 1.64-5.49zm-29.46 42.24l.03.01-.03-.01zm-12.88 57.23l-.05.01v.1-.1c-.67.79-1.33 1.58-1.99 2.38l1.99-2.38.05-.01c-.01-.74.01-1.48.05-2.23-.05.75-.07 1.49-.05 2.23zm-2.06-4.54c-.84 2.09-1.84 4.11-3.01 6.03 1.16-1.93 2.17-3.94 3.01-6.03.01-.75-.01-1.5-.04-2.25-.57-.36-1.05-.85-1.39-1.42.35.58.83 1.06 1.39 1.42.02.75.04 1.5.04 2.25zm-17.19-41.22a15.21 15.21 0 010 0c.01-.75.01-1.51.01-2.26 0 .75 0 1.5-.01 2.26zm-17.11 27.47c.17.53.37 1.04.61 1.54.23.51.46 1.02.64 1.53-.18-.52-.41-1.03-.64-1.53-.23-.5-.44-1.02-.61-1.54zm-10.8 50.51c.04-1.36 0-2.73.07-4.09-.06 1.36-.02 2.74-.07 4.09zm-17.08 9.13zm-66.53 73.26c-.69.76-1.39 1.53-2.08 2.3l-.02.01c-.71.01-1.41.01-2.12.01-1.43.77-2.86 1.53-4.29 2.29 1.43-.76 2.86-1.53 4.29-2.29.71 0 1.41 0 2.12-.01l.02-.01c.7-.77 1.39-1.53 2.08-2.3.04-.75.06-1.51.09-2.26l2.1-2.29.02-.02c.7-.76 1.39-1.53 2.08-2.29l.06-1.7-.06 1.7c-.7.76-1.39 1.53-2.08 2.29l-.02.02-2.1 2.3c-.02.75-.05 1.5-.09 2.25zm-35.59 57.83c-.74-.9-1.08-.66-.72.54.06.2.12.37.19.53l.01-.01c.03.09.06.17.1.26-.04-.08-.08-.17-.11-.25a92.467 92.467 0 00-18.58 14.86c5.7-5.93 12.18-11.01 18.33-16.45 1.55-2.03 3.17-3.99 4.62-6.09a29.476 29.476 0 00-3.84 6.61zm-85.62 65.81c-.1-.02-.2-.05-.3-.08.1.03.2.07.3.08zm-101.64 160.51l.01.02-.01-.02zm-2.14-13.69c4.72-1.05 8.9-3.35 12.96-5.9-4.06 2.55-8.24 4.85-12.96 5.9zm-12.86-4.61l-2.15-.01 2.15.01zm-49.3 18.33c-1.42 1.9-2.82 3.82-4.26 5.7 1.45-1.88 2.84-3.8 4.26-5.7zm-50.67 63.49a6.62 6.62 0 003.53-3.93c.71-.01 1.41-.01 2.12-.01-.71 0-1.42.01-2.12.01a6.593 6.593 0 01-3.53 3.93zm12.74 22.87c-1.62.36-3.26.59-4.91.7h-.02.02c1.65-.11 3.29-.34 4.91-.7zm-15.34 4.8c-.41.17-.83.29-1.27.35.44-.06.87-.17 1.27-.35zm-3.87.35zm-39.24 73.42l-.07.05.07-.05zm1.08-.04h-.03.03zm187.42-48.08c.02-.75.03-1.5.06-2.25l-.06 2.25-2.12.03 2.12-.03zm122.18-48.2c-1.55.31-3.17.42-4.69.8 1.52-.39 3.14-.5 4.69-.8zm345.16-297.75l-2.14 2.29c.71-.76 1.42-1.53 2.14-2.29zm38.58-59.58c.7-.78 1.4-1.55 2.11-2.32-.7.77-1.41 1.54-2.11 2.32l-.01.01.01-.01zm44.98-162.7l-4.27-2.29 4.27 2.29zm-12.88-64.18a20.257 20.257 0 00-2.69 4.78 24.41 24.41 0 00-1.59 8.98c-.76 1.25-1.37 2.57-1.83 3.96.45-1.39 1.07-2.71 1.83-3.96-.04-3.07.5-6.11 1.59-8.98.68-1.71 1.58-3.32 2.69-4.78-.29-2.42.35-5.04 0-7.44.35 2.4-.29 5.02 0 7.44zm-46.06-10.01c-.3.35-.66.65-1.06.87l-.03 6.85a7.36 7.36 0 00-2.31 3.82 7.295 7.295 0 012.31-3.82l.03-6.85c.41-.23.76-.52 1.06-.87zm-5.38 19.19l-2.07 2.34 2.07-2.34.03-.6-.03.6zm-25.72-32.1c-.68.78-1.37 1.56-2.05 2.34-.04.74-.07 1.49-.09 2.24-.41.47-.82.95-1.24 1.42l1.24-1.42c.02-.75.05-1.49.09-2.24.69-.78 1.37-1.56 2.05-2.34zm-21.1-23.99c.02-1.4.68-2.71 1.79-3.55 0-.57.02-1.13.03-1.7 0 .57-.03 1.13-.03 1.7a4.53 4.53 0 00-1.79 3.55zm-13.08-14.89c-.01.72-.08 1.46-.02 2.18-.05-.72.01-1.45.02-2.18zm-33.11 15.19c-.08-.09-.14-.19-.21-.28.07.09.12.2.21.28zm-61.27 108.48zm-.02.03c-1.18.83-2.35 1.69-3.55 2.49 1.2-.8 2.36-1.66 3.55-2.49zm-8.64 38.88l.16.16c.68-.06 1.35-.1 2.03-.12l.29-.33-.29.34c-.68.02-1.36.06-2.03.12l-.16-.17c-.6.66-1.2 1.33-1.8 1.99.6-.66 1.2-1.33 1.8-1.99zm-35.15-4.48c.32-.04.63-.05.95-.04-.31-.02-.63 0-.95.04-.89.12-1.75.43-2.53.89.78-.47 1.64-.77 2.53-.89zm-93.38 126l4.29-2.3-4.29 2.3zm-112.89 91.84c.01-.1.04-.18.05-.27a3.98 3.98 0 003.51-2.22 4.712 4.712 0 01-3.56 2.49c-.06.03-.11.06-.17.1-12.28-1.65-17.14 8.46-24.37 14.19 7.41-5.88 12.31-16.37 24.54-14.29zm1.58-2.17c.18-.07.37-.13.56-.17-.19.05-.38.1-.56.17zm-18.4 13.24zm3.69-2.87c-.94.7-1.89 1.4-2.79 2.14.9-.73 1.84-1.44 2.79-2.14zm-64.75 190.96c4.18-1.93 8.35-3.86 12.52-5.79-4.17 1.92-8.35 3.85-12.52 5.79l-8.59 2.27 8.59-2.27zM1242 1603.37l-.04-.06.04.06zm6.46 37.49a59.26 59.26 0 00-8.66 5.98c-2.85.77-5.7 1.54-8.56 2.31l8.56-2.31a59.02 59.02 0 018.66-5.98zm-42.36 72.37a6.205 6.205 0 003.72-2.18l12.86-.01-12.86.01a6.254 6.254 0 01-3.72 2.18c-.54.1-1.08.15-1.62.16.54-.01 1.08-.07 1.62-.16zm535.28-272.59l2.14-2.29-2.14 2.29c-.72.76-1.43 1.53-2.14 2.29.71-.76 1.43-1.52 2.14-2.29zm111.45-137.49a4.904 4.904 0 01-1.6-1.9c.37.76.92 1.42 1.6 1.9.89-1.43 1.88-2.78 2.98-4.06a34.686 34.686 0 00-2.98 4.06zm30.03-29.77l2.13-2.29-2.13 2.29-.01.01.01-.01zm4.27-4.59c.71-.77 1.42-1.53 2.14-2.3-.72.76-1.43 1.53-2.14 2.3l-.02-.01.02.01zm70.95-169.92zm4.09-11.08a5.86 5.86 0 01-1.1 3.71 3.99 3.99 0 000 0 5.94 5.94 0 001.1-3.71zm21.41 6.86c1.43 0 2.85 0 4.28-.01.46-1.01 1.04-1.95 1.73-2.81-.69.86-1.28 1.8-1.73 2.81-1.42 0-2.85 0-4.28.01zm-4.59-9.57c-.73-.5-1.35-1.14-1.83-1.88.71-3.07 1.42-6.14 2.13-9.22l-2.13 9.22c.48.75 1.1 1.38 1.83 1.88zm-15.13-81.95c.19-1.01.31-2.04.36-3.07-.04 1.03-.16 2.05-.36 3.07zm-7.65-13.7zm-4.78-2.49c.38.09.74.22 1.09.39-.35-.18-.72-.31-1.09-.39zm-2.15-9.17c-.71.77-1.42 1.53-2.13 2.3v.01-.01l2.13-2.3zm-72.86-16.02c-1.46 3.79-2.91 7.57-4.37 11.36-.46.52-.93 1.04-1.39 1.56l1.39-1.56c1.46-3.78 2.91-7.57 4.37-11.36zm-17.15-.07c-.14.11-.27.23-.42.33l-.01.01c.54-4.68.23-8.42-5.42-8.64 5.62.22 5.95 3.92 5.85 8.3zm-6.54-60.44a4.164 4.164 0 01-2.01 3.23c-.12.73-.21 1.47-.26 2.2.05-.74.13-1.47.26-2.2 1.16-.69 1.9-1.89 2.01-3.23zm-1.2 8.57c-.99-.25-1.98-.51-2.97-.76-.01.11-.01.23-.02.34.01-.11.01-.23.02-.34.99.25 1.98.52 2.97.76zm-5.28 5.18a4.388 4.388 0 01-1.94 3.29c-2.16 4.56-4.31 9.12-6.47 13.69l-2.19 2.25 2.19-2.25c2.16-4.56 4.32-9.13 6.47-13.69a4.418 4.418 0 001.94-3.29zm-12.74 16.91zm-1.69 2.25c.01-.03.01-.06.02-.09-.01.03-.01.07-.02.09zm-13.29-22.82l-.06.06.06-.06.14-.41-.14.41zm-4.3 6.89c.04-.74.06-1.48.07-2.23 0 .74-.03 1.49-.07 2.23zm-21.82 1.55zm-25.34 37.41l2.13-2.34.15 2.38-.15-2.38-2.13 2.34c0 1.5 0 2.99-.01 4.49 0-1.5 0-2.99.01-4.49zm-1.06 12.82zm-1.06-8.26l-.06-.07.06.07zm-30.01 84.78a29.54 29.54 0 003.66-6.11c-.98 2.18-2.2 4.23-3.66 6.11zm-61.8 55.69c-.74-.42-1.58-.62-2.43-.58-2.32 2.79-4.56 5.66-6.98 8.34 2.42-2.69 4.66-5.55 6.98-8.34.84-.04 1.68.16 2.43.58zm-203.98 244.48c.7-.73 1.4-1.47 2.09-2.21l-2.09 2.21zm-65.66 146.14zm-80.09 2.82c.64 2.14 1.29 4.27 1.92 6.37-.63-2.11-1.28-4.24-1.92-6.37zm-23.58 9.14c.26-1.08.41-2.18.46-3.29-.04 1.11-.2 2.21-.46 3.29zm-52.84 23.89zm-12.74 29.53c.64-.45 1.32-.84 2.03-1.18-.7.34-1.38.73-2.03 1.18zm-.88 47.4l1.23-.33-1.23.33zm-34.74 107.75zm304.84-87.1zm21.43-11.46l-.72.75.72-.75zm0 0zm4.29-2.29zm-7.5 4.57c-.35.01-.71.01-1.06.02-.72.76-1.44 1.51-2.17 2.27.72-.75 1.44-1.51 2.17-2.27.35-.01.7-.02 1.06-.02zm63.22-48.12l.02.03-.02-.03zm4.28-2.31l.02.03-.02-.03zm90.01-66.44a3.712 3.712 0 010 0zm1.18-5.93c.46.33.81.8 1 1.33.91.53 1.89.95 2.78 1.5-.89-.55-1.87-.97-2.78-1.5-.19-.54-.54-1.01-1-1.33zm160.3-154.6c-.05-.24-.04-.49.02-.73-.07.23-.07.48-.02.73zm.03-.8zm5.19-3.67c.05.01.09.09.1.19-.01-.06-.07-.12-.1-.19zm36.96-43.49zm2.13-4.6l.03 2.3-.03-2.3zm61.64-165.01c.18.01.36.01.53.03.5-.16 1.01-.36 1.49-.5-.48.14-.99.34-1.49.5-.17-.01-.36-.01-.53-.03zm3.91-.42zm13.78-13.28l2.12-2.31-2.12 2.31zm22.61-118.12zm-2.06-.93zm-20.55 4.49c-.05 1.55-.01 3.11-.04 4.66.03-1.55 0-3.11.04-4.66.35-.01.7-.01 1.05-.02-.34.01-.7.01-1.05.02zm-10.76-11.49c-.71 0-1.41.01-2.12.02 0 1.01-.01 2.03-.01 3.04 0-1.01 0-2.03.01-3.04.71-.01 1.41-.01 2.12-.02.65-.17 1.27-.55 1.92-.77-.65.22-1.27.6-1.92.77zm-19.32-73.31c-.35.4-.84.76-1.15 1.19.31-.42.8-.78 1.15-1.19.32-1.04.57-2.11.86-3.17-.29 1.06-.54 2.14-.86 3.17zm-23.38 21.59c.03-.15.08-.29.12-.44-.04.14-.09.28-.12.44zm-21.61 17.35c3.08-1.81 5.68-4.32 7.59-7.33a22.64 22.64 0 01-7.59 7.33zm-4.26-11.5l-.05.06c-.69.74-1.39 1.48-2.08 2.22-.73 1.54-1.45 3.08-2.18 4.61l-2.05 2.35 2.05-2.35c.73-1.54 1.46-3.08 2.18-4.61.69-.74 1.39-1.48 2.08-2.22l.05-.06c.7-.74 1.39-1.49 2.09-2.23-.69.74-1.39 1.48-2.09 2.23zm-21.4-4.56c-.16-2.11-.22-2.9-.71-2.93.49.03.55.82.71 2.93l2.11 2.32-2.11-2.32zm-6.46-4.54c0 .76-.01 1.52-.01 2.28 0-.76.01-1.52.01-2.28zm-2.1-32.11c.62-.36 1.12-.89 1.44-1.53-.32.64-.83 1.17-1.44 1.53zm-13.05 15.94c.3-4.28 2.39-7.43 4.7-10.44-2.32 3.01-4.41 6.16-4.7 10.44zm.06 0l-1.88 2.43-.85 1.34.84-1.34 1.89-2.43zm-11.33 17.77c-.43 1.01-.92 2-1.47 2.96 0 1.52 0 3.04-.01 4.57l.34.36-.34-.36-1.63 1.84 1.63-1.84c0-1.52 0-3.05.01-4.57.55-.96 1.04-1.95 1.47-2.96.44-1.01.86-2.04 1.32-3.05-.46 1-.88 2.03-1.32 3.05zm-5.75-22.28l-4.13-2.06-.23-.28c-.96.24-2.18.98-3.02.73.84.24 2.06-.49 3.02-.73l.23.28c1.37.69 2.75 1.37 4.13 2.06.59-1.5 1.59-2.8 2.89-3.75-1.3.95-2.31 2.25-2.89 3.75zm-29.45 2.81c-.24-.15-.46-.34-.64-.57.18.22.39.41.63.56l.01.01zm-22.03 40.74c-.7.03-1.39.04-2.09.03l.12-6.78c-.04 2.26-.08 4.52-.13 6.78.71 0 1.41 0 2.1-.03l6.48-16.01-6.48 16.01zm4.37-32.03c-.02 1.51-.05 3.02-.07 4.53l-2 .06 2-.06c.02-1.51.05-3.02.07-4.53-.75-.77-1.57-1.47-2.44-2.09.87.63 1.69 1.33 2.44 2.09zm-8.59-27.51l-.01.01.01-.01 2.1-2.32c-.7.77-1.4 1.55-2.1 2.32zm-12.89 103.09zm-80.89 75.34c-.17.09-.37.19-.52.27.14-.08.35-.18.52-.27zm-49.84 98.82c-1.42.71-2.62 1.8-3.45 3.16a8.414 8.414 0 013.45-3.16c2.14-3.06 4.28-6.11 6.43-9.17-2.15 3.05-4.3 6.11-6.43 9.17zm-160.74 277.25zm-6.81 2.65c.63-.53 1.32-.98 2.05-1.35-.74.37-1.43.82-2.05 1.35zm-48.92 50.08c-1.87.18-2.7-1.17-3.5-2.55.8 1.38 1.63 2.73 3.5 2.55zm-120.51 12.75c-1.52.76-2.83 1.86-3.85 3.22a21.69 21.69 0 010 0c1.01-1.36 2.33-2.46 3.85-3.22zm-42.38 17.04l-1.07-.02 1.07.02zm-21.45 2.25l-2.17.04 2.17-.04c1.73 0 3.45-.02 5.18-.03-1.73 0-3.45.03-5.18.03zm6.43 32.08a7.83 7.83 0 012.08-3.12c-.94.85-1.65 1.92-2.08 3.12-1.37.42-2.77.75-4.15 1.14 1.38-.39 2.78-.73 4.15-1.14zm-6.42 15.99c-.25-.17-.49-.35-.74-.52.25.17.5.35.74.52l.06.03c1.62 2.32 3.45 3.4 5.59 2.77-2.15.62-3.97-.45-5.6-2.77l-.05-.03zm-32.76 117.02zm-22.97 6.78zm94.35 13.82c1.05-.07 2.13-.04 3.2-.07-1.06.03-2.14 0-3.2.07-1.04 1.76-2.96 2.56-4.48 3.79 1.52-1.23 3.43-2.03 4.48-3.79zm143.57-25.27c.36 0 .71-.01 1.07-.01-.36.01-.71.01-1.07.01-.44.58-.96 1.08-1.56 1.49.6-.4 1.12-.91 1.56-1.49zm139.3-87.09c.72-.75 1.45-1.5 2.17-2.25 1.57-.34 3.11-.82 4.6-1.42 1.48-.6 2.93-1.29 4.33-2.05 1.41-.76 2.79-1.58 4.17-2.43-1.37.84-2.76 1.67-4.17 2.43-1.4.77-2.85 1.45-4.33 2.05-1.49.6-3.03 1.08-4.6 1.42-.72.75-1.45 1.5-2.17 2.25-.71.02-1.41.03-2.11.04.7 0 1.4-.02 2.11-.04zm92.17-64.15c.56-.01 1.12-.01 1.67-.01-.56.01-1.12 0-1.67.01zm21.32-32.18c-.43.04-.86.08-1.29.13.43-.05.86-.1 1.29-.13 1.3-2.65 3.34-4.88 5.87-6.4a15.305 15.305 0 00-5.87 6.4zm130.86-68.63l-2.14 2.29 2.14-2.29zm2.15-2.29c-.4-.35-.78-.76-1.17-1.13.39.37.77.78 1.17 1.13zm53.58-96.25c-.21 3.98-2.06 6.52-5.86 6.77 3.24-.21 5.05-2.12 5.32-6.8.15-.06.31-.09.45-.16.22-.11.16-.93.03-1.89a4.774 4.774 0 004.34 2.08h-4.28zm147.73-239.14a5.136 5.136 0 01-1.96 3.13l-.04 2.29c.01-.77.03-1.53.04-2.29a5.108 5.108 0 001.96-3.13zm4.41-38.15l1.07.02-1.07-.02zm-8.51-42.73c.01-.25.01-.51.02-.76-.01.25-.02.51-.02.76zm-8.59-42.01c.73-1.4 1.32-2.88 1.74-4.41-.42 1.53-1 3.01-1.74 4.41zm-12.87-16.03h.01c-1.76-3.57-2.91-7.02 1.65-9.65-4.55 2.63-3.41 6.07-1.65 9.65 0 3.81.01 7.62.02 11.45l-.03-11.45zm-25.7-20.62c-.41-.22-.77-.52-1.07-.87.3.35.66.64 1.07.87zm-19.3 4.56c.03 1.69.05 3.39.07 5.08-.02-1.7-.04-3.39-.07-5.08.88-2.47 1.73-4.96 2.58-7.44-.85 2.48-1.7 4.97-2.58 7.44zm-4.28-36.65l-.01-.01.01.01zm-4.39 11.62c.2-2.32.07-4.68.08-7.03-.01 2.34.12 4.71-.08 7.03zm-25.64 12.42c.71-.38 1.43-.76 2.14-1.14-.01-.18-.02-.36-.04-.55.01.18.02.37.04.55l-2.14 1.14zm-12.87-8a6.953 6.953 0 00-2.2 5.48c-.02.99.06 2 .11 3-.05-1.01-.13-2.02-.11-3-.12-2.06.69-4.07 2.2-5.48zm-12.86-11.43c.08-2.62.99-5.14 2.6-7.2a12.344 12.344 0 00-2.6 7.2zm-6.42-22.95c-.71 0-1.43.01-2.14.01.71 0 1.43-.01 2.14-.01zm-27.95 9.12c1.65-3.15 3.19-6.39 4.89-9.51-1.7 3.12-3.24 6.35-4.89 9.51zm1.05-23.07c1.18-2.95 2.26-5.95 3.35-8.95-1.09 3-2.17 6.01-3.35 8.95zm-22.24 3.85a5.007 5.007 0 010 0zm-25.92 49.04l.01-.01-.01.01zm-2.16-50.44c-2.85 3.05-4.38 7.52-8.54 9.16 4.17-1.64 5.69-6.11 8.54-9.16zm-21.07 42.34c-.24-4.18-.28-8.38-.4-12.57.12 4.19.16 8.38.4 12.57zm6.06 8.04c.24-2.15.26-4.39.6-6.51-.35 2.12-.37 4.36-.6 6.51zm-2.09 11.52c-.71 2.06-1.28 4.17-1.72 6.3.44-2.13 1.02-4.24 1.72-6.3-.84-.18-1.68-.39-2.51-.59.84.2 1.67.42 2.51.59zm-2.37 15.76a29.223 29.223 0 010 0zm-6.2 20.91a26.395 26.395 0 010 0c.32-1.04.6-2.1.91-3.15-.3 1.05-.59 2.11-.91 3.15zm-38.58 29.79c-1.29.65-2.46 1.52-3.45 2.58.98-1.06 2.15-1.93 3.45-2.58 1.23-1.74 2.45-3.48 3.68-5.22-1.23 1.74-2.46 3.48-3.68 5.22zm-21.44 22.9c-1.28 1.55-2.5 3.18-3.76 4.76 1.26-1.58 2.48-3.21 3.76-4.76zm-15.04 13.73c.02.79.05 1.58.07 2.37-.03-.8-.05-1.59-.07-2.37zm-12.8 16.1c-1-.24-2.01-.64-3.01-.8 1.01.16 2.01.56 3.01.8zm-.01 4.56v-1.52 1.52h-2.14 2.14zm-15.22 38.8c.37.66.89 1.21 1.53 1.62-.64-.4-1.17-.96-1.53-1.62-4.42 2.46-4.63 8.1-8.96 11.04 4.32-2.93 4.54-8.57 8.96-11.04.81-2.22 1.63-4.44 2.45-6.66-.82 2.23-1.64 4.45-2.45 6.66zm2.4-18.17c-.29 2.88-1.85 5.77-1.31 8.65-.54-2.88 1.01-5.77 1.31-8.65.67-.77 1.34-1.53 2.01-2.3l-2.01 2.3zm-4.09-1.45zm-64.55 90.79c-.04-.47-.03-.94.04-1.41-.07.46-.09.94-.04 1.41-2.22 1.32-4.13 3.1-5.58 5.24 1.45-2.14 3.35-3.93 5.58-5.24zm-53.58 55.01l-2.14 2.29 2.14-2.29zm-182.18 245.19l-.01-.01.01.01zm-19.18-1.18a9.061 9.061 0 004.16-3.48c-1 1.56-2.45 2.78-4.16 3.48zm-60.12 40.13zm-66.38 20.53c-.87.06-1.75.12-2.62.19l2.62-.19zm8.53 9.12l-2.12-2.19 2.12 2.19.01.07h.52-.52l-.01-.07zm4.25 2.45c.21 1.55.53 2.94 1.49 3.52.45.25.98.34 1.49.26-.51.09-1.04 0-1.49-.26-.96-.58-1.28-1.97-1.49-3.52-.48-.53-.97-1.06-1.45-1.59.49.53.97 1.06 1.45 1.59zm-4.41 89.47c.05.7.07 1.4.07 2.1-1.26-.06-2.5.37-3.47 1.18a4.99 4.99 0 013.47-1.18c0-.7-.02-1.4-.07-2.1l.07-.09-1.65.03 1.65-.03-.07.09zm-13.88-2.54zm-4.36 39.18c-.95.54-1.98.94-3.05 1.18a3.49 3.49 0 01-3.33-.96c.86.88 2.13 1.25 3.33.96 1.07-.25 2.1-.65 3.05-1.18zm-6.69-.15zm70.03 50.41c4.21-.14 8.43.09 12.64.1-4.21-.01-8.43-.24-12.64-.1zm98.62-2.28c-.35.01-.69.02-1.04.02.34 0 .69 0 1.04-.02zm286.28-181c.56 0 1.11-.01 1.66-.04-.55.04-1.1.04-1.66.04zm129.57-80.19c-3.68 3.05-7.2 6.3-10.54 9.73 3.34-3.42 6.86-6.67 10.54-9.73zm85.73-80.2c-1.68 1.38-3.36 2.74-5.03 4.14 1.67-1.39 3.36-2.76 5.03-4.14zm143.62-382.64c-.76.27-1.53.49-2.31.67.78-.18 1.55-.41 2.31-.67zm-10.73 2.26v-9.15c.35-.3.67-.64.95-1.01-.28.37-.59.71-.95 1.01v9.15zm-19.33-64.13l.08-.04-.08.04zm-4.26-6.89c-.74.4-1.1.79-1.09 1.17-.01-.38.35-.77 1.09-1.17l.28-.27-.28.27zm0 5.29zm-53.32-56.08c1 1.82 2.98 2.88 5.06 2.71-2.07.17-4.05-.89-5.06-2.71zm-3.46 16.82a8.027 8.027 0 000 0zm-108.23-7.27l-.08-.07c-.69.04-1.37.07-2.05.1.69-.03 1.37-.06 2.05-.1.02-1.89.05-3.77.07-5.66-.02 1.89-.05 3.77-.07 5.66l.08.07zm-39.27-3.38c-.75 1.81-1.25 3.71-1.49 5.65-.71 0-1.43.01-2.14.01.71 0 1.43 0 2.14-.01.25-1.94.75-3.84 1.49-5.65.48-1.19 1.03-2.35 1.6-3.49-.57 1.15-1.12 2.3-1.6 3.49zm-3.66 5.65c-.23.28-.54.54-.81.81.27-.27.59-.53.81-.81zm-44.93 96.24a7.1 7.1 0 00-1.23.7c.39-.27.8-.5 1.23-.7zm-30.12 52.71c2.77-4.82 5.44-9.71 8.37-14.42-2.93 4.71-5.6 9.6-8.37 14.42zm-6.66-2.21c-.28-.91-.86-1.69-1.66-2.2.79.51 1.38 1.29 1.66 2.2zm2.38 9.03c-2.73 1.79-5 4.19-6.64 7.01 1.64-2.81 3.91-5.21 6.64-7.01zm-23.56 36.73c.01-.77.03-1.54.04-2.3-.01.76-.02 1.53-.04 2.3zm-27.75 40.19c-.74-.46-1.46-1.63-2.24-3.56.77 1.92 1.49 3.1 2.24 3.56zm-16.59 20.31a3.321 3.321 0 000 0zm-14.56-6.57zm-7.49 30.86l-.12-.14.12.14zm-186.51 139.74zm.32-6.58l-.05-.05.05.05zm-.38-.35l.28.26-.28-.26zm.06 6.92zm33.95 81.93zm-1.82 39.53a10.758 10.758 0 010 0c-.46-.08-.94-.12-1.41-.1.48-.02.95.01 1.41.1zm-46.12 13.7c.25-.08.49-.21.73-.32-.24.13-.48.23-.73.32zm-43.35 18.45c-.87-.06-1.77 0-2.64-.04.86.04 1.77-.02 2.64.04zm-142.02 73.8l-.04-.47c-.67-.16-1.51-.09-1.99-.5.48.41 1.32.35 1.99.5.02.14.03.3.04.47zm-24.41 44.27c-.05-.05-.11-.08-.17-.13.06.04.11.07.17.13zm-.77-.61c-.74-.46-1.6-.7-2.47-.68.87-.02 1.73.21 2.47.68zm25.21 45.11c-3.36.12-6.83-.21-9.93.85 3.1-1.06 6.57-.74 9.93-.85zm-19.14 46.02l-.3-.32.3.32zm-12.98 18.21c-.67.17-1.36.27-2.04.42.68-.15 1.37-.26 2.04-.42zm-11.84 27.46c-.89 0-1.77.01-2.66.02.89 0 1.78-.01 2.66-.02zm-5.31.02l-4.34.11c2.25 2.34 4.87 2.38 7.51 2.21-2.64.16-5.26.13-7.51-2.21-1.78-.24-4.24.53-5.73-.07 1.49.6 3.96-.17 5.73.07l4.34-.11zm-21.34-9.11l-3.89-.06 3.89.06zm2.97 3.74zm182.52 12.07c1.27-.24 2.38-1 3.07-2.09.7.01 1.41.01 2.11-.01v-2.3c.47 0 .95-.01 1.42-.01-.47.01-.95.01-1.42.01v2.3c-.7.02-1.41.02-2.11.01a4.66 4.66 0 01-3.07 2.09zm100.76-16.87c.05.05.1.08.15.13-.05-.05-.1-.08-.15-.13zm519.58-427.48c-.02.19-.01.39-.01.59.01-.2 0-.41.01-.59 2.07-2.58 4.17-5.13 6.19-7.74-2.02 2.61-4.12 5.16-6.19 7.74zm17.07-22.96c-.69.02-1.38.03-2.08.04.7 0 1.39-.02 2.08-.04.41-1 .96-1.93 1.63-2.77-.67.85-1.22 1.78-1.63 2.77zm28.59-59.7zm25-70.78a4.432 4.432 0 010 0zm2.27-4.76l-.09-6.7c-1.1-2.47-1.84-5.11-4.24-5.98 2.4.87 3.14 3.5 4.25 5.98.02 2.23.05 4.47.08 6.7.89.68 1.52 1.64 1.77 2.73a4.92 4.92 0 00-1.77-2.73zm1.93 3.53c.08.55.12 1.1.13 1.66-.01-.56-.06-1.11-.13-1.66zm.03-136.19c-.2.89-.44 1.05-.65.37.19-.14.41-.27.65-.37zm-34.96-12.34a8.359 8.359 0 000 0zm-3.19-33.84zm1.02.3zm-5.61-9.27l-.02-.02c-.7-1.48-1.39-2.96-2.08-4.44.69 1.48 1.39 2.96 2.08 4.44l.02.02zm-14.15-38.84c-1.93 5.11-3.6 10.33-5.38 15.51l-4.04-2.18c-1.38-3-2.6-6.11-4.2-8.97-1.28-2.29-.96-4.02.34-6.13.91-1.48 1.15-3.43 1.69-5.17a5.433 5.433 0 002.3-4.43l6.26-.18c4.13 2.92 4.84 6.77 3.03 11.55zm6.12-3.74c.69-.85.29-2.99 1.73-3.26.67-.24 1.36-.69 2.03-.92-.67.23-1.36.68-2.03.92-1.45.27-1.04 2.42-1.73 3.26zm5.98-23.97c-1.22.93-2.36 2.04-3.62 2.9 1.26-.86 2.4-1.97 3.62-2.9zm-21.5 11.61l-.15-.11.15.11zm-2.26-2.17c-1.73-.12-3.35.09-4.39 1.85-.33.1-.66.21-.99.31.33-.1.66-.21.99-.31 1.04-1.75 2.66-1.96 4.39-1.85zm-21.23 11.39c-1.41-1.58-2.83-3.15-4.24-4.72l4.24 4.72zm-10.97-22.8c-.04.21-.11.4-.22.58-.1.14-.4.11-.61.16l.83-.74zm-6.38-3.63c-.02.37 0 .74.06 1.1l.03.04-.03-.04c-.06-.36-.08-.73-.06-1.1zm-2.09 33.2h2.2-2.2zm-6.6-24.33c.09.46.16.93.19 1.4l2.11.04-2.11-.04-.01.02-.71.76.71-.76.01-.02c-.03-.47-.1-.94-.19-1.4-.07-.39-.22-.77-.44-1.1.21.34.36.71.44 1.1zm-.82-1.45c-.35-.2-.76-.27-1.15-.17.39-.1.8-.04 1.15.17zm-35.52-24.71c.04-.39.05-.78.07-1.17-.02.39-.03.78-.07 1.17-4.1.57-6.52 3.28-8.73 6.34 2.21-3.07 4.64-5.78 8.73-6.34zm-14.43 15.58a12.06 12.06 0 01-4.8 5.03l-4.4 6.74 4.4-6.74c.24-1.46.59-2.89 1.04-4.3-.45 1.41-.79 2.84-1.04 4.3a12.06 12.06 0 004.8-5.03zm-47.67 28.01c-.09-1.55.05-3.11.41-4.62-.36 1.51-.49 3.07-.41 4.62a4.33 4.33 0 00-1.73 2.24c.3-.93.91-1.71 1.73-2.24zm-61.18 53.26c-.34-.16-.9-.64-1.3-.89.4.25.96.73 1.3.89zm-18.76 35.69c.84-1.73 1.7-3.45 2.6-5.15-.9 1.7-1.75 3.43-2.6 5.15zm-25.12 41.55l.09 2.49-.09-2.49c-4.89 6.52-11.45 11.84-12.92 20.79-1.1.7-1.82 1.86-1.94 3.16.13-1.3.84-2.46 1.94-3.16 1.47-8.94 8.03-14.27 12.92-20.79zm-25.62 25.36l-2.21-.02c.74.01 1.48.02 2.21.02zm-2.32-1.45c-.12-.74-.42-1.44-.86-2.05.44.61.73 1.31.86 2.05zm-1.09-2.4c-.13-.12-.27-.22-.41-.32.15.1.29.2.41.32zm-7.36 38.17c1.12-2.08 1.85-4.48 3.18-6.4-1.33 1.92-2.05 4.32-3.18 6.4-.78.44-1.38 1.14-1.69 1.98.32-.83.92-1.53 1.69-1.98zm-45.06 59.55c.2-3.24 1.73-5.89 3.1-8.62-1.36 2.73-2.9 5.39-3.1 8.62l-4.22 2.34c-.03.74-.06 1.48-.07 2.22-.7.78-1.39 1.56-2.09 2.34l2.09-2.34c.02-.74.05-1.48.07-2.22l4.22-2.34zm-10.64-2.22zm-27.89 38.94c-.67.74-1.39 1.45-2.14 2.12.76-.66 1.47-1.37 2.14-2.12-.5-.24-.99-.46-1.49-.64.51.19 1 .41 1.49.64zm-49.21 22.94c1.26.05 2.49-.4 3.42-1.25-.93.86-2.16 1.31-3.42 1.25-4.94 3.13-10.08 5.95-14.74 9.55 4.66-3.6 9.8-6.41 14.74-9.55zm-32.22 27.58c2.67-.85 5.34-1.66 7.99-2.57-2.65.91-5.33 1.72-7.99 2.57zm-4.31 4.44l-2.22 4.47 2.22-4.47zm-46.81 30.26l-2.22-2.49 10.56-4.58c4.16-3.5 9.48-5.34 14.91-5.15 1.51-2.03 2.91-2.18 4.18.26.31-.17.6-.38.86-.62-.26.24-.55.44-.86.62l-3.75 2.93-4.61 4.31c-3.7 2.35-7.24.1-10.83-.45-.03.73-.1 1.46-.2 2.19-.65.05-1.28.21-1.88.47-.85.59-1.7 1.18-2.55 1.78-1.2.24-2.4.49-3.59.73l-13.2 11.01c4.38-3.67 8.78-7.34 13.18-11.01zm-40.96 41.27c.99-.23 1.66.69 1.96 1.74-.68.05-1.36.13-2.04.22-.7-.69-1.55-1.57.08-1.96zm-33.22 51.35c-.19-.17-.36-.36-.51-.57.15.21.32.41.51.57zm49.32 40.56c.15.29.35.55.58.78-.23-.23-.42-.5-.58-.78zm.78 1.04zm17.33-4.03c-1.37.85-2.74 1.68-4.12 2.52 1.38-.84 2.76-1.67 4.12-2.52zm-14.75 36.15zm4.03 7.4c1.7-.21 3.36-.67 4.93-1.38-1.56.7-3.23 1.16-4.93 1.38-3.17 2.6-6.59 4.89-10.22 6.81 3.63-1.93 7.05-4.21 10.22-6.81zm-12.4-6.56zm-.06.07c-.5.49-1.04.92-1.63 1.3.59-.37 1.13-.81 1.63-1.3zm-49.72 22.51zm-42.84 20.63c.89-.03 1.79.02 2.66-.05.57-.04 1.13-.16 1.67-.36-.53.21-1.1.33-1.67.36-.87.07-1.78.02-2.66.05zm-21.45 6.9l.83-.03-.83.03zm-43.12 13.92c-1.53 2.42-2.85 1.93-4.05-.32 1.35.11 2.7.21 4.05.32zm-4.02-2.37c-.02.69-.03 1.37-.03 2.05l.03-2.05zm-1.08 12.41a4.494 4.494 0 000 0zm-24.6 6.04a5.671 5.671 0 01-3.49-1.34c.98.83 2.21 1.31 3.49 1.34zm-33.57 12.9c-1.65-.72-3.37-1.69-5.1-1.67 1.73-.02 3.45.94 5.1 1.67zm-8.85 12.91zm-13.75 12.87c-2.77.12-5.55.09-8.32.13 2.77-.04 5.55-.02 8.32-.13zm.07 27.1c-2.62 1.04-5.64-.02-8.36.5 2.72-.53 5.74.53 8.36-.5zm6.86 7.27c-.3 0-.6.03-.89.07.29-.05.59-.07.89-.07zm24.15 10.2zm.02-.77c-.04-.38-.12-.75-.24-1.11.11.36.19.73.24 1.11zm-2.75 6.39c2.08.49 4.55-.21 5.96 2.26-2.61.99-5.23 1.99-7.84 2.98-1.1 1-2.5 1.6-3.98 1.72 1.48-.11 2.88-.72 3.98-1.72-1.61-.6-3.48-.68-4.42-2.58l1.96-2.32 4.34-.34zm-5.13-2.92c.27.49.46 1.02.54 1.57-.08-.56-.27-1.09-.54-1.57zm-3.27 10.35c6.22 3.15 12.39 3 18.53.75-6.14 2.24-12.31 2.39-18.53-.75l-1.87-.28c.63.08 1.25.18 1.87.28zm-45.76 22.6zm13.43 7.04l.7.7-.7-.7zm32.24 4.63l-.09-.1.09.1zm-9.28 25.62zm-21.65-.44c-.35-.07-.71-.06-1.06.02.35-.09.71-.1 1.06-.02zm-1.6.17c-1.28.44-2.61 1.36-3.89 1.25 1.28.11 2.62-.81 3.89-1.25zm-5.58 13.62c3.52-.67 3.97-5.32 7-6.2 3.28-.95 6.76-1.11 10.12-1.75.56-.11 1-.94 1.5-1.44 1.76-.06 3.35-.47 4.29-2.29l4.29-.09c1.43.01 2.85.03 4.28.05-.7-1.14-1.41-1.71-2.12-1.72.71.01 1.42.58 2.12 1.72l4.21.08.01 1.09-.07 1.09c-.67.01-1.34.03-2.01.08.01.79.03 1.58.04 2.38-.01-.79-.03-1.58-.04-2.38-2.27 1.32-4.95 1.98-6.44 4.55l-6.35 2.46c-2.15-.02-4.3-.04-6.45-.05l-2.21 2.17v-.01c-1.76.05-3.35.47-4.29 2.27l-.01.01c-1.76.05-3.34.49-4.27 2.3h-.02c-.69-.02-1.38-.02-2.08-.05-1.39-.07-2.81-.24-3.23-1.97-.23-1.01.4-2.02 1.41-2.25.11-.04.22-.05.32-.05zm-9.18 20.45c6.72.29 13.44-.76 19.75-3.1a50.92 50.92 0 01-19.75 3.1 4.225 4.225 0 01-2.99 2.16 4.253 4.253 0 002.99-2.16zm-81.32 20.48l.26-.1-.26.1z"/><path id="Path_1219" class="st0" d="M1305.86 1424.58l-.03.03h.03c.01-.01.02-.02.02-.03h-.02z"/><path id="Path_1220" class="st0" d="M1081.58 1550.94c.28-.05.4-.26.25-.51-.14-.17-.31-.32-.49-.44l-.02.02c.01.23.04.45.07.67.02.1.14.27.19.26z"/><path id="Path_1221" class="st0" d="M2030.81 876.89c.02.28.05.57.07.85.35-.15.56-.5.53-.88.14-.22.2-.48.19-.74l-.79.77z"/><path id="Path_1222" class="st0" d="M2025.24 847.27c.1-.05.2-.11.29-.19-.09.07-.19.14-.29.19-.24 1.02-.48 2.04-.72 3.05l.72.7.79-.83c.87-2.22 1.73-4.43 2.6-6.64l1.39-1.84c-.02-.8.21-1.68-.65-2.24l-1.6 2.3c.01.26.01.51.01.77l-1.67 2.27-.77.83-1.48.84-.88.69-.02.02c-.07.38-.37.68-.75.76l-.03.03c0 .24-.02.48-.06.71l.95.92c.89-.63 1.01-1.97 2.17-2.34z"/><path id="Path_1223" class="st0" d="M2028.51 861.3c-.02.61-.29 1.18-.75 1.58 0 .24 0 .47-.02.71l1.45-.08c.01-.23.07-.46.17-.68.17-.3.35-.59.52-.89-.2-1.1-.2-1.1-1.37-.64z"/><path id="Path_1224" class="st0" d="M1335.91 1429.34h.02c0-.01.01-.01.02-.02l-.04.02z"/><path id="Path_1225" class="st0" d="M1257.96 1478.69c.55-.3.04-.52-.18-.74-.21.04-.41.12-.6.23.16.34.44.69.78.51z"/><path id="Path_1226" class="st0" d="M1362.28 1313.81l3.01-1.09c.57-.79.94-1.7 1.09-2.66-1.4-.21-2.08 1.61-3.44 1.27l-2.16.92c.19.75.76 1.34 1.5 1.56z"/><path id="Path_1227" class="st0" d="M1327.25 1415.47c.01 0 .03 0 .04-.01v-.03h-.04c.01.01.01.03 0 .04z"/><path id="Path_1228" class="st0" d="M1327.29 1417.75l.03.03v-.03h-.03z"/><path id="Path_1229" class="st0" d="M1365.83 1332.97l-.01.02h.02l-.01-.02z"/><path id="Path_1230" class="st0" d="M1265.27 1475.07z"/><path id="Path_1231" class="st0" d="M1265.57 1475.82c.27-.05.2-.17-.17-.32.06.11.13.33.17.32z"/><path id="Path_1232" class="st0" d="M1358.59 1323.05c.85-.01 1.76.18 2.31-.75-.84.03-1.75-.14-2.31.75z"/><path id="Path_1233" class="st0" d="M1366.3 1346.2l.74-.63c-.36.03-.66.29-.74.63z"/><path id="Path_1234" class="st0" d="M1430 1404.01l-.03-.03c-.01.02-.03.04-.04.05h.08c-.01-.02-.02-.03-.03-.05h-.01l.03.03z"/><path id="Path_1235" class="st0" d="M1402.18 1415.4z"/><path id="Path_1236" class="st0" d="M1349.11 1449.34l.78-.79-.78.08v.71z"/><path id="Path_1237" class="st0" d="M1383 1392.65h.02l.01-.01-.03.01z"/><path id="Path_1238" class="st0" d="M2000.33 1019.34l.03.79.76-.8c-.27.01-.53.01-.79.01z"/><path id="Path_1239" class="st0" d="M1427.89 1404.98c.03.31.26.44.53.27.17-.14.31-.3.43-.49-.22 0-.44.02-.66.05-.11.01-.3.12-.3.17z"/><path id="Path_1240" class="st0" d="M1415.62 1412.11c.17-.15.32-.33.44-.52-.23.02-.45.04-.67.08-.11.02-.31.14-.3.19.03.33.26.44.53.25z"/><path id="Path_1241" class="st0" d="M1417.41 1410.7l.25-.18-.28.14c-.01.02-.02.03-.03.04h.06z"/></g></svg>