<svg xmlns="http://www.w3.org/2000/svg" viewBox="0 0 88 70"><path d="M87.99 5.12c.06-9.97-7.97-18.1-17.94-18.17h-.22c-4.87.03-9.54 1.99-12.97 5.45-2.66-2.86-6.24-4.7-10.12-5.19 1.18-9.01 8.82-15.77 17.91-15.83a2.465 2.465 0 002.6-2.59 2.465 2.465 0 00-2.59-2.6c-5.99.03-11.75 2.35-16.09 6.49a18.67 18.67 0 00-5.71-10.64c-4.65-4.42-11-6.6-17.39-5.97-1.3 0-2.08 1.04-2.34 2.34-.8 6.41 1.4 12.82 5.97 17.39 1.23 1.12 2.53 2.16 3.89 3.11 1.23.7 2.8.37 3.63-.78.7-1.23.37-2.8-.78-3.63a8.113 8.113 0 01-2.86-2.34A14.677 14.677 0 0128.31-39c4.16-.09 8.18 1.5 11.16 4.41 3.37 3.37 4.93 8.05 4.41 13.49.04.29-.06.57-.26.78-.15.57-.42 1.1-.78 1.56a22.443 22.443 0 00-1.56 8.3 2.465 2.465 0 002.59 2.6c7.17 0 12.98 5.81 12.98 12.97 0 7.17-5.81 12.98-12.97 12.98-7.16 0-12.97-5.81-12.98-12.97-.03-3.7 1.59-7.21 4.41-9.6 1.06-.95 1.14-2.58.19-3.64a2.567 2.567 0 00-3.56-.25l-.78.78a18.45 18.45 0 00-12.97-5.45C8.15-13.04.01-4.91.01 5.13S8.14 23.3 18.18 23.3c2.04.06 4.07-.3 5.97-1.04 1.36-.5 2.06-2.01 1.56-3.37a2.627 2.627 0 00-3.37-1.56 13.3 13.3 0 01-4.41.78C10.75 18.16 4.9 12.4 4.84 5.24 4.78-1.93 10.54-7.79 17.7-7.85c3.89-.03 7.59 1.68 10.08 4.67a18.88 18.88 0 00-2.08 8.3c0 9.63 7.51 17.6 17.13 18.17a11.6 11.6 0 011.04 5.19c.03 7.13-5.73 12.94-12.87 12.98a12.92 12.92 0 01-12.82-10.9 2.656 2.656 0 00-3.11-2.08 2.656 2.656 0 00-2.08 3.11 18.053 18.053 0 0013.75 14.54c-.74 1.81-1.1 3.75-1.04 5.71-.06 9.96 7.97 18.1 17.94 18.16h.23c8.81-.07 16.32-6.39 17.91-15.05.29-1.43-.64-2.83-2.08-3.11-1.43-.29-2.83.64-3.11 2.08-1.12 7.05-7.74 11.86-14.79 10.75-6.3-1-10.93-6.44-10.9-12.82.07-1.77.42-3.53 1.04-5.19 9.62-.57 17.12-8.53 17.13-18.17.06-1.95-.3-3.9-1.04-5.71 8.21-1.9 14.02-9.22 14.01-17.65.02-2.9-.69-5.75-2.08-8.3 4.6-5.47 12.77-6.17 18.23-1.56s6.17 12.77 1.56 18.23a12.961 12.961 0 01-9.94 4.61c-1.5-.01-3-.27-4.41-.78-1.36-.5-2.87.2-3.37 1.56s.2 2.87 1.56 3.37c1.61.5 3.26.84 4.93 1.04a11.6 11.6 0 011.04 5.19c.07 7.1-5.63 12.91-12.72 12.98h-.25c-1.5-.01-3-.27-4.41-.78-1.36-.5-2.87.2-3.37 1.56s.2 2.87 1.56 3.37c1.91.72 3.93 1.07 5.97 1.04 9.97.06 18.1-7.97 18.17-17.94v-.22c.06-1.95-.3-3.9-1.04-5.71 8.42-1.68 14.5-9.07 14.52-17.67z" fill="#183b50"/></svg>