<svg version="1.1" id="Layer_1" xmlns="http://www.w3.org/2000/svg" x="0" y="0" viewBox="0 0 150 280" xml:space="preserve"><style>.st1{fill:#3c1053}</style><g id="_003-cloud-computing" transform="rotate(90 140.25 140.25)" opacity=".31"><path id="Path_1153" class="st1" d="M120.64 242.16v-71.74c0-2.47-2-4.48-4.47-4.48H86.39c-2.47 0-4.47 2.01-4.46 4.48 0 2.47 2 4.47 4.46 4.47h25.32v67.26c-10.41 2.47-16.84 12.93-14.37 23.35 2.47 10.43 12.9 16.87 23.31 14.4 10.41-2.47 16.84-12.93 14.37-23.35a19.374 19.374 0 00-14.38-14.39zm-4.46 29.31c-5.76 0-10.42-4.68-10.42-10.44s4.67-10.44 10.42-10.44c5.76 0 10.42 4.68 10.42 10.44-.01 5.76-4.67 10.44-10.42 10.44z"/><path id="Path_1154" class="st1" d="M168.3 242.16v-71.74c0-2.47-2-4.48-4.47-4.48h-29.78c-2.47 0-4.47 2.01-4.46 4.48 0 2.47 2 4.47 4.46 4.47h25.32v67.26c-10.41 2.47-16.84 12.93-14.37 23.35 2.47 10.43 12.9 16.87 23.31 14.4 10.41-2.47 16.84-12.93 14.37-23.35-1.7-7.13-7.26-12.7-14.38-14.39zm-4.47 29.31c-5.76 0-10.42-4.68-10.42-10.44 0-5.77 4.67-10.44 10.42-10.44 5.76 0 10.42 4.68 10.42 10.44s-4.66 10.44-10.42 10.44z"/><path id="Path_1155" class="st1" d="M244.25 211.79c-8.97.01-16.75 6.18-18.83 14.92h-9.46v-56.29c0-2.47-2-4.48-4.47-4.48H181.7c-2.47 0-4.47 2.01-4.46 4.48 0 2.47 2 4.47 4.46 4.47h25.32v56.29c0 2.47 2 4.48 4.47 4.48h13.93c2.47 10.42 12.9 16.87 23.3 14.39 10.4-2.47 16.84-12.93 14.37-23.35-2.07-8.74-9.87-14.91-18.84-14.91zm0 29.84c-5.76 0-10.42-4.68-10.42-10.44s4.67-10.44 10.42-10.44c5.76 0 10.42 4.68 10.42 10.44s-4.67 10.43-10.42 10.44z"/><path id="Path_1156" class="st1" d="M269.35 96.34a48.519 48.519 0 00-23.3-15.87c-2.31-46.74-42-82.76-88.66-80.45-27.91 1.38-53.33 16.49-67.93 40.35-20.35-6.4-42.03 4.95-48.41 25.34-.35 1.12-.65 2.25-.9 3.39-28.68 7.48-45.88 36.83-38.42 65.57 6.15 23.69 27.5 40.22 51.93 40.22h10.38v51.82h-9.46c-2.47-10.43-12.9-16.87-23.31-14.4-10.41 2.47-16.84 12.93-14.37 23.35s12.9 16.87 23.31 14.4a19.374 19.374 0 0014.37-14.4h13.93c2.47 0 4.47-2 4.47-4.47v-60.77c0-2.47-2-4.48-4.47-4.48H53.67c-24.7 0-44.72-20.06-44.72-44.81 0-21.37 15.06-39.76 35.97-43.94a4.473 4.473 0 003.56-3.81c2.15-16.28 17.06-27.72 33.31-25.57 2.71.36 5.36 1.09 7.87 2.18 2.11.92 4.58.08 5.69-1.94C115.53 11.4 161.54-1.91 198.12 18.3c23.9 13.21 38.85 38.31 39.1 65.66a4.478 4.478 0 003.46 4.32c21.12 4.92 34.27 26.06 29.36 47.22-4.13 17.82-19.98 30.43-38.24 30.44h-2.43c-2.47 0-4.47 2-4.47 4.47s2 4.48 4.46 4.48h2.44c26.62 0 48.2-21.62 48.2-48.28a48.29 48.29 0 00-10.65-30.27zM35.76 241.63c-5.76 0-10.42-4.68-10.42-10.44s4.67-10.44 10.42-10.44 10.42 4.68 10.42 10.44-4.67 10.44-10.42 10.44z"/><path id="Path_1157" class="st1" d="M217.86 88.61h.04c2.47-.02 4.45-2.05 4.43-4.52a60.254 60.254 0 00-4.13-21.44 4.47 4.47 0 00-5.79-2.54c-2.3.9-3.43 3.5-2.54 5.8a51.413 51.413 0 013.52 18.27 4.466 4.466 0 004.47 4.43z"/><path id="Path_1158" class="st1" d="M201.53 51.7a4.457 4.457 0 006.3.46 4.482 4.482 0 00.59-6.16c-11.51-14.05-28.69-22.2-46.83-22.2-2.47 0-4.47 2-4.47 4.48 0 2.47 2 4.48 4.47 4.48 15.46 0 30.12 6.95 39.94 18.94z"/></g></svg>