<svg version="1.1" id="Layer_1" xmlns="http://www.w3.org/2000/svg" x="0" y="0" viewBox="0 0 25 25" xml:space="preserve"><style>.st0{fill:#f6f6f6}</style><g id="_003-silver-medal"><path id="Path_1322" class="st0" d="M9.86 13.79c-.72.63-1.2 1.49-1.35 2.43-.02.16.08.3.24.33h.04c.14 0 .26-.1.28-.24a3.46 3.46 0 013.95-2.89 3.46 3.46 0 012.89 2.88c.02.16.17.26.33.24.16-.02.26-.17.24-.33-.34-2.2-2.41-3.7-4.61-3.36-.74.12-1.44.44-2.01.94z"/><path id="Path_1323" class="st0" d="M16.25 17.12c-.16-.02-.3.08-.33.24a3.46 3.46 0 01-6.84 0c-.02-.16-.17-.26-.33-.24-.16.02-.26.17-.24.33a4.033 4.033 0 007.97 0c.03-.16-.08-.3-.23-.33z"/><path id="Path_1324" class="st0" d="M18.18 2.74H6.82c-.44 0-.79.35-.79.79 0 .43.35.79.79.79h.25v3.31c0 .47.27.9.7 1.11l3.58 1.71c-.35.12-.59.46-.59.83v.43c-2.84.96-4.36 4.05-3.4 6.89s4.05 4.36 6.89 3.4 4.36-4.05 3.4-6.89c-.54-1.6-1.8-2.85-3.4-3.4v-.42c0-.37-.24-.71-.59-.83l3.58-1.71c.42-.2.7-.63.7-1.11V4.31h.24a.785.785 0 100-1.57zM7.64 7.62V4.31h2.49v.72a.29.29 0 00.58 0v-.72h3.59V9.5l-1.79.86-1.8-.86V6.17a.29.29 0 00-.58 0v3.05L8.01 8.21a.669.669 0 01-.37-.59zm9.72 9.22c0 2.68-2.18 4.86-4.86 4.86s-4.86-2.18-4.86-4.86 2.18-4.86 4.86-4.86 4.86 2.17 4.86 4.86zm-3.68-5.31c-.77-.17-1.58-.17-2.35 0v-.27c0-.17.14-.31.31-.31h1.74c.17 0 .31.14.31.31v.27h-.01zm3.68-3.91c0 .25-.15.48-.37.59l-2.12 1.01V4.31h2.49v3.31zm.82-3.88H6.82c-.12 0-.22-.1-.22-.22s.1-.22.22-.22h11.35c.12 0 .22.1.22.22s-.09.22-.21.22z"/></g></svg>