<svg version="1.1" id="Layer_1" xmlns="http://www.w3.org/2000/svg" x="0" y="0" viewBox="0 0 70 70" xml:space="preserve"><style>.st0{fill:#08293c}</style><g id="_004-calendar" transform="translate(0 -.5)"><path id="Path_1358" class="st0" d="M46.5 15.22a4.15 4.15 0 00-4.05-3.31c-.46.02-.81.4-.8.86.02.43.36.78.8.8a2.48 2.48 0 110 4.96c-.46.02-.81.4-.8.86.02.43.36.78.8.8 1.96 0 3.66-1.39 4.05-3.31h10.85v7.45h-44.7v-7.45h14.07c.46.02.84-.34.86-.8s-.34-.84-.8-.86h-1.56a2.48 2.48 0 114.67 1.67c-.35.99-1.29 1.65-2.34 1.65-.46-.02-.84.34-.86.8s.34.84.8.86h.06c2.29 0 4.14-1.85 4.14-4.14 0-2.29-1.85-4.14-4.14-4.14-1.97 0-3.66 1.38-4.05 3.31H11v43.86h48V15.22H46.5zm10.85 42.21h-44.7V25.98h44.69l.01 31.45z"/><path id="Path_1361" class="st0" d="M32.52 13.57a2.48 2.48 0 110 4.96.828.828 0 00-.86.8c-.02.46.34.84.8.86h.06c2.29 0 4.14-1.85 4.14-4.14 0-2.28-1.85-4.14-4.14-4.14-.46-.02-.84.34-.86.8s.34.84.8.86h.06z"/><path id="Path_1362" class="st0" d="M37.48 13.57a2.48 2.48 0 110 4.96c-.46-.02-.84.34-.86.8s.34.84.8.86h.06c2.29 0 4.14-1.85 4.14-4.14s-1.85-4.14-4.14-4.14a.828.828 0 00-.86.8c-.02.46.34.84.8.86h.06z"/></g></svg>