<svg version="1.1" id="Layer_1" xmlns="http://www.w3.org/2000/svg" x="0" y="0" viewBox="0 0 25 25" xml:space="preserve"><style>.st0{fill:#f6f6f6}</style><path id="Path_1312" class="st0" d="M12.5 3.25c-5.11 0-9.25 4.14-9.25 9.25s4.14 9.25 9.25 9.25 9.25-4.14 9.25-9.25a9.261 9.261 0 00-9.25-9.25zm0 17.88c-4.77 0-8.63-3.87-8.63-8.63s3.87-8.63 8.63-8.63 8.63 3.87 8.63 8.63c0 4.77-3.86 8.63-8.63 8.63z"/><path id="Path_1313" class="st0" d="M10.39 5.86c.17-.04.27-.21.23-.37a.307.307 0 00-.37-.23c-2.47.59-4.4 2.52-4.99 4.99-.04.17.06.33.23.37.02.01.05.01.07.01.14 0 .27-.1.3-.24a6.141 6.141 0 014.53-4.53z"/><path id="Path_1314" class="st0" d="M19.51 14.38a.302.302 0 00-.37.23c-.54 2.25-2.29 4-4.54 4.53-.17.04-.27.2-.23.37.03.14.16.24.3.24.02 0 .05 0 .07-.01 2.47-.59 4.4-2.52 4.99-4.99a.294.294 0 00-.22-.37z"/><path id="Path_1315" class="st0" d="M10.79 7.35c.17-.04.27-.2.23-.37a.302.302 0 00-.37-.23 5.207 5.207 0 00-3.9 3.9c-.04.17.06.33.23.37.02.01.05.01.07.01.14 0 .27-.1.3-.24a4.59 4.59 0 013.44-3.44z"/><path id="Path_1316" class="st0" d="M18.25 14.35c.04-.17-.06-.33-.23-.37s-.33.06-.37.23a4.59 4.59 0 01-3.44 3.44c-.17.04-.27.2-.23.37s.2.27.37.23a5.207 5.207 0 003.9-3.9z"/><path id="Path_1317" class="st0" d="M11.42 8.47a.317.317 0 00-.37-.24 3.7 3.7 0 00-2.82 2.82c-.04.17.07.33.23.37.02 0 .04.01.07.01.14 0 .27-.1.3-.24a3.102 3.102 0 012.35-2.35c.17-.04.28-.21.24-.37z"/><path id="Path_1318" class="st0" d="M16.77 13.95a.302.302 0 00-.21-.38.302.302 0 00-.38.21c0 .01-.01.03-.01.04a3.102 3.102 0 01-2.35 2.35c-.17.04-.27.2-.24.37.03.14.16.24.3.24.02 0 .04 0 .07-.01a3.7 3.7 0 002.82-2.82z"/><path id="Path_1319" class="st0" d="M14.99 12.5c0-1.38-1.11-2.49-2.49-2.49s-2.49 1.11-2.49 2.49c0 1.38 1.11 2.49 2.49 2.49 1.37 0 2.49-1.12 2.49-2.49zm-2.49 1.87c-1.04 0-1.88-.84-1.88-1.88s.84-1.88 1.88-1.88 1.88.84 1.88 1.88a1.89 1.89 0 01-1.88 1.88z"/></svg>