<svg version="1.1" id="Layer_1" xmlns="http://www.w3.org/2000/svg" x="0" y="0" viewBox="0 0 70 70" xml:space="preserve"><style>.st0{fill:#08293c}</style><g id="_002-projector" transform="translate(-7.455 -9.286)"><path id="Path_1348" class="st0" d="M69.83 20.62H50.14a4.55 4.55 0 00-4.46-3.67h-6.46a4.55 4.55 0 00-4.46 3.67H15.08a.87.87 0 00-.87.87v4.25c0 .48.39.87.87.87h2v34.45c0 .48.39.87.87.87h23.63v3.17a3.323 3.323 0 001.75 6.41 3.323 3.323 0 000-6.41v-3.17h23.63c.48 0 .87-.39.87-.87V26.61h2c.48 0 .87-.39.87-.87v-4.25a.858.858 0 00-.87-.87zM44.03 68.3c0 .87-.7 1.57-1.57 1.57-.87 0-1.57-.7-1.57-1.57 0-.87.7-1.57 1.57-1.57.86 0 1.56.7 1.57 1.57zm-4.8-49.6h6.46c1.21 0 2.27.77 2.65 1.92H36.57a2.795 2.795 0 012.66-1.92zm26.85 41.49H18.83V26.61h47.26l-.01 33.58zm2.88-35.33H15.95v-2.5h53l.01 2.5z"/><path id="Path_1349" class="st0" d="M22.42 22.74h-3.47a.87.87 0 000 1.74h3.47a.87.87 0 000-1.74z"/></g></svg>