<svg version="1.1" id="Layer_1" xmlns="http://www.w3.org/2000/svg" x="0" y="0" viewBox="0 0 70 70" xml:space="preserve"><style>.st0{fill:#08293c}</style><path id="Path_1350" class="st0" d="M29.14 45.79c-.22 0-.43-.07-.59-.21l-5.93-4.89a.862.862 0 01-.1-1.25c.03-.04.07-.07.1-.1l5.93-4.89c.39-.32.97-.27 1.29.1.33.37.28.93-.1 1.25l-5.11 4.21 5.11 4.21c.39.32.43.88.11 1.25-.18.21-.43.32-.71.32z"/><path id="Path_1351" class="st0" d="M40.86 45.79c-.51 0-.92-.4-.92-.89 0-.26.12-.51.32-.67l5.11-4.21-5.12-4.22a.862.862 0 01-.1-1.25c.33-.37.91-.42 1.29-.1l5.93 4.89c.39.32.43.88.1 1.25-.03.04-.07.07-.1.1l-5.93 4.89c-.16.13-.37.2-.58.21z"/><path id="Path_1352" class="st0" d="M32.9 49.45c-.06 0-.13-.01-.19-.02a.895.895 0 01-.71-1.05l3.7-16.99c.1-.48.59-.79 1.09-.68.5.1.81.57.71 1.05l-3.7 16.99c-.1.41-.47.7-.9.7z"/><path id="Path_1353" class="st0" d="M56.61 58.7H13.39c-3.4 0-6.15-2.67-6.16-5.95v-35.5c0-3.29 2.76-5.95 6.16-5.96h43.22c3.4 0 6.15 2.67 6.16 5.96v35.5c-.01 3.29-2.76 5.95-6.16 5.95zM13.39 13.07c-2.39 0-4.32 1.87-4.32 4.18v35.5c0 2.31 1.94 4.18 4.32 4.18h43.22c2.39 0 4.32-1.87 4.32-4.18v-35.5c0-2.31-1.94-4.18-4.32-4.18H13.39z"/><path id="Path_1354" class="st0" d="M61.85 25.5H8.15c-.51 0-.92-.4-.92-.89s.41-.89.92-.89h53.7c.51 0 .92.4.92.89s-.41.89-.92.89z"/><path id="Path_1355" class="st0" d="M22.9 21.26c-1.6 0-2.9-1.26-2.9-2.81s1.3-2.81 2.9-2.81c1.6 0 2.9 1.26 2.9 2.81s-1.3 2.8-2.9 2.81zm0-3.84c-.59 0-1.07.46-1.07 1.03s.48 1.03 1.07 1.03c.59 0 1.07-.46 1.07-1.03-.01-.57-.48-1.03-1.07-1.03z"/><path id="Path_1356" class="st0" d="M13.98 21.23c-1.6 0-2.9-1.26-2.9-2.81s1.3-2.81 2.9-2.81c1.6 0 2.9 1.26 2.9 2.81s-1.29 2.81-2.9 2.81zm0-3.84c-.59 0-1.07.46-1.07 1.03 0 .57.48 1.03 1.07 1.03.59 0 1.07-.46 1.07-1.03 0-.57-.48-1.03-1.07-1.03z"/><path id="Path_1357" class="st0" d="M31.81 21.28c-1.6 0-2.9-1.26-2.9-2.81s1.3-2.81 2.9-2.81c1.6 0 2.9 1.26 2.9 2.81 0 1.56-1.3 2.81-2.9 2.81zm0-3.84c-.59 0-1.07.46-1.07 1.03s.48 1.03 1.07 1.03c.59 0 1.07-.46 1.07-1.03 0-.56-.48-1.03-1.07-1.03z"/></svg>