<svg xmlns="http://www.w3.org/2000/svg" viewBox="0 0 25 25"><path d="M23.36 11.331a.422.422 0 00-.51.05c-.34.31-.69.59-1.04.86.07-.25.14-.49.19-.73.66-.4 1.18-1.01 1.47-1.72.31-.75.45-1.55.41-2.36a.429.429 0 00-.8-.21c-.23.4-.48.78-.74 1.15 0-.31-.02-.61-.04-.9v-.02c-.07-.97-.25-1.92-.52-2.85-.05-.18-.23-.29-.41-.24s-.29.23-.24.41c0 .01 0 .01.01.02.17.57.3 1.16.39 1.75-.33-.32-.67-.62-1.03-.89a.427.427 0 00-.68.44 8.03 8.03 0 001.82 3.43c-.02.24-.05.49-.08.75-.22-.39-.46-.76-.71-1.12a.432.432 0 00-.6-.1c-.11.08-.17.2-.18.33-.08 1.28.18 2.57.73 3.73-.09.22-.18.44-.29.67-.1-.43-.22-.85-.36-1.27a.43.43 0 00-.4-.29c-.18 0-.34.11-.4.29a7.63 7.63 0 00-.38 3.76c-.15.19-.31.37-.48.56.03-.44.04-.88.03-1.32a.433.433 0 00-.44-.42c-.13 0-.25.07-.33.17a7.813 7.813 0 00-1.48 3.49l-.09-.24a.498.498 0 00-.46-.32h-1.13c-.16-.25-.3-.52-.42-.79a.33.33 0 00-.43-.2.33.33 0 00-.2.43c.01.02.01.03.02.04.08.18.17.35.26.52H11.2c.46-.89.78-1.84.93-2.83.25.04.5.04.75 0 .04.25.09.5.15.74.05.18.23.28.41.23.17-.05.27-.22.24-.39-.06-.26-.12-.53-.16-.8.1-.05.19-.11.28-.18.34-.25.65-.54.93-.86a4.115 4.115 0 003.77-4.1v-1.14a.49.49 0 00-.49-.49h-1.87v-.17c.25-.05.43-.26.43-.52v-.8c0-.29-.24-.53-.53-.53H8.95c-.29 0-.53.24-.53.53v.8c0 .25.18.47.43.52v.18H6.99a.49.49 0 00-.49.49v1.13c0 2.14 1.64 3.93 3.77 4.1.28.32.59.61.93.86.09.07.19.13.28.18a8.343 8.343 0 01-1.06 3.05h-1.1c-.21 0-.39.13-.46.32l-.1.27-.02-.01a7.85 7.85 0 00-1.48-3.5.43.43 0 00-.6-.09c-.11.08-.17.2-.17.33-.01.44 0 .88.03 1.32-.17-.19-.33-.38-.48-.56.2-1.27.07-2.57-.38-3.77a.435.435 0 00-.55-.26c-.12.04-.22.14-.26.27-.14.42-.26.84-.36 1.27-.11-.23-.2-.45-.29-.67.56-1.16.81-2.44.73-3.73 0-.24-.2-.42-.44-.41-.13.01-.26.07-.33.18-.26.36-.49.73-.71 1.12-.04-.26-.06-.5-.08-.75a7.98 7.98 0 001.82-3.43.426.426 0 00-.31-.52.406.406 0 00-.37.07c-.36.28-.7.58-1.03.89.09-.58.22-1.17.39-1.74a.332.332 0 00-.21-.42.343.343 0 00-.43.21c0 .01 0 .01-.01.02-.27.93-.44 1.89-.52 2.85v.02c-.03.29-.04.59-.04.9-.26-.36-.51-.74-.74-1.15a.41.41 0 00-.47-.2c-.19.04-.32.2-.33.39-.04.81.1 1.61.41 2.36.29.72.81 1.33 1.47 1.73.06.24.12.48.19.73-.36-.27-.7-.55-1.04-.86a.417.417 0 00-.6.03.45.45 0 00-.1.4c.33 1.55 1.47 2.8 2.97 3.29.12.21.25.42.4.64-.42-.15-.83-.32-1.25-.51a.415.415 0 00-.57.2c-.06.13-.05.28.02.41a4.51 4.51 0 003.59 2.28c.07 0 .14 0 .21-.01.44.41.91.79 1.41 1.13.09.07.19.13.28.19l-.22.59c-.09.25.04.54.29.63.05.02.11.03.17.03h7.5a.49.49 0 00.46-.66l-.22-.61a13.68 13.68 0 001.67-1.31c.07.01.14.01.21.01 1.5-.12 2.85-.97 3.59-2.28a.427.427 0 00-.55-.61c-.41.19-.83.36-1.25.51.14-.21.27-.43.4-.64a4.426 4.426 0 002.98-3.28.4.4 0 00-.18-.47zm-1.16-.89c.01-.04.01-.09.02-.13.01-.04.01-.08.02-.12 0-.04.01-.09.02-.13 0-.04.01-.08.01-.11 0-.04.01-.09.01-.13s.01-.08.01-.11c0-.04.01-.08.01-.13 0-.02 0-.04.01-.06.31-.38.6-.77.86-1.18-.09.81-.43 1.57-.98 2.17.01-.02.01-.04.01-.07zm-6.06-.11v-1.28h1.69v.95c0 1.55-1.04 2.92-2.54 3.33a5.7 5.7 0 00.85-3zm-7.76 2.3a3.462 3.462 0 01-1.21-2.63v-.96h1.69v1.28c0 1.06.29 2.09.84 3-.49-.13-.94-.37-1.32-.69zm1.15-2.3v-2.12h.44c.18 0 .33-.15.33-.33s-.15-.33-.33-.33H9.1v-.53h6.81v.52h-4.39c-.18 0-.33.15-.33.33s.15.33.33.33h3.96v2.12c0 1.61-.77 3.13-2.07 4.09-.54.4-1.27.4-1.81 0a5.059 5.059 0 01-2.07-4.08zm-7.7-1.98c.27.41.56.8.86 1.18 0 .02 0 .04.01.06 0 .04.01.08.01.12 0 .04.01.08.01.11 0 .04.01.08.01.13 0 .04.01.08.01.11 0 .04.01.09.02.13.01.04.01.08.02.12.01.04.01.09.02.13 0 .02.01.05.01.07-.55-.59-.89-1.35-.98-2.16zm2.44 1.85a6.63 6.63 0 01-.39 1.97l-.02-.05-.03-.11-.03-.1-.03-.11-.03-.11-.03-.11-.03-.11-.03-.11-.01-.05c.2-.38.4-.75.63-1.11zm-.94-1.85v-.12-.12-.11c0-.04 0-.08.01-.11 0-.04 0-.07.01-.11 0-.04.01-.07.01-.11v-.05c.3-.33.61-.63.93-.92a7.69 7.69 0 01-.98 1.83v-.06c.01-.04.02-.08.02-.12zm-.93 4.11c.38.3.76.58 1.16.84l.02.05.05.11.04.1.05.12.05.1.05.12.05.11.06.12.03.07c-.69-.4-1.24-1.01-1.56-1.74zm2.86 1.02c.16.65.23 1.32.2 1.99l-.03-.05-.06-.09-.06-.1-.06-.09-.06-.1-.06-.09-.06-.1-.05-.09-.03-.05c.07-.42.16-.83.27-1.23zm-1.13 2.7c.45.18.89.33 1.36.47l.03.04.08.1.07.08.08.1.07.09.09.1.08.08.09.1.05.05a3.78 3.78 0 01-2-1.21zm3.78 1.96l-.09-.07-.09-.07-.09-.07-.08-.08-.09-.08-.09-.07-.08-.08-.04-.04a13.9 13.9 0 01-.11-1.27c.35.58.62 1.21.79 1.86l-.03-.03zm1.11 1.87l.42-1.15h6.14l.42 1.15H9.02zm8.71-2.42l-.04.04-.08.07-.08.08-.08.07-.09.07-.09.08-.09.07-.09.07-.04.04c.18-.65.44-1.28.8-1.86-.02.41-.06.83-.12 1.27zm2.01-4.11c.11.4.2.81.27 1.24l-.03.04-.05.09-.06.1-.06.09-.06.1-.06.09-.06.1-.06.09-.03.05c-.03-.67.04-1.34.2-1.99zm1.13 2.7a3.78 3.78 0 01-2 1.21l.05-.06.09-.09.08-.09.08-.09.08-.09.08-.09.07-.09.08-.09.04-.05c.45-.14.91-.3 1.35-.47zm-.16-9.48c.32.29.63.59.93.92v.06c0 .04 0 .07.01.11.01.04.01.07.01.11 0 .04 0 .08.01.11v.53a7.34 7.34 0 01-.96-1.84zm.03 3.51c.22.36.43.73.62 1.12l-.01.05-.03.11-.03.11-.03.11-.03.11-.03.11-.03.11-.03.11-.02.05c-.22-.65-.35-1.32-.38-1.99zm.3 4l.03-.07.06-.12.05-.1.05-.12.04-.1.05-.12.04-.1.05-.11.02-.05c.4-.26.79-.54 1.16-.84-.31.72-.86 1.32-1.55 1.73z" fill="#f6f6f6"/></svg>