<svg version="1.1" id="Layer_1" xmlns="http://www.w3.org/2000/svg" x="0" y="0" viewBox="0 0 26.2 20.84" xml:space="preserve"><style>.st0{fill-rule:evenodd;clip-rule:evenodd;fill:#f6f6f6}</style><g id="tickets" transform="translate(0 -52.34)"><path id="Path_1283" class="st0" d="M26.05 58.57c.2-.2.2-.52 0-.72l-1.5-1.5c-.2-.2-.52-.2-.72 0a1.153 1.153 0 01-1.63-1.63c.2-.2.2-.52 0-.72l-1.5-1.5c-.2-.2-.52-.2-.72 0-.45.45-1.18.45-1.62 0-.2-.2-.52-.2-.72 0l-1.29 1.29-1.14-1.14c-.2-.2-.52-.2-.72 0-.45.45-1.18.45-1.62 0-.2-.2-.52-.2-.72 0l-4.54 4.53c-.2.2-.21.52-.01.72.2.2.52.21.72.01l.01-.01 4.22-4.22c.7.42 1.57.42 2.26 0l.82.82-9.96 9.96c-.2.2-.2.52 0 .72.45.45.45 1.18 0 1.62-.2.2-.2.52 0 .72l1.5 1.5c.2.2.52.2.72 0a1.153 1.153 0 011.63 1.63l-1.33 1.33c-.7-.42-1.57-.42-2.26 0l-.87-.87c.62-1.03.3-2.36-.73-2.99-.69-.42-1.57-.42-2.26 0l-.87-.87c.42-.7.42-1.57 0-2.26l4.22-4.22c.2-.2.19-.53-.01-.72a.513.513 0 00-.71 0L.15 64.6c-.2.2-.2.52 0 .72.45.45.45 1.18 0 1.62-.2.2-.2.52 0 .72l1.5 1.5c.2.2.52.2.72 0A1.153 1.153 0 014 70.79c-.2.2-.2.52 0 .72l1.5 1.5c.2.2.52.2.72 0a1.14 1.14 0 011.62 0c.2.2.52.2.72 0l1.29-1.29L11 72.89c.2.2.52.2.72 0a1.14 1.14 0 011.62 0c.2.2.52.2.72 0l11.98-11.97c.2-.2.2-.52 0-.72-.44-.45-.44-1.18.01-1.63zm-1.04 1.94l-1.61 1.61-.51-.51c-.2-.2-.53-.19-.72.01-.19.2-.19.51 0 .71l.51.51-9 9c-.7-.42-1.57-.42-2.26 0l-.87-.87c.62-1.03.29-2.36-.73-2.99-.69-.42-1.56-.42-2.25 0l-.87-.87c.42-.7.42-1.57 0-2.26l9-9 .51.51c.2.2.52.21.72.01.2-.2.21-.52.01-.72l-.01-.01-.51-.51.28-.28 1.33-1.33c.7.42 1.57.42 2.26 0l.87.87c-.62 1.03-.3 2.36.73 2.99.69.42 1.56.42 2.26 0l.87.87c-.43.7-.43 1.57-.01 2.26z"/><path id="Path_1284" class="st0" d="M18.34 57.05c-.2-.2-.52-.21-.72-.01s-.21.52-.01.72l.01.01.88.88c.2.2.53.19.72-.01.19-.2.19-.51 0-.71l-.88-.88z"/><path id="Path_1285" class="st0" d="M20.61 59.33c-.2-.2-.53-.19-.72.01-.19.2-.19.51 0 .71l.88.88c.2.2.52.21.72.01s.21-.52.01-.72l-.01-.01-.88-.88z"/><path id="Path_1286" class="st0" d="M14.64 60.74c-.2-.2-.52-.2-.72 0l-3.78 3.78c-.2.2-.21.52-.01.72s.52.21.72.01l.01-.01 3.78-3.78c.2-.2.2-.52 0-.72z"/><path id="Path_1287" class="st0" d="M18.03 62.95l-4.73 4.72c-.2.2-.19.53.01.72.2.19.51.19.71 0l4.73-4.72c.2-.2.21-.52.01-.72s-.52-.21-.72-.01c-.01 0-.01.01-.01.01z"/><path id="Path_1288" class="st0" d="M17.83 60.71c-.2-.2-.52-.2-.72 0l-5.38 5.38c-.2.2-.21.52-.01.72s.52.21.72.01l.01-.01 5.38-5.38c.2-.2.2-.52 0-.72z"/><path id="Path_1289" class="st0" d="M6.5 59.49c.28 0 .51-.23.51-.51s-.23-.51-.51-.51-.51.23-.51.51.23.51.51.51z"/></g></svg>