<svg version="1.1" id="Layer_1" xmlns="http://www.w3.org/2000/svg" x="0" y="0" viewBox="0 0 70 70" xml:space="preserve"><style>.st0{fill:#08293c}</style><g id="_001-ticket" transform="rotate(-135 41.908 36.347)"><path id="Path_1345" class="st0" d="M73.89 16.43l-.74.74a5.265 5.265 0 01-4.5 1.76c-3.93.1-7.24-3-7.41-6.92-.01-.16-.01-.33 0-.49-.18-1.72.48-3.39 1.76-4.51l.74-.74-7.85-7.85-42.14 42.13 7.85 7.85.74-.74a5.265 5.265 0 014.5-1.76c3.93-.1 7.24 3 7.41 6.92.01.16.01.33 0 .49.17 1.71-.48 3.38-1.76 4.5l-.74.74 7.85 7.85 42.13-42.13-7.84-7.84zM34.7 58.55a7.117 7.117 0 001.65-5.21c.08-5.11-4-9.37-9.11-9.53-.14 0-.28-.01-.43 0a7.16 7.16 0 00-5.21 1.65l-4.89-4.89L41.3 15.98l3.49 3.49L46.27 18l-3.49-3.49L55.9 1.39l4.89 4.89a7.117 7.117 0 00-1.65 5.21c-.08 5.11 4 9.37 9.11 9.53.14 0 .28.01.43 0 1.9.16 3.77-.44 5.21-1.65l4.89 4.89-13.13 13.12-3.49-3.49-1.47 1.47 3.49 3.49-24.59 24.59-4.89-4.89z"/><path id="Path_1346" class="st0" d="M51.15 25.83l-4.24-4.24 1.47-1.47 4.24 4.24-1.47 1.47z"/><path id="Path_1347" class="st0" d="M58.57 33.24L54.33 29l1.47-1.47 4.24 4.24-1.47 1.47z"/></g></svg>