<svg version="1.1" id="Layer_1" xmlns="http://www.w3.org/2000/svg" x="0" y="0" viewBox="0 0 255.45 71.79" xml:space="preserve"><style>.st0{fill:#fff}</style><g id="Group_54" transform="translate(227.429 -210.223)"><path id="Path_928" class="st0" d="M28.02 258c-.51.52-.5 1.26-.84 1.86a9.783 9.783 0 01-7.65 4.87c-1.04.09-2.09.13-3.14.11-.5.08-.97-.26-1.05-.76-.01-.06-.01-.13-.01-.2-.1-1.12-.19-2.24-.33-3.36-.11-.91.32-1.19 1.15-1.12 1.27.16 2.56.09 3.81-.2a2.899 2.899 0 002.45-2.34c.16-1.2-.49-2.36-1.59-2.86-1.03-.69-2.11-1.31-3.22-1.86-5.39-2.54-4.64-9.97-.46-12.61 1.91-1.2 4.13-1.84 6.39-1.84.51-.08 1 .27 1.08.78v.01c.3 1.16.61 2.32.94 3.48.17.61-.04.86-.65.92-1.04.12-2.08.25-3.11.43-1 .05-1.86.73-2.16 1.68-.25.99.24 2.01 1.15 2.45 1.19.79 2.42 1.53 3.67 2.25a7.81 7.81 0 013.58 5.04l-.01 3.27z"/><path id="Path_929" class="st0" d="M-43.02 211.33l.05-.33c.76.6 1.69-.32 2.27.09 1.23.86 1.16.96 1.88-.3.53.63 1.18 1.16 1.91 1.54.91.45 1.06.04 1.07-.72v-1.4h.47c.36 1.15 1.89 2.34 2.63 2.01.05.67-.59 1.83.99 1.42.16-.04.19.21.17.36-.28 1.69.54.93 1.32.33-.15.94.29 1.65-.01 2.39-.19-.12-.2-.31-.23-.5.05-.28-.14-.45-.28-.65l-.07-.16-.11.15c-.27.13-.55.15-.67-.18-.34-.96-1.42-1.35-1.77-2.31-.31-.85-1.3-.89-1.86-1.45-.66 1.76-1.03 1.83-2.55.62-.35-.28-.8-.87-1.32-.04-.19.3-.77.1-.95-.1-.95-1.03-1.76-.41-2.59.13-.11-.28-.23-.59-.35-.9z"/><path id="Path_930" class="st0" d="M-11.85 239.88c2.79-1.98 6.24-2.76 9.61-2.19 2.44.42 4.64 1.7 6.2 3.61.2.23.48.58.69.56.44-.05.3-.55.38-.86.68-2.87.37-2.52 3.19-2.06 2.76.45 2.82.5 2.34 3.25-.8 5.34-.93 10.76-.38 16.13.13 1.66.2 3.33.32 4.99.06.82-.19 1.22-1.09 1.24-1.12.02-2.25.12-3.36.29-.91.14-1.29-.23-1.42-1.07-.11-.69-.25-1.37-.39-2.06-.1-.52-.36-.65-.8-.29-.42.34-.87.66-1.29 1-6.44 5.28-13.94 2.54-17.48-3.82-.23-.4-.44-.81-.67-1.22-.05-.18-.09-.37-.15-.55-2.08-5.79-.73-12.98 4.3-16.95zm8.31 3.14c-.58.02-1.15.09-1.71.22-5.57 1.59-7.5 9.35-3.42 13.84a6.881 6.881 0 0010.82-.37 9.044 9.044 0 00.31-10.54 6.726 6.726 0 00-6-3.15z"/><path id="Path_931" class="st0" d="M-115.64 253.37a23.899 23.899 0 01.56-17.06c4.26-9.84 13.39-12.54 22.21-9.78 2.45.81 4.61 2.29 6.26 4.28.68.57.79 1.58.25 2.28-.7 1.03-1.36 2.07-1.99 3.14-.56.96-1.12.85-1.8.14-.59-.61-1.21-1.21-1.85-1.77-5.71-4.87-13.8-3.08-16.68 3.84-2.04 4.66-1.91 9.99.38 14.55 2.75 5.65 9.12 7.5 14.61 4.41 1.46-.88 2.8-1.95 3.99-3.18.52-.51.86-.48 1.28.11.76 1.07 1.56 2.12 2.38 3.16.44.42.46 1.13.04 1.57l-.07.07c-1.67 2-3.77 3.6-6.14 4.68-3.28-.92-6.43-2.23-9.38-3.92-2.97-1.56-5.72-3.56-8.9-4.74-1.72-.62-3.44-1.18-5.15-1.78z"/><path id="Path_932" class="st0" d="M-11.85 239.89c-5.03 3.97-6.38 11.15-4.3 16.95.07.18.1.37.15.55-.2.38-.44.72-.73 1.04-.76.64-1.48 1.15-1.26 2.39.12.71-.63 1.15-1.36 1.1s-.89.2-.88.91c.02 1.84-.49 2.57-2.23 3.21-.36.12-.62.43-.7.79-.68 1.91-1.75 2.58-3.37 2.11a2.977 2.977 0 01-1.73-3.63c.35-.84.12-1.81-.57-2.4a4.391 4.391 0 01-.96-3.27c-.48.5-1.16.75-1.85.69l.02.02c-.07-.23-.25-.22-.43-.22l-.74-1c-.15-1.31.8-2.69-.27-3.95-.1-.22-.09-.46.02-.67.38-.7-.07-1.02-.52-1.43-1.5-1.39-2.01-3.02-1.14-4.45.59-.97.36-1.48-.43-2.01.93-1.12 1.8-2.3 2.8-3.36 1.14-1.2.91-2.61.84-4.02-.02-.4-.31-.59-.68-.69 1.26-1.03 2.7-1.82 4.24-2.33-.04-.43-.44-.54-.65-.8s-.53-.62-.39-.79c.74-.91.06-1.86.17-2.77a4.755 4.755 0 013.21-4.19c.22.05.42.06.55-.17 1.15-.1 2.31.14 3.33.68l.24-.06.56-.17.07.09.11-.04.02-.01c-.07.23.07.32.24.39l.06.07.19.21.08.34c0 .43.34.29.57.35a7.756 7.756 0 011.01 4.1c-.04.46.02.83.61.33.85-.71.79.05.85.58 2.19-1.24 4.08-.26 5.02 2.9.21.85.29 1.74.23 2.63zm-15.75 15.77c0 2.41-.01 4.81 0 7.22.01 1.49.13 1.61 1.57 1.61 1.2 0 2.41-.04 3.61.02.9.04 1.29-.27 1.23-1.2-.08-1.16-.07-2.33-.12-3.49-.26-6.6.12-13.2.42-19.79.04-.95-.26-1.29-1.18-1.13-1.46.24-2.94.26-4.4.04-1.46-.22-1.49-.13-1.46 1.37.08 5.12.79 10.22.33 15.35zm3.2-27.03a3.515 3.515 0 00-3.74 3.28v.04c-.04 2.17 1.11 3.3 3.5 3.4.5.01 1-.04 1.49-.15 1.46-.16 2.55-1.43 2.47-2.89.13-1.89-1.29-3.54-3.18-3.67-.19-.03-.36-.03-.54-.01z"/><path id="Path_933" class="st0" d="M-166.55 255.21c0 2.75-.02 5.51.01 8.26.01.72-.16.83-.84.61-3.43-1.11-3.43-1.1-3.44-4.65l-.03-10.35c.12-.92.14-1.84.07-2.76-.01-5.32-.02-10.63-.05-15.95.02-.51.27-.98.68-1.27 2.25-1.93 5.02-3.13 7.96-3.47 1.49-.25 3.01-.28 4.51-.11 2.68.25 5.05 1.83 6.32 4.2a17.58 17.58 0 01.95 16.08c-2.31 5.45-7.8 7.36-13.52 5.05-.85-.35-1.67-.77-2.59-1.2v3.12c0 .81-.02 1.62-.03 2.44zm0-16.87v5.01c0 3.68.07 3.78 3.66 4.92.07.02.14.06.22.08 4 1.17 7.13-.55 8.2-4.56.61-2.69.75-5.47.39-8.2-.1-1.47-.48-2.91-1.12-4.24-.76-1.8-2.5-2.99-4.46-3.03-2.14-.08-4.25.41-6.14 1.41-.54.24-.86.81-.78 1.4.05 2.39.02 4.81.03 7.21z"/><path id="Path_934" class="st0" d="M-137.66 262.66c-.6-1.5.61-1.24 1.37-1.42.42.06.85-.02 1.22-.23 4.46-.5 6.37-2.18 7.42-6.5v-1.2c.04-.85.05-1.71.14-2.56.09-.92-.26-.91-.96-.62a20.696 20.696 0 01-8.15 1.55 8.315 8.315 0 01-6.32-2.95 6.635 6.635 0 01-1.65-4.58c-.01-5.47.01-10.95-.02-16.42-.1-.55.27-1.07.82-1.17.86-.24 1.7-.52 2.52-.85.81-.34 1.05-.18 1.04.73-.04 5.4-.02 10.79-.01 16.19-.03.62.01 1.24.12 1.85a5.408 5.408 0 004.97 4.19c2.41.19 4.81-.43 6.83-1.76.6-.36.57-.84.57-1.39 0-6.06.03-12.11-.03-18.17-.01-1.11.33-1.42 1.36-1.29.95.12 2.2-.41 2.79.21.59.63.17 1.85.17 2.81.02 6.4.02 12.81 0 19.21 0 1.43-.06 2.87-.09 4.3-.13.38-.17.79-.13 1.2-.79 6-3.64 8.93-9.84 10-1.2.21-2.42.67-3.67.23l-.47-1.36z"/><path id="Path_935" class="st0" d="M-75.53 264.74c-10.49-4.15-10.9-17.63-4.73-23.78 4-3.99 12.47-5.22 16.94.28.21.26.43.71.77.62.4-.11.33-.62.4-.99.46-2.37.46-2.37 2.82-1.99 3.21.53 3.17.52 2.65 3.68-.41 2.25-.63 4.54-.65 6.83.01 1.23-.51 2.41-1.44 3.22-.84.61-1.66 1.24-2.51 1.83-1.12.77-1.19.68-1.59-.58-.43-1.35.06-2.78-.49-4.1-.51-3.06-2.02-5.4-5.02-6.43-4.02-1.39-8.05 1.08-9.34 5.56-1.13.02-2.23.34-3.2.91-2.51 1.36-3.58 6.11-1.04 8.1 2.11 1.61 4.71 2.44 7.36 2.37 3.56.11 7.11-.57 10.38-1.98.74-.34 1.06-.22 1.23.55.1.25.21.5.35.73.76 1.95 2.24 3.4 3.5 5-.11.05-.22.08-.33.1-3.21.19-2.77.68-3.37-2.48-.23-1.21-.33-1.26-1.32-.47a14.024 14.024 0 01-6.52 3.36c-.65.1-1.31.13-1.97.09-.95-.26-1.91-.4-2.88-.43z"/><path id="Path_936" class="st0" d="M-32.8 259.13l.74 1c.09.17.14.43.43.22l-.02-.02c.13 1.05.19 2.1.18 3.16 0 .71-.24 1.12-1 1.09-1.05-.04-2.09-.05-3.14-.11-.66-.04-1.26-.41-1.6-.99-1.43-2.12-2.9-4.21-4.37-6.3-1.01-1.44-1.02-1.44-2.05.05-.93 1.33-1.86 2.67-2.78 4.01-1.86-1.64-2.62-1.42-4.41.24-.18.19-.34.41-.48.64-.51.8-1.01 1.6-1.52 2.39-.28.01-.68 0-.68-.29.01-1.36-.54-2.79.48-4.02 1.89-2.31 3.83-4.59 5.66-6.95 1.42-1.82 1.44-1.38.04-3.19-1.78-2.3-3.61-4.57-5.51-6.77-1.13-1.31-.66-2.79-.71-4.22-.02-.47.44-.47.79-.46 1.2.04 2.4.1 3.61.13.59.05 1.11.42 1.35.95 1.52 2.29 3.08 4.57 4.58 6.87.48.73.78.76 1.28.01 1.5-2.26 3.1-4.46 4.56-6.75.43-.84 1.34-1.32 2.27-1.2.97.02 1.94 0 2.9-.08.36.09.66.29.68.69.07 1.41.3 2.82-.84 4.02-1 1.06-1.87 2.23-2.8 3.36-1.24 1.22-2.29 2.62-3.42 3.94-.44.39-.48 1.06-.09 1.5.03.04.07.07.11.11 1.95 2.31 3.85 4.65 5.76 6.97z"/><path id="Path_937" class="st0" d="M-52.81 264.51c.5-.8 1.01-1.6 1.52-2.39.13-.23.29-.45.48-.64 1.79-1.67 2.55-1.88 4.41-.24.48 3.35-1.9 4.95-4.75 5.35-.89.12-1.15.46-1.29 1.26-.26 1.61-.22 3.25.1 4.84-.23.4-.61.19-.93.22-.91-1.79-.35-3.65-.22-5.48.02-.3.35-.74-.28-.78-2.01-.13-3.64-1.22-5.38-2.05-1.26-1.6-2.74-3.05-3.5-5-.13-.24-.25-.48-.35-.73-.17-.77-.49-.88-1.23-.55a24.496 24.496 0 01-10.38 1.98c-2.65.07-5.25-.77-7.36-2.37-2.54-2-1.47-6.74 1.04-8.1.97-.58 2.07-.89 3.2-.91 4.33.33 6.96 2.88 8.56 6.67.93 2.21.87 2.24 3.15 1.41.18-.06.36-.13.54-.21a1.86 1.86 0 001.13-2.26c-.32-1.24-.48-2.51-.47-3.79.04-.95.47-1.37 1.44-.93.55 1.32.06 2.75.49 4.1.4 1.26.47 1.34 1.59.58.85-.59 1.67-1.22 2.51-1.83.93-.81 1.45-1.99 1.44-3.22 1.29.43 1.5.91.95 2.12-.28.62-.9 1.07-.94 1.82-1.3.66-2.02 2.03-3.27 2.71-1.19.64-1.11 1.44-.66 2.48.97 2.27 2.08 4.4 4.45 5.53.94.71 2.06 1.14 3.24 1.22.62.03.88-.19.77-.81zm1.61 0c-.41.57-.3.84.43.72a2.89 2.89 0 001.41-.67c.44-.37.85-.77 1.24-1.19.31-.38.64-.85.13-1.33-.39-.43-1.05-.46-1.48-.07-.03.02-.05.05-.08.08-.75.67-1.32 1.52-1.65 2.46zm-26.85-13.72c-3.04.49-4.52 3.52-2.77 5.67.96 1.18 4.32 2.08 5.84 1.56 1.48.54 2.98.21 4.46.04.56-.06.42-.43.33-.77-.53-2.16-1.69-4.11-3.34-5.61a4.275 4.275 0 00-4.52-.89z"/><path id="Path_938" class="st0" d="M-196.62 219.08c.64.84.95 1.88.88 2.93.03 3.06 0 6.13.02 9.19-.11 1.03-.33 2.05-.67 3.03l.01-.02c-.18-.02-.22.11-.24.24-1 .65-2 1.31-3 1.96-.36.3-.84.43-1.3.36-2.8-.6-5.7-.59-8.49.04l-2.11-.06c-.01-.51.21-1 .61-1.33 2.38-2.82 4.8-5.61 7.2-8.42 2.02-2.37 4.02-4.76 6.03-7.13.27-.35.52-.76 1.06-.79z"/><path id="Path_939" class="st0" d="M-196.62 219.08c-.54.02-.79.44-1.08.79-2.01 2.38-4.01 4.76-6.03 7.13-2.39 2.81-4.82 5.6-7.2 8.42-.39.33-.62.82-.61 1.33-2.94.62-5.14 2.1-5.93 5.19-.1.37-.12.76-.18 1.14-.34.01-.75-.08-.98.23-1.09 1.51-2.62 2.69-3.4 4.44-1.31-.05-2.5-.75-3.18-1.87.65-.08.78-.7 1.12-1.09 4.24-4.94 8.51-9.86 12.7-14.84.91-.83 1.65-1.83 2.18-2.94l1.72-.12c.67.03 1.55.28 1.28-.9-.18-.76-.94-.18-1.37-.41-.03-.31.08-.62.29-.85 1.46-1.68 2.98-3.32 4.34-5.08.81-1.05 2.02-1.82 2.38-3.2 1.65.24 3.1 1.21 3.95 2.63z"/><path id="Path_940" class="st0" d="M-209.42 236.81c2.79-.63 5.69-.64 8.49-.04.46.07.94-.06 1.3-.36 1-.65 2-1.31 3-1.96.14-.02.29-.03.24-.24l-.01.02c.5.16.89-.27 1.36-.25-.25.82-.73 1.54-1.4 2.07-1.37 1.22-1.36 1.23.25 1.92.46.2.93.37 1.39.56l3.05 2.01c.26.28.51.57.78.84 1.84 1.79 2.64 3.83 1.54 6.33-1.52 2.26-3.54 3.45-6.35 2.94-1.32-.27-2.57-.79-3.7-1.53l-1.3-1.23a8.002 8.002 0 01-1.5-5.5c.12-.65.27-1.29.34-1.94s.94-1.37.37-1.86c-.47-.4-1.39-.3-2.12-.38-.38-.04-.78.03-1.16-.01-.62-.07-.9.19-1.05.78-.36 1.43-.89 2.81-1.6 4.11-.7 1.5-1.99 2.63-3.56 3.14a3.86 3.86 0 01-4.39-1.27c-.93-1.35-.82-2.82.36-4.4.44-.58.95-1.11 1.42-1.66l-.01.01c.3-.02.58-.19.72-.46l3.54-1.64zm9.54 8.83a3.715 3.715 0 002.32 2.32c1.77.89 3.55 1.2 5.32 0a3.13 3.13 0 00.83-4.36c-.07-.1-.14-.2-.22-.29a6.552 6.552 0 00-2.19-1.86 14.084 14.084 0 00-4.77-2.27.787.787 0 00-1.06.32c-.02.04-.04.09-.06.14a6.583 6.583 0 00-.17 6zm-7.6-7.25c-2.18.66-4.14 1.2-5.63 2.65-1.06 1.03-1.26 2.33-.6 2.99 1.02.71 2.39.63 3.32-.19.09-.07.18-.15.26-.23 1.29-1.49 2.2-3.29 2.65-5.22z"/><path id="Path_941" class="st0" d="M-199.45 249.12c1.13.74 2.38 1.25 3.7 1.53-.01.54-.04 1.09-.01 1.63.25 2.37-1.16 4.6-3.42 5.39a16.788 16.788 0 01-13.74 0c-.62-.22-1.19-.59-1.64-1.07.01-.35.22-.53.49-.72 1.91-1.36 3.84-2.71 5.69-4.14 1.01-.78 2.36-1.2 2.9-2.53l6.03-.09zm1.02 4.65a1.91 1.91 0 00-1.84-1.98h-.14c-1.03.05-1.88.85-1.97 1.88.1 1.08.97 1.93 2.05 2.01 1.02.03 1.87-.77 1.9-1.79v-.12z"/><path id="Path_942" class="st0" d="M-209.2 227.01a9.549 9.549 0 01-2.18 2.94c-4.19 4.98-8.46 9.9-12.7 14.84-.34.4-.47 1.01-1.12 1.09a8.547 8.547 0 01-1.67-4.19c.71-.15 1.06-.75 1.48-1.24 2.56-2.99 5.14-5.96 7.63-9.01.9-1.11 2.2-1.97 2.49-3.52l1.86-.97 3.98-.03.23.09z"/><path id="Path_943" class="st0" d="M-215.27 227.92c-.29 1.55-1.59 2.41-2.49 3.52-2.49 3.05-5.07 6.02-7.63 9.01-.42.49-.77 1.08-1.48 1.24-.89-3.47-.72-7.13.49-10.5.88-2.59 3.34-4.3 6.07-4.22.46-.01.93-.01 1.39-.02.9 1.35 1.57 1.53 3.65.97z"/><path id="Path_944" class="st0" d="M-75.53 264.74c.97.03 1.94.18 2.87.44a14.2 14.2 0 01-7.25 2.12c-4.73.26-9.47-.49-13.89-2.2-.4-.14-.81-.24-1.22-.35-.14-.13-.3-.24-.46-.33a50.404 50.404 0 01-8.27-4.16 39.292 39.292 0 00-11.11-5.05 25.96 25.96 0 00-8.82-1.42c-.05-.4 0-.81.13-1.2 2.24-.11 4.48.09 6.66.6.41.08.83.12 1.25.17 1.71.59 3.43 1.16 5.13 1.79 3.18 1.17 5.92 3.17 8.9 4.74 2.95 1.69 6.1 3.01 9.38 3.92 1.1.62 2.33.98 3.59 1.06 2.61.55 5.25.91 7.91 1.09 1.82.18 3.64-.26 5.2-1.22z"/><path id="Path_945" class="st0" d="M-205.47 249.21c-.54 1.33-1.89 1.75-2.9 2.53-1.86 1.43-3.78 2.78-5.69 4.14-.27.19-.49.37-.49.72-1.73-1.21-1.96-2.97-1.77-4.88.47.03.93-.14 1.27-.46 3.48-2.51 6.95-5.03 10.46-7.49.74-.52 1.36-1.29 2.35-1.39-.19 1.96.34 3.91 1.5 5.5-1.53.01-3.07.01-4.6.02-.34 0-.7-.04-.76.47s.08.82.63.84z"/><path id="Path_946" class="st0" d="M-194.79 238.53c-.46-.19-.93-.36-1.39-.56-1.62-.69-1.62-.7-.25-1.92.67-.53 1.15-1.25 1.4-2.07.73-1.9.53-3.88.49-5.84-.02-.98.28-1.3 1.24-1.2.73.07 1.47.07 2.2 0 3.28-.31 5.09 2.48 5.44 4.96-.57-.1-.95.31-1.34.59-2.02 1.42-4.03 2.86-6.01 4.33-.67.49-1.65.67-1.78 1.71z"/><path id="Path_947" class="st0" d="M-114.86 255.21c3.94 1.1 7.69 2.81 11.11 5.05 2.62 1.63 5.39 3.03 8.27 4.16.17.09.32.2.46.33-5.97 1.52-13.37.15-17.94-6.23-.78-1.01-1.42-2.12-1.9-3.31z"/><path id="Path_948" class="st0" d="M-202.25 242.39c-.99.1-1.61.87-2.35 1.39-3.51 2.46-6.98 4.98-10.46 7.49-.34.32-.8.48-1.27.46-.01-2.93-.15-5.87 0-8.79a4.177 4.177 0 012.71-4.05c-.48.55-.99 1.08-1.42 1.66-1.19 1.58-1.29 3.05-.36 4.4a3.856 3.856 0 004.39 1.27 5.977 5.977 0 003.56-3.14c.7-1.3 1.24-2.68 1.6-4.11.15-.58.43-.85 1.05-.78.38.05.78-.03 1.16.01.73.08 1.65-.02 2.12.38.57.49-.31 1.2-.37 1.86s-.24 1.3-.36 1.95z"/><path id="Path_949" class="st0" d="M-200.56 216.45c-.36 1.39-1.56 2.16-2.38 3.2-1.37 1.76-2.88 3.4-4.34 5.08-.21.23-.31.54-.29.85l-.92.07c-.5-.37-.97-.77-1.5-1.09-.47-.28-.57-.49-.21-.97.57-.78 1.05-1.62 1.44-2.5.38-.57.22-1.35-.35-1.73-.03-.02-.06-.04-.1-.06.01-.44.38-.64.6-.94a9.75 9.75 0 001.74-2.4c2.12-.16 4.24.01 6.31.49z"/><path id="Path_950" class="st0" d="M-137.66 262.66l.47 1.36c-.55-.28-.87.19-1.23.41-4.2 2.66-9.34 3.35-14.1 1.9a22.736 22.736 0 01-10.45-6.91c-1.25-1.36-2.39-2.81-3.58-4.22.02-.81.03-1.62.05-2.44 1.8 2.57 3.78 4.99 5.93 7.27 6.13 6.21 13.29 6.81 20.15 4.3 1.02-.37 1.96-.94 2.76-1.67z"/><path id="Path_951" class="st0" d="M-189.41 247.7c1.1-2.5.3-4.54-1.54-6.33-.27-.27-.52-.56-.78-.84l6.78-4.93c.35.58.11 1.24.26 1.85.03 2.54-.54 5.06-1.66 7.34a4.63 4.63 0 01-3.06 2.91z"/><path id="Path_952" class="st0" d="M-184.95 235.6l-6.78 4.93-3.05-2.01c.13-1.04 1.11-1.22 1.76-1.7 1.98-1.47 3.99-2.91 6.01-4.33.39-.28.77-.69 1.34-.59.4 1.12.68 2.27.83 3.45-.04.08-.08.17-.11.25z"/><path id="Path_953" class="st0" d="M-209.21 219.3c.61.33.83 1.08.51 1.69-.02.03-.04.07-.06.1-.39.89-.87 1.73-1.44 2.51-.36.48-.27.69.21.97.53.31 1 .72 1.5 1.09l1.02 1.24-1.72.12-.23-.08c-1.36-1.65-1.9-1.72-3.48-.44-.18.14-.33.31-.5.47l-1.86.97c-2.08.55-2.76.37-3.64-.97-.08-2.01.57-3.02 2.52-3.9 1.38-.14 2.78-.01 4.11.39.52.22.89-.02 1.08-.54.61-.57 1.06-1.3 1.3-2.1l.41-.8.27-.72zm-7.21 5.49c-.34.1-.62.34-.78.66-.19.34-.42.73-.25 1.09.2.43.69.26 1.05.24.93-.05 1.82-.45 2.48-1.12.43-.19.78-.54.98-.97-1.21-.28-2.34-.55-3.48.1z"/><path id="Path_954" class="st0" d="M-209.21 219.3l-.27.71-.71.02c-1.02-1.01-1.87-1.23-2.73-.6-.8.48-1.11 1.48-.73 2.33.38.98 1.15 1.34 2.45 1.15-.19.52-.56.76-1.08.54-1.33-.4-2.73-.53-4.11-.39 0-.23-.01-.46-.01-.7 0-3.95.95-5.13 4.82-5.95 1.55-.31 3.13-.46 4.71-.46-.46.88-1.04 1.69-1.74 2.4-.21.31-.59.51-.6.95z"/><path id="Path_955" class="st0" d="M-184.95 235.6c.04-.08.07-.17.11-.25a37.88 37.88 0 0112.97 10.11c.3.34.43.97 1.1.84.07.92.05 1.85-.07 2.76a42.57 42.57 0 00-12.7-11.08c-.37-.2-.76-.36-1.15-.55-.15-.59.09-1.25-.26-1.83z"/><path id="Path_956" class="st0" d="M-56.8 264.06c-2.38-1.13-3.48-3.27-4.45-5.53-.45-1.04-.53-1.84.66-2.48 1.26-.67 1.98-2.05 3.27-2.71.17 3.57.57 7.13.52 10.72z"/><path id="Path_957" class="st0" d="M-222.02 247.76c.78-1.75 2.31-2.92 3.4-4.44.23-.32.63-.22.98-.23.01 1.35.03 2.7.04 4.05 0 .38.08.84-.52.81-1.3-.09-2.62.21-3.9-.19z"/><path id="Path_958" class="st0" d="M-127.65 253.32v1.2c-.15.01-.3.04-.43.1-2.6 1.81-4.95 3.96-6.99 6.39-.37.21-.8.3-1.22.23 1.79-1.99 3.55-4.01 5.37-5.97a8.8 8.8 0 013.27-1.95z"/><path id="Path_959" class="st0" d="M-20.84 220.17c-.67-1.21-.94-2.6-.78-3.97.29 1.13.47 1.99.74 2.82.38.89.88 1.73 1.48 2.5.71-2.45 1.77-4.78 3.16-6.92-.81 2.21-2.1 4.22-2.58 6.56-.12.12-.29.26-.11.42.15.13.33.02.45-.12.85-.03 1.54-.89 2.47-.5l-.02-.02-2.8 1.21c.6.63 1.48.82 1.83 1.69-.58-.34-1.14-.69-1.73-1.02-.26-.15-.61-.41-.53.24l-.51.45c-.32.35-.14.96-.63 1.22l-.2-.17c.34-.5.47-1.12.35-1.72.19-.31.85-.57.08-.96l-.09.03a1.38 1.38 0 00-.42-1.43l-.18-.27.02-.04z"/><path id="Path_960" class="st0" d="M-12.19 222.77c-.23.48-.64.99.33 1.14 1.24.19 1.52 1.53 2.44 2.12.1.07-.05.29-.2.35-.82.42-1.56.97-2.2 1.63-.2.16-.47.21-.71.11-.27-.05-.66-.21-.76 0-.45.98-1.35.52-2.04.72v-.42l.01-.01c.23-.01.48.04.67-.17 1.04-.68 2.4-.43 3.43-1.25 1.01-.8 1.1-1.15.26-2.09-.43-.45-1-.72-1.62-.78-.81-.14-.45-.8-.55-1.24-.09-.41.29-.5.59-.51.11-.01.23.16.35.25.01.05.01.1 0 .15z"/><path id="Path_961" class="st0" d="M-27.17 221.12c.7 1.48 1.62 2.89 1.65 4.62.01.28.23.25.42.17-.1.38-.43.57-.62.23-.37-.66-.63-.16-.94-.02l-1.79-1.4c.2-.08.32-.28.3-.49l1.26.62c.11.06.17.29.32.13.04-.04-.07-.24-.11-.38-.5-1.1-1.07-2.17-1.71-3.2.49.18.49.18 1.35 1.44l.26.45c.03.18.03.37.24.46l.15.39c.03-.03.08-.06.08-.08-.04-.14-.09-.27-.14-.41l-.18-.5-.21-.47-.56-1.3.23-.26z"/><path id="Path_962" class="st0" d="M-26.64 226.12c.31-.14.57-.64.94.02.19.34.52.15.62-.23a5.21 5.21 0 012.62-2.47c.79-.48 1.83-.63 2.31-1.57.77.39.11.66-.08.96-2.29.63-4.1 2.39-4.79 4.67-.13.24-.33.23-.55.17-.16-.66-.79-.99-1.07-1.55z"/><path id="Path_963" class="st0" d="M-14.72 215.85c.45.57.87.25 1.4.05.6-.22 1.25-1.41 1.96-.11.85-.27 1.49.79 2.36.37.12-.06.21-.16.4-.03.94.67.95.66 1.96.14l-1.25 2.33-.2-.22c.77-1.32-.54-1.38-1.14-1.63-.95-.38-2.04-.25-2.95-.96-.29-.23-.93.39-1.39.66-.56.34-1.08.51-1.33-.34l.18-.26z"/><path id="Path_964" class="st0" d="M-42.87 232.88c-.18.05-.45.2-.53.13a2.398 2.398 0 00-3.31-.17c-.26-.18-.12-.29-.07-.34.71-.63 1.56-1.05 1.75-2.2.24-1.44 1.49-2.12 2.71-2.7h.08l.08.01c-.19.38-.52.69-.92.84-1.07.35-1.35 1.34-1.73 2.19-.45 1.01.58 1.25 1.11 1.75.33.31.78-.07 1.06.29l-.23.2z"/><path id="Path_965" class="st0" d="M-38.63 233.06c.29-.4.56-.7 1.13-.33.31.19.69.25 1.05.16.96-.29 1.21.31 1.43 1.03 1.18-.96 2.12-2.3 3.86-2.26l.4.02-.03.32c-2.04-.08-3.05 1.51-4.41 2.71-.36-.45-.07-1.51-.66-1.4-.93.18-1.85-.63-2.71.08l-.06-.33z"/><path id="Path_966" class="st0" d="M-34.87 222.32c.42-.13.02-.79.61-.88l.07 1.1c.06.22.21.41.42.5l.01.23c-.79.13-.09.62-.21.91-.53.4.06.79 0 1.19-.76-.12-.46-.79-.55-1.2-.15-.68-.42-.44-.76-.21l-.15-.29c.06-.12.21-.27.18-.35-.09-.18-.29-.15-.46-.09l-.33-.09-1.63-.15c.35-.34.81-.09 1.19-.24.38.03.76.03 1.14.02.55-.05.08-.26.04-.4l.43-.05z"/><path id="Path_967" class="st0" d="M-30.49 216.24c.03.19.03.39.23.5.15 1.35-.11 2.41-1.66 2.83-.61.17-.68.99-1.05 1.49-.26.35-.26.89-.77 1.05l.01.01c.39-1.35.79-2.7 2.3-3.24.49-.18.43-.56.54-.97.16-.56.01-1.18.4-1.67z"/><path id="Path_968" class="st0" d="M-59.59 280.11c.82-.03 1.61.2 2.38-.51.48-.44.9-.01.73.69-.07-.03-.14-.02-.21.02-.05-.31-.25-.61-.52-.32-.93 1.02-2.12.38-3.18.58-.16.03-.28.08-.38-.1.05-1.11.36-2.19.91-3.16.03.03.05.06.08.08-.16.58-.34 1.15-.47 1.74-.07.32-.38.73.18.95l.48.03z"/><path id="Path_969" class="st0" d="M-16.02 220.96c.1-.12.17-.29.29-.34 2.34-.88 4.61-1.93 6.93-2.86a23.389 23.389 0 01-7.23 3.18l.01.02z"/><path id="Path_970" class="st0" d="M-47.74 273.62c-.38.76-.24 1.72-.99 2.37-.17.15.18.82.1 1.2-.07.34.81.02.26.44-.31.23-.48-.03-.56-.33-.2-.69-.49-1.31.26-1.97.46-.53.64-1.25.49-1.94.43-.11.73-.33.7-.82.14-.74.45-1.43.91-2.01l.1.09c-.25.97-.96 1.83-.64 2.92l-.32.06-.31-.01z"/><path id="Path_971" class="st0" d="M-55.76 274.45c.16.18.28.43.59.31l.19.14c-.04.79.56 1.46 1.35 1.5.1.01.2 0 .3-.02.77-.04.88.54 1.22 1.08-.66-.12-.77-.94-1.44-.76-.23.01-.5-.2-.65.14-.05.04-.11.08-.16.12l-.82-.54v1.38l-.26.01c-.22-.43.55-1.18-.45-1.35l.01-.3c.71-.55-.05-1.06-.04-1.59l.16-.12z"/><path id="Path_972" class="st0" d="M-53.28 272.9c.32-.03.7.18.93-.22 1.16.77 2.47.41 3.71.49-.01.06-.01.12 0 .18-.95.24-1.94.32-2.92.25-.17.36.32.7-.09.98-.79-.05-.63-1.45-1.66-1.21l.03-.47z"/><path id="Path_973" class="st0" d="M-8.1 218.38l.2.22c.02.22.31.48.11.63-.52.39-1.5.49-.78 1.51-.16.08-.33.15-.49.23-.48.22-.67.49-.2.92l-.01-.01c-.3.28-.69.42-1.1.4.5-1.44 1.27-2.76 2.27-3.9z"/><path id="Path_974" class="st0" d="M-15.32 228.42v.42c-.53.34-1.55.27-1.03 1.5-1.21-.29-2.07-1.16-3.23-1-.23-.05-.57.08-.57-.35.33-.09.67-.12 1.01-.1.81-.03 1.62.98 2.08.58.52-.45 1.11-.8 1.74-1.05z"/><path id="Path_975" class="st0" d="M-23.18 216.52c-.09.41.19.96-.46 1.16-.31.1-.24.32-.13.55.24.47.48.95.73 1.43.1.2.8.1.34.55-.26.25-.62-.04-.76-.3a8.17 8.17 0 01-.92-2.66c-.04-.27.07-.35.31-.29.65.17.67-.07.4-.57-.08-.13-.03-.3.1-.38a.23.23 0 01.14-.04c.24-.03.48-.01.44.34-.14.01-.23.06-.19.21z"/><path id="Path_976" class="st0" d="M-51.78 221.75c-.63-.24-1.15-.71-1.45-1.31.83.25 1.52.83 2.17.06.06-.07.31-.08.31-.11-.1-1.54 1.14-.48 1.64-.85l-.02-.02c.17.81-1.15.19-.97 1.02-.67.13-.94.83-1.53 1.07l-.15.14z"/><path id="Path_977" class="st0" d="M-19.47 213.54c-.65 1.38-1.17 1.45-2 .28l-1.15 1.48-.28-.41c.44-.74 1.19-1.28 1.34-2.21.6.37.21 1.31.86 1.43.42.08.77-.42 1.03-.8l.2.23z"/><path id="Path_978" class="st0" d="M-45.72 217.51c-.9.58-1.69 1.3-2.66 1.8-.27.14-.52.1-.76.22l.02.02c-.08-.63.1-.9.83-1 .59-.08 1.7-.12 1.09-1.38a2.8 2.8 0 011.48.3v.04z"/><path id="Path_979" class="st0" d="M-19.67 213.31c.28-.31.41-.73.34-1.15.72.78 1.27 1.15 1.55-.03.57-.18 1.19-.21 1.77-.08l.2.44c-1.41-.33-2.34 1.08-3.67 1.04l-.19-.22z"/><path id="Path_980" class="st0" d="M-28.14 224.23c.02.21-.1.41-.3.49-1.32-.49-2.67-.89-4.03-1.29 1.48.01 2.95.28 4.33.8z"/><path id="Path_981" class="st0" d="M-27.38 221.4l.56 1.3-.2.15c-.87-1.26-.87-1.26-1.35-1.44v.01c.21-.65-.41-.81-.69-1.17-.04 0-.08.01-.12.01l-.11-.49-.01.01c.35-.25.76-.41 1.18-.47l-.01-.01c-.19.86.53 1.39.75 2.1z"/><path id="Path_982" class="st0" d="M-42.5 278.15c-.83-.05-1.56.4-2.47.21-.78-.16.02.68-.32 1.08-.45-.71-1.65-.06-1.93-1.14l-.01.02c.34-.11.58.11.84.25.2.11.5.24.63.06.86-1.25 2.06-.62 3.15-.61.04.04.08.09.11.13z"/><path id="Path_983" class="st0" d="M-55.44 281.3c1.05-.76 2.02-1.62 2.89-2.57.39.69.08 1.12-.76 1.29-.51.1-.7.84-1.17 1.2-.26.21-.59.33-.92.33l-.04-.25z"/><path id="Path_984" class="st0" d="M-43.41 216.16c-.61-.31-1.18-.48-1.12-1.49.04-.71-.64-1.47-.99-2.21.06-.05.12-.1.17-.16.81.8 1.33 1.83 1.5 2.95.07.42.49.44.61.75l-.17.16z"/><path id="Path_985" class="st0" d="M-48.18 225.09c.92-.1 1.17.43 1.17 1.22.1.33.35.15.55.18-.33.66-.88.18-1.29.31-.24-.47.6-.58.25-.93-.26-.27-.59-.6-1.1-.36-.2.09-.58.25-.7-.07-.13-.35.32-.46.5-.68l.2.19c.09.21.26.18.42.14z"/><path id="Path_986" class="st0" d="M-49.09 221.66l4.49.64c-.26.07-.56-.01-.77.23-1.27-.09-2.53-.3-3.76-.65.01-.08.03-.15.04-.22z"/><path id="Path_987" class="st0" d="M-36.48 222.77c-.38.14-.85-.11-1.19.24l-3.88.01.36-.18c1.55-.36 3.16-.38 4.71-.07z"/><path id="Path_988" class="st0" d="M-49.09 224.17c-1.51.07-1.92-1.06-2.36-2.16v-.33c.66.89 1.44 1.68 2.34 2.33.02.05.02.11.02.16z"/><path id="Path_989" class="st0" d="M-20.67 220.47c.4.36.56.91.42 1.43-.84-.26-1.22-1.01-1.82-1.57.42-.41.85-.01 1.23-.15l-.01.02c0 .11 0 .22-.01.33l.19-.06z"/><path id="Path_990" class="st0" d="M-40.41 273.47c.1.85-.43.88-1.06.88-.32 0-.72 0-.86.43-.15.48.33.42.52.61-.03.04-.06.08-.09.11-.52-.01-.92-.15-.88-.78 0-.36.3-.66.66-.66.08 0 .17.02.25.05.77.21.86-.6 1.35-.77.03.04.07.09.11.13z"/><path id="Path_991" class="st0" d="M-34.01 219.33v-3.42c.6 1.1.71 2.4.3 3.58l-.3-.16z"/><path id="Path_992" class="st0" d="M-43.99 268.72c.1.81.11.81 1.44 1.05-.61.09-1.12.97-1.76.36-.31-.41-.24-1 .18-1.32.04-.03.09-.06.14-.09z"/><path id="Path_993" class="st0" d="M-38.63 233.06l.04.34c-.27.34-.4 1.3-.81-.02-.25-.8-1.16-.3-1.79-.11v-.22c.86-.82 1.71-.44 2.56.01z"/><path id="Path_994" class="st0" d="M-42.81 216.53c.08 1.7-.21 1.94-1.66 1.39.05-.05.07-.12.05-.18 1.06.27 1.07-.66 1.4-1.23.07 0 .14.01.21.02z"/><path id="Path_995" class="st0" d="M-15.8 212.5l-.2-.44c.89.05 1.5-.51 2.28-1.14-.21 1.41-1.24 1.37-2.08 1.58z"/><path id="Path_996" class="st0" d="M-21.48 228.11l-.24.06c0-1.22-.6-2.6.9-3.42l.17.19c-.61.45-.9 1.21-.75 1.95.1.41.07.83-.08 1.22z"/><path id="Path_997" class="st0" d="M-43.17 266.72c-.36.4-.29.93-.38 1.53-.38-1.21-.95-1.4-2.59-1 .38-.57.45-.66 1.38-.51.48.14.99.07 1.42-.18.06.06.11.11.17.16z"/><path id="Path_998" class="st0" d="M-50.46 269.12c.36-.61.63-1.13.95-1.62.12-.18.34-.37.57-.19.16.13.34.53.14.56-.74.14-.78 1.12-1.66 1.25z"/><path id="Path_999" class="st0" d="M-45.37 222.53c.21-.24.51-.16.77-.23l2.34.09.09.34a9.84 9.84 0 01-3.2-.2z"/><path id="Path_1000" class="st0" d="M-13.79 225.04c-1.12.02-2.19-.47-2.9-1.34l2.9 1.34z"/><path id="Path_1001" class="st0" d="M-39.56 271.74c.49-.17.92-.67 1.62-.26-.35.38-1.22.1-1.01.95.05.23-.34.29-.55.2-.51-.23.04-.59-.06-.89z"/><path id="Path_1002" class="st0" d="M-59.57 274.2c.4-.98 1.61-.96 1.7-1.95 0 0 .33-.04.42.04.19.15-.06.22-.12.33-.38.8-1.14 1.1-2 1.58z"/><path id="Path_1003" class="st0" d="M-37.69 226.78c-.5.67-1.11 1.24-1.82 1.69l-.25-.2 1.82-1.73.25.24z"/><path id="Path_1004" class="st0" d="M-33.12 224.79c.5.91 1.45 1.19 2.29 1.63l-.11.14a2.855 2.855 0 01-2.37-1.6l.19-.17z"/><path id="Path_1005" class="st0" d="M-45.52 212.46c-.33-.43-.51-.95-.52-1.49.72.26 1.29.5.69 1.33-.06.06-.11.11-.17.16z"/><path id="Path_1006" class="st0" d="M-59.12 275.39c1.06-.32 2.21-.16 3.15.43-1.03-.24-2.09-.39-3.15-.43z"/><path id="Path_1007" class="st0" d="M-14.68 215.21c-.01-.08-.02-.15-.04-.23-.13-.41-.31-.85.26-1.07.27-.1.27.17.35.33.3.64-.08.83-.6.95l.03.02z"/><path id="Path_1008" class="st0" d="M-34.18 227.85c.06-.58-.26-1.1.26-1.47.12-.06.27-.02.33.1.01.02.02.05.03.07.14.53-.12 1.08-.62 1.3z"/><path id="Path_1009" class="st0" d="M-41.19 233.05v.22c-.79.84-1.12-.26-1.68-.39l.23-.2 1.45.37z"/><path id="Path_1010" class="st0" d="M-39.5 228.46c-.66.6-1.47.99-2.35 1.13l2.1-1.34.25.21z"/><path id="Path_1011" class="st0" d="M-59.59 280.11l-.47-.02c-.08-.77.58-1 1.02-1.61.3.85-.63 1.05-.55 1.63z"/><path id="Path_1012" class="st0" d="M-56.7 280.3c.06-.04.14-.05.21-.02.23.15.76-.07.68.36-.16.3-.46.5-.8.52a.46.46 0 01-.37-.52c.03-.15.14-.28.28-.34z"/><path id="Path_1013" class="st0" d="M-33.96 224.18c.12-.29-.58-.77.21-.91l.63 1.51-.19.17-.65-.77z"/><path id="Path_1014" class="st0" d="M-30.77 231.69l-.4-.02c.13-.52-.27-1.32.71-1.42l.02.01-.33 1.43z"/><path id="Path_1015" class="st0" d="M-29.75 228.86c.5.82.19 1.25-.68 1.4l-.02-.01c-.21-.67.76-.76.68-1.36l.02-.03z"/><path id="Path_1016" class="st0" d="M-35.64 224.18c-.19.61-.63 1.12-1.2 1.41.16-.63.6-1.15 1.2-1.41z"/><path id="Path_1017" class="st0" d="M-48.64 273.35a.544.544 0 010-.18c.32-.08.26-.28.15-.49l.31-.28c.22.09.38.43.69.16.03.5-.27.71-.7.82l-.45-.03z"/><path id="Path_1018" class="st0" d="M-41.46 277.29c.49-.32 1.03-1.02 1.36.18-.43.15-.82-.27-1.23-.04l-.13-.14z"/><path id="Path_1019" class="st0" d="M-42.61 278.02c.18-.47.64-.77 1.14-.72l.13.14c-.3.36-.71.61-1.17.72a.45.45 0 00-.1-.14z"/><path id="Path_1020" class="st0" d="M-60.45 274.78c.31.91-.14.96-.8.89l.8-.89z"/><path id="Path_1021" class="st0" d="M-28.13 219.32c-.43.06-.83.22-1.18.47.25-1.03.46-1.11 1.18-.47z"/><path id="Path_1022" class="st0" d="M-49.09 224.17c.01-.05 0-.11-.02-.15.47-.08.81.07.9.58l-.38.35-.2-.19c.24-.37-.17-.41-.3-.59z"/><path id="Path_1023" class="st0" d="M-37.69 226.78l-.25-.25.83-.88.17.25-.75.88z"/><path id="Path_1024" class="st0" d="M-53.78 277.12c.12.39.47.7.44 1.31l-1.02-1.47c.05-.04.1-.08.16-.12l.42.28z"/><path id="Path_1025" class="st0" d="M-45.13 226.79c-.67.44-.94.23-.91-.55.54-.15.4.68.88.52l.03.03z"/><path id="Path_1026" class="st0" d="M-42.17 222.73l-.09-.34c.41.01.95-.27 1.07.45l-.36.18a.57.57 0 01-.62-.29z"/><path id="Path_1027" class="st0" d="M-47.09 267.2c-.06.34-.32.62-.65.69-.02.01-.17-.18-.15-.24.1-.38.38-.5.8-.45z"/><path id="Path_1028" class="st0" d="M-44.42 217.74c.02.07 0 .14-.05.18-.45-.04-.98.16-1.25-.41v-.03c.44.02.94-.22 1.3.26z"/><path id="Path_1029" class="st0" d="M-29.06 220.25c.28.36.9.52.69 1.17-.41-.28-.88-.53-.69-1.17z"/><path id="Path_1030" class="st0" d="M-47.74 273.62h.3v1.67l-.21.01-.09-1.68z"/><path id="Path_1031" class="st0" d="M-14.91 216.11c-.61-.48-.29-.72.23-.91l-.03-.02c-.04.22-.2.44-.01.66l-.19.27z"/><path id="Path_1032" d="M-55.44 281.3l.04.24a.53.53 0 01-.56.47.53.53 0 01-.47-.56.53.53 0 01.56-.47c.19.02.35.14.43.32z" fill="#fcfdfd"/><path id="Path_1033" class="st0" d="M-49.89 271.77c.19-.01.36.01.4.18.05.22-.15.23-.29.25s-.33 0-.37-.17c-.05-.23.17-.21.26-.26z"/><path id="Path_1034" class="st0" d="M-34.87 222.32l-.43.06c-.28-.14-.49-.39-.59-.69l.2-.25.82.88z"/><path id="Path_1035" class="st0" d="M-43.28 276.07c.38-.1.77.09.91.46-.37.09-.76-.1-.91-.46z"/><path id="Path_1036" class="st0" d="M-43.02 211.33l.36.93c-.23.1-.5.02-.64-.19-.03-.13-.07-.26-.1-.38l.38-.36z"/><path id="Path_1037" class="st0" d="M-30.84 226.42c.2.1.6.2.44.42-.19.25-.39-.11-.54-.28l.1-.14z"/><path id="Path_1038" class="st0" d="M-47.22 278.3c-.2 0-.42.28-.6.04-.13-.18.02-.36.21-.42.33-.1.33.19.38.39l.01-.01z"/><path id="Path_1039" class="st0" d="M-41.18 270.12c.3-.14.65-.05.85.22-.39.34-.56-.01-.85-.22z"/><path id="Path_1040" class="st0" d="M-40.28 216.31c-.38-.23-.71-.55-.95-.92l.14-.22.99 1.01-.18.13z"/><path id="Path_1041" class="st0" d="M-50.83 270.49c-.07.06-.16.2-.28.23-.09.04-.19-.01-.23-.1a.181.181 0 01.01-.16c.07-.12.19-.21.33-.25.11-.03.2.07.17.28z"/><path id="Path_1042" class="st0" d="M-42.3 214.05c.41.23.75.56 1.01.95-.48-.08-.88-.38-1.1-.81.05-.02.09-.08.09-.14z"/><path id="Path_1043" class="st0" d="M-55.29 272.45c.42.25.51.66.4.74-.31.24-.28-.18-.39-.33-.05-.05-.01-.18-.01-.41z"/><path id="Path_1044" class="st0" d="M-19.77 223.5l.51-.45c.21.12.29.4.16.61a.21.21 0 01-.04.06c-.05.07-.41-.14-.63-.22z"/><path id="Path_1045" class="st0" d="M-39.08 217.21l.84.71c-.56.08-.76-.24-.97-.55.05-.05.09-.1.13-.16z"/><path id="Path_1046" class="st0" d="M-18.71 226.13c.1.08.18.18.25.29.01.09-.03.19-.11.24-.19.05-.24-.13-.3-.27-.04-.09-.05-.2.16-.26z"/><path id="Path_1047" class="st0" d="M-42.37 226.4c.02.16-.09.31-.25.34-.16.03-.34.01-.33-.18.01-.08.23-.13.35-.21s.2-.15.23.05z"/><path id="Path_1048" class="st0" d="M-55.43 277.82l.26-.01c-.03.21.08.47-.2.59a.184.184 0 01-.18-.08.36.36 0 01.12-.5z"/><path id="Path_1049" class="st0" d="M-49.09 221.66c-.02.07-.03.15-.03.22-.29-.02-.62.06-.77-.32.31-.31.54.03.8.1z"/><path id="Path_1050" class="st0" d="M-19.12 225.38c-.12-.07-.26-.11-.28-.18-.05-.19.1-.26.26-.24.09.03.17.1.2.19.01.06-.1.14-.18.23z"/><path id="Path_1051" class="st0" d="M-39.56 271.75c-.21-.03-.47.07-.57-.21-.02-.05.11-.2.18-.21.31-.05.36.18.39.42z"/><path id="Path_1052" class="st0" d="M-43.39 211.69c.03.13.07.26.1.38-.14-.12-.47.09-.46-.25 0-.05.23-.09.36-.13z"/><path id="Path_1053" class="st0" d="M-48.18 272.41l-.31.28c-.41-.07-.26-.33-.11-.48.28-.29.37-.05.42.2z"/><path id="Path_1054" class="st0" d="M-43.01 271.75c.13.06.27.09.3.16.07.17-.06.28-.22.27a.333.333 0 01-.23-.17c-.02-.06.09-.16.15-.26z"/><path id="Path_1055" class="st0" d="M-55.87 276.17l-.01.3c-.02.15-.04.3-.23.3a.174.174 0 01-.14-.12c-.02-.27.19-.37.38-.48z"/><path id="Path_1056" class="st0" d="M-41.81 275.38c.22.05.47.08.37.41-.02.08-.11.21-.16.21-.3-.04-.3-.27-.31-.5.04-.04.07-.07.1-.12z"/><path id="Path_1057" class="st0" d="M-36.15 220.74c.16.24.31.47.47.7l-.2.25-.47-.69.2-.26z"/><path id="Path_1058" class="st0" d="M-33.76 223.04a.753.753 0 01-.42-.5l.45-.43-.01-.01c-.01.32-.01.63-.02.94z"/><path id="Path_1059" class="st0" d="M-33.8 220.36c-.12.08-.25.14-.38.18-.14.03-.2-.1-.11-.19.12-.09.25-.16.39-.2-.01 0 .05.11.1.21z"/><path id="Path_1060" class="st0" d="M-36.36 221.01c-.16-.18-.51-.38-.14-.61.2-.13.24.21.35.35l-.21.26z"/><path id="Path_1061" class="st0" d="M-29.99 228.16c.26.17.22.45.24.7l-.03.03c-.56-.07-.38-.39-.24-.69l.03-.04z"/><path id="Path_1062" class="st0" d="M-41.64 271.65l.25.17c-.07.04-.15.14-.21.12-.08-.03-.15-.12-.22-.19l.18-.1z"/><path id="Path_1063" class="st0" d="M-42.3 214.05c0 .06-.03.12-.09.14-.17-.04-.43-.1-.3-.3s.29 0 .39.16z"/><path id="Path_1064" class="st0" d="M-53.78 277.12l-.42-.27c.15-.34.42-.13.65-.14l-.23.41z"/><path id="Path_1065" class="st0" d="M-22.9 214.89l.28.41c-.18.01-.4.1-.5-.11-.08-.18.07-.26.22-.3z"/><path id="Path_1066" class="st0" d="M-57.67 277.96c-.07-.03-.17-.04-.19-.09s.05-.13.07-.19c.07.03.17.04.19.09s-.05.12-.07.19z"/><path id="Path_1067" class="st0" d="M-34.01 219.34l.3.16c-.07.14-.17.28-.33.19s-.1-.25.03-.35z"/><path id="Path_1068" class="st0" d="M-42.81 216.53c-.07-.01-.14-.02-.21-.02l-.39-.35.17-.15.41.31c0 .07.01.14.02.21z"/><path id="Path_1069" class="st0" d="M-37.2 219.39l.11.14-.2.16c-.03-.06-.08-.12-.07-.17s.08-.07.16-.13z"/><path id="Path_1070" class="st0" d="M-55.48 279.7l-.15.1-.11-.22c.06-.02.13-.07.18-.05s.05.11.08.17z"/><path id="Path_1071" class="st0" d="M-45.16 226.76c.04-.17.05-.37.3-.34.04.01.06.04.07.07.02.25-.18.26-.34.3l-.03-.03z"/><path id="Path_1072" class="st0" d="M-43.13 227.18c-.03.07-.04.17-.09.19s-.13-.05-.19-.07c.03-.07.04-.17.09-.19s.12.04.19.07z"/><path id="Path_1073" class="st0" d="M-212.91 238.44a.89.89 0 01-.72.46c.1-.37.4-.43.72-.46z"/><path id="Path_1074" class="st0" d="M-12.62 225.31l-.08.2c-.07-.03-.17-.04-.19-.09s.05-.13.07-.19l.2.08z"/><path id="Path_1075" class="st0" d="M-50.81 271.15l.2.08c-.03.07-.04.17-.09.18s-.13-.05-.19-.07l.08-.19z"/><path id="Path_1076" class="st0" d="M-45.61 269.18c.02-.15.02-.32.22-.34.04 0 .14.09.13.13-.03.19-.2.19-.35.21z"/><path id="Path_1077" class="st0" d="M-48.6 271.7c-.06-.08-.13-.14-.12-.17.03-.12.04-.28.23-.27.02 0 .07.13.05.18-.04.1-.1.19-.16.26z"/><path id="Path_1078" class="st0" d="M-58.78 276.63l-.18-.11c.06-.03.12-.09.18-.09s.12.06.17.1l-.17.1z"/><path id="Path_1079" class="st0" d="M-48.59 224.95l.38-.35.03.49c-.16.04-.33.07-.41-.14z"/><path id="Path_1080" class="st0" d="M-55.74 272.38c.03.07.09.13.08.19s-.06.11-.1.17c-.03-.06-.09-.12-.08-.18s.06-.12.1-.18z"/><path id="Path_1081" class="st0" d="M-39.14 270.8c-.03.06-.05.14-.1.16s-.11-.03-.17-.05c.03-.06.06-.13.11-.16.03-.02.1.03.16.05z"/><path id="Path_1082" class="st0" d="M-39.21 217.37l-.47-.49c.05-.04.1-.08.13-.13l.47.47c-.04.05-.08.1-.13.15z"/><path id="Path_1083" class="st0" d="M-18.49 221.46c-.12.14-.3.25-.45.12-.18-.16-.01-.3.11-.42l.34.3z"/><path id="Path_1084" class="st0" d="M-46.46 226.48c-.19-.03-.45.15-.55-.18.18.09.47-.17.55.18z"/><path id="Path_1085" class="st0" d="M-56.7 277.21c-.06.02-.14.07-.18.05s-.06-.11-.09-.17c.06-.02.13-.07.16-.05s.07.11.11.17z"/><path id="Path_1086" class="st0" d="M-50.89 269.22c-.04.04-.09.08-.13.12-.02.01-.08-.04-.08-.05.01-.07.02-.13.04-.19l.17.12z"/><path id="Path_1087" class="st0" d="M-41.48 270.14c-.06.02-.14.07-.17.04-.05-.03-.07-.11-.1-.17.06-.02.14-.07.18-.04s.06.11.09.17z"/><path id="Path_1088" class="st0" d="M-14.64 228.24c-.18.21-.43.16-.67.17.16-.3.4-.28.67-.17z"/><path id="Path_1089" class="st0" d="M-14.37 212.97l-.08-.03.09-.09.06.07-.07.05z"/><path id="Path_1090" class="st0" d="M-15.93 214.02l-.03-.1c.03-.01.08-.03.09-.02.06.08.04.13-.06.12z"/><path id="Path_1091" class="st0" d="M-44.87 268.31c.01.03.03.08.02.08-.03.02-.06.03-.1.03-.01-.03-.03-.08-.02-.09.03 0 .06-.01.1-.02z"/><path id="Path_1092" class="st0" d="M-20.47 228.37c-.18-.07-.32-.16-.24-.39.21.04.26.19.24.39z"/><path id="Path_1093" class="st0" d="M-59.9 274.6c-.02.01-.06.02-.07.01s-.02-.05-.03-.08l.12-.02-.02.09z"/><path id="Path_1094" class="st0" d="M-29.3 219.77l.11.49c-.22.04-.37-.05-.39-.28-.01-.18.1-.25.28-.21z"/><path id="Path_1095" class="st0" d="M-54.1 274.78h-.06l.03-.09.03.09z"/><path id="Path_1096" class="st0" d="M-55.91 274.59a.384.384 0 01-.18-.51v-.01l-.01.02.34.37-.15.13z"/><path id="Path_1097" class="st0" d="M-33.96 225.37l.18.25-.09.06-.09-.31z"/><path id="Path_1098" class="st0" d="M-42.16 227.6l-.08-.01h-.08c.03-.13.05-.26.08-.39l.08.4z"/><path id="Path_1099" class="st0" d="M-12.19 222.77c.01-.05.01-.1 0-.15l.4.07-.4.08z"/><path id="Path_1100" class="st0" d="M-46.27 270.16c.04.19-.04.38-.21.49l-.1-.09c.01-.19.04-.37.26-.45l.05.05z"/><path id="Path_1101" class="st0" d="M-30.45 227.65l-.08-.03.09-.09.06.07-.07.05z"/><path id="Path_1102" class="st0" d="M-30.02 228.19l-.29-.12c.02-.03.04-.06.06-.08.09.05.17.11.26.16l-.03.04z"/><path id="Path_1103" class="st0" d="M-46.07 269.89c-.05-.22-.01-.39.23-.47l-.01-.01c.08.17 0 .37-.17.44-.02.01-.04.02-.06.02l.01.02z"/><path id="Path_1104" class="st0" d="M-40.52 273.34c.11-.18.25-.24.43-.09l-.33.22-.1-.13z"/><path id="Path_1105" class="st0" d="M-18.97 225.74l-.07.05-.06-.11c.03 0 .06-.02.09-.01s.03.04.04.07z"/><path id="Path_1106" class="st0" d="M-41.22 215.39c-.12-.07-.26-.15-.12-.3.03-.03.17.05.26.08l-.14.22z"/><path id="Path_1107" class="st0" d="M-30.95 215.58l.11-.15.07.16c-.06 0-.12 0-.18-.01z"/><path id="Path_1108" class="st0" d="M-42.81 216.53c-.01-.07-.02-.14-.02-.21l.1.16-.08.05z"/><path id="Path_1109" class="st0" d="M-40.08 216.17c.02.09.08.25.05.27-.12.08-.19-.02-.24-.13l.19-.14z"/><path id="Path_1110" class="st0" d="M-9.26 221.89l.05-.08-.06.07.01.01z"/><path id="Path_1111" class="st0" d="M-43.34 266.56l.24-.11c-.03.09-.05.18-.08.27-.05-.05-.11-.1-.16-.16z"/><path id="Path_1112" class="st0" d="M-36.04 223.15l.33.09-.33-.09z"/><path id="Path_1113" class="st0" d="M-37.1 225.65c.1-.03.25-.12.28-.09.15.15.02.25-.11.34l-.17-.25z"/><path id="Path_1114" class="st0" d="M-53.3 273.38l-.02.03.02-.03z"/><path id="Path_1115" class="st0" d="M-59.59 277.12l.04-.05-.05.03.01.02z"/><path id="Path_1116" class="st0" d="M-20.74 227.99l-.11.04-.07-.09.13-.11.05.16z"/><path id="Path_1117" class="st0" d="M-59.61 277.1c.07.17-.02.25-.17.3l-.08-.08c0-.12.1-.21.21-.21.02 0 .03 0 .05.01l-.01-.02z"/><path id="Path_1118" class="st0" d="M-20.4 224.72l-.25.23-.17-.19.21-.21.21.17z"/><path id="Path_1119" class="st0" d="M-20.23 228.65l-.19-.21.19.21z"/><path id="Path_1120" class="st0" d="M-46.08 269.88c0 .14-.03.25-.19.28l-.05-.05c.02-.14.07-.26.25-.21l-.01-.02z"/><path id="Path_1121" class="st0" d="M-35.27 223.97c-.1.02-.25.09-.28.05-.14-.16 0-.26.13-.34l.15.29z"/><path id="Path_1122" class="st0" d="M-51.45 221.69v.33l-.33-.26.14-.14c.07-.02.14.01.19.07z"/><path id="Path_1123" class="st0" d="M-45.84 269.42c0-.13.1-.24.23-.24h.02c-.01.16-.06.26-.25.23v.01z"/><path id="Path_1124" class="st0" d="M-56.09 274.07l-.18-.04c.14-.22.13 0 .17.06l.01-.02z"/><path id="Path_1125" class="st0" d="M-39.68 216.88c-.03-.09-.11-.25-.09-.26.13-.08.18.02.23.13-.05.04-.09.09-.14.13z"/><path id="Path_1126" class="st0" d="M-23.18 216.51c-.03-.15.06-.19.18-.21l-.18.21z"/><path id="Path_1127" class="st0" d="M-54.97 274.91l-.19-.14c.24-.2.17.02.19.14z"/><path id="Path_1128" class="st0" d="M-31.63 260.35c-.29.22-.34-.04-.43-.22.18-.01.36-.01.43.22z"/><path id="Path_1129" class="st0" d="M-78.05 250.78c-.17 2.76.96 5.44 3.07 7.23-1.52.52-4.88-.38-5.84-1.56-1.75-2.14-.27-5.17 2.77-5.67z"/><path id="Path_1130" class="st0" d="M-51.2 264.51c.34-.95.9-1.79 1.65-2.46.38-.43 1.04-.47 1.48-.09.03.02.05.05.08.08.51.48.18.95-.13 1.33-.39.42-.8.82-1.24 1.19l-1.84-.05z"/><path id="Path_1131" class="st0" d="M-51.2 264.51l1.84.05c-.4.35-.89.58-1.41.67-.74.12-.84-.15-.43-.72z"/><path id="Path_1132" class="st0" d="M-196.38 234.22c.04.21-.11.22-.24.24.03-.14.07-.26.24-.24z"/><path id="Path_1133" class="st0" d="M-197.56 247.96a3.715 3.715 0 01-2.32-2.32c2.12-1.25 4.02-2.83 6.07-4.2a6.44 6.44 0 012.19 1.86c1.13 1.31.99 3.3-.32 4.43-.09.08-.19.15-.29.22l-5.33.01z"/><path id="Path_1134" class="st0" d="M-193.81 241.45c-2.05 1.36-3.94 2.95-6.07 4.2-.91-1.91-.85-4.15.17-6a.789.789 0 011.12-.46c1.72.44 3.34 1.21 4.78 2.26z"/><path id="Path_1135" class="st0" d="M-207.48 238.4a12.19 12.19 0 01-2.66 5.22c-.08.08-.17.16-.26.23-.93.82-2.3.89-3.32.19-.66-.66-.46-1.97.6-2.99 1.5-1.45 3.45-1.99 5.64-2.65z"/><path id="Path_1136" class="st0" d="M-213.92 225.66c-.58-.01-1.16-.07-1.74-.02-.68.05-.77-.32-.75-.85 1.13-.65 2.26-.37 3.47-.1-.2.43-.55.78-.98.97z"/><path id="Path_1137" class="st0" d="M-209.89 220.81l-.3-.78.71-.02-.41.8z"/><path id="Path_1138" class="st0" d="M-26.82 222.71l.21.47c-.05.04-.1.08-.15.13l-.26-.45.2-.15z"/><path id="Path_1139" class="st0" d="M-26.61 223.17l.18.5-.1.09c-.2-.09-.2-.28-.24-.46.05-.05.1-.09.16-.13z"/><path id="Path_1140" class="st0" d="M-26.43 223.68c.05.13.1.27.14.41 0 .02-.05.05-.08.08l-.15-.39.09-.1z"/><path id="Path_1141" class="st0" d="M-26.67 224.61c.04.13.15.33.11.38-.15.16-.22-.07-.32-.14l.21-.24z"/></g></svg>