<svg version="1.1" id="Layer_1" xmlns="http://www.w3.org/2000/svg" xmlns:xlink="http://www.w3.org/1999/xlink" x="0" y="0" viewBox="0 0 110.06 165.79" xml:space="preserve"><style>.st4{fill:#fff}.st5{fill:#aa076b}</style><g id="Group_24" transform="translate(2649.769 -1672.748)"><linearGradient id="Path_157_1_" gradientUnits="userSpaceOnUse" x1="-2648.862" y1="1838.105" x2="-2648.053" y2="1837.404" gradientTransform="matrix(10.4741 0 0 -10.561 25179.52 21110.615)"><stop offset="0" stop-color="#aa076b"/><stop offset="1" stop-color="#61045f"/></linearGradient><path id="Path_157" d="M-2558.75 1697.59c-.24-.03-.47-.05-.71-.05a5.367 5.367 0 00-5.25 5.24 5.346 5.346 0 005.27 5.32c2.88-.02 5.2-2.36 5.2-5.23.01-.54-.07-1.08-.23-1.6a12.447 12.447 0 00-4.28-3.68z" fill="url(#Path_157_1_)"/><linearGradient id="Path_158_1_" gradientUnits="userSpaceOnUse" x1="-2648.974" y1="1838.054" x2="-2647.688" y2="1837.477" gradientTransform="matrix(5.7544 0 0 -11.193 12687.295 22288.957)"><stop offset="0" stop-color="#aa076b"/><stop offset="1" stop-color="#61045f"/></linearGradient><path id="Path_158" d="M-2555.61 1719.88a5.616 5.616 0 005.44 5.56c.22-1.87.32-3.75.32-5.64 0-1.86-.08-3.71-.27-5.56-3.06.09-5.5 2.59-5.49 5.64z" fill="url(#Path_158_1_)"/><linearGradient id="Path_159_1_" gradientUnits="userSpaceOnUse" x1="-2648.278" y1="1837.601" x2="-2647.944" y2="1837.101" gradientTransform="matrix(11.2251 0 0 -11.2013 27158.87 22304.215)"><stop offset="0" stop-color="#aa076b"/><stop offset="1" stop-color="#61045f"/></linearGradient><path id="Path_159" d="M-2568.97 1725.46c3.11.04 5.66-2.45 5.7-5.55.01-3.11-2.5-5.64-5.6-5.65h-.01a5.65 5.65 0 00-5.61 5.56c0 3.06 2.45 5.56 5.52 5.64z" fill="url(#Path_159_1_)"/><linearGradient id="Path_160_1_" gradientUnits="userSpaceOnUse" x1="-2648.83" y1="1838.116" x2="-2648.101" y2="1837.469" gradientTransform="matrix(11.2029 0 0 -11.0483 27109.488 22039.379)"><stop offset="0" stop-color="#aa076b"/><stop offset="1" stop-color="#61045f"/></linearGradient><path id="Path_160" d="M-2559.45 1730.57a5.525 5.525 0 00-5.58 5.49v.14a5.573 5.573 0 004.52 5.42c2.73-.96 5.07-2.79 6.66-5.21 0-.11.01-.22.01-.34a5.572 5.572 0 00-5.61-5.5z" fill="url(#Path_160_1_)"/><g id="Group_16" transform="translate(-2644.153 1776.931)"><path id="Path_161" class="st4" d="M.01.52C.01.27.13.15.36.15h3.81c.48 0 .96.09 1.41.28.42.18.8.44 1.12.77.32.33.57.71.74 1.14a3.592 3.592 0 01.01 2.71c-.17.42-.42.8-.74 1.12-.31.34-.69.6-1.1.78-.44.2-.92.3-1.4.29H1.49v3.97c.02.16-.09.32-.26.34H.35a.303.303 0 01-.34-.26V.52zM6.24 3.7c0-.27-.05-.54-.16-.78-.1-.25-.25-.47-.44-.66-.19-.2-.41-.36-.66-.47-.25-.12-.53-.17-.8-.17H1.49v4.16h2.69c.27 0 .54-.06.79-.17.24-.11.47-.27.66-.46.19-.19.34-.42.45-.66.1-.25.16-.52.16-.79z"/><path id="Path_162" class="st4" d="M14.95.52a.41.41 0 01-.09-.26c.01-.07.08-.1.2-.1h1.24l.11.02c.03.01.06.02.08.04.03.02.06.05.08.09.03.04.06.1.1.17l2.75 4.76h.02l2.8-4.82c.03-.08.09-.15.15-.2.06-.03.12-.05.18-.06h1.28c.11 0 .17.05.17.14-.01.07-.04.14-.08.2-.3.5-.61 1.01-.93 1.54s-.62 1.05-.93 1.58c-.31.53-.62 1.06-.94 1.58-.31.52-.63 1.04-.96 1.55v4.43c0 .25-.11.37-.34.37h-.82c-.22 0-.32-.12-.32-.37v-4.4L14.95.52z"/><path id="Path_163" class="st4" d="M39.08.15c.09 0 .18.03.25.08.08.06.12.15.13.25v.78c0 .1-.03.19-.09.27-.07.08-.18.12-.28.11H35.9v9.55c0 .09-.03.18-.09.24-.07.07-.16.11-.26.11h-.77c-.09 0-.18-.04-.25-.1a.34.34 0 01-.11-.25V1.64h-3.21c-.09 0-.18-.03-.25-.09a.374.374 0 01-.1-.28V.49c0-.09.03-.18.1-.24s.16-.1.25-.09l7.87-.01z"/><path id="Path_164" class="st4" d="M55.27.49c0-.09.03-.17.09-.24.06-.07.15-.1.25-.1h.77c.09 0 .18.03.25.09.08.06.12.15.11.24V11.2c0 .22-.12.34-.37.34h-.77a.303.303 0 01-.34-.26v-5H48.8v4.93c0 .22-.12.34-.37.34h-.77a.303.303 0 01-.34-.26V.49c0-.09.03-.17.09-.24.06-.07.15-.1.25-.1h.79c.09 0 .18.04.25.1.07.06.11.15.11.24v4.3h6.47l-.01-4.3z"/><path id="Path_165" class="st4" d="M70.82 0c.52 0 1.05.07 1.55.21.49.13.96.33 1.4.59.43.26.83.56 1.19.92.36.35.67.75.92 1.19a5.922 5.922 0 01.8 2.97c0 .53-.07 1.05-.21 1.55-.13.49-.33.96-.59 1.4-.25.43-.56.83-.92 1.18-.35.35-.75.66-1.19.91-.44.26-.91.45-1.4.59a5.922 5.922 0 01-3.12 0c-.49-.13-.96-.33-1.4-.59-.43-.25-.83-.56-1.18-.92-.35-.35-.66-.75-.91-1.18a5.867 5.867 0 010-5.91c.25-.43.56-.83.92-1.19.35-.36.75-.66 1.19-.92.44-.26.91-.45 1.4-.59.5-.14 1.03-.21 1.55-.21zm-4.38 5.84c0 .39.05.78.16 1.16.1.36.25.72.44 1.04.19.32.42.62.68.89.26.26.56.49.89.68.33.19.68.34 1.04.44.38.11.77.16 1.16.16.39 0 .78-.05 1.16-.16.37-.1.72-.25 1.04-.44.32-.19.62-.42.88-.68.27-.26.49-.56.68-.89.19-.33.34-.68.44-1.04.11-.38.16-.77.16-1.16 0-.58-.11-1.16-.34-1.7-.22-.52-.54-.99-.94-1.38-.4-.4-.87-.71-1.38-.94-.54-.23-1.12-.35-1.7-.34-.39 0-.78.05-1.16.16-.36.1-.72.25-1.04.44-.32.19-.62.42-.89.68-.26.26-.49.56-.68.88-.19.33-.34.68-.44 1.04-.11.37-.17.76-.16 1.16z"/><path id="Path_166" class="st4" d="M93.4 11.54c-.12 0-.23-.07-.29-.17L86.4 2.4v8.81c0 .22-.12.34-.35.34h-.77a.303.303 0 01-.34-.26V.5c0-.09.03-.18.09-.25s.15-.1.25-.1h1.03c.13 0 .25.06.32.17L93.15 9V.44c.01-.17.16-.3.33-.29h.78c.09 0 .18.03.26.09.08.06.12.15.12.24V11.2c0 .22-.13.34-.38.34h-.86z"/></g><g id="Group_17" transform="translate(-2644.021 1792.616)"><path id="Path_167" class="st4" d="M9.05 3.7c0 .48-.1.97-.29 1.41-.18.43-.46.81-.81 1.13.27.15.51.34.73.56a3.67 3.67 0 01.92 1.57c.08.31.12.63.12.94 0 .49-.09.99-.28 1.44-.18.45-.44.86-.77 1.21s-.72.63-1.15.83c-.44.21-.94.32-1.43.32H.41c-.1 0-.21-.03-.29-.1a.356.356 0 01-.11-.29V.6c0-.28.13-.42.4-.42h5.11c.48 0 .96.09 1.4.27A3.366 3.366 0 018.78 2.3c.19.45.28.92.27 1.4zm-1.7 0c0-.25-.04-.5-.14-.74-.08-.22-.21-.42-.37-.59-.17-.17-.37-.3-.59-.38-.24-.1-.49-.14-.75-.14H1.67v3.78h3.81c.26 0 .51-.05.74-.15.22-.09.42-.23.59-.41.17-.18.3-.39.39-.61.11-.25.16-.5.15-.76zM1.67 7.29v4.16h4.4c.26 0 .52-.06.76-.17.24-.11.45-.27.62-.46.18-.2.32-.43.42-.68.1-.26.15-.54.15-.81s-.05-.53-.15-.77a1.996 1.996 0 00-1.03-1.11c-.24-.11-.5-.17-.77-.16h-4.4z"/><path id="Path_168" class="st4" d="M18.76.61c0-.28.13-.42.38-.42h5.02a4.082 4.082 0 013.79 2.53c.21.51.32 1.05.32 1.6a4.191 4.191 0 01-.64 2.21c-.2.32-.45.61-.73.86-.29.25-.6.46-.95.63l2.3 4.71v.11c0 .18-.11.27-.32.27h-1.05a.474.474 0 01-.42-.32L24.37 8.4c-.05.01-.1.01-.15.01h-3.77v4.31c0 .26-.13.38-.4.38h-.9c-.18.03-.36-.1-.38-.29v-.1L18.76.61zm7.85 3.7c0-.32-.06-.63-.19-.92a2.438 2.438 0 00-1.28-1.33c-.31-.14-.64-.2-.97-.2h-3.71v4.91h3.75c.33 0 .66-.07.96-.2.29-.13.55-.31.76-.54.21-.23.38-.49.5-.78.12-.3.18-.62.18-.94z"/><path id="Path_169" class="st4" d="M38.73 12.78c-.04.09-.1.17-.17.23-.08.06-.18.09-.29.09h-.92c-.27 0-.4-.1-.4-.3v-.1c0-.02.01-.05.01-.07 0-.02.01-.04.02-.06L42 .51c.01-.03.03-.06.04-.1a.36.36 0 01.07-.1c.04-.04.08-.06.13-.08a.57.57 0 01.22-.04h.57c.07 0 .14.01.21.04a.36.36 0 01.19.18c.02.04.03.07.04.1l4.98 12.06c0 .03.01.06.02.09s.01.06.02.08c.01.02.01.04.01.06 0 .2-.13.3-.4.3h-.92c-.1 0-.2-.03-.29-.09a.48.48 0 01-.17-.23l-.96-2.39h-6.11c-.2.52-.39.98-.56 1.4-.16.42-.29.75-.36.99zm1.62-4.07h4.74l-2.35-5.95-2.39 5.95z"/><path id="Path_170" class="st4" d="M64.27 3.01c-.08-.05-.21-.15-.4-.3-.22-.17-.44-.33-.68-.46-.29-.17-.59-.31-.91-.42-.35-.13-.72-.19-1.09-.19-.4-.01-.8.05-1.18.17-.3.09-.58.24-.82.44-.2.17-.37.38-.47.62-.1.22-.15.45-.15.69-.01.3.11.6.32.82.25.24.54.44.85.57.39.18.79.32 1.2.44.45.13.91.27 1.37.41.47.14.92.3 1.37.49.43.17.83.39 1.2.67.35.26.64.58.85.96.22.41.34.88.32 1.35.01.57-.12 1.14-.38 1.66-.25.49-.6.93-1.03 1.27-.46.36-.98.64-1.54.81-.62.2-1.26.29-1.91.29-.45 0-.9-.05-1.34-.15-.44-.1-.87-.25-1.28-.44a5.754 5.754 0 01-2.09-1.67.43.43 0 01-.11-.28c.01-.11.07-.2.15-.26l.69-.57c.09-.09.19-.13.29-.13.1.01.19.07.25.15l.11.11c.24.27.52.51.83.71.29.19.61.36.93.5.29.12.59.22.89.29.24.06.48.09.72.1.37 0 .73-.05 1.09-.14.36-.09.7-.23 1.02-.43.3-.19.56-.43.76-.73.2-.31.31-.66.3-1.03.01-.31-.1-.6-.29-.84-.22-.25-.49-.45-.79-.6-.37-.19-.76-.34-1.16-.46-.44-.13-.92-.28-1.42-.43-.61-.17-1.21-.39-1.79-.64-.44-.19-.86-.44-1.23-.74-.3-.24-.54-.55-.71-.9-.16-.35-.23-.74-.23-1.13-.01-.5.1-1 .32-1.45.21-.44.52-.83.9-1.14.42-.33.89-.59 1.4-.74.6-.18 1.22-.27 1.84-.27.38 0 .77.05 1.14.14.4.09.78.22 1.15.39.37.16.72.36 1.05.59.31.22.6.47.85.76.07.07.12.17.13.27 0 .11-.05.21-.14.27L64.8 3c-.07.08-.18.12-.28.12-.09.02-.18-.03-.25-.11z"/><path id="Path_171" class="st4" d="M75.39.57c0-.1.03-.2.1-.27.07-.08.18-.12.28-.11h.9c.1 0 .2.03.28.1.08.07.13.17.12.28v12.15c0 .26-.13.38-.4.38h-.9c-.18.03-.36-.1-.38-.29V.57z"/><path id="Path_172" class="st4" d="M94.64 11.42a.377.377 0 01.38.41v.9c0 .1-.03.2-.1.27-.07.08-.17.12-.28.11h-7.39c-.18.03-.36-.1-.38-.29V.58c0-.1.03-.2.1-.27.08-.08.19-.12.3-.11h.9c.1 0 .2.03.27.1.08.07.12.18.11.29v10.85l6.09-.02z"/></g><g id="Group_18" transform="translate(-2649.769 1799.936)"><path id="Path_173" class="st5" d="M11.85 23.98c-1.61 1.34-3.19 2.71-4.84 4-1.52 1.19-3.14 2.26-4.67 3.45-.84.5-1.37 1.39-1.43 2.36 1.86-2.73 4.66-4.14 7.08-6.01.65-.5 1.43-.83 2.09-1.32 1.28-.83 2.49-1.78 3.6-2.83 1.75-1.88 3.4-3.85 4.93-5.91 1.66-2.27 2.46-5.06 2.25-7.86-.03-.77-.05-1.59-.93-2.03-.16-.08-.21-.39-.34-.66l.49.12c-.03-.1-.02-.2-.07-.26-.74-.85-1.52-1.66-2.24-2.53-1.31-1.6-3.11-1.48-4.87-1.39-.48.02-.95.46-1.43.69-1.49.71-2.95 1.49-4.48 2.11-1.91.77-1.77 2.7-2.48 4.13-.25.75-.44 1.51-.54 2.29-.12-1.37-.59-2.74.14-4.11.61-1.13 1.23-2.26 1.83-3.4.04-.16.06-.34.04-.51-1.27.95-1.64 2.3-2.39 3.47.05-.29.12-.57.22-.85.99-2.7 3.05-4.87 5.7-6.01a11.55 11.55 0 0110.23.56c1.53.95 2.71 2.37 3.36 4.05 2.17 4.73 1.62 9.28-1.07 13.64a29.215 29.215 0 01-5.69 6.98c-1.52 1.31-3.04 2.61-4.61 3.86-1.03.82-2.15 1.53-3.22 2.3-.2.2-.37.42-.53.66h2.52c1.73 0 3.46-.05 5.19.01.65.02 1.29.35 1.95.41.84.07 1.7.01 2.55.01.99 0 1.98.01 2.98.02 5.04.04 10.07.09 15.11.14 2.22.02 4.44 0 6.66 0v.22h-10.9v.31h9.75l.01.22-1.27.1v.16c2.67 0 5.34-.05 8.01.01 2.71.07 5.41.33 8.12.36 2.68.03 5.35-.15 8.03-.18 2.72-.03 5.43-.01 8.16-.01h-1.9l.01.23c.71 0 1.41-.03 2.12.01 2.42.14 4.84.3 7.25.46 1.86.12 3.72.24 5.58.41l-25.09.58v.1h12.66v.23l-11.8.31v.13h12.57v.19h-8.58v.3h24.9v.39H26.02v.22h6.97v.31H19.53l1.96-.25v-.21h-4.45c-2.06 0-4.14.1-6.2 0-2.51-.12-5.02-.34-7.51-.68A6.38 6.38 0 01.8 36.34c-.68-.47-.97-1.32-.72-2.11.26-1.12.9-2.13 1.8-2.85 1.87-1.47 3.74-2.93 5.64-4.34 1.42-1.05 2.89-2.02 4.33-3.03v-.03zm34.73 11.35l-.02.12h5.63v-.12h-5.61zm-17.73-.52v.05h7.25v-.05h-7.25zm-7.36-29.6a3.066 3.066 0 00-2.24-2.37l2.24 2.37zm36.37 30.2v-.16h-3.84v.16h3.84z"/><path id="Path_174" class="st5" d="M41.88 25.51c-.34 1.44-1.55 1.39-2.65 1.54-.48.07-.97.08-1.45.19 1.99.27 4.01-.23 5.64-1.4 5.27-3.45 8.2-8.29 8.37-14.68-.05-1.64-.46-3.25-1.19-4.73l.58.75c.37-.53.26-.8-.71-1.79.03-.03.09-.1.1-.09 1.69.8 2.59 2.66 2.16 4.48.05.62.21 1.23.48 1.8.15.38.24.78.27 1.18-.08 1.26-.24 2.51-.37 3.77l.36.05c.23-1.17.47-2.33.7-3.5l.14.01v1.12c.86-3.39.61-9.53-4.58-12.89.32.18.62.38.95.54.67.33.85 1.36 1.91 1.24.26-.03.63.7.91 1.11 1.3 2 2.02 4.32 2.08 6.71.16 3-.37 5.99-1.54 8.76-1.55 3.9-4.26 7.23-7.77 9.53a13.824 13.824 0 01-9.34 2.37 9.672 9.672 0 01-8.23-6.53c-1.32-3-1.65-6.34-.96-9.55.35-1.37.95-2.67 1.43-4.01.31-.87.63-1.74.94-2.61l.22.07-.58 2.14.21.1c.63-1.05 1.27-2.1 1.9-3.15.1-.18.16-.52.27-.53 1.08-.15 1.66-1.04 2.46-1.81l-.46 1.4.64-.26c-.09.44-.15.88-.27 1.29-.4 1.38-.81 2.75-1.25 4.12-.32 1.02-.69 2.03-1.03 3.04-.59 1.74-.14 3.52.09 5.22.16 1.67.89 3.23 2.05 4.43a5.87 5.87 0 004.46 1.85c.76-.11 1.48-.39 2.12-.81.31-.15.63-.3.94-.46v-.01z"/><path id="Path_175" class="st5" d="M71.27 28.79h-2.49l-.01.17 2.71.43c-1.72.77-3.67.82-5.42.12-.31-.11-.65-.09-.95.03-1.78.77-3.67.38-5.5.58-.48.1-.95.25-1.4.44l.07.33 3.36-.26.02.32-1.21.07v.18l13.53.35c-.04.06-.06.14-.09.14-4.96.5-9.96.57-14.93.22-.99-.09-1.94-.39-2.81-.86a2.515 2.515 0 01-1.2-3.7c1.02-1.92 2.48-3.57 4.25-4.83 3.37-2.78 6.76-5.52 10.07-8.37a17.1 17.1 0 002.47-2.96c1.19-1.62.85-3.37.08-5.01-.6-.94-1.64-1.5-2.75-1.48-1.23-.14-2.54-.7-3.67.33-.53.52-1.11.99-1.72 1.4l1.04-1.46a3.84 3.84 0 00-2.65 2.44c-.05.13-.14.25-.25.34-1.07.73-1.07.73-1.54 1.68-.29-.25.18-1.1-.71-.84.17-1.87.87-3.65 2.01-5.15a4.71 4.71 0 012.65-1.96c.68-.15 1.3-.55 1.98-.68 2.21-.59 4.56-.41 6.66.51 1.06.56 1.96 1.38 2.63 2.38a10.2 10.2 0 011.58 6.8 6.115 6.115 0 01-1.22 2.88c-1.33 1.74-2.86 3.32-4.28 4.98-.56.66-1.06 1.38-1.58 2.08l-.31-.13c.1-.38.2-.77.32-1.24-1.15.95-2.23 1.88-3.36 2.76-1.73 1.34-3.5 2.63-5.22 3.98-.55.43-1.05.93-1.46 1.49-.35.49-.02.95.5 1.04.72.09 1.44.12 2.16.09 2.89.01 5.77 0 8.66 0l-.02.37zm2.27-12.95l-.03-.03-2.77 2.96-.04-.04 2.84-2.89zm-14.82 13.7c-.84-.24-1.34-.71-1.03-1.72-.76 1.1-.44 1.6 1.03 1.72z"/><path id="Path_176" class="st5" d="M83.27 10.05l-.49 1.13.25.16 1.78-2.47.25.12c-.04.17-.02.38-.11.51-.89 1.17-.18 2.42-.23 3.63-.01.36-.28.71-.32 1.07-.06.56-.06 1.13-.01 1.69.07.81.34 1.58.46 2.39.13.95.49 1.86 1.03 2.64.7.84 1.5 1.6 2.38 2.26.92.78 2-.03 2.99.18.4.04.8-.06 1.14-.29-1.1-.08-2.19-.22-3.27-.43a3.555 3.555 0 01-2.44-2.04c.41.43.85.83 1.3 1.21.34.26.73.45 1.14.56 1.81.54 3.76.39 5.47-.43 1.16-.68 2.28-1.42 3.35-2.23l-.16-.25-.41.09 2.3-3.19.12.05-.6 1.43.26.1c.34-.8.63-1.62.86-2.45.3-1.15.48-2.33.54-3.51.11-1.83-.52-3.63-1.74-5a5.986 5.986 0 00-5.19-1.79c-.54.03-1.08.19-1.62.21 2.61-1.02 5.01-.03 7.56.66l-2.37-1.75.03-.1 1.92.94a8.234 8.234 0 00-6.31-2.06c.77-.13 1.53-.25 2.3-.39 1.3-.22 2.63-.04 3.84.49 1.22.46 2.21 1.39 2.74 2.58.31.68.67 1.34 1.07 1.97.7 1.09 1.05 2.37.99 3.67-.11 1.92.73 3.89-.29 5.77.58 1.4-.51 2.26-1.11 3.23-.63 1.03-1.51 1.9-2.16 2.92a6.774 6.774 0 01-3.44 2.61c-1.14.45-2.31.79-3.51 1.02-2.21.42-4.48.24-6.6-.51a7.42 7.42 0 01-2.52-1.85 10.214 10.214 0 01-2.82-5.24c-.52-2.22-.47-4.53.15-6.72.34-.94.74-1.86 1.2-2.75l.3.16z"/><path id="Path_177" class="st5" d="M41.9 25.52l.78-.14c.23-.3.48-.58.74-.84 1.16-1.02 2.33-2.02 3.5-3.02.17-.15.33-.3.54-.48-.17 1.08-.89 2-1.9 2.42-.41.12-.73.55-1.07.87-.2.18-.32.52-.54.58-.69.21-1.21 1-2.06.6l.01.01z"/><path id="Path_178" class="st5" d="M68.36 21.39c-.21.34-.45.66-.73.94-1.31 1.03-2.64 2.02-3.98 3.01-.3.2-.61.38-.94.55l-.22-.28a8.9 8.9 0 011.92-1.54c.75-.24 1.4-.69 1.9-1.3.54-.58 1.15-1.08 1.82-1.5l.23.12z"/><path id="Path_179" class="st5" d="M18.81 15.81a17.47 17.47 0 01-3.65 5.2l-.18-.13 3.83-5.07z"/><path id="Path_180" class="st5" d="M36.28 3.66C37.47 2.1 39.06.89 40.89.15l-4.61 3.51z"/><path id="Path_181" class="st5" d="M41.43 3.41a4.117 4.117 0 013.95-.92l-3.95.92z"/><path id="Path_182" class="st5" d="M87.27 32.32h-4.99v-.17h4.98l.01.17z"/><path id="Path_183" class="st5" d="M83.93 29.44h-4.7v-.17h4.68l.02.17z"/><path id="Path_184" class="st5" d="M11.87 24l2.58-2.94.41.43-3.01 2.49.02.02z"/><path id="Path_185" class="st5" d="M105.14 11.77l-.31 3.64-.2-.02c.16-1.2.33-2.41.49-3.61l.02-.01z"/><path id="Path_186" class="st5" d="M77.91 37.26h3.81v.08h-3.81v-.08z"/></g><path id="Path_187" class="st4" d="M-2625.26 1793.23c0-.28.13-.42.38-.42h5.02a4.082 4.082 0 013.79 2.53c.21.51.32 1.05.32 1.6a4.191 4.191 0 01-.64 2.21c-.2.32-.45.61-.73.86-.29.25-.6.46-.95.63l2.3 4.71v.11c0 .18-.11.27-.32.27h-1.05a.474.474 0 01-.42-.32l-2.09-4.38c-.05.01-.1.01-.15.01h-3.77v4.31c0 .26-.13.38-.4.38h-.9c-.18.03-.36-.1-.38-.29v-.1l-.01-12.11zm7.85 3.7c0-.32-.06-.63-.19-.92-.12-.29-.29-.56-.51-.78-.22-.23-.48-.41-.77-.54-.31-.14-.64-.2-.97-.2h-3.71v4.91h3.75c.33 0 .66-.07.96-.2.29-.13.55-.31.76-.54.21-.23.38-.49.5-.78.12-.32.18-.64.18-.95z"/><path id="Path_188" class="st4" d="M-2605.29 1805.4c-.04.09-.1.17-.17.23-.08.06-.18.09-.29.09h-.92c-.27 0-.4-.1-.4-.3v-.1c0-.02.01-.05.01-.07 0-.02.01-.04.02-.06l5.02-12.06c.01-.03.03-.06.04-.1a.36.36 0 01.07-.1c.04-.04.08-.06.13-.08a.57.57 0 01.22-.04h.57c.07 0 .14.01.21.04a.36.36 0 01.19.18c.02.04.03.07.04.1l4.98 12.06c0 .03.01.06.02.09s.01.06.02.08c.01.02.01.04.01.06 0 .2-.13.3-.4.3h-.92c-.1 0-.2-.03-.29-.09a.48.48 0 01-.17-.23l-.96-2.39h-6.11c-.2.52-.39.98-.56 1.4-.17.42-.29.75-.36.99zm1.62-4.08h4.74l-2.35-5.95-2.39 5.95z"/><path id="Path_189" class="st4" d="M-2568.63 1793.19c0-.1.03-.2.1-.27.07-.08.18-.12.28-.11h.9c.1 0 .2.03.28.1.08.07.13.17.12.28v12.15c0 .26-.13.38-.4.38h-.9c-.18.03-.36-.1-.38-.29v-12.24z"/><g transform="translate(-2639.392 1798.609)" id="Group_20"><defs><path id="SVGID_1_" d="M5.72.42C3.62-.47.43.14.05 1.55c-.29 1.09 1.17 2.37 2.13 3.21.98.86 1.71 1.5 2.55 1.37 1.72-.26 3-3.61 1.94-5.06-.25-.29-.58-.52-.95-.65z"/></defs><clipPath id="SVGID_2_"><use xlink:href="#SVGID_1_" overflow="visible"/></clipPath><g id="Group_19" clip-path="url(#SVGID_2_)"><path id="Path_190" class="st4" d="M4.43-2.3c0 .48-.1.97-.29 1.41-.19.43-.47.82-.82 1.13a3.677 3.677 0 011.29 1.3c.16.26.28.54.36.84.08.31.13.62.12.94a3.838 3.838 0 01-1.04 2.65c-.33.35-.72.63-1.15.83-.45.21-.94.32-1.44.31h-5.68c-.1 0-.21-.03-.29-.1a.344.344 0 01-.11-.29V-5.39c0-.28.13-.42.4-.42H.89c.48 0 .96.09 1.4.27.41.17.79.43 1.12.74.32.32.57.7.74 1.11.19.44.28.92.28 1.39zm-1.7 0c0-.25-.04-.5-.14-.74a1.77 1.77 0 00-.38-.58c-.17-.17-.37-.3-.59-.38-.24-.1-.49-.14-.75-.14h-3.83v3.78H.85c.26 0 .51-.05.74-.15.22-.09.42-.23.59-.41.17-.18.3-.39.39-.61.11-.25.16-.51.16-.77zm-5.68 3.59v4.16h4.4c.26 0 .52-.06.76-.17.24-.11.45-.27.62-.46.17-.21.32-.44.41-.69.1-.25.16-.53.15-.81 0-.27-.05-.53-.15-.77-.1-.24-.24-.46-.41-.65-.18-.18-.39-.33-.62-.44-.24-.11-.5-.17-.77-.17h-4.39z"/></g></g><g transform="translate(-2558.394 1802.675)" id="Group_22"><defs><path id="SVGID_3_" d="M.33 1.38C.88.71 1.77 1.1 3.8.95 6.88.73 7.48-.38 9.28.13c.94.27 2.31 1 2.41 2 .14 1.49-2.62 2.98-4.76 3.45-2 .44-5.28.39-6.46-1.56-.54-.78-.6-1.8-.14-2.64z"/></defs><clipPath id="SVGID_4_"><use xlink:href="#SVGID_3_" overflow="visible"/></clipPath><g id="Group_21" clip-path="url(#SVGID_4_)"><path id="Path_192" class="st4" d="M9.01 1.36a.377.377 0 01.38.41v.9c0 .1-.03.2-.1.27-.07.08-.17.12-.28.11H1.62c-.18.03-.36-.1-.38-.29V-9.48c0-.1.03-.2.1-.27.08-.08.19-.12.3-.11h.9c.1 0 .2.03.27.1.08.07.12.18.11.29V1.37l6.09-.01z"/></g></g><linearGradient id="Path_194_1_" gradientUnits="userSpaceOnUse" x1="-2648.278" y1="1837.601" x2="-2647.944" y2="1837.101" gradientTransform="matrix(11.2251 0 0 -11.2013 27168.47 22287.074)"><stop offset="0" stop-color="#aa076b"/><stop offset="1" stop-color="#61045f"/></linearGradient><path id="Path_194" d="M-2559.37 1708.32c3.11.04 5.66-2.45 5.7-5.55.01-3.11-2.5-5.64-5.6-5.65h-.01a5.65 5.65 0 00-5.61 5.56c0 3.06 2.45 5.56 5.52 5.64z" fill="url(#Path_194_1_)"/><linearGradient id="Path_195_1_" gradientUnits="userSpaceOnUse" x1="-2648.329" y1="1837.677" x2="-2648.033" y2="1837.419" gradientTransform="matrix(11.2251 0 0 -11.2013 27177.64 22304.184)"><stop offset="0" stop-color="#aa076b"/><stop offset="1" stop-color="#61045f"/></linearGradient><path id="Path_195" d="M-2550.2 1725.42c3.11.04 5.66-2.45 5.7-5.55.01-3.11-2.5-5.64-5.6-5.65h-.01a5.65 5.65 0 00-5.61 5.56c0 3.07 2.45 5.57 5.52 5.64z" fill="url(#Path_195_1_)"/><linearGradient id="Path_196_1_" gradientUnits="userSpaceOnUse" x1="-2648.278" y1="1837.601" x2="-2647.944" y2="1837.101" gradientTransform="matrix(11.2261 0 0 -11.2013 27170.87 22320.441)"><stop offset="0" stop-color="#aa076b"/><stop offset="1" stop-color="#61045f"/></linearGradient><path id="Path_196" d="M-2559.56 1741.68c3.11.04 5.66-2.45 5.7-5.55.01-3.11-2.5-5.64-5.6-5.65h-.01a5.65 5.65 0 00-5.61 5.56c0 3.07 2.45 5.57 5.52 5.64z" fill="url(#Path_196_1_)"/><linearGradient id="Path_197_1_" gradientUnits="userSpaceOnUse" x1="-2648.299" y1="1837.609" x2="-2647.965" y2="1837.109" gradientTransform="matrix(9.114 0 0 -9.0955 21561.074 18418.15)"><stop offset="0" stop-color="#aa076b"/><stop offset="1" stop-color="#61045f"/></linearGradient><path id="Path_197" d="M-2576.1 1708.11c2.52.03 4.6-1.98 4.63-4.51a4.575 4.575 0 00-4.55-4.59h-.01a4.6 4.6 0 00-4.56 4.51c.01 2.49 2 4.53 4.49 4.59z" fill="url(#Path_197_1_)"/><linearGradient id="Path_198_1_" gradientUnits="userSpaceOnUse" x1="-2648.299" y1="1837.609" x2="-2647.965" y2="1837.109" gradientTransform="matrix(9.114 0 0 -9.0955 21592.836 18418.15)"><stop offset="0" stop-color="#aa076b"/><stop offset="1" stop-color="#61045f"/></linearGradient><path id="Path_198" d="M-2544.34 1708.11c2.52.03 4.6-1.98 4.63-4.51a4.575 4.575 0 00-4.55-4.59h-.01a4.6 4.6 0 00-4.56 4.51c.02 2.49 2 4.53 4.49 4.59z" fill="url(#Path_198_1_)"/><linearGradient id="Path_199_1_" gradientUnits="userSpaceOnUse" x1="-2648.196" y1="1837.576" x2="-2648.675" y2="1838.022" gradientTransform="matrix(69.5083 0 0 -70.2719 181490.36 130866.46)"><stop offset="0" stop-color="#aa076b"/><stop offset="1" stop-color="#61045f"/></linearGradient><path id="Path_199" d="M-2558.28 1719.88a8.232 8.232 0 017.81-8.28c-.32-2.02-.85-4-1.58-5.91a7.855 7.855 0 01-7.38 5.04c-4.3.07-7.84-3.35-7.91-7.65v-.27a7.75 7.75 0 013.18-6.36h-7.1v1.97a7.191 7.191 0 012.23 5.31 7.166 7.166 0 01-2.27 5.16c-.09 1.11-.29 2.2-.6 3.27.99-.38 2.04-.57 3.11-.57 4.56.02 8.24 3.74 8.22 8.3v.03c-.05 4.57-3.78 8.25-8.36 8.22-4.55-.03-8.22-3.75-8.19-8.3v-.06c0-.17.01-.33.02-.49a13.992 13.992 0 01-7.34 1.81h-22.72c-.93.01-1.86.11-2.78.3l-.03.12c-.93.18-1.85.45-2.74.79-2.56.94-4.69 2.8-5.96 5.21h-.02c-.12.24-.23.49-.33.75-.04.08-.07.17-.1.26l-.02.04c-.48 1.24-.74 2.55-.77 3.87-.05 1.57-.07 3.14-.07 4.71 0 3.85.02 7.71.02 11.56 0 .26 0 .52.01.78h.01v4.68s-1.94 12.55 23.15 12.55c24 0 22.5-10.41 22.5-10.41l-.03-10.78h-22.9v-.77c.01-.34 0-.68 0-1.02v-.99c.02-.35.11-.36.63-.36h2.5v-.11h28.88s.09.01.25.02a8.237 8.237 0 01-2.74-6.17 8.254 8.254 0 018.22-8.29h.04c3.24.01 6.19 1.9 7.55 4.84.57-1.48 1.01-3.02 1.31-4.58a8.237 8.237 0 01-7.7-8.22zm-25.88 31.35c2.27 0 4.12 1.84 4.12 4.11v.01c0 2.27-1.84 4.12-4.11 4.12h-.01c-2.27 0-4.12-1.84-4.12-4.11v-.01c0-2.28 1.84-4.12 4.12-4.12-.01 0 0 0 0 0z" fill="url(#Path_199_1_)"/><linearGradient id="Path_200_1_" gradientUnits="userSpaceOnUse" x1="-2647.9" y1="1837.313" x2="-2648.76" y2="1838.139" gradientTransform="matrix(70.3848 0 0 -70.5676 183787.5 131386.438)"><stop offset="0" stop-color="#aa076b"/><stop offset="1" stop-color="#61045f"/></linearGradient><path id="Path_200" d="M-2576.14 1710.49c-3.83-.1-6.89-3.22-6.9-7.05a7.07 7.07 0 017.01-6.94c.68 0 1.36.1 2.01.3-.01-1.93-.01-3.86-.02-5.79 0-1.83-.08-3.67.02-5.5.15-2.36-.64-4.69-2.19-6.47-1.67-1.87-3.8-3.28-6.17-4.09a30.147 30.147 0 00-8.44-1.85c-2.22-.18-4.46-.36-6.68-.34-2.44.02-4.89.22-7.32.44-2.67.23-5.29.82-7.8 1.77-2.02.69-3.84 1.87-5.31 3.42a6.388 6.388 0 00-1.85 4.22c-.03 3.61 0 7.21-.01 10.82 0 .38.11.51.5.5 1.39-.02 2.77-.01 4.16-.01h17.8c.43 0 .6.1.58.56-.04.74-.01 1.48-.01 2.22 0 .63 0 .63-.63.63h-32.28c-2.42 0-4.78.71-6.8 2.04a15.049 15.049 0 00-5.62 7.05c-1.88 4.44-2.26 9.14-2.28 13.89-.01 1.55.14 3.1.25 4.66.15 2.22.53 4.43 1.13 6.57.71 2.93 2.11 5.65 4.08 7.94 2.15 2.51 5.31 3.92 8.61 3.86 2.24-.03 4.47-.01 6.71 0 .61 0 .61 0 .61-.61v-10.17c-.02-1.76.23-3.5.73-5.19.79-2.99 2.72-5.55 5.38-7.12 2.02-1.14 4.31-1.72 6.63-1.69 7.66-.01 15.32 0 22.98-.01 2.05.01 4.09-.37 6-1.11 3.23-1.17 5.72-3.8 6.71-7.09-.53.1-1.06.15-1.59.14zm-33.84-22.15a4.206 4.206 0 01-4.16-4.24 4.178 4.178 0 014.16-4.2h.03a4.21 4.21 0 014.22 4.2v.03a4.232 4.232 0 01-4.25 4.21z" fill="url(#Path_200_1_)"/><g id="Group_23" transform="translate(-2565.975 1677.619)"><linearGradient id="Path_201_1_" gradientUnits="userSpaceOnUse" x1="-82.207" y1="160.087" x2="-81.532" y2="159.643" gradientTransform="matrix(9.6479 0 0 -14.3911 799.53 2310.494)"><stop offset="0" stop-color="#aa076b"/><stop offset="1" stop-color="#61045f"/></linearGradient><path id="Path_201" d="M1.99 0C.91.03.04.9.01 1.98c-.01.25-.12 6.18 3.61 9.91 1.12 1.1 2.46 1.95 3.93 2.51V9.01c0-2.52.73-4.99 2.1-7.1A16.195 16.195 0 001.99 0z" fill="url(#Path_201_1_)"/><linearGradient id="Path_202_1_" gradientUnits="userSpaceOnUse" x1="-82.252" y1="159.992" x2="-81.577" y2="159.548" gradientTransform="matrix(11.0488 0 0 -20.2789 927.084 3255.618)"><stop offset="0" stop-color="#aa076b"/><stop offset="1" stop-color="#61045f"/></linearGradient><path id="Path_202" d="M20.64 0c-4.98 0-9.01 4.03-9.02 9.01v9.24c.77.57 1.45 1.25 2.03 2.02.58-.77 1.26-1.45 2.03-2.02V9.01c0-2.73 2.22-4.95 4.95-4.95 1.12 0 2.03-.91 2.03-2.03A2.01 2.01 0 0020.64 0z" fill="url(#Path_202_1_)"/></g></g></svg>