<?xml version="1.0" encoding="UTF-8" standalone="no"?>
<!-- Created with Inkscape (http://www.inkscape.org/) -->

<svg
   width="41.274994mm"
   height="41.274994mm"
   viewBox="0 0 41.274994 41.274994"
   version="1.1"
   id="svg5"
   xml:space="preserve"
   inkscape:version="1.2.2 (1:1.2.2+202305151914+b0a8486541)"
   sodipodi:docname="guia.svg"
   xmlns:inkscape="http://www.inkscape.org/namespaces/inkscape"
   xmlns:sodipodi="http://sodipodi.sourceforge.net/DTD/sodipodi-0.dtd"
   xmlns="http://www.w3.org/2000/svg"
   xmlns:svg="http://www.w3.org/2000/svg"><sodipodi:namedview
     id="namedview7"
     pagecolor="#ffffff"
     bordercolor="#666666"
     borderopacity="1.0"
     inkscape:showpageshadow="2"
     inkscape:pageopacity="0.0"
     inkscape:pagecheckerboard="0"
     inkscape:deskcolor="#d1d1d1"
     inkscape:document-units="mm"
     showgrid="false"
     inkscape:zoom="0.4204826"
     inkscape:cx="469.69839"
     inkscape:cy="638.55198"
     inkscape:window-width="1920"
     inkscape:window-height="1016"
     inkscape:window-x="0"
     inkscape:window-y="27"
     inkscape:window-maximized="1"
     inkscape:current-layer="layer1" /><defs
     id="defs2" /><g
     inkscape:label="Camada 1"
     inkscape:groupmode="layer"
     id="layer1"
     transform="translate(264.23786,-341.23691)"><g
       id="g858"
       style="fill:#08293c;fill-opacity:1"
       transform="matrix(0.26458333,0,0,0.26458333,-264.23786,341.23689)"><g
         id="Grupo_57"
         data-name="Grupo 57"
         style="fill:#08293c;fill-opacity:1"><g
           id="Grupo_56"
           data-name="Grupo 56"
           style="fill:#08293c;fill-opacity:1"><path
             id="Caminho_1164"
             data-name="Caminho 1164"
             d="m 141.372,5.769 c -3.11,2.486 -5.793,4.631 -11.383,4.631 -5.59,0 -8.276,-2.145 -11.383,-4.631 C 115.224,3.065 111.392,0 103.977,0 96.562,0 92.737,3.065 89.354,5.769 86.25,8.255 83.569,10.4 77.982,10.4 72.395,10.4 69.711,8.255 66.6,5.769 63.224,3.065 59.392,0 51.979,0 44.566,0 40.737,3.065 37.357,5.772 34.257,8.255 31.572,10.4 25.987,10.4 20.402,10.4 17.722,8.255 14.617,5.769 11.237,3.065 7.41,0 0,0 v 5.2 c 5.582,0 8.263,2.145 11.367,4.628 3.38,2.707 7.21,5.772 14.62,5.772 7.41,0 11.24,-3.065 14.622,-5.769 3.1,-2.486 5.782,-4.631 11.37,-4.631 5.588,0 8.271,2.145 11.378,4.631 3.38,2.7 7.212,5.769 14.625,5.769 7.413,0 11.242,-3.065 14.618,-5.772 3.1,-2.483 5.785,-4.628 11.372,-4.628 5.587,0 8.276,2.145 11.383,4.631 3.38,2.7 7.215,5.769 14.63,5.769 7.415,0 11.248,-3.065 14.63,-5.769 C 147.727,7.345 150.41,5.2 156,5.2 V 0 c -7.415,0 -11.248,3.065 -14.628,5.769 z"
             fill="#3c1053"
             style="fill:#08293c;fill-opacity:1" /></g></g><g
         id="Grupo_59"
         data-name="Grupo 59"
         transform="translate(0,54.6)"
         style="fill:#08293c;fill-opacity:1"><g
           id="Grupo_58"
           data-name="Grupo 58"
           style="fill:#08293c;fill-opacity:1"><path
             id="Caminho_1165"
             data-name="Caminho 1165"
             d="m 141.372,173.769 c -3.11,2.486 -5.793,4.631 -11.383,4.631 -5.59,0 -8.276,-2.145 -11.383,-4.631 -3.383,-2.7 -7.215,-5.769 -14.63,-5.769 -7.415,0 -11.24,3.065 -14.622,5.769 -3.1,2.486 -5.785,4.631 -11.372,4.631 -5.587,0 -8.271,-2.145 -11.378,-4.631 -3.38,-2.7 -7.212,-5.769 -14.625,-5.769 -7.413,0 -11.242,3.065 -14.622,5.772 -3.1,2.483 -5.785,4.628 -11.37,4.628 -5.585,0 -8.265,-2.145 -11.37,-4.631 C 11.237,171.065 7.41,168 0,168 v 5.2 c 5.582,0 8.263,2.145 11.367,4.628 3.38,2.707 7.21,5.772 14.62,5.772 7.41,0 11.24,-3.065 14.622,-5.769 3.1,-2.486 5.782,-4.631 11.37,-4.631 5.588,0 8.271,2.145 11.378,4.631 3.38,2.7 7.212,5.769 14.625,5.769 7.413,0 11.242,-3.065 14.622,-5.772 3.1,-2.483 5.785,-4.628 11.372,-4.628 5.587,0 8.276,2.145 11.383,4.631 3.38,2.7 7.215,5.769 14.63,5.769 7.415,0 11.248,-3.065 14.63,-5.769 3.107,-2.486 5.79,-4.631 11.38,-4.631 V 168 c -7.414,0 -11.247,3.065 -14.627,5.769 z"
             transform="translate(0,-168)"
             fill="#3c1053"
             style="fill:#08293c;fill-opacity:1" /></g></g><g
         id="Grupo_61"
         data-name="Grupo 61"
         transform="translate(0,26)"
         style="fill:#08293c;fill-opacity:1"><g
           id="Grupo_60"
           data-name="Grupo 60"
           style="fill:#08293c;fill-opacity:1"><path
             id="Caminho_1166"
             data-name="Caminho 1166"
             d="m 141.372,85.769 c -3.11,2.486 -5.793,4.631 -11.383,4.631 -5.59,0 -8.276,-2.145 -11.383,-4.631 C 115.223,83.069 111.391,80 103.976,80 96.561,80 92.736,83.065 89.354,85.769 86.254,88.255 83.569,90.4 77.982,90.4 72.395,90.4 69.711,88.255 66.6,85.769 63.224,83.065 59.392,80 51.979,80 c -7.413,0 -11.242,3.065 -14.622,5.772 -3.1,2.483 -5.785,4.628 -11.37,4.628 -5.585,0 -8.265,-2.145 -11.37,-4.631 C 11.237,83.065 7.41,80 0,80 v 5.2 c 5.582,0 8.263,2.145 11.367,4.628 3.38,2.707 7.21,5.772 14.62,5.772 7.41,0 11.24,-3.065 14.622,-5.769 3.1,-2.486 5.782,-4.631 11.37,-4.631 5.588,0 8.271,2.145 11.378,4.631 3.38,2.7 7.212,5.769 14.625,5.769 7.413,0 11.242,-3.065 14.618,-5.772 3.1,-2.483 5.785,-4.628 11.372,-4.628 5.587,0 8.276,2.145 11.383,4.631 3.38,2.7 7.215,5.769 14.63,5.769 7.415,0 11.248,-3.065 14.63,-5.769 3.107,-2.486 5.79,-4.631 11.38,-4.631 V 80 c -7.41,0 -11.243,3.065 -14.623,5.769 z"
             transform="translate(0,-80)"
             fill="#3c1053"
             style="fill:#08293c;fill-opacity:1" /></g></g><g
         id="Grupo_63"
         data-name="Grupo 63"
         transform="translate(0,83.2)"
         style="fill:#08293c;fill-opacity:1"><g
           id="Grupo_62"
           data-name="Grupo 62"
           style="fill:#08293c;fill-opacity:1"><path
             id="Caminho_1167"
             data-name="Caminho 1167"
             d="m 141.372,261.769 c -3.11,2.486 -5.793,4.631 -11.383,4.631 -5.59,0 -8.276,-2.145 -11.383,-4.631 -3.383,-2.7 -7.215,-5.769 -14.63,-5.769 -7.415,0 -11.24,3.065 -14.622,5.769 -3.1,2.486 -5.785,4.631 -11.372,4.631 -5.587,0 -8.271,-2.145 -11.378,-4.631 -3.38,-2.7 -7.212,-5.769 -14.625,-5.769 -7.413,0 -11.242,3.065 -14.622,5.772 -3.1,2.483 -5.785,4.628 -11.37,4.628 -5.585,0 -8.265,-2.145 -11.37,-4.631 C 11.237,259.065 7.41,256 0,256 v 5.2 c 5.582,0 8.263,2.145 11.367,4.628 3.38,2.707 7.21,5.772 14.62,5.772 7.41,0 11.24,-3.065 14.622,-5.769 3.1,-2.486 5.782,-4.631 11.37,-4.631 5.588,0 8.271,2.145 11.378,4.631 3.38,2.7 7.212,5.769 14.625,5.769 7.413,0 11.242,-3.065 14.622,-5.772 3.1,-2.483 5.785,-4.628 11.372,-4.628 5.587,0 8.276,2.145 11.383,4.631 3.38,2.7 7.215,5.769 14.63,5.769 7.415,0 11.248,-3.065 14.63,-5.769 3.107,-2.486 5.79,-4.631 11.38,-4.631 V 256 c -7.414,0 -11.247,3.065 -14.627,5.769 z"
             transform="translate(0,-256)"
             fill="#3c1053"
             style="fill:#08293c;fill-opacity:1" /></g></g><g
         id="Grupo_65"
         data-name="Grupo 65"
         transform="translate(0,140.4)"
         style="fill:#08293c;fill-opacity:1"><g
           id="Grupo_64"
           data-name="Grupo 64"
           style="fill:#08293c;fill-opacity:1"><path
             id="Caminho_1168"
             data-name="Caminho 1168"
             d="m 141.372,437.769 c -3.11,2.486 -5.793,4.631 -11.383,4.631 -5.59,0 -8.276,-2.145 -11.383,-4.631 -3.383,-2.7 -7.215,-5.769 -14.63,-5.769 -7.415,0 -11.24,3.065 -14.622,5.769 -3.1,2.486 -5.785,4.631 -11.372,4.631 -5.587,0 -8.271,-2.145 -11.378,-4.631 -3.38,-2.7 -7.212,-5.769 -14.625,-5.769 -7.413,0 -11.242,3.065 -14.622,5.772 -3.1,2.483 -5.785,4.628 -11.37,4.628 -5.585,0 -8.265,-2.145 -11.37,-4.631 C 11.237,435.065 7.41,432 0,432 v 5.2 c 5.582,0 8.263,2.145 11.367,4.628 3.38,2.707 7.21,5.772 14.62,5.772 7.41,0 11.24,-3.065 14.622,-5.769 3.1,-2.486 5.782,-4.631 11.37,-4.631 5.588,0 8.271,2.145 11.378,4.631 3.38,2.7 7.212,5.769 14.625,5.769 7.413,0 11.242,-3.065 14.622,-5.772 3.1,-2.483 5.785,-4.628 11.372,-4.628 5.587,0 8.276,2.145 11.383,4.631 3.38,2.7 7.215,5.769 14.63,5.769 7.415,0 11.248,-3.065 14.63,-5.769 3.107,-2.486 5.79,-4.631 11.38,-4.631 V 432 c -7.414,0 -11.247,3.065 -14.627,5.769 z"
             transform="translate(0,-432)"
             fill="#3c1053"
             style="fill:#08293c;fill-opacity:1" /></g></g><g
         id="Grupo_67"
         data-name="Grupo 67"
         transform="translate(0,111.8)"
         style="fill:#08293c;fill-opacity:1"><g
           id="Grupo_66"
           data-name="Grupo 66"
           style="fill:#08293c;fill-opacity:1"><path
             id="Caminho_1169"
             data-name="Caminho 1169"
             d="m 141.372,349.769 c -3.11,2.486 -5.793,4.631 -11.383,4.631 -5.59,0 -8.276,-2.145 -11.383,-4.631 -3.383,-2.7 -7.215,-5.769 -14.63,-5.769 -7.415,0 -11.24,3.065 -14.622,5.769 -3.1,2.486 -5.785,4.631 -11.372,4.631 -5.587,0 -8.271,-2.145 -11.378,-4.631 -3.38,-2.7 -7.212,-5.769 -14.625,-5.769 -7.413,0 -11.242,3.065 -14.622,5.772 -3.1,2.483 -5.785,4.628 -11.37,4.628 -5.585,0 -8.265,-2.145 -11.37,-4.631 C 11.237,347.065 7.41,344 0,344 v 5.2 c 5.582,0 8.263,2.145 11.367,4.628 3.38,2.707 7.21,5.772 14.62,5.772 7.41,0 11.24,-3.065 14.622,-5.769 3.1,-2.486 5.782,-4.631 11.37,-4.631 5.588,0 8.271,2.145 11.378,4.631 3.38,2.7 7.212,5.769 14.625,5.769 7.413,0 11.242,-3.065 14.622,-5.772 3.1,-2.483 5.785,-4.628 11.372,-4.628 5.587,0 8.276,2.145 11.383,4.631 3.38,2.7 7.215,5.769 14.63,5.769 7.415,0 11.248,-3.065 14.63,-5.769 3.107,-2.486 5.79,-4.631 11.38,-4.631 V 344 c -7.414,0 -11.247,3.065 -14.627,5.769 z"
             transform="translate(0,-344)"
             fill="#3c1053"
             style="fill:#08293c;fill-opacity:1" /></g></g></g></g></svg>
