<?xml version="1.0" standalone="no"?>
<!DOCTYPE svg PUBLIC "-//W3C//DTD SVG 20010904//EN"
 "http://www.w3.org/TR/2001/REC-SVG-20010904/DTD/svg10.dtd">
<svg version="1.0" xmlns="http://www.w3.org/2000/svg"
 width="1024.000000pt" height="1024.000000pt" viewBox="0 0 1024.000000 1024.000000"
 preserveAspectRatio="xMidYMid meet">
<metadata>
Created by potrace 1.11, written by Peter Selinger 2001-2013
</metadata>
<g transform="translate(0.000000,1024.000000) scale(0.100000,-0.100000)"
fill="#000000" stroke="none">
<path d="M4758 10235 c-2 -1 -59 -6 -128 -9 -69 -4 -138 -9 -155 -11 -16 -2
-61 -7 -100 -10 -38 -3 -81 -7 -95 -10 -14 -2 -47 -6 -75 -10 -78 -10 -104
-14 -195 -31 -47 -9 -96 -18 -110 -20 -78 -14 -243 -58 -347 -93 -484 -162
-774 -404 -874 -731 -24 -78 -25 -170 -19 -1300 l0 -75 1245 0 1245 0 0 -175
0 -176 -1817 1 c-1000 0 -1845 -3 -1878 -7 -97 -13 -116 -16 -198 -38 -456
-120 -817 -463 -1022 -970 -57 -143 -118 -339 -139 -450 -2 -14 -11 -59 -20
-100 -8 -41 -18 -97 -22 -125 -3 -27 -8 -59 -10 -70 -2 -11 -6 -45 -10 -75 -3
-30 -7 -65 -9 -78 -26 -154 -26 -933 -1 -1092 2 -14 7 -54 11 -90 7 -73 10
-100 20 -162 4 -24 9 -56 11 -73 31 -210 120 -531 200 -718 191 -447 499 -759
869 -881 157 -52 193 -55 711 -56 l481 -1 1 658 c0 593 3 732 17 813 3 14 7
41 10 60 23 137 86 325 156 461 181 352 476 571 883 655 29 6 69 12 146 23 36
5 655 10 1400 11 1268 1 1400 2 1495 16 528 75 922 354 1086 767 12 28 23 59
25 67 2 8 12 45 23 81 22 78 34 150 46 289 2 30 4 612 5 1292 0 1344 2 1303
-55 1453 -59 156 -130 263 -264 395 -116 114 -240 199 -416 286 -110 54 -371
150 -456 168 -13 3 -73 17 -134 31 -60 14 -121 27 -135 29 -14 2 -56 9 -95 15
-94 16 -111 18 -175 26 -30 4 -66 8 -80 10 -14 2 -65 7 -115 11 -49 4 -108 9
-130 11 -48 5 -802 12 -807 8z m-907 -801 c197 -57 323 -227 322 -434 0 -151
-62 -271 -185 -361 -96 -69 -215 -95 -347 -75 -24 4 -51 11 -60 16 -9 4 -38
19 -65 31 -59 29 -147 117 -181 181 -49 92 -65 241 -37 333 32 104 114 211
200 261 105 62 242 80 353 48z"/>
<path d="M7960 7650 c-5 -3 -11 -325 -12 -715 -4 -681 -5 -714 -26 -820 -49
-250 -146 -478 -276 -650 -55 -72 -200 -209 -271 -256 -168 -111 -371 -188
-562 -213 -24 -3 -62 -9 -85 -13 -24 -3 -655 -7 -1403 -8 -748 -1 -1389 -5
-1425 -9 -258 -29 -546 -130 -721 -252 -134 -92 -250 -212 -330 -339 -95 -149
-165 -378 -183 -600 -6 -71 -7 -2555 -1 -2585 3 -14 7 -36 10 -50 4 -14 8 -35
11 -48 2 -13 15 -51 28 -85 165 -439 629 -748 1336 -892 109 -22 174 -34 230
-41 50 -6 126 -16 140 -19 8 -2 51 -6 95 -10 44 -3 96 -8 115 -10 285 -28 982
-22 1225 9 22 3 71 8 108 11 37 4 78 8 90 11 12 3 42 7 67 10 45 4 182 28 230
39 14 3 48 10 75 15 193 39 448 127 615 214 308 160 500 369 565 616 19 69 18
14 16 1021 l-1 336 -1245 -1 -1245 -1 0 178 0 177 1833 0 c1007 0 1848 3 1867
5 313 46 575 170 794 376 213 201 378 476 486 814 33 102 74 263 85 325 3 19
10 58 15 85 6 28 14 75 20 105 5 33 8 355 7 790 l-2 735 -28 140 c-74 375
-173 667 -294 873 -24 41 -43 76 -43 78 0 2 -23 37 -51 76 -218 308 -483 493
-811 564 -60 13 -156 16 -556 17 -266 1 -488 0 -492 -3z m-1274 -5973 c151
-55 254 -162 295 -307 30 -110 12 -247 -46 -345 -27 -47 -119 -145 -136 -145
-4 0 -14 -6 -21 -13 -24 -24 -139 -58 -207 -61 -249 -12 -455 176 -465 423 -9
219 124 399 337 455 63 17 185 13 243 -7z"/>
</g>
</svg>
