<svg xmlns="http://www.w3.org/2000/svg" width="137.359" height="178" viewBox="0 0 137.359 178"><defs><style>.a{fill:#aa076b;}</style></defs><g transform="translate(-58.356 0)"><g transform="translate(58.356 0)"><path class="a" d="M195.715,76.7a28.189,28.189,0,0,0-28.363-28.363,28.846,28.846,0,0,0-20.26,8.509,26,26,0,0,0-15.8-8.1,28.4,28.4,0,0,1,27.958-24.717,3.828,3.828,0,0,0,4.052-4.052,3.828,3.828,0,0,0-4.052-4.052,36.631,36.631,0,0,0-25.122,10.13,29.186,29.186,0,0,0-8.914-16.613C118.324,2.553,108.194-.689,98.065.122c-2.026,0-3.242,1.621-3.647,3.647a32.681,32.681,0,0,0,9.319,27.148,63.843,63.843,0,0,0,6.078,4.862,4.362,4.362,0,0,0,5.673-1.216,4.362,4.362,0,0,0-1.216-5.673,12.663,12.663,0,0,1-4.457-3.647,22.937,22.937,0,0,1-7.293-17.423,24.152,24.152,0,0,1,17.423,6.888c5.267,5.267,7.7,12.561,6.888,21.07a1.488,1.488,0,0,1-.405,1.216,6.844,6.844,0,0,1-1.216,2.431,35.092,35.092,0,0,0-2.431,12.966,3.828,3.828,0,0,0,4.052,4.052A20.259,20.259,0,1,1,106.573,76.7a19.451,19.451,0,0,1,6.888-14.992,4.021,4.021,0,0,0-5.267-6.078l-1.216,1.216a28.846,28.846,0,0,0-20.259-8.509,28.363,28.363,0,0,0,0,56.727,23.773,23.773,0,0,0,9.319-1.621,4.1,4.1,0,0,0-2.836-7.7,20.583,20.583,0,0,1-6.888,1.216,20.26,20.26,0,1,1,15.4-33.226A29.238,29.238,0,0,0,98.47,76.7a28.415,28.415,0,0,0,26.742,28.363,18.14,18.14,0,0,1,1.621,8.1,20.182,20.182,0,0,1-40.114,3.241,4.132,4.132,0,0,0-8.1,1.621,28.179,28.179,0,0,0,21.475,22.691,21.805,21.805,0,0,0-1.621,8.914A28.189,28.189,0,0,0,126.833,178a28.645,28.645,0,0,0,27.958-23.5,4.132,4.132,0,1,0-8.1-1.621,20.182,20.182,0,0,1-40.114-3.241,26.191,26.191,0,0,1,1.621-8.1,28.415,28.415,0,0,0,26.742-28.363,21.8,21.8,0,0,0-1.621-8.914A28.25,28.25,0,0,0,155.2,76.7a26.728,26.728,0,0,0-3.241-12.966,20.206,20.206,0,1,1,15.4,33.226,20.583,20.583,0,0,1-6.888-1.216,4.1,4.1,0,0,0-2.836,7.7,43.06,43.06,0,0,0,7.7,1.621,18.14,18.14,0,0,1,1.621,8.1,20.063,20.063,0,0,1-20.259,20.259,20.583,20.583,0,0,1-6.888-1.216,4.1,4.1,0,1,0-2.836,7.7,25.123,25.123,0,0,0,9.319,1.621,28.189,28.189,0,0,0,28.363-28.363,21.8,21.8,0,0,0-1.621-8.914A28.144,28.144,0,0,0,195.715,76.7Z" transform="translate(-58.356 0)"/></g></g></svg>