<svg xmlns="http://www.w3.org/2000/svg" xmlns:xlink="http://www.w3.org/1999/xlink" width="802.212" height="793.988" viewBox="0 0 802.212 793.988"><defs><style>.a{fill:url(#a);}</style><linearGradient id="a" x1="0.5" x2="0.5" y2="1" gradientUnits="objectBoundingBox"><stop offset="0" stop-color="#3c1053"/><stop offset="1" stop-color="#aa076b"/></linearGradient></defs><g transform="matrix(0.985, 0.174, -0.174, 0.985, 118.752, 0)"><path class="a" d="M690.845,344.8c-1.175-5.9-1.655-11.987-4.189-17.586-2.63-5.808-4.881-11.712-4.012-18.314.07-.53-.6-1.159-.931-1.74h0a15.253,15.253,0,0,0-3.385-6.3q-.432-2-.865-4a3.376,3.376,0,0,0-1.781-3.767v0h0c-1.98-4.014-3.624-8.283-8.012-10.45-1.836-7.123-6.421-12.124-12.434-15.982-.485-.312-1.294-.12-1.951-.162h0c-3.224.2-3.263-3.53-5.541-4.5-.109.019-.218.015-.327.024q-1.038-1.072-2.078-2.142l0,0c-8.073-7.142-17.622-10.819-28.218-12.043-1.706-2.118-4.046-2.112-6.432-1.943-3.374-1.823-3.592-5.859-5.908-8.426h0a10.557,10.557,0,0,1,.867-5.878,9.137,9.137,0,0,0,.957-5.855h0c4.287-6.592,5.024-13.8,4.068-21.436a49.784,49.784,0,0,1,.089-9.137c.472-7.71-2.564-14.644-5.031-21.609-1.048-2.957-2.883-6.227-6.609-7.234l-2.823-1.638h0l-.09-.058h0A2.036,2.036,0,0,0,594.345,163l.008.006-.008,0a1.524,1.524,0,0,0-1.356-.852c-1.031-4.379-2.863-8.266-6.491-11.159-2.142-1.708-3.211-4.125-4.565-6.483-3.1-5.4-3.543-11.507-5.716-17.1l0-.011a75.456,75.456,0,0,1-.151-8.091c.506-6.083-2.409-10.337-6.959-13.745-2.941-2.2-6.043-4.194-9.073-6.282a5,5,0,0,0-4.439-1.93h0a.956.956,0,0,0-1.305-.22,2.121,2.121,0,0,0-3.357.03l-.005,0-.715.009-2.81-1.576h0l-.194-.135a4.108,4.108,0,0,0-3.675-2.428c-1.537-2.084-3.846-1.92-6.052-2.054a2.613,2.613,0,0,0-2.1-1.887,2.072,2.072,0,0,0-2.09-1.469l2.022,1.463h0c-.664-.5-1.335-.989-2.022-1.461a1.612,1.612,0,0,0-1.546-.67h0c-4.247-1.832-8.765-3-12.611-5.816-1.561-1.144-3.739-1.471-5.66-2.1-4.753-1.544-9.214-4.023-13.785-5.622-4.907-1.719-8.831-4.661-13.286-6.859-4.283-.628-8.928-.079-12.256-3.792q-10.058-4.125-20.112-8.251h0c-3.421-2.968-8.216-.47-11.563-2.646-3.412-2.218-6.643-4.565-10.663-5.511-.653-.152-1.332-.19-2-.28v0l0,0h0l-.12.115a2.374,2.374,0,0,0-2.353-1.776,4.505,4.505,0,0,0-4.082-2.016h0a5.085,5.085,0,0,0-4.068-.064q-1.961-.116-3.918-.228a2.912,2.912,0,0,0-2.193-1.757,2.2,2.2,0,0,0-1.986-1.749q.99.872,1.982,1.749h0l.006.006v0l2.172,1.828.024.043a7.4,7.4,0,0,1-2.2-1.875,23.957,23.957,0,0,0-1.982-1.749l-2.124-2.227c-6.916-4.35-14.816-5.955-22.531-8.074-1.311-1.508-3.344-1.066-4.945-1.794-2.223-.517-4.55-.216-6.756-.848a3.409,3.409,0,0,0-.4-.064c-.143-.421-.288-.844-.418-1.271-7.636.45-13.886-4.5-21.167-5.434-8.94-5.419-19.316-7.209-28.751-11.379-3.216-2.584-7.79-2.488-10.8-5.473-1.922-1.452-3.792-3.38-6.173-.683a2.515,2.515,0,0,0-1.841,2.374h0L305.13,3.7c-2.295,1.478-1.887,3.886-2.1,6.083q-1.179.971-2.359,1.939l-.013.009c-2.573-.318-4.971.327-6.049,2.716-1.659,3.679-5.364,4.947-7.93,7.52a33.315,33.315,0,0,0-12.321,14.165h0c-4.16,2.3-8.394,4.023-13.356,3.972-6.9-.07-13.111,2.618-19.055,5.917v0a10.114,10.114,0,0,0-8.261,4.068,22.013,22.013,0,0,0-4.362,2.24c-1.917,1.587-3.643,1.179-5.513.188a16.781,16.781,0,0,1-2.172-1.962l2.172,1.962a2.365,2.365,0,0,0-2.174-1.964h0l-.013-.008h0c-2.219-1.945-4.452-3.873-6.651-5.838-1.518-1.356-3.113-2.5-5.268-2.464a4.905,4.905,0,0,0-4.341-1.762h0l-2.054-.139c-2.317-.164-4.552-.079-6.111,2.035h0v0a90.333,90.333,0,0,1-14.042-1.3c-4.7-.931-10.012-2.488-14.59,1.153h0c-.608.032-1.217.034-1.828.009v0c-4.584-2.4-5.571-2.048-6.22,2.287a8.526,8.526,0,0,0,.128,1.879h0c-1.288,2.667-4.875,1.629-6.378,3.952q-1.854.15-3.707.3c-2.218,4.258-3.395,9.128-7.93,11.972-1.223.766-1.678,2.754-2.485,4.179-.668.688-1.285,1.424-1.986,2.082h0c-1.663.871-2.039,2.377-2.018,4.08h0l0,.008v0a63.494,63.494,0,0,0-5.6,3.891c-3.762,3.231-6.982,6.85-6.681,12.325h0c-3.164,2.737-4.038,6.831-6.079,10.232l-2.048,2.028.013,1.192c-.314.495-.623.993-.938,1.486a8.326,8.326,0,0,0-.152,2.823,26.274,26.274,0,0,1,.476,3.393,7.617,7.617,0,0,1-2.46,3.291c-5.827,4.552-10.49,10.288-15.831,15.306a45.6,45.6,0,0,0-8.5,11.02c-2.422,4.275-3.288,9.476-7.781,12.562-.88.6-1.245,2.357-1.354,3.624-.743,8.567-5.594,13.138-13.783,14.748a26.706,26.706,0,0,0-4.655,1.838c-2.47,4.456-6.728,7.288-10,11.016-2.163,2.466-5.2,4.224-6.179,7.648l0,0,0,0c-1.655,1.648-3.2,3.429-4.988,4.92-4.6,3.844-8.005,8.411-9.38,14.3-.025-.006-.051-.006-.075-.013a1.754,1.754,0,0,0-1.885,1.012q-1.027,1.021-2.056,2.041-4.13,6.988-8.263,13.978h0a6.409,6.409,0,0,0-3.732,4.337A11.04,11.04,0,0,1,10.91,237.9c-3.021,2.693-3.434,6.2-3.327,9.918A27.515,27.515,0,0,0,1.8,260.29l0,0c-1.691,3.034-2.949,5.947-.141,9.194,3.186,3.681,2.174,8.255,1.932,12.538-.329,5.8-.363,6.957,4.348,8.419,6.48,2.009,8.814,6.668,9.967,12.508.329,1.676.57,3.284,1.873,4.507l0,0c.519,2.656-.521,5.74,2.135,7.815-.158,3.406-2.4,6.839.126,10.213v0A5.44,5.44,0,0,0,22.1,327.5q-.144,2.02-.286,4.04l0,0c-2.586,2.272-1.5,5.34-1.753,8.116l16.262-.124,0,0c2.878,2.675,1.567,6.237,2,9.429.826,6.16.613,12.666,5.791,17.374a10.3,10.3,0,0,0,.416,1.873l0,0,0,0q-.02,2.037-.041,4.074h0c-.011.677-.006,1.354,0,2.033h.007q.948,1.078,1.892,2.155l0,0h0v0l.058-.1c.228,2.261.175,4.608,1.958,6.387l.007.011c-.043,6.154,1.13,11.838,6.188,16.023h0c.739.606,1.407,1.606,2.225,1.751,3.668.645,5.889,2.454,6.282,6.342.088.871.914,1.668,1.407,2.5l0,.011c-.418,7.537,4.211,12.6,8.684,17.748.621,1.665,2.122,2.191,3.579,2.77l0,.006a2.784,2.784,0,0,0,.29,1.418,1.417,1.417,0,0,1,.587.589l-.587-.589q-.071,2.965-.137,5.93h0l.006.068c-1.62.957-1.964,2.462-1.794,4.189l0,0,0,0c-.865,3.564-1.508,7.2-2.648,10.681a40.118,40.118,0,0,0-1.2,18.865,8.145,8.145,0,0,1-.741.579,1.606,1.606,0,0,0,.82,2.323c2.332,1.606,1.45,4.134,1.807,6.306-.668,4.285-2.624,8.863-1.73,12.792,1.839,8.093-.886,15.066-3.077,22.337-.672,2.229-1.727,4.512-1.691,6.758.135,8.387-1.431,16.587-2.272,24.865v0a8.48,8.48,0,0,0-1.091,8.547c2.295,5.994.769,11.056-2.818,15.876l0,0c-3.374,4.617-6.856,9.162-10.085,13.877a23.093,23.093,0,0,0-3.843,11.36c-.248,3.149.207,6.354,3.606,7.649,3.139,1.2,4.125,4.365,6.523,6.167h0c1.2,5.462,4.612,8.831,9.886,10.435v0c3.525,1.646,7.2,3.032,10.537,5A21.472,21.472,0,0,0,91.3,628.712l0,0,0,0c3.254-1.405,6.481-2.977,10.164-1.535,1.226.925,2.441,1.864,3.679,2.772,1.943,1.429,3.429.92,4.535-1.108v0h0c3.175-.764,5.127,2.259,7.954,2.573a6.252,6.252,0,0,0,4.307,2.972v0a4.2,4.2,0,0,0,3.993.609l7.858.4c4.264,3.333,9.4,4.324,14.505,5.415l0,0h0l3.841,2.592v0c3.852,2.784,4.249,2.789,8.55.139v0c3.888-2.812,8.024-3.109,12.489-1.49,1.868.677,4.021,1.514,5.846,1.183,4.354-.79,8.464-.788,12.549,1.044.331.149,1.087-.647,1.646-1,.982-.085,1.973-.105,2.942-.267,4.343-.72,5.321-1.612,5.357-5.377.036-3.606-.181-7.211-.288-10.817h0l1.845-5.658c-3.485-5.735-4.174-12.446-6.468-18.6a3.215,3.215,0,0,1,2.959-4.256c3.965-.118,7.939.094,11.91.169h0c6.431-.656,12.649-.6,18.556,2.865,3.134,1.838,4.279.986,6-2.665,1.977-4.2,3.985-8.385,5.979-12.575,2.927.134,3.662-1.988,4.644-4.153a1.573,1.573,0,0,1,2.979-.053c.972,2.165,1.668,4.3,4.584,4.234h0c1.828,1.446,3.562,3.038,5.5,4.313,3.955,2.6,6.084,2.586,9.865-.525,2.107-1.732,4.142-3.258,6.856-3.867,2.076-.466,3.376-2.033,4.332-3.875,2.379-.316,3.972-1.448,4.206-4q1.944-.175,3.891-.348l0,0h0l.1.064h0c.7,1.65,2.165,1.866,3.694,1.962.068-.316.16-.628.243-.942a10.628,10.628,0,0,0,2.069-.269c1.621-.647,3.406-.933,4.787-2.112.171-.179.308-.38.461-.57.841-.026,1.683-.054,2.524-.079-.032.105-.062.23-.094.371a1.848,1.848,0,0,0,.526,1.651c.655,0,1.307.023,1.96.073.615.743,1.623,1.413,1.776,2.24.805,4.343,3.487,6.041,7.664,5.936a8.894,8.894,0,0,1,6.286,2.336c1.851,1.631,4.172,1.742,6.453,1.964.094-.145.186-.29.278-.434l.032.045h0l-.309.387q1.095.925,2.186,1.856l.387-.478h.107l-.495.478c.058.63.1,1.26.139,1.892q.982.031,1.964.068,1.083-.968,2.163-1.933v0q.931-.1,1.868-.115c.551.681,1.251.717,2.116.036q.99-.014,1.984-.017h0a4.106,4.106,0,0,0,3.8,2,2.61,2.61,0,0,0-.288,1.245l.372.427a7.572,7.572,0,0,0-1.255,1.224,7.459,7.459,0,0,0-3.705-.935,10.361,10.361,0,0,0-4.049.826,3.517,3.517,0,0,0-1.659,1.941,2.737,2.737,0,0,0,.166.954c-1.315-.845-2.581-.515-3.82.529a2.344,2.344,0,0,0-.164,1.828c-.525.058-1.051.109-1.582.143q-.023,1-.105,2c-.115,0-.224.162-.329.4q-.759.923-1.518,1.841h0l0,0q-.107,2.943-.213,5.887l0,0c-1.849,4.612-4.38,9.037-3.955,14.279a3.339,3.339,0,0,1-1.335,1.4,13.947,13.947,0,0,0-2.107-.641,7.446,7.446,0,0,0-4.159.034c-.141.03-.282.043-.423.068-.045-.275-.117-.545-.139-.824q-4.071.031-8.142.058v0h0q-.9-.149-1.815-.237v0c-1.159-.587-2.445-1.847-3.457-1.655-9.124,1.725-16.14-5.842-24.9-5.471-3.355-3.29-8-3.252-12.1-4.343-7.33-1.952-8.3-.611-6.622,7.548q.023,5.084.045,10.168l6.047,2.129v0a38.461,38.461,0,0,1,4.429,13.062c.709,5.126,2.861,10.288,7.871,13.3h0c.824,1.67,2.349,1.994,4,2.08a22.958,22.958,0,0,1,2.058,2.043l-.009,0c.94,3.162,4.678,4.335,5.089,8.176.72,6.705,4.809,8.831,10.552,5.676a14.957,14.957,0,0,1,7.6-1.635c2.029-.006,3.993-.2,5.289-2.082h0a16.916,16.916,0,0,1,12.961,3.972,7.972,7.972,0,0,0,5.379,2.242v0c3.4,1.356,6.816,3.67,10.183-.075h0c4.721-6.365,10.251-12.239,12.3-20.229h0c2.406-2.541,2.674-6.023,3.914-9.068a4.819,4.819,0,0,1,4.477-3.233,25.957,25.957,0,0,1,13.57,2.364l0,0c.824.534,1.627,1.5,2.468,1.531,5.285.2,10.582.762,15.837-.656,4.8-1.294,9.681-2.285,14.526-3.41v0l14.313.073a17.551,17.551,0,0,0,6.147-6.073l.005-.006c2.97-7.326,6.672-9.464,11.906-1.76a3.941,3.941,0,0,0,2.675,1.223c7.008-4.691,14.016-7.381,21.043-.058,2.453,3,6.543.275,9.188,2.618h0c1.181,3.846,1.181,3.846,6.126,4.063v0c3.3,2.914,7.694,3.544,11.4,5.534,1.883,1.008,3.071,2.18,5.118.506,1.794-1.469,4.862.6,6.344-1.854,2.328-3.867,6.412-6.963,5.627-12.267h0q.079-.942.084-1.89v0c3.954-1.792,5.725-5.345,7.132-9.092,1.151-3.068,2.029-6.237,3.03-9.361h0a39.455,39.455,0,0,0,1.9-3.493c2.01-4.732,1.106-9.906,2.152-14.791h0l.024-.058c1.785-.694,2.11-2.376,2.646-3.912l0,0c2.449-1.046,4.879-2.144,7.356-3.118,1.58-.621,3.632-1.347,4.862-.256,4.475,3.963,7.177,1.136,9.935-2.133a8.084,8.084,0,0,1,5.1-3.026c2.7-.382,4.094-2.184,4.934-4.51,1.354-3.767,3.984-7.1,3.9-11.362q4.175-8.018,8.349-16.04l0,0a9.127,9.127,0,0,1,7.787-2.609c2.733-1.183,5.469-2.131,8.244-.105,3.154,2.24,4.142,2.048,4.392-.944a13.818,13.818,0,0,0-.384-2.964v0l2.048-4.021,3.886.115h0c.376,2.343,1.469,3.908,4.117,3.788h0c3.8-.957,7.367-1.67,10.074-5.46,1.706-2.385,4.54-3.858,4.313-7.371-.211-3.271,1.121-6.831-1.822-9.581a7.046,7.046,0,0,0-.482-1.886h0q.152-1.013.3-2.028l0,0,2.06-1.873h0c2.136-.051,5.232,2.218,6.164-.893,1.448-4.834,3.972-8.009,8.609-10.034,1.585-.694,2.372-3.115,3.637-4.651,3.961-4.815,8.893-7.95,15.229-8.562l4.986-.485h0c3.333,1.335,3.333,1.335,4.424-1.557h0c2.076-6.822,4.241-13.595,9.955-18.455a4.444,4.444,0,0,0,4.243-4.14l0,0h0l-.109-.013a2.617,2.617,0,0,0,2.11-2,2.332,2.332,0,0,0,1.9-2.236c1.836-1.6,2.035-3.79,2.191-6,1.787-.929,1.809-2.556,1.653-4.253h0a2.265,2.265,0,0,0,.263-1.683c1.223-1.031,1.324-2.122.179-3.275l0-.01q-.025-1.351-.047-2.7l0-.008,1.913-2.351h0a20.221,20.221,0,0,0,3.97-12.022,27.322,27.322,0,0,1,1.937-8.667c.149,0,.289-.152.431-.374,1.587-1.465,1.492-3.476,1.463-5.468v0c2.34-5.793,4.845-11.545,4.57-18h0l0,0c2.558-3.984,1.851-8.368,1.567-12.7h0a14.293,14.293,0,0,0,1.9-6.69A168.021,168.021,0,0,0,690.845,344.8ZM383.889,642.67a5.361,5.361,0,0,1,.683.045c-.019.147-.034.3-.06.44A3.539,3.539,0,0,1,383.889,642.67Zm-58.406,18.782,0,0c-.023-.013-.045-.022-.068-.036.032-.028.051-.045.083-.072C325.494,661.385,325.483,661.417,325.483,661.453ZM464.07,624.8v0l0,0ZM288.881,569.78a.523.523,0,0,0-.053-.1v-.034c.043.036.1.06.141.092C288.94,569.753,288.911,569.768,288.881,569.78ZM151.308,67.6a.543.543,0,0,1,.036.055l-.056-.049Zm316.753,7.8c0-.139,0-.28-.006-.421.068-.126.117-.226.173-.337A1.3,1.3,0,0,1,468.061,75.4ZM44.457,317.188l-.008-.038.094.083-.013.013C44.506,317.228,44.483,317.207,44.457,317.188ZM260.941,93.1a1.836,1.836,0,0,1-.025,1.232,10.823,10.823,0,0,1-.331-1.275c.092,0,.167.013.261.013C260.881,93.084,260.909,93.086,260.941,93.1ZM586.124,245.994l-.034.028.028-.038ZM396.066,81.82l.032.07a4.4,4.4,0,0,1-.623.5C395.667,82.213,395.862,82.027,396.066,81.82Zm67.681,28.875q-.624-.327-1.247-.728l.047-.039A9.767,9.767,0,0,1,463.746,110.695Zm-101.6-3.134-.013.058-.073-.072C362.092,107.552,362.118,107.559,362.148,107.561ZM591.827,310.267l.015.006a.237.237,0,0,1-.036,0Zm-370.2-84.606.023.023v.006Zm131.628-72.4c-.2.241-.367.461-.525.666a2.142,2.142,0,0,1,.382-.735C353.163,153.213,353.21,153.234,353.259,153.258Zm-70.568,265.85-.043-.015.092-.079,0,.051ZM575.939,317.26c-.021-.045-.045-.085-.066-.13.062.034.124.07.188.1-.019.013-.032.026-.053.039ZM400.4,433.367a2.851,2.851,0,0,1,.438.013h0a5.941,5.941,0,0,1-.359.952A3.688,3.688,0,0,1,400.4,433.367Zm47.369-277.082c.024.009.047.011.071.019a.4.4,0,0,1-.045.034C447.795,156.317,447.778,156.307,447.774,156.285Zm-254.6,102.272c-.1-.015-.205-.024-.307-.036.087-.087.171-.171.258-.256h0Zm35.7,11.479c-.092.276-.164.536-.22.767A1.235,1.235,0,0,1,228.869,270.035Zm112.55-13.817c.124,0,.25-.013.369-.009-.148.224-.3.444-.457.668C341.355,256.656,341.389,256.436,341.419,256.218Zm155.389,62.93c-.06.117-.12.235-.182.354-.019-.036-.028-.07-.049-.105.036-.049.07-.1.1-.152C496.727,319.212,496.765,319.18,496.808,319.148Zm-75.449-64.974c-.03.026-.062.051-.09.079-.017-.026-.04-.039-.057-.066l.009-.009Zm-14.5,14.342c.034-.026.06-.055.1-.079,0,.036,0,.073,0,.111C406.92,268.536,406.886,268.527,406.856,268.515Zm89.7,46.792c-.023-.015-.043-.032-.064-.045l.06.006.021-.047c0,.028.011.047.013.075l-.03-.023Zm-.487-.079c-.006.007-.017.009-.022.017l0-.019ZM418.211,265.6c.188.487.384,1,.589,1.561-.363-.216-.707-.389-1.059-.574A4.514,4.514,0,0,0,418.211,265.6Zm-63.524,58.63c.115.049.233.094.35.145-.077.049-.145.1-.22.152A2.915,2.915,0,0,0,354.687,324.23Zm97.235,75c-.058-.152-.119-.3-.179-.461h0c.115.023.235.04.352.058C452.036,398.958,451.987,399.1,451.921,399.227ZM405.039,178.9c-.03-.017-.062-.032-.09-.049l-.024-.043.013-.024C404.975,178.823,405.005,178.864,405.039,178.9ZM400.82,219.63l-.209-.073c.075,0,.151,0,.226,0v-.128c.03.049.058.1.092.147l-.089-.015Zm.16-2.18c-.047.047-.094.094-.139.143v-.068l-.086,0a.869.869,0,0,1,.092-.122l-.006.118C400.89,217.5,400.931,217.473,400.98,217.45Zm-146.758,108,.207.064a2.567,2.567,0,0,1-.6,1.191C253.946,326.353,254.072,325.953,254.223,325.453Zm-9.207,4.053a5.1,5.1,0,0,1-1.157-.254c.387.038.777.092,1.166.141C245.023,329.432,245.016,329.468,245.016,329.506ZM412.292,205.255a1.16,1.16,0,0,1-.512.395.98.98,0,0,1-.717-.171C411.47,205.394,411.884,205.332,412.292,205.255ZM195.169,270.477l0,0h-.29a2.124,2.124,0,0,0,.269-.12l.021.12,0,0ZM477.108,439.094c.009.043.011.088.021.132l-.015.021Q477.111,439.17,477.108,439.094Zm17.4-42.114c.006-.075,0-.152.015-.226v0c.053.043.105.075.156.115C494.626,396.9,494.57,396.944,494.511,396.98ZM480.76,232.634c.267.4.54.784.782,1.2A6.385,6.385,0,0,1,480.76,232.634ZM158.391,431.07c.04.09.079.179.119.267h0c-.066,0-.128-.006-.194,0C158.344,431.245,158.365,431.158,158.391,431.07Zm239.634-26.42a2.317,2.317,0,0,1,.07.756c-.182-.267-.393-.54-.619-.818Zm82.267-172.805c-.013-.019-.023-.043-.036-.062h0v0l0,0h.115C480.345,231.8,480.321,231.824,480.292,231.844ZM142.235,453.736h0ZM499.249,194.848a4.8,4.8,0,0,0-.551.491c-.021-.038-.039-.075-.06-.113A1.623,1.623,0,0,1,499.249,194.848Zm-25.1-5.831,0,0c-.015.034-.038.068-.054.1-.028-.034-.045-.068-.073-.1h.128l0,0-.275-.275c.126.094.258.181.389.276ZM160.1,187.228c.038-.139.072-.278.107-.416A.482.482,0,0,1,160.1,187.228ZM268.3,405.318a2.046,2.046,0,0,1,.23.1c-.089,0-.177-.007-.265-.013Zm161.05,71.051a1.529,1.529,0,0,1-1.482-.179A5.075,5.075,0,0,1,429.347,476.369Zm128.3-146.833v0l0,0c.013-.03.03-.055.042-.083.017.024.028.051.047.075C557.708,329.53,557.682,329.536,557.652,329.536ZM345.26,178.1c0-.147,0-.3,0-.442.451-.668.9-1.335,1.8-1.279A7.073,7.073,0,0,1,345.26,178.1Zm-86.967,76.081c-.019.134-.04.267-.058.4-.115-.051-.229-.092-.344-.141.134-.087.267-.175.4-.261l.006-.008h0Zm-77.377-28.516,0,.013,0,0,.008-.009,0-.038.062.015C180.956,225.652,180.937,225.662,180.916,225.668ZM321.05,159.317c-.2.12-.408.231-.615.34A1.673,1.673,0,0,1,321.05,159.317Zm-11.462,5.455c0-.154.006-.292.006-.45a3.222,3.222,0,0,1,.416.118C309.868,164.549,309.725,164.654,309.588,164.771ZM221.631,225.66h-.372a2.719,2.719,0,0,0,.372-.16Zm-2.02,0h0c0-.043,0-.085,0-.126.055.041.106.085.162.126ZM178.872,535.2l.038.019c-.026.064-.051.137-.081.2C178.844,535.343,178.857,535.285,178.872,535.2Zm246.409-34.63h0c.164-.026.312-.028.472-.049-.1.184-.205.37-.3.555C425.392,500.906,425.332,500.737,425.281,500.572Zm126.247-65.155v0l0,0,0,0c.081.047.16.081.239.124-.077.041-.154.1-.233.141C551.533,435.594,551.53,435.507,551.528,435.417ZM412.993,514.39l.068.438h0a1.3,1.3,0,0,1-.672-.307C412.591,514.479,412.792,514.435,412.993,514.39Zm51.1,45.218c-.034,0-.068,0-.1,0l-.023.028-.024-.023.047-.006c.023-.024.045-.038.066-.062C464.066,559.566,464.079,559.587,464.091,559.608Zm1.9-21.385c.006-.329.006-.658.013-.987a3.194,3.194,0,0,1,1.138.989A9.8,9.8,0,0,1,465.992,538.223Zm130.336-82.445.008,0c0-.036,0-.071,0-.107.019.036.056.07.075.107h-.073l-.006,0Zm27.191-112.942c.085-.068.168-.13.258-.2l.011.015A1.758,1.758,0,0,1,623.519,342.835ZM476.476,121.788c.056-.064.118-.1.173-.169.032.075.051.154.079.231C476.647,121.824,476.559,121.809,476.476,121.788ZM362.152,107.561l.008-.053.043.026Zm-28.538,12.18-.04.092a4.4,4.4,0,0,0-.395.34,3.8,3.8,0,0,1,.3-.632C333.525,119.608,333.57,119.674,333.614,119.741Zm-6.247,8.362c-.021-.056-.049-.115-.071-.173h.235C327.478,127.989,327.422,128.045,327.367,128.1ZM85.2,358.01l.015.015-.019,0ZM172.15,539.919v-.182c.179.056.357.113.508.152A1.175,1.175,0,0,1,172.15,539.919ZM482.3,498.546c.036.015.077.028.115.043-.04.039-.077.083-.115.126Zm14.259-336.009.028-.092.007.083Zm-130.33-57.011,0,0,.032-.085.023.085Zm-91.917,7.811c.077,1.661-.739,2.359-3.113,3.348C272.1,115.775,273.187,114.6,274.307,113.337ZM85.01,358.176c.068-.055.117-.092.186-.151-.013.077-.026.145-.039.22C85.108,358.221,85.059,358.2,85.01,358.176Zm326.3,186.3c-4.155-2.733-4.644-2.823-5.9.288-.058-.1-.1-.2-.165-.3-16.394-1.981-17.276,2.366-20.887-17.657-.7-3.862-1.39-8.125-5.87-9.927.188-.026.361-.043.572-.085,1.683-3.15,2.727-7.095,7.441-6.487-.367,13.954,4.459,19.172,18.965,20.452,2.9.254,4.127,1.561,4.8,4.057.681,2.515.705,5.381,3.421,6.906a2.924,2.924,0,0,0,.623-.028A5.411,5.411,0,0,0,411.314,544.471ZM482.3,500.587h0c0-.38,0-.762,0-1.142.32.734.284,1.061.056,1.168l-.051-.026.019.045a.357.357,0,0,1-.064.009c.017-.017.028-.038.043-.055h0Zm55-28.512v-.419l.329.147ZM231.822,512.8v0l0,0,0,0h0l0,0v0l0,0,.009-.015-.008.017c.077.047.16.088.237.133-.066.073-.124.158-.186.241-.019-.124-.042-.248-.055-.371h0Zm-7.07,5.2a1.918,1.918,0,0,1,1.194.67c.011.015.017.028.028.041A7.725,7.725,0,0,1,224.752,517.994Zm34.591-2.345c0,.013-.005.026-.009.039-.041-.023-.073-.051-.115-.071C259.26,515.626,259.3,515.639,259.342,515.648Zm51.872,15.508.023,0c0,.166-.008.335-.015.5a2.562,2.562,0,0,1-.276-.173C311.042,531.38,311.111,531.267,311.215,531.156Zm116.12,38.655c-.184-.175-.359-.357-.54-.534.192.184.406.344.606.523Zm114.012-89.578v-.015l.011.009Zm2.045-279v-.3l.3-.075C543.591,200.979,543.493,201.105,543.391,201.23ZM444,101.636c-.122-.068-.252-.128-.372-.2h0c.531-.591.927-1.046,1.253-1.452A2.227,2.227,0,0,1,444,101.636ZM255.261,153.665c-.867-.436-1.807-.884-2.881-1.36A3.763,3.763,0,0,1,255.261,153.665ZM93.4,199.67l.011.008Zm99.727,362,.017.1-.222-.145ZM653.368,321.522l-.015-.1a1.879,1.879,0,0,1,.607-.182A1.848,1.848,0,0,0,653.368,321.522ZM411.065,72.946c-.06.06-.124.113-.186.169.043-.053.083-.111.126-.164-.075.009-.151.015-.226.021.058-.06.115-.122.171-.184.024.049.047.1.073.15ZM193.133,561.667c.169-.209.3-.367.444-.551-.009.177-.036.371-.06.562C193.388,561.675,193.257,561.675,193.133,561.667Zm291.2-16.172c0-.036,0-.073,0-.111-.03.034-.06.068-.092.1.028-.047.043-.09.068-.135l.024.024.085.041C484.387,545.439,484.36,545.471,484.332,545.5ZM414.577,59.545c-.109.2-.207.386-.3.57a1.371,1.371,0,0,1,.167-.7Zm-84.351-7.422-.019-.032a2.509,2.509,0,0,1,.326-.186C330.431,51.97,330.33,52.051,330.226,52.123ZM319.417,537.235l-.009.013-.007-.013.006-.011.024,0Zm6.858,3.015c-.011.056-.032.109-.041.164,0-.077-.036-.145-.043-.22C326.218,540.211,326.246,540.237,326.274,540.25ZM667.594,415.04l0,0,0,0h0l0,0c-.011-.073-.006-.145-.015-.218.023.028.036.058.057.086a2.336,2.336,0,0,0,.314-.085A2.736,2.736,0,0,1,667.594,415.04Zm12.214-14.255Zm0,0,0-.008h0v0l-.07.073c-.072-.105-.145-.214-.21-.314.1.079.175.162.28.237l0-.007.009.015ZM565.781,166.609c.173-.141.34-.292.508-.442.062.15.13.3.2.44Zm-133.5-81.371c-.3-.011-.594-.03-.888-.068h0a5.118,5.118,0,0,1,2.436-1.894A10.077,10.077,0,0,1,432.278,85.237ZM179.558,64.595a17.967,17.967,0,0,0,1.27-2.434c.224.455.448.914.677,1.373A4.994,4.994,0,0,1,179.558,64.595Zm-9.754,542.3.019.019-.036.034Zm59.96-35.21c.167.389.369.811.613,1.268-.169-.188-.339-.365-.512-.536A4.783,4.783,0,0,1,229.764,571.681ZM468.078,76.988h0c0-.066,0-.132,0-.2.04.047.071.1.115.147C468.153,76.956,468.116,76.969,468.078,76.988ZM244.03,101.339c0,.04,0,.077,0,.119l0,0h0v0c-.09-.073-.194-.139-.289-.209ZM39.192,208.061a2.649,2.649,0,0,1,.668-.1C39.643,208,39.425,208.036,39.192,208.061ZM75.056,512.81l0-.126c.2.066.4.128.589.2A3.231,3.231,0,0,1,75.056,512.81Zm83.459,109.945h0l-.015-.06a5.1,5.1,0,0,1,.6.1c-.194-.011-.387-.021-.579-.036Zm71.621-54.765c.09-.553.184-1.128.262-1.727a12.124,12.124,0,0,0,1.292,1.025A5.1,5.1,0,0,0,230.136,567.991Zm119.72,20.072c.021.025.047.043.068.068l-.032.348h0c-.156-.056-.316-.088-.476-.132Zm229.833-59c-.036.03-.083.043-.117.073a14.133,14.133,0,0,1-3.547.167A11.8,11.8,0,0,1,579.69,529.063ZM601.848,531c.171.017.327.008.506.041a8.85,8.85,0,0,1-.464.993C601.893,531.7,601.878,531.357,601.848,531Zm79.989-111.879h0l0,.323c-.292.023-.566.056-.839.09A8.4,8.4,0,0,1,681.837,419.125ZM203.395,60.656c-.03.023-.047.049-.077.071h0c0-.03-.011-.062-.015-.092ZM158.5,624.812h0l1-.386a7.546,7.546,0,0,1-.673.681C158.722,625.009,158.613,624.909,158.5,624.812Zm175.2-38.684-.006-.041.055.015Zm4.07,79.461.036-.071a.38.38,0,0,0,.081-.019c-.021.049-.045.094-.068.141C337.806,665.62,337.791,665.607,337.774,665.588Zm32.5-34.512c.03-.038.057-.077.089-.115.043.032.085.047.128.077-.077.058-.148.135-.226.2C370.27,631.184,370.27,631.131,370.273,631.077ZM167.792,43.4l-.006.015c-.053-.068-.109-.132-.16-.2ZM36.339,209.385h0c-.011.073-.007.145-.017.218-.04-.021-.079-.039-.121-.056.047-.053.092-.107.137-.162Zm83.438,409.284.043-.026v.041Zm129.149-43.117a2.87,2.87,0,0,0,.448.049c-.021.026-.043.051-.066.079C250.185,576.376,248.787,576.047,248.926,575.552Zm4.648,4.431a14.824,14.824,0,0,1,3.643.3A19.484,19.484,0,0,1,253.574,579.983ZM333.3,591.87h.006v0c.008.009.42.425.446.453Zm-32.208,83.773h0l0,0c.288-.184.573-.374.863-.559.023.184.026.378.043.566ZM662.865,474.734c.222-.214.446-.425.672-.606l-.013-.053.077,0-.064.051.013.5C663.315,474.663,663.091,474.7,662.865,474.734Z"/><path class="a" d="M0,0H0V.01l0-.005Z" transform="translate(484.328 545.374)"/><path class="a" d="M.012.014.006,0H0Z" transform="translate(411.018 72.936)"/><path class="a" d="M0,0H0Z" transform="translate(400.843 433.38)"/><path class="a" d="M.013,0,0,.015l.025,0Z" transform="translate(411.005 72.936)"/><path class="a" d="M0,0V0H0V0Z" transform="translate(400.838 219.559)"/><path class="a" d="M0,0H0V0H0Z" transform="translate(400.84 217.523)"/><path class="a" d="M0,0V0L0,.007V0Z" transform="translate(496.547 315.267)"/></g></svg>