<svg xmlns="http://www.w3.org/2000/svg" width="91.083" height="44.999" viewBox="0 0 91.083 44.999"><defs><style>.a{fill:#fff;}</style></defs><g transform="translate(-44.718 -22.773)"><g transform="translate(56.553 30.09)"><path class="a" d="M58.563,49.71a5.139,5.139,0,0,0-1.148.184,4.2,4.2,0,0,0-.949.383,2.333,2.333,0,0,1,.61-1.092,3.836,3.836,0,0,1,.963-.708,4.838,4.838,0,0,1,1.035-.4,3.608,3.608,0,0,1,.851-.128,4.213,4.213,0,0,1,1.119.086q.5.113.978.269t1.006.269a4.826,4.826,0,0,0,1.2.086,3.108,3.108,0,0,0,.992-.2,6.709,6.709,0,0,0,.822-.4,2.68,2.68,0,0,1-.638,1.162,3.5,3.5,0,0,1-.95.709,4.56,4.56,0,0,1-.992.369,3.609,3.609,0,0,1-.794.113,3.764,3.764,0,0,1-1.077-.085c-.3-.076-.605-.165-.908-.269a9.317,9.317,0,0,0-.949-.27A4.491,4.491,0,0,0,58.563,49.71Zm7.6-3.487a3.743,3.743,0,0,1-1.3-.156,2.736,2.736,0,0,1-.652-.383,5.439,5.439,0,0,1-1.3.581,5.325,5.325,0,0,1-1.53.213,5.5,5.5,0,0,1-1.971-.341,4.764,4.764,0,0,1-1.531-.922,4.3,4.3,0,0,1-1.005-1.36,3.832,3.832,0,0,1-.369-1.658V34.317a4.354,4.354,0,0,1,.325-1.672,3.669,3.669,0,0,1,.964-1.361,4.784,4.784,0,0,1,1.6-.908,6.728,6.728,0,0,1,2.24-.34,5.767,5.767,0,0,1,2.339.411,4.058,4.058,0,0,1,1.446,1.021,3.46,3.46,0,0,1,.722,1.3,4.647,4.647,0,0,1,.2,1.262,3.723,3.723,0,0,1-.283,1.516,3.3,3.3,0,0,1-.709,1.049,2.8,2.8,0,0,1-.935.61,2.653,2.653,0,0,1-.964.2,3.119,3.119,0,0,1-2.055-.624,1.77,1.77,0,0,1-.752-1.361,2.29,2.29,0,0,0,.95.142,2.819,2.819,0,0,0,.935-.212,2.535,2.535,0,0,0,.78-.508,2.13,2.13,0,0,0,.511-.747,2.889,2.889,0,0,0,.156-.944,2.667,2.667,0,0,0-.214-1.113,2.256,2.256,0,0,0-.722-.916,2.587,2.587,0,0,0-2.41-.154,2.058,2.058,0,0,0-.666.564,2.026,2.026,0,0,0-.355.734,2.924,2.924,0,0,0-.1.706V43.51a3.424,3.424,0,0,0,.085.707,2.275,2.275,0,0,0,.3.733,1.94,1.94,0,0,0,.567.579,1.612,1.612,0,0,0,.922.24,1.628,1.628,0,0,0,.893-.226,1.662,1.662,0,0,0,.553-.564,2.221,2.221,0,0,0,.269-.733,4.16,4.16,0,0,0,.072-.733v-.367q-.029-.988-.114-1.651a7.344,7.344,0,0,0-.2-1.058,1.9,1.9,0,0,0-.312-.734h3.629Z" transform="translate(-56.466 -30.036)"/><path class="a" d="M73.82,50.417a3.108,3.108,0,0,0,.255-.652,5.3,5.3,0,0,0,.128-.836,4.38,4.38,0,0,0-.1-1.2L71.751,35.562,68.69,48.915a2.717,2.717,0,0,0-.056.539v.482a3.835,3.835,0,0,0,.028.482H67.13a2.548,2.548,0,0,0,.255-.453,4.019,4.019,0,0,0,.213-.525c.066-.2.137-.42.214-.666l3.543-15.336-.341-1.73a9.323,9.323,0,0,0-.369-1.077l-.169-.341h3.26L75.493,39.3l1.758,9.016a4.938,4.938,0,0,0,.227.864,6.687,6.687,0,0,0,.283.666,3.972,3.972,0,0,0,.312.567Z" transform="translate(-56.387 -30.034)"/><path class="a" d="M88.473,47.242a11.493,11.493,0,0,0,.709,1.941,2.61,2.61,0,0,0,.992,1.063,2.37,2.37,0,0,1-.836.341,4.077,4.077,0,0,1-.752.085,3.224,3.224,0,0,1-1.772-.608,2.9,2.9,0,0,1-1.035-1.744l-1.729-8.448a2.5,2.5,0,0,1-1.446-.538v7.625a13.5,13.5,0,0,0,.085,1.658,5.215,5.215,0,0,0,.227,1.064,1.905,1.905,0,0,0,.312.736H78.977a2.792,2.792,0,0,0,.311-.736,8.794,8.794,0,0,0,.213-1.064,11.478,11.478,0,0,0,.1-1.658V33.748a11.5,11.5,0,0,0-.1-1.658,8.772,8.772,0,0,0-.213-1.063,2.8,2.8,0,0,0-.311-.737h5.017a7.688,7.688,0,0,1,2.055.255,4.223,4.223,0,0,1,1.588.808,3.666,3.666,0,0,1,1.035,1.432,5.578,5.578,0,0,1,.369,2.155,5.2,5.2,0,0,1-.992,3.288,4.33,4.33,0,0,1-2.806,1.588,3.813,3.813,0,0,1,1.3,1.035,5.168,5.168,0,0,1,.992,2.254Zm-5.556-8.7a.971.971,0,0,0,.439.439,1.539,1.539,0,0,0,.808.213,1.328,1.328,0,0,0,.936-.341,2.327,2.327,0,0,0,.581-.907,5.224,5.224,0,0,0,.283-1.347q.071-.78.071-1.63a6.163,6.163,0,0,0-.241-1.857,3.521,3.521,0,0,0-.638-1.219,2.416,2.416,0,0,0-.893-.68A2.468,2.468,0,0,0,83.286,31h-.68v5.045a1.364,1.364,0,0,1,.51-.311,1.44,1.44,0,0,1,.624-.086,1.319,1.319,0,0,1,.567.184,1.019,1.019,0,0,1,.4.5,1.5,1.5,0,0,0-.864.085,1.608,1.608,0,0,0-.667.5,1.767,1.767,0,0,0-.34.751A1.582,1.582,0,0,0,82.917,38.539Z" transform="translate(-56.298 -30.034)"/><path class="a" d="M96.978,50.417a3.161,3.161,0,0,0,.256-.652,5.433,5.433,0,0,0,.127-.836,4.414,4.414,0,0,0-.1-1.2L94.909,35.562,91.848,48.915a2.718,2.718,0,0,0-.056.539v.482a3.834,3.834,0,0,0,.028.482H90.288a2.55,2.55,0,0,0,.256-.453,4.02,4.02,0,0,0,.213-.525c.065-.2.137-.42.213-.666l3.543-15.336-.34-1.73A9.737,9.737,0,0,0,93.8,30.63l-.17-.341h3.26L98.652,39.3l1.757,9.016a5.028,5.028,0,0,0,.227.864,6.671,6.671,0,0,0,.284.666,3.968,3.968,0,0,0,.311.567Z" transform="translate(-56.214 -30.034)"/><path class="a" d="M104.712,49.71a5.14,5.14,0,0,0-1.148.184,4.23,4.23,0,0,0-.95.383,2.35,2.35,0,0,1,.61-1.092,3.859,3.859,0,0,1,.964-.708,4.838,4.838,0,0,1,1.035-.4,3.608,3.608,0,0,1,.851-.128,4.213,4.213,0,0,1,1.119.086q.5.113.978.269a10.4,10.4,0,0,0,1.006.269,4.822,4.822,0,0,0,1.2.086,3.108,3.108,0,0,0,.992-.2,6.71,6.71,0,0,0,.822-.4,2.671,2.671,0,0,1-.639,1.162,3.492,3.492,0,0,1-.949.709,4.56,4.56,0,0,1-.992.369,3.609,3.609,0,0,1-.794.113,3.764,3.764,0,0,1-1.077-.085q-.455-.113-.908-.269a9.317,9.317,0,0,0-.949-.27A4.491,4.491,0,0,0,104.712,49.71Zm7.6-3.487a3.743,3.743,0,0,1-1.3-.156,2.736,2.736,0,0,1-.652-.383,5.439,5.439,0,0,1-1.3.581,5.33,5.33,0,0,1-1.53.213,5.493,5.493,0,0,1-1.971-.341,4.753,4.753,0,0,1-1.531-.922,4.316,4.316,0,0,1-1.006-1.36,3.831,3.831,0,0,1-.368-1.658V34.317a4.354,4.354,0,0,1,.325-1.672,3.669,3.669,0,0,1,.964-1.361,4.784,4.784,0,0,1,1.6-.908,6.724,6.724,0,0,1,2.24-.34,5.759,5.759,0,0,1,2.338.411,4.04,4.04,0,0,1,1.446,1.021,3.463,3.463,0,0,1,.723,1.3,4.648,4.648,0,0,1,.2,1.262,3.723,3.723,0,0,1-.283,1.516,3.317,3.317,0,0,1-.709,1.049,2.8,2.8,0,0,1-.935.61,2.653,2.653,0,0,1-.964.2,3.119,3.119,0,0,1-2.055-.624,1.77,1.77,0,0,1-.752-1.361,2.29,2.29,0,0,0,.95.142,2.819,2.819,0,0,0,.935-.212,2.535,2.535,0,0,0,.78-.508,2.13,2.13,0,0,0,.511-.747,2.865,2.865,0,0,0,.155-.944,2.65,2.65,0,0,0-.213-1.113,2.256,2.256,0,0,0-.722-.916,2.587,2.587,0,0,0-2.41-.154,2.047,2.047,0,0,0-.666.564,2.026,2.026,0,0,0-.355.734,2.93,2.93,0,0,0-.1.706V43.51a3.431,3.431,0,0,0,.086.707,2.276,2.276,0,0,0,.3.733,1.94,1.94,0,0,0,.567.579,1.61,1.61,0,0,0,.922.24,1.628,1.628,0,0,0,.893-.226,1.662,1.662,0,0,0,.553-.564,2.221,2.221,0,0,0,.269-.733,4.153,4.153,0,0,0,.071-.733v-.367q-.029-.988-.113-1.651a7.485,7.485,0,0,0-.2-1.058,1.91,1.91,0,0,0-.312-.734h3.629Z" transform="translate(-56.122 -30.036)"/><path class="a" d="M115.882,49.623a5.14,5.14,0,0,0-1.148.184,4.278,4.278,0,0,0-.95.383,2.345,2.345,0,0,1,.611-1.091,3.841,3.841,0,0,1,.963-.709,4.892,4.892,0,0,1,1.035-.4,3.652,3.652,0,0,1,.851-.127,4.173,4.173,0,0,1,1.119.085q.5.113.978.27a10.4,10.4,0,0,0,1.006.269,4.782,4.782,0,0,0,1.2.085,3.054,3.054,0,0,0,.992-.2,6.428,6.428,0,0,0,.822-.4,2.678,2.678,0,0,1-.638,1.163,3.507,3.507,0,0,1-.95.708,4.508,4.508,0,0,1-.992.369,3.619,3.619,0,0,1-.794.114,3.725,3.725,0,0,1-1.077-.086c-.3-.075-.605-.165-.908-.269a9.317,9.317,0,0,0-.949-.269A4.531,4.531,0,0,0,115.882,49.623Zm7.569-3.685H113.87a2.759,2.759,0,0,0,.311-.736,8.766,8.766,0,0,0,.214-1.064,11.642,11.642,0,0,0,.1-1.658V33.748a11.662,11.662,0,0,0-.1-1.658,8.744,8.744,0,0,0-.214-1.063,2.768,2.768,0,0,0-.311-.737h9.3l-.256,2.807h-.652q-.142-.567-.283-.964a1.58,1.58,0,0,0-.425-.652,1.752,1.752,0,0,0-.822-.369,7.715,7.715,0,0,0-1.5-.113H117.5v5.234a10.567,10.567,0,0,0,1.559,0q.709-.056,1.219-.113.6-.086,1.05-.2a2.329,2.329,0,0,1,.028.368,2.928,2.928,0,0,1-.142.793.831.831,0,0,1-.624.552,1.762,1.762,0,0,1-.964-.015l-2.126-.594v6.989a1.152,1.152,0,0,0,.071.354,1.128,1.128,0,0,0,.255.41,1.349,1.349,0,0,0,.525.325,2.527,2.527,0,0,0,.878.128h.992a2,2,0,0,0,1.049-.242,1.834,1.834,0,0,0,.639-.652,3.514,3.514,0,0,0,.368-.907c.086-.33.174-.667.27-1.006h.652Z" transform="translate(-56.039 -30.034)"/></g><g transform="translate(44.718 22.773)"><path class="a" d="M44.718,22.773v45H135.8v-45Zm2.38,2.415h86.324V55.442H47.1ZM63.263,61.721c0,.033-.011.078-.011.122v.122c0,.033-.022.079-.022.122s.033.079.033.123v.122c0,.044-.033.078-.033.122s.011.078.011.122.011.078.011.123-.011.078-.011.122v.155c0,.055-.011.1-.011.144s0,.09-.022.134a.751.751,0,0,1-.067.133c-.011.033-.033.066-.044.1l-.055.1a.619.619,0,0,1-.055.089c-.022.033-.066.055-.089.079a.8.8,0,0,1-.055.1.668.668,0,0,0-.089.089.575.575,0,0,1-.1.078.323.323,0,0,1-.089.089c-.022.022-.066.044-.1.078a.483.483,0,0,1-.078.066l-.066.079-.089.055-.111.078A.423.423,0,0,0,62,64.53c-.044.022-.066.055-.111.078a1.3,1.3,0,0,1-.122.055,1.028,1.028,0,0,1-.111.055.517.517,0,0,1-.111.055,1.328,1.328,0,0,0-.123.055l-.122.033c-.044.012-.089.012-.133.023a1.038,1.038,0,0,0-.111.054c-.044.012-.089.012-.122.023L60.809,65H60.7a1.151,1.151,0,0,0-.111.044c-.044,0-.078.011-.122.011a.854.854,0,0,1-.167-.011c-.033,0-.066.011-.1.011h-.111c-.044,0-.078-.011-.111-.011l-.111.011a.423.423,0,0,1-.112-.011.416.416,0,0,1-.111-.011.488.488,0,0,1-.111-.022h-.122a.556.556,0,0,0-.133-.022c-.045-.011-.079-.045-.123-.056s-.089-.01-.133-.021-.078-.045-.111-.056a.41.41,0,0,1-.122-.055.484.484,0,0,1-.134-.033c-.033-.011-.066-.033-.1-.044l-.1-.066-.1-.033a.7.7,0,0,0-.1-.044c-.033-.022-.055-.066-.089-.078l-.1-.078a.976.976,0,0,0-.111-.066c-.033-.022-.078-.033-.111-.056l-.089-.089c-.033-.022-.055-.066-.089-.089l-.078-.089c-.033-.033-.09-.044-.112-.066l-.089-.1-.066-.1-.1-.1c-.022-.034-.033-.079-.055-.112a.716.716,0,0,1-.089-.1c-.022-.044-.055-.066-.078-.111a.4.4,0,0,1-.045-.1.385.385,0,0,1-.044-.1c-.022-.033-.055-.055-.066-.089a.449.449,0,0,1-.055-.1.594.594,0,0,1-.055-.122.463.463,0,0,1-.044-.111c-.022-.044-.011-.089-.033-.122s-.011-.09-.022-.123-.033-.089-.044-.122-.033-.078-.044-.122a.394.394,0,0,1-.022-.111.384.384,0,0,1-.011-.112l-.033-.122v-.111a.371.371,0,0,1,0-.111c0-.044-.011-.078-.011-.111s.011-.078.011-.112-.011-.078-.011-.122-.011-.1-.011-.144a.648.648,0,0,0,.022-.144c0-.022.022-.044.022-.079a.33.33,0,0,1,.022-.1.372.372,0,0,1,0-.111.325.325,0,0,0,.033-.111c.011-.044.011-.089.022-.133l.033-.144a.6.6,0,0,1,.033-.112l.033-.1c.011-.044.033-.066.044-.111a.52.52,0,0,0,.066-.1c.022-.044.022-.089.044-.123s.055-.066.066-.111a.514.514,0,0,0,.045-.111A.872.872,0,0,1,57,59.478l.078-.1c.022-.033.033-.078.066-.1s.055-.055.078-.089l.089-.09a.52.52,0,0,1,.066-.1c.022-.022.033-.055.067-.089l.078-.078a.3.3,0,0,1,.09-.078.615.615,0,0,1,.089-.066l.078-.09c.033-.022.055-.055.089-.078l.1-.066a.8.8,0,0,1,.1-.055.455.455,0,0,1,.1-.055c.033-.022.055-.055.089-.078a1.026,1.026,0,0,1,.111-.055c.033-.022.078-.033.111-.055s.066-.033.111-.045a.6.6,0,0,1,.1-.066c.044-.011.089,0,.122-.022s.066-.055.111-.066.078,0,.122-.022l.111-.033c.044-.011.089-.011.123-.022s.078-.033.122-.044a.471.471,0,0,0,.122-.022c.044,0,.1-.022.144-.022a.627.627,0,0,1,.144,0,.542.542,0,0,1,.134,0,.584.584,0,0,0,.133-.033c.011,0,.033.022.055.022.044.011.1-.011.155,0,.011,0,.022.022.033.022.044.011.09-.022.134-.022a.488.488,0,0,0,.111.022.471.471,0,0,0,.122.022l.111.033a.394.394,0,0,1,.111.022c.033.011.079-.011.123,0l.1.033a1.151,1.151,0,0,1,.111.044.423.423,0,0,1,.111.033c.033.011.066.044.1.055a.592.592,0,0,1,.1.055c.033.011.078,0,.111.023a.449.449,0,0,1,.1.055.521.521,0,0,1,.1.066.769.769,0,0,1,.144.055c.044.022.066.078.112.1l.1.066a.587.587,0,0,1,.111.066.633.633,0,0,1,.089.078c.033.034.078.045.111.079s.044.066.078.089l.1.089a.609.609,0,0,1,.078.1.492.492,0,0,1,.089.122.086.086,0,0,1,.044.044c.022.033.066.067.078.1s-.022.089-.022.133a.159.159,0,0,1-.033.122l-.078.066a.2.2,0,0,1-.078.055c-.033.022-.078.033-.111.055s-.056.066-.09.09-.078.022-.111.044-.055.066-.089.089-.078.033-.111.055-.055.055-.089.078l-.1.066a1.028,1.028,0,0,0-.111.055c-.033.011-.066.044-.1.044a.394.394,0,0,1-.111-.022,2879.369,2879.369,0,0,1-.177-.089L61.519,60l-.078-.066-.078-.078c-.033-.022-.078-.022-.1-.045s-.044-.066-.078-.089-.078-.033-.111-.055a.578.578,0,0,0-.123-.055.463.463,0,0,0-.111-.044.594.594,0,0,0-.122-.055l-.122-.033a.556.556,0,0,0-.133-.022c-.044-.011-.09,0-.134-.011s-.066-.022-.1-.022a.307.307,0,0,0-.1-.011l-.111.011a.416.416,0,0,1-.122.011l-.123.022a.471.471,0,0,0-.122.022c-.033.011-.078,0-.122.011s-.066.044-.1.055a1.149,1.149,0,0,1-.111.044l-.1.055a.418.418,0,0,0-.112.033l-.133.066c-.033.034-.078.056-.111.09s-.044.066-.078.1a.633.633,0,0,0-.089.078.479.479,0,0,0-.079.078.3.3,0,0,0-.089.078c-.022.022-.033.066-.055.089a.4.4,0,0,0-.044.1c-.033.044-.066.078-.089.111s-.033.089-.055.133-.044.078-.066.122-.011.089-.022.133-.044.089-.055.134l-.034.144c0,.033.012.066.012.1a.326.326,0,0,0-.034.1c0,.033.011.078.011.122a.454.454,0,0,0,0,.123.68.68,0,0,0,.034.144.556.556,0,0,0,.022.133c.011.044.033.078.044.122s.011.09.022.122.022.09.044.123a.369.369,0,0,0,.066.111l.066.1c.022.044.022.089.044.122a.645.645,0,0,0,.078.09l.066.1.167.166.3.2a.417.417,0,0,1,.1.056.363.363,0,0,1,.112.055.52.52,0,0,0,.1.066l.111.044a.371.371,0,0,0,.111,0,.325.325,0,0,0,.111.033c.033.011.066.011.1.022.068,0,.123.011.178.011h.155c.044,0,.089.022.133.022s.1-.011.145-.022.089-.033.133-.044l.111-.033c.033-.011.078,0,.111-.011a.517.517,0,0,0,.111-.055c.033-.011.066-.033.1-.044a.394.394,0,0,1,.1-.044l.1-.079.089-.055a.609.609,0,0,0,.1-.078.555.555,0,0,0,.089-.078l.045-.044c.021-.033.01-.066.01-.1s.011-.079-.01-.1a.22.22,0,0,0-.156-.067.84.84,0,0,0-.177-.033c-.033,0-.078.011-.122.011H60.92a.84.84,0,0,1-.177-.033.422.422,0,0,1-.111-.033c-.044-.033-.044-.089-.055-.144a.585.585,0,0,1-.033-.133.556.556,0,0,1-.022-.133l.011-.112v-.122c0-.044.011-.078.011-.122V61.6c0-.044-.011-.079-.011-.122s-.011-.079-.011-.123a.422.422,0,0,1,.033-.111c0-.044-.022-.078-.011-.122A.43.43,0,0,1,60.609,61a.411.411,0,0,1,.122-.056c.044-.01.078-.043.133-.043h.123c.033,0,.078-.012.122-.012h.122c.044,0,.089.034.133.034s.089-.011.134-.011.089-.023.122-.023h.133c.044,0,.089.012.133.012v-.012c.044,0,.089.023.133.023h.245c.033.011.078-.011.111-.011h.411c.044,0,.1.011.144.011l.122.032a.423.423,0,0,1,.111.079.316.316,0,0,1,.079.133c0,.033-.011.066-.011.1s.022.066.022.089c0,.044.011.089.011.134s-.033.078-.033.122S63.263,61.676,63.263,61.721Zm7.969-2.942c0,.044-.023.089-.023.122s.012.078.012.122-.022.078-.022.122.033.079.033.111l-.011.112a.518.518,0,0,1-.022.122.462.462,0,0,1-.034.122.287.287,0,0,1-.122.078.488.488,0,0,1-.177.022h-.345c-.033,0-.078-.022-.111-.022h-.122c-.044,0-.089.033-.122.033s-.09-.011-.123-.011-.089-.022-.133-.022-.078.033-.122.033-.078-.033-.122-.033-.078.011-.122.011-.079-.011-.123-.011-.078.022-.122.022h-.122c-.044,0-.089-.022-.122-.022s-.089.011-.123.011h-.122c-.044,0-.078.011-.122.011s-.078.011-.122.011-.078-.022-.122-.022-.066.022-.1.022-.067.011-.1.022a.467.467,0,0,0-.111.034.18.18,0,0,0-.055.1.187.187,0,0,0-.033.111c0,.033-.022.078-.022.122s.022.078.022.122c0,.022-.022.055-.022.078a.406.406,0,0,0,.078.156.382.382,0,0,0,.1.089.324.324,0,0,0,.1.022.427.427,0,0,0,.112.011h.111c.044,0,.078.022.122.022s.078-.011.122-.011h.122c.044,0,.079-.011.123-.011s.078.011.122.011.078.011.122.011.078-.011.122-.011.078-.022.122-.022.079.022.123.022.078-.011.122-.011.078-.011.111-.011h.122c.033,0,.079.022.112.022h.122c.033,0,.066.011.1.011h.111c.033,0,.066-.022.1-.022a.348.348,0,0,0,.1.033c.011.011.033.011.055.022s.066.022.089.055.022.055.033.1.044.1.055.155l.011.112c0,.044-.011.078-.011.122V61.3c0,.055.011.122.011.178s-.011.089-.011.144v.144c0,.033-.022.066-.022.111a.416.416,0,0,1-.011.111c-.011.033,0,.079-.022.1a.133.133,0,0,1-.078.079.274.274,0,0,1-.1.044.552.552,0,0,1-.134.011c-.044,0-.078.011-.122.011h-.111c-.044,0-.078.011-.122.011l-.112-.011c-.044,0-.089.011-.133.011s-.078-.022-.122-.022-.089.011-.133.011-.078.011-.123.011-.089-.022-.133-.022h-.122c-.044,0-.089.011-.133.011l-.111-.011c-.044,0-.089.022-.123.022s-.078-.022-.122-.022h-.222l-.111.011a.408.408,0,0,0-.112.022.3.3,0,0,0-.144.022.175.175,0,0,0-.078.078c-.022.022-.022.055-.033.089s-.033.055-.044.089c0,.055.011.112.011.167a.833.833,0,0,1,0,.166c0,.011.011.022.022.044a.284.284,0,0,0,.055.133c.033.033.089.033.133.056.011,0,.022.021.022.021a.849.849,0,0,0,.167.011c.022,0,.033-.011.044-.011.044,0,.078.011.111.011h.233c.044,0,.078.011.122.011s.09-.011.123-.011.089.011.122.011.089-.011.133-.011h.122c.034,0,.079.011.123.011s.078-.011.122-.011.078-.011.122-.011h.245c.044,0,.089.022.133.022h.122c.033,0,.078-.022.122-.022s.078.011.122.011H70.8l.111-.011a.16.16,0,0,1,.078.022.2.2,0,0,1,.111.045.241.241,0,0,1,.055.089c.022.033.068.055.068.089s-.012.078-.012.122.012.089.012.133-.012.078-.012.123v.133c0,.044.012.089.012.133s-.012.078-.012.122.023.089.023.133-.023.09-.023.134a.572.572,0,0,1,0,.144.321.321,0,0,1-.021.1.905.905,0,0,1-.1.055A.223.223,0,0,1,71,64.74a.4.4,0,0,1-.122.022h-.133c-.044,0-.089-.011-.134-.011s-.078.011-.122.011h-.133c-.044,0-.078-.011-.122-.011s-.078.022-.122.022-.079-.011-.123-.011-.078-.022-.122-.022l-.111.011c-.044,0-.089.011-.122.011s-.078.011-.123.011-.078-.011-.122-.011-.078.011-.122.011-.078-.011-.122-.011l-.111-.011c-.044,0-.09.011-.122.011h-.123c-.044,0-.078-.011-.122-.011h-.489c-.044,0-.089-.011-.122-.011s-.089.033-.133.033-.078-.011-.123-.011h-.122c-.044,0-.089.011-.122.011s-.089-.022-.133-.022H67.3c-.044,0-.079.011-.123.011s-.089.011-.122.011-.089-.022-.133-.022-.078.022-.111.022a.422.422,0,0,0-.111-.033.416.416,0,0,1-.167-.044.469.469,0,0,1-.078-.055c-.022-.033-.044-.055-.044-.089a.323.323,0,0,1-.022-.1.339.339,0,0,1-.022-.09v-.133c0-.044.033-.089.033-.122s-.033-.089-.033-.133.022-.089.022-.133v-.123c0-.044.011-.089.011-.133v-.122c0-.044-.022-.089-.022-.133s.011-.089.011-.133.011-.079.011-.123-.011-.089-.011-.133-.022-.078-.022-.122.022-.089.022-.133-.011-.078-.011-.123.011-.089.011-.133-.022-.078-.022-.122.022-.089.022-.133-.011-.079-.011-.122.011-.09.011-.134v-.255c0-.033-.022-.078-.022-.122s.011-.09.011-.134h.011c0-.033-.011-.078-.011-.122v-.122c0-.033.011-.078.011-.122v-.122c0-.034-.011-.079-.011-.123v-.122c0-.033.022-.078.022-.122v-.122c0-.045-.033-.078-.033-.123s.011-.089.011-.122.022-.089.022-.133v-.122c0-.044-.022-.089-.022-.123s.011-.089.011-.133v-.122c0-.044-.011-.089-.011-.122v-.256c0-.044-.011-.078-.011-.122V58.8c0-.044.011-.089.011-.134v-.122a.325.325,0,0,1,.033-.111c0-.044-.011-.078-.011-.111a.347.347,0,0,1,.055-.111.364.364,0,0,1,.078-.1.232.232,0,0,1,.122-.032h.112c.044,0,.078-.011.111-.011s.078-.023.111-.023.078.034.122.034.066-.011.111-.011.09-.011.145-.011.089.022.133.022.089-.022.133-.022.078.022.122.022.09-.011.134-.011h.766c.033,0,.078.011.122.011h.367c.044,0,.078-.011.122-.011h.122c.044,0,.078.011.122.011l.112-.011h.122l.111-.011c.044,0,.078.011.122.011l.112.011c.044,0,.078-.022.122-.022h.255c.044,0,.089.011.133.011h.112c.044,0,.078.022.122.022A.921.921,0,0,1,71,58.1a.173.173,0,0,1,.1.034c.022.011.033.055.055.078s.045.055.045.089a.549.549,0,0,1,.033.122Zm7.969,0c0,.044-.022.089-.022.122s.011.078.011.122-.022.078-.022.122.033.079.033.111l-.011.112a.471.471,0,0,1-.022.122.5.5,0,0,1-.033.122.287.287,0,0,1-.122.078.493.493,0,0,1-.178.022h-.344c-.033,0-.078-.022-.111-.022h-.123c-.044,0-.089.033-.122.033s-.089-.011-.122-.011-.089-.022-.133-.022-.079.033-.123.033-.078-.033-.122-.033-.078.011-.122.011-.078-.011-.122-.011-.078.022-.122.022h-.123c-.044,0-.089-.022-.122-.022s-.089.011-.122.011h-.122c-.044,0-.078.011-.123.011s-.078.011-.122.011-.078-.022-.122-.022-.066.022-.1.022-.066.011-.1.022a.467.467,0,0,0-.111.034.176.176,0,0,0-.056.1.187.187,0,0,0-.033.111c0,.033-.022.078-.022.122s.022.078.022.122c0,.022-.022.055-.022.078a.406.406,0,0,0,.078.156.387.387,0,0,0,.1.089.324.324,0,0,0,.1.022.416.416,0,0,0,.111.011h.111c.044,0,.078.022.122.022s.078-.011.123-.011h.122c.044,0,.078-.011.122-.011s.078.011.122.011.078.011.122.011.079-.011.123-.011.078-.022.122-.022.078.022.122.022.078-.011.122-.011.078-.011.111-.011h.123c.033,0,.078.022.111.022h.122c.033,0,.066.011.1.011h.112c.033,0,.066-.022.1-.022a.352.352,0,0,0,.1.033c.011.011.033.011.055.022s.066.022.089.055.022.055.033.1.044.1.055.155l.011.112c0,.044-.011.078-.011.122V61.3c0,.055.011.122.011.178s-.011.089-.011.144v.144c0,.033-.022.066-.022.111a.416.416,0,0,1-.011.111c-.011.033,0,.079-.022.1a.133.133,0,0,1-.078.079.274.274,0,0,1-.1.044.539.539,0,0,1-.133.011c-.044,0-.078.011-.123.011h-.111c-.044,0-.078.011-.122.011l-.111-.011c-.044,0-.089.011-.133.011s-.079-.022-.123-.022-.089.011-.133.011-.078.011-.122.011-.089-.022-.133-.022h-.123c-.044,0-.089.011-.133.011l-.111-.011c-.044,0-.089.022-.122.022s-.078-.022-.122-.022h-.223l-.111.011a.394.394,0,0,0-.111.022.3.3,0,0,0-.144.022.172.172,0,0,0-.079.078c-.022.022-.022.055-.033.089s-.033.055-.044.089c0,.055.011.112.011.167a.834.834,0,0,1,0,.166c0,.011.011.022.022.044a.285.285,0,0,0,.055.133c.033.033.09.033.134.056.011,0,.022.021.022.021a.839.839,0,0,0,.166.011c.022,0,.033-.011.044-.011.044,0,.078.011.111.011h.234c.044,0,.078.011.122.011s.089-.011.122-.011.089.011.122.011.09-.011.134-.011h.122c.033,0,.078.011.122.011s.078-.011.122-.011.078-.011.122-.011h.245c.044,0,.089.022.133.022h.122c.033,0,.078-.022.122-.022s.079.011.123.011h.244l.111-.011a.168.168,0,0,1,.079.022.2.2,0,0,1,.111.045.241.241,0,0,1,.055.089c.022.033.066.055.066.089s-.011.078-.011.122.011.089.011.133-.011.078-.011.123v.133c0,.044.011.089.011.133s-.011.078-.011.122.022.089.022.133-.022.09-.022.134a.625.625,0,0,1,0,.144.323.323,0,0,1-.022.1.8.8,0,0,1-.1.055.221.221,0,0,1-.09.044.4.4,0,0,1-.122.022h-.133c-.044,0-.089-.011-.133-.011s-.078.011-.122.011h-.134c-.044,0-.078-.011-.122-.011s-.078.022-.122.022-.078-.011-.122-.011-.078-.022-.123-.022l-.111.011c-.044,0-.089.011-.122.011s-.078.011-.122.011-.078-.011-.122-.011-.078.011-.122.011-.079-.011-.123-.011L77,64.751c-.044,0-.089.011-.122.011h-.122c-.044,0-.078-.011-.123-.011h-.488c-.044,0-.09-.011-.123-.011s-.089.033-.133.033-.078-.011-.122-.011h-.122c-.044,0-.09.011-.123.011s-.089-.022-.133-.022h-.122c-.044,0-.078.011-.122.011s-.089.011-.122.011-.09-.022-.134-.022-.078.022-.111.022a.422.422,0,0,0-.111-.033.411.411,0,0,1-.166-.044.469.469,0,0,1-.078-.055c-.022-.033-.045-.055-.045-.089a.323.323,0,0,1-.022-.1.339.339,0,0,1-.022-.09v-.133c0-.044.033-.089.033-.122s-.033-.089-.033-.133.022-.089.022-.133v-.123c0-.044.011-.089.011-.133v-.122c0-.044-.022-.089-.022-.133s.011-.089.011-.133.011-.079.011-.123-.011-.089-.011-.133-.022-.078-.022-.122.022-.089.022-.133-.011-.078-.011-.123.011-.089.011-.133-.022-.078-.022-.122.022-.089.022-.133-.011-.079-.011-.122.011-.09.011-.134v-.255c0-.033-.022-.078-.022-.122s.011-.09.011-.134h.011c0-.033-.011-.078-.011-.122v-.122c0-.033.011-.078.011-.122v-.122c0-.034-.011-.079-.011-.123v-.122c0-.033.022-.078.022-.122v-.122c0-.045-.033-.078-.033-.123s.011-.089.011-.122.022-.089.022-.133v-.122c0-.044-.022-.089-.022-.123s.011-.089.011-.133v-.122c0-.044-.011-.089-.011-.122v-.256c0-.044-.011-.078-.011-.122V58.8c0-.044.011-.089.011-.134v-.122a.325.325,0,0,1,.033-.111c0-.044-.011-.078-.011-.111a.348.348,0,0,1,.056-.111.364.364,0,0,1,.078-.1.232.232,0,0,1,.122-.032h.111c.044,0,.078-.011.111-.011s.078-.023.111-.023.079.034.123.034.066-.011.111-.011.089-.011.144-.011.089.022.133.022.089-.022.134-.022.078.022.122.022.089-.011.133-.011h.766c.033,0,.079.011.123.011h.366c.044,0,.078-.011.123-.011h.122c.044,0,.078.011.122.011l.111-.011h.122l.111-.011c.045,0,.079.011.123.011l.111.011c.044,0,.078-.022.122-.022h.256c.044,0,.089.011.133.011h.111c.044,0,.078.022.122.022a.921.921,0,0,1,.166.01.173.173,0,0,1,.1.034c.022.011.033.055.055.078s.044.055.044.089a.5.5,0,0,1,.033.122Zm8.635,5.828a.1.1,0,0,1-.089.1.327.327,0,0,1-.144.055c-.033,0-.066.011-.1.011l-.111-.011c-.045,0-.079-.011-.123-.011s-.089-.011-.133-.011H87c-.044,0-.089.033-.133.033s-.09-.033-.123-.033-.089.033-.133.033h-.266c-.044,0-.089-.011-.134-.011a.328.328,0,0,1-.111-.022c-.033-.011-.066-.011-.1-.022s-.055-.055-.089-.078a.672.672,0,0,1-.111-.078.345.345,0,0,1-.078-.1l-.079-.1a.557.557,0,0,1-.066-.111c-.022-.033-.055-.055-.078-.089l-.078-.1a.669.669,0,0,0-.089-.089.587.587,0,0,0-.066-.111l-.066-.089a.614.614,0,0,1-.078-.1.619.619,0,0,0-.079-.1c-.022-.033-.066-.044-.089-.078a.609.609,0,0,0-.078-.1c-.022-.033-.033-.078-.055-.111s-.055-.056-.078-.089-.066-.056-.089-.09l-.078-.089-.079-.1a.779.779,0,0,1-.066-.1l-.089-.089a.54.54,0,0,0-.078-.068c-.022-.021-.033-.054-.066-.065a.174.174,0,0,0-.111,0c-.033.011-.044.054-.066.089a.291.291,0,0,0-.055.1.625.625,0,0,0,0,.144c0,.033.011.078.011.122s-.022.078-.022.123v.111c0,.044.022.089.022.122s-.011.089-.011.122v.122c0,.044-.011.078-.011.123s.011.078.011.122a.449.449,0,0,1,0,.122v.122c0,.033-.011.066-.011.1v.112c0,.033-.012.066-.012.1a.277.277,0,0,1,0,.1.394.394,0,0,1-.044.1c-.011.022-.055.022-.089.044a.247.247,0,0,1-.144.066c-.022,0-.055-.022-.078-.022-.044,0-.089.022-.122.022h-.134c-.044,0-.078.011-.122.011s-.089-.022-.122-.022-.089.022-.133.022-.078-.033-.122-.033-.09.022-.123.022a.654.654,0,0,1-.155-.022.282.282,0,0,1-.144-.055c-.033-.033-.033-.089-.044-.144a.084.084,0,0,1-.022-.044v-.1c0-.034-.022-.066-.022-.1s.011-.066.011-.1-.011-.066-.011-.111v-.111c0-.033-.022-.078-.022-.111v-.122c0-.045.011-.078.011-.123v-.111c0-.044.022-.089.022-.133v-.133c0-.044-.011-.1-.011-.144s-.011-.09-.011-.134.022-.089.022-.133-.011-.089-.011-.144-.011-.089-.011-.134v-.144c0-.033.011-.066.011-.1s.011-.066.011-.1v-.234c0-.044-.022-.078-.022-.122s.022-.078.022-.111v-.122c0-.033-.011-.066-.011-.1s-.011-.066-.011-.1.022-.078.022-.111-.022-.078-.022-.111v-.322c0-.033.011-.067.011-.1l.011-.078c0-.033-.022-.066-.022-.1s.022-.089.022-.133-.022-.1-.022-.144-.011-.09-.011-.134v-.155a.632.632,0,0,0,.011-.144v-.167c0-.044-.011-.089-.011-.133s.022-.089.022-.133v-.345c0-.033-.022-.066-.022-.1s.022-.089.022-.133.011-.078.011-.122V58.7c0-.044-.022-.1-.022-.145a.677.677,0,0,1,.033-.144c0-.022-.011-.044-.011-.066a.234.234,0,0,1,.044-.111.175.175,0,0,1,.078-.078.254.254,0,0,1,.089-.066l.044.01c.044,0,.089-.043.133-.043h.145l.111.011h.122c.044,0,.078-.011.122-.011l.111.011c.044,0,.09.011.123.011a.632.632,0,0,1,.144.011c.044,0,.089.01.144.01a.349.349,0,0,1,.111.056c.022.033.055.055.066.1.011.022.034.044.034.067a.632.632,0,0,1,.011.144v.144c0,.045.011.1.011.145s-.011.1-.011.144v.122c0,.044-.011.078-.011.122v.245c0,.044.022.078.022.122s-.022.066-.022.1a.8.8,0,0,1,.044.089c0,.011.011.022.022.044a.108.108,0,0,0,.055.066.154.154,0,0,0,.1,0c.033-.01.055-.043.089-.066s.089-.055.122-.1a.555.555,0,0,0,.089-.078.955.955,0,0,0,.056-.1.3.3,0,0,0,.089-.078.8.8,0,0,0,.055-.1l.1-.066a.628.628,0,0,1,.066-.09l.089-.089a.8.8,0,0,0,.055-.1.556.556,0,0,0,.089-.078c.023-.033.056-.044.09-.078a.779.779,0,0,0,.066-.1.3.3,0,0,0,.078-.09.669.669,0,0,1,.089-.089c.022-.033.055-.055.078-.089a.674.674,0,0,0,.078-.111c.033-.033.078-.044.112-.078s.055-.055.089-.078.055-.045.1-.056.078.011.111,0,.055-.021.089-.021.066.011.1.011.067-.022.112-.022.066.011.111.011.066-.011.111-.011.066-.011.1-.011.089.011.133.011h.245c.044,0,.078.011.122.011h.122a.54.54,0,0,1,.133.011c.034,0,.079-.033.123-.022.022,0,.044.022.078.022s.044,0,.078,0l.011.01a.166.166,0,0,1,.078.067c.022.033.044.055.033.1a.4.4,0,0,1-.044.122c-.022.022-.055.044-.066.066l-.066.089a.728.728,0,0,0-.066.1c-.033.021-.055.055-.089.078l-.078.1a.71.71,0,0,1-.09.078l-.078.1a.633.633,0,0,0-.089.078.562.562,0,0,0-.066.112.609.609,0,0,0-.1.078.289.289,0,0,1-.079.089.78.78,0,0,1-.065.1.566.566,0,0,0-.079.1.669.669,0,0,1-.089.089.3.3,0,0,1-.089.078.534.534,0,0,1-.078.1l-.089.079a.8.8,0,0,0-.055.1c-.022.033-.067.044-.089.066s-.045.066-.067.089-.055.055-.078.089a.692.692,0,0,1-.066.09.614.614,0,0,0-.089.089c-.022.022-.044.066-.066.089s-.078.044-.1.078-.033.066-.066.1a.473.473,0,0,0-.079.078.521.521,0,0,0-.066.1.761.761,0,0,0-.133.134.327.327,0,0,0-.055.144.281.281,0,0,0,.022.133.391.391,0,0,0,.089.144c.033.056.055.112.089.156s.078.044.1.078l.056.1a.554.554,0,0,1,.078.089c.033.033.033.078.055.111s.066.044.089.079a.734.734,0,0,0,.089.089c.022.022.022.078.044.1a.669.669,0,0,0,.089.089l.067.1.066.089c.033.033.044.066.078.1l.066.1a.669.669,0,0,1,.089.089l.078.1.066.1a.668.668,0,0,1,.089.089.64.64,0,0,0,.079.09.6.6,0,0,0,.066.089c.022.033.055.055.078.089a.52.52,0,0,0,.066.1.512.512,0,0,0,.078.078.587.587,0,0,0,.066.111.594.594,0,0,0,.066.112c.022.033.066.054.1.089a.538.538,0,0,0,.066.111.747.747,0,0,1,.166.2c.022.033.033.066.066.111a1.067,1.067,0,0,1,.089.111.5.5,0,0,1,.1.112A.185.185,0,0,1,87.836,64.607Zm45.7.607H99.584V57.409h33.954Z" transform="translate(-44.718 -22.773)"/></g><g transform="translate(108.275 58.509)"><g transform="translate(0 0)"><path class="a" d="M109.585,59.357v1.2a.6.6,0,0,1-.411.6.7.7,0,0,1,.289.223.6.6,0,0,1,.122.385V63a.113.113,0,0,0,.128.128h.586v.984h-.9a.822.822,0,0,1-.93-.93V61.757a.145.145,0,0,0-.027-.1.148.148,0,0,0-.1-.026H107.8v-.937h.533a.1.1,0,0,0,.128-.128V59.175a.822.822,0,0,1,.93-.93h.9v.984h-.586a.1.1,0,0,0-.128.128Z" transform="translate(-107.805 -58.245)"/><path class="a" d="M121.748,60.557v-1.2a.145.145,0,0,0-.027-.1.148.148,0,0,0-.1-.026h-.586v-.984h.9a.815.815,0,0,1,.931.93v1.389a.113.113,0,0,0,.128.128h.532v.937H123a.113.113,0,0,0-.128.128v1.423a.815.815,0,0,1-.931.93h-.9v-.984h.586a.142.142,0,0,0,.1-.027.14.14,0,0,0,.027-.1V61.764a.59.59,0,0,1,.121-.381.768.768,0,0,1,.29-.227A.609.609,0,0,1,121.748,60.557Z" transform="translate(-107.707 -58.245)"/></g><g transform="translate(4.26 2.393)"><path class="a" d="M113.112,61.159c0,.027-.013.054-.013.082l-.02.081a.3.3,0,0,1-.02.081.51.51,0,0,1-.047.075.492.492,0,0,1-.054.06.393.393,0,0,1-.068.047.487.487,0,0,1-.06.06.378.378,0,0,0-.081.02c-.02.007-.04.02-.06.027s-.047,0-.067.007h-.088a.594.594,0,0,1-.088-.02.237.237,0,0,1-.06-.02.255.255,0,0,1-.061-.027.227.227,0,0,1-.053-.034c-.02-.02-.054-.02-.075-.04l-.06-.06-.047-.068a.583.583,0,0,1-.027-.075.176.176,0,0,1-.02-.074.367.367,0,0,1-.006-.081c0-.02.013-.041.013-.06s-.013-.047-.007-.068a.231.231,0,0,1,.02-.061.237.237,0,0,1,.02-.06l.02-.068a.419.419,0,0,1,.047-.047.186.186,0,0,1,.047-.053l.04-.047a.834.834,0,0,1,.075-.04c.027-.013.047-.027.068-.034a.358.358,0,0,1,.081-.026.161.161,0,0,0,.054-.007c.02,0,.04-.007.06-.007a.323.323,0,0,1,.081.014.365.365,0,0,1,.088,0c.02.013.047.026.075.04l.06.04a.3.3,0,0,0,.06.04.353.353,0,0,1,.047.06.2.2,0,0,1,.047.054c.013.02.02.047.033.068l.014.074a.231.231,0,0,1,.02.061A.52.52,0,0,1,113.112,61.159Zm-.734-.053-.007-.007v-.033a.023.023,0,0,0-.007-.02c-.006,0-.013-.014-.02-.014s-.02.007-.02.014.007.013.014.02a.065.065,0,0,1,.006.033c-.006,0-.006,0-.006.007v.007c0-.007.006-.007.006-.014h.027a.025.025,0,0,1-.007.014c.007.006.021.006.027.013l-.006.007h.006C112.4,61.119,112.391,61.113,112.378,61.106Zm.007.115c-.007,0,0-.007,0-.007a.022.022,0,0,1-.014.007c0,.006.007.006.007.013s0,.007.007.007h.006C112.4,61.234,112.385,61.226,112.385,61.22Zm.168-.351a.033.033,0,0,0-.02-.007c-.014-.013-.02-.027-.04-.027s-.02.014-.027,0,.007-.013,0-.02h-.014l-.02.02-.033.014c-.013,0-.013.013-.013.026s-.007.014-.007.027.013.014.02.014.013.006.02.006.02.007.033.007v.027c0,.007.014.013.014.02a.139.139,0,0,1-.054.053.006.006,0,0,1-.006-.006v.013s0,.007.006.007a.023.023,0,0,0,.027,0c.013-.007.02-.014.027-.014l.047-.02a.049.049,0,0,0,.013-.04c-.007-.006-.013-.013-.02-.013s-.033-.02-.054-.027c0-.027.014-.033.034-.047a.007.007,0,0,1,.007-.007l.006.014a.025.025,0,0,0,.02.007A.032.032,0,0,0,112.553,60.87ZM112.4,61c.007,0,.007,0,.013-.007h.007c0-.006,0-.006-.007-.006s-.006-.007-.013-.007S112.391,60.991,112.4,61Zm.108.142a.007.007,0,0,0,.007-.007H112.5c-.006-.007-.013-.007-.026-.007l-.027-.007c-.014.007-.007.021-.007.027s-.007.013.007.02.013.014.02.007S112.485,61.146,112.505,61.14Zm.013.094-.02.007c0,.006-.006.013,0,.02s.007,0,.007,0,.007.007.007,0,.006-.007.006-.014A.009.009,0,0,0,112.519,61.234Zm.082-.33h.013a.029.029,0,0,0,.027-.027c0-.013-.007-.033.006-.033h.007a.007.007,0,0,0,.007-.007h-.014c-.006,0-.013-.006-.02,0s-.026.021-.04.021h-.006a.024.024,0,0,1-.007.013C112.58,60.883,112.593,60.89,112.6,60.9Zm.013.142c.007,0,.013.006.02,0a.007.007,0,0,0-.007-.007s0-.007-.006-.007a.026.026,0,0,0-.014-.006.021.021,0,0,1,.007.013S112.606,61.038,112.613,61.045Zm.02.121v-.007a.021.021,0,0,0-.007-.013c-.006,0-.006.013-.013.02S112.626,61.173,112.633,61.166Zm.02-.223c-.013.007-.02.007-.027.014l.007.007a.006.006,0,0,0,.007.006.035.035,0,0,0,.027-.013C112.668,60.95,112.654,60.95,112.654,60.943Zm.02.411a.042.042,0,0,0-.006-.026.013.013,0,0,0-.021,0,.018.018,0,0,0-.02.02c0,.006.007.02.014.02S112.661,61.361,112.674,61.354Zm-.006-.344h-.007c0,.007,0,.007.007.007s.006.007.006.007h.02v-.007C112.688,61,112.681,61,112.668,61.011Zm.06.3-.007-.007c-.007,0-.013-.007-.013,0l.013.007h-.007c.007.006.007.013.014.006S112.728,61.308,112.728,61.308Zm.013-.23c-.007,0-.013-.006-.02,0l.013.007c0,.007-.013,0,0,.007S112.741,61.085,112.741,61.078Zm0-.013.007.007a.026.026,0,0,0,.006-.014C112.754,61.065,112.741,61.058,112.741,61.065Zm.121.135a.281.281,0,0,1,.007-.034c-.007-.007-.02,0-.02-.007s-.007-.019-.02-.026-.013-.014-.02-.007a.065.065,0,0,0-.027.04h.02c.014,0,.02.007.034.014s-.007.02-.007.026a.007.007,0,0,1,.007.007h.013c.007,0,.02.007.02,0A.021.021,0,0,0,112.862,61.2Z" transform="translate(-112.034 -60.62)"/><path class="a" d="M116.2,61.159c0,.027-.014.054-.014.082l-.02.081a.3.3,0,0,1-.02.081.439.439,0,0,1-.047.075.41.41,0,0,1-.053.06.392.392,0,0,1-.067.047.488.488,0,0,1-.06.06.4.4,0,0,0-.082.02c-.02.007-.04.02-.06.027s-.047,0-.068.007h-.088a.624.624,0,0,1-.088-.02.237.237,0,0,1-.06-.02.266.266,0,0,1-.06-.027.232.232,0,0,1-.054-.034c-.02-.02-.053-.02-.074-.04l-.061-.06-.046-.068a.459.459,0,0,1-.027-.075.162.162,0,0,1-.02-.074.316.316,0,0,1-.007-.081c0-.02.013-.041.013-.06s-.013-.047-.006-.068a.2.2,0,0,1,.02-.061.2.2,0,0,1,.02-.06l.02-.068a.3.3,0,0,1,.047-.047.173.173,0,0,1,.047-.053l.04-.047a.833.833,0,0,1,.074-.04c.027-.013.047-.027.067-.034a.375.375,0,0,1,.081-.026.161.161,0,0,0,.054-.007c.02,0,.04-.007.06-.007a.331.331,0,0,1,.082.014.365.365,0,0,1,.088,0c.02.013.046.026.074.04l.06.04a.306.306,0,0,0,.061.04.346.346,0,0,1,.046.06.188.188,0,0,1,.047.054c.014.02.02.047.034.068l.013.074a.2.2,0,0,1,.02.061A.44.44,0,0,1,116.2,61.159Zm-.735-.053-.006-.007v-.033a.023.023,0,0,0-.007-.02c-.007,0-.013-.014-.02-.014s-.02.007-.02.014.006.013.013.02a.057.057,0,0,1,.007.033c-.007,0-.007,0-.007.007v.007c0-.007.007-.007.007-.014h.027a.025.025,0,0,1-.007.014c.007.006.02.006.027.013l-.007.007h.007C115.486,61.119,115.48,61.113,115.466,61.106Zm.007.115c-.007,0,0-.007,0-.007a.021.021,0,0,1-.013.007c0,.006.006.006.006.013s0,.007.007.007h.007C115.486,61.234,115.473,61.226,115.473,61.22Zm.168-.351a.033.033,0,0,0-.02-.007c-.013-.013-.02-.027-.04-.027s-.02.014-.027,0,.007-.013,0-.02h-.013l-.02.02-.034.014c-.013,0-.013.013-.013.026s-.007.014-.007.027.014.014.02.014.014.006.02.006.021.007.034.007v.027c0,.007.013.013.013.02a.13.13,0,0,1-.053.053.006.006,0,0,1-.007-.006v.013a.007.007,0,0,0,.007.007.023.023,0,0,0,.027,0c.013-.007.019-.014.026-.014l.047-.02a.049.049,0,0,0,.013-.04c-.006-.006-.013-.013-.02-.013s-.033-.02-.053-.027c0-.027.013-.033.033-.047a.007.007,0,0,1,.007-.007l.007.014a.023.023,0,0,0,.02.007A.031.031,0,0,0,115.641,60.87Zm-.155.128c.007,0,.007,0,.014-.007h.006c0-.006,0-.006-.006-.006s-.007-.007-.014-.007S115.48,60.991,115.486,61Zm.108.142a.007.007,0,0,0,.007-.007h-.013c-.007-.007-.014-.007-.027-.007l-.027-.007c-.013.007-.006.021-.006.027s-.007.013.006.02.013.014.02.007S115.573,61.146,115.593,61.14Zm.014.094-.02.007c0,.006-.007.013,0,.02s.006,0,.006,0,.007.007.007,0,.007-.007.007-.014A.009.009,0,0,0,115.608,61.234Zm.081-.33h.013a.028.028,0,0,0,.027-.027c0-.013-.007-.033.007-.033h.007a.006.006,0,0,0,.006-.007h-.013c-.007,0-.014-.006-.02,0s-.027.021-.04.021h-.007a.024.024,0,0,1-.007.013C115.668,60.883,115.681,60.89,115.688,60.9Zm.013.142c.007,0,.014.006.02,0s0-.007-.006-.007a.007.007,0,0,0-.007-.007.026.026,0,0,0-.013-.006.022.022,0,0,1,.006.013S115.7,61.038,115.7,61.045Zm.02.121v-.007a.022.022,0,0,0-.006-.013c-.007,0-.007.013-.014.02S115.715,61.173,115.721,61.166Zm.021-.223c-.014.007-.021.007-.027.014l.006.007a.006.006,0,0,0,.007.006.034.034,0,0,0,.027-.013C115.756,60.95,115.743,60.95,115.743,60.943Zm.02.411c0-.006,0-.02-.007-.026a.012.012,0,0,0-.02,0c-.014,0-.02.006-.02.02s.006.02.013.02S115.749,61.361,115.763,61.354Zm-.007-.344h-.007c0,.007,0,.007.007.007a.007.007,0,0,1,.007.007h.02v-.007C115.776,61,115.769,61,115.756,61.011Zm.06.3-.007-.007c-.006,0-.013-.007-.013,0l.013.007H115.8c.006.006.006.013.013.006S115.816,61.308,115.816,61.308Zm.014-.23c-.007,0-.014-.006-.021,0l.014.007c0,.007-.014,0,0,.007S115.83,61.085,115.83,61.078Zm0-.013.006.007a.025.025,0,0,0,.007-.014C115.843,61.065,115.83,61.058,115.83,61.065Zm.121.135a.28.28,0,0,1,.007-.034c-.007-.007-.02,0-.02-.007s-.007-.019-.02-.026-.014-.014-.021-.007a.061.061,0,0,0-.026.04h.02c.013,0,.02.007.033.014s-.006.02-.006.026a.006.006,0,0,1,.006.007h.014c.006,0,.02.007.02,0A.021.021,0,0,0,115.951,61.2Z" transform="translate(-112.011 -60.62)"/><path class="a" d="M119.289,61.159c0,.027-.013.054-.013.082l-.021.081a.243.243,0,0,1-.02.081.429.429,0,0,1-.046.075.491.491,0,0,1-.054.06.392.392,0,0,1-.067.047.489.489,0,0,1-.06.06.378.378,0,0,0-.081.02c-.02.007-.04.02-.06.027s-.047,0-.067.007h-.088a.593.593,0,0,1-.088-.02.244.244,0,0,1-.061-.02.266.266,0,0,1-.06-.027.226.226,0,0,1-.053-.034c-.02-.02-.054-.02-.075-.04l-.06-.06-.047-.068a.578.578,0,0,1-.027-.075.176.176,0,0,1-.02-.074.367.367,0,0,1-.006-.081c0-.02.013-.041.013-.06s-.013-.047-.007-.068a.231.231,0,0,1,.02-.061.237.237,0,0,1,.02-.06l.02-.068a.42.42,0,0,1,.047-.047.186.186,0,0,1,.047-.053l.04-.047a.833.833,0,0,1,.075-.04c.027-.013.047-.027.067-.034a.343.343,0,0,1,.081-.026.167.167,0,0,0,.054-.007c.02,0,.04-.007.06-.007a.323.323,0,0,1,.081.014.365.365,0,0,1,.088,0c.02.013.047.026.075.04l.06.04a.3.3,0,0,0,.06.04.413.413,0,0,1,.047.06.2.2,0,0,1,.047.054c.013.02.02.047.033.068l.013.074a.2.2,0,0,1,.021.061A.517.517,0,0,1,119.289,61.159Zm-.734-.053-.007-.007v-.033a.023.023,0,0,0-.007-.02c-.006,0-.013-.014-.02-.014s-.02.007-.02.014.007.013.014.02a.065.065,0,0,1,.006.033c-.006,0-.006,0-.006.007v.007c0-.007.006-.007.006-.014h.027a.025.025,0,0,1-.007.014c.007.006.02.006.027.013l-.007.007h.007C118.575,61.119,118.568,61.113,118.555,61.106Zm.006.115c-.006,0,0-.007,0-.007a.019.019,0,0,1-.013.007c0,.006.007.006.007.013s0,.007.006.007h.007C118.575,61.234,118.561,61.226,118.561,61.22Zm.169-.351a.033.033,0,0,0-.02-.007c-.014-.013-.02-.027-.041-.027s-.02.014-.026,0,.006-.013,0-.02h-.014l-.02.02-.033.014c-.014,0-.014.013-.014.026s-.006.014-.006.027.013.014.02.014.013.006.02.006.02.007.033.007v.027c0,.007.014.013.014.02a.139.139,0,0,1-.054.053.006.006,0,0,1-.007-.006v.013a.007.007,0,0,0,.007.007.023.023,0,0,0,.027,0c.013-.007.02-.014.027-.014l.047-.02a.049.049,0,0,0,.013-.04c-.007-.006-.013-.013-.02-.013s-.034-.02-.054-.027c0-.027.014-.033.034-.047,0,0,0-.007.006-.007l.007.014a.025.025,0,0,0,.02.007A.032.032,0,0,0,118.73,60.87Zm-.155.128c.006,0,.006,0,.013-.007h.007c0-.006,0-.006-.007-.006s-.007-.007-.013-.007S118.568,60.991,118.575,61Zm.108.142a.007.007,0,0,0,.007-.007h-.014c-.007-.007-.013-.007-.027-.007l-.026-.007c-.014.007-.007.021-.007.027s-.007.013.007.02.013.014.02.007S118.662,61.146,118.682,61.14Zm.013.094-.02.007c0,.006-.007.013,0,.02s.007,0,.007,0,.007.007.007,0,.006-.007.006-.014A.009.009,0,0,0,118.7,61.234Zm.082-.33h.013a.029.029,0,0,0,.027-.027c0-.013-.007-.033.006-.033h.007a.007.007,0,0,0,.007-.007h-.014c-.006,0-.013-.006-.02,0s-.026.021-.04.021h-.007a.026.026,0,0,1-.006.013C118.756,60.883,118.77,60.89,118.777,60.9Zm.013.142c.007,0,.013.006.02,0a.007.007,0,0,0-.007-.007s0-.007-.006-.007a.026.026,0,0,0-.014-.006.021.021,0,0,1,.007.013S118.783,61.038,118.79,61.045Zm.02.121v-.007a.021.021,0,0,0-.007-.013c-.006,0-.006.013-.013.02S118.8,61.173,118.81,61.166Zm.02-.223c-.013.007-.02.007-.027.014l.007.007a.006.006,0,0,0,.007.006.032.032,0,0,0,.026-.013C118.844,60.95,118.831,60.95,118.831,60.943Zm.02.411c0-.006,0-.02-.007-.026a.012.012,0,0,0-.02,0,.018.018,0,0,0-.02.02c0,.006.007.02.014.02S118.838,61.361,118.851,61.354Zm-.007-.344h-.006c0,.007,0,.007.006.007a.007.007,0,0,1,.007.007h.02v-.007C118.865,61,118.858,61,118.844,61.011Zm.061.3L118.9,61.3c-.007,0-.013-.007-.013,0l.013.007h-.007c.007.006.007.013.014.006S118.905,61.308,118.905,61.308Zm.013-.23c-.007,0-.013-.006-.02,0l.013.007c0,.007-.013,0,0,.007S118.918,61.085,118.918,61.078Zm0-.013.007.007a.026.026,0,0,0,.006-.014C118.931,61.065,118.918,61.058,118.918,61.065Zm.121.135a.28.28,0,0,1,.007-.034c-.007-.007-.02,0-.02-.007s-.007-.019-.02-.026-.013-.014-.02-.007a.065.065,0,0,0-.027.04h.02c.014,0,.02.007.034.014s-.007.02-.007.026a.007.007,0,0,1,.007.007h.013c.007,0,.02.007.02,0A.021.021,0,0,0,119.039,61.2Z" transform="translate(-111.988 -60.62)"/></g></g></g></svg>