<svg xmlns="http://www.w3.org/2000/svg" width="1363.43" height="1363.43" viewBox="0 0 1363.43 1363.43"><defs><style>.a{fill:#f6f6f6;}</style></defs><g transform="translate(2123.662 472.177) rotate(135)"><path class="a" d="M1029.626,404.975v0l-.009-.007Z" transform="translate(-319.481 933.18)"/><path class="a" d="M1029.623,405.8l.009-.007v0Z" transform="translate(-319.491 931.602)"/><path class="a" d="M1028.753,407.517l.007-.01h0Z" transform="translate(-317.83 928.329)"/><path class="a" d="M966.845,539.916h0l.007-.009Z" transform="translate(-35.355 434.187)"/><path class="a" d="M1035.025,465.778l.778-.76c.29-.635.288-.637-.843-.841l-4.622,1.629c.286.759.991.745,1.617.877Z" transform="translate(-326.474 817.652)"/><path class="a" d="M958.243,572.01q.265-.036.529-.082c.506-1.083,2.087-1.12,2.363-2.427l-1.572-.092-3.856,2.488C956.5,573.051,957.4,571.888,958.243,572.01Z" transform="translate(-8.716 320.3)"/><path class="a" d="M1033.931,454.012a2.024,2.024,0,0,0,1.667.626c1.237-.011,2.473-.015,3.71-.022l-1.529-1.467C1036.379,452.909,1035.2,453.643,1033.931,454.012Z" transform="translate(-333.084 839.763)"/><path class="a" d="M677.283,556.67c-.7.7-1.633,1.251-1.53,2.442l-.786.011c.279.5.554.714.818.019a2.943,2.943,0,0,0,1.735-1.268A.72.72,0,0,0,677.283,556.67Z" transform="translate(983.883 367.363)"/><path class="a" d="M695.211,739.454H695.2l0,.013Z" transform="translate(948.03 -323.421)"/><path class="a" d="M676.52,739.113l.712-.834a1.113,1.113,0,0,0,.176-1.652c-.337-.527-.734-1.015-1.1-1.52-.624.365-.667,1-.756,1.617q-.016.7-.031,1.405a1.352,1.352,0,0,0,.444-.137,1.352,1.352,0,0,1-.444.137l-.005.005c-.509.36-1.023.831-.435,1.4C675.619,740.059,676.148,739.651,676.52,739.113Z" transform="translate(984.08 -319.779)"/><path class="a" d="M947.859,576.663l-.338-.575a1.09,1.09,0,0,0-.685.146c0,.227,0,.455,0,.683Z" transform="translate(32.224 299.997)"/><path class="a" d="M767.5,476.57c.7-.1,1.261-.358,1.331-1.173A2.008,2.008,0,0,0,767.5,476.57Z" transform="translate(658.318 668.983)"/><path class="a" d="M949.664,576.1q-.023-.455-.046-.912l-.8.1A.8.8,0,0,0,949.664,576.1Z" transform="translate(25.691 303.124)"/><path class="a" d="M765.681,469.28a1.587,1.587,0,0,0,.779-1.554A1.587,1.587,0,0,0,765.681,469.28Z" transform="translate(665.46 811.829)"/><path class="a" d="M953.233,567.056c-.076.105-.145.215-.227.315-.236.284-.478.563-.718.843a8.6,8.6,0,0,0,.943.385,4.077,4.077,0,0,0,.771.073c.639-.435,1.4-.755,1.552-1.65h0l2.3-.835q-.016-.714-.034-1.427a3.846,3.846,0,0,0-2.387,2.073h0Z" transform="translate(3.001 335.681)"/><path class="a" d="M962.047,563.525c-.155-.178-.281-.445-.474-.507-.167-.054-.409.123-.618.2l.479.524C961.636,563.661,961.839,563.589,962.047,563.525Z" transform="translate(-17.257 348.164)"/><path class="a" d="M694.126,415.182a.752.752,0,0,0,.413.116.785.785,0,0,0,.758-.687c-.095-.095-.189-.19-.282-.285Z" transform="translate(948.921 914.348)"/><path class="a" d="M672.693,558.585l.176.183.784-.779.8-.762-.188-.183-.8.767Z" transform="translate(989.245 368.204)"/><path class="a" d="M683.686,1299.509h0a12.292,12.292,0,0,0,4.761,4.829q1.137.052,2.271.1l-.281-.925q3.055.488,6.115.978l.26-.362-.26.365.77,1.564q5.086.22,10.168.445c5.215,3.089,10.981,2.276,16.47,2.076,8.518-.312,16.637,2.081,24.951,3.1.591.072,1.107.855,1.658,1.309,9.128,2.777,18.487,2.582,27.839,2.476,3.084,3.8,3.1,7.616.08,11.454-.067,1.881-.5,3.565-2.169,4.576.015.738.017,1.479.015,2.217,1.72.986,2.024,2.737,2.159,4.581,1.922,1.013,3.769,2.271,6.043,2.153a19.87,19.87,0,0,0-1.354-3.083c-3.65-5.556-.738-10.937.464-16.283.423-1.887,2.321-2.828,4.178-3.049,1.76-.211,3.545-.232,5.32-.269a48.351,48.351,0,0,1,6.4.043c1.458.168,3.378-1.087,4.492,1.119-5.287,3.219-10.086,6.649-11.567,13.588,3.842,1.018,5.13-3.238,8.09-3.07,1.473.085,2.914.341,3.784,1.639,1.3,1.937-.571,2.518-1.538,3.424a3.1,3.1,0,0,0-1.324,3.083l5.066,1.053c1.75-.008,3.629-.472,5.225.051,11.133,3.646,22.1.061,33.127-.621q8.488.02,16.976.045c1.763-2.556,4.228-2.284,6.721-1.906a18.661,18.661,0,0,1,1.969-.093c1.713-2.612,4.183-2.43,6.7-2.084l-.274-.314c1.79-5.466,1.792-5.474-2.63-6.857-.673-.211-1.4-.229-2.067-.467-3.408-1.223-2.924-3.656-1.67-6.311q-11.8-.028-23.6-.053c-.2.813-.691,1.732-.8,2.545.1-.813.6-1.732.793-2.545q11.8.028,23.6.053l10.679-.021c2.473-.053,4.948-.253,7.414-.133,5.711.275,11.213-.061,16.385-3.256,1.712-1.058,4.086-.9,6.157-1.29,6.065-.861,8.578,3.678,11.255,8.64-2.8,1.626-5.586,3.206-8.336,4.848-.962.576-1.568,1.415-.284,2.281a6.985,6.985,0,0,0,2.039.608,100.966,100.966,0,0,0,25.377-7.041c3.328-5.447,3.328-5.447,4.3-13.932,6.332-1.892,12.624-3.654,19.105-.392,1.69.853,3.33-.165,4.477-1.775l6.394,2.239.052-.059h0l-.052.059c.8,1.6,1.538,3.24,2.448,4.765.314.525,1.156,1.151,1.6,1.037,1.314-.336.86-1.508.7-2.5-.172-1.069-.279-2.151-.416-3.225l-.027-.163h0l.027.163a9.009,9.009,0,0,1,1.987,0c4.011.861,4.7,1.817,3.75,5.492a25.676,25.676,0,0,1-1.685,3.848c1.712,1.426,3.415.4,5.016-.187,5.679-2.073,11.629-3.379,16.879-6.694a6.466,6.466,0,0,0-4.141-2.822c-1.982-.608-2.279-2.4-2.446-4.245.641.032,1.279.056,1.92.064,1.518,1.972,4.011,3.011,5.267,1.007,2.588-4.123,5.921-5.674,10.281-6.318a8.511,8.511,0,0,0,6.015-3.979q2.139-1.147,4.283-2.292c5.535-2.271,11.781-1.5,17.121-4.605h0q6.435-2.294,12.87-4.592c1.02-1.588,2.553-1.913,4.218-2.3a57.079,57.079,0,0,0,6.5-2.281c.411-3.573-3.011-4.416-4.245-6.82l2.1-2.337c3.592-2.185,7.893-2.625,11.238-5.585,2.244-1.985,5.3-1.25,8.054-1.335,4.846-4.743,10.924-6.017,17.124-6.937,2.258-2.814,5.9-2.612,8.578-4.512q2.188-2.235,4.38-4.469c1.755-.051,3.32-.5,4.26-2.295,3.675.181,6.853-.717,8.678-4.565a127.012,127.012,0,0,0,30.744-14.942c8.371-5.54,16.836-11.211,26.155-15.243,6.841-2.958,13.04-7.624,19.514-11.55,4.3-2.609,8.326-5.879,13.481-6.452a17.1,17.1,0,0,0,6.477-6.54,11.673,11.673,0,0,1,3.966-5.444,11.681,11.681,0,0,0-3.966,5.447c6.793-3.933,13.626-7.787,20.359-11.83,3.069-1.841,5.838-4.272,9.473-4.818,2.3-3.958,6.414-5.471,9.717-8.045,2.79-2.169,5.831-3.928,7.623-7.254,2.413-4.767,4.934-9.383,8.733-12.887-3.8,3.5-6.32,8.123-8.733,12.893q2.072-.336,4.148-.669c1.618-3.144,4.6-4.413,7.326-5.985,3.088-1.783,6.005-3.725,7.843-7.07l10.5-5.146a4.755,4.755,0,0,1,4.307-2.479l-.095.12q1.16-1.111,2.313-2.223l-.028.019c1.3-2.849,3.353-4.554,6.374-4.784l-.1-.032a7.853,7.853,0,0,1,4.554-4.291c4.876-5.247,10.958-8.427,17.131-11.457,4.544-3.243,9.139-6.409,13.6-9.775a27.125,27.125,0,0,0,3.517-3.909,9.248,9.248,0,0,1,1.349-2.446,9.248,9.248,0,0,0-1.349,2.446,13.529,13.529,0,0,0,2.919-.549c2.837-1.186,3.293.68,3.6,2.814-1.04.426-1.491,1-.394,1.988a1.772,1.772,0,0,0,.521-1.735,4.515,4.515,0,0,0,4.018-2.627c3.991-1.772,7.112-4.9,10.34-7.8,3.525-3.166,6.893-6.5,11.115-8.648,1.257-.639,3.009-1.394,3.4-2.537,2.368-6.958,8.5-8.9,13.758-11.478,4.255-2.092,8.231-3.877,10.548-8.512.461-.919,1.595-1.452,2.418-2.164-.671-2.822.875-4.722,2.413-6.625-.7-.091-1.406-.2-2.111-.269.706.069,1.408.179,2.109.267q2,2.314,4.016,4.632c5.068-1.428,7.328-5.724,8.5-10.51.686-2.8,1.738-3.72,4.2-3.529,2.55.195,5.28,0,6.24-2.953,2.617-8.048,8.259-12.533,15.216-15.651,2.416-4.381,4.088-9.122,9.4-11.158,3.3-1.268,3.869-6.084,6.04-9.028,5.357-1.25,9.969-3.366,12.006-9.6.484-1.484,2.411-2.873,3.951-3.438,5.828-2.14,8.847-7.049,11.507-12.429.693-1.186,1.725-2.287,2.017-3.574.815-3.608,2.8-5.546,6.175-6.2.9-.173,1.66-1.106,2.485-1.692h0c2.934-.682,4.741-3.027,6.491-5.3,3.749-4.861,7.349-9.853,11.008-14.79,6.8-4.9,9.655-12.149,10.687-20.485,3.158-2.31,7.119-3.995,9.251-7.11,2.156-3.155,2.438-7.749,3.659-11.675a42.13,42.13,0,0,1,5.793-12.077,46.817,46.817,0,0,0,6.94-15.217,4.946,4.946,0,0,0,2.236-4.8l.028.021c2.732-1.49,3.47-4.507,4.809-7.083,2.7-5.2,5.484-10.353,8.229-15.526q-.408-.42-.8-.837h0c.267.28.536.557.8.837a7.711,7.711,0,0,0,3.061-4.488c.935-4.024,1.8-8.067,2.7-12.1q1.16-1.128,2.318-2.252c.337-4.466,3.378-6.2,6.656-7.995,6.825-3.731,7.4-4.778,5.025-12.261a9.978,9.978,0,0,1,.758-8.539,22.18,22.18,0,0,1,7.316-8.08c2.067-1.386,4.639-2.076,5.831-4.706a3.792,3.792,0,0,0,1.772-.186c.341-2.614.817-5.261-.432-7.744-1.6-3.171-1.214-6.524-.972-9.879a2.975,2.975,0,0,0,2.066-2.228c2.039-.216,3.862.125,5.235,2.009,1.755,2.4,3.5.632,5.233-.123-.215-1.069-.08-2.614-.7-3.123-3.2-2.651-.391-4.042.858-5.786q-.157-1.239-.319-2.473c.307-2.54.549-5.058-1.909-6.691h0a6.1,6.1,0,0,0-1.855-.3c-1.443-6.068,2.607-8.509,6.414-11.112q2.894-.24,5.786-.485a3.1,3.1,0,0,0,.466-1.77,11.019,11.019,0,0,0,1.678-.565c1.084-8.317,2.4-16.578,5.026-24.533a8.067,8.067,0,0,0,2.056-5.146,19.729,19.729,0,0,1,5.16-12.309c4.6-5.047,7.085-11.083,9.54-17.3a22.507,22.507,0,0,1,3.824-9.466q.318-3.1.638-6.188a9.559,9.559,0,0,0,1.663-.6c.164-2.649.372-5.3.479-7.944.08-1.937-.165-3.851-1.84-5.031-3.375-2.38-3.647-6.447-4.363-9.991-1.094-5.41.349-11.337-3.086-16.333-.471-.685-.055-2.206.185-3.28,2.042-9.17-.426-17.125-5.636-24.362-.865-1.2-1.75-2.385-2.623-3.579-5.835-.24-5.93-4.938-6.369-9.367-.705-.008-1.408,0-2.114.027v0c.706-.024,1.409-.035,2.114-.027a5.322,5.322,0,0,0,.122-2.244l.08.133c-.067-.837-.135-1.671-.2-2.508q1.088-1.119,2.174-2.241h0c2.981-5.255,2.745-5.964-2.333-6.812-.628-.1-1.271-.111-1.91-.157-.179-1.293,2.2-3.529-1.151-3.614-.641-.016-1.276.639-1.942.727-5.427.722-7.583-1.255-7.7-7.187a55.148,55.148,0,0,1,.424-5.53q3.911-3.7,7.817-7.405-.9-1.044-1.8-2.084l-6.471,2.086q-.961,2.471-1.924,4.944c-1.344,2.721-2.954,5.356-2.556,8.669l-.047.056h0q-1.9-.1-3.8-.189h0c-.339-4.4.506-8.986-1.9-13.037h0c.524-1.767,1.486-3.533,1.493-5.3.018-4.735,1.688-8.5,4.029-12.5,3.313-5.665,4.168-12.413,4.347-19.118.043-1.521-1.321-1.961-.85-.519.02.067-.571.359-.877.546-1.8,6.763-1.955,6.828-6.9,3.011a11.121,11.121,0,0,0-1.852-.954,14.656,14.656,0,0,0-.224,3.307c.882,5.49-.2,10.034-4.652,13.506-.88.685-.87,2.673-1.269,4.062a2.429,2.429,0,0,0-.563,1.66q-1.851.971-3.7,1.948c-1.932,1.023-3.53.479-3.9-1.743-.471-2.87-.436-5.839-.618-8.762.155-.738.312-1.479.466-2.217h0q5.422-7.922,10.846-15.848a2.777,2.777,0,0,1,1.638-2.572q.1-.927.282-1.836l0,0q1.881-1.539,3.759-3.081a8,8,0,0,1,.391-1.828l-2.605-2.708a5.113,5.113,0,0,1-1.667.493q-1.327,2.1-2.652,4.2l-3.59,2.79c-1.481,3.717-2.807,7.513-4.482,11.123-1.989,4.28-2.685,4.2-6.342-.083q-.012-14.9-.028-29.8c.189-3-.112-5.833-2.416-7.949-1.685-1.551-2.024-3.691-2.351-5.849-2.887,4.546-7.286,8.029-8.49,13.764,5.663-2.012,5.726-2.023,6.593,3.438.339,2.145.26,4.386,2.109,5.881a39.543,39.543,0,0,1,.04,4.381c-.374,3.88-.82,4.37-4.275,4.628a29.815,29.815,0,0,1-4.091-.234c-.1.882-.195,1.761-.289,2.644h0q.142-1.323.289-2.641c-.3-1.972.972-4.829-1.937-5.431-3.114-.645-2.917-2.809-2.178-4.869a78.025,78.025,0,0,1,3.739-7.8c1.2-5.735,5.6-9.218,8.49-13.767a5.086,5.086,0,0,0,.568-1.751h0a6.441,6.441,0,0,0,1.588-1.3c1.8-2.862,1.488-3.507-1.815-3.891a10.291,10.291,0,0,0-2.029.168q1.155-3.33,2.311-6.662h0c2.171-1.743,1.5-4.437,1.974-6.745h0l3.871-3.014q1.215-1.947,2.431-3.9a6.3,6.3,0,0,0,6.352-2.548q1.025-.008,2.049-.112.3-1.987.6-3.971-.277-1.539-.556-3.081-1.978.248-3.948.5a16.574,16.574,0,0,1-.474,1.807,7.384,7.384,0,0,0-4.4,4.229q-4.068,2.454-8.134,4.9h0c-1.586-2.246-3.4-4.133-6.2-4.472L1584.465,440a2.519,2.519,0,0,0-1.917-2.571,2.17,2.17,0,0,0-2.537-1.823c-2.692-1.045-5.435-.464-8.164-.288q-1.26-1.031-2.525-2.06-1.1.1-2.2.2c-1.473.187-2.47.97-2.039,2.644.559,2.166,2.411,1.78,3.951,1.916.165.541.339,1.077.519,1.612,4.355,1.589,4.355,1.589,4.073,7.369a3.547,3.547,0,0,1-1.87.608,2.38,2.38,0,0,1-2.179,1.81,8.14,8.14,0,0,1-.351,1.868q-2.015.26-4.031.517a6.408,6.408,0,0,1-4.26,2.3l-2.022,2.446h0c-3.836-.866-5.993,2.644-9,3.941-2.909,1.913-4.375,1.817-5.38-.408-1.2-2.66-1.214-5.519-1.149-8.384l.045.029c-1.788-2.031-2.942-5.015-6.227-4.791q-.318-1.375-.633-2.745l-3.876.352,3.876-.352c2.134-1.277,4.31-2.481,6.392-3.851,3.086-2.028,3.056-3.075.007-6.649q-3.814,2.351-7.63,4.706a2.163,2.163,0,0,0-2.289,1.889l-.045.024a3.415,3.415,0,0,0-2.116.072q-.093,1.059-.085,2.119l.032-.011q-1.159.875-2.321,1.753l-2.542,2.375,0,0-10.186.32h0c.182-4.682,2.9-7.217,6.606-8.917l-.017-.032a2.717,2.717,0,0,1,1.884-2.5,8.7,8.7,0,0,0,.551-2.082,4.348,4.348,0,0,0,1.523-.2c-1.381-2.945-3.011-2.119-4.7-.354-3.687,1.961-8.443,2.265-10.066,7.419l-6.262,1.719c-2.817-2.454-4.664-6.231-8.58-7.19h0c.047-2.569.175-5.141.125-7.71-.07-3.712-1.912-5.575-5.187-4.989a41.32,41.32,0,0,0-5.9,1.967c-2.079-1.151-5.225.392-6.509-2.516-1.8-4.059-5.83-6.377-7.074-10.8a6.942,6.942,0,0,1-1.618-.256c-5.177-1.263-8.937,1.666-12.6,4.882-1.5-1.263-2.414-2.7-.638-4.419,2.717-2.635,7.177-2.819,8.758-7.08-4.764,1.641-9.976-.491-14.643,1.991-1.364-.354-3.191-.232-4.006-1.146-3.779-4.216-8.533-1.09-12.738-2.055-2.057-.472-3.946,2.713-4.639,5.439l-.007.008-2.189,2.236q.15,3.522.3,7.046c2.353-2.289,1.885-5.231,1.862-8.072.022,2.841.491,5.783-1.86,8.072-.264,1.818-.87,3.4-2.541,4.267l-10.542,16.354a14.46,14.46,0,0,1-2.049,6.433,14.46,14.46,0,0,0,2.049-6.433,12.963,12.963,0,0,1-8.879,1.818c-.758,1.223-1.573,2.409-2.264,3.675-2.161,3.982-5.033,5.748-9.442,4.16-2.59-.933-5.4-1.6-7.541,1.277l-.057.085a2.622,2.622,0,0,0-2.276,2.318l-1.909,2.361a2.485,2.485,0,0,0-2.1,2.417l-.09-.131c-2.979,2.788-2.4,7.022-3.51,10.521-2.406,7.579-6.654,14.156-9.348,21.533-8.049,15.387-18.021,29.615-24.328,46.058a12.115,12.115,0,0,1-4.841,5.764c-2.044,1.378-4.313,2.644-5.063,5.449-.536.445-1.406.789-1.561,1.354-2.089,7.662-6.678,13.727-11.118,19.843a22.026,22.026,0,0,0-4.711,13.133q-3.2,3.258-6.407,6.51c-.314.179-.743.272-.925.552-6.255,9.637-12.542,19.251-18.669,28.981-.945,1.5-1.155,3.536-1.7,5.325h0q-1,1.139-2,2.276c.022.567.012,1.141.022,1.711-.01-.57,0-1.144-.022-1.711-3.849,5.234-8.922,9.57-10.866,16.2-.8,2.721-2.892,4.245-4.22,6.444-.967,1.034-2.345,1.887-2.822,3.134-1.471,3.856-3.044,7.419-6.314,10.095a11.722,11.722,0,0,0-3.241,5.658c-.965,3.39-2.144,6.135-5.455,7.723a6.891,6.891,0,0,0-3.111,4.277c-1.369,6.225-4.731,10.617-9.453,14.353a11.725,11.725,0,0,0-4.178,7.625c-2.141,4.767-7.416,5.351-10.44,8.941a3.1,3.1,0,0,0-2.358,2.3c-2.446.568-3.782,2.233-4.173,4.832a3.032,3.032,0,0,0-2.114,2.228c-5.208.954-7.314,6.177-11.023,9.2h0a6.17,6.17,0,0,0-4.053,4.671c-8.254,6.319-16.52,12.619-24.749,18.977A18.637,18.637,0,0,0,1174.7,753c-2.251,2.793-7.15,6.294-11.128,8.365-1.5.778-2.57,2.476-3.836,3.755-5.567,1.753-8.461,7.693-13.913,9.953-2.375.986-4.539,3.15-7.144,4.442-5.377,2.667-8.558,7.79-10.635,13.658a4.351,4.351,0,0,1,.548-.067,4.351,4.351,0,0,0-.548.067l-2.443,1.991c-3.8-1.13-7.384-1.527-10.694,1.727a33.34,33.34,0,0,1-6.1,4.13,9.107,9.107,0,0,0-4.5,8.195q-1.148,1.027-2.3,2.052c1.044,3.091,4.866,1.543,6.162,4.218q-3.025,1.383-6.05,2.774l-2.375,1.847a16.52,16.52,0,0,1-1.987.474c-.035-1.892-.294-3.68-2.012-4.759v0l-.05-.059c-1.489-2.353-2.964-2.26-4.425.027h0l-.018.005q-2.016.1-4.026.205c-3.041,4.533-8.511,6.273-11.25,11.161h0c-5.854-.429-10.826,1.46-15.493,5.434-5.173,4.4-10.675,8.187-17.545,9.668-3.956.853-7.481,4-11.2,6.116-.165,1.863-.593,3.781.843,5.354,1.451,1.591,3.3,1.436,4.956.834,3.677-1.335,7.269-2.942,10.894-4.44q1.039,1.18,2.079,2.356a37.367,37.367,0,0,1-3.114,2.649c-2.445,1.671-2.43,3.856-1.423,6.329a4,4,0,0,0-1.795.3,13.065,13.065,0,0,0-8.533-2.263q-1.032,1.159-2.064,2.316l-.047.029c-3.574,1.433-4.564,4.533-4.333,8.176a5.379,5.379,0,0,1-3.842,5.964,33.164,33.164,0,0,0-11,6.638q.95,2.187,1.9,4.373a8.619,8.619,0,0,1-.07,2.207l-6.132,4.821q1.1,3.4,2.186,6.8c-.82.656-1.645,1.311-2.468,1.969q-1.993,1.3-3.989,2.6a16.161,16.161,0,0,1-.663,2.076q2.879.048,5.756.1l-5.751-.1c-.576-.109-1.159-.2-1.742-.266a9.562,9.562,0,0,1-1.839.5,6.412,6.412,0,0,0-.242,2.089l-6.362.136h0c-3.448-.61-4.176,3.211-6.442,4.522-.88,1.756-2.468,2.207-4.113,2.548-.618.714-1.239,1.423-1.854,2.132.546,2.249,2.293,1.842,3.8,1.972.923-1.906,2.538-2.164,4.3-2.082l2.076-2.348.04-.978-.03-.983q4.251-1.527,8.5-3.059c2.209-.173,4.609-3.227,6.559.5a6.911,6.911,0,0,0,3.515-3.041,6.915,6.915,0,0,1-3.512,3.041l-12.933,7.211-.047-.7c-1.386.133-2.772.261-4.158.392q.041,1.175.082,2.351a4.97,4.97,0,0,0,3.293-1.074,4.982,4.982,0,0,1-3.29,1.077l-.04.011a6.6,6.6,0,0,0,.843,2.939,6.571,6.571,0,0,1-.843-2.939q-2.258.987-4.515,1.977l.12.171a2.943,2.943,0,0,1-2.231,2.206l-.005-.032c-.882,1.5-1.75,3.006-2.65,4.491-.479.789-.406,1.4.351,1.794a1.261,1.261,0,0,0,.927.117c1.244-.493,2.46-1.061,3.687-1.6a12.318,12.318,0,0,1,8.834-2.4,12.582,12.582,0,0,0-.681,2.135h0a4.461,4.461,0,0,0-1.83.674q-1.013.92-2.022,1.839l-.037.048h0a9.169,9.169,0,0,0-2,.106c-3.632,4.227-8.981,4.243-13.5,6.287q-3.025,2.41-6.055,4.818h0q-4.177,1.4-8.356,2.8l-8.738,6.484,2.184,2.35a13.255,13.255,0,0,1,2.107-.05l-.012.016a4.786,4.786,0,0,1,4.345-2.174l-.157-.405a2.559,2.559,0,0,1,2.665-1.487c.591-.154,1.184-.314,1.772-.477a5.049,5.049,0,0,1,4.355-2.268,5.284,5.284,0,0,0,4.44-2.116,8.376,8.376,0,0,1-2.658-.634,8.372,8.372,0,0,0,2.655.631q3.1-1.267,6.2-2.532,1.062-1.135,2.124-2.273l.01-.005-.01.008-2.124,2.27a14.2,14.2,0,0,0,2.124.141,14.844,14.844,0,0,1-.311,2.017l-.005,0c-5.442,3.073-8.54,9.538-14.68,11.6h0a2.613,2.613,0,0,1-2.443,1.914,3.779,3.779,0,0,1-1.86.272l-.112.061-6.414,4.413c.26.719.564,1.42.8,2.132a7.163,7.163,0,0,1,.327,1.455,7.163,7.163,0,0,0-.327-1.455c-.232-.712-.536-1.412-.8-2.132a3.791,3.791,0,0,0-2.029.2c0,.546-.015,1.1-.02,1.641.005-.546.02-1.1.02-1.641l-6.364.2c-.1.618-.22,1.234-.364,1.841v0c-2.166.13-3.724,1.6-5.462,2.739-2.879,1.887-5.636,4.118-9.166,4.52-2.58,4.141-6.536,5.727-10.839,6.673l.069.117c-1.608,2.5-4.17,3.16-6.671,3.931a13.889,13.889,0,0,1-8.209,3.352q-4.352,3.226-8.7,6.449c1.339,2.438,3.358,2.4,5.407,1.471,6.063-2.745,12.08-5.6,18.115-8.416,3.051-2.8,6.826-3.608,10.607-4.4-1.869,4.008-.5,4.714,4.48,4.2a68.006,68.006,0,0,1,21.4-11.209q.03-1.1.069-2.2h0c7.389-.741,13.536-4.45,19.25-9.2q2.517-.776,5.033-1.548a2.724,2.724,0,0,1,3.515,1.511c-2.241,1.359-4.891,2.049-6.464,4.506-.786,4.538-3.378,7.222-6.407,9.439,3.029-2.217,5.621-4.9,6.407-9.439-1.334.45-2.932.546-3.959,1.415-5.155,4.362-11.177,6.351-17.442,7.8q-6.376,3.894-12.751,7.787c-2.734,1.668-5.387,3.555-8.693,3.68l-2.268,2.009a6.364,6.364,0,0,0-2.044.445,4.95,4.95,0,0,0-4.472,2.039,7.7,7.7,0,0,1-2.079-.378l-6.275,2.774c2.149,3.672,5.415,6.569,6.591,10.916.6,2.217,2.383,2.484,4.136,2.771l2.146-2.182h0c.825,1.86.823,1.879-2.166,2.265-1.581,2.4-4.1,3.187-6.469,4.213-2.054,1.293-4.183,2.468-6.137,3.915-1.3.957-1.488,2.324-.1,3.555.621-.173,1.244-.344,1.87-.5a4.779,4.779,0,0,1,4.243-2.241l10.422-4.621a14.687,14.687,0,0,1,9.055-4.326,4.908,4.908,0,0,1,3.986-2.66q1.308-.8,2.617-1.612a3.658,3.658,0,0,1,2.024-.021l-.085-.325v-2.273l-2.129-2.292q1.05-.028,2.1-.051a17.152,17.152,0,0,1,.124-2.148c.843.261,2.416.53,2.413.781-.018,1.767-1.456,1.223-2.436,1.463v2.23q2.146.06,4.29.117a4.544,4.544,0,0,1,2.069-.144l-.132-.293c4.108-1.594,4.495-7.376,8.712-8.848.594-.077,1.19-.154,1.782-.229a5.882,5.882,0,0,1,4.617-2.145l-.045.048,2.229-2.233a9.093,9.093,0,0,1,4.24-4.648l-.012.037,2.116-2.534a11.833,11.833,0,0,1,.172-1.967c-.99.272-2.131.331-3.061.685.93-.354,2.071-.413,3.061-.685q.972-.116,1.952-.154a15.447,15.447,0,0,1,8.546-4.65q2.43-2.078,4.861-4.154h0a3.429,3.429,0,0,0,1.722-.458,5.25,5.25,0,0,0,1.967.021q.239-.991.416-1.993l0-.005a7.486,7.486,0,0,0,1.91-.264c6.016.472,11.542-.107,17.046-3.816,4.6-3.1,10.383-4.17,15.077-7.491,2.932-.586,6.354,1.018,8.688-2.228-.713-.019-1.428-.024-2.141-.035.713.01,1.428.016,2.139.035,1.224.32,3.41.1,2.488,2.3a84.235,84.235,0,0,1-4.876,8.783l0,0c-3.241.725-6.284,1.865-8.551,4.64-3.465,1.644-6.628-2.516-10.009-.693-2.859,1.54-3.063,5.817-6.125,7.28-.317.152-.619.331-.927.5l-4.335-.048-4.109.219c-1.5,2.468-4.247,3-6.307,4.6.182.312.344.635.543.93,1.875,2.755,5.519-3.254,6.574,1.213.8,3.382,4.519,1.585,5.19,4.376h0q-1.959,1.263-3.916,2.529l-2.109,2.39h0c-3.871.735-6.781,4.213-10.859,4.365l-.022.024a4.419,4.419,0,0,1-4.228,2.246l-.068.037a4.032,4.032,0,0,1-4.155,2.057,3.1,3.1,0,0,1-1.8.514,5.934,5.934,0,0,1-4.6,2.329c-4.258,3.67-4.258,3.67-6.554,10.993h0c-1.675-.194-4.641.663-4.781-.789-.409-4.336-3.089-3.073-5.285-3.3a5.7,5.7,0,0,1-4.791,2.172,4.5,4.5,0,0,1-4.333,1.927,2.6,2.6,0,0,1-1.7.456,5.663,5.663,0,0,1-4.776,1.99l-8.5,4.821c-.033.7-.045,1.391-.04,2.089a4.831,4.831,0,0,1,4.37,2.086q.976,0,1.952.075c4.243-2.111,8.449-4.317,12.748-6.284,1.73-.791,3.276.059,4.36,1.714q1.088.04,2.174.083c-.723-.029-1.449-.056-2.171-.083l.189.522q-1.148.936-2.293,1.865c-.718.205-1.438.408-2.156.613q-1.208.779-2.418,1.554a4.205,4.205,0,0,0-1.83.413,5.233,5.233,0,0,0-4.542,1.876h0l-2.124-.36.3.589a4.354,4.354,0,0,0-4.32,2.185q-6.372,2.39-12.749,4.775l-2.248,2.26c-2.824.312-5.347,1.151-6.557,4.269a2.027,2.027,0,0,0-1.625.549q.9.816,1.8,1.628a10.639,10.639,0,0,0-.167-2.121h0a10.628,10.628,0,0,1,.167,2.119l4.008.456q3.515-1.159,7.022-2.316c4.287-3.845,10.148-4.094,14.693-7.35q1.362-.847,2.72-1.692a2.228,2.228,0,0,0,1.56-.517q1.4-.875,2.807-1.748h0a2.03,2.03,0,0,0,1.491-.65q1.313-.855,2.62-1.711a2.3,2.3,0,0,0,1.63-.325,5.26,5.26,0,0,0,4.826-1.911h0a1.986,1.986,0,0,0,1.576-.344,3.663,3.663,0,0,0,2.052-.131,2.623,2.623,0,0,0,2.428-1.761h0l0,0h0l-.114-.229h0q1.982-.216,3.966-.434,8.7-4.453,17.39-8.909a4.09,4.09,0,0,0,4.228-2.258,4.413,4.413,0,0,0-3.438,1.125,4.413,4.413,0,0,1,3.438-1.125l.022-.016c1.032-.179,2.074-.3,3.1-.538,7.71-1.78,13.678-7.4,20.681-10.75a4.305,4.305,0,0,1,4.106-2.427c6.9-6.215,15.5-8.991,23.43-13.117,1.675-.872,3.358-.115,4.445,1.641,2.229.205,4.724-.455,6.2,2.183,3.869-.28,7.14-2.017,10.25-4.128-3.111,2.111-6.379,3.848-10.248,4.131l.172-.019a4.518,4.518,0,0,0-4.176,2.5,5.831,5.831,0,0,0,2.47-.515,5.831,5.831,0,0,1-2.47.515,7.836,7.836,0,0,0-6.594,4.08c-1.7.4-3.318.93-4.235,2.718h0l.008-.032,0,0h0l-6.422,2.318q-1.051,1.107-2.107,2.209h0c-1.658.581-3.37,1.034-4.968,1.767q-23.243,10.661-46.452,21.4c-.715-.035-1.433-.069-2.149-.106a14.89,14.89,0,0,1-.3,2.052l0,0-3.929.573v0c-.853.557-1.7,1.119-2.558,1.677h0a6.125,6.125,0,0,0-1.78.285l-2.139,2.319c-.64.053-1.281.1-1.924.149-1.531,2.137-3.632,2.143-5.754,2.065,2.122.077,4.223.072,5.751-2.068.646-.045,1.286-.093,1.927-.146.005-.693.008-1.383.008-2.076a5.277,5.277,0,0,0-4.6,1.9l-3.971.464q-1.268.808-2.538,1.607h-.005a5.37,5.37,0,0,0-1.715.591l-2.528,1.807h0a7.161,7.161,0,0,0-1.785.53,4.845,4.845,0,0,0-4.415,1.929h0c-4.033,1.377-8.057,2.792-12.105,4.117-1.82.6-3.48.328-4.572-1.609q-3.511,1.159-7.025,2.316c.157,1.876.007,3.573-2.1,4.133a4.31,4.31,0,0,1-1.555.752q-1.211,1.047-2.423,2.1c-4.345,1.471-8.075,4.919-12.973,4.621h0q.052-1.175.1-2.353c2.583-1.17,5.22-2.222,7.725-3.56,1.366-.728,2.134-2.02.718-3.595q-4.027.328-8.054.661l-2.625,1.687q-1.092,1.115-2.189,2.23a3.491,3.491,0,0,0,.768,1.306,3.491,3.491,0,0,1-.768-1.306q-1.043-.128-2.079-.283L898.7,1056.7c.706,1.85,2.219,2.169,3.832,2.305,1.877-.205,3.537.123,4.519,2.108h0l-4.28.035-.01-.011c-1,1.793-2.575,2.193-4.373,2.049a10.488,10.488,0,0,1-1.875.347q-3.279,3.4-6.566,6.793c-2.151-.93-4.115-2.5-6.626-2.2q-2.139-.14-4.28-.282-2.083,1.255-4.168,2.508h0c-3.954.2-6.265,2.321-6.761,6.58q-11.619,4.717-23.236,9.439-9.673,3.426-19.344,6.843c-4.534-.965-8.321,2.7-12.753,2.356q-1.07,1.347-2.144,2.694a4.433,4.433,0,0,0-1.9,0q.886.907,1.77,1.809a30.331,30.331,0,0,1-10.589,11.531q-.311.911-.589,1.833c-4.654,1.255-9.286,2.62-13.967,3.736-4.288,1.021-7.79,2.71-8.234,8.133a5.962,5.962,0,0,1-.967,1.935c-2.293.36-4.716.357-6.359,2.558l-.01,0c-1.919-.3-3.181.813-4.292,2.26.307,1.921.688,4.04,2.854,4.227,3.046.261,6.122.066,9.159.066.267,4.792-3.622,6.534-5.332,9.7a12.491,12.491,0,0,0-.346,2.105,4.491,4.491,0,0,0-4.323,2.121l6.631,2.452q2.143-2.239,4.286-4.474h0l.082-.043a4,4,0,0,0-2.029-1.956,4.015,4.015,0,0,1,2.031,1.956,30.135,30.135,0,0,1,17.036,4.528h0l-17.171.037-4.235-.048q-3.317-1.227-6.631-2.452-.961.084-1.907.256-1.1,2.283-2.194,4.56h0l-2.4-.253c-1.5,1-3.521,1.887-3.682,3.822-.229,2.713,3.684,3.59,3.213,6.726a7.515,7.515,0,0,0,1.942.274c3.861-.477,7.716-1.029,11.572-1.553a13.928,13.928,0,0,1,.3-1.748q2.962-.14,5.925-.285a11.469,11.469,0,0,1-.286,3.163c-1.242,3.15.294,4.664,2.689,5.8,2.687-1.522,5.444-2.71,8.588-2.129,1.74-.181,3.4-.538,4.455-2.265-1.179-.176-2.445-.083-3.613-.3,1.167.213,2.433.123,3.613.3q4.113-1.311,8.219-2.625h0l4.365.085.015.024a2.448,2.448,0,0,1,2.33-1.863q2.232-1.175,4.465-2.353,1.986-.2,3.974-.4c3.166.4,6.275.493,8.912-1.921h0a2.722,2.722,0,0,0,1.829-.232,1.438,1.438,0,0,0,1.538.328l5.133-.552h0l-5.135.552c.7,2.249.845,4.333-1.291,5.895-2.271,1.66-4.5,3.379-6.756,5.071.137.418.294.829.434,1.239-.139-.411-.3-.824-.434-1.242l-8.423,2.494c-.092.682-.172,1.37-.247,2.055h0c-.588.128-1.182.232-1.775.314a10.292,10.292,0,0,1-4.477,4.445c-1.561.759-1.62,1.519,0,2.281h0q1.039,2.262,2.079,4.522h0l.007.008c-2.373.021-4.851-.29-6.372,2.359-3.5,2.137-7.56,3.411-11.155,1.977-7.568-3.017-12.7,1.6-18.211,5.375a49.8,49.8,0,0,0-4.836,4.307l-2.461-.392a6.153,6.153,0,0,0-4.313,2.294h0a2.979,2.979,0,0,0-1.763.4q2.1,2.15,4.193,4.3l.02.019q-.068,2.271-.137,4.541h0a12.156,12.156,0,0,0-1.77.528l0,0-2.326-.389c-3.839,3.3-3.959,3.443-1.132,6.161,1.309,1.263,2.909,2.124,2.5,4.317-.484,2.577.888,3.289,2.812,3.35,3.108.1,6.272.291,8.82-2.223a5.28,5.28,0,0,0,1.867-.242c1.471-2.46,3.909-2.225,6.155-2.526a4.428,4.428,0,0,0,4.646-1.7l-.07-.384,4.285.178c2.4,3.414,6.267,1.978,9.368,3.1,1.733.629,2.76-1.578,3.463-3.267q3.272,0,6.541.008a19.185,19.185,0,0,1,2.071.061l0,1.141,0,1.138v0a4.606,4.606,0,0,0-4.35,2.223h0a12.5,12.5,0,0,0-8.578,4.592c-4,.3-6.456,3.035-9.091,6,4.417,2.273,7.628-1.354,11.3-1.362,5.626-2.708,11.263-4.112,16.929-.128l.286.208h0l-.289-.208q-4.177,1.3-8.354,2.6-1.084,1.051-2.173,2.105-1.055.04-2.107.1l-2.131,2.217-.013.01q-1.073,1.135-2.149,2.276v0c-4.19-.125-7.949.914-10.736,4.562-.7-.01-1.409-.01-2.111,0l.01-.016-2.131-2.286q-.012-1.132.02-2.263c.92-.141,2.051.027,2.251-1.316.03-.211-.865-.789-1.361-.837-2.044-.2-3.973.083-5.23,2.145q-3.1.32-6.205.642v0l-.271-.743q-1.025.028-2.044.155c-.06,1.479-.117,2.955-.182,4.432h0c-2.58,2.033-5.382,3.03-8.6,2.126a11.713,11.713,0,0,0-1.9.581q-1.174.931-2.353,1.865l-.02-.029c.29,2.417,1.688,3.867,3.356,5.479,3.864,3.731,3.5,5.183-1.326,8.224-.728.458-2.419.093-1.788,1.65.309.757,1.812.9,2.675,1.482a8.759,8.759,0,0,1,1.448,1.62q-1.152.988-2.3,1.975a4.009,4.009,0,0,1-1.775.435l-6.656,4.429a43.3,43.3,0,0,1-19.25,2.31c-1.651.216-3.258.528-4.3,2.143-3.552.981-7.484-.4-10.809,1.993l.008.107-.008-.107-6.157.674c-1.693,2.6-.671,4.743.743,7.067,1.182,1.943.145,3.467-1.608,4.485a13.736,13.736,0,0,1-7.065,1.732c-3.842.01-7.68.128-11.522.2-.007.669-.045,1.335-.109,2q-2.064.1-4.129.216c-2.138-1.783-2.951-2.449-3.979-1.932,1.027-.517,1.84.149,3.979,1.929l4.129-.216c.064-.666.1-1.333.109-2-4.038-3.395-8.383-5.468-13.743-4.424a50.477,50.477,0,0,1-7.422.381C676.13,1294.731,678.775,1298.6,683.686,1299.509ZM949.275,970.047a3.052,3.052,0,0,0-1.134-2.611A3.052,3.052,0,0,1,949.275,970.047ZM932.66,983.2c.945-1.817,2.533-2.273,4.323-2.3C936.051,982.755,934.408,983.091,932.66,983.2Zm4.39-2.337c.895-1.863,2.49-2.241,4.25-2.273l.01.005C940.406,980.466,938.8,980.807,937.05,980.864Zm27.848,6.931a18.136,18.136,0,0,1-7.364,3.787c-1.314.413-2.64.794-3.934,1.26,1.294-.466,2.62-.848,3.934-1.26a18.106,18.106,0,0,0,7.364-3.79,50.071,50.071,0,0,0,8.583-2.8A50.338,50.338,0,0,1,964.9,987.795Zm46.065,8.877a3.559,3.559,0,0,1-2.244-.847A3.559,3.559,0,0,0,1010.963,996.672ZM975.59,1019.6h0q-1.2,1.147-2.41,2.292h0Q974.387,1020.749,975.59,1019.6Zm-1.541,5.61c.382-.954.686-1.9-.142-2.761C974.735,1023.307,974.431,1024.256,974.049,1025.21Zm37.824-24.778a13.6,13.6,0,0,0-2,1.061q-3.19,2.315-6.379,4.624l-.013.011a5.974,5.974,0,0,0-2.1.069q-1.178.916-2.358,1.825h0v0h0l.075.219c-.715,0-1.431.008-2.144.013a12.837,12.837,0,0,1-.132,2.1h0a12.585,12.585,0,0,0,.13-2.1c.13-1.521-1.456.424-.7-.869,2.535-4.3,8.533-7.462,12.99-6.787.245.037.422.584.629.893a13.6,13.6,0,0,1,2-1.061c.693-.314,1.4-.613,2.069-.97C1013.274,999.819,1012.566,1000.117,1011.873,1000.432Zm-106.165,55.124a3.178,3.178,0,0,0,.958.621A3.178,3.178,0,0,1,905.708,1055.556ZM774.831,1145.92a5.377,5.377,0,0,1,1.144.184A5.377,5.377,0,0,0,774.831,1145.92ZM734.35,1290.926a3.066,3.066,0,0,1,0,.741,3.066,3.066,0,0,0,0-.741,2.288,2.288,0,0,0-.7-1.354A2.288,2.288,0,0,1,734.35,1290.926Zm-9.545,3.891.007,1.138-.01-1.138c-2.1-.205-3.451-1.148-3.989-2.9C721.352,1293.668,722.7,1294.611,724.805,1294.816Zm8.528-.053v0a10.766,10.766,0,0,0,4.482-.386A10.81,10.81,0,0,1,733.333,1294.763Zm23.632-18.3-2.139,4.568a8.065,8.065,0,0,0-2.62,1.812,8.065,8.065,0,0,1,2.62-1.812Zm74.9-98.649a17.832,17.832,0,0,1,2.109.12,17.308,17.308,0,0,0-2.109-.117Zm-20.821-53.4a28.9,28.9,0,0,1,10.378-3.63,9.475,9.475,0,0,0,1.693.128h0c1.092,1.823,3.864,1.735,4.3,4.312.237,3.043,2.483,6.025.247,9.149l-.112-.091q-1.051,1.139-2.1,2.273h0l-.037-.011q.045,1.183.092,2.366c.74-.728,1.483-1.455,2.221-2.185q1.047-.04,2.089-.056-1.043.016-2.086.059l-2.224,2.183q-.046-1.183-.092-2.366c-1.742-.053-3.936.6-5.143-.288a12.95,12.95,0,0,0-11.509-2.436c-.334.085-1.159-.813-1.279-1.37a2.3,2.3,0,0,1,.546-1.924c2.891-1.932,5.045-5.359,8.981-5.223q2.214-2.262,4.425-4.52A28.893,28.893,0,0,0,811.05,1124.409Zm80.768-43.656c-7.833,4.069-15.62,8.232-23.423,12.363a6.381,6.381,0,0,0-2.448.5,6.381,6.381,0,0,1,2.448-.5C876.2,1088.984,883.985,1084.822,891.818,1080.752Zm120.195-54.012.072-.024c.117.1.4.09.85-.054-1.837,1.455-2.46,2.87-3.483,3.457C1010.554,1029.487,1011.175,1027.9,1012.013,1026.74Zm37.417-13.775a2.174,2.174,0,0,0,.135-.578A2.174,2.174,0,0,1,1049.43,1012.965Zm183.421-286.379q-1.073,1.151-2.149,2.308-1.051,1.147-2.1,2.294-1.073,1.171-2.144,2.342c-.01.392-.045.781-.07,1.17.025-.389.06-.781.07-1.172l2.144-2.34q1.047-1.147,2.1-2.294Q1231.775,727.739,1232.851,726.586Zm72.838-103.161q-.089,1.063-.077,2.129-1,.152-2,.234h0q1.006-.084,2-.234Q1305.6,624.487,1305.689,623.425Zm120.078-160.353c1.166-.32,2.046-.565,2.732-.693a5,5,0,0,1,.9-.1,5,5,0,0,0-.9.1c-.686.128-1.566.373-2.732.693Zm101.48-14.87a2.748,2.748,0,0,1-.638,2.009A2.748,2.748,0,0,0,1527.247,448.2Zm42.007,12.538c.07,0,.142-.008.212-.008-.07,0-.142.008-.212.008Zm-4.036,4.68q.868-1.331,1.74-2.66-.872,1.331-1.74,2.66l-2.358,3.734Q1564.042,467.287,1565.218,465.42Zm29.754,43.6q-.344.384-.688.77l.688-.77Zm38.7,100.68h0c-.4-1.874.319-4.192-.227-6.025C1633.991,605.506,1633.268,607.824,1633.674,609.7Zm-226.913,443.073c-.172-.011-.359-.053-.536-.077.177.024.364.066.538.075.175.282.449.586.668.879C1407.212,1053.354,1406.938,1053.05,1406.761,1052.771ZM924.135,1310.8c-2.249.173-4.672-.435-6.726.586,2.054-1.023,4.477-.413,6.726-.586Zm-107.175-32.035c-.125.525-.294,1.069-.418,1.594.124-.525.294-1.069.418-1.594l-21.423,4.6Zm40.733-181.046c-.429.6-.88,1.18-1.286,1.8.406-.616.855-1.2,1.286-1.8Zm159.335-159.833a3.3,3.3,0,0,0,.379-1.159A3.3,3.3,0,0,1,1017.028,937.889ZM1012,942.363c.708-.167,1.471-.274,2.141-.485h0C1013.471,942.089,1012.708,942.2,1012,942.363Zm224.4-214.274a6.573,6.573,0,0,0,1.949.586A6.573,6.573,0,0,1,1236.4,728.089Zm56.475-81.709h0l-.155-.152h0Zm8.493-20.672h0Zm44.582-42.257c.16.341.3.7.469,1.029h0C1346.248,584.152,1346.108,583.792,1345.948,583.451ZM1498.592,449.3h0a6.28,6.28,0,0,1-1.124-3.445A6.28,6.28,0,0,0,1498.592,449.3Zm59.634,27.2c.294.229.526.469.788.7-.262-.234-.493-.474-.788-.7ZM903.35,1308.034a52.79,52.79,0,0,1-6.3.544A52.79,52.79,0,0,0,903.35,1308.034Zm-30.629-203.42q1.051-.012,2.1-.021a8.727,8.727,0,0,1,1.633-2.846,8.681,8.681,0,0,0-1.63,2.846q-1.055.008-2.1.021a12.32,12.32,0,0,0-.436,1.2,12.32,12.32,0,0,1,.436-1.2Zm417.972-453.679a3.889,3.889,0,0,0,1.693-1.945,3.889,3.889,0,0,1-1.693,1.945Zm88.959-78.092c-.374.823-.78,1.633-1.119,2.468l-2.114,2.273,2.114-2.273C1378.869,574.476,1379.278,573.666,1379.651,572.842Zm9.695-86.849c-.022.477-.05.957-.077,1.434.027-.477.055-.957.077-1.434q1-1.2,2-2.4.041-1.108.11-2.215a4.207,4.207,0,0,0,2.007-3.219,4.207,4.207,0,0,1-2.007,3.219q-.067,1.107-.11,2.215Zm64.183,2.212c.663-.466,1.523-.81,2.116-1.321-.594.511-1.453.855-2.116,1.321Zm137.448,92.712a10.117,10.117,0,0,0-.234-1.044h0A10.117,10.117,0,0,1,1590.977,580.917Zm4.088,35.646h0a18.99,18.99,0,0,1,.284-3.925A18.975,18.975,0,0,0,1595.065,616.563ZM827.749,1269.58h0a8.983,8.983,0,0,0-1.581-.048A8.983,8.983,0,0,1,827.749,1269.58Zm571.658-748.962c.93-2.2.352-4.8.668-7.163a3.9,3.9,0,0,0,1.638-2,3.906,3.906,0,0,1-1.635,2C1399.759,515.819,1400.337,518.422,1399.407,520.618Zm-1.521,2.036a16.661,16.661,0,0,1-.149,2.226c-1.673,1.082-2.017,2.785-1.917,4.693a4.25,4.25,0,0,0,1.9-3.3,4.25,4.25,0,0,1-1.9,3.3h.015a20.1,20.1,0,0,1-2.48,1.958,2.839,2.839,0,0,1-1.63.022c-.272-3.651-.982-7.345.835-10.833.793-1.521,2.386-1.6,4.236.069A7.3,7.3,0,0,1,1397.886,522.654Zm25.674-18.412c.032-.938-.01-1.9.055-2.83a4.7,4.7,0,0,1,2.084-4.005c.7-2.535,1.4-5.069,2.269-8.2-.867,3.134-1.568,5.668-2.269,8.2a4.7,4.7,0,0,0-2.084,4.005c-.065.927-.022,1.892-.055,2.83a19.743,19.743,0,0,0-4.45.037A19.743,19.743,0,0,1,1423.56,504.242Zm188.6,126.039c.01-.442.02-.888.03-1.33-.01.442-.02.888-.028,1.33q-1.058,1.151-2.116,2.3h0Q1611.1,631.431,1612.158,630.282Zm-3.51.026a3.473,3.473,0,0,0,1.391,2.268l0,0,0,0A3.473,3.473,0,0,1,1608.648,630.308ZM1567.17,779.234c.1.155.194.373.291.554-.1-.181-.192-.4-.291-.554Zm-60.491,97.853c-.633-1.026-.571-1.682-.172-2.159a2.974,2.974,0,0,1,.835-.631,2.974,2.974,0,0,0-.835.631C1506.108,875.405,1506.046,876.061,1506.679,877.087ZM872.73,1219.2h0a5,5,0,0,1-3.62,2.34A5,5,0,0,0,872.73,1219.2ZM1417.2,525.01c.182,2.337.915,4.3,4.111,4.571q-.037,2.138-.07,4.282-3.456,4.833-6.91,9.674,3.455-4.841,6.91-9.676.033-2.139.07-4.28C1418.111,529.306,1417.378,527.347,1417.2,525.01Zm8.508-16.157q.022-1.155.045-2.305h0Q1425.726,507.7,1425.7,508.853Zm.793-3.068c-.254.246-.514.49-.72.733C1425.983,506.275,1426.242,506.031,1426.5,505.785Zm-2.393,5.066a5.261,5.261,0,0,1,1.6-2h0a5.246,5.246,0,0,0-1.605,2,6.668,6.668,0,0,0-.523,2.289A6.668,6.668,0,0,1,1424.1,510.851Zm12.312-1.988.02-.027-.02.027Zm65.409,39.838a6.507,6.507,0,0,1,1.169,3.792l0,0A6.5,6.5,0,0,0,1501.825,548.7Zm54.618,56.386a3.868,3.868,0,0,1-.6-.282,3.868,3.868,0,0,0,.6.282l.012-.016h0c.71.008,1.423.005,2.134-.008v0q-1.04,1.167-2.079,2.337c-.03.749-.052,1.5-.065,2.249q-1.036,1.167-2.074,2.334l-.042-.006.042,0,2.074-2.332c.012-.749.035-1.5.065-2.249Q1556.477,606.241,1556.443,605.088Zm30.024,36.659q1.058.008,2.116.021-1.058-.012-2.119-.021Zm12.865,32.08h0l0,.011Zm-40.711,99.931c.005-.466.012-.93-.025-1.386h0C1558.635,772.825,1558.63,773.291,1558.622,773.757Zm-42.842,74.25h0c-.017-.781-.037-1.562-.055-2.343h0C1515.743,846.445,1515.763,847.226,1515.78,848.007Zm-2.2,4.544h0ZM1127.234,967.672a3.444,3.444,0,0,0-1.608-2.859h0A3.447,3.447,0,0,1,1127.234,967.672Zm-25.178-30.326-.5.026h0a5.536,5.536,0,0,1,4.781-2.318c-1.765.043-3.363.44-4.283,2.292q1.084,0,2.164.005c-.613,0-1.249,0-2.174.013Zm190.757-178.765h0c-1.765,3.049-3.555,6.084-5.282,9.159C1289.259,764.665,1291.049,761.63,1292.813,758.581Zm64.719-85.133a15.237,15.237,0,0,0-.588,4.97A15.237,15.237,0,0,1,1357.532,673.448Zm57.522-118.684c.7-.413,1.057-.818,1.052-1.215,0,.4-.349.8-1.052,1.218.012.73.008,1.463-.017,2.193Q1415.075,555.864,1415.055,554.763Zm17.156-22.921h0l-.089-.091Zm43.286,27a5.06,5.06,0,0,0,1.441-2.156,5.06,5.06,0,0,1-1.441,2.156,16.444,16.444,0,0,1-4.335,2.542A16.444,16.444,0,0,0,1475.5,558.843Zm18.721,19.275a25.044,25.044,0,0,1-4.19,6.35q0,8.023-.01,16.043,0-8.023.01-16.043A25.044,25.044,0,0,0,1494.217,578.119Zm42.922,75.06c1.528-6.241,4.335-11.854,7.145-17.463,1.122-2.244,2.246-4.488,3.288-6.772-1.042,2.284-2.166,4.528-3.288,6.772-2.81,5.609-5.616,11.222-7.142,17.463l-4.248-2.415q-1.081,1.211-2.159,2.428l-.005.008c-.7,0-1.4,0-2.106-.008.7.008,1.4.011,2.106.008l.005-.008q1.077-1.215,2.159-2.43a110.109,110.109,0,0,0,12.8-27.246,110.169,110.169,0,0,1-12.8,27.248Q1535.017,651.971,1537.139,653.179Zm-49.266,192.51-.429.275v0a90.561,90.561,0,0,0,3.769-20.048c-.414,7.39-1.964,13.57-3.34,19.776a13.582,13.582,0,0,0,1.885-1.189,17.12,17.12,0,0,1-1.885,1.191Zm-417.962,236.023c-.145-.064-.292-.125-.436-.189.144.064.292.125.436.189Zm47.155-66.466h0a6.284,6.284,0,0,0,2.456-.464A6.284,6.284,0,0,1,1117.066,1015.246Zm25.686-116.885h0a7.187,7.187,0,0,0-3.335.775A7.187,7.187,0,0,1,1142.752,898.361Zm139.332-148.939h0a4.138,4.138,0,0,1,1.037.951A4.138,4.138,0,0,0,1282.084,749.422Zm27.99-12.312a4.08,4.08,0,0,0,1.945,3.177q-.008,2.3-.015,4.6-.991,1.131-1.987,2.265-.049,1.163-.1,2.324l-1.132,1.292,1.132-1.292q.048-1.159.1-2.324.995-1.131,1.987-2.265.007-2.3.015-4.6A4.08,4.08,0,0,1,1310.074,737.11Zm224.944-65.562q3.219-4.581,6.441-9.162-3.219,4.581-6.441,9.162Zm34.3-36.677.03.029,2.176-2.3q-.019-1.147-.037-2.289h0a3.969,3.969,0,0,0,1.052-.869,3.93,3.93,0,0,1-1.052.869q.019,1.143.037,2.289l-2.176,2.3a8.694,8.694,0,0,1-.566,3.078,8.694,8.694,0,0,0,.566-3.078l-.03-.029ZM972.431,1242.152c-1.069.037-2.176,0-3.28-.035l.014-.021h-1.4a2.19,2.19,0,0,0,1.411-2.3q-.007,1.151-.01,2.3C970.265,1242.174,971.35,1242.168,972.431,1242.152Zm-60.765,2.294c4.13-.136,8.323.085,12.457-.027l.072-.045-.072.048a5.1,5.1,0,0,1-1.443,1.428,5.1,5.1,0,0,0,1.443-1.428C919.989,1244.532,915.8,1244.311,911.666,1244.447Zm10.951,1.436a5.656,5.656,0,0,1-2.535.786A5.656,5.656,0,0,0,922.617,1245.883Zm30.308-126.628a5.355,5.355,0,0,1,.5.477A5.355,5.355,0,0,0,952.925,1119.255Zm1.2,1.359,2.74-1.442q-1.372.723-2.74,1.444Zm36.8-14.177a6.212,6.212,0,0,1-2.458.464,19.424,19.424,0,0,1-4.118,1.865,19.424,19.424,0,0,0,4.118-1.865A6.212,6.212,0,0,0,990.921,1106.437Zm100.4-33.93-1.07.032,1.067-.032a25.582,25.582,0,0,1,7.075-5.05c1.276-.65,2.585-1.239,3.9-1.818-1.311.578-2.62,1.167-3.9,1.818A25.53,25.53,0,0,0,1091.317,1072.507Zm109.328-137.493q1.062-1.131,2.129-2.26l.853-.448-.853.448q-1.066,1.131-2.129,2.26l-.028.029q-1.058,1.135-2.116,2.268l-.02.013a4.88,4.88,0,0,0-3.45,1.194,4.88,4.88,0,0,1,3.45-1.194l.02-.013,2.116-2.268Zm98.574-178.709-.037-.077h0l6.152-5.114c-2.281,1.894-4.216,3.5-6.15,5.114l.037.077a3.844,3.844,0,0,0-1.685,1.948A3.844,3.844,0,0,1,1299.22,756.305Zm53.631-34.313c.681-.019,1.364-.045,2.044-.075-.68.029-1.361.056-2.044.075Zm40.613-94.151a18.92,18.92,0,0,1,.122-2.127,18.92,18.92,0,0,0-.122,2.127q-1.05,1.2-2.1,2.393l-.038-.021c.028.773.058,1.546.085,2.318l-.085-2.318h0l.038.021Q1392.412,629.038,1393.464,627.841Zm29.954-39.014q.03,3.622.06,7.246h0Q1423.449,592.446,1423.418,588.826Zm21.588-34.17.015,2.324-.015-2.324Zm90.039,73.352h0l-2.189-.032Zm-8.611,43.515q.026,5.752.052,11.51a7.455,7.455,0,0,0,2.762-2.231,7.455,7.455,0,0,1-2.762,2.231c-.007.754-.02,1.505-.037,2.26.018-.755.03-1.506.037-2.26q-.026-5.756-.052-11.51Zm-124.3,265.814-2.151-2.3q-4.274,3.453-8.548,6.9a17.443,17.443,0,0,1-1.869,3.011,17.443,17.443,0,0,0,1.869-3.011q4.274-3.454,8.548-6.9c0-.76,0-1.522-.01-2.281a7.875,7.875,0,0,1-1.979-.453,7.766,7.766,0,0,0,1.979.451l.017-.008-.017.011c.007.759.01,1.522.01,2.281l2.151,2.3ZM934.373,1155.769a.842.842,0,0,0-.087.49A.842.842,0,0,1,934.373,1155.769Zm27.7-35.862a3.884,3.884,0,0,0,3.283.208A3.884,3.884,0,0,1,962.071,1119.908Zm88.563-1.527c1.416-.112,2.827-.259,4.24-.325-1.414.066-2.824.213-4.238.325a10.943,10.943,0,0,1-4.836,3.7A10.944,10.944,0,0,0,1050.634,1118.381Zm208.483-309.846a4.381,4.381,0,0,1-.3-1.077,4.381,4.381,0,0,0,.3,1.077,18.048,18.048,0,0,0,1.558,2.8h0A18.048,18.048,0,0,1,1259.118,808.535ZM1365.4,723.649l-.022-.021Zm.262.576a7.665,7.665,0,0,0,2.839-3.688,7.665,7.665,0,0,1-2.839,3.688Zm-2.034-39.7a1.717,1.717,0,0,0,1.029-.405A1.717,1.717,0,0,1,1363.625,684.526Zm160.708,7.648a28.2,28.2,0,0,0,2-2.156,27.72,27.72,0,0,1-2,2.156c0,.379-.013.757-.02,1.138C1524.321,692.931,1524.331,692.553,1524.333,692.174Zm-323.2,371.848a3.024,3.024,0,0,0,.219-1.117A3.024,3.024,0,0,1,1201.129,1064.022Zm-150.505,72.688a11.387,11.387,0,0,0,4.614-1.3,11.387,11.387,0,0,1-4.614,1.3l-8.573,6.859Zm233.614-339.144q.056-1.111.1-2.222-.045,1.111-.1,2.222a6.514,6.514,0,0,0-2.371.387,8.6,8.6,0,0,0-2.867,1.839,8.6,8.6,0,0,1,2.867-1.839A6.514,6.514,0,0,1,1284.238,797.565Zm109.335-160.379h0l0,0Zm90.011,66.513-6.441,11.355a7.138,7.138,0,0,0-4.821,1.985,7.138,7.138,0,0,1,4.821-1.985ZM1217.8,1042.719c.147,1.045.117,2.345.94,2.774-.825-.429-.793-1.73-.94-2.774a11.633,11.633,0,0,1,2.044-3.382A11.633,11.633,0,0,0,1217.8,1042.719Zm-267.559,155.26h0l-.922-.291Zm33.923-24.629h0q-2.139.008-4.275.013Zm-27.782,38.823,2.084.131h0Zm74.93-70.905a8.995,8.995,0,0,0-1.279.12,8.995,8.995,0,0,1,1.279-.12Zm77.173-18.332h0l-2.144.006Zm24.854-12.783a2.32,2.32,0,0,0,.867,1.349h0A2.32,2.32,0,0,1,1133.342,1110.151Zm66.586-54.177a24.567,24.567,0,0,0,1.937-2.681c.312-.466.625-.927.959-1.356.7-.013,1.409-.027,2.112-.042q1.073-1.135,2.144-2.273,3.22-2.295,6.437-4.586-3.219,2.291-6.437,4.586-1.073,1.135-2.144,2.273c-.7.016-1.409.029-2.112.042-.334.429-.648.89-.959,1.356A24.567,24.567,0,0,1,1199.928,1055.974Zm47.86-203.434h0Zm2.211-4.547q1.047-1.151,2.1-2.305L1250,848l-.02.032Zm8.528-11.47,2.139-2.3h0Zm-3.513-3.52a.573.573,0,0,0,.337.117A.573.573,0,0,1,1255.014,833Zm3.532,5.828q1.07-1.147,2.134-2.294-1.066,1.147-2.134,2.294a7.991,7.991,0,0,1-2.361,3.345A7.991,7.991,0,0,0,1258.547,838.832Zm123.784-135.78a3.046,3.046,0,0,1,.571.637h0A3.046,3.046,0,0,0,1382.331,703.052Zm13.357-40.683-2.106,2.329c-.015.749-.032,1.5-.058,2.247.025-.749.042-1.5.058-2.249Zm-.429-2.633a5.938,5.938,0,0,1,.336,1.372A5.938,5.938,0,0,0,1395.259,659.737Zm23.974-45.594c1.4-1.308,3.39-.576,5.023-1.085-1.633.509-3.622-.224-5.023,1.087Zm17.325-21.85c-.04.7-.06,1.4-.067,2.108C1436.5,593.7,1436.518,593,1436.558,592.293Zm15.354,69.253q-.677.5-1.4.946Q1451.234,662.049,1451.911,661.546Zm12.773,33.5a8.842,8.842,0,0,1,.982,1.535A8.842,8.842,0,0,0,1464.685,695.05ZM1331.4,797.569a7.956,7.956,0,0,1,.3-2.353,7.956,7.956,0,0,0-.3,2.353Zm-42.857,128.326q1.073-1.143,2.144-2.286-1.07,1.143-2.144,2.286Zm107.177-192.47-.022-.03h0Zm10.749,146.684q1.069-1.151,2.139-2.308-1.069,1.155-2.139,2.308Zm8.548-169.589,0,0,0,0Zm-.055-.051h0q1.1-4.549,2.208-9.1Zm-2.067,2.356h0l-.05-.051Zm-4.283,2.294-.045-.043.045.043ZM1378.565,793a22.138,22.138,0,0,0,2.423-1.642,22.138,22.138,0,0,1-2.423,1.642c-.005.762-.02,1.527-.048,2.289C1378.545,794.528,1378.56,793.763,1378.565,793Zm5.823-6.079a9.841,9.841,0,0,0,.594-3.1h0A9.841,9.841,0,0,1,1384.388,786.922Zm2.745,40.429c1.161-1.554,2.371-3.078,3.59-4.6s2.446-3.033,3.645-4.562c-1.2,1.529-2.426,3.043-3.645,4.562s-2.428,3.043-3.59,4.6c-.506,2.327-1.072,4.618-1.738,6.859C1386.06,831.97,1386.626,829.678,1387.132,827.351Zm34.613-10.979a3.729,3.729,0,0,1,1.825,1.825h0A3.729,3.729,0,0,0,1421.745,816.372Zm6.14-71.47a10.227,10.227,0,0,1-.71,3.811,10.227,10.227,0,0,0,.71-3.811c1.4-1.807,2.84-3.587,4.138-5.452C1430.725,741.315,1429.286,743.1,1427.885,744.9Zm8.591-16.037h0v0Zm-27.549,26.75a49.714,49.714,0,0,0-2.226,5.007,49.714,49.714,0,0,1,2.226-5.007,37.083,37.083,0,0,1,8.162-10.74q.034-1.143.075-2.286-.041,1.143-.075,2.286A37.083,37.083,0,0,0,1408.927,755.615Zm-2.613-5.391a24.9,24.9,0,0,0-2.021,1.532c-.107.554-.133,1.183-.2,1.769a2.964,2.964,0,0,1-.5,1.5,2.964,2.964,0,0,0,.5-1.5c.072-.586.1-1.215.2-1.769.585-3.03,1.239-6.034,2.034-8.986-.795,2.952-1.448,5.956-2.034,8.986A24.9,24.9,0,0,1,1406.314,750.224ZM1385,742.594h0l-.017-.024Zm-66.449,128.3,2.139-2.287,0,0,0,0q-1.069,1.143-2.136,2.287c0,.762-.007,1.524-.012,2.289Q1318.545,872.038,1318.547,870.9Zm90.053,6.91,0,.005q1.062-1.163,2.126-2.324c.267-1.439.439-2.9.827-4.3-.389,1.4-.561,2.865-.827,4.3h0Zm2.122-2.308Zm25.751-146.628h0q1.02-1.183,2.039-2.364c.658-1.188,1.152-2.5,1.772-3.712-.621,1.215-1.114,2.524-1.77,3.712Q1437.494,727.689,1436.473,728.87ZM1428.444,716c-2.42,6.524-4.687,13.117-7.06,19.662q-1.047,1.171-2.092,2.337,1.047-1.167,2.092-2.337c2.373-6.545,4.639-13.138,7.06-19.662,1.211-3.262,2.46-6.507,3.779-9.719C1430.9,709.493,1429.655,712.739,1428.444,716Zm8.106-81.647c0-.117-.017-.237-.022-.352C1436.533,634.116,1436.548,634.236,1436.55,634.353Zm-2.278,25.738c.476-.067.967-.088,1.448-.138-.481.05-.972.072-1.448.138ZM1421.436,680.7h0a1.954,1.954,0,0,1,.494-.946A1.954,1.954,0,0,0,1421.436,680.7Zm-.012.021h0c-1.144.848-2.351,1.618-3.423,2.561C1419.073,682.338,1420.28,681.568,1421.424,680.72ZM1408.616,722l4.238,2.246L1408.616,722c-.526,4.261-2.844,6.974-5.674,9.245C1405.771,728.974,1408.087,726.261,1408.616,722Zm-27.922,25.149a4.412,4.412,0,0,1-.86-.714,4.412,4.412,0,0,0,.86.714l.015.018Zm-26.643,40.194a2.672,2.672,0,0,1,.379.973,2.672,2.672,0,0,0-.379-.973,4.281,4.281,0,0,0-1.211-1.223v0A4.325,4.325,0,0,1,1354.05,787.343Zm-14.179,113.605c-.6,1.612-1.575,2.971-4.188,6.6q-1.07,1.147-2.136,2.3,1.07-1.147,2.136-2.3C1338.3,903.92,1339.275,902.561,1339.871,900.948Zm-19.2,31.8h0l.018.021Zm8.588-9.149,0,0,0,0-2.144,2.284Q1328.184,924.738,1329.259,923.6Zm87.9-77.887h0l2.139-2.3Zm2.136-2.3v0q1.065-1.155,2.131-2.308Q1420.361,842.26,1419.295,843.41Zm47.147-84.795h0q1.069-1.143,2.137-2.292c.708-1.311,1.388-2.641,2.089-3.958-.7,1.317-1.381,2.646-2.089,3.958Q1467.509,757.471,1466.442,758.616Zm9.695-22.516a1.259,1.259,0,0,0,.359.343A1.232,1.232,0,0,1,1476.137,736.1Zm-1.109-4.968a9.4,9.4,0,0,0-.733-1.516,9.4,9.4,0,0,1,.733,1.516Zm-36.443-34.377-2.154-.005,2.154.005Zm-2.139-64.123a3.826,3.826,0,0,1-.654-.8,3.826,3.826,0,0,0,.654.8Zm-.98-2.318a2.321,2.321,0,0,0,.244,1.3A2.321,2.321,0,0,1,1435.466,630.314ZM1332.081,794.176a10.965,10.965,0,0,1,1.8-2.721A10.965,10.965,0,0,0,1332.081,794.176Zm-18.188,5.511h0c2.458-1.41,3.866-3.779,5.185-6.18C1317.759,795.908,1316.351,798.28,1313.893,799.687Zm-1.356-.621a1.063,1.063,0,0,1,.418-.232A1.063,1.063,0,0,0,1312.537,799.066Zm.454-.227a.552.552,0,0,1,.336.029A.552.552,0,0,0,1312.991,798.84Zm-3,5.674a23.178,23.178,0,0,0-5.831,4.909,23.178,23.178,0,0,1,5.831-4.909Zm-36.466,137.4.008.011-.008-.011Zm-.444,21.114a15.331,15.331,0,0,0-3.3,2.26A15.331,15.331,0,0,1,1273.08,963.03Zm1.261-.4c-.144.029-.277.093-.418.133C1274.065,962.718,1274.2,962.654,1274.341,962.625Zm42.062-16.11,0,0,0,0q-1.073,1.143-2.141,2.286Q1315.331,947.659,1316.4,946.515Zm89.989-61.9q-2.128,1.167-4.255,2.332l-2.1,2.3q-.037,2.271-.072,4.538.033-2.271.07-4.538h0q1.051-1.148,2.1-2.3,2.128-1.163,4.255-2.332h0l.062.056h0Zm70.492-148.092a1.066,1.066,0,0,0,.439-.162A1.066,1.066,0,0,1,1476.884,736.526Zm2.506-8.65a4.11,4.11,0,0,0,2.031,3.2l0,0,0,0A4.11,4.11,0,0,1,1479.39,727.876Zm-10.8.97a39.7,39.7,0,0,0-2.024,4.373,39.7,39.7,0,0,1,2.024-4.373q1.065-1.156,2.134-2.308Q1469.658,727.693,1468.593,728.846Zm-2.381,5.082a7.784,7.784,0,0,1-.83,1.263A7.784,7.784,0,0,0,1466.212,733.928Zm-21.186-53.213-.005.005,0-.005a4.131,4.131,0,0,0,2.009-3.219A4.134,4.134,0,0,1,1445.026,680.715Zm-5.372-78.956a5.175,5.175,0,0,1,1.6.258A5.175,5.175,0,0,0,1439.654,601.759Zm-3.138-3.142c.015,1.4.015,2.806-.062,4.208h0C1436.528,601.424,1436.531,600.019,1436.516,598.617Zm-2.261,22.5a31.826,31.826,0,0,1-5.751,7.243,31.75,31.75,0,0,0,5.749-7.243c.4-.826.763-1.673,1.146-2.51C1435.015,619.443,1434.648,620.291,1434.254,621.117Zm-25.671,59.593h0c-.15.341-.3.7-.479,1.053C1408.279,681.413,1408.434,681.05,1408.583,680.709Zm-17.161-11.453-2.106,2.337c-.007.746-.03,1.492-.06,2.239-.711.384-1.424.77-2.136,1.154q1.069-.58,2.136-1.154c.03-.746.052-1.492.06-2.239Q1390.371,670.422,1391.422,669.256Zm2.326,15.545c-.588,3.6-1.354,7.128-4.43,9.692-.077,1.874-.476,3.571-2.186,4.549,1.71-.978,2.109-2.675,2.184-4.549C1392.395,691.929,1393.16,688.4,1393.749,684.8Zm-6.708,15.624a4.174,4.174,0,0,1-2.024,3.216v0A4.174,4.174,0,0,0,1387.04,700.425Zm-75.122,92.4h0q-1.013,1.187-2.032,2.369Q1310.9,794.011,1311.918,792.825Zm-8.373,137.664q1.054-.028,2.111-.032-1.058,0-2.111.032a64.343,64.343,0,0,1-9.064,10.974A64.343,64.343,0,0,0,1303.545,930.489Zm51.427-13.77.008-.005-.008.008q-1.069,1.139-2.136,2.281Q1353.9,917.859,1354.972,916.719ZM1385,914.441a6.282,6.282,0,0,0,2.453-.477,6.282,6.282,0,0,1-2.453.477l0,0Zm42.872-54.993h0q-.008,2.286-.017,4.573Q1427.866,861.734,1427.873,859.448Zm57.846-135.21q-1.065,1.148-2.134,2.295,1.066-1.147,2.134-2.295l1.077-1.148C1486.437,723.473,1486.078,723.855,1485.719,724.238Zm-21.4-29.74h0q-3.246,6.839-6.487,13.684c-.753.192-1.8.831-2.573.949.768-.117,1.82-.757,2.573-.949q3.242-6.843,6.487-13.684c.82-1.4,1.6-2.836,2.41-4.248C1465.924,691.662,1465.141,693.1,1464.321,694.5Zm-17.186,13.687-2.119,2.321,2.119-2.321a15.643,15.643,0,0,1,1.364-5.346A15.643,15.643,0,0,0,1447.135,708.185Zm6.414-48.094q.486-1.7.91-3.4-.423,1.707-.91,3.4Zm1.538-6.236c.237-1.218.434-2.441.563-3.677C1455.521,651.414,1455.324,652.638,1455.087,653.855Zm-3.652-9.8h0c.546-1.178,1.1-2.351,1.65-3.526C1452.537,641.706,1451.981,642.878,1451.435,644.057Zm-4.28-11.449a22.236,22.236,0,0,1-1.508,3.408c-.58,1.106-1.2,2.2-1.735,3.323.536-1.125,1.154-2.217,1.735-3.323a22.236,22.236,0,0,0,1.508-3.408Zm-30.387-13.5-1.688,2.145q0,1.08-.032,2.159a3.241,3.241,0,0,1,1.384,2.819,3.241,3.241,0,0,0-1.384-2.819q.03-1.079.03-2.159Q1415.922,620.175,1416.767,619.1Zm-3.994,20.277.112.117h0l-.112-.117Zm-17.083,22.972h0a43.57,43.57,0,0,0,4.009-5.186A43.364,43.364,0,0,1,1395.69,662.354Zm-66.5,105.339h0a7.765,7.765,0,0,0-2.834,2.513A7.765,7.765,0,0,1,1329.194,767.692Zm.185,2.649q-.06-.872-.122-1.748c.042.584.082,1.167.125,1.748l0,0a55.646,55.646,0,0,1-4.415,7.5A55.5,55.5,0,0,0,1329.378,770.341Zm-32.09,25.876c-1.264,1.7-2.523,3.4-2.41,5.866-.955.962-2.057,1.817-2.957,2.819.9-1,2-1.857,2.957-2.819C1294.765,799.621,1296.024,797.918,1297.288,796.217Zm-25.876,12.834a6.856,6.856,0,0,0-.922-.562,6.856,6.856,0,0,1,.922.563Zm-23.625,43.489h0l-.716.765Zm-23.567,87.089h0a8.666,8.666,0,0,0-1.536.2A8.666,8.666,0,0,1,1224.22,939.629Zm-167.91,195.223c.708-.386,1.406-.8,2.109-1.2C1057.716,1134.053,1057.018,1134.466,1056.31,1134.853Zm-16.408,8.736h0l0-.016Zm-46.447,13.735c.469-.011.94-.019,1.409-.032h0C994.4,1157.3,993.925,1157.312,993.456,1157.323Zm-2.876,2.281.01-.006-.01.006q-6.417,2.3-12.831,4.6Q984.165,1161.9,990.579,1159.6Zm-16.074,3.278a1.719,1.719,0,0,1,1.062-.456A1.719,1.719,0,0,0,974.505,1162.882Zm225.744-97.272a12.267,12.267,0,0,0,.636-1.052A12.267,12.267,0,0,1,1200.249,1065.61Zm165.475-141.986c.673-.213,1.433-.325,2.144-.5-.71.171-1.471.283-2.144.5-.614.919-1.087,2.1-1.752,2.923C1364.637,925.721,1365.111,924.543,1365.724,923.624Zm130.751-153.552,2.114-2.27q-1.055,1.135-2.114,2.27-.019,1.144-.027,2.287Q1496.455,771.215,1496.476,770.072Zm2.136-2.289q1.062-1.14,2.129-2.281l-.008-.011.008.011h0q-1.066,1.143-2.129,2.281Zm4.255-6.881q-1.077,1.143-2.154,2.281L1498.6,765.5l2.111-2.313q1.076-1.139,2.154-2.281Zm23.567-41.287a62.4,62.4,0,0,1,5.41-14.521,62.374,62.374,0,0,0-5.41,14.523c-.362,1.628-.76,3.251-1.134,4.877C1525.674,722.868,1526.073,721.246,1526.435,719.615Zm.09-24.456a1.337,1.337,0,0,1-.83.224A1.337,1.337,0,0,0,1526.525,695.159Zm-25.667,45.97a29,29,0,0,0-.117-3.137h0l2.146-2.289-2.146,2.289A29,29,0,0,1,1500.858,741.128Zm-47.3-48.978c-1.994-.664-2.991-1-3.528-1.855.536.858,1.533,1.189,3.528,1.855l0,0Zm.055-68.675c.2,1.519-.673,3.094-.72,4.632.047-1.538.917-3.115.718-4.632,1.765,1.023,3.283,1.279,4.5.474C1456.9,624.754,1455.382,624.5,1453.616,623.475Zm-2.171-.045-.008.005q-1.032,1.135-2.062,2.271-1.125,2.287-2.253,4.573c.01.776.02,1.554.032,2.329a4.27,4.27,0,0,1-3.233,1.045,4.262,4.262,0,0,0,3.231-1.045c-.01-.776-.02-1.554-.03-2.329a25.1,25.1,0,0,1-3.413.005,24.709,24.709,0,0,0,3.413-.008q1.125-2.287,2.253-4.571,1.028-1.135,2.062-2.271l.008-.005q1.047-1.167,2.094-2.34v0q-1.047,1.167-2.094,2.337c.71,0,1.418,0,2.129-.008C1452.864,623.43,1452.156,623.433,1451.445,623.43Zm-8.635-57.33a7.4,7.4,0,0,0-3.146,2.713,7.424,7.424,0,0,1,3.146-2.715,15.454,15.454,0,0,1,1.215-6.961A15.458,15.458,0,0,0,1442.81,566.1Zm-12.987,24.618a12.086,12.086,0,0,1-2.934,6.217A12.086,12.086,0,0,0,1429.822,590.718Zm-4.23,7.592c.13.512.389,1.109.571,1.658-.182-.547-.441-1.146-.571-1.658h0c.444-.426.855-.866,1.236-1.311C1426.447,597.444,1426.035,597.884,1425.592,598.311Zm-8.48-18.4c.169-.317.309-.674.469-1-.16.331-.3.688-.469,1Zm-2.989,22.137a3.413,3.413,0,0,1-.593-.911,3.413,3.413,0,0,0,.593.911,4.82,4.82,0,0,0,.875.762h0A4.82,4.82,0,0,1,1414.122,602.052Zm-1.256,7.643c1.371-.362,2.75-.7,4.113-1.09-1.364.394-2.742.728-4.113,1.09l-.052-.05-2.124,2.294h0l2.124-2.294Zm-4.3,4.557-.01-.008h0Zm2.134,32.08c-2.752,4.418-5.724,8.688-7.546,13.541,1.822-4.853,4.794-9.122,7.546-13.541q.007-3.433.013-6.865Q1410.7,642.9,1410.7,646.332Zm-19.284-13.764-.013.024.013-.024Zm-12.863,34.388c.035.941-.01,1.913.05,2.846-.06-.933-.015-1.905-.05-2.846Zm.875,5.62a4.308,4.308,0,0,1-.5-.984A4.251,4.251,0,0,0,1379.427,672.576Zm-29.2,77.871c-.678.144-1.244-.256-1.705-1.015h0C1348.982,750.192,1349.551,750.591,1350.229,750.448Zm-10.914,9.26c1.291-2.148,2.288-4.573,4.666-5.751l-1.241-6.484q.621,3.242,1.244,6.484C1341.6,755.135,1340.606,757.56,1339.315,759.708Zm-21.448,17.135c.194-1.5.434-2.993.656-4.488h0C1318.3,773.851,1318.061,775.343,1317.867,776.844Zm-20.743,7-.02-.024.02.024Zm-2.187-2.364h0q-1.066,1.155-2.129,2.313t-2.1,2.316l2.1-2.316q1.066-1.155,2.129-2.313-.007-1.119.03-2.236Q1294.93,780.355,1294.937,781.475Zm-15.129,1.716a2.309,2.309,0,0,0,1.129-.106A2.309,2.309,0,0,1,1279.808,783.191Zm-9.468,25.208a6,6,0,0,0-1.992-.573A6,6,0,0,1,1270.341,808.4Zm-3.218-.6c-.047,0-.095.016-.142.019C1267.028,807.81,1267.075,807.8,1267.122,807.794Zm-8.63,10.358-2.079,2.321q1.04-1.16,2.079-2.324.007-2.262.015-4.53h0C1258.5,815.128,1258.5,816.641,1258.492,818.152Zm-10.71,18.345h0c.078-1.372.135-2.4.242-3.2C1247.918,834.1,1247.86,835.125,1247.782,836.5Zm.013.005h0q-.643.688-1.286,1.38ZM1213.5,948.8l.008,0q1.069-1.147,2.139-2.292c1.426-2.739,3.1-5.13,5.671-6.233-2.575,1.1-4.245,3.494-5.669,6.233q-1.073,1.147-2.141,2.292l-.008,0a8.772,8.772,0,0,0-2.067,1.3A8.772,8.772,0,0,1,1213.5,948.8Zm-15,11.456a6.4,6.4,0,0,0-.972.059,6.4,6.4,0,0,1,.972-.059,14.257,14.257,0,0,0,2.027-1.266A14.257,14.257,0,0,1,1198.5,960.253Zm-1.877.256a7.141,7.141,0,0,0-1.648.738A7.141,7.141,0,0,1,1196.625,960.509Zm-83.844,130.367v0l-.018-.024Zm-146.936,70.537c.222.1.483.211.753.32C966.329,1161.624,966.067,1161.515,965.845,1161.414Zm-38.587,10.444a2.415,2.415,0,0,0-.162-1.029A2.415,2.415,0,0,1,927.258,1171.857Zm.047,3.659a3.489,3.489,0,0,1,1.162.157h0A3.5,3.5,0,0,0,927.306,1175.516Zm200.482-20.49a4.911,4.911,0,0,0,3.465-1.149,4.911,4.911,0,0,1-3.465,1.149l-.015.01Zm329.99-542.965c.047.735.087,1.474.115,2.212q2.116,1.127,4.228,2.257h0q-2.112-1.127-4.228-2.257-1.114,2.215-2.226,4.432-1.062,1.2-2.124,2.4h0q1.062-1.2,2.124-2.4,1.114-2.214,2.226-4.429c-.028-.738-.067-1.477-.115-2.212l.064-.064c-.683.005-1.368.021-2.051.056h0a3.632,3.632,0,0,1-.516-.48,3.632,3.632,0,0,0,.516.48c.683-.035,1.368-.051,2.051-.056ZM1390.3,629.6l.03.024Zm-.808-.653a7.366,7.366,0,0,1-2.016-3.624A7.366,7.366,0,0,0,1389.493,628.952Zm-15.231,31.139-2.134,2.281,2.134-2.281c.015-.749.028-1.5.038-2.249C1374.289,658.591,1374.277,659.342,1374.262,660.091ZM1363.448,679.9a43.549,43.549,0,0,0,2.271-4.714A43.549,43.549,0,0,1,1363.448,679.9Zm17.26-3.773q-.007-1.151-.01-2.305v0q0,1.151.01,2.3h0q-1.069,1.155-2.136,2.305Q1379.641,677.283,1380.708,676.129Zm-40.77,54.983-2.109,2.294h0l2.109-2.294c.763-1.892,1.8-3.662,2.672-5.5C1341.735,727.45,1340.7,729.219,1339.938,731.111Zm-.638-31.294c.232.506.451,1.021.693,1.522h0C1339.751,700.838,1339.532,700.323,1339.3,699.817Zm-3.659,10.657q1.1-2.286,2.189-4.57-1.1,2.286-2.189,4.57c-.451.3-1.01.509-1.421.837C1334.631,710.983,1335.189,710.77,1335.64,710.474Zm-8.538,29.8,0-1.141,0,1.141q-4.274,6.887-8.543,13.78Q1322.83,747.167,1327.1,740.279Zm-27.85,30.188a12.86,12.86,0,0,1-1.237,4.5,12.86,12.86,0,0,0,1.237-4.5,18.277,18.277,0,0,0-2.2-9.61h0A18.277,18.277,0,0,1,1299.252,770.466Zm-21.389,11.1c-2.545,3.083-5.1,6.153-7.628,9.255,2.525-3.1,5.083-6.172,7.628-9.255Zm-45.09,66.4a13.5,13.5,0,0,0-7.519,4.328,13.5,13.5,0,0,1,7.519-4.328l.02-.016Zm-8.538,22.9c1.433.608,2.767,1.324,4.2.781-1.428.544-2.762-.173-4.2-.781Zm-38.584,93.98c-.309.184-.653.336-.977.506.324-.171.668-.323.977-.506Zm-62.176,105.37c.915-1.828,2.505-2.23,4.25-2.308q4.323-3.394,8.64-6.793l-8.638,6.8c-1.747.075-3.338.477-4.253,2.305l-.01.013Zm-5.906,2.412a6.3,6.3,0,0,1,1.466.229,6.3,6.3,0,0,0-1.466-.229,4.6,4.6,0,0,1-.486-.075q-2.158,1.135-4.315,2.268,2.158-1.131,4.315-2.268A4.6,4.6,0,0,0,1117.569,1072.627Zm-77.672,48.035c0,.762,0,1.527.01,2.289-.008-.762-.01-1.527-.01-2.289l-4.3-.008ZM969.153,1155a15.054,15.054,0,0,0-6.08,1.213,15.1,15.1,0,0,1,6.08-1.215c10.861-6.729,22.795-10.841,34.287-16.03a4.936,4.936,0,0,0-.619-.866,4.936,4.936,0,0,1,.619.866C991.948,1144.158,980.014,1148.27,969.153,1155Zm32.212-17.906a3.788,3.788,0,0,1,1.331.9A3.788,3.788,0,0,0,1001.366,1137.1Zm-4.305-.381c-4.54,4.445-10.121,6.35-15.785,7.632,5.663-1.282,11.245-3.187,15.785-7.632.583.021,1.179,0,1.768.008C998.24,1136.718,997.644,1136.737,997.061,1136.715Zm-25.741-11.467c-.511-.013-1.025,0-1.536-.011.511.008,1.025,0,1.536.011Zm-8.585-9.178c-.426,0-.853.005-1.279.01.426-.005.853-.013,1.279-.01.429-.579.892-1.135,1.279-1.746C963.627,1114.935,963.163,1115.492,962.734,1116.07Zm-36.418,52.73h0c-2.049,1.373-4.418,1.935-6.666,2.854C921.9,1170.736,924.267,1170.173,926.316,1168.8Zm-17.153,38.926h-.007a4.774,4.774,0,0,1-4.3,2.292,4.754,4.754,0,0,0,4.29-2.292,13.421,13.421,0,0,0-1.389-.09,13.561,13.561,0,0,1,1.4.09c1.1-1.937,2.959-2.348,4.761-2.769C912.114,1205.379,910.26,1205.792,909.163,1207.727Zm-8.38-.013a13.09,13.09,0,0,0,1.373.1A13.09,13.09,0,0,1,900.783,1207.714Zm222.72-50.4a6.223,6.223,0,0,0,2.451-.461,6.223,6.223,0,0,1-2.451.461l-.02.016Zm12.851-4.568.007-.01-.007.01a6.138,6.138,0,0,1-1.391,2.4A6.138,6.138,0,0,0,1136.353,1152.745Zm4.29-2.3q1.07-1.135,2.139-2.276a21.972,21.972,0,0,0,10.3-2.881,22.006,22.006,0,0,1-10.3,2.883q-1.069,1.135-2.139,2.273l-2.149.021Zm426.55-483.475c.82-1.234,1.436-2.161,1.9-2.932a10.777,10.777,0,0,0,.99-2,10.777,10.777,0,0,1-.99,2c-.464.77-1.079,1.7-1.9,2.932q-.011,1.139-.028,2.278Q1567.18,668.106,1567.193,666.967Zm-2.166-20.651a15.746,15.746,0,0,1,2.014,3.683,3.282,3.282,0,0,1,.135.911,3.282,3.282,0,0,0-.135-.911,15.746,15.746,0,0,0-2.014-3.683Zm-12.833,9.192c-.032,1.508.015,3.022-.08,4.519.094-1.5.047-3.011.077-4.519q1.066-2.295,2.132-4.592Q1553.256,653.21,1552.193,655.508Zm-7.713,2.875a6.536,6.536,0,0,0-.857-.581,13.276,13.276,0,0,1,1.154-4.893,13.276,13.276,0,0,0-1.154,4.893A6.536,6.536,0,0,1,1544.48,658.383Zm-38.325-1.759a1.629,1.629,0,0,1-.3.6A2.529,2.529,0,0,0,1506.156,656.624Zm-.573.874c-.688,2.556-.6,4.442-1.3,5.8.78-1.519.518-3.651.738-5.5q-4.18-.116-4.288-4.584-1.036.008-2.071.029h0a3.438,3.438,0,0,0,2.047-.642c-.127.73.157.826.738.168q-.58,4.945,3.629,4C1504.774,657.807,1505.011,658.063,1505.582,657.5Zm-3.709-5.455a1.557,1.557,0,0,1-.306.6A2.434,2.434,0,0,0,1501.873,652.043Zm-24.632,5.778h0a13.57,13.57,0,0,0-1.673-3.227A13.64,13.64,0,0,1,1477.241,657.821Zm-2.715-3.851a1.443,1.443,0,0,1,.957.549A1.443,1.443,0,0,0,1474.526,653.97Zm-5.978-30.566a16.6,16.6,0,0,0-4.926,5.738,16.6,16.6,0,0,1,4.926-5.738,24.184,24.184,0,0,1,1.865-6.271A24.184,24.184,0,0,0,1468.549,623.4Zm-12.8-27.459a7.953,7.953,0,0,0,2.807-.6,8.863,8.863,0,0,0,3.2-2.393,8.863,8.863,0,0,1-3.2,2.393,7.953,7.953,0,0,1-2.807.6c-.007.759-.017,1.516-.022,2.276.005-.76.015-1.517.022-2.276q7.478-12.619,14.954-25.242h0Q1463.221,583.326,1455.745,595.944Zm13.382-28.245a4.689,4.689,0,0,1,.27-.855,4.689,4.689,0,0,0-.27.855,3.122,3.122,0,0,0-.052.429A3.122,3.122,0,0,1,1469.127,567.7Zm.362,1.844a2.689,2.689,0,0,1-.195-.346A2.689,2.689,0,0,0,1469.488,569.543Zm-.319-.669a2.35,2.35,0,0,1-.095-.727A2.35,2.35,0,0,0,1469.169,568.874Zm-19.252-26.286c.008.879-.92,1.629-2.774,3.126q-1,4.189-2,8.384l2-8.386C1449,544.213,1449.922,543.467,1449.917,542.587Zm-22.024.677-.1-.109Zm.03,27.408q-1.077-2.286-2.154-4.57a6.158,6.158,0,0,1-.845-.64,7.148,7.148,0,0,1-1.286-1.567,7.148,7.148,0,0,0,1.286,1.567,6.158,6.158,0,0,0,.845.64Q1426.845,568.385,1427.923,570.673Zm-12.935-6.846a3.864,3.864,0,0,1,1.356,1.695,3.864,3.864,0,0,0-1.356-1.695Zm.85-2.862a3.671,3.671,0,0,1,.31-.522A3.671,3.671,0,0,0,1415.837,560.964Zm-5.083,18.636a3.807,3.807,0,0,0,1.249.219A3.807,3.807,0,0,1,1410.754,579.6Zm-1.421-.285a2.383,2.383,0,0,1,.718.083A2.383,2.383,0,0,0,1409.334,579.315Zm-11.52,37.215h0a10.987,10.987,0,0,0-3.5,5.285,10.987,10.987,0,0,1,3.5-5.285q1.137-4.525,2.271-9.047Q1398.949,612,1397.814,616.531Zm-8.51-6.844a2.83,2.83,0,0,0-.643-.624,2.83,2.83,0,0,1,.643.624Zm-15.022,38.969h0l-.01-.027Zm-5.125-.9a10.572,10.572,0,0,1,2.912-3.736h0A10.572,10.572,0,0,0,1369.156,647.76Zm-5.606,44.408h0a7.822,7.822,0,0,1-1.077,4.2A7.822,7.822,0,0,0,1363.55,692.169Zm-6.389,11.688,0-.032Zm-2.226,6.606c-2.558,2.329-3.9,3.829-4.188,5.431.289-1.6,1.631-3.1,4.188-5.434Zm-56.784,43.254c-.247-.376-.491-.554-.785-.509C1297.66,753.163,1297.9,753.339,1298.151,753.717ZM1234.922,836.5c-.706.013-1.411.021-2.116.018.705,0,1.411-.005,2.116-.018,4.065-6.764,8.538-13.261,12.542-20.067C1243.46,823.239,1238.988,829.737,1234.922,836.5Zm-14.97,22.947h0l-2.146,2.276c-.269.237-.551.461-.827.693.277-.232.558-.456.827-.693l2.146-2.276Zm-61.575,72.291a13.775,13.775,0,0,0-.656,2.46A13.775,13.775,0,0,1,1158.377,931.739Zm-11.362,12.6c3.859-2.7,6.845-6.7,10.749-9.343a2.625,2.625,0,0,1-.037-.7,2.625,2.625,0,0,0,.037.7C1153.86,937.639,1150.874,941.642,1147.015,944.343Zm24.729,4.443a13.323,13.323,0,0,0-2.049.162A13.323,13.323,0,0,1,1171.744,948.786Zm5.325-22.911a16.219,16.219,0,0,0,3.9-2.96,16.219,16.219,0,0,1-3.9,2.96Zm-41.867-2.929q1.275-.855,2.51-1.793Q1136.478,922.093,1135.2,922.947Zm-11.7,9.82a6.712,6.712,0,0,0-3.572.954,6.687,6.687,0,0,1,3.572-.954Zm19.3,13.751a5.694,5.694,0,0,0,.783.935,5.694,5.694,0,0,1-.783-.935q-3.223,2.283-6.451,4.568Q1139.572,948.8,1142.8,946.518Zm2.909,2.126a4.432,4.432,0,0,1-2.022-1.066A4.432,4.432,0,0,0,1145.706,948.645Zm5.638.139h0l.018.029Zm40.726-6.862h0c-.922,1.272-1.817,2.572-2.709,3.88C1190.253,944.493,1191.148,943.192,1192.07,941.921Zm-23.552,64.182a7.717,7.717,0,0,0,4.37-1.543,7.717,7.717,0,0,1-4.37,1.543,7.975,7.975,0,0,1-2.889,3.787A7.975,7.975,0,0,0,1168.518,1006.1Zm-27.863,20.616-.01,0,.008,0a6.246,6.246,0,0,0,2.456-.477A6.243,6.243,0,0,1,1140.656,1026.719Zm-36.385,53.908c-4.891,2.9-10,5.367-15.037,7.976a34.861,34.861,0,0,1-10.812,9.047,34.833,34.833,0,0,0,10.812-9.05C1094.271,1085.994,1099.379,1083.523,1104.27,1080.627Zm-100.01,9.887a4.062,4.062,0,0,0,.12-.81A4.062,4.062,0,0,1,1004.26,1090.514ZM937,1122.916c.733-2.025,1.468-4.048,2.214-6.108-.745,2.06-1.481,4.083-2.214,6.108-.713.016-1.428.024-2.141.029C935.572,1122.94,936.288,1122.932,937,1122.916Zm121.262,83.137a33.842,33.842,0,0,1,13.778-2.918l.005,0-.005,0A33.842,33.842,0,0,0,1058.262,1206.053Zm22.4-7.467a11.622,11.622,0,0,0-1.3-.045,11.622,11.622,0,0,1,1.3.045Zm197.016-171.4a7.971,7.971,0,0,0-2-.469h0A7.971,7.971,0,0,1,1277.679,1027.182Zm100.88-53.175,2.144-2.292q-1.073,1.147-2.144,2.292Zm184.3-348.3q-1.047,1.151-2.1,2.3,1.047-1.147,2.1-2.3,1.1-4.577,2.188-9.154Q1563.948,621.134,1562.855,625.711ZM1529.239,592.3a1.362,1.362,0,0,0-.279-.623A1.362,1.362,0,0,1,1529.239,592.3Zm-.688,1.354a1.609,1.609,0,0,0,.676-1.29,1.612,1.612,0,0,1-.673,1.29c-.068.056-.127.093-.192.147C1528.426,593.743,1528.486,593.706,1528.551,593.65Zm-44.988,18.308h0a15.737,15.737,0,0,0-3.665,5.418c-.915,2.009-1.68,4.117-2.77,6.017a7.941,7.941,0,0,0-3.053.773,7.941,7.941,0,0,1,3.053-.773c1.089-1.9,1.855-4.008,2.77-6.017A15.737,15.737,0,0,1,1483.563,611.958Zm-8.518-4.568c-.267.672-.554,1.33-.853,1.983-.6,1.306-1.261,2.588-1.912,3.87.651-1.282,1.309-2.564,1.912-3.87.3-.653.586-1.311.853-1.983a13.578,13.578,0,0,0,1.069-1.095A13.578,13.578,0,0,1,1475.045,607.39Zm-4.281-75.542-.03-.077.03.077Zm-23.664,6.833h0l2.186-2.281h0Q1448.191,537.539,1447.1,538.681Zm-25.659,20.56h0v0Zm-19.88,42.551c-.451,1.823-1.192,3.669-1.641,5.493-1.114-.205-2.408-1.111-3.318-.4.91-.714,2.2.192,3.318.4C1400.369,605.458,1401.11,603.614,1401.561,601.791ZM1372.1,644.035l.03.008a43.767,43.767,0,0,0-.431-4.405,43.767,43.767,0,0,1,.431,4.405Zm-12.885,57.232-.05.01,0,.1,0-.1q-1,1.187-1.994,2.377h0l1.992-2.377.052-.01c-.007-.744.007-1.484.047-2.228C1359.218,699.782,1359.2,700.523,1359.21,701.267Zm-2.062-4.546h0a41.111,41.111,0,0,1-3.006,6.031,41.111,41.111,0,0,0,3.006-6.031c.005-.749-.01-1.5-.04-2.249a4.334,4.334,0,0,1-1.394-1.423,4.334,4.334,0,0,0,1.394,1.423C1357.139,695.22,1357.154,695.971,1357.148,696.72ZM1339.97,655.5a15.424,15.424,0,0,0-2.879,1.506,13.878,13.878,0,0,0-4.283,4.584,13.878,13.878,0,0,1,4.283-4.584,15.424,15.424,0,0,1,2.879-1.506q.008-1.132.012-2.26Q1339.979,654.37,1339.97,655.5Zm-17.108,27.472a12.945,12.945,0,0,0,.608,1.543c.229.509.464,1.015.643,1.535-.18-.52-.414-1.026-.643-1.535a13.39,13.39,0,0,1-.611-1.543Zm-10.8,50.516h0c.04-1.359,0-2.734.073-4.085C1312.068,730.757,1312.105,732.132,1312.065,733.491Zm-17.083,9.13a20.567,20.567,0,0,1-2.353.664,20.567,20.567,0,0,0,2.353-.664Zm-66.529,73.256q-1.039,1.147-2.079,2.3l-.015.011q-1.058.008-2.116.01h0q-2.146,1.148-4.293,2.292,2.146-1.147,4.293-2.292,1.058,0,2.116-.01l.015-.011q1.04-1.151,2.079-2.3c.035-.754.064-1.506.09-2.26l2.1-2.294.02-.021q1.043-1.147,2.084-2.295c.02-.568.04-1.132.06-1.7-.02.568-.04,1.133-.06,1.7q-1.044,1.147-2.084,2.295l-.017.018-2.1,2.3C1228.518,814.371,1228.488,815.122,1228.453,815.876Zm-35.593,57.829c-.745-.9-1.077-.664-.718.541.06.2.122.373.185.525l.012-.008c.032.088.065.173.1.261a2.218,2.218,0,0,1-.112-.253,92.344,92.344,0,0,0-18.582,14.862c5.7-5.932,12.18-11.014,18.335-16.448,1.548-2.025,3.171-3.992,4.622-6.095A29.393,29.393,0,0,0,1192.861,873.705Zm-85.622,65.81c-.1-.016-.2-.053-.3-.077C1107.04,939.462,1107.134,939.5,1107.239,939.515ZM1005.6,1100.022h0l.007.019Zm-2.139-13.692v0c4.719-1.047,8.9-3.347,12.96-5.9C1012.357,1082.98,1008.181,1085.28,1003.46,1086.33Zm-12.86-4.61-2.146-.011,2.146.011Zm-49.3,18.334c-1.418,1.9-2.815,3.822-4.261,5.7,1.446-1.879,2.842-3.8,4.261-5.7Zm-50.674,63.491a6.631,6.631,0,0,0,3.53-3.928q1.058-.008,2.121-.01c-.708,0-1.416.005-2.121.013a6.633,6.633,0,0,1-3.53,3.925,8.222,8.222,0,0,1-2.4.608A8.222,8.222,0,0,0,890.626,1163.545Zm12.741,22.87a32.9,32.9,0,0,1-4.911.7l-.015,0,.015,0A32.9,32.9,0,0,0,903.367,1186.416Zm-15.338,4.8a4.813,4.813,0,0,1-1.271.349A4.813,4.813,0,0,0,888.029,1191.215Zm-3.871.352a9.155,9.155,0,0,0-1.618.221A9.155,9.155,0,0,1,884.157,1191.567Zm-39.24,73.416-.067.05.067-.05Zm1.079-.035-.035,0Zm187.424-48.088c.015-.749.032-1.5.055-2.249h0q-.034,1.123-.052,2.252l-2.127.027Zm122.179-48.2a12.467,12.467,0,0,1,4.816-3.8,12.449,12.449,0,0,0-4.816,3.8c-1.548.307-3.168.418-4.689.8C1152.432,1169.078,1154.052,1168.963,1155.6,1168.657Zm345.153-297.747h0q-1.069,1.147-2.141,2.294Q1499.681,872.057,1500.753,870.909Zm38.587-59.579q1.051-1.163,2.106-2.324-1.054,1.159-2.106,2.324l-.008.013a6.615,6.615,0,0,0,.3,1.956,6.615,6.615,0,0,1-.3-1.956Zm44.978-162.7h0l-4.268-2.286a6.429,6.429,0,0,1,.608-.888,6.429,6.429,0,0,0-.608.888Zm-12.88-64.182a20.04,20.04,0,0,0-2.687,4.776,24.487,24.487,0,0,0-1.593,8.983,18.965,18.965,0,0,0-1.828,3.96,18.965,18.965,0,0,1,1.828-3.96,24.487,24.487,0,0,1,1.593-8.983,20.04,20.04,0,0,1,2.687-4.776c-.294-2.42.349-5.036,0-7.443C1571.787,579.414,1571.144,582.031,1571.438,584.45Zm-46.06-10.01a3.941,3.941,0,0,1-1.055.872q-.018,3.426-.032,6.846a7.331,7.331,0,0,0-2.306,3.819,7.331,7.331,0,0,1,2.306-3.819q.015-3.421.032-6.846A3.941,3.941,0,0,0,1525.378,574.441ZM1520,593.634l-2.066,2.342,2.066-2.342c.007-.2.018-.4.027-.6C1520.016,593.234,1520.005,593.434,1520,593.634Zm-25.723-32.1q-1.025,1.172-2.046,2.345-.053,1.115-.09,2.236-.617.712-1.239,1.423l1.239-1.423q.037-1.119.09-2.236,1.024-1.175,2.046-2.345v0Zm-21.095-23.995a4.518,4.518,0,0,1,1.79-3.552c0-.565.02-1.13.025-1.695,0,.565-.027,1.132-.025,1.695A4.518,4.518,0,0,0,1473.18,537.535ZM1460.1,522.657c-.008.725-.077,1.458-.015,2.177-.062-.719.007-1.453.015-2.177a4.359,4.359,0,0,0,1.962-3.251A4.359,4.359,0,0,1,1460.1,522.657Zm-33.117,15.187c-.082-.085-.135-.186-.209-.277C1426.843,537.658,1426.9,537.759,1426.978,537.844Zm-61.266,108.48h0a1.921,1.921,0,0,1,.486-.938A1.921,1.921,0,0,0,1365.711,646.324Zm-.018.027v0c-1.184.832-2.351,1.687-3.552,2.489C1363.343,648.04,1364.51,647.185,1365.694,646.351Zm-8.64,38.881a66.337,66.337,0,0,0-.11-6.782,66.36,66.36,0,0,1,.11,6.782l.164.16c.676-.058,1.354-.1,2.032-.125l.289-.333-.289.336q-1.017.036-2.032.122h0l-.164-.16q-.9.995-1.8,1.993Q1356.154,686.226,1357.054,685.232Zm-35.149-4.482a6.164,6.164,0,0,1,.952-.043h0a6.164,6.164,0,0,0-.952.043,6.769,6.769,0,0,0-2.525.887A6.769,6.769,0,0,1,1321.905,680.75Zm-93.387,126,4.29-2.3h0l-4.288,2.3ZM1115.64,898.592c.01-.1.037-.179.052-.272a3.986,3.986,0,0,0,3.513-2.22,8.811,8.811,0,0,0-1.179.1,8.333,8.333,0,0,1,1.179-.1,4.734,4.734,0,0,1-3.565,2.492c-.06.032-.112.064-.169.1-12.28-1.647-17.141,8.458-24.367,14.193C1098.507,907.005,1103.405,896.511,1115.64,898.592Zm1.575-2.167a3.766,3.766,0,0,1,.563-.168A4.533,4.533,0,0,0,1117.215,896.426Zm-18.4,13.242c-1.548,1.3-3.059,2.652-4.517,4.083C1095.752,912.322,1097.258,910.966,1098.813,909.668Zm3.692-2.873c-.94.7-1.885,1.4-2.794,2.142C1100.621,908.2,1101.555,907.491,1102.505,906.8Zm-64.751,190.956q6.267-2.89,12.524-5.793-6.263,2.894-12.524,5.793l-8.588,2.271Zm-171.442,91.684h0l-.045-.061h0Zm6.466,37.487a58.931,58.931,0,0,0-8.658,5.985q-4.278,1.155-8.557,2.313,4.281-1.155,8.557-2.313A58.931,58.931,0,0,1,872.778,1226.922Zm-42.361,72.368a6.219,6.219,0,0,0,3.722-2.177l12.86-.008-12.86.008a6.219,6.219,0,0,1-3.722,2.177,9.96,9.96,0,0,1-1.625.16A9.96,9.96,0,0,0,830.417,1299.291ZM1365.7,1026.708l2.144-2.292-2.144,2.292q-1.073,1.147-2.144,2.292Q1364.625,1027.852,1365.7,1026.708Zm111.452-137.493a4.911,4.911,0,0,1-1.6-1.9,4.911,4.911,0,0,0,1.6,1.9,33.4,33.4,0,0,1,2.977-4.058,15.159,15.159,0,0,1,2.368-2.193,15.159,15.159,0,0,0-2.368,2.193A33.4,33.4,0,0,0,1477.151,889.215Zm30.024-29.775,2.126-2.294,0,0,0,0-2.126,2.294-.01.008Zm4.27-4.589q1.069-1.151,2.136-2.3h0q-1.066,1.151-2.136,2.3l-.018-.005ZM1582.4,684.934a17.49,17.49,0,0,1-2.585,3.328A17.49,17.49,0,0,0,1582.4,684.934Zm4.085-11.083a5.864,5.864,0,0,1-1.1,3.709,4.042,4.042,0,0,1-1.042.877,14.751,14.751,0,0,1-1,4.565,14.751,14.751,0,0,0,1-4.565,4.042,4.042,0,0,0,1.042-.877,5.864,5.864,0,0,0,1.1-3.709,13.564,13.564,0,0,1,1.947-.93A13.564,13.564,0,0,0,1586.49,673.85Zm21.416,6.859q2.139,0,4.275-.005a13.028,13.028,0,0,1,1.733-2.808,13.134,13.134,0,0,0-1.733,2.808Q1610.046,680.708,1607.906,680.709Zm-4.592-9.567a6.521,6.521,0,0,1-1.832-1.879v0q1.066-4.608,2.134-9.218a23.92,23.92,0,0,1-1.6-1.863,23.92,23.92,0,0,0,1.6,1.863q-1.069,4.609-2.134,9.218A6.5,6.5,0,0,0,1603.314,671.143Zm-15.129-81.954a22.349,22.349,0,0,0,.364-3.067A22.349,22.349,0,0,1,1588.185,589.189Zm-7.651-13.7a4.081,4.081,0,0,0,1.115.266A4.081,4.081,0,0,1,1580.534,575.491ZM1575.746,573h0a4.917,4.917,0,0,1,1.087.389A5.044,5.044,0,0,0,1575.746,573Zm-2.149-9.165q-1.062,1.151-2.126,2.3l0,.005v-.005l2.129-2.3v0Zm-72.858-16.021q-2.184,5.68-4.37,11.358c-.464.522-.927,1.042-1.393,1.564l1.393-1.564Q1498.552,553.5,1500.739,547.819Zm-17.151-.069c-.142.109-.269.226-.424.331l-.008.005v0c.536-4.685.232-8.416-5.417-8.637C1483.361,539.667,1483.69,543.366,1483.588,547.749Zm-6.536-60.443a4.149,4.149,0,0,1-2.007,3.227q-.183,1.1-.257,2.2.074-1.108.257-2.2A4.149,4.149,0,0,0,1477.052,487.307Zm-1.209,8.576c-.99-.248-1.977-.511-2.966-.757-.013.115-.01.229-.02.344.01-.115.007-.229.02-.344C1473.866,495.368,1474.853,495.635,1475.843,495.882Zm-5.277,5.173a4.413,4.413,0,0,1-1.944,3.294q-3.235,6.843-6.474,13.687-1.092,1.127-2.186,2.252h0q1.092-1.124,2.186-2.252,3.238-6.843,6.474-13.69A4.4,4.4,0,0,0,1470.565,501.055Zm-12.743,16.917a22.837,22.837,0,0,1,1.451-5.6,22.723,22.723,0,0,0-1.448,5.6,4.07,4.07,0,0,0-1.511,1.855A4.067,4.067,0,0,1,1457.822,517.972Zm-1.687,2.247c.01-.027.01-.061.02-.088C1456.144,520.157,1456.144,520.192,1456.135,520.218Zm-13.29-22.817-.055.059.055-.059.142-.413Zm-4.3,6.881a4.089,4.089,0,0,0-2.012,3.19,4.089,4.089,0,0,1,2.012-3.19q.059-1.112.075-2.228Q1438.61,503.169,1438.55,504.282Zm-21.815,1.551a3.768,3.768,0,0,1,1.446-1.261A3.768,3.768,0,0,0,1416.735,505.833Zm-25.345,37.415q1.066-1.171,2.126-2.34a11.742,11.742,0,0,1,.15-1.354,11.742,11.742,0,0,0-.15,1.354q.071,1.191.145,2.38-.075-1.187-.145-2.38-1.062,1.171-2.124,2.34,0,2.246-.01,4.49,0-2.246.008-4.49Zm-1.055,12.818a3.935,3.935,0,0,1-.623-1.085A3.935,3.935,0,0,0,1390.335,556.067Zm-1.064-8.261-.065-.069h0Zm-30.014,84.784a12.982,12.982,0,0,0-4.161,3.472,12.982,12.982,0,0,1,4.161-3.472,29.725,29.725,0,0,0,3.655-6.111A29.725,29.725,0,0,1,1359.258,632.589Zm-61.8,55.686a4.513,4.513,0,0,0-2.433-.578c-2.318,2.788-4.559,5.655-6.977,8.341,2.418-2.686,4.659-5.554,6.977-8.344A4.538,4.538,0,0,1,1297.453,688.275ZM1093.476,932.754q1.047-1.1,2.092-2.209l-2.092,2.209Zm-65.659,146.141a3.944,3.944,0,0,1,1.565,1.543A3.944,3.944,0,0,0,1027.817,1078.895Zm-80.088,2.817c.643,2.135,1.289,4.269,1.922,6.366-.633-2.1-1.279-4.232-1.922-6.366Zm-23.577,9.138a6.745,6.745,0,0,0-3.921,1.162,6.745,6.745,0,0,1,3.921-1.162,17.794,17.794,0,0,0,.464-3.289A17.794,17.794,0,0,1,924.152,1090.85Zm-52.84,23.894a4.938,4.938,0,0,0,1.294.93A4.938,4.938,0,0,1,871.312,1114.743Zm-12.741,29.53a13.707,13.707,0,0,1,2.034-1.175A13.707,13.707,0,0,0,858.571,1144.273Zm-.88,47.4h0l1.227-.33Zm-34.748,107.748a7.386,7.386,0,0,0-1.618.413A7.386,7.386,0,0,1,822.943,1299.424Zm304.84-87.1a6.241,6.241,0,0,0,2.463-.472,6.241,6.241,0,0,1-2.463.472Zm21.438-11.457-.72.754.72-.754Zm0,0a8.728,8.728,0,0,0,1.286-.117,9.106,9.106,0,0,1-1.286.12Zm4.285-2.292a6.3,6.3,0,0,0,2.458-.474,6.3,6.3,0,0,1-2.458.474Zm-7.5,4.57c-.354.005-.706.013-1.06.016q-1.084,1.136-2.166,2.265,1.084-1.131,2.166-2.265C1145.3,1203.154,1145.649,1203.146,1146,1203.141Zm63.219-48.123.02.027h0Zm4.278-2.308h0l.022.029Zm90.014-66.436a3.744,3.744,0,0,0,1.73-1.953,3.744,3.744,0,0,1-1.73,1.953Zm1.177-5.935a2.722,2.722,0,0,1,1,1.335c.907.531,1.889.951,2.779,1.5-.89-.552-1.872-.972-2.779-1.5A2.722,2.722,0,0,0,1304.689,1080.339Zm160.3-154.6a1.68,1.68,0,0,1,.015-.735A1.758,1.758,0,0,0,1464.994,925.742Zm.032-.8a3.051,3.051,0,0,1,.2-.554A3.615,3.615,0,0,0,1465.026,924.946Zm5.188-3.667c.048.005.093.093.1.194C1470.311,921.4,1470.249,921.343,1470.213,921.279Zm36.964-43.489h0a85.732,85.732,0,0,1-6.224,11.118A85.732,85.732,0,0,0,1507.177,877.79Zm2.132-4.6.03,2.3a6.989,6.989,0,0,1,3.328.741,7,7,0,0,0-3.328-.741Zm61.635-165.009c.177.013.362.013.534.035.5-.162,1.007-.36,1.488-.5-.481.138-.987.336-1.488.5C1571.306,708.19,1571.121,708.19,1570.944,708.177Zm3.916-.423a1.681,1.681,0,0,0-1.194-.2A1.681,1.681,0,0,1,1574.86,707.753Zm13.776-13.277,2.116-2.31-2.116,2.31c-.013.746-.03,1.495-.055,2.241C1588.606,695.971,1588.623,695.223,1588.636,694.477Zm22.615-118.119a3.559,3.559,0,0,0,.561.037A3.559,3.559,0,0,1,1611.251,576.357Zm-2.064-.935a7.049,7.049,0,0,0,1,.6A7.049,7.049,0,0,1,1609.187,575.422Zm-20.546,4.49c-.047,1.551-.012,3.11-.04,4.661.027-1.551-.008-3.11.04-4.661.351-.008.7-.013,1.054-.019C1589.344,579.9,1588.992,579.9,1588.641,579.912Zm-10.764-11.486q-1.058,0-2.117.019-.007,1.519-.01,3.038,0-1.519.01-3.04,1.059-.013,2.117-.016h0c.646-.168,1.274-.554,1.917-.768C1579.151,567.872,1578.523,568.258,1577.877,568.426Zm-19.32-73.309c-.354.405-.84.762-1.147,1.186.307-.424.793-.781,1.147-1.186.319-1.036.571-2.113.865-3.166C1559.128,493,1558.879,494.081,1558.557,495.117ZM1535.18,516.7c.03-.149.077-.293.117-.44C1535.257,516.4,1535.209,516.546,1535.18,516.7Zm-21.615,17.354h0a22.436,22.436,0,0,0,7.588-7.331A22.436,22.436,0,0,1,1513.564,534.049Zm-4.255-11.5-.05.056q-1.04,1.111-2.079,2.225-1.088,2.306-2.181,4.613-1.024,1.175-2.049,2.353l2.049-2.353q1.092-2.306,2.181-4.613,1.04-1.111,2.077-2.225l.052-.056q1.043-1.116,2.091-2.233h0Q1510.357,521.432,1509.309,522.55Zm-21.4-4.56c-.16-2.111-.219-2.9-.713-2.929.494.029.553.818.713,2.926q1.055,1.163,2.111,2.326Q1488.963,519.151,1487.906,517.99Zm-6.461-4.538c0,.762-.005,1.521-.01,2.284a36.783,36.783,0,0,0-2.922,3.688,36.783,36.783,0,0,1,2.922-3.688c0-.762.007-1.522.01-2.286a25.341,25.341,0,0,0,5.534-9.908A25.372,25.372,0,0,1,1481.444,513.452Zm-2.1-32.112a7.683,7.683,0,0,1-.469,2.644,7.683,7.683,0,0,0,.469-2.644,3.673,3.673,0,0,0,1.438-1.535A3.673,3.673,0,0,1,1479.34,481.34Zm-13.048,15.944h0c.3-4.277,2.388-7.427,4.7-10.438C1468.68,489.857,1466.589,493.007,1466.292,497.284Zm.06-.008h0l-1.877,2.427-.848,1.338.845-1.338Zm-11.33,17.772a26.751,26.751,0,0,1-1.47,2.955q0,2.282-.008,4.57l.342.357h0l-.342-.357-1.628,1.844,1.628-1.844q0-2.286.008-4.57h0a26.751,26.751,0,0,0,1.47-2.955c.444-1.013.863-2.044,1.324-3.049C1455.885,513,1455.466,514.036,1455.022,515.048Zm-5.753-22.276-4.133-2.06h0l-.229-.285c-.965.24-2.176.981-3.021.733.845.245,2.057-.493,3.019-.733a6.3,6.3,0,0,1,.945-3.211,6.277,6.277,0,0,0-.942,3.211l.229.285q2.064,1.027,4.133,2.057a8.468,8.468,0,0,1,2.892-3.744A8.461,8.461,0,0,0,1449.269,492.772Zm-29.455,2.806a2.648,2.648,0,0,1-.641-.565h0A2.648,2.648,0,0,0,1419.813,495.579ZM1397.8,536.32c-.7.029-1.391.037-2.086.029q.063-3.39.125-6.777h0q-.063,3.39-.127,6.777c.7.008,1.391,0,2.086-.029l6.484-16.006Zm4.37-32.022q-.037,2.267-.075,4.531-1,.032-2,.061,1-.028,2-.061.038-2.267.075-4.531a18.394,18.394,0,0,0-2.443-2.089,18.394,18.394,0,0,1,2.443,2.089Zm-8.588-27.515-.008.011.005-.011,2.1-2.316Q1394.626,475.622,1393.579,476.783Zm-12.893,103.089h0a17.963,17.963,0,0,1-1.867,6.3A17.963,17.963,0,0,0,1380.686,579.872Zm-80.892,75.342c-.172.088-.374.186-.524.269h0C1299.419,655.4,1299.624,655.3,1299.794,655.214Zm-49.844,98.815a8.588,8.588,0,0,0-3.453,3.156,8.588,8.588,0,0,1,3.453-3.156q3.212-4.585,6.429-9.172Q1253.162,749.442,1249.949,754.029Zm-160.739,277.254h0a16.462,16.462,0,0,0-2.47.453A16.462,16.462,0,0,1,1089.211,1031.283Zm-6.808,2.654a10.287,10.287,0,0,1,2.052-1.348A10.287,10.287,0,0,0,1082.4,1033.938Zm-48.914,50.076h0c-1.873.176-2.7-1.167-3.5-2.553C1030.791,1082.847,1031.616,1084.19,1033.489,1084.014Zm-120.516,12.749a10.794,10.794,0,0,0-3.846,3.222,22.122,22.122,0,0,0-3.513.2,4.291,4.291,0,0,0-1.581.653,4.291,4.291,0,0,1,1.581-.653,22.122,22.122,0,0,1,3.513-.2A10.794,10.794,0,0,1,912.972,1096.763ZM870.6,1113.8l-1.074-.019,1.074.019Zm-21.456,2.252-2.167.035,2.167-.035c1.727,0,3.455-.024,5.185-.032C852.6,1116.028,850.873,1116.052,849.146,1116.052Zm6.429,32.078a7.793,7.793,0,0,1,2.079-3.118,7.812,7.812,0,0,0-2.079,3.118c-1.366.416-2.767.751-4.146,1.135C852.807,1148.881,854.208,1148.545,855.575,1148.129Zm-6.412,15.992c-.247-.168-.488-.352-.738-.522.249.171.491.354.738.52l.057.027c1.623,2.321,3.448,3.395,5.594,2.774-2.146.621-3.971-.45-5.6-2.771ZM816.4,1281.14a2.114,2.114,0,0,0,.169,1.287A2.114,2.114,0,0,1,816.4,1281.14Zm-22.972,6.788a15.535,15.535,0,0,0-1.568-.1,15.535,15.535,0,0,1,1.568.1Zm94.352,13.812c1.054-.072,2.134-.04,3.2-.07-1.067.029-2.146,0-3.2.07-1.042,1.759-2.959,2.558-4.482,3.789C884.815,1304.3,886.732,1303.5,887.777,1301.74Zm143.568-25.263c.356,0,.71-.008,1.067-.013-.356.005-.71.011-1.067.013a6.6,6.6,0,0,1-1.561,1.49A6.6,6.6,0,0,0,1031.345,1276.476Zm139.3-87.089q1.084-1.127,2.174-2.254a28,28,0,0,0,4.6-1.42,41.4,41.4,0,0,0,4.328-2.054c1.408-.76,2.792-1.583,4.166-2.425-1.374.842-2.757,1.666-4.166,2.425a41.4,41.4,0,0,1-4.328,2.054,28,28,0,0,1-4.6,1.42q-1.088,1.127-2.174,2.254c-.706.019-1.409.032-2.114.035C1169.236,1189.419,1169.939,1189.406,1170.645,1189.387Zm92.165-64.15c.556-.01,1.117-.008,1.673-.005-.556,0-1.117-.005-1.673.005Zm21.329-32.187c-.431.035-.862.083-1.291.128.429-.045.857-.1,1.289-.131a15.423,15.423,0,0,1,5.87-6.4A15.411,15.411,0,0,0,1284.138,1093.051ZM1415,1024.424l0,0,0,0-2.141,2.289Zm2.152-2.289c-.4-.349-.783-.76-1.174-1.133.391.373.77.783,1.174,1.133Zm53.576-96.249c-.209,3.981-2.062,6.516-5.856,6.766,3.243-.213,5.053-2.121,5.324-6.8.147-.056.307-.091.449-.157.224-.109.16-.93.025-1.887a4.766,4.766,0,0,0,4.343,2.079Zm147.73-239.138a5.167,5.167,0,0,1-1.957,3.131l-.038,2.292q.019-1.148.038-2.292a5.167,5.167,0,0,0,1.957-3.131,10.782,10.782,0,0,0,.177-2.382A10.782,10.782,0,0,1,1618.458,686.748Zm4.412-38.15h0l1.072.024Zm-8.516-42.734c.005-.253.012-.506.015-.762a12.638,12.638,0,0,0,1.894-2.79,12.638,12.638,0,0,1-1.894,2.79C1614.367,605.357,1614.36,605.61,1614.354,605.863Zm-8.583-42.007h0a22.521,22.521,0,0,0,1.738-4.405A22.521,22.521,0,0,1,1605.772,563.856Zm-12.87-16.03h.012c-1.76-3.574-2.912-7.017,1.648-9.652-4.552,2.63-3.413,6.068-1.646,9.652h0q0,5.708.015,11.446Q1592.914,553.552,1592.9,547.827ZM1567.193,527.2a3.911,3.911,0,0,1-1.072-.869,3.859,3.859,0,0,0,1.072.866Zm-19.295,4.56c.032,1.693.045,3.387.072,5.079-.027-1.693-.04-3.387-.072-5.079.88-2.47,1.728-4.957,2.58-7.44C1549.625,526.8,1548.778,529.29,1547.9,531.76Zm-4.285-36.642-.01-.01.01.01Zm-4.385,11.614a20.3,20.3,0,0,1-.307,2.129,20.3,20.3,0,0,0,.307-2.129c.2-2.316.072-4.685.077-7.033v0C1539.3,502.046,1539.425,504.415,1539.228,506.731Zm-25.641,12.424q1.069-.571,2.139-1.138c-.012-.181-.022-.365-.035-.549.012.184.022.368.035.549Zm-12.871-8a6.973,6.973,0,0,0-2.2,5.482c-.018.989.062,2,.109,3-.047-1.005-.127-2.015-.109-3a6.973,6.973,0,0,1,2.2-5.482,15.339,15.339,0,0,0-.3-4.506A15.264,15.264,0,0,1,1500.716,511.155Zm-12.858-11.43h0a12.317,12.317,0,0,1,2.6-7.2A12.317,12.317,0,0,0,1487.858,499.725Zm-6.419-22.953c-.715,0-1.431.008-2.144.011.713,0,1.428-.008,2.144-.011Zm-27.952,9.117h0c1.648-3.155,3.191-6.388,4.886-9.511C1456.677,479.5,1455.137,482.734,1453.487,485.889Zm1.05-23.062c1.184-2.947,2.261-5.953,3.35-8.952h0C1456.8,456.873,1455.72,459.88,1454.536,462.827ZM1432.3,466.67a4.937,4.937,0,0,0,2.012,3.216h0A4.937,4.937,0,0,1,1432.3,466.67Zm-25.921,49.039a3.845,3.845,0,0,0-1.687,1.97,3.859,3.859,0,0,1,1.688-1.972l.008-.011Zm-2.161-50.436v0c-2.849,3.049-4.375,7.515-8.541,9.165v0C1399.843,472.791,1401.369,468.325,1404.218,465.273Zm-21.072,42.337c-.237-4.181-.282-8.379-.4-12.57v0C1382.865,499.229,1382.91,503.427,1383.146,507.611Zm6.058,8.043c.241-2.153.259-4.386.6-6.505-.344,2.119-.362,4.352-.6,6.505h0a42.476,42.476,0,0,1-5.288-.248A42.476,42.476,0,0,0,1389.2,515.653Zm-2.082,11.523a50.578,50.578,0,0,0-1.72,6.3,50.578,50.578,0,0,1,1.72-6.3c-.84-.181-1.675-.394-2.51-.589C1385.447,526.782,1386.282,527,1387.122,527.176Zm-2.371,15.758a29.032,29.032,0,0,0,2.351,9.458,23.593,23.593,0,0,1-1.8,6.289,23.593,23.593,0,0,0,1.8-6.289A29.032,29.032,0,0,1,1384.751,542.934Zm-6.2,20.912a23.029,23.029,0,0,0-2.136,1.343,11.145,11.145,0,0,0-2.647,2.558,11.145,11.145,0,0,1,2.647-2.558,23.029,23.029,0,0,1,2.136-1.343c.317-1.045.6-2.1.907-3.15C1379.153,561.745,1378.866,562.8,1378.55,563.846Zm-38.587,29.786a12.13,12.13,0,0,0-3.448,2.583,12.153,12.153,0,0,1,3.445-2.583q1.843-2.61,3.682-5.218Q1341.8,591.023,1339.963,593.631Zm-21.438,22.9c-1.281,1.554-2.5,3.184-3.762,4.762,1.261-1.578,2.48-3.208,3.762-4.762Zm-15.042,13.727h0q.034,1.183.067,2.366h0Q1303.517,631.441,1303.483,630.258Zm-12.793,16.1c-1-.237-2.009-.642-3.007-.8,1,.16,2.007.568,3.007.8Zm-.012,4.56q0-.759,0-1.519,0,.759,0,1.522l-2.139,0Q1289.608,650.924,1290.677,650.919Zm-15.226,38.809a4.646,4.646,0,0,0,1.526,1.623,4.646,4.646,0,0,1-1.526-1.623c-4.42,2.465-4.634,8.1-8.957,11.043,4.323-2.939,4.537-8.578,8.954-11.043q1.226-3.33,2.455-6.66Q1276.677,686.4,1275.451,689.728Zm2.4-18.177c-.294,2.881-1.847,5.77-1.309,8.645-.538-2.875,1.015-5.764,1.306-8.645q1.01-1.148,2.017-2.3Zm-4.083-1.444a9.092,9.092,0,0,1,2.65-2.182A9.092,9.092,0,0,0,1273.768,670.106Zm-64.557,90.785a6.144,6.144,0,0,1,.04-1.412,6.144,6.144,0,0,0-.04,1.412,17.677,17.677,0,0,0-5.584,5.237A17.65,17.65,0,0,1,1209.211,760.891ZM1155.638,815.9l0-.005,0,.005-2.142,2.286Zm-182.177,245.19h0l-.01-.011Zm-19.18-1.173a19.18,19.18,0,0,1-2,.751,19.18,19.18,0,0,0,2-.751,9.055,9.055,0,0,0,4.158-3.478h0A9.055,9.055,0,0,1,954.281,1059.918Zm-60.127,40.131a11.832,11.832,0,0,0-4.742.48,11.8,11.8,0,0,1,4.744-.48Zm-66.38,20.525c-.872.064-1.747.125-2.622.189l2.622-.189Zm8.536,9.125-2.124-2.19,2.124,2.19.008.075c.174,0,.346,0,.521,0-.175,0-.347,0-.521,0Zm4.25,2.444c.209,1.548.528,2.942,1.488,3.52a2.286,2.286,0,0,0,1.491.256,2.286,2.286,0,0,1-1.491-.256c-.96-.578-1.279-1.972-1.488-3.52q-.726-.792-1.446-1.586Q839.836,1131.352,840.56,1132.142Zm-4.415,89.471c.05.7.074,1.4.067,2.1h0a5.021,5.021,0,0,0-3.468,1.183,5.021,5.021,0,0,1,3.468-1.183c.007-.7-.018-1.4-.07-2.095l.07-.091c-.548.011-1.1.019-1.648.03.549-.011,1.1-.021,1.648-.03Zm-13.88-2.54a15.9,15.9,0,0,1-1.909-1.135A15.9,15.9,0,0,0,822.265,1219.074Zm-4.353,39.177a11.538,11.538,0,0,1-3.046,1.183,3.5,3.5,0,0,1-3.328-.957,3.5,3.5,0,0,0,3.328.957A11.538,11.538,0,0,0,817.912,1258.251Zm-6.691-.144a7.142,7.142,0,0,1-.653-.768A7.142,7.142,0,0,0,811.222,1258.107Zm70.031,50.409c4.205-.141,8.426.088,12.639.1-4.213-.013-8.434-.242-12.641-.1Zm98.612-2.278h0c-.347.01-.693.016-1.042.024C979.172,1306.254,979.518,1306.249,979.865,1306.238Zm286.287-181c.556,0,1.109-.011,1.66-.037C1267.262,1125.229,1266.708,1125.237,1266.152,1125.24Zm129.565-80.19h0a134.916,134.916,0,0,0-10.537,9.727A134.916,134.916,0,0,1,1395.718,1045.051Zm85.734-80.2h0c-1.678,1.378-3.365,2.742-5.028,4.141C1478.086,967.59,1479.773,966.225,1481.451,964.847ZM1625.069,582.2a22.475,22.475,0,0,1-2.308.674,22.475,22.475,0,0,0,2.308-.674Zm-10.727,2.265q0-4.573,0-9.149h0a5.936,5.936,0,0,0,.947-1.007,5.763,5.763,0,0,0,1.027-2.441,5.763,5.763,0,0,1-1.027,2.441,5.936,5.936,0,0,1-.947,1.007q0,4.574,0,9.149Zm-19.334-64.134h0l.077-.04Zm-4.26-6.889c-.743.4-1.1.791-1.087,1.17-.015-.379.344-.77,1.087-1.17l.282-.274Zm0,5.293a6.026,6.026,0,0,0-1.064.1A6.026,6.026,0,0,1,1590.747,518.734Zm-53.317-56.083a5.281,5.281,0,0,0,5.055,2.713A5.281,5.281,0,0,1,1537.431,462.651Zm-3.463,16.824a8.009,8.009,0,0,1,1.087,4.194,5.577,5.577,0,0,1,1.76,2.2,5.577,5.577,0,0,0-1.76-2.2A8.032,8.032,0,0,0,1533.968,479.475ZM1425.736,472.2l-.082-.072c-.686.04-1.369.072-2.054.1q1.029-.04,2.052-.1.037-2.83.073-5.66-.034,2.83-.07,5.66Zm-39.264-3.374a21.625,21.625,0,0,0-1.486,5.655c-.713,0-1.426.005-2.139.005h0c.713,0,1.426,0,2.139-.005a21.625,21.625,0,0,1,1.486-5.655c.476-1.191,1.027-2.348,1.605-3.491C1387.5,466.481,1386.948,467.637,1386.472,468.828Zm-3.66,5.644h0c-.229.277-.543.541-.808.813C1382.269,475.014,1382.583,474.749,1382.812,474.472Zm-44.931,96.246a7.664,7.664,0,0,0-1.234.7,7.664,7.664,0,0,1,1.234-.7Zm-30.119,52.707h0c2.772-4.821,5.439-9.714,8.366-14.425C1313.2,613.711,1310.532,618.6,1307.763,623.425Zm-6.668-2.212a4.007,4.007,0,0,0-1.66-2.2h0A4.007,4.007,0,0,1,1301.094,621.213Zm2.381,9.036v0a21.047,21.047,0,0,0-6.639,7.014A21.079,21.079,0,0,1,1303.475,630.249Zm-23.555,36.723h0c.012-.767.028-1.538.04-2.305h0C1279.948,665.434,1279.933,666.2,1279.92,666.972Zm-27.753,40.189c-.745-.456-1.463-1.634-2.238-3.56v0C1250.7,705.528,1251.422,706.706,1252.167,707.162Zm-16.587,20.317a3.44,3.44,0,0,1-.65-.959h0A3.492,3.492,0,0,0,1235.58,727.479ZM1221.02,720.9a7.375,7.375,0,0,0-1.072.165A7.375,7.375,0,0,1,1221.02,720.9Zm-7.491,30.862-.122-.139h0l.122.139ZM1027.019,891.5h0a27.66,27.66,0,0,0,8.08-2.766A27.66,27.66,0,0,1,1027.019,891.5Zm.314-6.577-.052-.048.052.048Zm-.374-.352.281.264Zm.057,6.921a6.357,6.357,0,0,0-3.059.754,6.357,6.357,0,0,1,3.059-.754Zm33.95,81.927a3.95,3.95,0,0,1-.942-.693A3.95,3.95,0,0,0,1060.967,973.418Zm-1.815,39.531a10.682,10.682,0,0,0,3.874,3.121,4.488,4.488,0,0,0,1.1.261,4.609,4.609,0,0,1-1.1-.261,10.662,10.662,0,0,1-3.874-3.121,6.87,6.87,0,0,0-1.409-.1A6.87,6.87,0,0,1,1059.152,1012.949Zm-46.128,13.7c.25-.085.486-.211.728-.317A3.789,3.789,0,0,1,1013.024,1026.644Zm-43.35,18.452c-.867-.056-1.77,0-2.642-.035a33.555,33.555,0,0,1-8.292,3.537,33.555,33.555,0,0,0,8.292-3.537C967.9,1045.1,968.807,1045.04,969.674,1045.1ZM827.66,1118.9l-.035-.474c-.671-.157-1.511-.091-1.987-.5.476.413,1.316.346,1.987.5C827.637,1118.578,827.647,1118.738,827.66,1118.9Zm-24.415,44.272c-.055-.053-.112-.085-.167-.133C803.133,1163.082,803.19,1163.114,803.245,1163.167Zm-.765-.611a4.507,4.507,0,0,0-2.475-.677A4.5,4.5,0,0,1,802.479,1162.557Zm25.21,45.112a8.487,8.487,0,0,1,8.289-2.612,8.483,8.483,0,0,0-8.289,2.614c-3.358.115-6.83-.208-9.931.85C820.859,1207.463,824.332,1207.783,827.69,1207.668Zm-19.145,46.023h0l-.3-.317ZM795.569,1271.9c-.668.168-1.364.274-2.041.416.678-.141,1.373-.248,2.041-.416Zm-11.838,27.467c-.885,0-1.77.01-2.655.016C781.961,1299.381,782.846,1299.373,783.731,1299.371Zm-5.31.013h0l-4.345.109c2.253,2.343,4.869,2.375,7.511,2.215a23.126,23.126,0,0,1,4.719-.04,23.126,23.126,0,0,0-4.719.04c-2.642.16-5.258.128-7.511-2.215-1.778-.24-4.243.528-5.733-.072,1.491.6,3.956-.168,5.733.072Zm-21.346-9.109,0,0-3.891-.056Q755.131,1290.25,757.075,1290.275Zm2.974,3.742a5.323,5.323,0,0,1-1.244-.936A5.323,5.323,0,0,0,760.049,1294.017Zm182.516,12.069a4.646,4.646,0,0,0,3.066-2.094q1.055.02,2.109-.005c0-.767,0-1.535,0-2.3.474,0,.945-.008,1.419-.013-.474.005-.945.011-1.419.013,0,.768,0,1.535,0,2.3h0q-1.055.024-2.109.005A4.646,4.646,0,0,1,942.565,1306.086Zm100.761-16.872c.05.046.1.078.152.128C1043.427,1289.292,1043.375,1289.26,1043.325,1289.214Zm519.585-427.48c-.018.189-.008.392-.013.586.005-.195-.005-.4.013-.586,2.066-2.579,4.165-5.127,6.187-7.744C1567.075,856.607,1564.976,859.155,1562.91,861.734Zm17.068-22.953q-1.036.032-2.076.04,1.039-.008,2.076-.04a11.183,11.183,0,0,1,1.633-2.766A11.183,11.183,0,0,0,1579.978,838.781Zm28.585-59.7a6.318,6.318,0,0,0,.337,1.505A6.318,6.318,0,0,1,1608.564,779.082Zm25-70.783h0a4.437,4.437,0,0,0,2.122-3.339A4.437,4.437,0,0,1,1633.562,708.3Zm2.269-4.76q-.048-3.349-.094-6.7h0c-1.1-2.475-1.842-5.109-4.243-5.98,2.4.871,3.138,3.5,4.246,5.98q.049,3.35.094,6.7a4.821,4.821,0,0,1,1.77,2.732A4.821,4.821,0,0,0,1635.83,703.54Zm1.932,3.526a13.8,13.8,0,0,1,.129,1.66A13.8,13.8,0,0,0,1637.762,707.066Zm.03-136.182c-.2.887-.444,1.047-.653.373A3,3,0,0,1,1637.792,570.883Zm-34.955-12.344a8.377,8.377,0,0,1-3.51,3.019h0A8.377,8.377,0,0,0,1602.838,558.54Zm-3.193-33.842a9.33,9.33,0,0,1-3.069-2.867A9.356,9.356,0,0,0,1599.645,524.7Zm1.022.3a3.779,3.779,0,0,1-.686-.2A3.779,3.779,0,0,0,1600.667,525Zm-5.607-9.266-.017-.016q-1.043-2.223-2.084-4.44h0q1.039,2.218,2.084,4.44l.017.016Zm-14.149-38.844c-1.932,5.109-3.6,10.334-5.377,15.51l-4.041-2.182v0c-1.384-3-2.6-6.111-4.2-8.975-1.279-2.294-.957-4.018.344-6.132.913-1.479,1.149-3.432,1.69-5.172a5.43,5.43,0,0,0,2.3-4.432l6.264-.179C1582.005,468.253,1582.72,472.1,1580.911,476.887Zm6.113-3.741c.693-.848.289-2.993,1.73-3.264.673-.237,1.361-.69,2.034-.922-.671.232-1.361.685-2.034.922C1587.312,470.153,1587.716,472.3,1587.023,473.145Zm5.985-23.971h0c-1.219.93-2.365,2.039-3.617,2.9C1590.643,451.213,1591.789,450.1,1593.008,449.174Zm-21.5,11.614h0l-.152-.109h0Zm-2.258-2.172c-1.735-.12-3.348.093-4.387,1.855-.331.1-.661.205-.99.306.329-.1.658-.208.987-.306C1565.9,458.71,1567.517,458.5,1569.252,458.616ZM1548.015,470h0q-2.12-2.363-4.238-4.725h0Q1545.894,467.638,1548.015,470Zm-10.964-22.793a1.767,1.767,0,0,1-.217.584c-.1.135-.4.109-.608.157Zm-6.384-3.635a5.161,5.161,0,0,0,.065,1.1l.03.035h0l-.03-.035A5.161,5.161,0,0,1,1530.667,443.573Zm-2.091,33.2,2.2,0h0c-.735,0-1.468,0-2.2,0a4.663,4.663,0,0,0-1.513,1.735,4.663,4.663,0,0,1,1.513-1.735,10.4,10.4,0,0,0-.18-4.078A10.4,10.4,0,0,1,1528.576,476.77Zm-6.6-24.326a10.778,10.778,0,0,1,.192,1.4l2.112.035-2.112-.035-.007.016-.71.762.71-.762.007-.016a10.778,10.778,0,0,0-.192-1.4,2.957,2.957,0,0,0-.444-1.1A2.957,2.957,0,0,1,1521.972,452.444Zm-.818-1.457a1.561,1.561,0,0,0-1.154-.171A1.561,1.561,0,0,1,1521.155,450.987Zm-35.518-24.706c.035-.389.045-.778.067-1.165-.022.389-.032.775-.065,1.165-4.1.567-6.524,3.278-8.735,6.337C1479.116,429.558,1481.543,426.848,1485.637,426.28Zm-14.431,15.581a12.085,12.085,0,0,1-4.8,5.029q-2.2,3.37-4.4,6.742l4.4-6.745a30.453,30.453,0,0,1,1.035-4.3,30.4,30.4,0,0,0-1.035,4.3A12.1,12.1,0,0,0,1471.206,441.862Zm-47.67,28.008a16.277,16.277,0,0,1,.409-4.624,16.277,16.277,0,0,0-.409,4.624,4.308,4.308,0,0,0-1.735,2.236A4.308,4.308,0,0,1,1423.535,469.87Zm-61.177,53.266c-.341-.16-.9-.642-1.3-.89h0C1361.459,522.491,1362.017,522.977,1362.358,523.136ZM1343.6,558.825c.845-1.729,1.7-3.451,2.6-5.151C1345.3,555.374,1344.448,557.1,1343.6,558.825Zm-25.125,41.549a21.716,21.716,0,0,1,4.978-6.51,21.716,21.716,0,0,0-4.978,6.51q.049,1.247.095,2.489h0q-.044-1.243-.095-2.489c-4.886,6.518-11.449,11.845-12.918,20.789a4.239,4.239,0,0,0-1.945,3.161,4.243,4.243,0,0,1,1.942-3.161C1307.028,612.219,1313.591,606.892,1318.477,600.373Zm-25.614,25.362v0l-2.206-.022C1291.392,625.722,1292.128,625.73,1292.863,625.735Zm-2.328-1.455a4.854,4.854,0,0,0-.858-2.047A4.854,4.854,0,0,1,1290.535,624.28Zm-1.082-2.4a3.943,3.943,0,0,0-.409-.32A3.943,3.943,0,0,1,1289.453,621.885Zm-7.359,38.177c1.124-2.079,1.847-4.483,3.176-6.4-1.329,1.916-2.052,4.32-3.176,6.4a3.823,3.823,0,0,0-1.69,1.977A3.812,3.812,0,0,1,1282.094,660.062Zm-45.063,59.55c.2-3.238,1.732-5.892,3.1-8.618-1.366,2.727-2.9,5.38-3.1,8.618l-4.225,2.342c-.03.739-.055,1.479-.072,2.217h0q-1.047,1.172-2.089,2.343h0l2.086-2.343c.02-.738.045-1.479.075-2.217Zm-10.637-2.225,0,.008,0-.008Zm-27.89,38.945a28.025,28.025,0,0,1-2.139,2.121,40.207,40.207,0,0,1-4.712,3.552,40.207,40.207,0,0,0,4.712-3.552,28.025,28.025,0,0,0,2.139-2.121c-.5-.237-.99-.461-1.486-.642C1197.515,755.871,1198.008,756.095,1198.5,756.332Zm-49.211,22.937a4.739,4.739,0,0,0,3.418-1.25,4.739,4.739,0,0,1-3.418,1.25c-4.943,3.134-10.081,5.945-14.74,9.548C1139.212,785.214,1144.35,782.4,1149.293,779.269Zm-32.228,27.582c2.667-.85,5.345-1.66,7.995-2.571-2.65.911-5.327,1.721-7.995,2.574.013.728.013,1.453,0,2.18C1117.078,808.306,1117.078,807.581,1117.066,806.85Zm-4.307,4.432h0q-1.11,2.235-2.216,4.469Zm-46.813,30.265q-1.107-1.247-2.216-2.486l10.555-4.584a22,22,0,0,1,14.912-5.151c1.51-2.028,2.914-2.175,4.178.264a4.45,4.45,0,0,0,.86-.616,4.13,4.13,0,0,0,1.234-2.372,4.13,4.13,0,0,1-1.234,2.372,4.512,4.512,0,0,1-.857.616l-3.754,2.926q-2.307,2.158-4.614,4.314c-3.7,2.35-7.237.1-10.834-.445q-.045,1.1-.2,2.193l0,0a5.93,5.93,0,0,0-1.88.466q-1.276.888-2.553,1.777h0q-1.8.364-3.587.73l-13.2,11.006Q1059.35,847.052,1065.945,841.547Zm-40.955,41.271c.992-.235,1.663.685,1.957,1.738v0c-.683.054-1.364.131-2.044.224C1024.21,884.079,1023.36,883.205,1024.99,882.819Zm-33.225,51.353a3.635,3.635,0,0,1-.511-.568A3.635,3.635,0,0,0,991.766,934.172Zm49.326,40.552a3.21,3.21,0,0,0,.578.776A3.21,3.21,0,0,1,1041.092,974.723Zm.775,1.042a5.055,5.055,0,0,0,1.231.8A5.055,5.055,0,0,1,1041.867,975.765Zm17.335-4.027h0c-1.369.848-2.745,1.676-4.116,2.518C1056.457,973.415,1057.833,972.586,1059.2,971.739Zm-14.748,36.144a2.031,2.031,0,0,1-.419-.824A2.062,2.062,0,0,0,1044.454,1007.883Zm4.028,7.4a17.294,17.294,0,0,0,4.931-1.375,17.294,17.294,0,0,1-4.931,1.375,61.806,61.806,0,0,1-10.216,6.814A61.806,61.806,0,0,0,1048.483,1015.278Zm-12.4-6.558a6.886,6.886,0,0,0,1.446-2.26A6.886,6.886,0,0,1,1036.081,1008.72Zm-.062.075a10.024,10.024,0,0,1-1.633,1.3A10.024,10.024,0,0,0,1036.019,1008.794ZM986.3,1031.3h0a46.047,46.047,0,0,1-6.825,4.829A46.264,46.264,0,0,0,986.3,1031.3Zm-42.844,20.632c.885-.027,1.792.021,2.662-.053a5.666,5.666,0,0,0,1.668-.365,5.666,5.666,0,0,1-1.668.365c-.87.074-1.777.027-2.662.053l0,.005Zm-21.451,6.9.833-.034-.833.034a26.5,26.5,0,0,1-6.573,4.746A26.5,26.5,0,0,0,922.008,1058.833Zm-43.119,13.919c-1.525,2.417-2.849,1.929-4.051-.32C876.19,1072.542,877.541,1072.646,878.89,1072.752Zm-4.016-2.372c-.016.685-.028,1.367-.035,2.052h0C874.846,1071.747,874.859,1071.065,874.874,1070.38Zm-1.084,12.413a4.685,4.685,0,0,1-1.125-1.135h0A4.685,4.685,0,0,0,873.79,1082.794Zm-24.6,6.044,0,0a5.662,5.662,0,0,1-3.49-1.338A5.645,5.645,0,0,0,849.188,1088.837Zm-33.566,12.9c-1.653-.725-3.37-1.689-5.1-1.668h0C812.252,1100.044,813.969,1101.008,815.622,1101.733Zm-8.857,12.906a.764.764,0,0,0-.382-.256A.764.764,0,0,1,806.765,1114.639Zm-13.743,12.871c-2.772.117-5.547.091-8.321.128l0,0C787.47,1127.6,790.247,1127.628,793.022,1127.51Zm.065,27.1c-2.62,1.039-5.644-.021-8.363.5v0C787.443,1154.586,790.466,1155.646,793.087,1154.607Zm6.86,7.27a6.344,6.344,0,0,0-.892.072A6.344,6.344,0,0,1,799.947,1161.877Zm24.151,10.2a2.755,2.755,0,0,0,.032-.671A2.755,2.755,0,0,1,824.1,1172.076Zm.017-.768a5.516,5.516,0,0,0-.242-1.109A5.516,5.516,0,0,1,824.115,1171.308Zm-2.745,6.385c2.076.488,4.547-.208,5.965,2.26h0q-3.92,1.491-7.838,2.985a6.669,6.669,0,0,1-3.978,1.716,6.645,6.645,0,0,0,3.976-1.719c-1.606-.6-3.478-.677-4.42-2.577l0,0q.976-1.159,1.957-2.316Zm-5.133-2.921a4.584,4.584,0,0,1,.541,1.57A4.6,4.6,0,0,0,816.237,1174.773Zm-3.268,10.35c6.217,3.147,12.387,3,18.527.749-6.14,2.247-12.31,2.4-18.524-.746l-1.87-.285C811.723,1184.934,812.346,1185.03,812.969,1185.123Zm-45.763,22.6a1.631,1.631,0,0,0-.088-.57A1.631,1.631,0,0,1,767.206,1207.722Zm13.431,7.046.7.7-.7-.7Zm32.245,4.631h0l-.09-.1Zm-9.278,25.618a2.769,2.769,0,0,0-1.077.837A2.769,2.769,0,0,1,803.6,1245.017Zm-21.651-.442a2.479,2.479,0,0,0-1.057.021A2.479,2.479,0,0,1,781.953,1244.575Zm-1.6.176c-1.279.44-2.615,1.365-3.889,1.25C777.74,1246.115,779.079,1245.19,780.356,1244.75Zm-5.581,13.618c3.515-.666,3.966-5.319,7-6.2,3.278-.951,6.755-1.106,10.124-1.754.563-.106,1-.943,1.5-1.444v0c1.758-.059,3.353-.466,4.288-2.287l4.292-.088q2.139.02,4.278.045c-.7-1.135-1.411-1.711-2.124-1.719q1.069.012,2.124,1.716l4.213.083.012,1.09-.065,1.087v0q-1.01.008-2.014.08.019,1.187.037,2.375h0q-.019-1.187-.037-2.375c-2.266,1.324-4.946,1.983-6.441,4.552L795.609,1256h0q-3.223-.028-6.447-.053l-2.214,2.167v-.008c-1.757.053-3.348.466-4.292,2.271h0l-.01.005c-1.76.051-3.34.488-4.273,2.3h-.022c-.691-.016-1.384-.019-2.077-.051-1.391-.067-2.814-.243-3.231-1.967A1.88,1.88,0,0,1,774.774,1258.368Zm-9.181,20.443a50.622,50.622,0,0,0,19.746-3.1,50.674,50.674,0,0,1-19.746,3.1,4.256,4.256,0,0,1-2.986,2.164A4.252,4.252,0,0,0,765.593,1278.811ZM684.264,1299.3l.264-.1h0Z" transform="translate(-0.924 0)"/><path class="a" d="M967.754,526.178l-.034.032.026,0c.007-.009.015-.016.022-.026Z" transform="translate(-38.501 484.466)"/><path class="a" d="M1035.233,479.581c.282-.05.4-.261.246-.506a2.3,2.3,0,0,0-.493-.444l-.019.017a6.127,6.127,0,0,0,.075.674C1035.064,479.422,1035.184,479.591,1035.233,479.581Z" transform="translate(-330.263 657.423)"/><path class="a" d="M682.268,687.675h0c.024.285.048.57.073.855a.868.868,0,0,0,.527-.881,1.314,1.314,0,0,0,.193-.739l-.793.764Z" transform="translate(971.934 -224.725)"/><path class="a" d="M687.125,724.117a1.31,1.31,0,0,0,.287-.188,1.293,1.293,0,0,1-.288.189q-.359,1.526-.719,3.051l.723.7.791-.834q1.3-3.323,2.6-6.644l1.39-1.844c-.017-.8.207-1.68-.651-2.239l-1.6,2.3q.008.386.008.772l-1.669,2.271-.77.833v0l-1.483.835-.883.692-.021.022a.949.949,0,0,1-.753.758l-.026.026a4.056,4.056,0,0,1-.06.711l.95.924C685.843,725.83,685.97,724.492,687.125,724.117Z" transform="translate(961.508 -290.788)"/><path class="a" d="M684.916,702.768a2.244,2.244,0,0,1-.747,1.583q.005.354-.015.707l1.451-.083a1.846,1.846,0,0,1,.167-.678c.174-.3.346-.593.518-.892C686.084,702.307,686.084,702.307,684.916,702.768Z" transform="translate(966.992 -255.401)"/><path class="a" d="M955.648,524.425h.016c0-.007.012-.011.016-.017Z" transform="translate(3.657 490.979)"/><path class="a" d="M987.1,506.447c.548-.3.038-.522-.175-.74a1.991,1.991,0,0,0-.6.225C986.48,506.279,986.762,506.632,987.1,506.447Z" transform="translate(-105.748 558.303)"/><path class="a" d="M942.263,570.243l3.007-1.087a6.279,6.279,0,0,0,1.093-2.663c-1.4-.211-2.082,1.608-3.442,1.271l-2.16.924A2.2,2.2,0,0,0,942.263,570.243Z" transform="translate(43.411 329.631)"/><path class="a" d="M959.119,529.646h0c.013,0,.026,0,.04-.007v-.034h-.037c0,.013,0,.026,0,.04Z" transform="translate(-8.471 471.89)"/><path class="a" d="M959.122,528.743l0,0v.006l.026.027h0v-.034h-.027Z" transform="translate(-8.442 475.075)"/><path class="a" d="M943.66,560.563l-.014.015.018,0v-.012Z" transform="translate(45.567 358.474)"/><path class="a" d="M984.058,507.252h0Z" transform="translate(-95.396 553.878)"/><path class="a" d="M983.862,507.221c.265-.045.2-.172-.174-.319C983.746,507.014,983.823,507.227,983.862,507.221Z" transform="translate(-94.897 554.662)"/><path class="a" d="M944.531,564.79c.848-.007,1.761.18,2.308-.753C946,564.066,945.091,563.9,944.531,564.79Z" transform="translate(37.454 344.327)"/><path class="a" d="M942.823,556.038l.738-.627A.828.828,0,0,0,942.823,556.038Z" transform="translate(46.868 376.228)"/><path class="a" d="M917.9,533.924l-.025-.03c-.014.016-.026.035-.038.052l.079,0h0c-.011-.017-.024-.031-.034-.047h-.006Z" transform="translate(135.491 456.151)"/><path class="a" d="M929.058,529.643h0Z" transform="translate(96.513 471.818)"/><path class="a" d="M949.683,517.511l.78-.791-.777.083C949.686,517.039,949.685,517.274,949.683,517.511Z" transform="translate(22.818 517.894)"/><path class="a" d="M936.732,538.191h.019l.011-.014Z" transform="translate(69.666 440.522)"/><path class="a" d="M715.82,677.517l0,.005q.012.394.025.789l.758-.8C716.339,677.519,716.079,677.519,715.82,677.517Z" transform="translate(907.906 -72.117)"/><path class="a" d="M917.925,533.491c.034.315.256.442.532.268a1.971,1.971,0,0,0,.428-.489,5.616,5.616,0,0,0-.656.045C918.115,533.332,917.92,533.441,917.925,533.491Z" transform="translate(133.361 457.553)"/><path class="a" d="M923.59,531.2a2.252,2.252,0,0,0,.436-.521,6.412,6.412,0,0,0-.674.081c-.115.024-.31.137-.3.189C923.087,531.277,923.315,531.394,923.59,531.2Z" transform="translate(115.426 466.972)"/><path class="a" d="M922.769,531.537l.247-.181-.285.142c-.012.015-.022.031-.033.045l.071-.006Z" transform="translate(118.032 465.222)"/></g></svg>