<svg xmlns="http://www.w3.org/2000/svg" width="718.98" height="263.972" viewBox="0 0 718.98 263.972"><defs><style>.a{fill:#f6f6f6;}</style></defs><path class="a" d="M-2568.823,2180.3c-11.021,9.152-21.841,18.56-33.119,27.383-10.414,8.147-21.5,15.435-31.915,23.574-4.781,3.737-9.588,8.03-9.809,16.132,12.732-18.642,31.885-28.331,48.452-41.117,4.434-3.426,9.751-5.7,14.283-9.019,8.432-6.176,17.564-11.817,24.636-19.342a469.243,469.243,0,0,0,33.694-40.445c11.775-15.76,16.288-34.153,15.406-53.752-.24-5.282-.321-10.908-6.334-13.875-1.107-.547-1.44-2.667-2.344-4.495l3.327.823c-.187-.693-.164-1.392-.5-1.775-5.082-5.785-10.419-11.359-15.284-17.318-8.948-10.969-21.3-10.1-33.32-9.533-3.312.155-6.461,3.16-9.742,4.734-10.184,4.887-20.193,10.22-30.646,14.437-13.044,5.264-12.123,18.443-16.934,28.273-2.28,4.656-2.351,10.392-3.726,15.679-.847-9.346-4.065-18.764.955-28.076,4.177-7.75,8.421-15.463,12.554-23.236.371-.7.156-1.706.283-3.562-8.677,6.545-11.273,15.784-16.366,23.734a36.816,36.816,0,0,1,1.513-5.789c8.073-18.35,19.546-33.377,39-41.082,24.005-9.506,47.493-8.5,69.986,3.833,10.945,6,17.874,16.484,23,27.669,14.835,32.373,11.071,63.472-7.341,93.309-10.873,17.616-23.134,34.145-38.885,47.769-10.371,8.971-20.826,17.859-31.562,26.381-7.047,5.59-14.692,10.429-22,15.7-.992.716-1.608,1.958-3.606,4.489,6.8,0,12.027.006,17.254,0,11.826-.02,23.661-.328,35.471.063,4.457.15,8.817,2.427,13.3,2.818,5.765.5,11.609.062,17.421.072q10.173.013,20.35.115,51.669.459,103.344.922c15.173.113,30.344.018,45.515.018v1.472h-74.545l-.011,2.155h66.7l.065,1.519-8.68.672v1.082c18.255,0,36.52-.349,54.761.1,18.527.455,37.024,2.23,55.548,2.444,18.288.21,36.592-1,54.891-1.234,18.565-.243,37.136-.054,55.8-.1h-13l.072,1.546c4.829,0,9.67-.234,14.481.042,16.542.949,33.076,2.076,49.612,3.14,12.721.815,25.441,1.632,38.176,2.833q-85.8,1.991-171.606,3.984l-.009.671h86.587l.02,1.538q-40.363,1.051-80.727,2.1v.886h85.95v1.306H-2187.1l.006,2.033h170.259v2.636h-455.082l-.017,1.523h47.659l-.017,2.1H-2516.3c4.894-.61,9.155-1.144,13.414-1.672l.021-1.423q-15.206,0-30.407,0c-14.126.03-28.278.679-42.366-.022-17.169-.859-34.359-2.311-51.386-4.632-6.036-.826-12.093-4.267-17.273-7.785-4.6-3.128-6.477-8.5-4.953-14.427a35.117,35.117,0,0,1,12.323-19.459c12.759-10.027,25.554-20.018,38.579-29.685,9.678-7.184,19.75-13.833,29.646-20.723Zm237.533,77.62-.115.848h38.476l0-.848Zm-121.268-3.606v.33h49.62v-.33Zm-50.291-202.451c-.066-6.741-8.846-15.159-15.322-16.208Zm248.7,206.528-.026-1.077h-26.239l.015,1.077Z" transform="translate(2649.769 -2016.28)"/><path class="a" d="M-2476.668,2185.27c-2.334,9.842-10.634,9.531-18.088,10.55-3.3.451-6.647.583-9.9,1.279,14.2,2.258,27.11-2.048,38.583-9.566,36.042-23.615,56.077-56.716,57.228-100.386.3-11.471-3.743-21.786-8.133-32.324l3.955,5.1c2.528-3.643,1.805-5.47-4.862-12.254.238-.22.6-.677.7-.625,12.25,6.431,16.79,16.855,14.771,30.614-.568,3.866,2.164,8.2,3.3,12.343.735,2.682,2.016,5.448,1.847,8.1-.541,8.613-1.635,17.19-2.52,25.782l2.463.354q2.38-11.982,4.757-23.964l.975.075V2108c5.9-23.179,4.19-65.149-31.36-88.176,2.159,1.24,4.264,2.6,6.491,3.7,4.607,2.278,5.81,9.33,13.075,8.516,1.779-.2,4.336,4.787,6.232,7.6,9.333,13.854,13.41,29.34,14.232,45.884a135.333,135.333,0,0,1-10.515,59.9c-11.271,26.406-28.153,49.269-53.145,65.192-19.619,12.5-40.552,19.077-63.857,16.19-27.716-3.429-46.4-19.271-56.244-44.649-8.1-20.888-12.209-42.873-6.547-65.281,2.366-9.364,6.459-18.288,9.755-27.419,2.147-5.957,4.262-11.921,6.391-17.883l1.529.5-3.938,14.664,1.436.673c4.33-7.177,8.675-14.342,12.971-21.537.713-1.2,1.058-3.542,1.815-3.653,7.37-1.042,11.322-7.132,16.8-12.388-1.205,3.658-1.99,6.036-3.15,9.551l4.4-1.781c-.623,3.034-1.024,5.981-1.852,8.808-2.748,9.424-5.561,18.835-8.522,28.2-2.206,6.978-4.69,13.868-7.025,20.8-4.019,11.929-.965,24.044.589,35.691,1.463,10.951,5.424,21.9,14.05,30.312,8.594,8.388,18.213,13,30.518,12.656,5.843-.168,9.829-3.34,14.5-5.565,2.146-1.023,4.281-2.079,6.423-3.119Z" transform="translate(2763 -2010.844)"/><path class="a" d="M-2388.238,2211.264h-17.047l-.1,1.139c6.373,1.005,12.751,2.01,18.528,2.923-11.811,4.838-24.3,6.013-37.065.812a9.244,9.244,0,0,0-6.476.2c-12.185,5.288-25.106,2.606-37.639,3.943-3.268.348-6.4,1.98-9.6,3.024l.488,2.287,23-1.778.16,2.2-8.249.483.031,1.245q46.212,1.214,92.521,2.426c-.259.43-.408.957-.619.984-33.988,3.9-68.072,3.405-102.121,1.486-6.536-.369-13.337-2.887-19.247-5.914-10.7-5.482-13.282-14.206-8.246-25.271,6.319-13.887,17.57-23.571,29.033-33.029,23.024-18.991,46.24-37.76,68.849-57.229,6.568-5.658,11.692-13.137,16.874-20.217,8.124-11.106,5.826-23.024.532-34.239-3.47-7.348-11.626-9.2-18.822-10.123-8.249-1.055-17.186-4.909-24.885,2.16a82.954,82.954,0,0,1-11.784,9.551l7.1-10.009c-9.388,2.406-14.639,8.6-18.144,16.691a5.461,5.461,0,0,1-1.729,2.305c-7.317,5-7.335,4.975-10.514,11.454-1.953-1.706,1.228-7.535-4.852-5.761,1.63-13.03,5.6-25.072,13.74-35.191,4.727-5.875,9.892-11.678,18.106-13.436,4.644-.99,8.914-3.791,13.56-4.671,15.459-2.929,31.237-3.893,45.552,3.514a49.289,49.289,0,0,1,17.972,16.279,69.961,69.961,0,0,1,10.8,46.506,42.069,42.069,0,0,1-8.317,19.669c-9.067,11.882-19.555,22.676-29.283,34.067-3.86,4.521-7.241,9.455-10.842,14.2l-2.152-.872c.677-2.622,1.354-5.243,2.185-8.468-7.892,6.508-15.275,12.879-22.957,18.868-11.806,9.2-23.917,18.005-35.687,27.249a51.183,51.183,0,0,0-10,10.2c-2.406,3.363-.158,6.511,3.434,7.1,4.831.778,9.83.636,14.76.646,19.73.059,39.463.026,59.194.026Zm15.566-88.562-.219-.229q-9.486,10.129-18.974,20.259l-.28-.267Q-2382.411,2132.583-2372.672,2122.7Zm-101.365,93.693c-5.769-1.676-9.177-4.831-7.027-11.751C-2486.272,2212.138-2484.074,2215.561-2474.036,2216.4Z" transform="translate(2875.531 -2014.37)"/><path class="a" d="M-2416.65,2074.1q-1.686,3.867-3.362,7.732l1.677,1.114q6.1-8.435,12.2-16.865l1.692.856c-.246,1.174-.133,2.619-.788,3.479-6.093,7.99-1.251,16.541-1.543,24.823-.087,2.467-1.907,4.841-2.167,7.338a61.064,61.064,0,0,0-.063,11.547c.492,5.527,2.337,10.815,3.131,16.363a41.848,41.848,0,0,0,7.056,18.078c4.323,5.963,10.561,10.618,16.277,15.465,6.319,5.354,13.64-.217,20.458,1.254,2.441.529,5.228-.544,7.783-2-7.478-.917-15.127-1.145-22.391-2.94a24.517,24.517,0,0,1-16.7-13.923c2.947,2.791,5.7,5.843,8.911,8.287a22.249,22.249,0,0,0,7.823,3.838c12.762,3.2,25.608,3.167,37.416-2.947,8.094-4.192,15.3-10.094,22.911-15.231l-1.076-1.7-2.8.6c5.185-7.2,10.448-14.51,15.714-21.819l.807.346q-2.038,4.9-4.077,9.807l1.757.672c2.016-5.572,4.6-11.019,5.906-16.752,1.8-7.886,3.532-15.974,3.69-24.008.243-12.622-2.913-24.294-11.917-34.187-9.8-10.767-22.005-13.047-35.453-12.229-3.734.227-7.416,1.267-11.1,1.454,17.856-6.959,34.288-.234,51.683,4.481q-8.111-5.975-16.228-11.951l.235-.688,13.155,6.412c-12.385-10.854-26.693-15.346-43.164-14.084,5.245-.885,10.493-1.739,15.731-2.661a45.849,45.849,0,0,1,26.235,3.381c8.249,3.514,15.048,8.917,18.751,17.65a109,109,0,0,0,7.345,13.456c4.671,7.749,7.3,16.093,6.8,25.1-.74,13.138,5.013,26.618-2,39.425,3.988,9.554-3.511,15.439-7.571,22.1-4.287,7.039-10.308,13-14.791,19.94-5.762,8.909-14.062,14.235-23.494,17.827a129.973,129.973,0,0,1-24.027,6.94c-15.216,2.61-30.636,1.886-45.108-3.458-6.441-2.377-12.271-7.576-17.205-12.64a70.37,70.37,0,0,1-19.319-35.814c-3.25-15.726-3.478-30.848.993-45.991,1.921-6.507,5.423-12.543,8.207-18.795Z" transform="translate(2986.05 -2005.344)"/><path class="a" d="M-2536.567,2103.8l5.322-.981a63.06,63.06,0,0,1,5.081-5.75c7.91-6.961,15.927-13.8,23.9-20.683,1.15-1,2.264-2.028,3.679-3.3.071,6.474-7.5,14.941-12.958,16.562-2.795.831-5,3.791-7.348,5.935-1.344,1.228-2.18,3.547-3.661,3.992-4.689,1.409-8.254,6.832-14.121,4.129C-2536.695,2103.686-2536.567,2103.8-2536.567,2103.8Z" transform="translate(2823.024 -1929.259)"/><path class="a" d="M-2440.879,2074.612c-1.649,2.164-2.939,4.781-5.01,6.411-8.935,7.041-18.068,13.83-27.2,20.61a65.616,65.616,0,0,1-6.409,3.753l-1.528-1.945c4.324-3.622,8.152-8.386,13.113-10.553,5.114-2.235,9.468-4.091,13-8.915,3.075-4.2,8.218-6.9,12.447-10.262Z" transform="translate(2908.274 -1928.297)"/><path class="a" d="M-2583.158,2058.975c-5.236,13.3-14.877,24.577-24.941,35.554l-1.22-.871C-2600.421,2081.862-2591.523,2070.063-2583.158,2058.975Z" transform="translate(2711.738 -1950.872)"/><path class="a" d="M-2551.817,2040.675c7.573-10.939,18.375-17.766,31.516-23.987C-2531.615,2025.3-2541.715,2032.988-2551.817,2040.675Z" transform="translate(2799.831 -2015.653)"/><path class="a" d="M-2537.889,2030.043c4.25-6.071,19.545-9.519,27-6.3Z" transform="translate(2821.167 -2006.734)"/><path class="a" d="M-2393.422,2104.276h-34.146v-1.145h34.064Z" transform="translate(2990.176 -1883.225)"/><path class="a" d="M-2403.633,2096.5H-2435.8l-.017-1.157h31.984Z" transform="translate(2977.536 -1895.154)"/><path class="a" d="M-2617.681,2093.264q8.844-10.044,17.678-20.089l2.777,2.912q-10.286,8.53-20.574,17.053Z" transform="translate(2698.748 -1929.118)"/><path class="a" d="M-2363.679,2048.07l-2.118,24.858-1.4-.126q1.679-12.358,3.349-24.716Z" transform="translate(3082.659 -1967.58)"/><path class="a" d="M-2439.365,2116.907h26.089l0,.579h-26.084Z" transform="translate(2972.104 -1862.122)"/></svg>