<svg xmlns="http://www.w3.org/2000/svg" width="124" height="43.857" viewBox="0 0 124 43.857"><defs><style>.a{fill:#f6f6f6;}</style></defs><g transform="translate(-426 -5517)"><g transform="translate(426 5517)"><g transform="translate(27.745 0)"><path class="a" d="M-972.111,787.465a12.337,12.337,0,0,1-1.625.161c0-.054.064-.023.082-.058a.318.318,0,0,0-.084-.1L-983.811,777.4a.43.43,0,0,1-.111-.128c.012-.077.082-.1.133-.14.157-.109.3-.232.449-.352.131-.1.247-.221.377-.323a.242.242,0,0,1,.111-.063.125.125,0,0,1,.1.047c.027.025.052.052.078.078q2.981,2.981,5.965,5.96a.511.511,0,0,1,.2.4,5.1,5.1,0,0,0,.168.8,3.524,3.524,0,0,0,.788,1.323,3.487,3.487,0,0,0,1.464.929,5.912,5.912,0,0,0,.644.149.187.187,0,0,1,.087.048c.377.43.8.813,1.2,1.224a.261.261,0,0,1,.051.062A.037.037,0,0,1-972.111,787.465Z" transform="translate(985.621 -760.684)"/><path class="a" d="M-985.58,798.782a9.026,9.026,0,0,1-1.685-.18.055.055,0,0,0-.008-.073l-.064-.064-7.7-7.7c-.039-.039-.069-.093-.135-.1a8.465,8.465,0,0,1-.2-.86.3.3,0,0,1-.021-.145,1.569,1.569,0,0,1,.258-.283,1.142,1.142,0,0,1,.135-.13c.054-.028.086-.089.147-.106a.13.13,0,0,1,.1.033,1.14,1.14,0,0,1,.158.139l9.237,9.237a.717.717,0,0,1,.131.151c.025.046.034.085-.041.082A2.8,2.8,0,0,1-985.58,798.782Z" transform="translate(995.629 -771.814)"/><path class="a" d="M-981.868,793.631l.311,0c.047,0,.066-.014.031-.058a1.179,1.179,0,0,0-.075-.093q-4.672-4.673-9.345-9.345a.31.31,0,0,0-.189-.12c-.012-.046.024-.067.051-.087a1.687,1.687,0,0,0,.14-.127c.2-.162.389-.326.588-.483.04-.031.073-.094.143-.065.028.024.057.047.082.073l10.157,10.157a.472.472,0,0,1,.035.036c.014.017.043.029.032.057s-.041.014-.063.016-.047,0-.066.017c-.585.044-1.171.052-1.757.038A.556.556,0,0,1-981.868,793.631Z" transform="translate(991.918 -766.663)"/><path class="a" d="M-894.989,710.546c-.04.227-.076.454-.12.679a4.769,4.769,0,0,1-.137.589c-.068-.006-.1-.06-.143-.1l-2.271-2.27-8.158-8.158c-.021-.021-.044-.041-.064-.064-.051-.06-.1-.052-.151,0-.108.1-.106.1-.216,0a.225.225,0,0,1-.08-.266c.018-.053.019-.112.04-.165a.141.141,0,0,0-.032-.186.221.221,0,0,1-.061-.076c.015-.114.046-.146.158-.157a.257.257,0,0,1-.022-.166c.009-.092.057-.113.135-.06.019.013.034.033.058.036.049-.067.038-.175.143-.2a.951.951,0,0,0,.161.2c.085.074.139.072.21-.015s.073-.079.146-.01c.029.027.057.056.085.085l10.143,10.143A1.944,1.944,0,0,0-894.989,710.546Z" transform="translate(917.952 -693.999)"/><path class="a" d="M-888.767,689.982a6.573,6.573,0,0,1-.049,1.118c-.012.093.024.1.09.082a1.152,1.152,0,0,0,.623-.394c.022-.024.043-.05.078-.091,0,.093,0,.168,0,.242-.025.393-.052.785-.079,1.178a.312.312,0,0,1-.015.057.583.583,0,0,0-.161-.2l-9.9-9.9a.85.85,0,0,1-.063-.064c-.049-.061-.1-.074-.156-.01a.631.631,0,0,1-.257-.242.113.113,0,0,1,.023-.139c.059-.074.091-.163.146-.239a.2.2,0,0,0,.041-.214.08.08,0,0,1,.026-.091.2.2,0,0,0,.057-.093.226.226,0,0,0,.016-.173c-.028-.112-.061-.223-.09-.334a1.15,1.15,0,0,1-.066-.244c.055-.078.1-.03.146.011.134.129.263.262.4.393a.6.6,0,0,0,.14.125c.04.02.029.063.054.088a.02.02,0,0,1,.015,0c.113.137.243.258.368.383l8.416,8.416a.425.425,0,0,0,.079.077A.243.243,0,0,1-888.767,689.982Z" transform="translate(911.226 -676.728)"/><path class="a" d="M-901.955,693.635c.045-.1.066-.1.14-.031l.057.057,9.97,9.972c.051.051.134.087.113.184a9.322,9.322,0,0,1-.143,1.1c-.056.008-.083-.035-.116-.067l-1.49-1.49-8.793-8.793-.057-.057c-.024-.025-.04-.025-.06.008-.092.15-.156.158-.277.035-.055-.056-.13-.1-.126-.2-.034-.078.012-.144.041-.205a.168.168,0,0,0,0-.185.189.189,0,0,1-.025-.106.215.215,0,0,1,.031-.124c.043-.064.095-.107.175-.062.047.026.069.011.091-.035.065-.137.112-.145.22-.042l.021.021c.039.036.068.088.118.1C-902,693.748-902.012,693.641-901.955,693.635Z" transform="translate(914.782 -688.369)"/><path class="a" d="M-908.431,705.758c-.018.084-.036.169-.055.253a.087.087,0,0,0,.027.09.673.673,0,0,1,.078.079c.053.069.1.078.16,0,.1-.11.1-.1.2,0l10.451,10.451c.052.052.106.1.159.151a7.5,7.5,0,0,1-.26.945.413.413,0,0,1-.173-.132l-4.363-4.362-6.285-6.285c-.1-.1-.082-.106-.182,0-.071.075-.1.068-.177-.034a.176.176,0,0,1,0-.128c.052-.107.039-.229.081-.339.024-.063-.032-.1-.057-.141a.584.584,0,0,1,.121-.361.076.076,0,0,1,.082-.026c.077.011.068-.027.044-.075-.006-.012-.012-.024-.017-.036-.02-.047-.025-.094.024-.124s.087,0,.12.038A.142.142,0,0,1-908.431,705.758Z" transform="translate(920.114 -698.967)"/><path class="a" d="M-993.649,800.892c0-.027.013-.049.044-.026a.7.7,0,0,1,.065.062l7.777,7.777.05.05c.054.053.019.064-.032.067a6.111,6.111,0,0,1-.874-.194,9.432,9.432,0,0,1-1.39-.48,7.222,7.222,0,0,1-1.193-.716,10.992,10.992,0,0,1-4.245-5.805c-.07-.217-.131-.437-.194-.656A.468.468,0,0,1-993.649,800.892Z" transform="translate(994.11 -782.034)"/><path class="a" d="M-882.469,694.176a.41.41,0,0,0-.157-.25l-8.742-8.742a.237.237,0,0,1-.091-.14l.978-.023c.033-.017.071,0,.1-.014l.1-.005c.041-.021.06.011.083.034q3.73,3.738,7.468,7.469c.021.021.04.045.062.066A7.649,7.649,0,0,1-882.469,694.176Z" transform="translate(904.927 -680.922)"/><path class="a" d="M-911.025,714.978c.064.074.118.06.168-.017s.1-.072.166,0q5.337,5.343,10.679,10.681c.049.049.1.1.151.144l-.147.456c-.034.025-.056,0-.078-.02a1.055,1.055,0,0,1-.079-.077l-3.134-3.135a.435.435,0,0,0-.195-.136c-.09-.108-.149-.236-.234-.348a2.711,2.711,0,0,0-1.449-.966.679.679,0,0,1-.271-.087.071.071,0,0,0-.018-.09c-.023-.02-.043-.042-.064-.064l-5.613-5.613a1.891,1.891,0,0,0-.228-.21c.012-.093.093-.144.135-.218a.482.482,0,0,0,.073-.172A.132.132,0,0,1-911.025,714.978Z" transform="translate(922.306 -707.023)"/><path class="a" d="M-874.572,690.917c-.043,0-.064-.033-.089-.058q-3.711-3.71-7.423-7.42c-.032-.032-.047-.083-.1-.091.156-.03.313-.058.469-.09a3.54,3.54,0,0,0,.472-.152c.038-.017.061,0,.086.03.7.721,1.421,1.425,2.13,2.139.04.04.094.066.117.122v.042c-.017.04,0,.084-.015.123-.013.084.025.095.1.088a1.913,1.913,0,0,0,.479-.112c.065-.007.091.048.126.084q1.383,1.38,2.764,2.763a1.126,1.126,0,0,1,.139.144,13.182,13.182,0,0,1,.522,1.458c.081.271.152.546.21.823C-874.579,690.845-874.577,690.881-874.572,690.917Z" transform="translate(896.835 -679.268)"/><path class="a" d="M-865.53,815.891a6.018,6.018,0,0,1-.748.78,1.03,1.03,0,0,1-.122-.118l-2.721-2.721a1.013,1.013,0,0,0-.152-.129.1.1,0,0,1,.038-.1,3.844,3.844,0,0,1,.776-.593.067.067,0,0,1,.029-.006.159.159,0,0,1,.1.064l2.742,2.742A.171.171,0,0,1-865.53,815.891Z" transform="translate(885.568 -792.637)"/><path class="a" d="M-871.088,818.449a.137.137,0,0,1,.111.057l2.833,2.834c.023.023.053.043.052.082a6.563,6.563,0,0,1-.748.659c-.023.018-.041.046-.075.043a.285.285,0,0,1-.116-.092l-2.16-2.16c-.027.023.012.088-.056.082-.048-.083-.02-.177-.035-.265a2.842,2.842,0,0,1-.07-.626.933.933,0,0,1,.166-.537C-871.161,818.491-871.14,818.449-871.088,818.449Z" transform="translate(887.383 -797.387)"/><path class="a" d="M-849,698.483a.38.38,0,0,1-.126-.1l-2.814-2.814c-.028-.028-.059-.053-.089-.08a4.35,4.35,0,0,0,.852-.662,1.342,1.342,0,0,1,.641-.312.376.376,0,0,1,.161,0,1.271,1.271,0,0,0,.026.8,9.7,9.7,0,0,0,.542,1.346c.264.577.536,1.151.776,1.739C-849.023,698.426-849.015,698.455-849,698.483Z" transform="translate(870.521 -689.223)"/><path class="a" d="M-850.116,802.568a6.911,6.911,0,0,1-.5.843c-.046.014-.067-.022-.091-.047q-1.223-1.22-2.443-2.443a.147.147,0,0,1-.046-.064c0-.045.035-.07.063-.1a2.331,2.331,0,0,0,.459-.621.129.129,0,0,1,.062-.075c.051-.01.081.025.111.055q1.17,1.169,2.339,2.339C-850.133,802.487-850.091,802.515-850.116,802.568Z" transform="translate(871.536 -781.341)"/><path class="a" d="M-973.322,716.576a9.046,9.046,0,0,1,.684-.965c.022,0,.045-.01.063.012.094.1.2.2.3.3.016.017.034.039.055.042.173.023.192.17.235.295a.128.128,0,0,0,.09.1.283.283,0,0,1,.177.151c.053.09.074.1.156.034a.112.112,0,0,1,.161,0c.048.046.139.061.144.131.007.091.052.17.055.259a.017.017,0,0,0,.019,0c.025-.014.053-.042.078-.008s-.007.055-.024.08c-.059.085-.033.181.065.182.174,0,.186.138.228.245a.333.333,0,0,0,.23.2c.056.005.1.015.1.085s.038.052.077.034c.149-.07.174-.067.278.055.031.036.076.041.109.068.01.026-.008.039-.026.045-.072.026-.129.081-.2.111-.135.061-.2.2-.313.275a.343.343,0,0,1-.208.057.265.265,0,0,0-.177.058.11.11,0,0,1-.167-.012.182.182,0,0,0-.251-.042.088.088,0,0,1-.126-.019c-.031-.044,0-.077.034-.1.047-.039.059-.077.015-.127a.083.083,0,0,0-.13-.014.229.229,0,0,1-.05.034c-.031.015-.066.029-.092,0s-.007-.062.018-.088c.009-.01.02-.018.028-.028a.074.074,0,0,0,.01-.1.061.061,0,0,0-.09-.006.173.173,0,0,1-.2,0c-.07-.038-.08-.069-.034-.134a.2.2,0,0,0-.062-.293.539.539,0,0,1-.059-.037.4.4,0,0,0-.273-.1c-.155,0-.157-.011-.075-.137-.029-.017-.05.009-.073.013a.188.188,0,0,1-.2-.072c-.012-.016-.021-.034-.033-.05-.028-.036-.083-.055-.085-.107s.062-.062.095-.093.023-.052,0-.08a1.07,1.07,0,0,0-.11-.129.143.143,0,0,0-.164-.038A.22.22,0,0,1-973.322,716.576Z" transform="translate(976.37 -707.638)"/><path class="a" d="M-844.3,786.615a6.037,6.037,0,0,1-.342.815.651.651,0,0,1-.169-.139q-1.187-1.187-2.373-2.376c-.046-.046-.11-.068-.148-.121a6.163,6.163,0,0,0-.026-1.115c.026-.093.038-.1.106-.04.028.024.053.051.079.077q1.373,1.373,2.745,2.748C-844.385,786.509-844.307,786.533-844.3,786.615Z" transform="translate(866.444 -766.975)"/><path class="a" d="M-912.236,657.12c-.222-.193-.421-.408-.63-.614a.071.071,0,0,0-.1-.007c-.046-.032-.046-.091-.074-.133-.009-.017-.016-.034-.023-.051-.041-.1-.085-.208-.136-.308a.55.55,0,0,0-.046-.085,2.87,2.87,0,0,0-.137-.259c-.049-.089-.1-.174-.161-.257a2.106,2.106,0,0,0-.182-.255,2.131,2.131,0,0,0-.175-.225,2.6,2.6,0,0,0-.241-.274.341.341,0,0,1-.065-.07,2.408,2.408,0,0,0-.339-.316,2.653,2.653,0,0,0-.339-.281c-.117-.1-.257-.169-.367-.278.06-.222.121-.443.178-.666.017-.066.045-.037.077-.018a5.826,5.826,0,0,1,.724.5,5.478,5.478,0,0,1,1.836,2.666A6.5,6.5,0,0,1-912.236,657.12Z" transform="translate(925.691 -653)"/><path class="a" d="M-857.35,806.306c.03.026.062.051.09.079l2.4,2.4c.028.028.06.052.09.078a7.42,7.42,0,0,1-.424.621c-.012.015-.026.029-.04.043-.042-.009-.066-.044-.094-.072l-2.551-2.551c-.032-.032-.073-.06-.079-.112a.11.11,0,0,1,.058-.078q.255-.178.491-.38C-857.4,806.314-857.377,806.3-857.35,806.306Z" transform="translate(875.695 -786.788)"/><path class="a" d="M-848.452,793.051c.015-.007.019-.042.045-.02s.038.037.057.056q1.217,1.217,2.432,2.435c.044.044.111.065.131.132a6.19,6.19,0,0,1-.38.772c0-.042-.033-.064-.058-.089l-2.345-2.346c-.026-.026-.048-.058-.09-.058a.1.1,0,0,1,.009-.1,2.239,2.239,0,0,0,.149-.63C-848.494,793.154-848.5,793.094-848.452,793.051Z" transform="translate(867.586 -775.199)"/><path class="a" d="M-872.46,681.27a.924.924,0,0,1-.176-.147q-1.01-1.011-2.022-2.019c-.043-.043-.06-.116-.135-.124a3.52,3.52,0,0,0,.849-.6c.064-.029.09.027.122.059q.488.484.973.971c.111.111.22.224.335.332a.17.17,0,0,1,.053.082A6.479,6.479,0,0,1-872.46,681.27Z" transform="translate(890.384 -675.141)"/><path class="a" d="M-862.008,810.016a.3.3,0,0,0,.083.1l2.552,2.553c.028.028.052.06.078.09a4.827,4.827,0,0,1-.418.521c-.032-.028-.067-.055-.1-.085l-2.707-2.706c-.028-.028-.059-.054-.089-.081-.013-.031.014-.041.031-.053.161-.111.329-.212.492-.32A.076.076,0,0,1-862.008,810.016Z" transform="translate(879.751 -790.024)"/><path class="a" d="M-871.8,829.462v-.125c.036-.006.046.015.059.028l2.214,2.213a.579.579,0,0,1,.038.046,5.631,5.631,0,0,1-.8.562,2.085,2.085,0,0,0-.176-.191q-.727-.726-1.453-1.454c-.035-.035-.079-.064-.091-.117a.762.762,0,0,1,.065-.209,4.073,4.073,0,0,0,.111-.5.488.488,0,0,0,.011-.161A.13.13,0,0,1-871.8,829.462Z" transform="translate(887.96 -806.888)"/><path class="a" d="M-877.038,838.008a.889.889,0,0,1,.069.056l1.582,1.582c.03.03.068.057.06.109a7.4,7.4,0,0,1-1.084.582c-.169-.157-.328-.324-.491-.486-.294-.292-.585-.586-.879-.878,0-.036.026-.051.047-.071a2.77,2.77,0,0,0,.627-.816C-877.091,838.055-877.083,838.015-877.038,838.008Z" transform="translate(892.991 -814.457)"/><path class="a" d="M-975.662,723.215c.058,0,.075.068.125.076a.189.189,0,0,0,.118,0c.123-.076.193,0,.265.08a.513.513,0,0,1,.037.047c.08.111.081.113-.04.189-.043.027-.041.052,0,.074a.347.347,0,0,1,.1.117.146.146,0,0,0,.179.05c.038-.015.078-.068.112-.018s-.034.066-.059.1l-.034.047c.09-.024.16.021.236-.009.039-.016.068.036.1.057.1.068.228.113.259.262.012.055.021.089-.024.128-.027.024-.085.057-.05.093a.177.177,0,0,0,.165.057.125.125,0,0,0,.053-.027.082.082,0,0,1,.137.011.1.1,0,0,1-.034.149.164.164,0,0,0-.039.03.046.046,0,0,0-.006.037.028.028,0,0,0,.041.014.348.348,0,0,0,.068-.041.132.132,0,0,1,.221.079c.01.051-.032.058-.057.083s-.075.042-.042.086.067.025.1.007a.2.2,0,0,1,.285.05.069.069,0,0,0,.116.01.285.285,0,0,1,.24-.068c.06.01.1-.048.163-.04.094.058.1.1.037.176a.164.164,0,0,0-.045.1.073.073,0,0,1-.025.043,1.254,1.254,0,0,1-.437.239,1.49,1.49,0,0,0-.286.134.3.3,0,0,1-.188.048.194.194,0,0,0-.228-.022.273.273,0,0,1-.21.024c-.071-.053-.049-.116-.016-.178.02-.038.021-.061-.029-.069a.222.222,0,0,1-.107-.053c-.07-.058-.072-.084-.011-.153.015-.017.044-.034.027-.058s-.059-.018-.08,0c-.073.065-.124.029-.178-.028-.078-.083-.08-.094,0-.178.06-.066.049-.117-.036-.153a.338.338,0,0,0-.2-.016c-.056.011-.111.013-.139-.047s.023-.083.056-.114c.058-.055.057-.093-.01-.133a.146.146,0,0,0-.186,0,.076.076,0,0,1-.121-.01c-.066-.07-.14-.132-.112-.25.014-.061-.037-.1-.106-.073a.151.151,0,0,1-.17-.049c-.075-.076-.152-.15-.226-.227-.024-.025-.059-.048-.047-.092A4.494,4.494,0,0,1-975.662,723.215Z" transform="translate(978.71 -714.277)"/><path class="a" d="M-978.591,727.787l.32.33c.032.033.069.046.106.015s.088-.008.127.014.03.07.025.108a.325.325,0,0,0,.135.24c.025.009.034,0,.05-.019a.2.2,0,0,1,.293.063c.024.06-.031.081-.064.109s-.075.034-.054.081.064.048.112.034a.338.338,0,0,1,.225.016c.112.045.129.132.03.2-.057.04-.065.064-.013.112s.1.134.185.034a.088.088,0,0,1,.119.006c.026.031,0,.076-.035.092-.112.059-.04.1.012.141a.14.14,0,0,0,.109.037c.069-.01.065.031.035.071a.154.154,0,0,0-.029.184c.005.023-.012.035-.026.029-.069-.026-.117.027-.174.04a.532.532,0,0,0-.248.17c-.1.07-.119.064-.213.008-.127-.075-.212-.217-.374-.237a.053.053,0,0,1-.039-.043.888.888,0,0,0-.354-.43.169.169,0,0,0-.144-.021.267.267,0,0,1-.288-.089c-.048-.068-.047-.11.015-.164.08-.07.078-.089.012-.169s-.169-.12-.235-.2A5.9,5.9,0,0,1-978.591,727.787Z" transform="translate(981.3 -718.267)"/><path class="a" d="M-846.122,781.264q-1.481-1.476-2.964-2.952c-.014-.014-.03-.081-.07-.018-.046-.006-.043-.046-.05-.076a2.7,2.7,0,0,0-.221-.653c-.015-.029-.034-.06-.011-.094.079-.017.117.044.162.089l3.207,3.205c.03.03.052.072.1.076A2.953,2.953,0,0,1-846.122,781.264Z" transform="translate(868.265 -761.623)"/><path class="a" d="M-883.555,845.566c.043,0,.063.034.088.059l1.216,1.216c.025.025.059.046.06.088a6.99,6.99,0,0,1-1,.4c-.335-.323-.659-.656-.988-.984a1.288,1.288,0,0,1-.222-.244c.007-.039.042-.05.071-.065a3.667,3.667,0,0,0,.692-.438C-883.619,845.581-883.595,845.551-883.555,845.566Z" transform="translate(898.772 -821.049)"/><path class="a" d="M-981.739,733.787a.717.717,0,0,1,.288.224c.039.047.055.107-.012.146-.04.024-.1.037-.08.094a.192.192,0,0,0,.146.137.388.388,0,0,0,.169-.007.164.164,0,0,1,.159.036.875.875,0,0,1,.324.354c.041.124.124.121.2.165s.138.125.218.178.131.069.2,0c.027.057-.016.078-.054.1a.2.2,0,0,0-.1.079.411.411,0,0,1-.144.148.386.386,0,0,0-.135.181.36.36,0,0,1-.16.135.21.21,0,0,1-.107-.011.09.09,0,0,0-.086.01c-.11.094-.262.084-.382.158a.1.1,0,0,1-.15-.042.109.109,0,0,0-.035-.125.563.563,0,0,1-.088-.108c-.049-.068-.033-.122.043-.161s.1-.08.026-.153-.021-.114.021-.169a.2.2,0,0,0-.172-.026c-.055.013-.1.009-.1-.067,0-.028-.013-.049-.038-.05-.151-.006-.232-.133-.35-.2a7.885,7.885,0,0,1,.291-.782C-981.82,733.946-981.777,733.868-981.739,733.787Z" transform="translate(984.068 -723.503)"/><path class="a" d="M-900.225,853.475c0-.046-.041-.067-.069-.094-.362-.363-.724-.727-1.088-1.086-.058-.057-.083-.145-.168-.177a.074.074,0,0,1,.072-.026,4.906,4.906,0,0,0,1.2-.061.123.123,0,0,1,.086.046c.343.352.695.7,1.04,1.046.034.035.092.066.053.133A9.46,9.46,0,0,1-900.225,853.475Z" transform="translate(913.735 -826.694)"/><path class="a" d="M-890.2,851.265c.007-.052-.031-.077-.061-.108l-.9-.9c-.063-.063-.125-.128-.187-.193.011-.04.047-.044.078-.051a4.455,4.455,0,0,0,.707-.236c.032-.014.066-.036.1-.01.055.011.073.064.107.1q.518.513,1.032,1.031c.027.027.065.049.067.1A7.289,7.289,0,0,1-890.2,851.265Z" transform="translate(904.838 -824.704)"/><path class="a" d="M-945.174,705.608a1.684,1.684,0,0,1,.218-.247.283.283,0,0,1,.059.224.126.126,0,0,0,.1.162c.116.031.127.143.13.235a.3.3,0,0,0,.077.217.185.185,0,0,1,.038.081.1.1,0,0,0,.1.083.139.139,0,0,1,.141.149.2.2,0,0,0,.016.068c.037.081.089.091.153.028.024-.023.042-.057.082-.041s.038.043.034.075.019.043.05.035a.126.126,0,0,1,.079,0,.211.211,0,0,1,.063.049c.095.095.1.136.014.269a.229.229,0,0,0-.062.088c-.014.03-.042.052-.073.034-.069-.042-.1,0-.14.048a.74.74,0,0,0-.063.049.141.141,0,0,1-.207.01.226.226,0,0,0-.284-.031.074.074,0,0,1-.094,0,.075.075,0,0,1-.021-.091c.038-.076-.005-.1-.067-.12-.043-.013-.076-.036-.056-.087s-.011-.089-.052-.113a.191.191,0,0,1-.115-.2.086.086,0,0,0-.036-.078,1.156,1.156,0,0,1-.095-.1c-.034-.039-.071-.09-.055-.135.06-.163-.036-.286-.093-.419,0-.064.054-.095.088-.138S-945.182,705.65-945.174,705.608Z" transform="translate(951.94 -698.696)"/><path class="a" d="M-866.641,675.9l-1.394-1.386c-.026-.025-.047-.059-.089-.059.175-.188.352-.373.512-.581A3.217,3.217,0,0,1-866.641,675.9Z" transform="translate(884.564 -671.212)"/><path class="a" d="M-937.67,696.726l.281-.382c.087-.022.118-.01.123.072s.071.156.1.235a.033.033,0,0,0,.056.016c.073-.056.093-.006.1.054s.036.107.052.173c.062-.044.121-.058.172.008.012.016.036.017.056.02a.252.252,0,0,1,.178.117c.054.078.1.08.171.014s.095-.15.194-.163c.148.046.184.091.159.2a1.1,1.1,0,0,0-.263.363c-.036.066-.109.088-.145.149-.02.031-.033.065-.054.1a.188.188,0,0,1-.238.079.668.668,0,0,0-.208-.054.134.134,0,0,1-.091-.038,1.873,1.873,0,0,1-.32-.28.113.113,0,0,0-.025-.031.465.465,0,0,1-.19-.359A.765.765,0,0,0-937.67,696.726Z" transform="translate(945.257 -690.818)"/><path class="a" d="M-939.687,699.406a.35.35,0,0,1,.131.233.562.562,0,0,0,.165.382c.09.088.19.165.279.255.059.06.124.142.239.092a1.048,1.048,0,0,1,.144.06.151.151,0,0,0,.211-.066l.057-.093c.07.064.08.11.029.188-.067.1-.1.222-.161.327a.078.078,0,0,1-.074.044.611.611,0,0,0-.346.11.224.224,0,0,1-.183.028.143.143,0,0,0-.158.018.053.053,0,0,1-.064.012.057.057,0,0,1-.02-.072.124.124,0,0,0-.046-.141,1.082,1.082,0,0,1-.231-.547c-.023.022-.048.091-.109.071s-.048-.092-.05-.148a.791.791,0,0,0-.106-.371Z" transform="translate(947.273 -693.499)"/><path class="a" d="M-967.909,708.894c-.014,0-.029.023-.042,0a9.673,9.673,0,0,1,.884-.981c.054-.011.076.034.105.062.249.245.492.5.743.738.047.046.069.114.134.144l.023.021c.042.038.1.068.091.138a1,1,0,0,1-.221.22c-.07.062-.149.113-.222.172a.1.1,0,0,1-.163-.02,2.987,2.987,0,0,1-.347-.514c-.093-.178-.189-.354-.3-.524-.051-.081-.056-.084-.123-.015-.149.153-.31.294-.445.461A.244.244,0,0,1-967.909,708.894Z" transform="translate(971.683 -700.919)"/><path class="a" d="M-984.061,741.826c.033,0,.07-.007.093.024a.414.414,0,0,0,.29.155c.039.006.058.018.033.066s.017.067.054.049c.092-.044.166,0,.243.033,0,.045-.039.033-.056.051-.041.045-.057.088.009.12.037.018.068.033.05.079s-.005.1-.08.108-.1.073-.041.131c.042.042.065.1.117.133a.051.051,0,0,1-.007.1.2.2,0,0,1-.081.072c-.031.019-.069.035-.086.068a.213.213,0,0,1-.144.123c-.018,0-.027.028-.041.043a.39.39,0,0,1-.046.037c-.055.052-.111.087-.183.024s-.072-.108,0-.172.063-.1-.011-.149a1.179,1.179,0,0,0-.308-.114c-.03-.01-.078,0-.08-.053A6.623,6.623,0,0,1-984.061,741.826Z" transform="translate(985.986 -730.518)"/><path class="a" d="M-931.858,685.5l.3-.48a.265.265,0,0,1,.271.039c.052.047.106.066.164-.013a.164.164,0,0,1,.2-.052.086.086,0,0,0,.124-.045.177.177,0,0,1,.153-.1.262.262,0,0,0,.164-.088.292.292,0,0,1,.128-.093.047.047,0,0,1,.029.007.108.108,0,0,1,.032.071,1.242,1.242,0,0,1-.142.375.16.16,0,0,0-.079.168.148.148,0,0,1-.03.094.621.621,0,0,0-.121.133c-.008.015-.019.035-.033.036-.111.009-.192.093-.292.119a.691.691,0,0,0-.257.123.211.211,0,0,1-.278-.048.214.214,0,0,0-.145-.118C-931.737,685.606-931.827,685.594-931.858,685.5Z" transform="translate(940.185 -680.641)"/><path class="a" d="M-934.26,694.607c-.088.026-.118.114-.178.171-.08.076-.158.073-.2-.023a.182.182,0,0,0-.119-.1.26.26,0,0,1-.16-.075c-.039-.046-.07.052-.125.06,0-.087-.065-.155-.062-.245,0-.039-.025-.055-.055-.013-.05.067-.077.055-.1-.022-.033-.094-.117-.166-.108-.281,0-.042-.057-.033-.092-.036l.24-.342s.008,0,.009,0c.089.108.234.156.308.279a.168.168,0,0,0,.175.082.4.4,0,0,1,.357.09c.043.048.089.031.109-.037s.057-.118.143-.1c.066.013.092-.04.12-.086s.067-.112.148-.087a.193.193,0,0,1-.027.134c-.038.086-.109.159-.083.266a.037.037,0,0,1-.017.035C-934.118,694.351-934.168,694.5-934.26,694.607Z" transform="translate(943.333 -688.518)"/><path class="a" d="M-928.265,678.787c-.041.038-.084.074-.124.115a.22.22,0,0,1-.145.081.175.175,0,0,0-.178.126c-.024.058-.072.045-.118.026a.161.161,0,0,0-.221.078c-.023.045-.037.063-.085.022a.472.472,0,0,0-.336-.107l.4-.662a1.166,1.166,0,0,0,.525-.131.121.121,0,0,1,.058-.013.164.164,0,0,0,.158-.1.1.1,0,0,1,.071-.064.131.131,0,0,1,.054.023c.108.051.148.044.222-.051a1.516,1.516,0,0,1,.148-.161c.026-.024.048-.056.092-.05.051.039.026.077-.005.11a1.1,1.1,0,0,0-.252.421.258.258,0,0,1-.134.156A.229.229,0,0,0-928.265,678.787Z" transform="translate(938.101 -674.746)"/><path class="a" d="M-932.211,690.846a.159.159,0,0,0-.126.1c-.031.068-.07.136-.174.089-.047-.021-.076.028-.081.076s-.006.084-.055.095a.11.11,0,0,1-.127-.056c-.03-.048-.071-.081-.132-.041-.008.005-.024.012-.026.01-.074-.084-.158-.014-.237-.021-.061-.005-.1-.063-.124-.118-.01-.02,0-.057-.027-.06-.132-.018-.179-.137-.259-.215l.219-.322a.518.518,0,0,0,.273.116c.044,0,.056.052.07.088a.18.18,0,0,0,.271.054.354.354,0,0,1,.245-.106c.1.015.089-.112.16-.106s.134.022.172-.066a.154.154,0,0,1,.117-.1.065.065,0,0,1,.031.049c0,.067-.034.135.018.2a.041.041,0,0,1-.022.065c-.112.021-.111.1-.112.188C-932.154,690.8-932.157,690.845-932.211,690.846Z" transform="translate(941.686 -685.52)"/><path class="a" d="M-986.834,749.08a2.377,2.377,0,0,1,.39.135c.04.024.081.049.09.1a.079.079,0,0,1-.053.1c-.049.022-.1.049-.039.109s.086.106.152.027a.06.06,0,0,1,.042-.023c.019.086,0,.121-.077.132a.087.087,0,0,0-.083.07.234.234,0,0,1-.056.1.28.28,0,0,0-.091.223.111.111,0,0,1-.044.087,2.063,2.063,0,0,1-.257.234.273.273,0,0,0-.1.159.266.266,0,0,1-.089.14c-.036.025-.039.067-.05.105s-.025.114-.1.109a9.537,9.537,0,0,1,.173-1.023A6.707,6.707,0,0,1-986.834,749.08Z" transform="translate(988.48 -736.849)"/><path class="a" d="M-995.934,777.145a1.844,1.844,0,0,1-.055-.343c.122-.221.2-.462.314-.686.041-.081.11-.141.149-.222a1.273,1.273,0,0,0,.008-.2.132.132,0,0,1,.028-.1c.036-.01.034.021.041.041s0,.052.033.052.039-.022.053-.041a.885.885,0,0,0,.075-.15c.04-.081.081-.167.195-.163.018.011.038.02.041-.013s0-.073.007-.109a.1.1,0,0,1,.094-.1.123.123,0,0,0,.109-.072.1.1,0,0,1,.149-.039c.049.031.118.026.15.086a.042.042,0,0,1-.01.046,2.879,2.879,0,0,0-.313.453.274.274,0,0,1-.035.047,1.606,1.606,0,0,0-.388.474c-.111.157-.184.335-.3.494a1.832,1.832,0,0,0-.248.429C-995.85,777.078-995.856,777.147-995.934,777.145Z" transform="translate(996.152 -759.452)"/><path class="a" d="M-941.34,705.011a.216.216,0,0,0-.069.007c-.087.04-.137.045-.081-.073a.032.032,0,0,0-.015-.043.031.031,0,0,0-.048.018.1.1,0,0,1-.136.08.157.157,0,0,1-.093-.153c0-.092-.031-.148-.135-.139-.021,0-.061-.009-.063-.02-.026-.13-.187-.2-.156-.357a.358.358,0,0,0-.034-.162c-.019-.071-.063-.079-.125-.085a.1.1,0,0,1-.083-.129.65.65,0,0,0-.028-.273,1.228,1.228,0,0,1,.2-.237c.032-.019.049,0,.062.026.061.127.085.267.14.4a.075.075,0,0,1,0,.059.256.256,0,0,0,.05.27.979.979,0,0,0,.151.2.774.774,0,0,1,.177.286c.014.038.029.055.072.045a.591.591,0,0,0,.174-.046.236.236,0,0,1,.234-.037.073.073,0,0,0,.092-.044.507.507,0,0,1,.242-.2.644.644,0,0,0,.266-.221.076.076,0,0,1,.084-.017.427.427,0,0,1-.117.228,3.63,3.63,0,0,1-.438.458.288.288,0,0,0-.051.06c-.041.069-.087.106-.168.046C-941.3,704.905-941.305,704.992-941.34,705.011Z" transform="translate(949.389 -697.016)"/><path class="a" d="M-925.486,673.321a.16.16,0,0,0-.066.082.151.151,0,0,1-.156.1.135.135,0,0,0-.1.031.208.208,0,0,1-.186.054c-.066-.018-.106.072-.187.062a.4.4,0,0,1-.129-.028l.386-.7s.006-.006.008-.006c.17.045.294-.112.456-.1.043,0,.071-.034.094-.067a.505.505,0,0,1,.106-.1.644.644,0,0,1,.285-.134.269.269,0,0,0,.142-.09c.022-.024.042-.054.083-.044.017.09-.046.144-.095.2a2.339,2.339,0,0,0-.358.488A.516.516,0,0,1-925.486,673.321Z" transform="translate(935.342 -669.902)"/><path class="a" d="M-996.585,772.041c-.039.064-.011.134-.02.2-.006.041.015.086-.02.122-.073-.015-.112-.084-.176-.112a1.063,1.063,0,0,0-.1-.044c-.115-.06-.25-.088-.328-.205a10.789,10.789,0,0,1-.039-1.1,1.875,1.875,0,0,0,.7.672c.005.008.014.016.015.026A1.071,1.071,0,0,1-996.585,772.041Z" transform="translate(997.267 -755.896)"/><path class="a" d="M-987.586,753.78c.026-.01.055-.029.057-.052.01-.152.163-.232.187-.376.01-.058.054-.087.1-.122a2.438,2.438,0,0,0,.258-.244c.016-.016.007-.036.008-.055,0-.07,0-.143.071-.192a.2.2,0,0,0,.069-.107c.022-.068.023-.136.132-.109.045.011.057-.061.06-.109a.042.042,0,0,1,.04-.02.356.356,0,0,1-.034.335.345.345,0,0,0-.064.077c.016.029.041.011.061.011.056,0,.075.029.079.081a.387.387,0,0,1-.1.294.709.709,0,0,0-.106.168,2.507,2.507,0,0,0-.318.311.187.187,0,0,0-.086.079.245.245,0,0,1-.131.116.059.059,0,0,0-.039.029c-.049.122-.19.165-.242.284-.01.023-.032.045-.064.023A2.4,2.4,0,0,1-987.586,753.78Z" transform="translate(988.868 -739.742)"/><path class="a" d="M-918.854,660.617a1.8,1.8,0,0,1,.341.282c.009.031-.013.045-.031.062a2.089,2.089,0,0,0-.3.258.513.513,0,0,1-.205.134,1,1,0,0,0-.262.192.386.386,0,0,1-.167.1.394.394,0,0,0-.169.119c-.048.044-.1.085-.162.015l.3-.663c.1-.007.144-.088.206-.145C-919.168,660.843-919,660.749-918.854,660.617Z" transform="translate(929.674 -659.647)"/><path class="a" d="M-939.175,703.292a.413.413,0,0,1-.215.208.551.551,0,0,0-.293.241c-.028.06-.089.055-.139.027a.109.109,0,0,0-.143.02.364.364,0,0,1-.2.063.383.383,0,0,0-.108.036.488.488,0,0,0-.119-.258c-.044-.059-.054-.134-.149-.162-.033-.01-.057-.122-.1-.183a.361.361,0,0,1-.041-.265.673.673,0,0,0-.1-.343c-.02-.041.006-.116-.07-.129l.11-.139a.065.065,0,0,1,.058.048.8.8,0,0,1,.074.348c0,.042-.011.091.026.107s.056-.036.082-.059a.638.638,0,0,1,.046-.05c-.016.135.084.237.091.365.006.106.1.159.156.231.037.045.083.08.032.144a.041.041,0,0,0,0,.055c.021.018.037,0,.05-.016a.113.113,0,0,1,.167-.021.152.152,0,0,0,.169-.024c.074-.061.169-.062.243-.112a.077.077,0,0,1,.077,0,.085.085,0,0,0,.107-.028C-939.314,703.326-939.266,703.271-939.175,703.292Z" transform="translate(948.027 -696.119)"/><path class="a" d="M-921.89,663.984a.121.121,0,0,0,.157-.041.294.294,0,0,1,.2-.125.082.082,0,0,0,.06-.032c.058-.1.186-.119.25-.214a.1.1,0,0,1,.065-.043c.108,0,.166-.076.229-.143a1.979,1.979,0,0,1,.3-.245c.056.08.052.122-.021.175a3.019,3.019,0,0,0-.427.415c-.079.086-.125.209-.2.3a1.082,1.082,0,0,1-.257.2,2.146,2.146,0,0,0-.347.336.2.2,0,0,1-.31.034Z" transform="translate(931.75 -661.85)"/><path class="a" d="M-988.471,764.813c-.053,0-.077.038-.1.079a6.759,6.759,0,0,1,.055-.7.4.4,0,0,1,.111-.138c.071-.051.066-.151.12-.216.053-.047.127-.075.142-.159,0-.023.032-.033.054-.041a.572.572,0,0,0,.249-.2,2.037,2.037,0,0,1,.246-.235.144.144,0,0,1,.163-.045.533.533,0,0,0-.092.323c0,.036-.044.064-.075.089a2.146,2.146,0,0,0-.258.3,2.1,2.1,0,0,1-.284.407c-.052.059-.063.138-.111.2a.56.56,0,0,0-.142.236C-988.4,764.758-988.439,764.785-988.471,764.813Z" transform="translate(989.675 -749.129)"/><path class="a" d="M-923.141,669.3c.177.055.192.047.333-.107a1.238,1.238,0,0,1,.423-.356c.061-.025.088-.09.145-.119a.059.059,0,0,0,.045-.036c.068-.112.185-.117.3-.135.057-.009.036.041.049.078.067-.1.148-.141.254-.071a.45.45,0,0,1-.132.166c-.1.093-.2.174-.291.274a.066.066,0,0,1-.08.025c-.03,0-.046.019-.062.043a.3.3,0,0,1-.2.118.551.551,0,0,0-.336.218.2.2,0,0,1-.156.087.249.249,0,0,0-.205.081.081.081,0,0,1-.116.02.174.174,0,0,0-.106-.024A2.007,2.007,0,0,1-923.141,669.3Z" transform="translate(932.698 -666.541)"/><path class="a" d="M-995.559,781.518c.01-.008.028-.014.031-.024a5,5,0,0,1,.241-.453.21.21,0,0,1,.027-.054c.222-.277.353-.612.574-.889.042-.052.108-.064.154-.108.021.027.007.052-.009.073a3.133,3.133,0,0,0-.321.65c-.058.13-.1.271-.155.407a.322.322,0,0,1-.116.156,5.5,5.5,0,0,1-.4.4A.434.434,0,0,1-995.559,781.518Z" transform="translate(995.776 -763.825)"/><path class="a" d="M-996.23,780.951a.665.665,0,0,1,.261.179,2.29,2.29,0,0,0-.325.621.656.656,0,0,1-.154.262,3.489,3.489,0,0,1-.064-.539.179.179,0,0,1,.065-.166.284.284,0,0,0,.075-.136A.379.379,0,0,1-996.23,780.951Z" transform="translate(996.611 -764.663)"/><path class="a" d="M-960.023,707.307c-.118-.022-.153-.14-.229-.209-.232-.211-.448-.441-.671-.663-.026-.026-.055-.048-.082-.073.065-.067.133-.131.2-.2.042-.046.062-.029.086.015.1.181.21.357.3.541A3.983,3.983,0,0,0-960.023,707.307Z" transform="translate(965.62 -699.371)"/><path class="a" d="M-916.823,658.818c-.028.1-.122.134-.194.183a1.5,1.5,0,0,0-.345.3c-.045.058-.085.008-.125.019l.285-.764A2.1,2.1,0,0,1-916.823,658.818Z" transform="translate(927.643 -657.849)"/><path class="a" d="M-987.891,763.125a.606.606,0,0,1-.242.341,4.245,4.245,0,0,1,.062-.6c.038,0,.044-.036.059-.06.036-.056.067-.116.137-.14a.092.092,0,0,0,.052-.058.16.16,0,0,1,.123-.115c.049-.009.07-.068.1-.11s.045-.067.093-.06c0,.009.011.021.007.028a2.988,2.988,0,0,1-.209.368c-.022.029-.058.051-.046.092a.249.249,0,0,1-.093.257A.443.443,0,0,0-987.891,763.125Z" transform="translate(989.296 -748.405)"/><path class="a" d="M-953.035,708.482c0-.062-.08-.077-.08-.138a6.976,6.976,0,0,0,1.145-1.045c-.006.1-.105.14-.141.22a1.121,1.121,0,0,1-.2.266c-.024.032-.056.056-.081.087-.141.174-.312.319-.464.481C-952.921,708.394-952.948,708.479-953.035,708.482Z" transform="translate(958.735 -700.387)"/><path class="a" d="M-991.93,776.649c-.012-.155.022-.309.022-.464a.8.8,0,0,1,.355.2.315.315,0,0,0-.183.205.553.553,0,0,1-.076.139.089.089,0,0,1-.09.05c-.045-.009-.023-.055-.027-.085A.367.367,0,0,1-991.93,776.649Z" transform="translate(992.611 -760.504)"/><path class="a" d="M-996.617,779.7a5.1,5.1,0,0,1-.265.477.155.155,0,0,0-.017.046,4.947,4.947,0,0,1-.06-.7A1.474,1.474,0,0,0-996.617,779.7Z" transform="translate(996.998 -763.413)"/><path class="a" d="M-856.615,701.592c0-.041-.015-.085.015-.123A.216.216,0,0,1-856.615,701.592Z" transform="translate(874.522 -695.299)"/><path class="a" d="M-883.668,685.078c-.032.028-.069.012-.1.014A.165.165,0,0,1-883.668,685.078Z" transform="translate(898.22 -680.993)"/><path class="a" d="M-971.583,773.563a2.888,2.888,0,0,0,.99,1.427c.293.258.6.5.894.759.1.089.2.188.295.287a1.124,1.124,0,0,1,.287,1.058,3.133,3.133,0,0,0-.078.825c-.005-.009-.016-.018-.014-.026.033-.147-.061-.226-.152-.317q-3.024-3.018-6.044-6.04c-.032-.032-.056-.078-.11-.081-.008-.064.045-.084.084-.111.207-.141.409-.29.6-.45a.58.58,0,0,1,.2-.137c.02,0,.042.007.059-.006.1-.075.169-.019.241.053q1.3,1.3,2.592,2.6C-971.688,773.455-971.609,773.483-971.583,773.563Z" transform="translate(978.285 -755.731)"/><path class="a" d="M-988.954,775.108a2.488,2.488,0,0,0-.368.278c-.123.088-.223.206-.354.284-.037-.044-.016-.082.014-.115a4.227,4.227,0,0,0,.293-.412c.091-.127.193-.245.29-.365.111-.137.206-.283.309-.424.008-.011.012-.024.019-.035.1-.109.219-.187.321-.288a.228.228,0,0,0,.142-.082c.02-.027.046-.05.084-.026a.1.1,0,0,1-.022.136.108.108,0,0,0-.021.152.133.133,0,0,1-.027.187.156.156,0,0,0-.051.126.1.1,0,0,1-.046.1,2.685,2.685,0,0,1-.4.331A.843.843,0,0,0-988.954,775.108Z" transform="translate(990.66 -758.521)"/><path class="a" d="M-979.292,771.266a.161.161,0,0,0,.019-.105.149.149,0,0,1,.062-.147.088.088,0,0,0,.028-.134c-.042-.071-.082-.147.026-.206.039-.021.022-.072.024-.111a.066.066,0,0,1,.056-.037.42.42,0,0,0,.247-.118,3.121,3.121,0,0,0,.338-.208.081.081,0,0,1,.066-.018.181.181,0,0,0,.158-.066c.038-.038.08-.073.14-.042a.085.085,0,0,1,.008.1.153.153,0,0,0,.011.168,7.27,7.27,0,0,1-.627.464.213.213,0,0,0-.075.078,3.045,3.045,0,0,0-.385.315C-979.226,771.224-979.245,771.264-979.292,771.266Z" transform="translate(981.58 -755.16)"/><path class="a" d="M-990.937,777.153a1.381,1.381,0,0,1-.135.217,2.864,2.864,0,0,1-.3.4,4.766,4.766,0,0,0-.4.561c-.033.057-.121.08-.1.169-.046.087-.15.118-.2.2-.054.023-.074.094-.14.1a1.744,1.744,0,0,0,.226-.531,1.394,1.394,0,0,1,.108-.234,3.224,3.224,0,0,1,.268-.52l.02-.04a.129.129,0,0,0,.052-.044.176.176,0,0,1,.2-.1.1.1,0,0,0,.119-.067c.016-.038.049-.075.088-.071A.651.651,0,0,0-990.937,777.153Z" transform="translate(992.864 -761.349)"/><path class="a" d="M-908.514,696c.1.177.015.338-.04.5a.233.233,0,0,0-.1.184c0,.019,0,.042-.019.051s-.038-.005-.053-.019l-.043-.042c-.019-.019-.039-.041-.069-.028s-.024.046-.029.075a.267.267,0,0,0,.058.213c-.057,0-.1-.062-.138-.02a.186.186,0,0,0-.066.128c-.01.093-.045.135-.132.138a.113.113,0,0,0-.107.056c-.021.034-.044.071-.093.057a.088.088,0,0,1-.068-.088,4.146,4.146,0,0,1,.168-.446c.049-.105.071-.221.122-.326a.824.824,0,0,1,.056-.117.7.7,0,0,1,.158-.1c.094-.058.118-.165.192-.234C-908.651,695.98-908.584,696.015-908.514,696Z" transform="translate(920.598 -690.512)"/><path class="a" d="M-912.824,704.459a.076.076,0,0,0,.065.076c.039.005.042-.035.057-.059.03-.051.057-.081.131-.063s.1-.06.129-.115c.141.112.155.148.1.261-.046-.016-.072-.1-.132-.054s0,.1.022.148.028.056.008.09-.048.01-.074,0a.068.068,0,0,0-.094.042,1.024,1.024,0,0,0-.112.314c.018.073-.026.12-.072.165a.091.091,0,0,1-.043.025c-.088.018-.023.179-.131.156s-.132.048-.184.1-.117.029-.178.013a.121.121,0,0,1,0-.1,2.2,2.2,0,0,1,.152-.412,1.1,1.1,0,0,0,.142-.329.415.415,0,0,0,.131-.192C-912.892,704.491-912.874,704.456-912.824,704.459Z" transform="translate(924.025 -697.768)"/><path class="a" d="M-903.743,687.641c-.067.081-.134,0-.2,0a.23.23,0,0,1,.042-.159c.068-.146.152-.285.208-.438.015-.042.069-.053.085-.1a.564.564,0,0,1,.211-.214.941.941,0,0,0,.343-.272c.019-.029.043-.073.1-.045,0,.006.009.016.007.018-.125.127-.008.339-.166.463-.041.032-.063.111-.1.163a.11.11,0,0,0,.018.167c.069.063.136.128.2.193-.083.168-.083.168-.215.036l-.021-.021c-.142-.142-.143-.142-.225.038-.016.036-.037.06-.075.037s-.074-.075-.13-.033A.175.175,0,0,0-903.743,687.641Z" transform="translate(915.827 -682.155)"/><path class="a" d="M-901.531,682.886a.284.284,0,0,0-.141.141.162.162,0,0,1-.1.082c-.078.022-.121.109-.194.131-.1.03-.139.11-.185.189a.057.057,0,0,1-.085.023.077.077,0,0,1-.031-.089,1.079,1.079,0,0,1,.059-.159c.012-.031.017-.063-.031-.062-.07,0-.072-.043-.068-.094a.751.751,0,0,1,.081-.154c.04-.061.075-.129.16-.139.006,0,.015,0,.017-.009.077-.163.283-.178.374-.326.018-.029.039-.066.086-.054a3.18,3.18,0,0,1,.1.4A.1.1,0,0,1-901.531,682.886Z" transform="translate(914.399 -678.624)"/><path class="a" d="M-901.323,679.736c-.053.023-.065.082-.106.117s-.08.116-.174.111c-.056,0-.081.073-.112.119s-.051.075-.107.076c-.074,0-.075.086-.123.119-.076-.019-.062-.072-.041-.122a.74.74,0,0,1,.067-.11.086.086,0,0,0-.011-.124.09.09,0,0,1,.014-.1,3.643,3.643,0,0,1,.425-.465c.007-.007.019,0,.028,0a.273.273,0,0,1,.06.141Z" transform="translate(914.13 -675.997)"/><path class="a" d="M-916.1,711.068c.015-.006.034-.021.046-.017.086.028.125-.015.16-.087a.085.085,0,0,1,.127-.04c.052.029.072.014.07-.044a.087.087,0,0,1,.055-.1c.093-.025.114-.1.145-.176.073.045.088.095.067.189a1.756,1.756,0,0,0-.087.434.2.2,0,0,0-.125.2c0,.079-.085.129-.122.2a.979.979,0,0,1-.094.127.478.478,0,0,1-.167.179.192.192,0,0,1-.149-.046.107.107,0,0,0-.164.02c-.063.076-.125.062-.18-.025a4.043,4.043,0,0,1,.177-.44.862.862,0,0,0,.066-.134c.028-.049.039-.105.069-.153S-916.162,711.059-916.1,711.068Z" transform="translate(926.797 -703.273)"/><path class="a" d="M-915.114,719.75a.828.828,0,0,1,.161-.161c.065-.008.094.044.13.081l4.852,4.851q.475.475.95.951c.026.026.1.071-.012.081l-.42-.045a1.219,1.219,0,0,0-.279,0l-.381.048c-.064-.025-.089-.089-.133-.133q-2.555-2.552-5.107-5.107c-.042-.042-.1-.067-.129-.124A1.416,1.416,0,0,1-915.114,719.75Z" transform="translate(925.893 -711.112)"/><path class="a" d="M-967.624,711.192c.182-.222.391-.419.592-.623.038-.038.056-.04.088.01.15.24.276.494.417.739a3.256,3.256,0,0,0,.264.362.064.064,0,0,0,.107.013c.078-.062.159-.12.238-.18a1.468,1.468,0,0,1,.265.247.217.217,0,0,1,.049.216.067.067,0,0,0,0,.049c.06.1.06.233.155.317a.311.311,0,0,1,.108.288.21.21,0,0,1,.184-.014c.067.014.094.068.124.121.069.118.109.125.216.041.047-.037.082-.053.132.009s.133.049.2.03c.051-.014.092-.014.12.037.013.047-.023.063-.054.082s-.037.02-.032.044.029.033.051.041l.019,0c.119.021.121.026.057.129a.634.634,0,0,1-.292.139.891.891,0,0,0-.325.121c-.04.026-.079.065-.136.047a.134.134,0,0,1-.14-.073.134.134,0,0,0-.221-.037.1.1,0,0,1-.11.021c-.035-.016-.028-.045-.02-.077.018-.072-.041-.059-.073-.053-.084.015-.117-.044-.16-.093s-.114-.053-.089-.146c.013-.047-.063-.086-.071-.147-.012-.088-.086-.053-.137-.057-.077-.006-.1-.069-.135-.118s.019-.078.048-.109.038-.029.037-.061c-.038-.016-.05.018-.067.038s-.026.034-.048.021-.013-.034-.007-.053a.092.092,0,0,0-.032-.123.034.034,0,0,1-.013-.045c.041-.087-.015-.116-.076-.164-.081-.064-.139-.116-.23-.013-.038.043-.1.038-.129-.03a.278.278,0,0,0-.221-.193c-.026,0-.058-.022-.058-.049,0-.088-.085-.147-.076-.237,0-.041-.027-.054-.056-.057a.35.35,0,0,1-.229-.149C-967.465,711.368-967.576,711.307-967.624,711.192Z" transform="translate(971.398 -703.216)"/><path class="a" d="M-951.548,731.27a1.155,1.155,0,0,1,.4-.183.866.866,0,0,0,.342-.138l.011.008c.022.045.066.076.083.125a.727.727,0,0,1-.292.393c-.12.078-.271.124-.346.263-.093.056-.166.139-.26.195a1.015,1.015,0,0,0-.259.1c-.1.061-.171-.021-.242-.077-.016-.028-.025-.059.009-.077.109-.057.072-.119.011-.184,0-.016,0-.045.007-.047.129-.033.151-.187.278-.234C-951.718,731.378-951.639,731.308-951.548,731.27Z" transform="translate(957.871 -721.026)"/><path class="a" d="M-913.775,668c.084.055.113.154.179.223.029.073-.025.116-.069.15a4.3,4.3,0,0,0-.382.378,2.434,2.434,0,0,0-.513.592.346.346,0,0,1-.1.113.723.723,0,0,0-.288.247c-.039.055-.077.125-.164.122-.03-.052-.007-.094.02-.138.051-.081.106-.16.156-.241a.408.408,0,0,0,.071-.212,1.262,1.262,0,0,1,.193-.265,2.058,2.058,0,0,0,.316-.385.414.414,0,0,1,.124-.129.581.581,0,0,0,.167-.183,1.423,1.423,0,0,1,.23-.262C-913.815,667.993-913.795,668-913.775,668Z" transform="translate(925.579 -666.088)"/><path class="a" d="M-912.882,670.995a3.892,3.892,0,0,1,.473-.586,1.975,1.975,0,0,0,.375-.388.684.684,0,0,1,.147-.132.182.182,0,0,0,.068-.118,1.315,1.315,0,0,1,.181.26c.013.049-.022.072-.053.1-.191.156-.35.345-.524.518-.1.1-.156.25-.274.343a.077.077,0,0,1-.022.02,2.434,2.434,0,0,0-.5.39c-.024.018-.047.04-.08.019A.791.791,0,0,1-912.882,670.995Z" transform="translate(923.802 -667.636)"/><path class="a" d="M-919.1,666.25a2.387,2.387,0,0,0,.247-.222c.09-.074.17-.16.255-.24a.2.2,0,0,1,.056-.1,3.831,3.831,0,0,1,.346-.338l.06.062c.028.041-.006.069-.024.1a4.354,4.354,0,0,1-.4.457.357.357,0,0,0-.084.122.984.984,0,0,1-.223.374,4.892,4.892,0,0,1-.379.423c-.03.025-.051.062-.094.07a1.731,1.731,0,0,0-.247.255c-.078.089-.173.081-.255-.014a1.54,1.54,0,0,0,.353-.426,1.459,1.459,0,0,1,.276-.345A.77.77,0,0,0-919.1,666.25Z" transform="translate(929.698 -663.774)"/><path class="a" d="M-908.948,672.755a5.03,5.03,0,0,1,.463-.55,3.6,3.6,0,0,1,.354-.33.152.152,0,0,0,.046-.063,1.054,1.054,0,0,1,.161.261c0,.058-.051.068-.083.095s-.061.037-.086.062c-.2.2-.38.4-.567.6a.338.338,0,0,0-.063.09.271.271,0,0,1-.226.161c-.056-.037-.014-.115-.065-.154A1.826,1.826,0,0,1-908.948,672.755Z" transform="translate(920.249 -669.416)"/><path class="a" d="M-914.068,663.154c-.1.174-.3.27-.4.442-.077,0-.163-.051-.212.058-.011.024-.042.07-.075.049s0-.064.015-.1c-.135.018-.263.034-.338.161-.006.01-.024,0-.032-.011a1.854,1.854,0,0,1,.4-.514c.092-.066.143-.179.253-.233.059-.029.016-.089.01-.135l.04-.039A1.739,1.739,0,0,1-914.068,663.154Z" transform="translate(925.57 -661.582)"/><path class="a" d="M-912.273,666.876a1.361,1.361,0,0,0,.219-.394c.025-.1.129-.137.184-.216.093-.135.241-.226.316-.378.009-.017.016-.036.024-.053a1.526,1.526,0,0,1,.242.278,1.11,1.11,0,0,0-.262.283.724.724,0,0,1-.3.2.394.394,0,0,0-.179.154.325.325,0,0,1-.138.127C-912.2,666.89-912.239,666.907-912.273,666.876Z" transform="translate(923.093 -664.2)"/><path class="a" d="M-906.994,675.894a.114.114,0,0,1,.04.08,6.559,6.559,0,0,1-.395.541,1.119,1.119,0,0,0-.283.276.306.306,0,0,1-.169.131.2.2,0,0,0-.1.078c-.053.057-.09.134-.18.145-.039-.023-.036-.056-.021-.092a.9.9,0,0,1,.1-.146,4.258,4.258,0,0,1,.3-.394,2.87,2.87,0,0,1,.343-.347.928.928,0,0,0,.259-.238A.1.1,0,0,1-906.994,675.894Z" transform="translate(919.46 -672.977)"/><path class="a" d="M-906.369,674.123a.233.233,0,0,0-.149.131c-.035.075-.122.094-.184.139a1.594,1.594,0,0,0-.242.238,1.956,1.956,0,0,0-.377.49.053.053,0,0,1-.051.026.09.09,0,0,1,.012-.126,1,1,0,0,0,.141-.239,4.592,4.592,0,0,1,.53-.779l.181-.141A.919.919,0,0,1-906.369,674.123Z" transform="translate(918.834 -671.206)"/><path class="a" d="M-905.558,679.107c-.13.147-.281.275-.4.432-.029.038-.068.074-.062.13a.038.038,0,0,1-.01.046c-.162.15-.282.336-.428.5a.48.48,0,0,0-.1.182c-.022.072-.064.091-.126.041a.079.079,0,0,1,.019-.092c.091-.106.073-.241.1-.364a.3.3,0,0,1,.115-.221.968.968,0,0,0,.3-.272,1.274,1.274,0,0,1,.211-.175,2.986,2.986,0,0,0,.29-.2c.021-.021.039-.046.074-.045A.042.042,0,0,1-905.558,679.107Z" transform="translate(918.224 -675.748)"/><path class="a" d="M-903.857,676.865a.938.938,0,0,1-.222.17,1.637,1.637,0,0,0-.466.412.363.363,0,0,1-.175.121c-.012-.05.024-.081.05-.113a1.282,1.282,0,0,0,.175-.276.311.311,0,0,1,.1-.113c.106-.146.214-.292.319-.438a.259.259,0,0,1,.083-.083A.974.974,0,0,1-903.857,676.865Z" transform="translate(916.504 -673.547)"/><path class="a" d="M-870.461,831.209a.429.429,0,0,1,.014-.165C-870.45,831.1-870.428,831.156-870.461,831.209Z" transform="translate(886.604 -808.379)"/><path class="a" d="M-969.831,742.69a.276.276,0,0,1,.146-.211.322.322,0,0,0,.1-.1c.03-.052.057-.112.136-.116a.07.07,0,0,0,.056-.073c.07-.137.235-.139.336-.234.036-.034.078.054.126.013a.481.481,0,0,0,.239-.047c.075-.034.153-.046.2.047a.089.089,0,0,1-.047.083c-.078.048-.059.1-.01.154a.854.854,0,0,1,.059.068.077.077,0,0,1-.014.121.527.527,0,0,1-.339.169.218.218,0,0,0-.121.064.3.3,0,0,1-.167.08c-.057-.029-.106-.038-.154.026a.087.087,0,0,1-.146,0,.369.369,0,0,0-.137-.076.1.1,0,0,0-.125.023A.088.088,0,0,1-969.831,742.69Z" transform="translate(973.324 -730.579)"/><path class="a" d="M-960.178,739.421c.032-.013.037-.036.018-.063a.468.468,0,0,0-.044-.053c-.113-.12-.113-.12,0-.233a.666.666,0,0,0,.044-.053,1.016,1.016,0,0,0,.392-.178.084.084,0,0,1,.063-.022.271.271,0,0,0,.229-.093c.076-.062.188-.072.239-.169a.275.275,0,0,0,.34,0,.428.428,0,0,1,.162-.042.025.025,0,0,1,0,.028c-.15.137-.283.291-.429.431a1.763,1.763,0,0,1-.393.288c-.085.047-.163.1-.245.152a.236.236,0,0,0-.248.02C-960.114,739.478-960.136,739.467-960.178,739.421Z" transform="translate(964.995 -727.632)"/><path class="a" d="M-970.848,724.936c-.073-.011-.117-.016-.16-.025a.034.034,0,0,1-.03-.043.031.031,0,0,1,.046-.023A.389.389,0,0,1-970.848,724.936Z" transform="translate(974.377 -715.696)"/><path class="a" d="M-980.87,750.3a.366.366,0,0,1,.095-.169.392.392,0,0,0,.1-.3c0-.065-.041-.055-.083-.041s-.066.022-.083,0,.019-.055.039-.071a.4.4,0,0,0,.108-.377c.006-.019.009-.051.02-.054.145-.041.19-.217.341-.248.05.072.117.051.17.016a.53.53,0,0,1,.213-.076c.016,0,.042,0,.048-.008.08-.123.19-.065.292-.052a.077.077,0,0,1-.018.092c-.074.066-.127.163-.2.212-.094.061-.119.19-.238.216a.022.022,0,0,0-.014.024c.03.128-.071.19-.132.273a.3.3,0,0,0-.017.036c-.045.058-.076.13-.156.154a.208.208,0,0,0-.146.14.586.586,0,0,1-.176.215C-980.755,750.313-980.808,750.344-980.87,750.3Z" transform="translate(982.957 -736.682)"/><path class="a" d="M-975.981,748.521c0-.046.042-.065.066-.1.048-.061.113-.115.073-.207-.016-.038,0-.056.042-.051.018,0,.048,0,.054-.017.047-.094.142-.141.2-.217a.521.521,0,0,1,.134-.139c.047-.026.049-.076.071-.116.055-.03.082-.094.141-.12.054.008.108.027.14-.046a.073.073,0,0,1,.105-.027c.06.037.139.034.185.106.029.047.083.039.112-.015.046-.085.1-.083.16-.018.007.052-.035.075-.069.085-.157.044-.216.178-.292.3-.04.064-.052.147-.122.192a.283.283,0,0,0-.108.07.39.39,0,0,1-.4.135.314.314,0,0,0-.276.091C-975.825,748.48-975.884,748.548-975.981,748.521Z" transform="translate(978.691 -735.447)"/><path class="a" d="M-947.794,709.371l.3-.342c.06.071.068.171.133.24a.072.072,0,0,1,0,.066c-.093.156.014.252.11.342.042.039.061.065.046.124s.022.1.073.137.176.053.087.173c-.023.031.022.036.046.044.075.025.155.049.079.153-.019.027,0,.052.015.072s.045.01.064,0a.225.225,0,0,1,.312.027.11.11,0,0,0,.18-.011.1.1,0,0,1,.078-.039c.012.04-.019.06-.04.084-.085.093-.085.1.008.176.023.02.048.037.04.073a.812.812,0,0,1-.414.11.134.134,0,0,0-.11.032c-.087.082-.206.068-.31.1-.034.011-.062-.021-.085-.045a.736.736,0,0,0-.269-.195c-.109-.042-.133-.094-.093-.2.031-.084-.013-.157-.012-.236,0-.042-.038-.022-.062-.017-.121.025-.145,0-.142-.123a.411.411,0,0,0-.043-.213.13.13,0,0,1,0-.141.177.177,0,0,0,.007-.173A.24.24,0,0,1-947.794,709.371Z" transform="translate(954.117 -701.897)"/><path class="a" d="M-934.035,708.347c.022-.125.05-.14.137-.065.057.049.073,0,.1-.029.1-.111.2-.226.315-.331a1.227,1.227,0,0,0,.228-.273.6.6,0,0,1,.1-.144c.009-.019.022-.031.045-.019s.019.053.035.025c.04-.072.112-.084.175-.116a.827.827,0,0,0,.142-.106c.022-.017.05-.056.075,0a.653.653,0,0,1-.163.281c-.109.131-.159.3-.276.426-.042.046-.081.1-.127.14a1.318,1.318,0,0,0-.2.249,1.845,1.845,0,0,0-.469.259.045.045,0,0,1-.064.005C-933.879,708.525-933.943,708.433-934.035,708.347Z" transform="translate(942.084 -700.352)"/><path class="a" d="M-936.251,716.249c.015-.006.035-.007.045-.017a1.335,1.335,0,0,1,.477-.263.037.037,0,0,1,0,.053c-.071.076-.033.134.028.19a.079.079,0,0,1-.06.107.225.225,0,0,0-.137.1.328.328,0,0,1-.161.126c-.12.038-.2.144-.328.174-.043.01-.083.046-.129.01-.012-.032-.043-.039-.069-.055a.1.1,0,0,1-.018-.171c.031-.03.058-.064.087-.1.026-.062.046-.135.135-.059.034.029.057.006.063-.028S-936.3,716.251-936.251,716.249Z" transform="translate(944.361 -707.952)"/><path class="a" d="M-925.591,689.172l.06-.08c.023-.045.049-.086.107-.09a.063.063,0,0,0,.051-.028c.048-.1.153-.15.207-.238a2.641,2.641,0,0,1,.253-.321c.033-.039.065-.088.131-.061a.238.238,0,0,1-.045.188,2.839,2.839,0,0,0-.179.471,1.917,1.917,0,0,1-.333.531c-.062.115-.165.2-.232.309a.216.216,0,0,1-.062.065.328.328,0,0,0-.124.153c-.016.041-.04.082-.1.047.055-.139-.082-.13-.14-.181a.548.548,0,0,1,.244-.328.063.063,0,0,0,.031-.078c-.035-.076.008-.12.049-.176A.82.82,0,0,0-925.591,689.172Z" transform="translate(935.065 -683.846)"/><path class="a" d="M-928.7,698.257c.046.006.068-.021.077-.06a.248.248,0,0,1,.118-.152c.04-.026.062-.077.093-.11.078-.082.133-.182.214-.261a.06.06,0,0,1,.008.074.487.487,0,0,0-.052.28.323.323,0,0,0-.048.181c0,.013,0,.031-.009.038-.111.072-.122.216-.224.3-.078.064-.109.172-.178.25a.708.708,0,0,0-.2.285.056.056,0,0,1-.044.038l-.04.02a.134.134,0,0,0-.08.02c-.073.01-.12.068-.181.1,0-.008-.015-.022-.014-.023.089-.083.081-.217.164-.3.054-.057.023-.118-.01-.175,0-.045.044-.056.072-.074s.049-.066.074-.1C-928.866,698.479-928.835,698.326-928.7,698.257Z" transform="translate(937.911 -691.988)"/><path class="a" d="M-952.674,717.1c-.033-.021-.057-.045-.105-.014-.064.043-.142-.011-.213.007,0,0-.02-.018-.021-.029-.015-.117-.062-.051-.1-.017-.108.1-.176.091-.241-.047a.209.209,0,0,0-.179-.133.121.121,0,0,0-.1.039.036.036,0,0,1-.046,0c-.016-.012-.011-.028-.005-.045a.224.224,0,0,0-.082-.263c-.011-.008-.03-.013-.032-.022-.031-.134-.161-.236-.122-.392a.2.2,0,0,0-.085-.218c-.1-.051-.135-.148-.209-.215l.221-.2.161-.14a.442.442,0,0,0,.168-.007c.113-.023.16.025.133.135a.183.183,0,0,0,.033.178.169.169,0,0,1,.042.148c-.011.067.015.092.086.072.1-.028.107-.009.1.087a.27.27,0,0,0,.1.252c.008.006.019.012.021.021.043.166.191.164.316.192a.5.5,0,0,1,.2.1c.11.084.242.138.353.224.008.006.016.011.024.018.011.087-.046.09-.106.079s-.1-.007-.088.071c.006.047-.02.083-.069.074A.226.226,0,0,0-952.674,717.1Z" transform="translate(959.7 -707.454)"/><path class="a" d="M-919.082,670.719a.234.234,0,0,0,.206-.121.449.449,0,0,1,.258-.207c.1-.03.167-.113.259-.154a.652.652,0,0,1-.181.2.393.393,0,0,0-.137.157.923.923,0,0,1-.2.254,4.3,4.3,0,0,0-.281.336,1.9,1.9,0,0,1-.356.423c-.076.078-.151.158-.226.236a2.7,2.7,0,0,0-.273.243c-.005.007-.018.005-.028,0h-.02a.13.13,0,0,1,.081-.179.278.278,0,0,0,.173-.182.921.921,0,0,1,.246-.408c.028-.028.051-.054.023-.094.1-.132.241-.23.338-.367C-919.171,670.8-919.153,670.736-919.082,670.719Z" transform="translate(929.901 -668.043)"/><path class="a" d="M-921.356,678.551c.114-.13.269-.219.378-.349.078-.094.17-.174.249-.267a2.735,2.735,0,0,1,.256-.287c.024.149-.085.244-.146.357-.043.079-.129.139-.115.245.016.044-.015.069-.039.1a5.458,5.458,0,0,0-.352.445c-.058.078-.128.151-.195.225a.456.456,0,0,0-.157.235c0,.033-.031.07-.08.044a.041.041,0,0,1-.02-.04c0-.058.037-.113.007-.175-.018-.037.023-.047.047-.063.061-.042.121-.083.095-.174-.01-.033.022-.054.038-.077A.21.21,0,0,0-921.356,678.551Z" transform="translate(931.212 -674.51)"/><path class="a" d="M-922.3,680.808c.075-.008.069-.074.077-.121a.12.12,0,0,1,.058-.1.3.3,0,0,0,.086-.081c.153-.19.316-.373.451-.577.041-.062.12-.093.151-.167a1.55,1.55,0,0,0,.244-.271.338.338,0,0,1,.2-.11l-.2.422a1.471,1.471,0,0,1-.129.248c-.083.144-.181.279-.257.428-.011.021-.019.053-.056.046a1.143,1.143,0,0,0-.292.3c-.051.063-.072.145-.155.188a.176.176,0,0,0-.089.114.079.079,0,0,1-.068.065.268.268,0,0,0-.14.072c-.014-.1-.029-.2.12-.207.022,0,.025-.037.009-.049C-922.383,680.947-922.315,680.877-922.3,680.808Z" transform="translate(931.957 -676.025)"/><path class="a" d="M-987.808,767.746c.07-.1.1-.211.17-.313.137-.215.3-.414.433-.63.137-.095.24-.241.416-.276a.283.283,0,0,1,.127-.011c.053.083.052.138-.016.191-.091.07-.135.183-.233.245a.049.049,0,0,0-.019.045.262.262,0,0,1-.118.229.432.432,0,0,0-.1.17.34.34,0,0,1-.076.116c-.075.05-.1.152-.18.194-.056-.049-.134-.047-.194-.092-.036-.026-.071.014-.081.049A.1.1,0,0,1-987.808,767.746Z" transform="translate(989.012 -752.062)"/><path class="a" d="M-986.994,770.448c.053-.068.082-.154.161-.2.005,0,.013-.006.016-.011.067-.134.2-.2.3-.3a.477.477,0,0,1,.205-.152.571.571,0,0,0,.126-.078c.041-.025.08-.063.136-.041a.49.49,0,0,1-.1.263.2.2,0,0,0-.043.218c-.025.092-.106.133-.174.186-.075.121-.207.181-.3.281-.054.036-.093.1-.18.056-.043-.022-.087.024-.1.073a.088.088,0,0,1-.11.072c-.086-.009-.164,0-.2.094-.011.028-.043.026-.07.026A2.236,2.236,0,0,1-986.994,770.448Z" transform="translate(988.599 -754.804)"/><path class="a" d="M-985.555,757.212c.165.006.236-.114.306-.232.044-.073.07-.162.176-.169a.118.118,0,0,1-.047.178.326.326,0,0,0-.148.382.1.1,0,0,1-.027.109.244.244,0,0,0-.073.118.069.069,0,0,1-.025.036c-.168.022-.254.157-.361.262a.96.96,0,0,1-.21.2c-.061.032-.135.042-.145.139-.006.052-.088.05-.127.086-.009-.066.047-.1.079-.143a.14.14,0,0,0,.03-.145c-.021-.059-.014-.111.056-.136.017-.006.041-.024.042-.039.013-.137.132-.218.174-.339C-985.8,757.37-985.661,757.307-985.555,757.212Z" transform="translate(987.642 -743.595)"/><path class="a" d="M-982.635,758.413v-.04a1.58,1.58,0,0,1,.355-.328c.129-.112.3-.126.427-.243.059-.057.162-.033.23-.089a.058.058,0,0,1,.057,0c.019.067-.033.089-.076.11s-.065.054-.033.1a.114.114,0,0,1-.021.155,2.376,2.376,0,0,1-.261.286.181.181,0,0,0-.06.065.224.224,0,0,1-.184.173c-.027,0-.04.033-.058.053a.533.533,0,0,1-.274.179,1.012,1.012,0,0,0-.489.258.316.316,0,0,1-.053.023,1.268,1.268,0,0,1,.246-.3c.064-.055.12-.1.081-.2a.112.112,0,0,1,.052-.138A.156.156,0,0,0-982.635,758.413Z" transform="translate(984.883 -744.375)"/><path class="a" d="M-949.637,713.622c-.078.011-.123-.058-.168-.094-.087-.07-.215-.072-.276-.183a.128.128,0,0,0-.108-.04c-.086.013-.154-.076-.24-.033-.021-.057-.1-.061-.111-.128,0-.019-.006-.053-.014-.055-.089-.016-.081-.089-.1-.151s-.055-.1-.015-.155a.035.035,0,0,0-.009-.053c-.02-.014-.039,0-.055.007-.037.024-.072.051-.115.013s-.03-.077-.015-.119a.084.084,0,0,0-.028-.1.184.184,0,0,1-.049-.218c.031-.088,0-.115-.1-.1-.06.007-.128.068-.181-.015l.347-.358c.039-.04.077-.082.115-.124a.463.463,0,0,0,.042.252.14.14,0,0,1-.03.147c-.028.04-.021.068,0,.114a.352.352,0,0,1,.044.247c-.006.026-.026.05,0,.071a.087.087,0,0,0,.092.014c.11-.045.088-.037.115.076a.586.586,0,0,1-.008.256c-.014.079.1.164.2.161.018,0,.047-.019.048.01.005.089.1.1.133.167.01.019.032.036.049.025.1-.067.248,0,.318-.134.012-.023.038-.016.063-.015.1,0,.215.033.306-.053.038-.036.1.008.14-.034a.612.612,0,0,0,.351-.175c.03-.038.073-.022.111-.025a.068.068,0,0,1-.014.091.962.962,0,0,1-.24.25.21.21,0,0,0-.087.094.17.17,0,0,1-.145.092.207.207,0,0,0-.127.071A1.289,1.289,0,0,1-949.637,713.622Z" transform="translate(957.084 -704.241)"/><path class="a" d="M-924.143,738.761a2.255,2.255,0,0,1-.778.411.7.7,0,0,1-.392-.026c0-.064-.049-.092-.085-.129l-3.681-3.682c-.182-.182-.365-.363-.546-.546a.5.5,0,0,0-.16-.117c-.006-.082.074-.1.109-.158.205-.193.385-.41.585-.609.021-.021.035-.049.069-.052s.075.042.1.072q2.358,2.357,4.714,4.715C-924.171,738.672-924.113,738.7-924.143,738.761Z" transform="translate(938.374 -723.56)"/><path class="a" d="M-919.629,724.325a.839.839,0,0,1,.169.139l5.054,5.054a.785.785,0,0,1,.138.17,4.155,4.155,0,0,0-.806.313.343.343,0,0,1-.132-.1l-4.743-4.742a.526.526,0,0,1-.042-.043c-.064-.081-.134-.143-.245-.083-.021-.044.01-.069.035-.095a1.155,1.155,0,0,0,.116-.136c.118-.125.232-.253.346-.383C-919.708,724.38-919.688,724.327-919.629,724.325Z" transform="translate(930.047 -715.245)"/><path class="a" d="M-923.368,729.423c.106-.084.106-.085.205.014l4.885,4.885c.024.024.045.049.068.074l-.613.369-.129.076c0-.043-.035-.063-.06-.088l-4.75-4.75c-.021-.021-.045-.039-.068-.058a.028.028,0,0,1-.005-.027c.12-.141.238-.284.356-.426C-923.451,729.459-923.426,729.412-923.368,729.423Z" transform="translate(933.184 -719.64)"/><path class="a" d="M-934.875,740.24a.138.138,0,0,1,.123.052q2.169,2.171,4.338,4.341c.018.018.1.047.011.086a1.3,1.3,0,0,1-.47-.187,4.337,4.337,0,0,1-.74-.58,7.765,7.765,0,0,0-.627-.531,1.759,1.759,0,0,0-1.2-.371c-.03,0-.06,0-.09,0a1.227,1.227,0,0,1-.109-.1l-1.842-1.842a.856.856,0,0,0-.138-.115c.027-.091.119-.127.169-.2.165-.155.314-.324.47-.487C-934.952,740.273-934.929,740.228-934.875,740.24Z" transform="translate(943.467 -729.133)"/><path class="a" d="M-965.529,768.593a3.907,3.907,0,0,1-.478-.451q-1.143-1.138-2.281-2.281c-.069-.069-.129-.144-.233-.053-.01.009-.038,0-.057-.005-.008-.038.025-.053.046-.07.28-.221.553-.452.832-.674a.174.174,0,0,1,.06-.035c.072-.015.11.038.152.079q.614.612,1.227,1.226c.278.279.56.555.834.838a4.13,4.13,0,0,0-.143.907A2.561,2.561,0,0,0-965.529,768.593Z" transform="translate(972.231 -750.761)"/><path class="a" d="M-958.95,761.539c-.05,0-.073-.044-.1-.073l-1.983-1.981c-.034-.034-.062-.082-.123-.073,0-.082.078-.093.118-.14l.022-.016a1.077,1.077,0,0,0,.123-.1c.209-.166.4-.354.609-.518a.248.248,0,0,1,.111-.064.185.185,0,0,1,.138.07q.825.823,1.647,1.648c.025.025.06.047.045.092a3.79,3.79,0,0,0-.553,1.018C-958.914,761.447-958.932,761.492-958.95,761.539Z" transform="translate(965.755 -745.132)"/><path class="a" d="M-951.6,755.683c-.024-.028-.045-.058-.07-.083l-1.62-1.621a.233.233,0,0,0-.14-.089c0-.086.1-.1.132-.155.205-.169.422-.324.636-.482a.3.3,0,0,1,.112-.064.135.135,0,0,1,.123.053q.8.8,1.6,1.6c.023.023.053.044.044.084a2.556,2.556,0,0,0-.421.336A4.243,4.243,0,0,0-951.6,755.683Z" transform="translate(959.012 -740.434)"/><path class="a" d="M-940.094,746.052c.046-.007.073.023.1.052l1.932,1.933c.023.023.053.043.053.081l-.075,0c-.033.018-.071,0-.1.015a4.686,4.686,0,0,0-.784.184c-.118-.108-.228-.225-.341-.338q-.677-.675-1.352-1.352c-.035-.035-.08-.063-.085-.119.041-.094.14-.117.214-.17.116-.083.236-.16.343-.254C-940.164,746.063-940.136,746.036-940.094,746.052Z" transform="translate(947.943 -734.203)"/><path class="a" d="M-945.765,749.64c.026.03.051.061.08.089l1.613,1.615c.03.03.072.052.074.1a4.783,4.783,0,0,0-.744.378c-.122-.124-.242-.249-.365-.372l-1.284-1.284c-.033-.033-.06-.074-.116-.066-.01-.029.016-.039.03-.055a.453.453,0,0,1,.054-.044c.189-.117.377-.233.57-.343C-945.826,749.644-945.8,749.612-945.765,749.64Z" transform="translate(952.972 -737.328)"/><path class="a" d="M-870.317,765.951a.511.511,0,0,1,.279,0Z" transform="translate(886.478 -751.556)"/><path class="a" d="M-920.624,762.34c.031-.029.069-.013.1-.015A.175.175,0,0,1-920.624,762.34Z" transform="translate(930.381 -748.406)"/><path class="a" d="M-969.242,763.664c-.031.063-.113.074-.141.141l-.943.763a.884.884,0,0,0-.181.14c-.061-.03-.108-.06-.046-.138a.168.168,0,0,0,.026-.123c0-.006-.007-.014,0-.018a1.892,1.892,0,0,1,.354-.434c.05-.038.094-.083.141-.124.01-.009.021-.025.031-.024.149.016.21-.118.312-.182a.8.8,0,0,1,.312-.057A.129.129,0,0,1-969.242,763.664Z" transform="translate(973.979 -749.526)"/><path class="a" d="M-978.04,765.658c-.057.1-.177.131-.242.227-.078.117-.173.224-.26.335-.01,0-.024,0-.029,0a1.934,1.934,0,0,1-.369.183,4.338,4.338,0,0,0-.441.269c-.04.029-.109.02-.164.029a.068.068,0,0,0-.062.043.142.142,0,0,1-.159.077c.033-.078.123-.106.161-.181a.125.125,0,0,1,.048-.083c.172-.107.311-.255.471-.377s.324-.225.48-.345a.209.209,0,0,1,.095-.028,1.037,1.037,0,0,1,.38-.161A.08.08,0,0,1-978.04,765.658Z" transform="translate(981.994 -751.299)"/><path class="a" d="M-906.977,687.739c.009.041,0,.088.076.065.048-.015.071.021.046.074s-.044.1-.068.155c-.014.032-.023.064,0,.092s.055.008.082,0a2,2,0,0,0-.235.43,2.31,2.31,0,0,1-.126.252.64.64,0,0,1-.187.244.887.887,0,0,1-.154.078c-.087-.036-.1-.092-.059-.212-.018.019-.032.05-.069.026a.046.046,0,0,1,0-.048,1.774,1.774,0,0,0,.163-.326,1.2,1.2,0,0,0,.152-.341,2.893,2.893,0,0,0,.3-.419C-907.033,687.777-907.025,687.734-906.977,687.739Z" transform="translate(919.081 -683.316)"/><path class="a" d="M-912.443,696.576c.048-.016.044-.093.116-.091-.035.093-.112.187,0,.272l-.341.883c-.073.052-.065.152-.124.214-.023.024-.037.053-.076.047-.09-.063-.015-.146-.027-.234-.048.112-.161.163-.181.281a.049.049,0,0,1-.077.034.184.184,0,0,1,.01-.137c.079-.143.136-.3.2-.444a1.835,1.835,0,0,0,.176-.418,1.063,1.063,0,0,0,.227-.336A.124.124,0,0,1-912.443,696.576Z" transform="translate(923.864 -690.949)"/><path class="a" d="M-916.341,705.794c.015-.006.042-.012.043-.019.005-.125.124-.179.171-.279.011-.024.026-.075.069-.055s0,.053,0,.079c-.01.065-.042.129,0,.193a.372.372,0,0,1-.062.226,1.938,1.938,0,0,0-.239.617c-.1.049-.1.167-.161.241-.032-.014-.032-.042-.025-.068a.551.551,0,0,0,0-.2c-.068.03-.087.1-.128.147s-.088.071-.14.011c-.018-.057.015-.1.033-.151a1.209,1.209,0,0,0,.062-.2,3.745,3.745,0,0,1,.219-.424c.026-.03.038-.067.062-.1S-916.385,705.761-916.341,705.794Z" transform="translate(927.061 -698.761)"/><path class="a" d="M-907.331,684.3c-.087.131-.177.261-.26.394a.293.293,0,0,1-.1.088.319.319,0,0,0-.058.069c-.039.067-.077.128-.171.076-.037-.021-.058.017-.079.044s-.032.07-.081.046c-.009-.087.053-.148.084-.219s.064-.16.1-.236c.062.023.1.017.1-.064a.278.278,0,0,1,.066-.131c.124-.159.27-.3.38-.473.025-.04.091-.043.112-.095.1.009.063.073.044.121a.409.409,0,0,1-.07.1.087.087,0,0,0,.006.137Z" transform="translate(919.436 -679.877)"/><path class="a" d="M-920.924,713.83c.085.044.119-.03.142-.078a.4.4,0,0,1,.139-.141v.32c-.017.124-.135.2-.144.33a.638.638,0,0,1-.1.232.606.606,0,0,1-.068.162.089.089,0,0,1-.09.05.7.7,0,0,1-.087-.045c-.038-.018-.072-.015-.093.025a.172.172,0,0,1-.113.088.156.156,0,0,0-.082.068c-.024.031-.046.067-.1.057-.057-.057-.017-.117,0-.174.01-.038.036-.07.046-.108a.512.512,0,0,1,.1-.163.39.39,0,0,0,.1-.169.045.045,0,0,1,.015-.026c.138-.107.185-.278.289-.408C-920.955,713.835-920.943,713.823-920.924,713.83Z" transform="translate(931.181 -705.894)"/><path class="a" d="M-919.662,720.353c.057,0,.079-.048.094-.092a.288.288,0,0,1,.067-.109c.056.076.114.085.151.011.055-.111.123-.062.185-.023a.228.228,0,0,0,.146.052l-.361.442a5.808,5.808,0,0,1-.442.482c-.122-.013-.157-.071-.123-.2.073-.083.087-.2.167-.282.028-.029.016-.07.014-.106A.153.153,0,0,1-919.662,720.353Z" transform="translate(929.799 -711.554)"/><path class="a" d="M-942.473,723.9c.075-.1.187-.166.27-.26a.1.1,0,0,1,.086-.041.136.136,0,0,0,.146-.08c.059-.052.105-.013.144.026s.087.087.127.135a.1.1,0,0,1-.01.074.458.458,0,0,1-.157.17c-.115.1-.257.151-.373.248a.933.933,0,0,1-.3.156.633.633,0,0,0-.227.1c-.025.021-.056.04-.091.014l.042-.09c-.059,0-.111.018-.157-.017-.021-.016-.047-.026-.044-.059a.059.059,0,0,1,.049-.055c.031-.01.066-.017.07-.06a.1.1,0,0,1,.143-.07c.058.019.079-.009.055-.061-.015-.033-.02-.053.013-.075s.053-.038.089-.015C-942.539,723.982-942.5,723.957-942.473,723.9Z" transform="translate(949.92 -714.524)"/><path class="a" d="M-951.539,734.971c.108-.072.157-.2.262-.275a1.93,1.93,0,0,0,.179-.167.925.925,0,0,1,.241-.181c.049-.073.107-.12.2-.075a.042.042,0,0,0,.039,0c.1-.076.244-.07.337-.166a.182.182,0,0,1,.111-.064.29.29,0,0,0,.137-.058.121.121,0,0,1,.139-.025.089.089,0,0,1-.047.117.137.137,0,0,0-.068.124c0,.1-.1.147-.129.229a1.335,1.335,0,0,1-.406.31c-.078.043-.11.122-.18.165a.2.2,0,0,1-.1,0,1.449,1.449,0,0,0-.463.032c-.05.009-.083.055-.13.072S-951.517,735.051-951.539,734.971Z" transform="translate(957.36 -723.644)"/><path class="a" d="M-945.213,730.037a.18.18,0,0,0-.138.047c-.022.019-.051.047-.075.045a.25.25,0,0,0-.2.111.1.1,0,0,1-.089.037.156.156,0,0,0-.12.043.17.17,0,0,1-.21.032c-.07-.033-.077.064-.131.065a.16.16,0,0,1,.1-.117c.1-.05.182-.128.282-.182a.64.64,0,0,0,.262-.363.5.5,0,0,1,.391-.1c.013,0,.03.009.039,0,.117-.1.293-.077.409-.183.024-.022.05-.047.088-.023-.011.072-.07.126-.071.2a1.8,1.8,0,0,1-.478.376A.05.05,0,0,1-945.213,730.037Z" transform="translate(952.681 -719.713)"/><path class="a" d="M-940.761,725.116c-.043,0-.064.033-.089.059a.167.167,0,0,1-.13.065.227.227,0,0,0-.162.052.19.19,0,0,1-.218.037c-.042-.022-.124.01-.176.039a.473.473,0,0,1-.148.049c-.044-.029-.086-.059-.08-.12.094-.02.152-.12.253-.121.119,0,.181-.125.3-.13.024,0,.051-.031.069-.053a.285.285,0,0,1,.154-.1.271.271,0,0,0,.116-.075.286.286,0,0,1,.137-.091c.06-.013.068-.085.1-.133a.116.116,0,0,1,.131-.006c.071.04.119.011.158-.048s.08-.088.149-.055a.29.29,0,0,1-.164.237,1.064,1.064,0,0,0-.341.345C-940.723,725.088-940.724,725.122-940.761,725.116Z" transform="translate(948.831 -715.374)"/><path class="a" d="M-918.182,680.389c.118-.233.283-.438.391-.677.009-.019.033-.031.05-.046a.786.786,0,0,0,.256-.21.471.471,0,0,1,.22-.161.536.536,0,0,0,.107-.071.2.2,0,0,1-.06.181,1.671,1.671,0,0,1-.352.49.327.327,0,0,0-.06.1c-.094.2-.242.373-.339.574-.165.072-.212.249-.328.365-.04.04-.049.112-.124.114C-918.382,680.817-918.24,680.618-918.182,680.389Z" transform="translate(928.46 -675.887)"/><path class="a" d="M-916.359,681.809c-.006-.109.085-.169.131-.25a3.519,3.519,0,0,0,.184-.316,2.2,2.2,0,0,1,.257-.334.778.778,0,0,0,.117-.191c.01-.031.028-.07.073-.074.107.01.025.1.06.14a.188.188,0,0,1-.059.214.763.763,0,0,0-.2.3c-.043.078-.075.162-.123.238-.111.177-.242.34-.351.516-.064.1-.125.21-.19.313-.018.028-.027.062-.064.072a.03.03,0,0,1-.026-.016.149.149,0,0,1,.028-.158.224.224,0,0,0,.056-.155A.425.425,0,0,1-916.359,681.809Z" transform="translate(926.837 -677.126)"/><path class="a" d="M-911.654,676.574c.072-.149.143-.3.215-.447a.076.076,0,0,1,.032-.036.288.288,0,0,0,.155-.26c.194-.052.237-.257.372-.37s.212-.271.357-.369c.047-.032.058-.1.114-.123a2.15,2.15,0,0,1-.2.3,2.853,2.853,0,0,0-.343.586.236.236,0,0,1-.068.1.18.18,0,0,0-.068.158l-.08.141c-.093.13-.211.239-.3.37-.021.031-.04.063-.084.062C-911.6,676.655-911.667,676.649-911.654,676.574Z" transform="translate(922.554 -672.172)"/><path class="a" d="M-910.5,680.644a3.316,3.316,0,0,1-.321.5.315.315,0,0,0-.1.221,1.93,1.93,0,0,0-.335.481.865.865,0,0,1-.1.113c-.085.112-.122.25-.2.367-.012.019-.015.044-.039.055a.108.108,0,0,1-.122-.05.207.207,0,0,1,.022-.126c.082-.2.2-.375.279-.572a2.14,2.14,0,0,1,.187-.349.709.709,0,0,0,.125-.112.369.369,0,0,1,.188-.145c.1-.027.136-.154.216-.223C-910.635,680.751-910.59,680.674-910.5,680.644Z" transform="translate(922.609 -677.125)"/><path class="a" d="M-913.925,685.14a.164.164,0,0,1-.01.058c-.1.165-.151.356-.249.517a5.173,5.173,0,0,0-.223.469c-.056.149-.172.263-.24.405-.033,0-.048-.021-.057-.045a.177.177,0,0,0-.106-.095.781.781,0,0,1,.1-.308.979.979,0,0,1,.217-.368.74.74,0,0,0,.1-.182c.021-.04.033-.089.081-.111.1-.119.2-.238.3-.359.023-.029.04-.061.082-.062A.066.066,0,0,0-913.925,685.14Z" transform="translate(925.307 -680.979)"/><path class="a" d="M-910.728,687.326a.515.515,0,0,1,.094-.2c.047-.062.044-.142.1-.205a3.359,3.359,0,0,0,.351-.523c.026-.042.083-.04.116-.073a.309.309,0,0,0-.01.193c.018.042-.05.071-.065.116a1.235,1.235,0,0,1-.065.133c.012.1-.056.178-.091.264a1.208,1.208,0,0,0-.089.2.058.058,0,0,1-.021.07.207.207,0,0,0-.133.107.09.09,0,0,1-.153.036C-910.715,687.4-910.743,687.371-910.728,687.326Z" transform="translate(921.748 -682.08)"/><path class="a" d="M-968.1,746.05c.062-.106.109-.219.179-.321a.323.323,0,0,1,.2-.165.155.155,0,0,0,.1-.075.469.469,0,0,0,.17-.1.174.174,0,0,1,.1-.055.508.508,0,0,0,.348-.169c.045.046.1.013.127-.009a.187.187,0,0,1,.255-.011.043.043,0,0,1,.024.064.957.957,0,0,0-.161.127,1.139,1.139,0,0,1-.318.239.108.108,0,0,0-.069.067.217.217,0,0,1-.174.145.26.26,0,0,0-.1.067.138.138,0,0,1-.094.054c-.121.006-.223.091-.348.083-.037,0-.067.027-.094.052s-.055.06-.1.058A.064.064,0,0,1-968.1,746.05Z" transform="translate(971.81 -733.377)"/><path class="a" d="M-956.407,741.81l-.02-.06c.041-.043.078-.118.123-.122.1-.011.158-.086.236-.128a3.166,3.166,0,0,0,.263-.192c.038.049.08.036.123.009a.606.606,0,0,1,.22-.084,2.05,2.05,0,0,1,.313-.023,1.093,1.093,0,0,1,.168.018c.009.035-.016.051-.042.057a.142.142,0,0,0-.107.107.645.645,0,0,1-.256.185c-.176.1-.339.222-.521.311a.123.123,0,0,1-.13-.051.131.131,0,0,0-.2-.032A.129.129,0,0,1-956.407,741.81Z" transform="translate(961.626 -729.98)"/><path class="a" d="M-978.143,752.546a.07.07,0,0,1,.04.04c.01.011.015.028,0,.035-.091.062-.147.161-.24.219-.044.028-.071.056-.059.112a.073.073,0,0,1-.041.092.2.2,0,0,0-.146.184.228.228,0,0,1-.164.061.026.026,0,0,0-.019,0c-.1.105-.254.126-.373.2s-.216.161-.33.234c-.059.038-.075.111-.138.141a.472.472,0,0,0,.086-.333.273.273,0,0,1,.178-.293c.073-.027.055-.1.056-.157.074-.019.091-.1.141-.141a.489.489,0,0,0,.2-.108.369.369,0,0,1,.365-.088.322.322,0,0,0,.314-.143A.133.133,0,0,1-978.143,752.546Z" transform="translate(981.856 -739.873)"/><path class="a" d="M-929.927,707.348c-.11-.061-.114-.078-.045-.177a.3.3,0,0,0,.025-.064.944.944,0,0,1,.222-.287,1.152,1.152,0,0,0,.26-.37.555.555,0,0,1,.124-.176,1.623,1.623,0,0,0,.157-.251.055.055,0,0,1,.036-.017,1.32,1.32,0,0,0,.218-.141c.033-.035.08-.072.138-.033a.1.1,0,0,1-.022.1.249.249,0,0,0-.043.167.234.234,0,0,1-.062.142,1.457,1.457,0,0,0-.123.212c-.1.074-.135.193-.217.281a2.7,2.7,0,0,0-.358.449A1.2,1.2,0,0,1-929.927,707.348Z" transform="translate(938.578 -699.091)"/><path class="a" d="M-926.429,699.88h-.04c-.046-.012-.054.036-.082.052-.067.039-.115.111-.205.111-.04,0-.041.047-.062.071s-.034.07-.074.048.007-.053,0-.081a1.116,1.116,0,0,1,.272-.4.337.337,0,0,0,.072-.118.113.113,0,0,1,.064-.084.155.155,0,0,0,.089-.114.2.2,0,0,1,.1-.132.062.062,0,0,0,.032-.074.153.153,0,0,1,.056-.159.788.788,0,0,1,.16-.177.111.111,0,0,1,.145-.027.431.431,0,0,1-.1.312,5.039,5.039,0,0,0-.375.718C-926.39,699.846-926.4,699.873-926.429,699.88Z" transform="translate(935.863 -692.948)"/><path class="a" d="M-934.12,716.622a2.127,2.127,0,0,1,.3-.181c0,.121.059.245-.019.362a2.041,2.041,0,0,1-.322.377,1.955,1.955,0,0,0-.264.253.255.255,0,0,1-.138.092.231.231,0,0,1-.105-.086.135.135,0,0,0-.156-.074c.018-.063.077-.085.122-.122a.737.737,0,0,0,.24-.3.528.528,0,0,0,.169-.173.093.093,0,0,1,.087-.056C-934.136,716.718-934.122,716.677-934.12,716.622Z" transform="translate(942.772 -708.365)"/><path class="a" d="M-921.239,690.955c-.129-.017-.165.11-.249.163-.017.011-.025.038-.052.038-.056-.133.037-.241.06-.361.015-.088.1-.12.146-.193.061-.108.109-.224.176-.329a1.869,1.869,0,0,0,.287-.406c.024-.067.1-.046.154-.076a.75.75,0,0,0-.082.362c.007.035-.023.065-.045.086a.2.2,0,0,0-.054.174.053.053,0,0,1,0,.073c-.1.14-.179.3-.285.438A.068.068,0,0,1-921.239,690.955Z" transform="translate(931.195 -685.108)"/><path class="a" d="M-924.826,700.672a.054.054,0,0,1,.041-.062s.019.012.018.017C-924.772,700.654-924.79,700.669-924.826,700.672Z" transform="translate(934.048 -694.549)"/><path class="a" d="M-982.81,762.425c.1-.081.227-.129.3-.246a.051.051,0,0,1,.04-.022c.091.016.116-.052.139-.112a.146.146,0,0,1,.085-.1c.049.018.095.029.135-.02.086-.1.211-.09.326-.106a.487.487,0,0,0-.006.244.5.5,0,0,1-.162.2c-.094.077-.179.166-.277.239a.839.839,0,0,1-.145.1.222.222,0,0,0-.1.1c-.033.053-.051.127-.135.129a1.249,1.249,0,0,0-.481.329.123.123,0,0,1-.06.05.267.267,0,0,0-.164.148.09.09,0,0,1-.077.055.589.589,0,0,0,.079-.136.435.435,0,0,1,.14-.2.147.147,0,0,0,.064-.174.056.056,0,0,1,.037-.073c.057-.021.084-.074.121-.115s.059-.095.119-.125S-982.791,762.483-982.81,762.425Z" transform="translate(985.158 -747.966)"/><path class="a" d="M-978.6,764.217c.006,0,.015-.005.017-.01a.952.952,0,0,1,.36-.351c.115-.074.183-.2.307-.257.058-.028.073-.1.119-.145a.06.06,0,0,1,.065-.012.222.222,0,0,0,.172-.014.127.127,0,0,1,.124,0c.028.04,0,.07-.023.1a.245.245,0,0,0-.073.178.138.138,0,0,1-.059.11.272.272,0,0,0-.066.086.161.161,0,0,0-.124.044c-.056.048-.1.114-.191.121-.019,0-.038.024-.055.04-.142.131-.315.226-.45.359a2.976,2.976,0,0,0-.284.239.148.148,0,0,1,.025-.22C-978.659,764.412-978.666,764.294-978.6,764.217Z" transform="translate(981.148 -749.356)"/><path class="a" d="M-973.942,755.3a.561.561,0,0,1-.2.043c-.059,0-.087.055-.122.092-.056.06-.1.057-.138-.014l.244-.274c.044-.049.081-.094.018-.161-.043-.046-.026-.089.039-.11.047-.015.095-.036.1-.1s.063-.067.1-.088a.563.563,0,0,0,.142-.091.185.185,0,0,1,.182-.052c.036.008.081.011.1-.019.084-.109.234-.089.329-.175a.055.055,0,0,1,.057-.005.036.036,0,0,1,.01.052.179.179,0,0,0-.013.218.622.622,0,0,1-.243.239c-.036.025-.074.041-.092.085a.061.061,0,0,1-.016.025A2.04,2.04,0,0,1-973.942,755.3Z" transform="translate(977.314 -741.438)"/><path class="a" d="M-970.661,750.867c-.111.09-.275.078-.374.2-.039.047-.106.027-.161.014-.032-.008-.058-.012-.082.013a1.347,1.347,0,0,1-.307.2l-.04.02c-.022-.1-.008-.174.115-.191.051-.007.065-.053.045-.1s0-.08.048-.1c.113-.057.173-.175.274-.247.018-.008.04-.011.052-.024a.475.475,0,0,1,.227-.108c.124-.043.28-.024.375-.148a.121.121,0,0,1,.088-.041c.066.044.034.09,0,.13a.172.172,0,0,0-.063.117A.474.474,0,0,1-970.661,750.867Z" transform="translate(974.896 -737.953)"/><path class="a" d="M-937.4,738.48c-.175.14-.3.329-.466.476l-.1.086c-.036.006-.055.036-.078.058s-.052.048-.087.04a.3.3,0,0,0-.217.045.114.114,0,0,1-.166-.037.24.24,0,0,1,.087-.2c.078-.079.136-.172.207-.256a.644.644,0,0,1,.182-.138.448.448,0,0,0,.16-.131c.039-.058.12-.055.169-.1.082-.036.17-.054.253-.088s.146.015.172.108Z" transform="translate(945.989 -727.373)"/><path class="a" d="M-931.794,732.908c-.056-.087-.124-.127-.223-.06-.059.04-.135.031-.2.06-.03-.053.009-.088.038-.12a.663.663,0,0,0,.1-.154c.111-.1.173-.244.317-.308.031-.014.043-.05.057-.08a.241.241,0,0,1,.121-.127c.04-.02.063-.059.1-.085a.139.139,0,0,1,.224.05.422.422,0,0,0,.107.141v.02l-.561.59C-931.738,732.862-931.767,732.884-931.794,732.908Z" transform="translate(940.506 -721.941)"/><path class="a" d="M-926.807,727.44c-.072.005-.1-.046-.118-.1-.05-.127-.141-.145-.229-.042a.2.2,0,0,1-.075.062.076.076,0,0,1,.005-.106.513.513,0,0,0,.063-.13,2.833,2.833,0,0,1,.531-.347,3.118,3.118,0,0,0,.252-.213c.028-.021.047-.059.092-.047-.048.107.01.162.1.2-.026.094-.137.125-.161.221a2.3,2.3,0,0,0-.315.355A1.022,1.022,0,0,1-926.807,727.44Z" transform="translate(936.161 -717.156)"/><path class="a" d="M-944.932,744.736a.133.133,0,0,0,.188,0l.008-.006c.058-.051.122-.03.188-.018s.078-.108.159-.078a1.032,1.032,0,0,1-.181.181c-.086.028-.135.106-.2.157-.143.106-.3.185-.438.3-.188.112-.377.223-.564.336a.233.233,0,0,1-.1.046c-.011-.049.029-.071.055-.1a4.089,4.089,0,0,0,.353-.418c.008-.011,0,0,.006-.008.108-.042.141-.148.2-.231a.736.736,0,0,0,.142-.107C-945.064,744.753-945.01,744.705-944.932,744.736Z" transform="translate(952.419 -732.966)"/><path class="a" d="M-963.219,758.29a.583.583,0,0,0-.356,0c-.036.006-.071.016-.106.024a1.541,1.541,0,0,1,.1-.25.472.472,0,0,0,.061-.232.086.086,0,0,1,.052-.057.54.54,0,0,0,.26-.206.061.061,0,0,1,.051-.026.3.3,0,0,0,.215-.006.091.091,0,0,1,.049-.009c.11.016.221.038.3-.071a1.406,1.406,0,0,1,.352.014c-.027.066-.11.078-.141.14a2.167,2.167,0,0,0-.319.251c-.122.1-.239.21-.358.314a.15.15,0,0,1-.045.018C-963.145,758.216-963.174,758.262-963.219,758.29Z" transform="translate(967.956 -744.152)"/><path class="a" d="M-960.054,763.376c.032-.043.06-.091.12-.1C-959.966,763.319-959.994,763.367-960.054,763.376Z" transform="translate(964.791 -749.238)"/><path class="a" d="M-958.658,751.537a1.129,1.129,0,0,1-.314,0c-.05-.016-.082.036-.106.076s-.054.065-.1.029a.193.193,0,0,0-.2-.009.174.174,0,0,1-.2-.019.66.66,0,0,1,.124-.369c.084-.083.182-.152.272-.228.151-.073.312-.125.456-.213.049-.03.091-.1.166-.062.026,0-.034.04.019.033a.315.315,0,0,0,.213-.091.081.081,0,0,1,.117-.016c.048.04.005.077-.015.113s-.055.058-.017.1a.092.092,0,0,0,.118.017c.123-.061.155-.052.253.058l-.04.04c-.225.151-.443.31-.652.483A.43.43,0,0,1-958.658,751.537Z" transform="translate(964.378 -738.221)"/><path class="a" d="M-951,746.926c-.039,0-.056-.032-.084-.05a.1.1,0,0,0-.144,0,.121.121,0,0,1-.187-.027c-.015-.02-.024-.041,0-.062a.1.1,0,0,0,.021-.022c.02-.036.085-.071.044-.111s-.086.008-.115.044a.246.246,0,0,1-.221.064c-.011,0-.019,0-.013-.017a.14.14,0,0,1,.018-.024.847.847,0,0,0,.409-.31c.069-.084.156-.15.222-.241.042-.058.138-.085.21-.126a.4.4,0,0,0,.224,0c.048-.021.08.012.067.064-.025.094.012.077.072.049a.151.151,0,0,1,.143-.012c-.018.031-.046.057-.041.1a.072.072,0,0,1-.037.067c-.225.151-.348.4-.544.577A.068.068,0,0,1-951,746.926Z" transform="translate(957.499 -734.193)"/><path class="a" d="M-968.867,760.437a.3.3,0,0,1-.058.245c-.044.073-.051.172-.123.237-.042.05-.085.1-.126.151-.019.024-.041.036-.069.021-.052-.027-.088,0-.126.028a.906.906,0,0,0-.462.181c.1-.118.074-.293.191-.4a.08.08,0,0,0,.03-.06,1.1,1.1,0,0,1,.317-.233.708.708,0,0,0,.112-.065A.543.543,0,0,1-968.867,760.437Z" transform="translate(973.324 -746.76)"/><path class="a" d="M-910.311,691.823l.02-.06c.035-.014.043-.049.059-.077.03-.053.064-.086.125-.034.035.03.058.019.087-.02s.032-.117.111-.11a.227.227,0,0,1-.041.16c-.113.164-.151.367-.277.523-.007.009,0,.026,0,.039a.514.514,0,0,0-.147.261c-.012.077-.118.075-.154.14-.059-.036-.031-.121-.091-.156a5.244,5.244,0,0,0,.2-.5A.36.36,0,0,1-910.311,691.823Z" transform="translate(921.653 -686.617)"/><path class="a" d="M-913.958,699.252c.1,0,.051.095.08.141a.342.342,0,0,1-.065.208,2.482,2.482,0,0,0-.149.32,1.511,1.511,0,0,1-.137.295c-.037.057-.015.126-.05.18-.1-.009-.085.1-.14.14-.05-.032-.02-.071,0-.1a.226.226,0,0,0,.024-.162.047.047,0,0,1,0-.029c.061-.117,0-.214-.054-.311a.07.07,0,0,1,.023-.069.187.187,0,0,0,.1-.108,1.234,1.234,0,0,1,.181-.3A.942.942,0,0,1-913.958,699.252Z" transform="translate(924.998 -693.364)"/><path class="a" d="M-923.842,712.844a.733.733,0,0,0-.158.281.067.067,0,0,1-.046.06.136.136,0,0,0-.1.1c-.043.135-.167.216-.216.345a2.007,2.007,0,0,1-.379.254.11.11,0,0,1-.12.016.292.292,0,0,1,.068-.323.2.2,0,0,1,.021-.018.14.14,0,0,0,.055-.086,3.15,3.15,0,0,1,.254-.365,2.3,2.3,0,0,1,.188-.265c.028-.052.048-.111.112-.132a.384.384,0,0,0,.346-.177c.015-.027.037-.058.079-.047a.522.522,0,0,1-.067.24A.284.284,0,0,0-923.842,712.844Z" transform="translate(934.099 -704.908)"/><path class="a" d="M-918.857,705.618c-.04.017-.057.055-.078.088a.352.352,0,0,1-.344.153.277.277,0,0,1,.048-.224,1.442,1.442,0,0,0,.1-.225,1.247,1.247,0,0,1,.124-.2c.077-.143.126-.3.208-.438.055-.046.064-.131.138-.16.006.008.012.016.018.023.075.077.065.156.057.263a3.135,3.135,0,0,0-.055.317,1.709,1.709,0,0,0-.172.342A.085.085,0,0,1-918.857,705.618Z" transform="translate(929.215 -698.044)"/><path class="a" d="M-930.463,721.747c.016,0,.039.006.048,0,.1-.089.257-.09.34-.209a.125.125,0,0,1,.113-.049c0,.077-.074.133-.07.215a.174.174,0,0,0,.01.066.03.03,0,0,1,.008.036,1.661,1.661,0,0,1-.313.451.324.324,0,0,0-.105.13c-.021.058-.082.075-.129.1a1.242,1.242,0,0,1-.45.276.332.332,0,0,0-.1.091.131.131,0,0,1-.176.04.306.306,0,0,1,.049-.26.679.679,0,0,0,.143-.266c.1-.083.134-.23.276-.268a.058.058,0,0,0,.038-.031c.055-.123.19-.177.254-.293A.052.052,0,0,1-930.463,721.747Z" transform="translate(939.697 -712.768)"/><path class="a" d="M-926.483,722.456a2.751,2.751,0,0,0,.325-.364.191.191,0,0,1,.046-.05.106.106,0,0,0,.061-.108c0-.073.094-.106.11-.18.069-.115.209-.148.291-.258.047-.064.121.011.171.058a.2.2,0,0,0-.069.23.05.05,0,0,1-.011.046c-.093.075-.1.2-.181.287a1.029,1.029,0,0,0-.15.128,1.193,1.193,0,0,1-.4.281c-.11.058-.186.164-.31.193-.039-.049-.015-.093.014-.133A1.4,1.4,0,0,1-926.483,722.456Z" transform="translate(935.617 -712.754)"/><path class="a" d="M-932.911,718.17a3.079,3.079,0,0,0,.268-.252,1.859,1.859,0,0,0,.407-.442.134.134,0,0,1,.028-.028,1.344,1.344,0,0,1,.258-.236.1.1,0,0,1,.109-.023.081.081,0,0,1-.025.115c-.114.076-.14.209-.2.315a2.264,2.264,0,0,0-.141.249.6.6,0,0,1-.284.262.126.126,0,0,0-.143.077c-.031.059-.092.1-.164.046-.042-.033-.089-.018-.134-.023Z" transform="translate(941.121 -709.01)"/><path class="a" d="M-939.253,728.348c.034.026.016.055,0,.078a1.031,1.031,0,0,1-.1.157c-.09.082-.083.187-.1.286a.111.111,0,0,1-.042.065,2.479,2.479,0,0,0-.256.258.465.465,0,0,0-.179.1.528.528,0,0,1-.2.1c-.116.037-.223.1-.338.136a.188.188,0,0,1-.187,0,.152.152,0,0,1,.055-.1.163.163,0,0,0,.066-.158.085.085,0,0,1,.056-.1c.052-.019.066-.062.084-.1a.863.863,0,0,1,.156-.1,1.882,1.882,0,0,0,.366-.279.772.772,0,0,0,.261-.195.122.122,0,0,1,.108-.044.167.167,0,0,0,.169-.078C-939.319,728.348-939.291,728.322-939.253,728.348Z" transform="translate(947.864 -718.747)"/><path class="a" d="M-945.612,735.252a.858.858,0,0,0,.422-.132.156.156,0,0,1,.062-.029.369.369,0,0,0,.24-.108.357.357,0,0,1,.18-.092c.026.036-.005.053-.025.072a.3.3,0,0,0-.074.1.711.711,0,0,1-.287.311c-.082.055-.131.147-.209.208a.924.924,0,0,0-.125.108.121.121,0,0,1-.1.038,1.1,1.1,0,0,0-.377.1.353.353,0,0,1-.23.038c-.071-.019-.137.033-.2,0,0-.069.022-.125.108-.122a.057.057,0,0,0,.053-.039c.032-.129.154-.172.248-.226C-945.811,735.421-945.72,735.326-945.612,735.252Z" transform="translate(952.819 -724.466)"/><path class="a" d="M-933.918,721.806c-.013,0-.03,0-.037.012a.256.256,0,0,1-.242.123c-.09-.008-.12.113-.2.155a.253.253,0,0,1-.146.051.216.216,0,0,1,.08-.2,1.179,1.179,0,0,1,.172-.235.952.952,0,0,1,.254-.206c.066-.039.082-.127.136-.181a1.544,1.544,0,0,0,.261-.261.1.1,0,0,1,.061-.031.26.26,0,0,0,.222-.143.107.107,0,0,1,.158-.027.443.443,0,0,0-.1.321c-.086.119-.218.2-.289.331-.008.014-.02.035-.033.036C-933.774,721.57-933.793,721.751-933.918,721.806Z" transform="translate(942.529 -712.205)"/><path class="a" d="M-922.632,695.221a1.581,1.581,0,0,0,.226-.354c.023-.074.122-.1.115-.189h.02c.1.014.133.081.078.184a2.2,2.2,0,0,0-.13.32c-.05.151-.138.286-.2.431s-.16.268-.217.414a.1.1,0,0,1-.072.076.466.466,0,0,0-.164.107.376.376,0,0,1-.177.094,2.052,2.052,0,0,1,.174-.407,2.03,2.03,0,0,1,.184-.317A1.063,1.063,0,0,0-922.632,695.221Z" transform="translate(932.589 -689.373)"/><path class="a" d="M-916.846,688.988a1.7,1.7,0,0,1,.136-.327c.044-.068.044-.142-.055-.175a7.993,7.993,0,0,1,.582-.9c.012.055.083.051.1.1a1.345,1.345,0,0,1-.221.375.933.933,0,0,0-.174.333c-.034.086-.075.169-.107.256-.055.1-.113.208-.176.308A.066.066,0,0,1-916.846,688.988Z" transform="translate(927.084 -683.181)"/><path class="a" d="M-917.459,695.255c-.046.05-.053.127-.12.161a.177.177,0,0,0-.029.04c-.055.168-.172.147-.3.1-.026-.05.006-.088.026-.13a1.6,1.6,0,0,0,.145-.45c0-.112.085-.19.122-.289a.9.9,0,0,1,.255-.395.216.216,0,0,1,.075-.166c.077-.063.069-.186.166-.236a.229.229,0,0,0,.12.04l.04.1c-.045.093-.05.2-.093.289-.076.146-.11.305-.18.451-.049.1-.085.209-.131.312a.233.233,0,0,1-.077.113C-917.462,695.209-917.458,695.233-917.459,695.255Z" transform="translate(928.018 -688.685)"/><path class="a" d="M-920.145,696.053c-.055.115-.15.2-.2.326s-.108.238-.163.357c.017.074-.041.113-.077.161-.1.137-.23.254-.324.4a.292.292,0,0,1-.2.163c0-.068-.009-.136.052-.19a.107.107,0,0,0,.028-.091,3.674,3.674,0,0,1,.231-.44,1.644,1.644,0,0,1,.2-.372c.024-.025.024-.074.035-.111.082-.022.108-.1.132-.161a.717.717,0,0,1,.129-.18C-920.186,695.884-920.2,696.009-920.145,696.053Z" transform="translate(930.804 -690.446)"/><path class="a" d="M-914.165,695.179a4.929,4.929,0,0,0,.287-.749.132.132,0,0,1,.04-.068.18.18,0,0,0,.056-.153.229.229,0,0,1,.1-.2c.069.041.114.015.137-.054a.116.116,0,0,1,.144-.086c-.13.214-.166.47-.3.682-.048.069-.061.17-.17.186-.011,0-.024.025-.026.04-.018.127-.15.191-.171.318A.1.1,0,0,1-914.165,695.179Z" transform="translate(924.744 -688.668)"/><path class="a" d="M-962.632,746.172c-.025-.056.013-.086.05-.114a.086.086,0,0,0,.031-.127.214.214,0,0,0,.164-.161c0-.015.017-.037.028-.039.1-.014.147-.1.219-.146a.688.688,0,0,0,.183-.158.125.125,0,0,1,.128-.059.255.255,0,0,0,.194-.053c.074-.064.139-.01.184.051a.126.126,0,0,0,.124.062c.028.042-.006.067-.028.091-.044.047-.089.094-.132.143-.163.083-.324.17-.489.249a.208.208,0,0,1-.1.023.173.173,0,0,0-.156.072c-.008.011,0,0-.007.007C-962.369,746.065-962.479,746.174-962.632,746.172Z" transform="translate(967.048 -733.54)"/><path class="a" d="M-953.589,742.052c.006-.061.062-.084.095-.124s.065-.05.066-.1a.379.379,0,0,1,.087-.064c.23-.131.458-.267.676-.417a.406.406,0,0,1,.231-.024.193.193,0,0,0,.187-.041.236.236,0,0,1,.1-.04c.068-.019.143-.014.2-.07.025-.024.07-.005.1.013-.028.069-.1.1-.142.157a4.434,4.434,0,0,1-.351.379c-.032.029-.063.06-.112.054a.131.131,0,0,0-.187.02c-.009.009-.018.025-.029.026-.13.02-.22.132-.351.147a.173.173,0,0,0-.1.057.183.183,0,0,1-.209.049.083.083,0,0,0-.066.006C-953.5,742.144-953.5,742.143-953.589,742.052Z" transform="translate(959.149 -729.941)"/><path class="a" d="M-926.893,711.587a2.686,2.686,0,0,0-.361.261.272.272,0,0,0,.01-.253c-.013-.023.019-.072.03-.109a1.73,1.73,0,0,1,.243-.325,1.35,1.35,0,0,0,.257-.334.149.149,0,0,1,.062-.063c-.017.13.129.171.154.278s-.047.136-.094.192c-.07.076-.116.171-.183.25C-926.809,711.524-926.837,711.572-926.893,711.587Z" transform="translate(936.167 -703.411)"/><path class="a" d="M-922.527,703.751c-.042-.043-.067-.1-.13-.128s0-.1-.01-.153a.968.968,0,0,1,.136-.235.129.129,0,0,0,.044-.106.545.545,0,0,0,.226-.267.054.054,0,0,1,.024-.031c.136-.068.17-.23.289-.315a.161.161,0,0,0,.063-.109c.029.025.02.051.008.081a3.042,3.042,0,0,1-.185.462c-.006.01,0,.026,0,.039.02.1-.048.173-.108.239a.361.361,0,0,0-.1.147,1.58,1.58,0,0,1-.181.317A.1.1,0,0,1-922.527,703.751Z" transform="translate(932.182 -696.117)"/><path class="a" d="M-970.057,754.5a1.969,1.969,0,0,0-.551.275l-.191.126c-.027,0-.059-.008-.079,0a.306.306,0,0,1-.283.016.191.191,0,0,1,.02-.241l.409-.285c.043-.03.093-.052.1-.114a.065.065,0,0,1,.046-.049A.746.746,0,0,0-970.3,754a.213.213,0,0,1,.249-.126.1.1,0,0,0,.077-.008c.1-.075.229-.086.327-.161a.183.183,0,0,1,.113-.033c.079.027.141-.05.218-.034a2.779,2.779,0,0,1-.271.24c-.017.016-.051.035-.049.046.029.116-.061.2-.082.3-.055.063-.109.127-.166.189S-970.017,754.437-970.057,754.5Z" transform="translate(974.513 -740.826)"/><path class="a" d="M-963.753,748.808c-.023,0-.056,0-.067.008-.084.095-.219.084-.313.16a.135.135,0,0,1-.174.021c-.045-.03-.078.016-.112.042s-.064.047-.1.07c-.108-.1-.023-.177.02-.261s.151-.168.181-.281c.106-.021.178-.12.293-.125a.127.127,0,0,0,.09-.055c.041-.074.1-.079.176-.083a.9.9,0,0,0,.333-.145,2.376,2.376,0,0,1,.252-.113c.015.006.035.007.045.017.046.051.088.053.131,0a.056.056,0,0,1,.086-.015.552.552,0,0,1-.147.2,1.71,1.71,0,0,0-.308.335c-.015.023-.044.029-.068.041a.264.264,0,0,0-.109.069A.27.27,0,0,1-963.753,748.808Z" transform="translate(968.731 -735.935)"/><path class="a" d="M-944.884,740.975a2.02,2.02,0,0,0,.357-.347.76.76,0,0,1,.245-.235c.056,0,.078-.054.114-.084s.045-.057.087-.056a.142.142,0,0,1,.131.115c.022.07-.066.1-.082.167.089,0,.139-.114.232-.062a1.057,1.057,0,0,1-.185.238.45.45,0,0,0-.116.2.329.329,0,0,0-.2.113.174.174,0,0,1-.117.068c-.059.024-.132.009-.181.066a.041.041,0,0,1-.062,0,.064.064,0,0,1-.011-.073c.008-.023.045-.041.019-.068s-.057,0-.079.014c-.068.039-.126,0-.188-.017C-944.93,740.983-944.917,740.969-944.884,740.975Z" transform="translate(951.589 -729.145)"/><path class="a" d="M-938.011,736.36a.247.247,0,0,0-.16.07c-.034.029-.071.047-.1.01s.012-.058.033-.079c.1-.1.1-.107-.05-.222a1.576,1.576,0,0,1,.258-.252.446.446,0,0,0,.223-.27.8.8,0,0,0,.139-.053.345.345,0,0,1,.261,0c.132.039.126.077.058.163,0,0,0,.006,0,.009-.024.1-.142.152-.161.261-.006.008-.009.02-.017.024C-937.7,736.113-937.843,736.257-938.011,736.36Z" transform="translate(945.799 -725.032)"/><path class="a" d="M-934.046,730.218c-.042-.043,0-.062.024-.086s.02-.029,0-.043a.04.04,0,0,0-.035-.006c-.043.025-.07.062-.094-.03-.011-.04-.125-.025-.191,0a.346.346,0,0,0-.067.042.084.084,0,0,1-.1,0c.015-.073.095-.1.12-.161a1.669,1.669,0,0,1,.3-.3.171.171,0,0,0,.182-.086c.063-.094.185-.11.279-.163.077-.043.161-.066.209-.149a.059.059,0,0,1,.052-.024.137.137,0,0,1-.049.094.191.191,0,0,0-.071.167.144.144,0,0,1-.05.141c-.034.025-.031.063-.03.1-.012.006-.029.009-.034.018a2.308,2.308,0,0,1-.281.306C-933.932,730.1-934.011,730.141-934.046,730.218Z" transform="translate(942.497 -719.512)"/><path class="a" d="M-956.436,745.543a.069.069,0,0,0-.04.04c-.058.041-.1.1-.186.106a.032.032,0,0,0-.023.018c-.051.156-.2.236-.3.347-.079.086-.165.232-.334.192-.09-.011-.143.064-.207.1a2.882,2.882,0,0,1-.415.18.32.32,0,0,1-.221.06c.151-.034.218-.2.371-.233.018-.089.1-.127.149-.193a.3.3,0,0,1,.095-.1c.1-.055.125-.185.228-.238a.162.162,0,0,0,.2-.052.124.124,0,0,1,.119-.054.132.132,0,0,0,.121-.053.141.141,0,0,1,.128-.062.105.105,0,0,0,.1-.05C-956.575,745.466-956.5,745.466-956.436,745.543Z" transform="translate(963.14 -733.713)"/><path class="a" d="M-922.193,706.779a1.491,1.491,0,0,0,.234-.4c.027-.1.141-.145.177-.242a.487.487,0,0,0,.05-.118c.027-.014.06-.033.085-.014.089.068.128.02.165-.058.013-.028.047-.046.071-.068-.064.129-.11.264-.176.393a2.731,2.731,0,0,0-.326.691c-.056.021-.06.086-.1.12s-.074.1-.149.1c-.136-.008-.166-.055-.132-.217C-922.263,706.9-922.174,706.868-922.193,706.779Z" transform="translate(931.849 -699.144)"/><path class="a" d="M-926.75,714.391a.145.145,0,0,1,.015.046c0,.049-.034.112.04.132s.151.044.2-.052c.006-.013.018-.02.031-.005-.059.089-.118.177-.176.266a4.27,4.27,0,0,0-.266.376c-.029.02-.038.055-.06.08-.1-.017-.149.046-.2.125s-.162.054-.245.076c0-.016,0-.042.007-.048.112-.076.112-.219.192-.318.048-.059.057-.156.135-.2a.108.108,0,0,0,.047-.113C-926.922,714.643-926.853,714.5-926.75,714.391Z" transform="translate(936.305 -706.576)"/><path class="a" d="M-923.943,720.463c0-.043.008-.077.06-.08C-923.89,720.42-923.9,720.457-923.943,720.463Z" transform="translate(933.278 -711.805)"/></g><g transform="translate(0 2.465)"><g transform="translate(0 0)"><path class="a" d="M-1196.33,711.872a7.061,7.061,0,0,1,2.846.574,7.578,7.578,0,0,1,2.321,1.563,7.267,7.267,0,0,1,1.574,2.312,7.033,7.033,0,0,1,.573,2.822v12.851a1.416,1.416,0,0,1-.43,1.037,1.449,1.449,0,0,1-1.066.43,1.447,1.447,0,0,1-1.067-.43,1.41,1.41,0,0,1-.43-1.035V719.162a4.22,4.22,0,0,0-.333-1.671,4.329,4.329,0,0,0-.92-1.369,4.261,4.261,0,0,0-1.379-.923,4.287,4.287,0,0,0-1.681-.334,4.173,4.173,0,0,0-1.666.334,4.305,4.305,0,0,0-1.364.923,4.335,4.335,0,0,0-.92,1.369,4.217,4.217,0,0,0-.333,1.671v7.62a1.4,1.4,0,0,1-.435,1.035,1.472,1.472,0,0,1-1.078.43,1.434,1.434,0,0,1-1.046-.43,1.4,1.4,0,0,1-.434-1.035v-7.62a4.22,4.22,0,0,0-.333-1.671,4.333,4.333,0,0,0-.92-1.369,4.306,4.306,0,0,0-1.364-.923,4.17,4.17,0,0,0-1.665-.334h-.032a4.287,4.287,0,0,0-1.681.334,4.262,4.262,0,0,0-1.38.923,4.331,4.331,0,0,0-.92,1.369,4.215,4.215,0,0,0-.333,1.671v9.9a1.4,1.4,0,0,1-.435,1.035,1.433,1.433,0,0,1-1.046.43,1.472,1.472,0,0,1-1.078-.43,1.408,1.408,0,0,1-.434-1.037v-15.69a1.444,1.444,0,0,1,.434-1.068,1.471,1.471,0,0,1,1.078-.431,1.4,1.4,0,0,1,1.03.418,1.489,1.489,0,0,1,.451,1,8.358,8.358,0,0,1,2.018-1.03,6.9,6.9,0,0,1,2.3-.386h.032a7.023,7.023,0,0,1,3.274.772,7.014,7.014,0,0,1,2.479,2.124,7.306,7.306,0,0,1,2.512-2.124A7.027,7.027,0,0,1-1196.33,711.872Z" transform="translate(1215.218 -706.842)"/><path class="a" d="M-792.168,712.446a7.406,7.406,0,0,1,2.315,1.563,7.4,7.4,0,0,1,1.565,2.312,7.011,7.011,0,0,1,.574,2.822v12.851a1.408,1.408,0,0,1-.435,1.037,1.434,1.434,0,0,1-1.046.43,1.472,1.472,0,0,1-1.078-.43,1.4,1.4,0,0,1-.434-1.035V719.162a4.2,4.2,0,0,0-.334-1.671,4.331,4.331,0,0,0-.923-1.369,4.332,4.332,0,0,0-1.369-.923,4.2,4.2,0,0,0-1.672-.334h-.032a4.2,4.2,0,0,0-1.672.334,4.322,4.322,0,0,0-1.369.923,4.324,4.324,0,0,0-.923,1.369,4.2,4.2,0,0,0-.334,1.671v7.62a1.41,1.41,0,0,1-.43,1.035,1.449,1.449,0,0,1-1.067.43,1.449,1.449,0,0,1-1.067-.43,1.415,1.415,0,0,1-.43-1.037V713.371a1.451,1.451,0,0,1,.43-1.068,1.446,1.446,0,0,1,1.067-.431,1.379,1.379,0,0,1,1.019.418,1.64,1.64,0,0,1,.477,1,8.5,8.5,0,0,1,2.011-1.03,6.813,6.813,0,0,1,2.3-.386h.032A7.032,7.032,0,0,1-792.168,712.446Z" transform="translate(854.888 -706.842)"/><path class="a" d="M-635.089,694.758a1.287,1.287,0,0,1-.573.971,1.277,1.277,0,0,1-.891.318,1.5,1.5,0,0,1-.653-.143,1.438,1.438,0,0,1-.525-.43l-6.4-8.277-1.4,1.56v8.759a1.411,1.411,0,0,1-.43,1.035,1.448,1.448,0,0,1-1.067.43,1.447,1.447,0,0,1-1.066-.43,1.41,1.41,0,0,1-.43-1.035V673.858a1.447,1.447,0,0,1,.43-1.066,1.447,1.447,0,0,1,1.066-.43,1.448,1.448,0,0,1,1.067.43,1.448,1.448,0,0,1,.43,1.066v10.505l6.864-7.631a1.463,1.463,0,0,1,1.035-.478,1.4,1.4,0,0,1,1.067.382,1.463,1.463,0,0,1,.477,1.035,1.4,1.4,0,0,1-.382,1.066l-5.622,6.231,6.717,8.691A1.531,1.531,0,0,1-635.089,694.758Z" transform="translate(720.664 -672.362)"/><path class="a" d="M-516.1,712.2a9.4,9.4,0,0,1,2.845,2.337,9.339,9.339,0,0,1,1.729,3.27,1.448,1.448,0,0,1-.1,1.145,1.448,1.448,0,0,1-.9.718l-13.63,4.091a6.342,6.342,0,0,0,1.375,1.645,6.717,6.717,0,0,0,1.813,1.112,6.3,6.3,0,0,0,2.068.467,6.31,6.31,0,0,0,2.179-.27,6.319,6.319,0,0,0,3.7-2.84,1.3,1.3,0,0,1,.907-.688,1.524,1.524,0,0,1,1.133.175,1.3,1.3,0,0,1,.688.907,1.624,1.624,0,0,1-.168,1.158A9.967,9.967,0,0,1-514.782,728a9.349,9.349,0,0,1-3.082,1.582,9.343,9.343,0,0,1-3.682.357,9.4,9.4,0,0,1-3.518-1.088,9.4,9.4,0,0,1-2.845-2.337,9.344,9.344,0,0,1-1.73-3.27A9.341,9.341,0,0,1-530,719.56a9.4,9.4,0,0,1,1.088-3.518,9.4,9.4,0,0,1,2.337-2.845,9.341,9.341,0,0,1,3.27-1.73,9.34,9.34,0,0,1,3.682-.357A9.4,9.4,0,0,1-516.1,712.2Zm-6.339,2.136a6.113,6.113,0,0,0-1.964.988,6.6,6.6,0,0,0-1.466,1.537,6.693,6.693,0,0,0-.9,1.917,6.286,6.286,0,0,0-.245,2.118l12.014-3.606a6.531,6.531,0,0,0-1.356-1.637,6.413,6.413,0,0,0-1.795-1.106,6.56,6.56,0,0,0-2.086-.471A6.249,6.249,0,0,0-522.44,714.334Z" transform="translate(617.267 -706.134)"/><path class="a" d="M-342.793,716.044a1.434,1.434,0,0,1,1.046.43,1.442,1.442,0,0,1,.435,1.067v24.154a7.182,7.182,0,0,1-.543,2.754,7.077,7.077,0,0,1-1.563,2.34,7.142,7.142,0,0,1-2.329,1.56,7.11,7.11,0,0,1-2.743.541h-.223a7.194,7.194,0,0,1-2.776-.541,7.135,7.135,0,0,1-2.329-1.56,7.078,7.078,0,0,1-1.563-2.34,7.182,7.182,0,0,1-.542-2.754,1.41,1.41,0,0,1,.43-1.035,1.448,1.448,0,0,1,1.066-.43,1.449,1.449,0,0,1,1.066.43,1.41,1.41,0,0,1,.43,1.035,4.008,4.008,0,0,0,.334,1.624,4.321,4.321,0,0,0,.907,1.337,4.318,4.318,0,0,0,1.337.907,4,4,0,0,0,1.624.334h.223a4.006,4.006,0,0,0,1.624-.335,4.332,4.332,0,0,0,1.337-.909,4.332,4.332,0,0,0,.907-1.34,4.02,4.02,0,0,0,.334-1.626v-14.88a7.415,7.415,0,0,1-2.022,1.046,7.181,7.181,0,0,1-2.308.37,7.115,7.115,0,0,1-2.833-.573,7.324,7.324,0,0,1-2.324-1.56,7.375,7.375,0,0,1-1.56-2.308,7,7,0,0,1-.573-2.818v-6.845a1.448,1.448,0,0,1,.43-1.067,1.447,1.447,0,0,1,1.066-.43,1.451,1.451,0,0,1,1.066.429,1.444,1.444,0,0,1,.43,1.064v6.828a4.176,4.176,0,0,0,.334,1.667,4.3,4.3,0,0,0,.923,1.365,4.319,4.319,0,0,0,1.369.921,4.206,4.206,0,0,0,1.671.333,4.324,4.324,0,0,0,1.687-.333,4.284,4.284,0,0,0,1.385-.921,4.316,4.316,0,0,0,.923-1.365,4.175,4.175,0,0,0,.334-1.667v-3.406a1.436,1.436,0,0,1,.434-1.064A1.476,1.476,0,0,1-342.793,716.044Z" transform="translate(465.312 -707.497)"/></g><g transform="translate(114.114 31.979)"><g transform="translate(1.626 1.181)"><path class="a" d="M-304.908,932.853a.846.846,0,0,1,.33.065.853.853,0,0,1,.272.179.848.848,0,0,1,.182.267.8.8,0,0,1,.067.327v0a.827.827,0,0,1-.067.33.935.935,0,0,1-.081.143,1.024,1.024,0,0,1-.1.127.986.986,0,0,1-.27.181l-.049.017-.049.014.47.807a.25.25,0,0,1,.035.1.255.255,0,0,1-.006.1.268.268,0,0,1-.043.089.231.231,0,0,1-.078.067.25.25,0,0,1-.13.038.258.258,0,0,1-.127-.033.239.239,0,0,1-.1-.1l-.607-1.032h-.245v.9a.249.249,0,0,1-.075.183.249.249,0,0,1-.183.075.254.254,0,0,1-.184-.075.246.246,0,0,1-.076-.183V933.11a.246.246,0,0,1,.076-.183.254.254,0,0,1,.184-.074Zm.333.839a.3.3,0,0,0-.027-.126.336.336,0,0,0-.072-.1.344.344,0,0,0-.1-.068.329.329,0,0,0-.13-.025h-.594v.654h.594a.32.32,0,0,0,.129-.027.341.341,0,0,0,.106-.072.35.35,0,0,0,.072-.1.31.31,0,0,0,.027-.127Z" transform="translate(306.02 -932.853)"/></g><path class="a" d="M-316.186,923.573a2.607,2.607,0,0,0-2.607,2.607,2.607,2.607,0,0,0,2.607,2.607,2.607,2.607,0,0,0,2.607-2.607A2.607,2.607,0,0,0-316.186,923.573Zm0,4.889a2.281,2.281,0,0,1-2.281-2.281,2.281,2.281,0,0,1,2.281-2.281,2.281,2.281,0,0,1,2.281,2.281A2.281,2.281,0,0,1-316.186,928.462Z" transform="translate(318.793 -923.573)"/></g></g><g transform="translate(34.216 33.101)"><path class="a" d="M-945.989,929.906c0,1.107,2.38.724,2.38,2.039,0,.707-.6,1.032-1.373,1.032a1.79,1.79,0,0,1-1.415-.574.119.119,0,0,1-.033-.083.11.11,0,0,1,.108-.108.1.1,0,0,1,.075.033,1.539,1.539,0,0,0,1.265.516c.608,0,1.124-.216,1.124-.816,0-1.073-2.38-.724-2.38-2.039,0-.641.541-.932,1.223-.932a1.574,1.574,0,0,1,1.24.5.119.119,0,0,1,.033.083.11.11,0,0,1-.108.108.093.093,0,0,1-.075-.033,1.41,1.41,0,0,0-1.09-.441C-945.506,929.191-945.989,929.365-945.989,929.906Z" transform="translate(946.43 -926.944)"/><path class="a" d="M-900.5,921.059a.128.128,0,0,1,.125-.125.128.128,0,0,1,.125.125v1.015h.749a.11.11,0,0,1,.108.108.11.11,0,0,1-.108.108h-.749v2.646a.674.674,0,0,0,.691.766.11.11,0,0,1,.108.108.11.11,0,0,1-.108.108.9.9,0,0,1-.94-.982v-2.646h-.516a.11.11,0,0,1-.108-.108.11.11,0,0,1,.108-.108h.516Z" transform="translate(906.888 -919.927)"/><path class="a" d="M-861.312,929.492v2.347c0,.682.216,1.265,1.273,1.265s1.273-.583,1.273-1.265v-2.347a.128.128,0,0,1,.125-.125.128.128,0,0,1,.125.125v2.347c0,.774-.266,1.481-1.523,1.481s-1.523-.708-1.523-1.481v-2.347a.128.128,0,0,1,.125-.125A.128.128,0,0,1-861.312,929.492Z" transform="translate(872.366 -927.287)"/><path class="a" d="M-808.48,915.844v-2.7a.128.128,0,0,1,.125-.125.128.128,0,0,1,.125.125v4.294a1.48,1.48,0,0,1-1.606,1.615c-1.065,0-1.706-.641-1.706-2.006s.641-2,1.706-2A1.445,1.445,0,0,1-808.48,915.844Zm-1.357-.574c-.94,0-1.44.549-1.44,1.781,0,1.249.5,1.79,1.44,1.79a1.251,1.251,0,0,0,1.357-1.4v-1.2A1.473,1.473,0,0,0-809.837,915.27Z" transform="translate(828.714 -913.023)"/><path class="a" d="M-756.946,918.3c0-.125.05-.175.15-.175s.15.05.15.175-.05.175-.15.175S-756.946,918.422-756.946,918.3Zm.275,1.381v3.662a.128.128,0,0,1-.125.125.128.128,0,0,1-.125-.125v-3.662a.128.128,0,0,1,.125-.125A.128.128,0,0,1-756.672,919.678Z" transform="translate(781.067 -917.473)"/><path class="a" d="M-724.635,930.971c0,1.365-.641,2.006-1.706,2.006s-1.706-.641-1.706-2.006.641-2,1.706-2S-724.635,929.607-724.635,930.971Zm-.266,0c0-1.223-.508-1.781-1.44-1.781s-1.44.558-1.44,1.781c0,1.24.508,1.789,1.44,1.789S-724.9,932.212-724.9,930.971Z" transform="translate(755.847 -926.944)"/><path class="a" d="M-637.5,915.844v-2.7a.128.128,0,0,1,.125-.125.128.128,0,0,1,.125.125v4.294a1.48,1.48,0,0,1-1.606,1.615c-1.065,0-1.706-.641-1.706-2.006s.641-2,1.706-2A1.445,1.445,0,0,1-637.5,915.844Zm-1.357-.574c-.94,0-1.44.549-1.44,1.781,0,1.249.5,1.79,1.44,1.79a1.251,1.251,0,0,0,1.357-1.4v-1.2A1.473,1.473,0,0,0-638.856,915.27Z" transform="translate(679.499 -913.023)"/><path class="a" d="M-586.359,928.974a1.435,1.435,0,0,1,1.565,1.59,1.985,1.985,0,0,1-.016.308c-.017.091-.075.133-.183.133h-2.8c0,1.2.558,1.756,1.531,1.756a1.646,1.646,0,0,0,1.173-.416.111.111,0,0,1,.067-.025.11.11,0,0,1,.108.108.127.127,0,0,1-.05.092,1.823,1.823,0,0,1-1.3.458c-1.107,0-1.789-.6-1.789-2.006C-588.057,929.682-587.425,928.974-586.359,928.974Zm0,.216c-.94,0-1.406.616-1.44,1.606h2.755s.008-.167.008-.233A1.21,1.21,0,0,0-586.359,929.191Z" transform="translate(633.678 -926.944)"/><path class="a" d="M-538.448,929.906c0,1.107,2.38.724,2.38,2.039,0,.707-.6,1.032-1.373,1.032a1.79,1.79,0,0,1-1.415-.574.119.119,0,0,1-.033-.083.11.11,0,0,1,.108-.108.1.1,0,0,1,.075.033,1.539,1.539,0,0,0,1.265.516c.607,0,1.124-.216,1.124-.816,0-1.073-2.38-.724-2.38-2.039,0-.641.541-.932,1.223-.932a1.574,1.574,0,0,1,1.24.5.119.119,0,0,1,.033.083.11.11,0,0,1-.108.108.093.093,0,0,1-.075-.033,1.41,1.41,0,0,0-1.09-.441C-537.965,929.191-538.448,929.365-538.448,929.906Z" transform="translate(590.769 -926.944)"/><path class="a" d="M-490.178,918.3c0-.125.05-.175.15-.175s.15.05.15.175-.05.175-.15.175S-490.178,918.422-490.178,918.3Zm.275,1.381v3.662a.128.128,0,0,1-.125.125.128.128,0,0,1-.125-.125v-3.662a.128.128,0,0,1,.125-.125A.128.128,0,0,1-489.9,919.678Z" transform="translate(548.259 -917.473)"/><path class="a" d="M-459.572,932.986c-1.065,0-1.706-.641-1.706-2.006s.641-2.006,1.706-2.006a1.48,1.48,0,0,1,1.606,1.615v2.38a1.468,1.468,0,0,1-1.648,1.573,1.7,1.7,0,0,1-1.365-.541.135.135,0,0,1-.025-.075.11.11,0,0,1,.108-.108.114.114,0,0,1,.092.05,1.426,1.426,0,0,0,1.19.466,1.246,1.246,0,0,0,1.4-1.365v-.774A1.445,1.445,0,0,1-459.572,932.986Zm1.357-2.4a1.251,1.251,0,0,0-1.357-1.4c-.94,0-1.44.541-1.44,1.789,0,1.232.5,1.789,1.44,1.789a1.472,1.472,0,0,0,1.357-.974Z" transform="translate(523.038 -926.944)"/><path class="a" d="M-408.056,932.811v-3.662a.128.128,0,0,1,.125-.125.128.128,0,0,1,.125.125v.624a1.328,1.328,0,0,1,1.307-.8,1.307,1.307,0,0,1,1.49,1.473v2.363a.128.128,0,0,1-.125.125.128.128,0,0,1-.125-.125v-2.363a1.094,1.094,0,0,0-1.248-1.257,1.255,1.255,0,0,0-1.3,1.34v2.28a.128.128,0,0,1-.125.125A.128.128,0,0,1-408.056,932.811Z" transform="translate(476.591 -926.944)"/></g></g></g></svg>