<svg xmlns="http://www.w3.org/2000/svg" xmlns:xlink="http://www.w3.org/1999/xlink" width="110.049" height="165.788" viewBox="0 0 110.049 165.788"><defs><style>.a{fill:none;}.b{fill:url(#a);}.c{fill:url(#b);}.d{fill:url(#c);}.e{fill:url(#d);}.f{fill:#fff;}.g{fill:#aa076b;}.h{clip-path:url(#e);}.i{clip-path:url(#f);}.j{fill:url(#h);}.k{fill:url(#l);}.l{fill:url(#m);}.m{fill:url(#n);}</style><linearGradient id="a" x1="-0.026" y1="0.074" x2="0.783" y2="0.775" gradientUnits="objectBoundingBox"><stop offset="0" stop-color="#aa076b"/><stop offset="1" stop-color="#61045f"/></linearGradient><linearGradient id="b" x1="-0.058" y1="0.123" x2="1.228" y2="0.7" xlink:href="#a"/><linearGradient id="c" x1="0.666" y1="0.5" x2="1" y2="1" xlink:href="#a"/><linearGradient id="d" x1="0" y1="0.062" x2="0.729" y2="0.708" xlink:href="#a"/><clipPath id="e"><path class="a" d="M-2616.031,2013.114c-2.1-.894-5.294-.281-5.671,1.134-.292,1.091,1.17,2.374,2.126,3.214.976.856,1.709,1.5,2.552,1.371,1.72-.264,3-3.606,1.938-5.057A2.118,2.118,0,0,0-2616.031,2013.114Z" transform="translate(2621.74 -2012.696)"/></clipPath><clipPath id="f"><path class="a" d="M-2402.648,2025.056c.545-.669,1.443-.277,3.466-.425,3.078-.225,3.682-1.331,5.483-.819.935.266,2.315,1,2.41,2,.142,1.486-2.618,2.98-4.758,3.45-2,.44-5.285.386-6.459-1.56A2.523,2.523,0,0,1-2402.648,2025.056Z" transform="translate(2402.967 -2023.677)"/></clipPath><linearGradient id="h" x1="0.5" y1="0.5" x2="0.796" y2="0.758" xlink:href="#a"/><linearGradient id="l" x1="0.56" y1="0.569" x2="0.08" y2="0.123" xlink:href="#a"/><linearGradient id="m" x1="0.861" y1="0.827" x2="0" y2="0" xlink:href="#a"/><linearGradient id="n" x1="0.747" y1="0.333" x2="1.422" y2="0.777" xlink:href="#a"/></defs><g transform="translate(2649.769 -1672.748)"><path class="b" d="M-2414.1,1739.769a5.111,5.111,0,0,0-.712-.052,5.367,5.367,0,0,0-5.25,5.244,5.339,5.339,0,0,0,5.274,5.317,5.231,5.231,0,0,0,5.2-5.234,5.318,5.318,0,0,0-.23-1.6A12.517,12.517,0,0,0-2414.1,1739.769Z" transform="translate(-144.659 -42.175)"/><path class="c" d="M-2395.483,1790.49a5.615,5.615,0,0,0,5.437,5.565,47.453,47.453,0,0,0,.317-5.635,55.04,55.04,0,0,0-.267-5.558A5.618,5.618,0,0,0-2395.483,1790.49Z" transform="translate(-160.14 -70.605)"/><path class="d" d="M-2440.969,1796.061a5.629,5.629,0,0,0,5.7-5.553,5.625,5.625,0,0,0-5.614-5.648,5.655,5.655,0,0,0-5.611,5.556A5.665,5.665,0,0,0-2440.969,1796.061Z" transform="translate(-128.017 -70.605)"/><path class="e" d="M-2415.351,1828.927a5.539,5.539,0,0,0-5.584,5.633,5.562,5.562,0,0,0,4.524,5.415,13.239,13.239,0,0,0,6.664-5.206c.005-.112.015-.224.014-.338A5.586,5.586,0,0,0-2415.351,1828.927Z" transform="translate(-144.11 -98.356)"/><g transform="translate(-2644.153 1776.931)"><path class="f" d="M-2634.6,1954.925q0-.368.353-.368h3.812a3.473,3.473,0,0,1,1.408.284,3.538,3.538,0,0,1,1.124.771,3.555,3.555,0,0,1,.744,1.135,3.538,3.538,0,0,1,.268,1.369,3.458,3.458,0,0,1-.265,1.343,3.573,3.573,0,0,1-.736,1.124,3.564,3.564,0,0,1-1.113.774,3.357,3.357,0,0,1-1.392.288h-2.723v3.966a.3.3,0,0,1-.337.337h-.805a.3.3,0,0,1-.338-.337Zm6.228,3.176a1.965,1.965,0,0,0-.161-.783,2.165,2.165,0,0,0-.441-.663,2.174,2.174,0,0,0-.656-.46,1.912,1.912,0,0,0-.805-.172h-2.685v4.157h2.685a1.9,1.9,0,0,0,.79-.169,2.159,2.159,0,0,0,.659-.456,2.184,2.184,0,0,0,.449-.663A1.944,1.944,0,0,0-2628.372,1958.1Z" transform="translate(2634.6 -1954.404)"/><path class="f" d="M-2594.4,1954.925a.38.38,0,0,1-.088-.264c.012-.069.078-.1.2-.1h1.243l.115.015a.211.211,0,0,1,.084.035.3.3,0,0,1,.077.088c.026.041.059.1.1.169l2.746,4.763h.023l2.8-4.817a.532.532,0,0,1,.154-.2.482.482,0,0,1,.184-.058h1.281q.169,0,.169.138a.423.423,0,0,1-.084.2q-.476.76-.943,1.546t-.932,1.58q-.464.794-.936,1.58t-.955,1.546v4.434q0,.368-.337.368h-.821q-.323,0-.323-.368v-4.4Z" transform="translate(2609.341 -1954.404)"/><path class="f" d="M-2543.068,1954.557a.4.4,0,0,1,.249.084.34.34,0,0,1,.127.253v.775a.4.4,0,0,1-.092.265.349.349,0,0,1-.284.111h-3.191v9.549a.366.366,0,0,1-.092.245.325.325,0,0,1-.261.107h-.774a.351.351,0,0,1-.246-.1.33.33,0,0,1-.107-.253v-9.549h-3.206a.357.357,0,0,1-.253-.092.369.369,0,0,1-.1-.284v-.775a.318.318,0,0,1,.1-.245.357.357,0,0,1,.253-.092Z" transform="translate(2582.14 -1954.404)"/><path class="f" d="M-2498.873,1954.894a.338.338,0,0,1,.092-.237.316.316,0,0,1,.245-.1h.775a.4.4,0,0,1,.253.092.3.3,0,0,1,.115.245v10.716q0,.337-.368.337h-.775a.3.3,0,0,1-.337-.337v-4.925h-6.466v4.925q0,.337-.368.337h-.774a.3.3,0,0,1-.338-.337v-10.716a.338.338,0,0,1,.092-.237.318.318,0,0,1,.246-.1h.79a.35.35,0,0,1,.245.1.313.313,0,0,1,.107.237v4.3h6.466Z" transform="translate(2554.128 -1954.404)"/><path class="f" d="M-2453.31,1954.143a5.787,5.787,0,0,1,1.553.207,5.717,5.717,0,0,1,1.4.59,6.043,6.043,0,0,1,1.185.916,5.678,5.678,0,0,1,.917,1.189,6.076,6.076,0,0,1,.591,1.408,5.764,5.764,0,0,1,.211,1.565,5.791,5.791,0,0,1-.207,1.554,5.72,5.72,0,0,1-.591,1.4,5.935,5.935,0,0,1-.917,1.181,5.761,5.761,0,0,1-1.185.912,5.88,5.88,0,0,1-1.4.587,5.865,5.865,0,0,1-1.565.207,5.823,5.823,0,0,1-1.561-.207,5.725,5.725,0,0,1-1.4-.59,5.947,5.947,0,0,1-1.181-.917,5.8,5.8,0,0,1-.913-1.181,5.823,5.823,0,0,1-.587-1.4,5.843,5.843,0,0,1-.207-1.561,5.818,5.818,0,0,1,.207-1.553,5.818,5.818,0,0,1,.591-1.4,6.01,6.01,0,0,1,.917-1.189,5.73,5.73,0,0,1,1.185-.917,6,6,0,0,1,1.4-.59A5.714,5.714,0,0,1-2453.31,1954.143Zm-4.387,5.837a4.247,4.247,0,0,0,.157,1.162,4.5,4.5,0,0,0,.441,1.043,4.326,4.326,0,0,0,.683.886,4.3,4.3,0,0,0,.885.682,4.488,4.488,0,0,0,1.043.441,4.243,4.243,0,0,0,1.162.157,4.26,4.26,0,0,0,1.158-.157,4.4,4.4,0,0,0,1.043-.441,4.358,4.358,0,0,0,.882-.682,4.315,4.315,0,0,0,.683-.886,4.485,4.485,0,0,0,.441-1.043,4.257,4.257,0,0,0,.157-1.162,4.218,4.218,0,0,0-.345-1.7,4.434,4.434,0,0,0-.936-1.384,4.447,4.447,0,0,0-1.384-.936,4.219,4.219,0,0,0-1.7-.345,4.239,4.239,0,0,0-1.162.157,4.472,4.472,0,0,0-1.043.441,4.3,4.3,0,0,0-.885.683,4.358,4.358,0,0,0-.683.882,4.4,4.4,0,0,0-.441,1.043A4.262,4.262,0,0,0-2457.7,1959.98Z" transform="translate(2524.121 -1954.143)"/><path class="f" d="M-2396.75,1965.947a.354.354,0,0,1-.292-.169l-6.7-8.974v8.805q0,.337-.353.337h-.775a.3.3,0,0,1-.338-.337v-10.7a.358.358,0,0,1,.092-.253.318.318,0,0,1,.246-.1h1.028a.381.381,0,0,1,.322.169l6.527,8.675v-8.56a.306.306,0,0,1,.337-.284h.775a.41.41,0,0,1,.257.092.3.3,0,0,1,.119.245v10.716q0,.337-.376.337Z" transform="translate(2490.134 -1954.404)"/></g><g transform="translate(-2644.021 1792.616)"><path class="f" d="M-2625.2,2000.531a3.448,3.448,0,0,1-.292,1.409,3.284,3.284,0,0,1-.813,1.131,3.531,3.531,0,0,1,.726.565,3.78,3.78,0,0,1,.562.726,3.5,3.5,0,0,1,.361.848,3.494,3.494,0,0,1,.125.939,3.814,3.814,0,0,1-.278,1.444,3.9,3.9,0,0,1-.766,1.209,3.678,3.678,0,0,1-1.153.831,3.381,3.381,0,0,1-1.439.309h-5.68a.428.428,0,0,1-.287-.1.355.355,0,0,1-.113-.287v-12.116q0-.418.4-.418h5.106a3.589,3.589,0,0,1,1.4.27,3.537,3.537,0,0,1,1.122.739,3.379,3.379,0,0,1,.748,1.11A3.528,3.528,0,0,1-2625.2,2000.531Zm-1.7,0a1.983,1.983,0,0,0-.135-.739,1.714,1.714,0,0,0-.383-.587,1.723,1.723,0,0,0-.587-.383,2.011,2.011,0,0,0-.748-.135h-3.827v3.775h3.81a1.853,1.853,0,0,0,.743-.148,1.772,1.772,0,0,0,.592-.408,1.954,1.954,0,0,0,.391-.614A1.99,1.99,0,0,0-2626.9,2000.531Zm-5.68,3.592v4.157h4.4a1.7,1.7,0,0,0,.757-.174,2.054,2.054,0,0,0,.622-.465,2.2,2.2,0,0,0,.417-.678,2.2,2.2,0,0,0,.152-.814,1.986,1.986,0,0,0-.152-.774,2.138,2.138,0,0,0-.413-.644,1.984,1.984,0,0,0-.617-.444,1.8,1.8,0,0,0-.766-.165Z" transform="translate(2634.243 -1996.835)"/><path class="f" d="M-2583.593,1997.444q0-.418.383-.418h5.019a4.007,4.007,0,0,1,1.618.326,4.156,4.156,0,0,1,1.3.887,4.121,4.121,0,0,1,.874,1.313,4.091,4.091,0,0,1,.317,1.6,4.008,4.008,0,0,1-.17,1.169,4.162,4.162,0,0,1-.474,1.04,4.033,4.033,0,0,1-.731.857,4.122,4.122,0,0,1-.948.63l2.3,4.706v.113c0,.18-.108.27-.322.27h-1.053a.459.459,0,0,1-.417-.322l-2.088-4.384a1.2,1.2,0,0,1-.152.009c-.055,0-.134,0-.235,0s-.237,0-.4,0h-3.131v4.306q0,.383-.4.383h-.9a.338.338,0,0,1-.383-.383Zm7.846,3.7a2.354,2.354,0,0,0-.187-.922,2.545,2.545,0,0,0-.513-.783,2.5,2.5,0,0,0-.774-.544,2.31,2.31,0,0,0-.97-.2h-3.714v4.906h3.749a2.3,2.3,0,0,0,.957-.2,2.4,2.4,0,0,0,.765-.539,2.517,2.517,0,0,0,.5-.783A2.411,2.411,0,0,0-2575.747,2001.14Z" transform="translate(2602.345 -1996.835)"/><path class="f" d="M-2532.71,2009.62a.548.548,0,0,1-.174.235.456.456,0,0,1-.287.087h-.922q-.4,0-.4-.3a.911.911,0,0,1,0-.1.638.638,0,0,1,.013-.074.621.621,0,0,1,.018-.061l5.019-12.055c.011-.029.026-.062.043-.1a.409.409,0,0,1,.07-.1.347.347,0,0,1,.126-.083.58.58,0,0,1,.222-.035h.574a.556.556,0,0,1,.213.035.349.349,0,0,1,.125.083.4.4,0,0,1,.07.1c.018.038.032.071.044.1l4.975,12.055c.005.029.011.058.017.087s.011.056.018.083a.34.34,0,0,1,.009.065q0,.305-.4.3h-.922a.455.455,0,0,1-.287-.087.544.544,0,0,1-.174-.235l-.957-2.392h-6.106q-.3.774-.557,1.4T-2532.71,2009.62Zm1.626-4.079h4.741l-2.349-5.949Z" transform="translate(2571.425 -1996.835)"/><path class="f" d="M-2474.09,1999.518q-.122-.078-.4-.3a5.363,5.363,0,0,0-.683-.461,5.878,5.878,0,0,0-.909-.422,3.106,3.106,0,0,0-1.088-.187,3.768,3.768,0,0,0-1.183.165,2.431,2.431,0,0,0-.817.439,1.729,1.729,0,0,0-.474.618,1.69,1.69,0,0,0-.152.692,1.125,1.125,0,0,0,.322.817,2.8,2.8,0,0,0,.852.574,8.75,8.75,0,0,0,1.2.439q.674.2,1.374.413t1.374.487a5.177,5.177,0,0,1,1.2.67,3.184,3.184,0,0,1,.853.957,2.654,2.654,0,0,1,.322,1.348,3.6,3.6,0,0,1-.378,1.657,3.849,3.849,0,0,1-1.035,1.27,4.805,4.805,0,0,1-1.543.813,6.145,6.145,0,0,1-1.905.287,6,6,0,0,1-1.344-.152,6.159,6.159,0,0,1-1.279-.444,6.018,6.018,0,0,1-1.144-.709,5.485,5.485,0,0,1-.948-.957.42.42,0,0,1-.109-.278.358.358,0,0,1,.152-.261l.687-.574a.4.4,0,0,1,.287-.109.375.375,0,0,1,.252.152l.113.113a4.056,4.056,0,0,0,.831.709,6.085,6.085,0,0,0,.93.5,5.316,5.316,0,0,0,.892.291,3.371,3.371,0,0,0,.722.1,4.483,4.483,0,0,0,1.087-.139,3.542,3.542,0,0,0,1.018-.427,2.474,2.474,0,0,0,.757-.726,1.8,1.8,0,0,0,.3-1.031,1.253,1.253,0,0,0-.292-.839,2.561,2.561,0,0,0-.787-.6,7.073,7.073,0,0,0-1.161-.461q-.666-.2-1.422-.431a14,14,0,0,1-1.792-.639,5.249,5.249,0,0,1-1.231-.739,2.556,2.556,0,0,1-.709-.9,2.7,2.7,0,0,1-.226-1.126,3.275,3.275,0,0,1,.318-1.448,3.328,3.328,0,0,1,.9-1.135,4.25,4.25,0,0,1,1.4-.744,5.979,5.979,0,0,1,1.84-.265,4.969,4.969,0,0,1,1.139.139,6.545,6.545,0,0,1,1.152.387,6.225,6.225,0,0,1,1.053.592,4.522,4.522,0,0,1,.848.761.421.421,0,0,1,.126.274.36.36,0,0,1-.135.274l-.617.592a.381.381,0,0,1-.283.122A.407.407,0,0,1-2474.09,1999.518Z" transform="translate(2538.351 -1996.509)"/><path class="f" d="M-2430.655,1997.408a.391.391,0,0,1,.1-.269.355.355,0,0,1,.282-.113h.9a.418.418,0,0,1,.279.1.349.349,0,0,1,.122.278v12.151q0,.383-.4.383h-.9a.338.338,0,0,1-.383-.383Z" transform="translate(2506.031 -1996.835)"/><path class="f" d="M-2391.892,2008.255a.376.376,0,0,1,.27.109.4.4,0,0,1,.113.3v.9a.385.385,0,0,1-.1.27.36.36,0,0,1-.278.113h-7.394a.338.338,0,0,1-.383-.383v-12.151a.382.382,0,0,1,.1-.269.38.38,0,0,1,.3-.113h.9a.4.4,0,0,1,.274.1.362.362,0,0,1,.108.287v10.846Z" transform="translate(2486.517 -1996.835)"/></g><g transform="translate(-2649.769 1799.936)"><path class="g" d="M-2637.933,2040.264c-1.612,1.338-3.194,2.714-4.843,4-1.522,1.191-3.143,2.257-4.667,3.447a2.979,2.979,0,0,0-1.434,2.359c1.861-2.726,4.663-4.143,7.084-6.013.649-.5,1.426-.833,2.089-1.319a25.251,25.251,0,0,0,3.6-2.828,68.474,68.474,0,0,0,4.927-5.914,11.887,11.887,0,0,0,2.253-7.86c-.035-.772-.047-1.595-.926-2.029-.162-.08-.211-.39-.343-.657l.486.12c-.027-.1-.024-.2-.073-.26-.743-.846-1.523-1.661-2.235-2.532-1.309-1.6-3.114-1.476-4.872-1.394-.484.023-.945.462-1.425.692-1.489.715-2.952,1.494-4.481,2.111-1.908.77-1.773,2.7-2.476,4.134a12.4,12.4,0,0,0-.545,2.293c-.124-1.366-.594-2.744.14-4.106.61-1.133,1.231-2.261,1.835-3.4a1.764,1.764,0,0,0,.042-.521c-1.269.957-1.648,2.308-2.393,3.471a5.328,5.328,0,0,1,.221-.846,10.464,10.464,0,0,1,5.7-6.007,11.54,11.54,0,0,1,10.234.561,8.315,8.315,0,0,1,3.363,4.046c2.169,4.734,1.618,9.281-1.074,13.644a29.507,29.507,0,0,1-5.686,6.985c-1.517,1.312-3.045,2.611-4.615,3.857-1.031.818-2.148,1.525-3.217,2.3a4.287,4.287,0,0,0-.527.656c.994,0,1.758,0,2.522,0,1.729,0,3.46-.048,5.187.009.652.022,1.29.355,1.945.412.843.074,1.7.009,2.547.01q1.488,0,2.976.017,7.556.067,15.111.135c2.219.017,4.437,0,6.656,0v.215h-10.9l0,.315h9.754l.009.222-1.269.1v.158c2.669,0,5.34-.051,8.007.014,2.709.067,5.414.326,8.122.358,2.675.031,5.351-.146,8.027-.181,2.715-.035,5.43-.008,8.159-.015h-1.9l.01.226c.707,0,1.414-.034,2.118.006,2.419.139,4.836.3,7.255.459,1.86.119,3.72.239,5.582.414l-25.093.583v.1h12.662l0,.225-11.805.307v.129h12.568v.191h-8.579v.3h24.9v.385h-66.544l0,.223h6.969l0,.308h-13.455l1.962-.245,0-.208q-2.223,0-4.446,0c-2.065,0-4.135.1-6.195,0-2.511-.125-5.024-.338-7.514-.677a6.314,6.314,0,0,1-2.526-1.139,1.875,1.875,0,0,1-.724-2.109,5.138,5.138,0,0,1,1.8-2.846c1.866-1.466,3.737-2.927,5.642-4.341,1.415-1.05,2.888-2.023,4.334-3.031Zm34.733,11.35-.017.124h5.626v-.124Zm-17.732-.527v.049h7.255v-.049Zm-7.354-29.6a3.065,3.065,0,0,0-2.24-2.37Zm36.366,30.2,0-.157h-3.837l0,.157Z" transform="translate(2649.769 -2016.28)"/><path class="g" d="M-2561.354,2044.02c-.341,1.439-1.555,1.394-2.645,1.543-.483.066-.972.085-1.447.187a7.868,7.868,0,0,0,5.642-1.4c5.271-3.453,8.2-8.293,8.368-14.679a11.457,11.457,0,0,0-1.189-4.726l.578.746c.37-.533.264-.8-.711-1.792.035-.032.088-.1.1-.091a3.952,3.952,0,0,1,2.16,4.477,5.089,5.089,0,0,0,.482,1.8,3.878,3.878,0,0,1,.27,1.184c-.079,1.259-.239,2.514-.368,3.77l.36.052q.348-1.752.7-3.5l.143.011v1.119c.863-3.39.613-9.527-4.585-12.894.316.182.624.38.949.541.674.333.85,1.364,1.912,1.245.26-.029.634.7.911,1.111a12.852,12.852,0,0,1,2.081,6.71,19.788,19.788,0,0,1-1.538,8.758,20.45,20.45,0,0,1-7.771,9.533,13.8,13.8,0,0,1-9.337,2.367,9.657,9.657,0,0,1-8.225-6.529,15.535,15.535,0,0,1-.958-9.546c.346-1.369.945-2.674,1.426-4.009q.471-1.306.935-2.615l.224.073-.576,2.144.21.1c.633-1.049,1.269-2.1,1.9-3.149.1-.175.155-.518.266-.534,1.078-.153,1.656-1.043,2.456-1.812l-.46,1.4.644-.26c-.091.443-.15.875-.271,1.288-.4,1.378-.813,2.754-1.246,4.123-.323,1.02-.686,2.028-1.027,3.042-.587,1.744-.141,3.516.086,5.219a7.393,7.393,0,0,0,2.054,4.432,5.866,5.866,0,0,0,4.462,1.851,5.089,5.089,0,0,0,2.121-.814c.314-.15.626-.3.939-.456Z" transform="translate(2603.223 -2018.514)"/><path class="g" d="M-2485.708,2045.856h-2.493l-.015.167,2.709.427a6.935,6.935,0,0,1-5.419.119,1.35,1.35,0,0,0-.947.029c-1.782.773-3.671.381-5.5.577a7.229,7.229,0,0,0-1.4.442l.071.334,3.363-.26.023.321-1.207.071,0,.182,13.529.355c-.038.063-.06.14-.091.144a87.558,87.558,0,0,1-14.933.218,7.324,7.324,0,0,1-2.814-.865,2.52,2.52,0,0,1-1.206-3.695,14.072,14.072,0,0,1,4.245-4.83c3.367-2.777,6.762-5.521,10.068-8.368a17.129,17.129,0,0,0,2.467-2.956c1.188-1.624.852-3.366.078-5.006a3.2,3.2,0,0,0-2.752-1.48c-1.206-.154-2.513-.718-3.639.316a12.13,12.13,0,0,1-1.723,1.4l1.039-1.463a3.849,3.849,0,0,0-2.653,2.44.8.8,0,0,1-.253.337c-1.07.731-1.072.728-1.537,1.675-.286-.249.179-1.1-.709-.843a9.963,9.963,0,0,1,2.009-5.146,4.746,4.746,0,0,1,2.647-1.965c.679-.145,1.3-.554,1.982-.683a10.078,10.078,0,0,1,6.661.514,7.2,7.2,0,0,1,2.628,2.38,10.229,10.229,0,0,1,1.58,6.8,6.147,6.147,0,0,1-1.216,2.876c-1.326,1.738-2.859,3.316-4.282,4.982-.564.661-1.059,1.383-1.585,2.076l-.315-.127c.1-.384.2-.767.32-1.239-1.154.951-2.234,1.883-3.357,2.759-1.726,1.345-3.5,2.633-5.218,3.984a7.494,7.494,0,0,0-1.462,1.491c-.352.492-.023.952.5,1.037a13.822,13.822,0,0,0,2.158.095c2.885.009,5.771,0,8.656,0Zm2.276-12.95-.032-.034-2.775,2.963-.041-.039Zm-14.822,13.7c-.843-.245-1.342-.706-1.027-1.718C-2500.043,2045.984-2499.722,2046.484-2498.254,2046.606Z" transform="translate(2556.963 -2017.065)"/><path class="g" d="M-2428.271,2030.829l-.491,1.131.245.163,1.784-2.466.248.125c-.036.172-.02.383-.115.509-.891,1.168-.183,2.419-.226,3.63-.013.361-.279.708-.317,1.073a8.908,8.908,0,0,0-.009,1.689c.072.808.342,1.581.458,2.392a6.117,6.117,0,0,0,1.032,2.644,13.921,13.921,0,0,0,2.38,2.261c.924.783,1.995-.032,2.991.183a1.709,1.709,0,0,0,1.138-.292,27.719,27.719,0,0,1-3.274-.43,3.585,3.585,0,0,1-2.442-2.036,16.644,16.644,0,0,0,1.3,1.212,3.255,3.255,0,0,0,1.144.561,7.594,7.594,0,0,0,5.471-.431,34.91,34.91,0,0,0,3.35-2.227l-.157-.248-.409.089,2.3-3.191.118.051-.6,1.434.257.1a21.415,21.415,0,0,0,.864-2.449,17.516,17.516,0,0,0,.539-3.511,6.9,6.9,0,0,0-1.742-5,5.978,5.978,0,0,0-5.185-1.788c-.545.033-1.084.185-1.623.212,2.611-1.017,5.014-.034,7.557.655l-2.373-1.748.034-.1,1.924.938a8.21,8.21,0,0,0-6.312-2.06c.767-.129,1.534-.254,2.3-.389a6.7,6.7,0,0,1,3.836.494,4.865,4.865,0,0,1,2.742,2.581,15.9,15.9,0,0,0,1.074,1.968,6.334,6.334,0,0,1,.994,3.671c-.108,1.921.733,3.892-.292,5.765.583,1.4-.513,2.258-1.107,3.231-.627,1.029-1.507,1.9-2.163,2.916a6.744,6.744,0,0,1-3.436,2.607,18.991,18.991,0,0,1-3.513,1.015,12.708,12.708,0,0,1-6.6-.506,7.344,7.344,0,0,1-2.516-1.848,10.287,10.287,0,0,1-2.825-5.237,13.553,13.553,0,0,1,.145-6.725,22.965,22.965,0,0,1,1.2-2.748Z" transform="translate(2511.531 -2020.776)"/><path class="g" d="M-2536.661,2077.574l.778-.143a9.223,9.223,0,0,1,.743-.841c1.156-1.018,2.329-2.018,3.495-3.024.168-.146.331-.3.538-.483a3.138,3.138,0,0,1-1.9,2.422c-.408.121-.732.554-1.074.868-.2.179-.319.519-.536.583-.686.206-1.207,1-2.065.6Z" transform="translate(2578.548 -2052.052)"/><path class="g" d="M-2475.159,2073.843a4.919,4.919,0,0,1-.732.938c-1.307,1.029-2.642,2.022-3.978,3.014a9.645,9.645,0,0,1-.937.549l-.224-.284a9.065,9.065,0,0,1,1.917-1.543,4.076,4.076,0,0,0,1.9-1.3,9.2,9.2,0,0,1,1.82-1.5Z" transform="translate(2543.504 -2052.448)"/><path class="g" d="M-2605.494,2058.975a17.536,17.536,0,0,1-3.647,5.2l-.178-.127Z" transform="translate(2624.295 -2043.168)"/><path class="g" d="M-2551.817,2020.2a10.917,10.917,0,0,1,4.608-3.507Z" transform="translate(2588.083 -2016.537)"/><path class="g" d="M-2537.889,2023.613a4.1,4.1,0,0,1,3.948-.922Z" transform="translate(2579.312 -2020.204)"/><path class="g" d="M-2422.575,2103.3h-4.993v-.167h4.981Z" transform="translate(2509.835 -2070.976)"/><path class="g" d="M-2431.112,2095.514h-4.7l0-.169h4.677Z" transform="translate(2515.031 -2066.072)"/><path class="g" d="M-2617.781,2076.113l2.585-2.937.406.426-3.008,2.493Z" transform="translate(2629.636 -2052.11)"/><path class="g" d="M-2366.684,2048.069l-.31,3.635-.2-.018q.245-1.807.49-3.614Z" transform="translate(2471.817 -2036.299)"/><path class="g" d="M-2439.365,2116.907h3.814v.085h-3.814Z" transform="translate(2517.265 -2079.651)"/></g><path class="f" d="M-2583.593,1997.444q0-.418.383-.418h5.019a4.007,4.007,0,0,1,1.618.326,4.156,4.156,0,0,1,1.3.887,4.121,4.121,0,0,1,.874,1.313,4.091,4.091,0,0,1,.317,1.6,4.008,4.008,0,0,1-.17,1.169,4.162,4.162,0,0,1-.474,1.04,4.033,4.033,0,0,1-.731.857,4.122,4.122,0,0,1-.948.63l2.3,4.706v.113c0,.18-.108.27-.322.27h-1.053a.459.459,0,0,1-.417-.322l-2.088-4.384a1.2,1.2,0,0,1-.152.009c-.055,0-.134,0-.235,0s-.237,0-.4,0h-3.131v4.306q0,.383-.4.383h-.9a.338.338,0,0,1-.383-.383Zm7.846,3.7a2.354,2.354,0,0,0-.187-.922,2.545,2.545,0,0,0-.513-.783,2.5,2.5,0,0,0-.774-.544,2.31,2.31,0,0,0-.97-.2h-3.714v4.906h3.749a2.3,2.3,0,0,0,.957-.2,2.4,2.4,0,0,0,.765-.539,2.517,2.517,0,0,0,.5-.783A2.411,2.411,0,0,0-2575.747,2001.14Z" transform="translate(-41.675 -204.218)"/><path class="f" d="M-2532.71,2009.62a.548.548,0,0,1-.174.235.456.456,0,0,1-.287.087h-.922q-.4,0-.4-.3a.911.911,0,0,1,0-.1.638.638,0,0,1,.013-.074.621.621,0,0,1,.018-.061l5.019-12.055c.011-.029.026-.062.043-.1a.409.409,0,0,1,.07-.1.347.347,0,0,1,.126-.083.58.58,0,0,1,.222-.035h.574a.556.556,0,0,1,.213.035.349.349,0,0,1,.125.083.4.4,0,0,1,.07.1c.018.038.032.071.044.1l4.975,12.055c.005.029.011.058.017.087s.011.056.018.083a.34.34,0,0,1,.009.065q0,.305-.4.3h-.922a.455.455,0,0,1-.287-.087.544.544,0,0,1-.174-.235l-.957-2.392h-6.106q-.3.774-.557,1.4T-2532.71,2009.62Zm1.626-4.079h4.741l-2.349-5.949Z" transform="translate(-72.596 -204.218)"/><path class="f" d="M-2430.655,1997.408a.391.391,0,0,1,.1-.269.355.355,0,0,1,.282-.113h.9a.418.418,0,0,1,.279.1.349.349,0,0,1,.122.278v12.151q0,.383-.4.383h-.9a.338.338,0,0,1-.383-.383Z" transform="translate(-137.99 -204.218)"/><g transform="translate(-2639.392 1798.609)"><g class="h"><path class="f" d="M-2625.2,2000.531a3.448,3.448,0,0,1-.292,1.409,3.284,3.284,0,0,1-.813,1.131,3.531,3.531,0,0,1,.726.565,3.78,3.78,0,0,1,.562.726,3.5,3.5,0,0,1,.361.848,3.494,3.494,0,0,1,.125.939,3.814,3.814,0,0,1-.278,1.444,3.9,3.9,0,0,1-.766,1.209,3.678,3.678,0,0,1-1.153.831,3.381,3.381,0,0,1-1.439.309h-5.68a.428.428,0,0,1-.287-.1.355.355,0,0,1-.113-.287v-12.116q0-.418.4-.418h5.106a3.589,3.589,0,0,1,1.4.27,3.537,3.537,0,0,1,1.122.739,3.379,3.379,0,0,1,.748,1.11A3.528,3.528,0,0,1-2625.2,2000.531Zm-1.7,0a1.983,1.983,0,0,0-.135-.739,1.714,1.714,0,0,0-.383-.587,1.723,1.723,0,0,0-.587-.383,2.011,2.011,0,0,0-.748-.135h-3.827v3.775h3.81a1.853,1.853,0,0,0,.743-.148,1.772,1.772,0,0,0,.592-.408,1.954,1.954,0,0,0,.391-.614A1.99,1.99,0,0,0-2626.9,2000.531Zm-5.68,3.592v4.157h4.4a1.7,1.7,0,0,0,.757-.174,2.054,2.054,0,0,0,.622-.465,2.2,2.2,0,0,0,.417-.678,2.2,2.2,0,0,0,.152-.814,1.986,1.986,0,0,0-.152-.774,2.138,2.138,0,0,0-.413-.644,1.984,1.984,0,0,0-.617-.444,1.8,1.8,0,0,0-.766-.165Z" transform="translate(2629.614 -2002.828)"/></g></g><g transform="translate(-2558.394 1802.675)"><g class="i" transform="translate(0 0)"><path class="f" d="M-2391.892,2008.255a.376.376,0,0,1,.27.109.4.4,0,0,1,.113.3v.9a.385.385,0,0,1-.1.27.36.36,0,0,1-.278.113h-7.394a.338.338,0,0,1-.383-.383v-12.151a.383.383,0,0,1,.1-.27.381.381,0,0,1,.3-.113h.9a.4.4,0,0,1,.274.1.361.361,0,0,1,.108.287v10.846Z" transform="translate(2400.889 -2006.893)"/></g></g><path class="d" d="M-2415.033,1749.764a5.63,5.63,0,0,0,5.7-5.553,5.625,5.625,0,0,0-5.614-5.648,5.655,5.655,0,0,0-5.611,5.557A5.665,5.665,0,0,0-2415.033,1749.764Z" transform="translate(-144.351 -41.448)"/><path class="j" d="M-2390.267,1795.976a5.629,5.629,0,0,0,5.7-5.553,5.625,5.625,0,0,0-5.614-5.648,5.655,5.655,0,0,0-5.611,5.556A5.665,5.665,0,0,0-2390.267,1795.976Z" transform="translate(-159.947 -70.551)"/><path class="d" d="M-2415.544,1839.891a5.628,5.628,0,0,0,5.7-5.553,5.625,5.625,0,0,0-5.614-5.648,5.656,5.656,0,0,0-5.612,5.556A5.665,5.665,0,0,0-2415.544,1839.891Z" transform="translate(-144.029 -98.207)"/><path class="d" d="M-2458.455,1752.792a4.57,4.57,0,0,0,4.632-4.509,4.567,4.567,0,0,0-4.558-4.586,4.592,4.592,0,0,0-4.556,4.511A4.6,4.6,0,0,0-2458.455,1752.792Z" transform="translate(-117.66 -44.682)"/><path class="d" d="M-2372.667,1752.792a4.57,4.57,0,0,0,4.632-4.509,4.568,4.568,0,0,0-4.558-4.586,4.592,4.592,0,0,0-4.556,4.511A4.6,4.6,0,0,0-2372.667,1752.792Z" transform="translate(-171.685 -44.682)"/><path class="k" d="M-2507.654,1760.2a8.221,8.221,0,0,1,7.809-8.275,29.5,29.5,0,0,0-1.576-5.913,7.847,7.847,0,0,1-7.379,5.036,7.778,7.778,0,0,1-7.907-7.913,7.768,7.768,0,0,1,3.179-6.361h-7.105v1.969a7.2,7.2,0,0,1,2.227,5.315,7.144,7.144,0,0,1-2.275,5.156,17.022,17.022,0,0,1-.6,3.266,8.464,8.464,0,0,1,3.106-.567,8.258,8.258,0,0,1,8.216,8.333,8.3,8.3,0,0,1-8.356,8.218,8.243,8.243,0,0,1-8.186-8.36c0-.166.009-.33.02-.493a13.979,13.979,0,0,1-7.344,1.809h-22.719a14.927,14.927,0,0,0-2.779.3c-.008.041-.021.08-.03.121a16.326,16.326,0,0,0-2.735.788,11.025,11.025,0,0,0-5.958,5.215l-.021,0c-.117.239-.225.491-.328.748-.036.085-.069.171-.1.256l-.017.044a11.661,11.661,0,0,0-.771,3.87q-.071,2.356-.07,4.715c0,3.854.017,7.707.024,11.56,0,.26,0,.52.007.78h.015v4.679s-1.938,12.55,23.146,12.55c24,0,22.5-10.409,22.5-10.409l-.027-10.784h-22.9c0-.008,0-.019,0-.027v-.739c.006-.338,0-.676,0-1.015v-.986c.016-.351.106-.358.626-.358h2.5v-.113h28.879s.088.01.247.018a8.239,8.239,0,0,1-2.741-6.166,8.256,8.256,0,0,1,8.26-8.29,8.334,8.334,0,0,1,7.546,4.844,26.542,26.542,0,0,0,1.312-4.578A8.275,8.275,0,0,1-2507.654,1760.2Zm-25.877,31.35a4.117,4.117,0,0,1,4.121,4.121,4.117,4.117,0,0,1-4.121,4.121,4.117,4.117,0,0,1-4.121-4.121A4.117,4.117,0,0,1-2533.532,1791.553Z" transform="translate(-50.642 -40.323)"/><path class="l" d="M-2566.988,1710.49a7.078,7.078,0,0,1-6.9-7.052,7.066,7.066,0,0,1,7.011-6.942,7.062,7.062,0,0,1,2.011.3q-.008-2.9-.016-5.792c0-1.834-.079-3.673.02-5.5a8.971,8.971,0,0,0-2.192-6.475,14.5,14.5,0,0,0-6.174-4.09,30.226,30.226,0,0,0-8.438-1.851c-2.223-.177-4.455-.358-6.681-.338-2.442.022-4.885.224-7.321.438a28.916,28.916,0,0,0-7.8,1.773,13.217,13.217,0,0,0-5.314,3.417,6.368,6.368,0,0,0-1.854,4.221c-.031,3.606,0,7.214-.014,10.821,0,.384.115.506.5.5,1.387-.019,2.774-.007,4.162-.006q8.9,0,17.8,0c.43,0,.6.1.58.559-.037.738-.01,1.479-.01,2.219,0,.626,0,.627-.631.627h-16.509q-7.885,0-15.769,0a12.3,12.3,0,0,0-6.8,2.041,14.979,14.979,0,0,0-5.618,7.048c-1.878,4.443-2.262,9.14-2.283,13.885-.007,1.551.141,3.1.245,4.655a32.589,32.589,0,0,0,1.129,6.575,18.923,18.923,0,0,0,4.083,7.935,11.057,11.057,0,0,0,8.614,3.856c2.235-.03,4.47-.005,6.706,0,.61,0,.611,0,.611-.606q0-5.087,0-10.173a17.458,17.458,0,0,1,.728-5.187,11.773,11.773,0,0,1,5.377-7.122,13.135,13.135,0,0,1,6.633-1.69c7.661-.014,15.322,0,22.983-.007a16.57,16.57,0,0,0,6-1.106,10.87,10.87,0,0,0,6.708-7.088A7.072,7.072,0,0,1-2566.988,1710.49Zm-33.842-22.15a4.213,4.213,0,0,1-4.162-4.241,4.181,4.181,0,0,1,4.188-4.2,4.208,4.208,0,0,1,4.218,4.23A4.231,4.231,0,0,1-2600.83,1688.34Z" transform="translate(-9.159 0)"/><g transform="translate(-2565.975 1677.619)"><path class="m" d="M-2421.463,1685.905a2.033,2.033,0,0,0-1.978,1.978c-.007.251-.119,6.176,3.613,9.908a11.422,11.422,0,0,0,3.933,2.505v-5.377a13.005,13.005,0,0,1,2.1-7.1A16.231,16.231,0,0,0-2421.463,1685.905Z" transform="translate(2423.443 -1685.904)"/><path class="m" d="M-2383.061,1685.9a9.027,9.027,0,0,0-9.016,9.016v9.242a10.115,10.115,0,0,1,2.033,2.021,10.122,10.122,0,0,1,2.032-2.022v-9.242a4.957,4.957,0,0,1,4.951-4.951,2.033,2.033,0,0,0,2.033-2.033A2.033,2.033,0,0,0-2383.061,1685.9Z" transform="translate(2403.69 -1685.904)"/></g></g></svg>