<svg xmlns="http://www.w3.org/2000/svg" width="87.972" height="114" viewBox="0 0 87.972 114"><defs><style>.a{fill:#183b50;}</style></defs><g transform="translate(-58.356 0)"><g transform="translate(58.356 0)"><path class="a" d="M146.328,49.124a18.053,18.053,0,0,0-18.165-18.165,18.474,18.474,0,0,0-12.975,5.449,16.649,16.649,0,0,0-10.121-5.19,18.186,18.186,0,0,1,17.906-15.83,2.452,2.452,0,0,0,2.595-2.595,2.452,2.452,0,0,0-2.595-2.595,23.46,23.46,0,0,0-16.089,6.488,18.692,18.692,0,0,0-5.709-10.64A22.1,22.1,0,0,0,83.787.078c-1.3,0-2.076,1.038-2.336,2.336A20.93,20.93,0,0,0,87.42,19.8a40.887,40.887,0,0,0,3.893,3.114,2.793,2.793,0,0,0,3.633-.779,2.793,2.793,0,0,0-.779-3.633,8.11,8.11,0,0,1-2.855-2.336A14.69,14.69,0,0,1,86.642,5.009,15.468,15.468,0,0,1,97.8,9.42c3.373,3.373,4.931,8.045,4.412,13.494a.953.953,0,0,1-.26.779,4.384,4.384,0,0,1-.779,1.557,22.475,22.475,0,0,0-1.557,8.3,2.452,2.452,0,0,0,2.595,2.595A12.975,12.975,0,1,1,89.237,49.124a12.458,12.458,0,0,1,4.412-9.6,2.576,2.576,0,0,0-3.373-3.893l-.779.779a18.474,18.474,0,0,0-12.975-5.449,18.165,18.165,0,0,0,0,36.331,15.226,15.226,0,0,0,5.969-1.038,2.627,2.627,0,0,0-1.816-4.931,13.183,13.183,0,0,1-4.412.779A12.976,12.976,0,1,1,86.123,40.82a18.725,18.725,0,0,0-2.076,8.3,18.2,18.2,0,0,0,17.127,18.165,11.618,11.618,0,0,1,1.038,5.19,12.925,12.925,0,0,1-25.691,2.076,2.646,2.646,0,0,0-5.19,1.038A18.047,18.047,0,0,0,85.085,90.125a13.965,13.965,0,0,0-1.038,5.709A18.053,18.053,0,0,0,102.212,114a18.345,18.345,0,0,0,17.906-15.051,2.646,2.646,0,1,0-5.19-1.038,12.925,12.925,0,0,1-25.691-2.076,16.774,16.774,0,0,1,1.038-5.19A18.2,18.2,0,0,0,107.4,72.479a13.965,13.965,0,0,0-1.038-5.709,18.093,18.093,0,0,0,14.013-17.646,17.118,17.118,0,0,0-2.076-8.3A12.941,12.941,0,1,1,128.162,62.1a13.183,13.183,0,0,1-4.412-.779,2.627,2.627,0,0,0-1.816,4.931,27.578,27.578,0,0,0,4.931,1.038,11.618,11.618,0,0,1,1.038,5.19,12.849,12.849,0,0,1-12.975,12.975,13.182,13.182,0,0,1-4.412-.779,2.627,2.627,0,0,0-1.816,4.931,16.09,16.09,0,0,0,5.969,1.038A18.053,18.053,0,0,0,132.834,72.48a13.965,13.965,0,0,0-1.038-5.709A18.025,18.025,0,0,0,146.328,49.124Z" transform="translate(-58.356 0)"/></g></g></svg>