<svg xmlns="http://www.w3.org/2000/svg" width="47.673" height="47.673" viewBox="0 0 47.673 47.673"><defs><style>.a{fill:#08293c;}</style></defs><path class="a" d="M31.285,25.326h-14.9a1.49,1.49,0,1,0,0,2.98h14.9a1.49,1.49,0,0,0,0-2.98Zm2.98-8.939H13.408a1.49,1.49,0,0,0,0,2.98H34.265a1.49,1.49,0,0,0,0-2.98ZM23.836,0C10.673,0,0,9.338,0,20.857,0,27.44,3.494,33.3,8.939,37.124V47.673L19.38,41.337a27.335,27.335,0,0,0,4.456.377c13.165,0,23.836-9.338,23.836-20.857S37,0,23.836,0Zm0,38.734a24.109,24.109,0,0,1-5.035-.547L11.787,42.4l.094-6.91c-5.377-3.234-8.9-8.58-8.9-14.637,0-9.873,9.338-17.877,20.857-17.877s20.857,8,20.857,17.877S35.355,38.734,23.836,38.734Z"/></svg>