<svg xmlns="http://www.w3.org/2000/svg" width="21.411" height="19.503" viewBox="0 0 21.411 19.503"><defs><style>.a{fill:#f6f6f6;}</style></defs><path class="a" d="M16.381,20.772a1.776,1.776,0,0,1-.817,1.333c-.131.11-.374.31-.373.384a.523.523,0,0,1-.527.527h0a.524.524,0,0,1-.531-.519,1.59,1.59,0,0,1,.752-1.2c.265-.222.438-.378.438-.521a.525.525,0,0,0-1.05,0,.531.531,0,1,1-1.062,0,1.587,1.587,0,0,1,3.174,0Zm-1.706,2.734a.521.521,0,0,0-.519.531v0a.519.519,0,0,0,.519.529.532.532,0,0,0,0-1.064Zm-10.7,3.7a.531.531,0,1,0,0,1.062h.044a.531.531,0,1,0,0-1.062Zm1.845,0a.531.531,0,1,0,0,1.062h.044a.531.531,0,1,0,0-1.062Zm15.591-8.479V24.7a2.552,2.552,0,0,1-2.549,2.563H11.978c-.135,0-.245,0-.338,0s-.207,0-.249,0c-.044.029-.153.129-.258.226l-.139.127L9.045,29.39A.543.543,0,0,1,8.14,29V23.37H2.579a1.521,1.521,0,0,0-1.517,1.509v5.975a1.5,1.5,0,0,0,1.517,1.481h7.69a.533.533,0,0,1,.354.15l1.587,1.463V28.9a.531.531,0,1,1,1.062,0v6.249a.523.523,0,0,1-.313.483.509.509,0,0,1-.21.042.536.536,0,0,1-.358-.144L10.063,33.4H2.579A2.561,2.561,0,0,1,0,30.854V24.879a2.584,2.584,0,0,1,2.579-2.571H8.14V18.725a2.575,2.575,0,0,1,2.588-2.551h8.135A2.542,2.542,0,0,1,21.411,18.725Zm-1.062,0a1.479,1.479,0,0,0-1.487-1.489H10.727A1.512,1.512,0,0,0,9.2,18.725v9.07l1.067-.965c.049-.045.1-.086.145-.124a1.34,1.34,0,0,1,1.248-.508c.087,0,.19,0,.316,0h6.884a1.489,1.489,0,0,0,1.487-1.5Z" transform="translate(0 -16.174)"/></svg>